<?xml version="1.0" encoding="UTF-8"?><svg id="Layer_2" xmlns="http://www.w3.org/2000/svg" viewBox="0 0 591.93 568.74"><defs><style>.cls-1{stroke:#00402d;}.cls-1,.cls-2{fill:none;stroke-miterlimit:10;}.cls-3{fill:#00402d;}.cls-2{stroke:#b0794f;stroke-width:3px;}.cls-4{fill:#fff3dc;}</style></defs><g id="Layer_1-2"><path class="cls-2" d="M182.51,242.42c8.82-65,29.66-139.03,66.6-222.94-71.95,0-119,154.97-237.98,154.97,84.86,86.69,79.32,309.91,0,378.17l72.41-38.39c62.86,23.68,116.61,34.51,162.04,35.59l10.44.08c332.8-3.05,195.5-546.79-73.51-307.49ZM172.7,444.43v-75.67c-.25-129.94,92.13-194.79,139.28-6.43,47.05,183.77-6.45,203.3-139.28,82.1Z"/><line class="cls-1" x1="90.45" y1="484.36" x2="13.74" y2="550.01"/><circle class="cls-4" cx="90.45" cy="484.36" r="2.61"/><line class="cls-1" x1="146.4" y1="537.9" x2="83.54" y2="514.22"/><circle class="cls-1" cx="90.45" cy="484.36" r="2.61"/><circle class="cls-4" cx="146.4" cy="537.9" r="2.61"/><circle class="cls-1" cx="146.4" cy="537.9" r="2.61"/><line class="cls-1" x1="172.7" y1="368.76" x2="172.7" y2="238.82"/><circle class="cls-4" cx="172.45" cy="238.82" r="2.61"/><circle class="cls-1" cx="172.45" cy="238.82" r="2.61"/><line class="cls-1" x1="305.52" y1="565.63" x2="172.7" y2="444.43"/><circle class="cls-4" cx="305.52" cy="565.63" r="2.61"/><polyline class="cls-1" points="264.82 173.97 311.98 362.33 359.02 546.1"/><line class="cls-1" x1="200.16" y1="548.74" x2="242.98" y2="549.76"/><circle class="cls-1" cx="305.52" cy="565.63" r="2.61"/><circle class="cls-4" cx="200.16" cy="548.74" r="2.61"/><circle class="cls-1" cx="200.16" cy="548.74" r="2.61"/><circle class="cls-4" cx="359.02" cy="546.1" r="2.61"/><circle class="cls-1" cx="359.02" cy="546.1" r="2.61"/><circle class="cls-4" cx="264.82" cy="173.97" r="2.61"/><circle class="cls-1" cx="264.82" cy="173.97" r="2.61"/><line class="cls-1" x1="258.63" y1="549.9" x2="591.43" y2="546.85"/><circle class="cls-4" cx="588.83" cy="546.85" r="2.61"/><circle class="cls-1" cx="588.83" cy="546.85" r="2.61"/><rect class="cls-3" x="253.42" y="547.29" width="5.21" height="5.21"/><rect class="cls-3" x="242.98" y="547.29" width="5.21" height="5.21"/><rect class="cls-3" x="80.93" y="511.62" width="5.21" height="5.21"/><rect class="cls-3" x="11.13" y="547.41" width="5.21" height="5.21"/><rect class="cls-3" x="170.09" y="441.82" width="5.21" height="5.21"/><rect class="cls-3" x="170.09" y="366.16" width="5.21" height="5.21"/><rect class="cls-3" x="179.91" y="239.81" width="5.21" height="5.21"/><rect class="cls-3" x="8.53" y="171.84" width="5.21" height="5.21"/><rect class="cls-3" x="309.32" y="357.43" width="5.21" height="5.21"/><polyline class="cls-1" points="451.52 3.11 182.51 242.42 191.33 177.42"/><circle class="cls-4" cx="451.52" cy="3.11" r="2.61"/><circle class="cls-1" cx="451.52" cy="3.11" r="2.61"/><circle class="cls-4" cx="191.33" cy="177.42" r="2.61"/><circle class="cls-1" cx="191.33" cy="177.42" r="2.61"/><rect class="cls-3" x="246.51" y="16.87" width="5.21" height="5.21"/><polyline class="cls-1" points="212.17 103.39 249.11 19.48 177.16 19.48"/><circle class="cls-4" cx="212.17" cy="103.39" r="2.61"/><circle class="cls-1" cx="212.17" cy="103.39" r="2.61"/><circle class="cls-4" cx="177.16" cy="19.48" r="2.61"/><circle class="cls-1" cx="177.16" cy="19.48" r="2.61"/><circle class="cls-4" cx="130.11" cy="174.45" r="2.61"/><circle class="cls-1" cx="130.11" cy="174.45" r="2.61"/><polyline class="cls-1" points="95.99 261.13 11.13 174.45 130.11 174.45"/><circle class="cls-4" cx="95.99" cy="261.13" r="2.61"/><circle class="cls-1" cx="95.99" cy="261.13" r="2.61"/></g></svg>