<svg xmlns="http://www.w3.org/2000/svg" xmlns:xlink="http://www.w3.org/1999/xlink" width="597" height="725.219" viewBox="0 0 597 725.219"><defs><radialGradient id="a" cx="0.366" cy="0.271" r="0.419" gradientTransform="translate(-0.078 -0.066) scale(1.213 1.175)" gradientUnits="objectBoundingBox"><stop offset="0" stop-color="#fff" stop-opacity="0.8"/><stop offset="0.013" stop-color="#fffefe" stop-opacity="0.804"/><stop offset="0.4" stop-color="#fffcf4" stop-opacity="0.91"/><stop offset="0.742" stop-color="#fffaef" stop-opacity="0.976"/><stop offset="1" stop-color="#fffaed"/></radialGradient><radialGradient id="b" cx="0.37" cy="0.275" r="0.419" gradientTransform="translate(-0.079 -0.067) scale(1.213 1.175)" xlink:href="#a"/><linearGradient id="c" x1="67.358" y1="0.5" x2="68.358" y2="0.5" gradientUnits="objectBoundingBox"><stop offset="0" stop-color="#004291"/><stop offset="1" stop-color="#0062ab"/></linearGradient><linearGradient id="d" x1="-0.181" y1="0.185" x2="1.055" y2="0.898" gradientUnits="objectBoundingBox"><stop offset="0" stop-color="#fffaed"/><stop offset="0.215" stop-color="#ccd5da"/><stop offset="0.701" stop-color="#4f7bad"/><stop offset="1" stop-color="#004291"/></linearGradient><linearGradient id="e" x1="-7.686" y1="0.459" x2="2.629" y2="0.513" gradientUnits="objectBoundingBox"><stop offset="0.547" stop-color="#fffaed"/><stop offset="0.562" stop-color="#edede6"/><stop offset="0.612" stop-color="#b6c5d2"/><stop offset="0.664" stop-color="#85a2c1"/><stop offset="0.716" stop-color="#5c84b2"/><stop offset="0.769" stop-color="#3b6ca6"/><stop offset="0.823" stop-color="#21599c"/><stop offset="0.879" stop-color="#0e4c96"/><stop offset="0.936" stop-color="#034492"/><stop offset="1" stop-color="#004291"/></linearGradient><linearGradient id="f" x1="0.095" y1="-4.473" x2="0.651" y2="2.906" gradientUnits="objectBoundingBox"><stop offset="0.436" stop-color="#fffaed"/><stop offset="0.439" stop-color="#fbf7eb"/><stop offset="0.484" stop-color="#c7d1d8"/><stop offset="0.532" stop-color="#98afc7"/><stop offset="0.582" stop-color="#6f92b9"/><stop offset="0.634" stop-color="#4c79ac"/><stop offset="0.689" stop-color="#3065a2"/><stop offset="0.748" stop-color="#1b559a"/><stop offset="0.814" stop-color="#0b4a95"/><stop offset="0.889" stop-color="#024492"/><stop offset="1" stop-color="#004291"/></linearGradient><linearGradient id="g" y1="-0.068" x2="1.045" y2="1.36" gradientUnits="objectBoundingBox"><stop offset="0.159" stop-color="#fffaed"/><stop offset="0.178" stop-color="#f4f3eb"/><stop offset="0.255" stop-color="#cfdee6"/><stop offset="0.339" stop-color="#aecbe1"/><stop offset="0.429" stop-color="#94bcde"/><stop offset="0.528" stop-color="#80b0db"/><stop offset="0.639" stop-color="#71a8d9"/><stop offset="0.775" stop-color="#69a3d8"/><stop offset="1" stop-color="#67a2d8"/></linearGradient><linearGradient id="h" x1="47.329" y1="0.5" x2="48.329" y2="0.5" xlink:href="#c"/><linearGradient id="i" x1="32.487" y1="0.5" x2="33.487" y2="0.5" xlink:href="#c"/><radialGradient id="j" cx="0.504" cy="0.688" r="1.188" gradientTransform="matrix(0.298, 0.319, -0.1, 0.948, -25.378, 13.075)" xlink:href="#a"/><linearGradient id="k" x1="-0.059" y1="0.284" x2="1.239" y2="1.08" gradientUnits="objectBoundingBox"><stop offset="0" stop-color="#fffaed"/><stop offset="0.459" stop-color="#0062ab"/><stop offset="1" stop-color="#004291"/></linearGradient><radialGradient id="l" cx="0.5" cy="0.5" r="0.788" gradientTransform="translate(0.249) scale(0.502 1)" xlink:href="#a"/><linearGradient id="m" x1="-0.151" y1="0.203" x2="1.085" y2="0.916" xlink:href="#d"/><linearGradient id="n" x1="-0.579" y1="0.416" x2="1.493" y2="0.584" xlink:href="#k"/><radialGradient id="o" cx="0.5" cy="0.5" r="0.362" gradientTransform="translate(-1.728) scale(4.456 1)" xlink:href="#a"/></defs><g transform="translate(298.5 362.609)"><g transform="translate(-298.5 -362.609)"><rect width="597" height="723.924" fill="url(#a)"/><rect width="596" height="722.749" transform="translate(0.5 0.588)" fill="url(#b)"/><path d="M597,471.6v252.47H456.22l-.09-.16L306.27,449.357l-7.3-10.62s5.78-6.89,9-7.77a16.4,16.4,0,0,1,3.93-.4l2.27-7.57s40.43,2.96,75.89-17.82,72.4-65.57,78.82-78.1,11.87-7.31,11.87-7.31Z" fill="#c4bfb6" opacity="0.6"/><path d="M481.194,319.174c-.63,1.6-1.29,3.18-1.97,4.76-.2.48-.41.95-.62,1.43q-1.275,2.91-2.67,5.79c-.33.69-.67,1.37-1.01,2.06-.43.86-.86,1.71-1.3,2.56-.36.7-.73,1.4-1.1,2.1-.58,1.09-1.17,2.18-1.78,3.25q-.87,1.56-1.77,3.09a.415.415,0,0,1-.07.13c-.36.61-.72,1.23-1.09,1.83q-2.115,3.51-4.38,6.92a193.706,193.706,0,0,1-67.16,62.31c-1.97,1.1-3.96,2.15-5.98,3.17-.21.12-.43.23-.65.33q-4.53,2.295-9.18,4.34c-.73.32-1.45.63-2.18.94a.355.355,0,0,1-.09.04c-.59.25-1.19.5-1.78.74-.9.38-1.8.74-2.7,1.1-1.02.41-2.04.8-3.07,1.19q-8.535,3.225-17.34,5.68c-1.85.59-3.76.98-5.64,1.44l-5.67,1.32-5.73,1.04c-1.91.33-3.81.76-5.74.96l-5.77.76c-.96.11-1.93.26-2.89.36l-2.9.23-5.8.45c-1.94.18-3.88.15-5.81.23-.28.01-.57.01-.85.02l.21,9.02-9.44-9.03-26.63-25.46a182.2,182.2,0,0,0,36.07,2.48q4.92-.105,9.83-.49c.73-.06,1.46-.12,2.2-.19,2.24-.2,4.47-.44,6.69-.74.69-.08,1.38-.18,2.07-.28l1.46-.21c.58-.09,1.15-.18,1.72-.27.79-.12,1.59-.26,2.38-.4s1.58-.28,2.37-.43c1.46-.27,2.93-.57,4.39-.88.11-.02.22-.05.33-.07,1.57-.35,3.13-.71,4.69-1.09.55-.13,1.1-.27,1.64-.41a183.259,183.259,0,0,0,19.4-6.1c.84-.31,1.68-.63,2.51-.97q1.275-.48,2.55-1.02c.85-.34,1.7-.69,2.54-1.06s1.69-.72,2.53-1.1,1.67-.75,2.5-1.14,1.67-.77,2.49-1.17q2.49-1.2,4.93-2.46a189.4,189.4,0,0,0,34.3-23.15c1.36-1.08,2.61-2.28,3.9-3.44l3.85-3.5,3.67-3.69c1.22-1.23,2.48-2.43,3.63-3.74,2.34-2.56,4.75-5.08,6.92-7.8,1.11-1.34,2.24-2.66,3.33-4.02l3.15-4.17c1.06-1.39,2.12-2.78,3.07-4.24l2.98-4.31c1.03-1.41,1.87-2.94,2.82-4.41.91-1.49,1.87-2.96,2.75-4.47,3.23-5.7,6.34-11.51,9.02-17.53Z" fill="#004291"/><path d="M428.334,315.7c-.28.49-.57.96-.86,1.44-.59.95-1.18,1.9-1.79,2.83-.03.05-.06.09-.09.14-.43.67-.87,1.35-1.31,2a2.032,2.032,0,0,0-.13.18q-.78,1.17-1.59,2.31c-.49.69-.98,1.37-1.46,2.04-.14.21-.28.4-.43.59-.48.65-.95,1.29-1.43,1.92a1.437,1.437,0,0,0-.11.15c-.08.1-.15.19-.23.28-.25.34-.51.67-.77,1s-.51.66-.77.99c-1.2,1.52-2.44,3.02-3.7,4.48-.63.73-1.27,1.46-1.91,2.18s-1.29,1.44-1.95,2.14c-.65.72-1.32,1.4-1.99,2.11-.67.69-1.34,1.38-2.03,2.05l-.35.35c-.57.57-1.15,1.13-1.72,1.68-.7.67-1.41,1.33-2.12,1.98-.67.62-1.35,1.24-2.04,1.85a1.81,1.81,0,0,1-.21.18c-.65.58-1.31,1.16-1.97,1.71-.01.01-.03.02-.04.03-.08.07-.16.15-.25.22-.68.58-1.36,1.15-2.05,1.71-1.5,1.22-3.02,2.42-4.56,3.58-.25.2-.5.38-.76.57l-.33.24c-.09.07-.19.14-.3.22l-.3.21c-.3.23-.61.46-.91.68s-.62.45-.94.66c-.66.49-1.34.96-2.02,1.42-.19.13-.38.26-.57.38l-.18.12c-.26.18-.53.36-.79.53a1.212,1.212,0,0,0-.14.1c-.37.24-.74.49-1.12.73-.48.32-.95.63-1.43.93-.09.06-.19.12-.28.17-.01.01-.02.01-.03.02-.46.31-.93.6-1.4.87a1.629,1.629,0,0,1-.17.11c-.02.01-.03.02-.05.03-.36.22-.72.44-1.09.66-.33.2-.66.4-.99.59-.24.14-.47.28-.71.42-.08.05-.16.09-.24.14-.31.18-.62.36-.94.54-.15.08-.29.17-.43.24a1.856,1.856,0,0,1-.19.11c-.24.14-.49.28-.74.41-.22.13-.45.26-.68.38-.26.15-.53.29-.8.44-.21.12-.43.23-.65.35-.03.01-.05.03-.08.04a3.9,3.9,0,0,1-.35.19c-.29.16-.59.32-.88.46-.54.29-1.09.58-1.64.86-1.76.89-3.55,1.75-5.35,2.57-.46.21-.92.42-1.39.62a3.094,3.094,0,0,1-.32.14c-.11.05-.21.1-.32.15s-.21.1-.31.14a1.472,1.472,0,0,0-.22.1.417.417,0,0,0-.1.04c-.18.08-.35.15-.53.22-.63.27-1.28.54-1.92.81a5.724,5.724,0,0,1-.62.25c-.65.27-1.32.54-1.98.79-.53.21-1.06.41-1.6.61-.16.07-.33.13-.49.19-.36.14-.72.27-1.09.4q-1.125.42-2.28.81c-.22.08-.45.16-.68.23-.64.22-1.29.44-1.94.64-.26.09-.52.17-.78.25-.11.04-.21.07-.32.1a.986.986,0,0,1-.16.05.185.185,0,0,1-.07.02c-.16.06-.32.11-.48.16-.35.11-.7.21-1.04.31l-.69.21c-.22.07-.44.14-.66.2-.2.06-.4.11-.61.17-.09.03-.19.05-.29.08l-.54.15c-.03.01-.07.02-.1.03-.25.07-.5.14-.76.22-.52.14-1.04.28-1.56.41l-.46.12c-.25.06-.51.13-.77.2-.14.03-.28.07-.42.1-.82.21-1.65.41-2.48.6l-.5.12c-.68.15-1.37.31-2.05.45h-.02c-.17.04-.34.07-.51.11s-.33.07-.5.1c-.77.16-1.54.32-2.31.45-.2.04-.4.08-.6.11-.56.12-1.14.22-1.71.31a1.515,1.515,0,0,1-.21.03c-.07.02-.15.02-.21.04-.03,0-.05.01-.08.01a.9.9,0,0,0-.16.03.127.127,0,0,0-.06.01l-.2.03c-.04.01-.07.01-.11.02-.27.04-.53.09-.8.13-.02,0-.04.01-.07.01s-.04.01-.06.01q-.5.09-.99.15l-1.22.18c-.41.06-.81.12-1.22.17-.29.04-.58.08-.87.11-.21.03-.42.06-.63.08-.18.02-.35.05-.53.06-.11.02-.22.03-.33.04-.25.04-.5.06-.76.09s-.5.06-.76.08a.22.22,0,0,1-.08.01c-.23.03-.45.05-.68.07-.18.02-.35.04-.53.05-.4.05-.81.09-1.21.12-.07.01-.13.01-.2.02-.52.05-1.04.08-1.56.12l-.39.03a.208.208,0,0,1-.11.01,3.092,3.092,0,0,1-.43.02c-.31.03-.63.06-.95.08-.04,0-.07.01-.11.01-.31.02-.63.04-.95.05a.41.41,0,0,1-.11.01c-.52.03-1.03.06-1.55.08-.77.04-1.54.07-2.32.09-.21.01-.43.02-.66.02s-.44.01-.66.01h-.06l-7.91-4.54C326.214,367.554,382.484,346.044,428.334,315.7Z" fill="#e5dfd9" opacity="0.6"/><path d="M494.484,243.814c-.01.07-.04.19-.08.36V244C494.434,243.944,494.454,243.874,494.484,243.814Z" fill="#e5dfd9" opacity="0.6"/><rect width="2.049" height="31.236" transform="translate(329.262 188.427)" fill="#142057"/><path d="M338,208.008l-3.64-9.514,2.6-1.532-3.119-7.5,1.689-1.047-1.559-1.453-3.382-11.931-1.435,5.006-1.034,3.622-2.339,2.256,1.038,1.209-1.038,3.71-1.693,2.016.78,1.37-1.038,2.824,2.861,1.615-3.377,8.088-.526,1.264Z" fill="url(#c)"/><path d="M331.311,212.384v7.534h-2.049V210.71Z" fill="#004291"/><path d="M323.306,206.744l1.846-1.084,2.838-6.8-2.861-1.615,1.038-2.819-.78-1.375,1.693-2.012,1.038-3.71-1.038-1.213,2.339-2.256.406-1.426-.678-2.4-1.034,3.622-2.339,2.256,1.038,1.209-1.038,3.71-1.693,2.016.78,1.37-1.038,2.824,2.861,1.615Z" fill="#1864af"/><path d="M350.727,225.229l-3.421-26.987,3.421-.649-7.476-29.1L336.409,197.2l3.421.649-3.421,26.987Z" fill="#06408d"/><path d="M348.934,196.518l-3.424.646,2.417,19.041c.6-.016,1.152-.026,1.653-.026L347.3,198.241l3.424-.646L345.3,176.511l-.705,3.144Z" fill="#142057"/><path d="M343.251,168.489,336.409,197.2l2.2.479,5.5-26.08Z" fill="#1864af"/><path d="M357.689,218.89a6.475,6.475,0,0,1-9.807-8.234l0-.005a6.485,6.485,0,0,1,10.382-.9,6.655,6.655,0,0,1,.867,1.25A6.479,6.479,0,0,1,357.689,218.89Z" fill="#142057"/><path d="M366.564,224.934a7.644,7.644,0,0,1-9.45-5.28,7.359,7.359,0,0,1-.27-2.74c4.2-.84,9.8-.56,15.14-.81A7.647,7.647,0,0,1,366.564,224.934Z" fill="#ffe6d9"/><path d="M359.134,211c-3.748.563-8.192-1.916-11.249-.347a6.485,6.485,0,0,1,10.382-.9A6.655,6.655,0,0,1,359.134,211Z" fill="#06408d"/><path d="M371.984,216.29c-5.34.25-10.94-.03-15.14.81a7.446,7.446,0,0,1,.64-2.47,7.646,7.646,0,0,1,14.35,1.03Q371.924,215.975,371.984,216.29Z" fill="#ffe6d9"/><path d="M390.505,268.779l18.32,2.817-4.58-29.74-4.58-29.74-1.11,7.21-3.47,22.53Z" fill="#06408d"/><path d="M364.23,236.376H379.17l-3.729-24.26-3.74-24.26-.97,6.3-2.771,17.96Z" fill="#06408d"/><path d="M374.16,254.205h20.67l-5.17-25.85-5.16-25.85-1.3,6.52-3.87,19.33Z" fill="#ffe6d9"/><path d="M276.28,239.039l-18.32,2.817,4.58-29.74,4.58-29.74,1.11,7.21,3.47,22.53Z" fill="#ffe6d9" opacity="0.65"/><path d="M302.555,215.059H287.615l3.729-24.26,3.74-24.26.97,6.3,2.771,17.96Z" fill="#06408d" opacity="0.79"/><path d="M292.625,226.928h-20.67l5.17-25.85,5.16-25.85,1.3,6.52,3.87,19.33Z" fill="#06408d" opacity="0.5"/><path d="M211.076,225.641l18.32,2.817-4.58-29.74-4.58-29.74-1.11,7.21-3.47,22.53Z" fill="#ffe6d9" opacity="0.65"/><path d="M184.8,201.66H199.74l-3.729-24.26-3.74-24.26-.97,6.3L188.53,177.4Z" fill="#06408d" opacity="0.79"/><path d="M194.731,213.529H215.4l-5.17-25.85-5.16-25.85-1.3,6.52-3.87,19.33Z" fill="#06408d" opacity="0.5"/><path d="M90.066,264.417" fill="#3169b2"/><path d="M165.419,296.58q-1.667-3.927-3.051-7.993C163.312,291.293,164.321,293.949,165.419,296.58Z" fill="#3169b2"/><path d="M186.9,332.65c-1.161-1.417-2.272-2.848-3.358-4.3C184.635,329.8,185.746,331.233,186.9,332.65Z" fill="#3169b2"/><path d="M435.659,301.878c.817-1.774,1.6-3.549,2.35-5.35C437.268,298.329,436.489,300.116,435.659,301.878Z" fill="#3169b2"/><path d="M439.107,293.8c.715-1.839,1.4-3.677,2.042-5.541Q440.192,291.051,439.107,293.8Z" fill="#3169b2"/><path d="M297.274,439.734c-.13,0-.26-.01-.39-.01a191.059,191.059,0,0,1-79.68-19.24c-1.77-.79-3.47-1.73-5.18-2.63l-5.12-2.72-4.99-2.96c-1.66-1-3.35-1.94-4.94-3.04-3.21-2.15-6.5-4.19-9.55-6.56l-4.64-3.46-4.48-3.66c-3.03-2.39-5.82-5.05-8.69-7.62-1.46-1.26-2.77-2.67-4.15-4.01-1.36-1.36-2.75-2.7-4.07-4.09a200.675,200.675,0,0,1-14.79-17.66,187.9,187.9,0,0,1-35.08-83.39c-4.43-29.83-1.84-60.48,8.31-88.11a209.021,209.021,0,0,0-2.76,21.74,191.888,191.888,0,0,0-.5,21.7,207.29,207.29,0,0,0,6.02,42.43,188.447,188.447,0,0,0,38.2,74.45,183.883,183.883,0,0,0,104.89,62.46c1.65.33,3.3.64,4.96.92Z" fill="url(#d)"/><path d="M313.184,722.334H290.2l6.68-282.61c.13,0,.26.01.39.01l9.44,9.03Z" fill="url(#e)"/><path d="M199.2,721.773l1.6-.807,1.594-.718,3.189-1.43c2.126-.877,4.252-1.731,6.378-2.49,4.253-1.581,8.505-2.9,12.757-4.156a244.39,244.39,0,0,1,25.513-5.76,303.418,303.418,0,0,1,51.025-4.168,308.92,308.92,0,0,1,51.026,4.221,248.281,248.281,0,0,1,25.513,5.756c4.252,1.249,8.5,2.564,12.756,4.137,2.126.755,4.253,1.605,6.379,2.479l3.189,1.42,1.594.714,1.6.8v2.3l-25.513.559-25.513.321c-17.008.189-34.017.172-51.026.268-17.008-.09-34.017-.081-51.025-.264l-25.513-.321-25.513-.563Z" fill="url(#f)"/><path d="M442.974,282.614c0,.01-.01.02-.01.03a.694.694,0,0,0-.03.08c-.07.22-.13.44-.2.66-.17.59-.36,1.17-.54,1.75-.06.2-.12.37-.19.57-.28.85-.56,1.69-.85,2.55-.24.7-.49,1.37-.74,2.06l-.01.01v.02c-.09.27-.19.53-.29.8-.33.89-.66,1.77-1.01,2.65-.31.81-.64,1.62-.98,2.42a2.844,2.844,0,0,1-.12.31q-1.125,2.7-2.34,5.35c-.03.04-.04.08-.07.13-.36.78-.73,1.56-1.1,2.33-.35.73-.71,1.45-1.08,2.17l-.03.06-.03.06c-.32.63-.64,1.25-.97,1.87-.35.68-.71,1.35-1.08,2.02-.38.7-.76,1.39-1.15,2.08-.42.75-.86,1.5-1.3,2.24-.17.29-.34.57-.51.86a.01.01,0,0,1-.01.01c-.28.49-.57.96-.86,1.44-.59.95-1.18,1.9-1.79,2.83-.03.05-.06.09-.09.14-.43.67-.87,1.33-1.31,2a2.032,2.032,0,0,0-.13.18q-.78,1.17-1.59,2.31c-.49.69-.98,1.37-1.46,2.04-.14.21-.28.4-.43.59-.48.65-.95,1.29-1.43,1.92a1.437,1.437,0,0,0-.11.15c-.33.43-.66.85-1,1.28-.25.33-.51.66-.77.99-1.2,1.52-2.44,3.02-3.7,4.48-.63.73-1.27,1.46-1.91,2.18s-1.29,1.44-1.95,2.14c-.65.72-1.32,1.4-1.99,2.11-.67.69-1.34,1.38-2.03,2.05l-.35.35c-.57.57-1.15,1.13-1.72,1.68-.7.67-1.41,1.33-2.12,1.98-.67.62-1.35,1.24-2.04,1.85a1.81,1.81,0,0,1-.21.18c-.65.58-1.31,1.15-1.97,1.71-.01.01-.03.02-.04.03-.08.07-.16.15-.25.22-.68.58-1.36,1.15-2.05,1.71-1.5,1.22-3.02,2.42-4.56,3.58-.25.2-.5.38-.76.57l-.33.24c-.09.07-.19.14-.3.22-.4.3-.81.6-1.21.89-.31.23-.62.45-.94.66-.66.49-1.34.96-2.02,1.42-.19.13-.38.26-.57.38l-.18.12c-.26.19-.53.36-.79.54-.05.03-.09.06-.14.09-.37.24-.74.49-1.12.73-.48.32-.95.63-1.43.93-.09.06-.19.12-.28.17-.01.01-.02.01-.03.02-.46.29-.93.59-1.4.87a1.629,1.629,0,0,1-.17.11c-.02.01-.03.02-.05.03-.36.22-.72.44-1.09.66-.33.2-.66.4-.99.59-.23.14-.47.28-.71.42-.08.05-.16.09-.24.14-.31.18-.62.36-.94.54-.14.08-.28.17-.43.24a1.856,1.856,0,0,1-.19.11c-.47.27-.94.54-1.42.79-.26.15-.53.29-.8.44-.21.12-.43.23-.65.35-.03.01-.05.03-.08.04a3.9,3.9,0,0,1-.35.19c-.29.16-.58.31-.88.46-.54.29-1.09.58-1.64.86-1.76.89-3.55,1.75-5.35,2.57-.46.21-.92.42-1.39.62a3.094,3.094,0,0,1-.32.14c-.11.05-.21.1-.32.15s-.21.1-.31.14c-.07.03-.14.06-.22.1a.417.417,0,0,0-.1.04c-.18.08-.35.15-.53.22-.63.27-1.28.54-1.92.81a5.724,5.724,0,0,1-.62.25c-.65.27-1.32.54-1.98.79-.53.21-1.06.41-1.6.61-.16.07-.33.13-.49.19-.36.14-.72.27-1.09.4q-1.125.42-2.28.81c-.22.08-.45.16-.68.23-.65.22-1.29.44-1.94.64-.26.09-.52.17-.78.25-.11.04-.21.07-.32.1a.986.986,0,0,1-.16.05.185.185,0,0,1-.07.02c-.5.17-1.01.33-1.52.47l-.69.21c-.42.13-.84.25-1.27.37-.09.03-.19.05-.29.08s-.21.05-.31.08a2.014,2.014,0,0,1-.23.07c-.03.01-.07.02-.1.03-.25.07-.5.14-.76.22-.52.14-1.04.28-1.56.41l-.46.12c-.25.06-.51.13-.77.2-.14.04-.28.07-.42.1-.82.21-1.65.41-2.48.6q-1.275.3-2.55.57h-.02c-.17.04-.34.07-.51.11s-.33.07-.5.1q-1.155.24-2.31.45c-.2.04-.4.08-.6.11-.64.12-1.28.24-1.92.34-.07.02-.15.02-.21.04-.03,0-.05.01-.08.01a.9.9,0,0,0-.16.03.127.127,0,0,0-.06.01l-.2.03c-.04.01-.07.01-.11.02-.29.05-.58.1-.87.14-.02,0-.04.01-.06.01q-.5.09-.99.15l-1.22.18c-.41.06-.81.12-1.22.17-.29.04-.58.08-.87.11-.21.03-.42.06-.63.08-.18.02-.35.05-.53.06-.11.02-.22.03-.33.04-.25.04-.5.06-.76.09s-.51.05-.76.08a.22.22,0,0,1-.08.01c-.23.03-.45.05-.68.07-.18.02-.35.04-.53.05-.4.05-.81.09-1.21.12-.07.01-.13.01-.2.02s-.15.01-.23.02c-.04,0-.08.01-.12.01-.53.05-1.06.09-1.6.12a.208.208,0,0,1-.11.01c-.46.04-.92.08-1.38.1-.04,0-.07.01-.11.01-.31.02-.63.04-.95.05a.41.41,0,0,1-.11.01c-.52.03-1.03.06-1.55.08-.77.04-1.54.07-2.32.09-.21.01-.43.02-.66.02-.65.02-1.31.04-1.96.04h-.07c-.22.01-.43.01-.65.01h-.31c-.34.01-.68.01-1.02.01-.4,0-.8,0-1.19-.01s-.79,0-1.18-.01c-.48,0-.95-.01-1.43-.03-.17,0-.33-.01-.5-.01l-.87-.03c-.48-.01-.96-.03-1.43-.06h-.03l-.65-.03c-.79-.03-1.57-.08-2.36-.13q-.855-.045-1.71-.12l-1.08-.09c-.41-.03-.83-.07-1.24-.11-.16-.01-.32-.03-.48-.04-.27-.03-.54-.05-.81-.08-.15-.02-.31-.03-.46-.05-.42-.04-.84-.09-1.26-.14l-1.6-.18a2.517,2.517,0,0,1-.27-.04l-.51-.06-.91-.12c-.39-.05-.78-.11-1.17-.16a2.163,2.163,0,0,0-.25-.04c-.62-.09-1.26-.18-1.89-.29-.34-.05-.68-.11-1.03-.17-.73-.12-1.45-.24-2.17-.37s-1.44-.27-2.16-.41c-.69-.13-1.38-.28-2.07-.42-.46-.1-.92-.2-1.39-.3-.03-.01-.05-.01-.08-.02-.5-.11-1-.22-1.5-.34-.52-.12-1.04-.25-1.57-.38s-1.05-.26-1.56-.39a.354.354,0,0,1-.11-.03c-.74-.19-1.48-.38-2.22-.59-.2-.05-.39-.1-.58-.16-.55-.15-1.09-.3-1.63-.46-.09-.03-.18-.05-.27-.08s-.19-.05-.28-.08c-.02-.01-.03-.02-.05-.02-.75-.21-1.49-.44-2.23-.67l-.04-.02c-.53-.16-1.07-.33-1.6-.51-.42-.14-.83-.27-1.24-.41-.01,0-.02-.01-.03-.01h-.01c-.16-.05-.31-.11-.47-.17-.09-.03-.19-.06-.28-.09-1.01-.34-2.02-.7-3.03-1.07-1.09-.4-2.16-.81-3.22-1.23a.417.417,0,0,1-.1-.04c-1.05-.42-2.08-.84-3.12-1.27-.12-.05-.24-.12-.37-.17-.19-.08-.37-.16-.56-.24q-.855-.345-1.71-.75c-.12-.05-.25-.1-.37-.16-.37-.16-.73-.33-1.09-.5-.71-.31-1.41-.64-2.12-.98-.35-.16-.7-.34-1.04-.51-.89-.43-1.78-.88-2.66-1.33a.538.538,0,0,1-.11-.05c-.95-.48-1.88-.98-2.81-1.48-.19-.11-.4-.23-.6-.33-.5-.27-.99-.54-1.49-.83-.06-.03-.12-.06-.17-.09-.33-.19-.67-.38-1-.58-.57-.31-1.13-.64-1.68-.97-.42-.25-.84-.51-1.25-.76-1.11-.67-2.21-1.35-3.3-2.06-.92-.57-1.82-1.17-2.72-1.78-.1-.07-.2-.15-.32-.22-.92-.61-1.82-1.24-2.72-1.89-.01-.01-.03-.02-.04-.03q-1.05-.735-2.07-1.5c-.21-.15-.41-.3-.62-.45-.12-.09-.24-.18-.36-.28-.45-.33-.89-.68-1.34-1.02-.56-.44-1.13-.88-1.69-1.32-.26-.2-.51-.4-.77-.61l-1.26-1.02c-.09-.07-.17-.14-.26-.22-.3-.24-.6-.48-.9-.74q-.51-.42-1.02-.87l-.25-.22c-.54-.46-1.07-.93-1.61-1.39l-.06-.06-1.71-1.53c15.03-42.65,29.19-74.75,43.23-97.96C299.414,162.074,351.424,203.964,442.974,282.614Z" fill="url(#g)"/><ellipse cx="1.306" cy="0.432" rx="1.306" ry="0.432" transform="translate(298.717 316.035) rotate(-45)" fill="#fffaed"/><ellipse cx="1.306" cy="0.432" rx="1.306" ry="0.432" transform="matrix(0.462, -0.887, 0.887, 0.462, 308.694, 302.266)" fill="#fffaed"/><ellipse cx="1.306" cy="0.432" rx="1.306" ry="0.432" transform="matrix(0.462, -0.887, 0.887, 0.462, 325.466, 266.983)" fill="#fffaed"/><ellipse cx="1.306" cy="0.432" rx="1.306" ry="0.432" transform="matrix(0.462, -0.887, 0.887, 0.462, 328.569, 264.071)" fill="#fffaed"/><ellipse cx="1.306" cy="0.432" rx="1.306" ry="0.432" transform="matrix(0.462, -0.887, 0.887, 0.462, 328.307, 261.523)" fill="#fffaed"/><ellipse cx="1.306" cy="0.432" rx="1.306" ry="0.432" transform="matrix(0.462, -0.887, 0.887, 0.462, 331.41, 258.612)" fill="#fffaed"/><ellipse cx="1.306" cy="0.432" rx="1.306" ry="0.432" transform="matrix(0.462, -0.887, 0.887, 0.462, 331.149, 256.063)" fill="#fffaed"/><ellipse cx="1.306" cy="0.432" rx="1.306" ry="0.432" transform="matrix(0.462, -0.887, 0.887, 0.462, 317.211, 285.898)" fill="#fffaed"/><ellipse cx="1.306" cy="0.432" rx="1.306" ry="0.432" transform="matrix(0.462, -0.887, 0.887, 0.462, 316.949, 283.35)" fill="#fffaed"/><ellipse cx="1.306" cy="0.432" rx="1.306" ry="0.432" transform="matrix(0.462, -0.887, 0.887, 0.462, 320.052, 280.439)" fill="#fffaed"/><ellipse cx="1.306" cy="0.432" rx="1.306" ry="0.432" transform="matrix(0.462, -0.887, 0.887, 0.462, 319.79, 277.89)" fill="#fffaed"/><ellipse cx="1.306" cy="0.432" rx="1.306" ry="0.432" transform="matrix(0.462, -0.887, 0.887, 0.462, 322.893, 274.979)" fill="#fffaed"/><ellipse cx="1.306" cy="0.432" rx="1.306" ry="0.432" transform="matrix(0.462, -0.887, 0.887, 0.462, 322.631, 272.431)" fill="#fffaed"/><ellipse cx="1.306" cy="0.432" rx="1.306" ry="0.432" transform="matrix(0.462, -0.887, 0.887, 0.462, 325.734, 269.519)" fill="#fffaed"/><ellipse cx="1.306" cy="0.432" rx="1.306" ry="0.432" transform="matrix(0.462, -0.887, 0.887, 0.462, 308.432, 299.717)" fill="#fffaed"/><ellipse cx="1.306" cy="0.432" rx="1.306" ry="0.432" transform="matrix(0.462, -0.887, 0.887, 0.462, 311.535, 296.806)" fill="#fffaed"/><ellipse cx="1.306" cy="0.432" rx="1.306" ry="0.432" transform="matrix(0.462, -0.887, 0.887, 0.462, 311.273, 294.258)" fill="#fffaed"/><ellipse cx="1.306" cy="0.432" rx="1.306" ry="0.432" transform="matrix(0.462, -0.887, 0.887, 0.462, 305.43, 307.012)" fill="#fffaed"/><ellipse cx="1.306" cy="0.432" rx="1.306" ry="0.432" transform="matrix(0.462, -0.887, 0.887, 0.462, 305.168, 304.464)" fill="#fffaed"/><ellipse cx="1.306" cy="0.432" rx="1.306" ry="0.432" transform="matrix(0.462, -0.887, 0.887, 0.462, 302.306, 311.488)" fill="#fffaed"/><ellipse cx="1.306" cy="0.432" rx="1.306" ry="0.432" transform="matrix(0.462, -0.887, 0.887, 0.462, 302.045, 308.94)" fill="#fffaed"/><ellipse cx="1.306" cy="0.432" rx="1.306" ry="0.432" transform="matrix(0.462, -0.887, 0.887, 0.462, 314.376, 291.346)" fill="#fffaed"/><ellipse cx="1.306" cy="0.432" rx="1.306" ry="0.432" transform="matrix(0.462, -0.887, 0.887, 0.462, 314.114, 288.798)" fill="#fffaed"/><path d="M337.862,252.4l-1.582-7.874-.137.016c-.014,0-.471.554-1.192-.369l-.1.02-.133.3-.014,1.437s-.063,2.761-.141,2.849c0,0-.075.074-.126.117s-.574,2.012-.574,2.012l-.01,1.151s.543.009.331.268-.472.6-.791.644c-.082.012-.162.02-.234.025a3.5,3.5,0,0,0,.128.629c.049.007.976.324.976.324s.076.275-.184.292c-.213.013-1.365.047-1.768.059a10.209,10.209,0,0,1,.167-3.25,4.674,4.674,0,0,0,.291-2.255c-.054-.517.209-2.271-.141-2.27s-1.311-.09-1.061-1.279c0,0-.882-1.246-.766-1.471s.692-1.064.692-1.064a7.69,7.69,0,0,1,1.2-.992c.338-.147.32-.428.433-.7s-.262-.027-.312-.132-.377-1.153-.106-1.32a1.623,1.623,0,0,1,.81-.223,5,5,0,0,1,.666,0c.047.11-.02.252-.279.428a3.532,3.532,0,0,1-.119,1.14l-.224.014.019.3s.114.079.174.064.227-.072.287-.047.263.157.263.157v.047l.363.068s-.027.031.059.188a7.681,7.681,0,0,0,.872,1.493.351.351,0,0,1,.053.373l.3.336s.026.059.033-.006.013-.308.013-.308.1-.018.11.025l-.1-.515.137-.128.164.771s.309.082.214.171l.018.281s.03.085-.084.223l1.448,7.647S337.947,252.312,337.862,252.4Z" fill="#142057"/><path d="M332.8,251.114a8.958,8.958,0,0,0-.49,3.18,1.253,1.253,0,0,1-.14.01s-.14.05-.15-.16-.13-1.95-.13-1.95a.313.313,0,0,0,.1-.05,3.471,3.471,0,0,1,.41-2.35l.57.87A1.46,1.46,0,0,1,332.8,251.114Z" fill="#142057"/><path d="M334.184,239.344c-.27-.01-.52-.01-.67,0-.38.05-.28.16-.55.33s.12.77.17.88.29.16.17.43-.11,1-.44,1.14a8.536,8.536,0,0,0-1.21.93c-.5.91.1,3.23,1.18,3.34.32-.15.16,1.74.22,2.25a7.961,7.961,0,0,1-.08,2.02l-.57-.87-.21-2.7a2.26,2.26,0,0,1-.34-.05l-.3,1.46-.67,3.18s-.06.16-.15.19c0,0,.42-2.08.72-3.52.15-.76.27-1.35.27-1.36-.01-.03-.09-.05-.09-.05a2.006,2.006,0,0,1-.55-1.77,1.586,1.586,0,0,1-.47-1.64s-.11-.12-.09-.16.48-.76.48-.76a.678.678,0,0,1,.49-.68l.2-.18.47-.19-.03-.13.26-.1v.11l.51-.17.01-.11s-.51.22-.67-.78.42-1.33,1-1.33C333.624,239.054,334.094,239.144,334.184,239.344Z" fill="#004291"/><ellipse cx="1.306" cy="0.432" rx="1.306" ry="0.432" transform="translate(300.376 316.368) rotate(-45)" fill="#fffaed"/><ellipse cx="1.306" cy="0.432" rx="1.306" ry="0.432" transform="translate(300.893 313.859) rotate(-45)" fill="#fffaed"/><rect width="3.176" height="48.426" transform="translate(282.853 250.392)" fill="#142057"/><path d="M296.394,280.749,290.75,266l4.027-2.375-4.835-11.631,2.618-1.624-2.418-2.253-5.243-18.5-2.224,7.761-1.6,5.615-3.626,3.5,1.609,1.874-1.609,5.751-2.625,3.126,1.209,2.124-1.609,4.378,4.435,2.5-5.236,12.539-.815,1.96Z" fill="url(#h)"/><path d="M286.029,287.535v11.681h-3.176V284.938Z" fill="#004291"/><path d="M273.618,278.79l2.861-1.681,4.4-10.544-4.435-2.5,1.609-4.371-1.209-2.132,2.625-3.119,1.609-5.751-1.609-1.881,3.626-3.5.629-2.21-1.051-3.72-1.6,5.615-3.626,3.5,1.609,1.874-1.609,5.751-2.625,3.126,1.209,2.124-1.609,4.378,4.435,2.5Z" fill="#1864af"/><circle cx="0.954" cy="0.954" r="0.954" transform="translate(280.416 277.199)" fill="#1864af"/><circle cx="0.954" cy="0.954" r="0.954" transform="translate(291.225 261.409)" fill="#142057"/><circle cx="0.954" cy="0.954" r="0.954" transform="translate(284.443 247.633)" fill="#1864af"/><rect width="3.945" height="60.15" transform="translate(364.726 273.23)" fill="#142057"/><path d="M381.545,310.938l-7.01-18.321,5-2.95-6.006-14.447,3.252-2.017-3-2.8-6.513-22.976-2.763,9.64-1.99,6.975-4.5,4.345,2,2.328-2,7.143-3.261,3.883,1.5,2.639-2,5.438,5.509,3.11-6.5,15.575-1.013,2.434Z" fill="url(#i)"/><path d="M368.67,319.365v14.509h-3.945V316.14Z" fill="#004291"/><path d="M353.255,308.5l3.554-2.088,5.465-13.1-5.509-3.11,2-5.429-1.5-2.648,3.261-3.874,2-7.143-2-2.337,4.5-4.345.782-2.745-1.306-4.62-1.99,6.975-4.5,4.345,2,2.328-2,7.143-3.261,3.883,1.5,2.639-2,5.438,5.509,3.11Z" fill="#1864af"/><circle cx="1.185" cy="1.185" r="1.185" transform="translate(361.698 306.528)" fill="#1864af"/><circle cx="1.185" cy="1.185" r="1.185" transform="translate(375.124 286.915)" fill="#142057"/><circle cx="1.185" cy="1.185" r="1.185" transform="translate(366.7 269.804)" fill="#1864af"/><path d="M440.414,290.314l-.01.01v.02c-.09.27-.19.53-.29.8-.33.89-.66,1.77-1.01,2.65-.31.8-.63,1.61-.96,2.4,0,.01-.01.01-.02.02a15.128,15.128,0,0,1-14.83,6.67,13.269,13.269,0,0,1-1.77-.38,15.038,15.038,0,0,1-5.89-3.12,14.835,14.835,0,0,1-2.33-2.54,14.674,14.674,0,0,1-1.66-2.89,3.139,3.139,0,0,1-.15-.32c-.1-.25-.19-.49-.28-.73.19-.21.37-.41.57-.61,5.6-5.93,14.36-8.5,21.01-17.59a15.077,15.077,0,0,1,6.69,7.53,15.145,15.145,0,0,1,.93,8.08Z" fill="#142057"/><path d="M417.777,295.516a36.843,36.843,0,0,0-4.641,10.919,6.225,6.225,0,0,1,4.228-10.948C417.505,295.5,417.638,295.5,417.777,295.516Z" fill="#06408d"/><path d="M417.015,307.932a6.2,6.2,0,0,1-3.879-1.5,36.843,36.843,0,0,1,4.641-10.919,6.223,6.223,0,0,1-.762,12.416Z" fill="#142057"/><path d="M411.784,292.294c-.07.53-.11,1.08-.14,1.66a3.139,3.139,0,0,1-.15-.32c-.1-.25-.19-.49-.28-.73C411.4,292.694,411.584,292.494,411.784,292.294Z" fill="#142057"/><rect width="2.85" height="74.26" transform="translate(440.118 208.408)" fill="#004291"/><path d="M442.964,264.674v17.97a.694.694,0,0,0-.03.08c-.24.81-.48,1.61-.74,2.41-.06.2-.12.37-.19.57-.28.85-.56,1.69-.85,2.55-.33.97-.68,1.93-1.04,2.89v-20.82Z" fill="#142057"/><path d="M457.608,243.748l-9.39-8.119L445,232.848l-3.45-2.99-16.06,13.89,8.05-19.52,4.33-10.579,2.59-6.33a1.373,1.373,0,0,1,.69-.79c.53-.25,1.16.009,1.48.79l6.92,16.909Z" fill="#5797d1"/><path d="M459.088,271.339l-11.72-10.531-5.82-5.239-17.54,15.77,8.79-16.7,7.11-13.6a1.8,1.8,0,0,1,3.27,0l.61,1.171,6.5,12.43Z" fill="#142057"/><path d="M447.378,260.889l-5.83-5.32-17.54,15.77,8.79-16.7,7.11-13.6a1.8,1.8,0,0,1,3.27,0l.61,1.171c3.3,11.795.038,9.721,3.58,18.6A.459.459,0,0,1,447.378,260.889Z" fill="#004291"/><path d="M457.608,243.748l-9.39-8.119L445,232.848c-1.2-8.069-2.91-19.589-3.85-26.319.53-.25,1.16.009,1.48.79l6.92,16.909Z" fill="#3169b2"/><circle cx="1.111" cy="1.111" r="1.111" transform="translate(436.566 251.041)" fill="#142057"/><circle cx="1.111" cy="1.111" r="1.111" transform="translate(438.085 221.819)" fill="#3169b2"/><rect width="3.742" height="61.182" transform="translate(295.058 254.082)" fill="#142057"/><path d="M295.058,299.094v13.785H298.8V301.808Z" fill="#06408d"/><path d="M285.585,269.832l11.34-6.987,6.66,4.1,4.688,2.886-5.691-12.31-4.6-10.027a1.3,1.3,0,0,0-.6-.652,1.11,1.11,0,0,0-1.516.652l-4.6,10.027Z" fill="#3169b2"/><path d="M284.6,287.212l11.616-4.158.71-.252,12.334,4.41-6.187-10.671-4.924-8.56a1.4,1.4,0,0,0-2.438,0l-.391.677-4.533,7.883Z" fill="#06408d"/><path d="M289.156,299.22l7.7-2.755.073-.025,7.777,2.78-3.9-6.725-3.106-5.4a.893.893,0,0,0-1.54,0l-1.044,1.818-2.062,3.587Z" fill="#06408d"/><path d="M293.126,278.163c-.188,1.8,1.451,3.587,3.089,4.891l.71-.252,12.334,4.41-6.187-10.671-4.924-8.56a1.4,1.4,0,0,0-2.438,0l-.391.677a5.538,5.538,0,0,1,.383.489C296.974,270.957,293.484,274.625,293.126,278.163Z" fill="#142057"/><path d="M303.585,266.946l4.688,2.886-5.691-12.31-4.6-10.027a1.3,1.3,0,0,0-.6-.652,3.755,3.755,0,0,0-.464,1.337C296.5,250.87,299.949,260.114,303.585,266.946Z" fill="#1864af"/><circle cx="0.679" cy="0.679" r="0.679" transform="translate(296.52 274.13)" fill="#06408d"/><circle cx="0.679" cy="0.679" r="0.679" transform="translate(294.437 258.46)" fill="#1864af"/><circle cx="0.679" cy="0.679" r="0.679" transform="translate(301.592 281.557)" fill="#06408d"/><circle cx="0.589" cy="0.589" r="0.589" transform="translate(297.199 292.11)" fill="#06408d"/><path d="M256.491,266.957a6.475,6.475,0,0,1-6.664-10.935l0,0a6.483,6.483,0,0,1,10.127,2.46,6.659,6.659,0,0,1,.422,1.46A6.48,6.48,0,0,1,256.491,266.957Z" fill="#142057"/><path d="M260.38,259.939c-3.731-.663-7.151-4.431-10.549-3.92a6.483,6.483,0,0,1,10.127,2.46A6.659,6.659,0,0,1,260.38,259.939Z" fill="#142057"/><path d="M249.648,259.436a10.891,10.891,0,0,1-10.357-11.428,10.494,10.494,0,0,1,.882-3.822c6.053.776,13.486,3.7,20.809,5.794A10.9,10.9,0,0,1,249.648,259.436Z" fill="#ffe6d9"/><path d="M260.9,250.23c-7.323-2.092-14.757-5.018-20.809-5.794a10.625,10.625,0,0,1,1.988-3.044,10.892,10.892,0,0,1,18.9,7.919Q260.961,249.777,260.9,250.23Z" fill="#ffe6d9"/><path d="M245.215,240.681c-.6.552-.167,1.441.6,1.155s4.369-1.326,6.764-.686,1.337-.872-.035-1.384C249.979,238.812,247.574,238.511,245.215,240.681Z" fill="url(#j)"/><path d="M350.581,337.435l-3.444-27.169,3.444-.654-7.526-29.3-6.888,28.905,3.444.654-3.444,27.169Z" fill="#06408d"/><path d="M348.777,308.531l-3.447.65,2.433,19.17c.607-.017,1.16-.027,1.664-.027l-2.292-18.059,3.447-.65-5.465-21.226-.71,3.165Z" fill="#142057"/><path d="M343.055,280.313l-6.888,28.905,2.219.482,5.54-26.256Z" fill="#1864af"/><path d="M442.964,282.624v.02a.694.694,0,0,0-.03.08c-.07.22-.13.44-.2.66-.11.39-.23.78-.35,1.16-.06.2-.13.39-.19.59s-.12.37-.19.57c-.28.85-.56,1.69-.85,2.55-.24.7-.49,1.37-.74,2.06,0,.01,0,.01-.01.02v.01c-.09.27-.19.53-.29.8-.33.89-.66,1.77-1.01,2.65-.31.8-.63,1.61-.96,2.4-.05.11-.09.22-.14.33q-1.125,2.7-2.34,5.35c-.03.04-.04.08-.07.13-.36.78-.73,1.56-1.1,2.33-.35.73-.71,1.45-1.08,2.17l-.03.06-.03.06c-.32.63-.64,1.25-.97,1.87-.35.68-.71,1.35-1.08,2.02-.38.7-.76,1.39-1.15,2.08-.42.75-.86,1.5-1.3,2.24-.17.29-.34.57-.51.86a.01.01,0,0,1-.01.01c-.28.49-.57.96-.86,1.44-.59.95-1.18,1.9-1.79,2.83-.03.05-.06.09-.09.14-.43.67-.87,1.35-1.31,2a2.032,2.032,0,0,0-.13.18q-.78,1.17-1.59,2.31c-.49.69-.98,1.37-1.46,2.04-.14.21-.28.4-.43.59-.48.65-.95,1.29-1.43,1.92a1.437,1.437,0,0,0-.11.15c-.08.1-.15.19-.23.28-.25.34-.51.67-.77,1s-.51.66-.77.99c-1.2,1.52-2.44,3.02-3.7,4.48-.63.73-1.27,1.46-1.91,2.18s-1.29,1.44-1.95,2.14c-.65.72-1.32,1.4-1.99,2.11-.67.69-1.34,1.38-2.03,2.05l-.35.35c-.57.57-1.15,1.13-1.72,1.68-.7.67-1.41,1.33-2.12,1.98-.67.62-1.35,1.24-2.04,1.85a1.81,1.81,0,0,1-.21.18c-.65.58-1.31,1.16-1.97,1.71-.01.01-.03.02-.04.03-.08.07-.16.15-.25.22-.68.58-1.36,1.15-2.05,1.71-1.5,1.22-3.02,2.42-4.56,3.58-.25.2-.5.38-.76.57l-.33.24c-.09.07-.19.14-.3.22l-.3.21c-.3.23-.61.46-.91.68s-.62.45-.94.66c-.66.49-1.34.96-2.02,1.42-.19.13-.38.26-.57.38l-.18.12c-.26.18-.53.36-.79.53a1.212,1.212,0,0,0-.14.1c-.37.24-.74.49-1.12.73-.48.32-.95.63-1.43.93-.09.06-.19.12-.28.17-.01.01-.02.01-.03.02-.46.31-.93.6-1.4.87a1.629,1.629,0,0,1-.17.11c-.02.01-.03.02-.05.03-.36.22-.72.44-1.09.66-.33.2-.66.4-.99.59-.24.14-.47.28-.71.42-.08.05-.16.09-.24.14-.31.18-.62.36-.94.54-.15.08-.29.17-.43.24a1.856,1.856,0,0,1-.19.11c-.24.14-.49.28-.74.41-.22.13-.45.26-.68.38-.26.15-.53.29-.8.44-.21.12-.43.23-.65.35-.03.01-.05.03-.08.04a3.9,3.9,0,0,1-.35.19c-.29.16-.59.32-.88.46-.54.29-1.09.58-1.64.86-1.76.89-3.55,1.75-5.35,2.57-.46.21-.92.42-1.39.62a3.094,3.094,0,0,1-.32.14c-.11.05-.21.1-.32.15s-.21.1-.31.14a1.472,1.472,0,0,0-.22.1.417.417,0,0,0-.1.04c-.18.08-.35.15-.53.22-.63.27-1.28.54-1.92.81a5.724,5.724,0,0,1-.62.25c-.65.27-1.32.54-1.98.79-.53.21-1.06.41-1.6.61-.16.07-.33.13-.49.19-.36.14-.72.27-1.09.4q-1.125.42-2.28.81c-.22.08-.45.16-.68.23-.64.22-1.29.44-1.94.64-.26.09-.52.17-.78.25-.11.04-.21.07-.32.1a.986.986,0,0,1-.16.05.185.185,0,0,1-.07.02c-.16.06-.32.11-.48.16-.35.11-.7.21-1.04.31l-.69.21c-.22.07-.44.14-.66.2-.2.06-.4.11-.61.17-.09.03-.19.05-.29.08l-.54.15c-.03.01-.07.02-.1.03-.25.07-.5.14-.76.22-.52.14-1.04.28-1.56.41l-.46.12c-.25.06-.51.13-.77.2-.14.03-.28.07-.42.1-.82.21-1.65.41-2.48.6l-.5.12c-.68.15-1.37.31-2.05.45h-.02c-.17.04-.34.07-.51.11s-.33.07-.5.1c-.77.16-1.54.32-2.31.45-.2.04-.4.08-.6.11-.56.12-1.14.22-1.71.31a1.515,1.515,0,0,1-.21.03c-.07.02-.15.02-.21.04-.03,0-.05.01-.08.01a.9.9,0,0,0-.16.03.127.127,0,0,0-.06.01l-.2.03c-.04.01-.07.01-.11.02-.27.04-.53.09-.8.13-.02,0-.04.01-.07.01s-.04.01-.06.01q-.5.09-.99.15l-1.22.18c-.41.06-.81.12-1.22.17-.29.04-.58.08-.87.11-.21.03-.42.06-.63.08-.18.02-.35.05-.53.06-.11.02-.22.03-.33.04-.25.04-.5.06-.76.09s-.5.06-.76.08a.22.22,0,0,1-.08.01c-.23.03-.45.05-.68.07-.18.02-.35.04-.53.05-.4.05-.81.09-1.21.12-.07.01-.13.01-.2.02-.52.05-1.04.08-1.56.12l-.39.03a.208.208,0,0,1-.11.01,3.092,3.092,0,0,1-.43.02c-.31.03-.63.06-.95.08-.04,0-.07.01-.11.01-.31.02-.63.04-.95.05a.41.41,0,0,1-.11.01c-.52.03-1.03.06-1.55.08-.77.04-1.54.07-2.32.09-.21.01-.43.02-.66.02s-.44.01-.66.01h-.06c-.41.02-.83.03-1.24.03h-.07c-.22.01-.43.01-.65.01h-.31c-.34.01-.68.01-1.02.01-.4,0-.8,0-1.19-.01s-.79,0-1.18-.01c-.48,0-.95-.01-1.43-.03-.17,0-.33-.01-.5-.01l-.87-.03c-.48-.01-.96-.03-1.43-.06h-.03l-.65-.03c-.21-.01-.44-.02-.66-.04-.57-.02-1.14-.06-1.7-.09s-1.14-.07-1.71-.12c-.36-.03-.72-.05-1.08-.09-.41-.03-.83-.07-1.24-.11-.16-.01-.32-.03-.48-.04-.31-.04-.63-.07-.94-.1l-.33-.03c-.42-.04-.84-.09-1.26-.14l-1.6-.18a2.517,2.517,0,0,1-.27-.04l-.51-.06-.86-.12c-.24-.03-.48-.06-.73-.1s-.49-.06-.74-.1c-.62-.09-1.26-.18-1.89-.29-.34-.05-.68-.11-1.03-.17-.75-.12-1.49-.25-2.23-.39q-1.05-.18-2.1-.39c-.69-.13-1.38-.28-2.07-.42-.46-.1-.92-.2-1.39-.3-.03-.01-.05-.01-.08-.02-.38-.08-.76-.17-1.14-.26-.12-.02-.24-.06-.36-.09-.52-.12-1.05-.25-1.57-.37s-1.05-.26-1.56-.39a.354.354,0,0,1-.11-.03c-.74-.19-1.48-.38-2.22-.59-.2-.05-.39-.1-.58-.16-.64-.18-1.27-.36-1.9-.54-.09-.03-.19-.05-.28-.08-.02-.01-.03-.02-.05-.02-.79-.24-1.58-.48-2.37-.73l-.01-.01c-.08-.02-.15-.05-.23-.07-.42-.12-.84-.26-1.26-.39s-.83-.27-1.24-.41c-.01,0-.02-.01-.03-.01h-.01c-.16-.05-.31-.12-.47-.17-.09-.03-.19-.06-.28-.09-.88-.3-1.75-.6-2.62-.93-.14-.05-.28-.1-.41-.14-1.09-.4-2.16-.81-3.22-1.23-.02-.01-.06-.02-.1-.04-1.05-.42-2.08-.84-3.12-1.27-.12-.05-.24-.12-.37-.17-.19-.08-.37-.16-.56-.24q-.855-.345-1.71-.75c-.12-.05-.25-.1-.37-.16-.37-.16-.73-.33-1.09-.5s-.72-.34-1.08-.51c-.35-.15-.7-.31-1.04-.47s-.7-.34-1.04-.51c-.89-.43-1.78-.88-2.66-1.33a.538.538,0,0,1-.11-.05c-.95-.48-1.88-.98-2.81-1.48-.19-.11-.4-.23-.6-.33-.5-.27-.99-.54-1.49-.83-.06-.03-.12-.06-.17-.09l-.6-.36c-.14-.07-.27-.14-.4-.22s-.27-.16-.4-.24c-.43-.24-.86-.48-1.28-.73s-.84-.51-1.25-.76c-1.11-.67-2.21-1.35-3.3-2.06-.92-.57-1.82-1.17-2.72-1.78-.1-.07-.2-.15-.32-.22-.92-.61-1.82-1.24-2.72-1.89-.01-.01-.03-.02-.04-.03-.69-.49-1.38-1-2.07-1.5-.21-.15-.41-.3-.62-.45-.12-.09-.24-.18-.36-.28-.45-.33-.89-.68-1.34-1.02-.56-.44-1.13-.88-1.69-1.32-.26-.2-.51-.4-.77-.61l-1.26-1.02c-.09-.07-.17-.14-.26-.22-.14-.12-.29-.24-.43-.36l-.47-.38q-.51-.42-1.02-.87l-.25-.22c-.54-.46-1.07-.93-1.61-1.39l-.06-.06-1.71-1.53c-.68-.63-1.36-1.25-2.03-1.89-.58-.54-1.15-1.09-1.72-1.64-.93-.93-1.86-1.85-2.78-2.79-.46-.49-.93-.99-1.4-1.47-1.29-1.38-2.56-2.77-3.8-4.19-.62-.7-1.22-1.42-1.82-2.13-.59-.69-1.16-1.38-1.72-2.08-.06-.07-.11-.13-.16-.19-1.15-1.42-2.26-2.85-3.36-4.31-1.23-1.66-2.44-3.33-3.61-5.04-.4-.59-.79-1.18-1.19-1.76-.06-.11-.12-.19-.18-.28-.47-.72-.94-1.43-1.4-2.16-.5-.79-1-1.59-1.48-2.39-.5-.79-.97-1.61-1.44-2.41-.49-.82-.95-1.64-1.41-2.45s-.91-1.65-1.35-2.48c-.88-1.66-1.74-3.33-2.57-5.03-.41-.84-.8-1.69-1.2-2.53a.107.107,0,0,0-.02-.06c-.34-.74-.68-1.5-1.01-2.24-.09-.2-.18-.41-.27-.61-.33-.78-.67-1.55-.98-2.32-1.1-2.64-2.11-5.29-3.06-8a147.9,147.9,0,0,1,5.49-110.76c27.44,8.38,51.81,40.54,77.7,73.25,15.61,19.73,31.78,39.66,49.5,54.72,1.24,1.05,2.49,2.09,3.75,3.09.55.44,1.1.88,1.66,1.31.16.12.32.24.48.37,11.33,8.73,23.33,15.33,36.23,18.52a71.3,71.3,0,0,0,12.6,1.98,72.628,72.628,0,0,0,14.95-.54c1.31-.18,2.62-.4,3.95-.65,14.31-2.75,29.7-9.78,46.4-22.31q3.2-2.385,6.45-5.06c.61-.5,1.23-1,1.84-1.53q8.16-6.825,16.75-15.44c.08-.09.17-.17.25-.26.36-.36.72-.73,1.08-1.09C441.944,283.664,442.454,283.154,442.964,282.624Z" fill="url(#k)"/><path d="M333.132,152.826l-4.036,3.643-5.21,4.743,0,0-.005,0-5.21-4.743-4.036-3.643c-.229-.209,2.075-.151,4.935,1.794l4.316,3.236,4.316-3.236C331.057,152.675,333.361,152.617,333.132,152.826Z" fill="#356eb6"/><path d="M290.344,152.678l3.993-3.6,5.087-4.628,0,0,0,0,5.088,4.628,3.992,3.6c.225.2-5.956-.078-9.084-3.124C296.3,152.6,290.119,152.881,290.344,152.678Z" fill="#356eb6"/><path d="M287.88,138.126l-2.555,2.306-3.221,2.931-.019.019-.023-.019-3.221-2.931-2.555-2.306c-.144-.13,2.14-.741,5.8,1.185C285.741,137.385,288.024,138,287.88,138.126Z" fill="#ffe6d9"/><path d="M350.741,245.486h-.017a.183.183,0,0,1-.033,0l.05,0Z" fill="#142057"/><path d="M432.794,274.7c-6.65,9.09-15.41,11.66-21.01,17.59-.2.2-.38.4-.57.61a15.118,15.118,0,0,1,8.57-18.97c.34-.13.68-.26,1.02-.37a15.119,15.119,0,0,1,4.65-.75.109.109,0,0,0,.08,0A15.023,15.023,0,0,1,432.794,274.7Z" fill="#06408d"/><circle cx="1.273" cy="1.273" r="1.273" transform="translate(431.047 282.061)" fill="#06408d"/><path d="M359.411,213.453c-.275.5.213,1,.655.635a9.827,9.827,0,0,1,4.345-1.972c1.737-.111.694-.88-.333-.913C362.161,211.142,360.495,211.481,359.411,213.453Z" fill="url(#l)"/><path d="M483.984,258.374" fill="#e5dfd9"/><path d="M297.274,439.734c-.13,0-.26-.01-.39-.01a191.059,191.059,0,0,1-79.68-19.24c-1.77-.79-3.47-1.73-5.18-2.63l-5.12-2.72-4.99-2.96c-1.66-1-3.35-1.94-4.94-3.04-3.21-2.15-6.5-4.19-9.55-6.56l-4.64-3.46-4.48-3.66c-3.03-2.39-5.82-5.05-8.69-7.62-1.46-1.26-2.77-2.67-4.15-4.01-1.36-1.36-2.75-2.7-4.07-4.09a200.675,200.675,0,0,1-14.79-17.66,187.9,187.9,0,0,1-35.08-83.39c-4.43-29.83-1.84-60.48,8.31-88.11a209.021,209.021,0,0,0-2.76,21.74,191.888,191.888,0,0,0-.5,21.7,207.29,207.29,0,0,0,6.02,42.43,188.447,188.447,0,0,0,38.2,74.45,183.883,183.883,0,0,0,104.89,62.46c1.65.33,3.3.64,4.96.92Z" fill="url(#m)"/><path d="M493.694,267.854a179.086,179.086,0,0,1-6.58,34.13q-1.485,5.115-3.28,10.16c-.26.73-.52,1.46-.79,2.18-.59,1.63-1.21,3.24-1.85,4.85l-11.87-11.37c.18-.4.36-.8.53-1.2.19-.43.38-.86.57-1.3.53-1.17,1.06-2.35,1.55-3.54l1.89-4.92c0-.01.01-.01.01-.02,1.34-3.26,2.29-6.65,3.47-9.98.6-1.66,1-3.38,1.5-5.08l1.43-5.12c.76-3.45,1.64-6.9,2.3-10.39l.01-.07v-.01l.94-5.17c.15-.88.33-1.75.46-2.63l.34-2.65.69-5.31c.23-1.78.31-3.56.48-5.34l.44-5.36c.08-1.79.19-3.59.22-5.38.1-3.59.13-7.19.05-10.79a187.4,187.4,0,0,0-1.72-21.64c-.46-3.61-1.05-7.2-1.71-10.8q-1.035-5.37-2.3-10.74c.48,1.12.96,2.24,1.41,3.37q1.44,3.525,2.7,7.12c.2.55.39,1.09.57,1.64.35,1.03.7,2.06,1.02,3.09.21.65.41,1.3.61,1.95q1.2,3.9,2.2,7.86c.17.66.33,1.32.49,1.98.33,1.35.64,2.69.93,4.04.14.65.28,1.3.41,1.96s.27,1.34.4,2.01c.16.8.31,1.61.45,2.41.1.54.19,1.09.28,1.63.27,1.57.51,3.14.73,4.72.12.83.23,1.66.34,2.49.05.35.09.71.13,1.06.25,2,.46,4,.63,6.02.06.68.12,1.37.17,2.05.09,1.07.16,2.14.22,3.22.05.73.09,1.47.12,2.2.03.63.06,1.27.08,1.9.02.31.03.61.04.92v.17c.01.01.01.01,0,.02a2.434,2.434,0,0,1,.01.27c.03.68.04,1.36.05,2.03A193.032,193.032,0,0,1,493.694,267.854Z" fill="url(#n)"/><path d="M239.194,373.644l18.17,7.08.01.01" fill="none"/><path d="M481.194,319.174c-.63,1.6-1.29,3.18-1.97,4.76-.2.48-.41.95-.62,1.43q-1.275,2.91-2.67,5.79c-.33.69-.67,1.37-1.01,2.06-.43.86-.86,1.71-1.3,2.56-.36.7-.73,1.4-1.1,2.1-.58,1.09-1.17,2.18-1.78,3.25q-.87,1.56-1.77,3.09a.415.415,0,0,1-.07.13c-.36.61-.72,1.23-1.09,1.83q-2.115,3.51-4.38,6.92a193.706,193.706,0,0,1-67.16,62.31c-1.97,1.1-3.96,2.15-5.98,3.17-.21.12-.43.23-.65.33q-4.53,2.295-9.18,4.34c-.73.32-1.45.63-2.18.94a.355.355,0,0,1-.09.04c-.59.25-1.19.5-1.78.74-.9.38-1.8.74-2.7,1.1-1.02.41-2.04.8-3.07,1.19q-8.535,3.225-17.34,5.68c-1.85.59-3.76.98-5.64,1.44l-5.67,1.32-5.73,1.04c-1.91.33-3.81.76-5.74.96l-5.77.76c-.96.11-1.93.26-2.89.36l-2.9.23-5.8.45c-1.94.18-3.88.15-5.81.23-.28.01-.57.01-.85.02l.21,9.02-9.44-9.03-26.63-25.46a182.2,182.2,0,0,0,36.07,2.48q4.92-.105,9.83-.49c.73-.06,1.46-.12,2.2-.19,2.24-.2,4.47-.44,6.69-.74.69-.08,1.38-.18,2.07-.28l1.46-.21c.58-.09,1.15-.18,1.72-.27.79-.12,1.59-.26,2.38-.4s1.58-.28,2.37-.43c1.46-.27,2.93-.57,4.39-.88.11-.02.22-.05.33-.07,1.57-.35,3.13-.71,4.69-1.09.55-.13,1.1-.27,1.64-.41a183.259,183.259,0,0,0,19.4-6.1c.84-.31,1.68-.63,2.51-.97q1.275-.48,2.55-1.02c.85-.34,1.7-.69,2.54-1.06s1.69-.72,2.53-1.1,1.67-.75,2.5-1.14,1.67-.77,2.49-1.17q2.49-1.2,4.93-2.46a189.4,189.4,0,0,0,34.3-23.15c1.36-1.08,2.61-2.28,3.9-3.44l3.85-3.5,3.67-3.69c1.22-1.23,2.48-2.43,3.63-3.74,2.34-2.56,4.75-5.08,6.92-7.8,1.11-1.34,2.24-2.66,3.33-4.02l3.15-4.17c1.06-1.39,2.12-2.78,3.07-4.24l2.98-4.31c1.03-1.41,1.87-2.94,2.82-4.41.91-1.49,1.87-2.96,2.75-4.47,3.23-5.7,6.34-11.51,9.02-17.53Z" fill="#003c71" opacity="0.6"/><path d="M257.374,380.734c.79.25,1.58.49,2.37.73-.75-.21-1.49-.44-2.23-.67l-.04-.02Z" fill="#d6d1c9" opacity="0.6"/><path d="M260.344,381.644c.73.22,1.47.42,2.21.62-.2-.05-.39-.1-.58-.16C261.424,381.954,260.884,381.8,260.344,381.644Z" fill="#d6d1c9" opacity="0.6"/><path d="M268.374,383.734c.38.09.76.18,1.14.26-.5-.11-1-.22-1.5-.34C268.134,383.684,268.254,383.714,268.374,383.734Z" fill="#d6d1c9" opacity="0.6"/><path d="M281.044,386.074c.22.04.45.07.68.1-.39-.05-.78-.11-1.17-.16Z" fill="#d6d1c9" opacity="0.6"/><path d="M293.754,387.294c.22.02.45.03.66.04-.79-.03-1.57-.08-2.36-.13C292.614,387.234,293.184,387.274,293.754,387.294Z" fill="#d6d1c9" opacity="0.6"/><path d="M305.044,387.464c.22,0,.44,0,.66-.01-.65.02-1.31.04-1.96.04.41,0,.83-.01,1.24-.03Z" fill="#d6d1c9" opacity="0.6"/><path d="M312.354,387.114a3.092,3.092,0,0,0,.43-.02c-.46.04-.92.08-1.38.1C311.724,387.174,312.044,387.144,312.354,387.114Z" fill="#d6d1c9" opacity="0.6"/><path d="M313.284,387.054c.4-.03.81-.05,1.21-.09-.53.05-1.06.09-1.6.12Z" fill="#d6d1c9" opacity="0.6"/><path d="M341.794,381.984c.1-.03.21-.05.31-.08l-.54.15A2.014,2.014,0,0,0,341.794,381.984Z" fill="#d6d1c9" opacity="0.6"/><path d="M373.424,368.924c.25-.13.5-.27.74-.41-.47.27-.94.54-1.42.79C372.974,369.184,373.2,369.054,373.424,368.924Z" fill="#d6d1c9" opacity="0.6"/><path d="M383.374,362.854c.26-.17.53-.35.79-.53-.26.19-.53.36-.79.54Z" fill="#d6d1c9" opacity="0.6"/><path d="M388.784,359.064l.3-.21c-.4.3-.81.6-1.21.89C388.174,359.524,388.484,359.294,388.784,359.064Z" fill="#d6d1c9" opacity="0.6"/><path d="M418.9,329.584c.08-.09.15-.18.23-.28-.33.43-.66.85-1,1.28C418.394,330.254,418.654,329.924,418.9,329.584Z" fill="#d6d1c9" opacity="0.6"/><path d="M440.414,290.314c0,.01,0,.01-.01.02v-.01Z" fill="#d6d1c9" opacity="0.6"/><path d="M331.314,241.264l110.13,42.92.94.36" fill="none"/><line x1="0.06" y1="0.06" transform="translate(204.034 350.564)" fill="none"/><path d="M469.324,307.8c-2.68,6.02-5.79,11.83-9.02,17.53-.88,1.51-1.84,2.98-2.75,4.47-.95,1.47-1.79,3-2.82,4.41l-2.98,4.31c-.95,1.46-2.01,2.85-3.07,4.24l-3.15,4.17c-1.09,1.36-2.22,2.68-3.33,4.02-2.17,2.72-4.58,5.24-6.92,7.8-1.15,1.31-2.41,2.51-3.63,3.74l-3.67,3.69-3.85,3.5c-1.29,1.16-2.54,2.36-3.9,3.44a189.4,189.4,0,0,1-34.3,23.15q-2.445,1.26-4.93,2.46-1.23.6-2.49,1.17c-.83.39-1.67.77-2.5,1.14s-1.68.74-2.53,1.1-1.69.71-2.54,1.06-1.7.69-2.55,1.02c-.83.33-1.67.65-2.51.97a183.259,183.259,0,0,1-19.4,6.1c-.54.14-1.09.28-1.64.41-1.56.38-3.12.74-4.69,1.09-.11.02-.22.05-.33.07-1.46.31-2.93.61-4.39.88-.79.15-1.58.3-2.37.43s-1.59.28-2.38.4c-.57.09-1.14.18-1.72.27l-1.46.21c-.69.1-1.38.19-2.07.28-2.22.3-4.45.54-6.69.74-.74.07-1.47.13-2.2.19q-4.905.39-9.83.49a182.2,182.2,0,0,1-36.07-2.48l-66.55-63.65c.53.48,1.07.94,1.61,1.39l.25.22,1.02.87c.3.26.6.5.9.74.09.08.17.15.26.22l1.26,1.02c.25.21.51.42.77.61.56.44,1.13.88,1.69,1.32.44.35.89.69,1.34,1.02.12.1.24.19.36.28.21.15.41.3.62.45q1.02.765,2.07,1.5c.01.01.03.02.04.03.9.65,1.8,1.28,2.72,1.89.12.07.22.15.32.22.9.61,1.8,1.21,2.72,1.78,1.09.71,2.19,1.39,3.3,2.06.41.25.83.51,1.25.76.55.33,1.11.66,1.68.97.33.2.67.39,1,.58.05.03.11.06.17.09.49.29.98.56,1.49.83.2.1.41.22.6.33.93.5,1.86,1,2.81,1.48a.538.538,0,0,0,.11.05c.88.46,1.77.91,2.66,1.33.34.17.69.35,1.04.51.53.25,1.05.5,1.58.73.18.09.36.17.54.25.36.17.72.34,1.09.5.12.06.25.11.37.16q.855.39,1.71.75c.19.08.37.16.56.24.13.05.25.12.37.17,1.04.43,2.07.85,3.12,1.27a.417.417,0,0,0,.1.04c1.06.42,2.13.83,3.22,1.23.5.18,1.01.37,1.52.55s1,.35,1.51.52c.09.03.19.06.28.09.16.06.31.12.47.17h.01c.01,0,.02.01.03.01.41.14.83.28,1.24.41.21.07.42.14.63.2.32.11.65.21.97.31l.04.02c.74.23,1.48.46,2.23.67.02,0,.03.01.05.02.09.03.19.05.28.08s.18.05.27.08c.54.16,1.08.31,1.63.46.19.06.39.11.58.16.74.21,1.48.41,2.22.59a.354.354,0,0,0,.11.03q.78.21,1.56.39c.53.13,1.05.26,1.57.38.06.01.12.03.18.04.44.11.88.2,1.32.3.03.01.05.01.08.02.47.1.93.2,1.39.3q1.035.225,2.07.42c.72.15,1.44.28,2.16.41s1.45.26,2.17.37c.35.06.69.12,1.03.17.63.11,1.27.2,1.89.29a2.163,2.163,0,0,1,.25.04c.39.05.78.11,1.17.16l.91.12.51.06a2.517,2.517,0,0,0,.27.04l1.6.18c.42.06.84.1,1.26.14.15.02.31.03.46.05.27.03.54.05.81.08.16.01.32.03.48.04.41.04.83.08,1.24.11.36.04.72.06,1.08.09q.855.075,1.71.12c.4.03.79.05,1.18.07.28.02.57.03.85.04.11.01.22.02.33.02l.65.03h.03c.47.03.95.05,1.43.06l.87.03c.17,0,.33.01.5.01l1.43.03c.39.01.79.01,1.18.01s.79.01,1.19.01c.34,0,.68,0,1.02-.01h.31c.22,0,.43,0,.65-.01h.07c.65,0,1.31-.02,1.96-.04.23,0,.45-.01.66-.02.77-.02,1.55-.05,2.32-.09.52-.02,1.03-.05,1.55-.08a.41.41,0,0,0,.11-.01c.32-.01.64-.03.95-.05.04,0,.07-.01.11-.01.46-.02.92-.06,1.38-.1a.208.208,0,0,0,.11-.01c.16-.01.32-.02.47-.04a4.581,4.581,0,0,0,.53-.03.88.88,0,0,0,.17-.02c.15,0,.29-.02.43-.03.04,0,.08-.01.12-.01.08-.01.15-.01.23-.02s.13-.01.2-.02c.4-.03.81-.07,1.21-.12.18-.01.35-.03.53-.05.23-.02.45-.04.68-.07a.22.22,0,0,0,.08-.01c.26-.02.51-.05.76-.08s.51-.05.76-.09c.11-.01.22-.02.33-.04.18-.01.35-.04.53-.06.21-.02.42-.05.63-.08.29-.03.58-.07.87-.11.41-.05.81-.11,1.22-.17s.81-.11,1.22-.18q.495-.06.99-.15c.02,0,.04-.01.06-.01s.05-.01.07-.01c.27-.04.53-.09.8-.13.04-.01.07-.01.11-.02l.2-.03a.127.127,0,0,1,.06-.01.9.9,0,0,1,.16-.03c.03,0,.05-.01.08-.01.06-.02.14-.02.21-.04a1.515,1.515,0,0,0,.21-.03c.57-.09,1.15-.19,1.71-.31.2-.03.4-.07.6-.11.77-.13,1.54-.29,2.31-.45.17-.04.34-.07.5-.1s.34-.07.51-.11h.02c.68-.14,1.37-.3,2.05-.45l.5-.12c.83-.19,1.66-.39,2.48-.6.14-.03.28-.06.42-.1.26-.07.52-.14.77-.2l.46-.12c.52-.13,1.04-.27,1.56-.41.26-.08.51-.15.76-.22.03-.01.07-.02.1-.03l.54-.15c.1-.03.2-.05.29-.08.21-.06.41-.11.61-.17.22-.06.44-.13.66-.2l.69-.21c.33-.09.64-.19.97-.29.02-.01.05-.01.07-.02.16-.05.32-.1.48-.16a.185.185,0,0,0,.07-.02.986.986,0,0,0,.16-.05c.11-.03.21-.06.32-.1.26-.08.52-.16.78-.25.65-.2,1.3-.42,1.94-.64.23-.07.46-.15.68-.23q1.155-.39,2.28-.81c.37-.13.73-.26,1.09-.4.16-.06.33-.12.49-.19.54-.19,1.07-.4,1.6-.61.66-.25,1.33-.52,1.98-.79a5.724,5.724,0,0,0,.62-.25c.64-.27,1.29-.54,1.92-.81.18-.07.35-.14.53-.22a.417.417,0,0,1,.1-.04,1.472,1.472,0,0,1,.22-.1c.1-.04.21-.09.31-.14s.21-.1.32-.15a3.094,3.094,0,0,0,.32-.14c.47-.2.93-.41,1.39-.62,1.8-.82,3.59-1.68,5.35-2.57.55-.28,1.09-.56,1.64-.86.29-.14.59-.3.88-.46a3.9,3.9,0,0,0,.35-.19c.03-.01.05-.03.08-.04.22-.12.44-.23.65-.35.27-.14.54-.29.8-.44.48-.25.95-.52,1.42-.79a1.856,1.856,0,0,0,.19-.11c.14-.07.28-.16.43-.24.32-.18.63-.36.94-.54.08-.05.16-.09.24-.14.24-.14.48-.28.71-.42.33-.19.66-.39.99-.59.37-.22.73-.44,1.09-.66.02-.01.03-.02.05-.03a1.629,1.629,0,0,0,.17-.11c.47-.27.94-.56,1.4-.87.01-.01.02-.01.03-.02.09-.05.19-.11.28-.17.48-.3.95-.61,1.43-.93.38-.24.75-.49,1.12-.73.05-.03.09-.06.14-.09.13-.09.26-.18.4-.27s.26-.18.39-.27l.18-.12c.19-.12.38-.25.57-.38.68-.46,1.36-.93,2.02-1.42.32-.21.63-.43.94-.66.4-.29.81-.59,1.21-.89.11-.08.21-.15.3-.22l.33-.24c.26-.19.51-.37.76-.57,1.54-1.16,3.06-2.36,4.56-3.58.69-.57,1.38-1.13,2.05-1.71.09-.07.17-.15.25-.22.01-.01.03-.02.04-.03.66-.55,1.32-1.13,1.97-1.71a1.81,1.81,0,0,0,.21-.18c.69-.61,1.36-1.22,2.04-1.85.71-.65,1.42-1.31,2.12-1.98.57-.55,1.15-1.11,1.72-1.68l.35-.35c.69-.67,1.36-1.36,2.03-2.05.67-.71,1.34-1.39,1.99-2.11.66-.7,1.32-1.42,1.95-2.14s1.28-1.45,1.91-2.18c1.26-1.46,2.5-2.96,3.7-4.48.26-.33.52-.66.77-.99.34-.43.67-.85,1-1.28a1.437,1.437,0,0,1,.11-.15c.48-.63.95-1.27,1.43-1.92.15-.19.29-.38.43-.59.48-.67.97-1.35,1.46-2.04q.81-1.14,1.59-2.31a2.032,2.032,0,0,1,.13-.18c.44-.65.88-1.33,1.31-2,.03-.05.06-.09.09-.14.61-.93,1.2-1.88,1.79-2.83.29-.48.58-.95.86-1.44a.01.01,0,0,0,.01-.01c.17-.29.34-.57.51-.86.45-.75.88-1.49,1.3-2.24.39-.69.77-1.38,1.15-2.08.37-.67.73-1.34,1.08-2.02.33-.62.65-1.24.97-1.87l.03-.06.03-.06c.37-.72.73-1.44,1.08-2.17.37-.77.74-1.55,1.1-2.33.03-.05.04-.09.07-.13q1.215-2.655,2.34-5.35l.06-.15c.03-.06.05-.12.08-.18.16-.39.32-.79.48-1.19s.32-.81.48-1.21c.35-.88.68-1.77,1.01-2.65.1-.27.2-.53.29-.8v-.01c.01-.01.01-.01.01-.02.25-.69.5-1.36.74-2.06.29-.86.57-1.7.85-2.55.07-.2.13-.37.19-.57s.13-.39.19-.59l4.4,1.72Z" fill="#c4bfb6" opacity="0.6"/><line x1="3.81" y1="3.65" transform="translate(442.974 282.614)" fill="none"/><path d="M204.094,350.624" fill="#c4bfb6"/><path d="M174.212,301.367c-15.841-30.332-11.111-82.239-5.778-95.5s14.222-1.8,11.555,5.359S166,264.85,185.362,295.812C192.878,307.833,180.878,314.132,174.212,301.367Z" fill="url(#o)"/></g></g></svg>