<svg xmlns="http://www.w3.org/2000/svg" xmlns:xlink="http://www.w3.org/1999/xlink" width="596.57" height="596.57" viewBox="0 0 596.57 596.57"><defs><linearGradient id="a" x1="0.5" y1="1" x2="0.5" y2="-0.59" gradientUnits="objectBoundingBox"><stop offset="0" stop-color="#f6c260"/><stop offset="0.094" stop-color="#d8a35c"/><stop offset="0.219" stop-color="#b88158"/><stop offset="0.339" stop-color="#a16856"/><stop offset="0.448" stop-color="#925a54"/><stop offset="0.538" stop-color="#8e5554"/></linearGradient></defs><g transform="translate(298.285 298.285)"><g transform="translate(-298.285 -298.285)"><rect width="596.57" height="596.57" fill="#f9f4c9"/><g transform="translate(35.586 53.893)"><path d="M424.426,389.527c-1.073-39.976,14.175-94.351,30.363-103.823" transform="translate(-160.784 -138.181)" fill="none" stroke="#f4f2e9" stroke-miterlimit="10" stroke-width="0.705"/><path d="M420.2,389.527c-1.073-39.976,14.175-94.351,30.364-103.823" transform="translate(-159.537 -138.181)" fill="none" stroke="#f4f2e9" stroke-miterlimit="10" stroke-width="0.705"/><path d="M414.256,389.527c-1.073-39.976,14.175-94.351,30.363-103.823" transform="translate(-157.784 -138.181)" fill="none" stroke="#f4f2e9" stroke-miterlimit="10" stroke-width="0.705"/><path d="M374.127,389.527c1.073-39.976-14.175-94.351-30.364-103.823" transform="translate(-137.003 -138.181)" fill="none" stroke="#f4f2e9" stroke-miterlimit="10" stroke-width="0.705"/><path d="M378.352,389.527c1.074-39.976-14.175-94.351-30.363-103.823" transform="translate(-138.249 -138.181)" fill="none" stroke="#f4f2e9" stroke-miterlimit="10" stroke-width="0.705"/><path d="M384.3,389.527c1.074-39.976-14.175-94.351-30.363-103.823" transform="translate(-140.003 -138.181)" fill="none" stroke="#f4f2e9" stroke-miterlimit="10" stroke-width="0.705"/><path d="M392.352,389.527c0-36.634-11.4-86.348-22.79-103.823" transform="translate(-144.614 -138.181)" fill="none" stroke="#f4f2e9" stroke-miterlimit="10" stroke-width="0.705"/><path d="M408.209,389.527c0-36.634,11.395-86.348,22.789-103.823" transform="translate(-156.016 -138.181)" fill="none" stroke="#f4f2e9" stroke-miterlimit="10" stroke-width="0.705"/><line x1="1.88" y1="103.823" transform="translate(247.738 147.524)" fill="none" stroke="#f4f2e9" stroke-miterlimit="10" stroke-width="0.705"/><path d="M542.157,224.71c-.19-.465-.395-.924-.592-1.389a.076.076,0,0,1-.021-.049A242.507,242.507,0,0,0,525.5,192.648a.285.285,0,0,0-.035-.063c-.268-.451-.55-.9-.832-1.339A244.194,244.194,0,0,0,317.4,76.446c-108.278,0-200.109,70.413-232.2,167.948a242.74,242.74,0,0,0-10.709,49.328,247.761,247.761,0,0,0-1.488,27.114A244.355,244.355,0,0,0,261.06,558.7c.649.155,1.3.3,1.946.451q5.837,1.343,11.773,2.376l1.981.338c.663.113,1.325.219,1.988.324s1.325.2,1.988.31q2,.307,4,.564c.67.092,1.339.176,2.009.261s1.346.169,2.016.247,1.332.155,2,.226h.035c.67.078,1.339.148,2,.211.7.071,1.41.141,2.115.2.55.049,1.1.1,1.65.141,1.459.127,2.919.233,4.378.331.684.049,1.368.092,2.044.127s1.368.078,2.052.113c.8.042,1.586.078,2.383.113.578.021,1.156.042,1.734.056.691.028,1.375.049,2.066.063,1.057.028,2.122.049,3.179.056.987.014,1.974.021,2.968.021h.07c.8,0,1.6-.007,2.4-.014.085,0,.176,0,.261-.007.634,0,1.269-.014,1.9-.028.444,0,.888-.014,1.332-.021,1-.021,2.009-.056,3.01-.092.818-.028,1.643-.063,2.46-.1.592-.028,1.184-.056,1.77-.092.846-.042,1.685-.092,2.524-.141q4.674-.3,9.306-.768t9.179-1.107c.74-.106,1.487-.212,2.221-.324.409-.056.825-.12,1.234-.183q2.443-.381,4.864-.8c.416-.07.839-.148,1.255-.226.867-.148,1.734-.31,2.594-.479.973-.19,1.939-.381,2.9-.578.818-.169,1.621-.338,2.432-.515.275-.049.543-.106.818-.176.9-.2,1.8-.395,2.693-.606.987-.226,1.967-.458,2.947-.7s1.946-.479,2.912-.726a.052.052,0,0,0,.042-.014q4.378-1.132,8.706-2.411t8.58-2.728q11.114-3.765,21.727-8.544A244.035,244.035,0,0,0,561.565,331.43q.222-5.266.226-10.6A243.493,243.493,0,0,0,542.157,224.71ZM308.991,508.684a477.622,477.622,0,0,1-57.2-33.677c12-14.48,38.266-31.012,62.215-42-.627-16.92-67.417-40.889-100.269-48.876a46.031,46.031,0,0,1-4.907-1.5c8.262-13.67,28.446-25.471,40.417-25.859,0-8.164-10.962-4.85-26.275-9.694a.042.042,0,0,1-.028-.007c-12.182-5.682-24.562-15-36.032-24.561h101.9c2.933-1.727,6.021-3.729,9.186-5.936.275-.19.55-.381.825-.578a293.881,293.881,0,0,0,24.1-19.2c16.038-14.078,29.44-28.333,30.765-32.563,3.856,4.216,13.183,11.921,23.462,19.274,1.354.966,2.714,1.925,4.089,2.862A159.2,159.2,0,0,0,402.02,298.8a43.226,43.226,0,0,0,6.183,2.418c-1.05.479-2.157,1-3.3,1.558-2.517,1.22-5.231,2.6-8.079,4.124-.451-.183-.9-.381-1.346-.585-1.142-.536-2.256-1.114-3.292-1.692h-.007a65.328,65.328,0,0,1-5.9-3.722s-2.157,2.037-5.513,5.316c-4.124,4.04-10.053,9.961-15.989,16.292-3.419,3.645-6.838,7.43-9.919,11.068a101.19,101.19,0,0,0-9.115,12.168c-.007.007-.007.014-.014.021a34.909,34.909,0,0,0-4.984,8.911c30.011,2.03,60.424,14.3,73.247,50.561-19.02,8.587-35.5,14.473-39.824,27.769,7.705,4.526,37.575,25.041,48.4,38.161A684.353,684.353,0,0,1,308.991,508.684Z" transform="translate(-57.124 -76.446)" fill="#fa9259"/><path d="M174.77,317.505l-7.177-10.716,27.729-14.883,13.557.627,10.726-5.8,15.04-3.134,8.7,6.11s.073,2.506,4.773.157,26.92-11.838,25.849-6.267,5.64-2.976,5.64-2.976,13.225,4.7,15.542,10.5,20.177,1.1,20.177,1.1,67.835,0,67.208-3.133,10.152-8.93,13.144-7.677,5.318.47,9.952-.157,15.287-1.1,16.853,5.013c0,0,5.954,3.277,8.773,2.109s10.5-1.325,10.5-1.325l5.17-8.616s11.28-4.511,13.159-3.2,8.617-1.361,10.967-2.372,14.57,1.057,15.353,2.372,4.857,3.352,4.857,2.725,1.41-7.833,2.506-9.087,6.024-6.025,10.375-7.634,8.737-.64,13.125-4.649,12.376-8.158,15.979-8.2,7.52,4.5,7.52,4.972,7.677-5.483,9.713-6.893c.808-.56,3.535-2.228,4.91-.557a59.831,59.831,0,0,1,4.226,6.957c2.032,3.818-8.2,4.88-8.2,4.88s-11.065,7.676-14.227,8.146,1.694-7.767-3.005-7.252-13.316,4.432-14.1,8.035-5.954,2.037-7.99,1.88-5.738,1.084-10,4.3a17.948,17.948,0,0,0-6.608,10.894c-.783,3.447-5.483,4.073-7.52,3.134s-4.762-4.7-11.154-4.386-9.839.47-12.345,2.976-4.584,5.8-6.522,3.6-12.434,5.64-13.06,6.58-6.58,2.205-6.58,2.205L401.295,305.8s-107.306,12.756-110.111,12.121-79.726,3.124-80.2,3.124S174.77,317.505,174.77,317.505Z" transform="translate(-85.029 -126.23)" fill="#c66c59"/><path d="M572.055,281.872c-.007.007,2.639-1.522,2.632-1.515-24.653,11.068-48.547,32.612-65.2,54.332-9.214-3.708-18.555-15.164-18.555-15.164,0,5.252-20.24,22.827-36.144,31.576a62.742,62.742,0,0,1-14.262-7.579v-.007a140.491,140.491,0,0,1-18.675-15.573l-.268-.268s-7.05,7.05-14.558,13.007c-10.279-7.353-19.606-15.058-23.462-19.274-1.325,4.23-14.727,18.485-30.765,32.563-8.65-3.814-23.962-12.513-23.962-12.513-.7,3.391-12.922,12.1-27.226,20.67-9.94-6.733-22.489-20.67-22.489-20.67s-1.036.768-2.63,1.91c-2.044,1.459-5,3.525-7.839,5.351-9.722-7.4-17.307-14.156-17.307-14.156-.127.9-2.524,3.25-5.774,6.084-7.346,6.394-19.084,15.228-19.084,15.228-19.034-6.916-37.138-22.8-52.232-39.021,10.236-16.955,35.7-14.946,36.589-9.094,5.492-10.652,30.385-21.516,34.466-4.385,7.508-7.924,30.23-19.281,28.665-4.427,2.009-9.362,18.788-12.718,21.657,2.545,0,0,23.053.818,23.053,10.441,0,0,63.589-15.9,64.647-7.17.331-14.4,14.932-16.912,17.413-9,7.4-10.405,25.95-9.313,21.107,2.594,2.291-3.884,11.16-4.089,10.511,1.875.268-2.319,6.733-6.972,12.605-1.671,1.043-9.313,15.143-20.5,17.547-7.755.966-12.845,21.523-9.581,31.752-3.053,0-14.093,16.313-22.581,25.2-17.8,1.791-10.885,20.12-19.373,22.01-4.78,0,0,11.141-8.882,18.529-13.274,4.18,7.8,11.808,22.418,14.071,27.015,0,.014-2.653,1.564-2.639,1.578A9.29,9.29,0,0,1,572.055,281.872Z" transform="translate(-86.995 -128.209)" fill="#8e5554"/><path d="M663.647,492.646A252.8,252.8,0,0,1,530,668.764H530q-6.969-.952-13.7-2.122h-.007a.042.042,0,0,1-.028-.007,392.3,392.3,0,0,1-102.645-32.323q-2.972-1.406-5.873-2.841a684.343,684.343,0,0,0,113.572-37.519c24.8-10.737,49.673-23.441,72.416-38.161C615.983,541.4,636.188,525.082,652.3,506.8c.014-.021.035-.035.049-.056Q658.405,499.883,663.647,492.646Z" transform="translate(-155.879 -199.233)" fill="#f6c260"/><path d="M703.562,438.067c-.092,2.39-.226,4.766-.381,7.134q-.476,7.032-1.318,13.945v.007a159.552,159.552,0,0,1-10.941,17.357v.007q-5.234,7.233-11.3,14.1c-.014.021-.035.035-.049.056-.881,1-1.77,1.988-2.672,2.975-7.67-2.7-14.2-4.829-14.2-4.829-20.367,19.443-43.554,16.461-66.74,25.415-11.907,9.693-37.886,10.131-59.754,12.831l-36,12.591H546.14s69.617-20.684,114.947-30.371a316.308,316.308,0,0,1-40.078,30.378H500.2c4.321-13.3,20.8-19.183,39.824-27.769,13.247-5.978,27.727-13.268,40.177-25.281,24.153-12.154,54.918-41.4,70.851-44.71.042-.007.092-.021.134-.028a224.638,224.638,0,0,1,36.412-3.786h.035q3.817-.106,7.839-.113Q699.413,437.965,703.562,438.067Z" transform="translate(-183.153 -183.104)" fill="#1e353c"/><path d="M587.268,361.232c-.677.931-1.332,1.854-1.981,2.785a259.762,259.762,0,0,0-14.946,24.061c-9.412,17.216-15.58,33.226-17.914,44.393H452.786a34.907,34.907,0,0,1,4.984-8.911c.007-.007.007-.014.014-.021a87.19,87.19,0,0,1,13.684-14.064l.007-.007c3.729-3.151,7.776-6.225,11.957-9.165a246.806,246.806,0,0,1,21.227-13.3q2.147-1.206,4.209-2.312c2.848-1.523,5.562-2.9,8.079-4.124,1.142-.557,2.249-1.079,3.3-1.558,3.236-1.48,6.021-2.622,8.157-3.356a55.921,55.921,0,0,0,8.558-3.934,134.327,134.327,0,0,0,15.467-10.173c11.132-8.375,20.677-17.794,20.677-21.4C573.895,346.033,575.728,361.126,587.268,361.232Z" transform="translate(-169.167 -154.243)" fill="#359d91"/><path d="M589.251,471.106c-10.243,7.741-13.43,14.417-13.43,14.417-14.128,18.837-32.951,28.545-49.786,36.144-12.824-36.264-43.236-48.531-73.247-50.561Z" transform="translate(-169.167 -192.878)" fill="#e2984c"/><path d="M291.45,474.076c-11.971.388-32.154,12.189-40.417,25.859-12.281-4.512-24.265-14.431-35-25.859Z" transform="translate(-99.321 -193.755)" fill="#e2984c"/><path d="M281.136,460.107H205.724a290.31,290.31,0,0,1-24.646-30.751c14.614-7.127,38.675,1.065,60.05,14.65a58.013,58.013,0,0,0,13.7,6.4.042.042,0,0,0,.028.007C270.173,455.257,281.136,451.943,281.136,460.107Z" transform="translate(-89.008 -179.786)" fill="#1e353c"/><path d="M242.787,429.133a58.013,58.013,0,0,1-13.7-6.4c-21.375-13.585-45.436-21.777-60.05-14.649-4.512-6.38-8.333-12.119-11.273-16.461-3.92-5.781-10-9.567-17.512-12,9.186-10.539,15.552-21.008,15.213-24.766-.07-.79,1.3.416,3.835,3.038a.007.007,0,0,0,.007.007,117.859,117.859,0,0,0,19.267,20.339,383.334,383.334,0,0,0,28.185,26.331C218.226,414.131,230.605,423.451,242.787,429.133Z" transform="translate(-76.962 -158.512)" fill="#176565"/><path d="M480.1,238.913c-8.326.818-17.053,8.3-17.068,14.283-2.355-2.538-5.16-1.41-7.022-.1a12.461,12.461,0,0,0-2.066,1.819c-3.6-7.36-16.764-13.268-23.032-9.552-2.037-5.175-18.8-4.857-21.777.409-1.875-1.3-91.33,6.641-91.33,6.641.155-6.74-15.961-7.959-18.329-5.393-6.775-.55-14.988,3.031-19.958,5.64-2.728,1.431-4.484,2.573-4.484,2.573-4.11-6.021-11.942-8.2-19.747-8.213-.007-.55-.014-1.1-.014-1.657A112.505,112.505,0,0,1,480.1,238.913Z" transform="translate(-110.898 -93.088)" fill="#e57e5e"/><path d="M466.371,255.383c0,2.608-.113,5.887-.338,8.439a12.46,12.46,0,0,0-2.066,1.819c-3.6-7.36-16.764-13.268-23.032-9.552-2.037-5.175-18.8-4.857-21.777.409-.438-.3-5.64-.105-13.361.379-18.115,1.136-50.1,3.841-66.917,5.3-6.745.584-11.053.967-11.053.967.155-6.74-15.961-7.959-18.329-5.393-6.775-.55-14.988,3.031-19.958,5.64-.2-2.411-.3-5.548-.3-8a88.567,88.567,0,1,1,177.133,0Z" transform="translate(-120.917 -103.107)" fill="#f9f4c9"/><path d="M263.092,369.826q-1.6.92-3.208,1.812c-14.861-5.964-42.327-1.614-56.878,12.231h-18.76a383.331,383.331,0,0,1-28.185-26.331A117.861,117.861,0,0,1,136.795,337.2a.007.007,0,0,1-.007-.007c-2.538-2.623-3.906-3.828-3.835-3.038.338,3.758-6.028,14.227-15.213,24.766-12.492-4.04-28.925-4.329-45.873-3.835h-.042q-3.923.106-7.868.268A250.477,250.477,0,0,1,72.7,311.1c3.363-1.819,6.655-3.6,9.834-5.344.014-.007.035-.021.049-.028v-.007c13.789-7.593,25.238-14.6,28.643-21.276,5.943,7.438,14.219,18.266,24.117,29.539,16.229,18.478,36.807,38.161,58.605,46.078,17.307,10.9,38.259-8.791,25.619-20.635,2.157,1.882,8.65,7.473,16.546,13.479C244.685,359.442,254.928,366.478,263.092,369.826Z" transform="translate(-54.454 -137.81)" fill="#359d91"/><path d="M568.1,292.195c-21.023,11.533-39.281,29.362-53.966,48.524-9.214-3.708-18.555-15.164-18.555-15.164,0,5.252-20.24,22.827-36.144,31.576a62.74,62.74,0,0,1-14.262-7.579v-.007A140.492,140.492,0,0,1,426.5,333.972l-.268-.268s-7.05,7.05-14.558,13.007c-10.279-7.353-19.606-15.058-23.462-19.274-1.325,4.23-14.727,18.485-30.765,32.563-8.65-3.814-23.962-12.513-23.962-12.513-.7,3.391-12.922,12.1-27.226,20.67-9.94-6.733-22.489-20.67-22.489-20.67s-1.036.768-2.63,1.91c-2.044,1.459-5,3.525-7.839,5.351-9.722-7.4-17.307-14.156-17.307-14.156-.127.9-2.524,3.25-5.774,6.084-7.346,6.394-19.084,15.228-19.084,15.228-14.565-5.287-28.587-15.834-41.129-27.762,18.485-10.568,43.667-14.748,55.87-13.254,5.492-6.436,40.332-11.251,46.458-.289,1.283-2.517,10.222-7.022,17.293-1.438,22.045,17.406,80.72-5.569,86.515-.9,3.969-9.129,41.664-15.087,49.349-1.629,4.47-8.932,39.881-18.329,45.485-5.337,3.962-7.459,35.623-20.705,40.064-12.965C532.063,292.4,555.066,288.346,568.1,292.195Z" transform="translate(-91.641 -139.651)" fill="url(#a)"/><path d="M555.05,244.646a181.843,181.843,0,0,0-16.243,11.392c-1.889-14.593-20.219-6.105-22.01,4.78-8.883-4.78-25.2,3.708-25.2,17.8-10.229-6.528-30.786-9.792-31.752,3.053-2.4-12.746-16.5-1.558-17.547,7.755-5.872-5.3-12.337-.649-12.605,1.671.649-5.964-8.22-5.76-10.511-1.875,4.843-11.907-13.712-13-21.107-2.594-2.482-7.917-17.082-5.4-17.413,9-1.057-8.728-64.647,7.17-64.647,7.17,0-9.623-23.053-10.441-23.053-10.441-2.869-15.263-19.648-11.907-21.657-2.545,1.565-14.854-21.156-3.5-28.665,4.427-4.082-17.131-28.975-6.267-34.466,4.385-.888-5.851-26.352-7.861-36.589,9.094-2.185-2.355-4.314-4.716-6.373-7.057,12.408-12.746,32.366-23.271,41.89-15.756,2.742-3.349,12.161-6.507,21.615-6.486,7.8.014,15.636,2.193,19.747,8.213,0,0,1.755-1.142,4.484-2.573,4.97-2.608,13.183-6.19,19.958-5.64,2.369-2.566,18.485-1.346,18.329,5.393a6.813,6.813,0,0,1,6.091-.536c15.432,6.317,70.688,8.178,79.169-6.126,1.262-2.129,4.011-.825,6.07.021,2.975-5.266,19.739-5.583,21.777-.409,6.267-3.715,19.429,2.192,23.032,9.552a12.461,12.461,0,0,1,2.066-1.819c1.861-1.311,4.667-2.439,7.022.1.014-5.978,8.742-13.465,17.068-14.283a12.126,12.126,0,0,1,7.684,1.593c5.323-7.212,19.584-7.05,27.572,3.13-1.22-12.006,5.731-18.795,20.367-20.677,1.093-4.7,26.282-14.671,34.622-6.585.486-3.13,3.694-6.253,8.065-8.488.007-.007.021-.007.028-.014a10.327,10.327,0,0,1,.8,1.354.284.284,0,0,1,.035.063C553.2,241.557,554.246,243.151,555.05,244.646Z" transform="translate(-84.328 -124.481)" fill="#f7ad61"/><path d="M459.952,292.625c-12.882,11.8-21.011,41.854-24.514,60.5l-6.406,6.74-1.516-14.332s5.006-25.823,5.276-26.787c5.782-20.616,17.267-26.711,23.395-27.073a8.469,8.469,0,0,1,3.765.951Z" transform="translate(-161.711 -139.94)" fill="#03090a" opacity="0.3"/><path d="M348.3,301.009c10.9,13.667,18.612,43.913,21.738,60.552l6.761,2.663,1.516-14.332s-4.858-25.878-5.276-26.788c-.3-.648-15.764-13.637-20.434-21.531A15.586,15.586,0,0,0,348.3,301.009Z" transform="translate(-138.341 -142.685)" fill="#03090a" opacity="0.3"/><path d="M365.6,388.268s0-103.823-43.772-103.823H442.972c-43.772,0-43.772,103.823-43.772,103.823Z" transform="translate(-130.531 -137.81)" fill="#f9f4c9"/><path d="M526.489,400.825c-1.375.74-2.644,2.1-4.075,2.9-3.194,1.791-6.535,3.6-9.9,5.527.085-4.688,3.426-14.431,3.426-14.431a65.335,65.335,0,0,0,5.9,3.722h.007c1.036.578,2.15,1.156,3.292,1.692C525.586,400.445,526.037,400.642,526.489,400.825Z" transform="translate(-186.788 -170.374)" fill="#1b8780"/><path d="M500.412,394.826s-3.342,9.743-3.426,14.431c-3.849,2.2-7.727,4.547-11.463,7.177-4.181,2.94-8.227,6.014-11.956,9.165l-.007.007a87.192,87.192,0,0,0-13.684,14.064,101.186,101.186,0,0,1,9.115-12.168c3.081-3.638,6.5-7.423,9.919-11.068,5.936-6.331,11.865-12.253,15.989-16.292C498.255,396.863,500.412,394.826,500.412,394.826Z" transform="translate(-171.258 -170.374)" fill="#176565"/><path d="M318.625,371.256a17.035,17.035,0,0,1-7.17,9.736c-1.121-.825-2.221-1.657-3.3-2.474,2.841-1.826,5.795-3.891,7.839-5.351C317.589,372.024,318.625,371.256,318.625,371.256Z" transform="translate(-126.498 -163.421)" fill="#1b8780"/><path d="M342.495,391.926c-.465.282-.931.557-1.4.839-1.509.9-3.038,1.791-4.575,2.672-7.141-2.926-15.869-8.678-23.68-14.445a17.035,17.035,0,0,0,7.17-9.736S332.554,385.193,342.495,391.926Z" transform="translate(-127.879 -163.421)" fill="#b5dcbe"/><path d="M417.473,383.769c-3.25,2.855-6.613,5.71-10,8.467-.3.247-.6.486-.9.726-5.506-3.412-13.712-14.65-13.063-21.706C393.511,371.256,408.823,379.955,417.473,383.769Z" transform="translate(-151.669 -163.421)" fill="#b5dcbe"/><path d="M381.159,392.962c-4.42,3.567-8.876,6.965-13.2,10-.275.2-.55.388-.825.578-3.165,2.207-6.253,4.209-9.186,5.936H307.326c2.531-1.065,5.33-2.341,8.3-3.786,3.779-1.833,7.832-3.927,11.942-6.169,2.432-1.318,4.886-2.693,7.325-4.089,1.537-.881,3.067-1.777,4.575-2.672.472-.282.938-.557,1.4-.839,14.3-8.566,26.521-17.279,27.226-20.67C367.447,378.313,375.653,389.55,381.159,392.962Z" transform="translate(-126.253 -163.421)" fill="#359d91"/><path d="M519.262,351.974l-.007.042c-.169.8-2.862,13.712-3.68,20.233-2.333-1.488-4.7-3.06-7.05-4.674-1.375-.938-2.735-1.9-4.089-2.862,7.508-5.957,14.558-13.007,14.558-13.007Z" transform="translate(-184.404 -157.653)" fill="#0e726f"/><path d="M557.028,375.245a55.928,55.928,0,0,1-8.558,3.934c-2.136.733-4.921,1.875-8.157,3.356a43.23,43.23,0,0,1-6.183-2.418,127.4,127.4,0,0,1-13.324-7.508l3.278-20.48.007-.042a140.5,140.5,0,0,0,18.675,15.573v.007A62.743,62.743,0,0,0,557.028,375.245Z" transform="translate(-189.234 -157.765)" fill="#1b8780"/><path d="M523.916,352.146l-3.278,20.48c-.134-.078-.268-.162-.4-.247C521.054,365.858,523.747,352.943,523.916,352.146Z" transform="translate(-189.066 -157.783)" fill="#1b8780"/><path d="M444.008,342.816a22.637,22.637,0,0,0-.233,3.892v.014c-2.129,11.886-16.017,43.328-64.64,54.368,2.933-1.727,6.021-3.729,9.186-5.936.275-.19.55-.381.825-.578a293.876,293.876,0,0,0,24.1-19.2C429.281,361.3,442.683,347.046,444.008,342.816Z" transform="translate(-147.438 -155.03)" fill="#176565"/><path d="M470.824,346.707a22.633,22.633,0,0,1,.233-3.892A12.556,12.556,0,0,1,470.824,346.707Z" transform="translate(-174.487 -155.03)" fill="#78c1aa"/><path d="M475.754,381.913c-.924.881-2.559,2.453-4.674,4.519-3.539,3.461-8.4,8.312-13.458,13.613-3.215-1.509-8.016-7.8-9.856-10.5-2.037-2.975-10.5-4.075-14.1-.818a137.357,137.357,0,0,1-20.557,13.994H379.136c48.622-11.04,62.511-42.482,64.64-54.368C443.959,357.782,449.014,375.5,475.754,381.913Z" transform="translate(-147.438 -156.665)" fill="#359d91"/><path d="M534.482,398.487c-1.812.909-3.708,1.889-5.668,2.94-.451-.183-.9-.381-1.347-.585-1.142-.536-2.256-1.114-3.292-1.692h-.007c-1.459-.818-2.764-1.629-3.772-2.284A93.876,93.876,0,0,0,534.482,398.487Z" transform="translate(-189.113 -170.976)" fill="#78c1aa"/><path d="M574.564,391.971l-4.223,1.77L472,434.932l-10.37,3.2h-8.84c10.17-22,35.814-35.982,56.08-47.777,15.13-8.2,40-17.462,53.2-31.016-2.083,21.663-13.654,27.9,25.2,7.555C592.271,364.275,574.564,391.971,574.564,391.971Z" transform="translate(-169.167 -159.905)" fill="#0e726f"/><path d="M604.563,381.011c-15.98,3.6-43.049,24.958-61.255,18.65-7.04-2.439-25.107,12.7-25.107,12.7l22.117,8.434,25.6-11.677,23.725-8.981Z" transform="translate(-188.465 -166.299)" fill="#176565"/><path d="M597.735,675.026a252.669,252.669,0,0,1-65.274,47.544h-.007q-6.969-.952-13.7-2.122h-.007a.042.042,0,0,1-.028-.007,392.3,392.3,0,0,1-102.645-32.323c23.37.423,64.365.31,78.3-2.841,16.292-3.68,1.9,13.867,9.411,15.742C510.445,702.689,570.812,678.734,597.735,675.026Z" transform="translate(-158.336 -253.039)" fill="#e2984c"/><path d="M504.436,431.29c2.226-13.524,9.7-16.8,9.7-16.8s31.358,2.435,43.313-6.389c6.859-5.062,37.369-17.365,43.009-19.745s-14.2,33.013-14.2,33.013l-56.407,16.357Z" transform="translate(-184.404 -168.432)" fill="#145158"/><path d="M714.31,443.506c-.042.007-.092.021-.134.028" transform="translate(-246.282 -184.736)" fill="none" stroke="#145158" stroke-miterlimit="10" stroke-width="0.705"/><path d="M642.011,355.31q-1.734,2.252-3.384,4.526c-.155.2-.3.409-.451.613a.025.025,0,0,1-.007.014c-.183.254-.374.515-.55.768-11.54-.106-13.373-15.2-14.163-21.086a75.025,75.025,0,0,0,5.273,5.661C632.268,349.254,637.161,353.357,642.011,355.31Z" transform="translate(-219.518 -154.243)" fill="#78c1aa"/><path d="M643.546,369.472c.176-.254.367-.515.55-.768a.024.024,0,0,0,.007-.014c.148-.2.3-.409.451-.613" transform="translate(-225.445 -162.482)" fill="none"/><path d="M686.648,387.708,691.667,394c-31.181,3.92-49.891,13.3-60.72,21.481H594.126c3.405-16.278,14.953-42.87,32.859-68.454,2.037-2.919,4.159-5.83,6.373-8.707,16.659-21.728,37.9-41.749,62.567-52.817q3.574-1.607,7.254-2.954,2.157,5.023,4.089,10.152a250.717,250.717,0,0,1,10.152,34.114c-9.792,4.667-17.547,16.532-30.145,16.532-15.037,0-48.933,16-53.917,22.411s-14.946,25.006-25.943,26.366.493,7.2.493,7.2c20.437-2.7,25.45,3.553,25.45,3.553Z" transform="translate(-210.865 -137.249)" fill="#1b8780"/><path d="M726.965,400.162q0,5.266-.219,10.483-4.018.011-7.839.113c-8.594.24-16.468.853-23.673,1.763l-5.019-6.288L636.925,421.4s-5.012-6.253-25.45-3.553c0,0-11.5-5.851-.493-7.2s20.959-19.951,25.943-26.366,38.88-22.411,53.917-22.411c12.6,0,20.353-11.865,30.145-16.532A253.065,253.065,0,0,1,726.965,400.162Z" transform="translate(-214.431 -155.774)" fill="#145158"/><path d="M703.187,448.217q-.476,7.032-1.318,13.945v.007a159.552,159.552,0,0,1-10.941,17.357v.007q-5.234,7.233-11.3,14.1c-.014.021-.035.035-.049.056-.881,1-1.769,1.988-2.672,2.975-7.67-2.7-14.2-4.829-14.2-4.829-20.367,19.443-43.554,16.461-66.741,25.414-11.907,9.693-37.886,10.131-59.754,12.831l-36,12.591c8.347-4.039,56.349-24.131,66.2-27.762,13.254-4.885,66.832-21.488,71.845-29.948s33.219-31.71,49.56-35.207A64.7,64.7,0,0,1,703.187,448.217Z" transform="translate(-183.159 -186.119)" fill="#1b8780"/><path d="M676.905,514.925q-4.251,4.642-8.84,9.108-3.395,3.31-6.972,6.528c-45.33,9.686-114.947,30.371-114.947,30.371h-45.93l36-12.591c21.868-2.7,47.847-3.137,59.754-12.831,23.187-8.953,46.374-5.971,66.741-25.415C662.707,510.1,669.235,512.225,676.905,514.925Z" transform="translate(-183.159 -204.381)" fill="#145158"/><path d="M452.786,458.243c16.26-9.431,18.809-16.915,33.423-19.457s34.528-.87,43.37-3.9,10.1-10.809,25.762-4.412,15.266,7.094,19.226,8.312,32.783,1.01,42.5-3.9,30.775-8.824,37.164-6.867,3.918,7.724,9.994,7.41-68.776,22.814-68.776,22.814Z" transform="translate(-169.167 -180.015)" fill="#1e353c"/><path d="M684.526,443.546c-15.933,3.306-46.7,32.556-70.85,44.71a90.148,90.148,0,0,0,9.609-10.864s3.187-6.676,13.43-14.417C645.957,455.982,660.945,448.128,684.526,443.546Z" transform="translate(-216.632 -184.748)" fill="#1b8780"/><path d="M512.515,415.3a3.752,3.752,0,0,0,.395,2.094" transform="translate(-186.788 -176.413)" fill="#0e726f"/><path d="M525.568,379.8c-1.05.479-2.157,1-3.3,1.558q-1.174.571-2.411,1.184a93.883,93.883,0,0,1-14.086-1.621c-1.318-.846-2.129-1.438-2.129-1.438s-.3.275-.839.8c-26.74-6.408-31.795-24.131-31.978-33.557v-.014a12.556,12.556,0,0,0,.233-3.892c3.856,4.216,13.183,11.921,23.462,19.274,1.354.966,2.714,1.925,4.089,2.862a159.2,159.2,0,0,0,20.776,12.429A43.242,43.242,0,0,0,525.568,379.8Z" transform="translate(-174.489 -155.03)" fill="#78c1aa"/><path d="M471.838,414.855l-1.452,1.53c-.36.381-.719.768-1.079,1.149H427.326c7.226-3.821,18.064-11.725,20.789-14.976,4.7-5.6,11.2-4.857,13.081-.632C462.524,404.905,466.914,412.451,471.838,414.855Z" transform="translate(-161.655 -171.475)" fill="#176565"/><path d="M248.346,382.788l.035-.028L273.2,361.476c.12.1.233.2.345.3s.254.226.416.374C286.605,374,265.653,393.687,248.346,382.788Z" transform="translate(-108.853 -160.535)" fill="#1b8780"/><path d="M284.512,362.28a5.088,5.088,0,0,0-.416-.374C284.209,362,284.35,362.132,284.512,362.28Z" transform="translate(-119.4 -160.662)" fill="#359d91"/><path d="M224.436,383.869H184.247a383.331,383.331,0,0,1-28.185-26.331A117.861,117.861,0,0,1,136.795,337.2a.007.007,0,0,1-.007-.007c-2.538-2.623-3.906-3.828-3.835-3.038.338,3.758-6.028,14.227-15.213,24.766-12.492-4.04-28.925-4.329-45.873-3.835h-.042q-3.923.106-7.868.268A250.477,250.477,0,0,1,72.7,311.1c3.363-1.819,6.655-3.6,9.834-5.344.014-.007.035-.021.049-.028v-.007c13.789-7.593,25.238-14.6,28.643-21.276,2.919,15.594,57.238,103.139,69.554,77.816C185.583,368.763,210.858,382.2,224.436,383.869Z" transform="translate(-54.454 -137.81)" fill="#145158"/><path d="M318.074,407.035c-1.276.719-2.552,1.431-3.828,2.122-.1.049-.19.106-.289.155-4.11,2.242-8.164,4.336-11.942,6.169-2.968,1.445-5.767,2.721-8.3,3.786H261.2C275.747,405.421,303.213,401.071,318.074,407.035Z" transform="translate(-112.644 -173.207)" fill="#176565"/><path d="M470.233,574.135A684.35,684.35,0,0,1,356.66,611.654a477.625,477.625,0,0,1-57.2-33.677c12-14.48,38.266-31.012,62.215-42-.627-16.919-67.417-40.889-100.269-48.876a46.022,46.022,0,0,1-4.907-1.5c8.262-13.67,28.446-25.471,40.417-25.859,0-8.164-10.962-4.85-26.275-9.693a.042.042,0,0,1-.028-.007c-12.182-5.682-24.562-15-36.032-24.562h177.86c-3.419,3.645-6.838,7.43-9.919,11.068a101.189,101.189,0,0,0-9.115,12.168c-.007.007-.007.014-.014.021a34.908,34.908,0,0,0-4.984,8.911c30.011,2.03,60.424,14.3,73.247,50.561-19.02,8.587-35.5,14.473-39.824,27.769C429.541,540.5,459.411,561.016,470.233,574.135Z" transform="translate(-104.793 -179.417)" fill="#b5dcbe"/><path d="M530.094,606.533c-12.152-4.415-24.216,2.791-19.359,7.491s17.256,1.41,19.359,2.037,4.9,3.4,11.973,4.073,9.309,2.505,9.309,2.505Z" transform="translate(-185.938 -232.426)" fill="#a3d3b9"/><path d="M402.975,582.216c2.286,1.186-7.253,11-9.272,12.049s-19.147-2.464-19.147-2.464,14.621-7.562,15.875-7.772S402.975,582.216,402.975,582.216Z" transform="translate(-146.087 -225.658)" fill="#a3d3b9"/><path d="M372.063,592.44c5.937-.344,14.4,9.368,10.637,10.936s-18.956,3.446-27.572,6.893c-3.093,1.237-6.612,5.808-9.512,11.513-3.387,6.66.818,9.481-.88,13.345-2.811,6.393-12.262,7.02-12.95,8.146-1.724,2.82-16.079-10.771-16.079-10.771C330.322,613.088,358.818,598.341,372.063,592.44Z" transform="translate(-128.725 -228.672)" fill="#a3d3b9"/><path d="M245.078,582.216h119.7c-23.948,10.991-50.216,27.522-62.215,42C281.377,609.83,262.618,595.216,245.078,582.216Z" transform="translate(-107.889 -225.658)" fill="#e2984c"/><path d="M500.141,582.216c-1.889,3.693,16.493,18.383,18.582,19.08s10.444-2.908,10.444-2.908-17.291-13.732-20.343-14.15A86.769,86.769,0,0,1,500.141,582.216Z" transform="translate(-183.097 -225.658)" fill="#a3d3b9"/><path d="M621.01,582.216c-22.743,14.72-47.614,27.424-72.416,38.161-10.821-13.12-40.692-33.635-48.4-38.161Z" transform="translate(-183.154 -225.658)" fill="#e2984c"/><rect width="105.142" height="1.363" rx="0.681" transform="translate(207.703 376.878)" fill="#fbf9e3" opacity="0.6"/><rect width="62.593" height="1.363" rx="0.681" transform="translate(197.038 389.533)" fill="#fbf9e3" opacity="0.6"/><rect width="76.972" height="1.363" rx="0.681" transform="translate(245.135 405.76)" fill="#fbf9e3" opacity="0.6"/><rect width="31.144" height="1.363" rx="0.681" transform="translate(310.551 361.998)" fill="#fbf9e3" opacity="0.6"/><rect width="31.144" height="1.363" rx="0.681" transform="translate(242.168 348.917)" fill="#fbf9e3" opacity="0.6"/><path d="M307.366,523.853h-119.7c-38.689-28.679-71.443-49.511-111.267-42.736-.014,0-.021.007-.035.007q-3.775.634-7.649,1.621-3.828.962-7.755,2.284a262.16,262.16,0,0,1-9.144-99.861c2.707-.113,5.435-.226,8.164-.331q3.944-.159,7.868-.268h.042c16.948-.493,33.381-.2,45.873,3.835,7.508,2.432,13.592,6.218,17.512,12,2.94,4.343,6.761,10.081,11.273,16.461a290.318,290.318,0,0,0,24.646,30.751c10.73,11.428,22.714,21.347,35,25.859a46.038,46.038,0,0,0,4.907,1.5C239.949,482.965,306.738,506.934,307.366,523.853Z" transform="translate(-50.478 -167.295)" fill="#1e353c"/><path d="M418.522,674.648a243.659,243.659,0,0,1-97.7,21.361,203.732,203.732,0,0,0-22.538-25.168c-34.044-31.675-58.7-25.823-89.194-50.646-34.72-27.783-71.732-42.623-109.053-42.292a250.03,250.03,0,0,1-21.608-48.489q-1.089-3.342-2.08-6.726c94.46-25.746,168.131,127.249,342.148,151.951A.042.042,0,0,0,418.522,674.648Z" transform="translate(-58.11 -207.238)" fill="#359d91"/><path d="M299.151,674.872c-34.044-31.675-58.7-25.823-89.194-50.646-34.72-27.783-71.732-42.623-109.053-42.292A250.025,250.025,0,0,1,79.3,533.446c11.8,7.995,18.7,21.156,34.361,26.169s14.826,13.789,26.211,20.05,35.827,13.162,52.747,17.547,47.466,21.932,55.693,31.964S299.786,666.046,299.151,674.872Z" transform="translate(-58.98 -211.27)" fill="#1b8780"/><path d="M334.584,720.4c-.8.007-1.593.014-2.4.014A244.263,244.263,0,0,1,123,602.456c32.542,1.8,68.468,16.581,99.853,42.13C259.673,674.554,287.985,659.806,334.584,720.4Z" transform="translate(-71.873 -231.629)" fill="#1e353c"/><path d="M331.166,531.656a32.619,32.619,0,0,1,4.681,1.262C338.188,533.834,335.981,533.214,331.166,531.656Z" transform="translate(-133.286 -210.742)" fill="#105a5e"/><path d="M228.033,484.83c-56.244,10.9-98.592-35.327-104.083-47.3v-.007a11.968,11.968,0,0,1,2.7-8.4c2.735-3.335,7.374-5.393,12.986-6.006-.367,4.159,9.849,15.82,23.9,27.91l36.832,19.3a47.558,47.558,0,0,0,26.676,13.981Z" transform="translate(-72.149 -178.72)" fill="#176565"/><path d="M280.793,535.027c-20.691-5.689-49,6.281-64.259-1.361s-75.912-56.969-89.074-79.62a23.269,23.269,0,0,1-3.5-10.49c5.492,11.978,50.089,56.116,95.567,46.747a28.545,28.545,0,0,0,7.057.627c.493-.028.98-.049,1.459-.07,14.544,5.562,32.916,11.858,42,14.8-17.216-3.666-66.1-8.178-60.692-2.023C215.406,510.536,293.941,538.651,280.793,535.027Z" transform="translate(-72.155 -184.75)" fill="#105a5e"/><path d="M146.22,423.113h-.014v-.007Z" transform="translate(-78.72 -178.717)" fill="#105a5e"/><path d="M227.262,484.194c-.479.021-.966.042-1.459.07-27.776,1.389-83.036-32.824-102.624-47.382-10.261-8.869,24.611-25.124,40.269-9.228,0,0,3.807,5.034,9.383,11.914,9.968,12.3,25.612,30.49,35.32,36.349C211.357,477.856,218.64,480.895,227.262,484.194Z" transform="translate(-71.378 -178.084)" fill="#1b8780"/><circle cx="12.864" cy="12.864" r="12.864" transform="translate(26.058 256.393)" fill="#c46a54"/><path d="M105.279,458.381l.977,12.883V504.2H104.3V471.225Z" transform="translate(-66.357 -189.124)" fill="#231f20"/><g transform="translate(396.283 272.113)"><circle cx="9.118" cy="9.118" r="9.118" fill="#c46a54"/><path d="M625.122,475.367l.977,12.883v17.512h-1.954V488.212Z" transform="translate(-616.004 -466.249)" fill="#231f20"/></g><g transform="translate(176.259 301.157)"><circle cx="9.118" cy="9.118" r="9.118" fill="#c46a54"/><path d="M313.023,516.566,314,529.449v17.512h-1.954V529.41Z" transform="translate(-303.905 -507.447)" fill="#231f20"/></g><g transform="translate(434.255 230.937)"><circle cx="9.188" cy="9.188" r="9.188" transform="translate(0.002 0.001)" fill="#c46a54"/><path d="M666.459,413.214a8.992,8.992,0,0,0,.152,1.656c6.7,8.111,18.967.388,14.929-8.705v-.005a9.19,9.19,0,0,0-15.08,7.054Z" transform="translate(-666.459 -404.025)" fill="#f28256"/><path d="M678.962,417.059l-1.273,9.868v19.986h2.546V426.876Z" transform="translate(-669.772 -407.87)" fill="#231f20"/></g><g transform="translate(196.311 316.444)"><circle cx="9.118" cy="9.118" r="9.118" transform="translate(0)" fill="#c46a54"/><path d="M341.467,538.25l.977,12.884v17.512H340.49V551.094Z" transform="translate(-332.349 -529.131)" fill="#231f20"/></g><g transform="translate(353.847 261.929)"><circle cx="9.534" cy="9.534" r="9.534" transform="translate(0.002 0.001)" fill="#c46a54"/><path d="M552.4,457.521a9.373,9.373,0,0,0,.157,1.719c6.949,8.417,19.682.4,15.491-9.034V450.2a9.537,9.537,0,0,0-15.648,7.32Z" transform="translate(-552.403 -447.986)" fill="#f28256"/><path d="M565.626,461.51l-.724,9.548v24.408h1.448V471.029Z" transform="translate(-556.09 -451.976)" fill="#231f20"/></g><g transform="translate(336.037 264.665)"><circle cx="7.411" cy="7.411" r="7.411" transform="translate(0.001 0.001)" fill="#c46a54"/><path d="M527.139,459.279a7.287,7.287,0,0,0,.122,1.337c5.4,6.543,15.3.312,12.042-7.022v0a7.414,7.414,0,0,0-12.164,5.69Z" transform="translate(-527.139 -451.867)" fill="#f28256"/><path d="M537.418,462.38l-.563,7.423v18.974h1.126v-19Z" transform="translate(-530.005 -454.969)" fill="#231f20"/></g><g transform="translate(123.85 240.116)"><circle cx="5.943" cy="5.943" r="5.943" transform="translate(0 0.001)" fill="#c46a54"/><path d="M238.719,422.989a5.861,5.861,0,0,1-.1,1.072c-4.332,5.246-12.269.25-9.657-5.631v0a5.945,5.945,0,0,1,9.754,4.563Z" transform="translate(-226.833 -417.045)" fill="#f28256"/><path d="M234.4,425.476l.451,5.952v15.215h-.9V431.41Z" transform="translate(-228.454 -419.532)" fill="#231f20"/></g><g transform="translate(140.711 249.304)"><circle cx="5.943" cy="5.943" r="5.943" transform="translate(0 0)" fill="#c46a54"/><path d="M262.637,436.022a5.791,5.791,0,0,1-.1,1.072c-4.331,5.247-12.269.251-9.657-5.631v0a5.946,5.946,0,0,1,9.755,4.563Z" transform="translate(-250.75 -430.078)" fill="#f28256"/><path d="M258.315,438.508l.451,5.952v15.215h-.9V444.442Z" transform="translate(-252.372 -432.565)" fill="#231f20"/></g><g transform="translate(158.315 251.621)"><circle cx="5.943" cy="5.943" r="5.943" transform="translate(0 0)" fill="#c46a54"/><path d="M287.608,439.309a5.843,5.843,0,0,1-.1,1.072c-4.331,5.247-12.269.251-9.657-5.631v0a5.945,5.945,0,0,1,9.755,4.563Z" transform="translate(-275.721 -433.365)" fill="#f28256"/><path d="M283.285,441.8l.451,5.952v15.215h-.9V447.73Z" transform="translate(-277.342 -435.852)" fill="#231f20"/></g><g transform="translate(100.59 245.209)"><circle cx="12.864" cy="12.864" r="12.864" transform="translate(0 0.001)" fill="#c46a54"/><path d="M220.356,437.135a12.621,12.621,0,0,1-.212,2.319c-9.376,11.357-26.557.542-20.9-12.189v-.007a12.868,12.868,0,0,1,21.114,9.877Z" transform="translate(-194.626 -424.269)" fill="#f28256"/><path d="M211,442.517l.977,12.883v32.933h-1.954V455.361Z" transform="translate(-198.136 -429.653)" fill="#231f20"/></g><g transform="translate(423.242 266.141)"><circle cx="12.864" cy="12.864" r="12.864" transform="translate(0.002 0.001)" fill="#c46a54"/><path d="M650.838,466.828a12.612,12.612,0,0,0,.211,2.319c9.376,11.357,26.557.543,20.9-12.189v-.007a12.868,12.868,0,0,0-21.114,9.877Z" transform="translate(-650.838 -453.962)" fill="#f28256"/><path d="M668.679,472.211l-.977,12.883v32.933h1.954V485.055Z" transform="translate(-655.813 -459.346)" fill="#231f20"/></g><g transform="translate(499.668 196.549)"><circle cx="12.864" cy="12.864" r="12.864" transform="translate(0.002 0.001)" fill="#c46a54"/><path d="M759.247,368.113a12.621,12.621,0,0,0,.212,2.319c9.376,11.357,26.556.543,20.9-12.189v-.007a12.868,12.868,0,0,0-21.114,9.877Z" transform="translate(-759.247 -355.247)" fill="#f28256"/><path d="M777.089,373.5l-.977,12.883v32.933h1.954V386.34Z" transform="translate(-764.222 -360.631)" fill="#231f20"/></g><g transform="translate(371.791 298.205)"><circle cx="12.864" cy="12.864" r="12.864" transform="translate(0.002 0.001)" fill="#c46a54"/><path d="M577.856,512.31a12.611,12.611,0,0,0,.211,2.319c9.376,11.357,26.557.543,20.9-12.189v-.007a12.868,12.868,0,0,0-21.113,9.877Z" transform="translate(-577.856 -499.444)" fill="#f28256"/><path d="M595.7,517.693l-.977,12.883v32.933h1.954V530.537Z" transform="translate(-582.831 -504.828)" fill="#231f20"/></g><g transform="translate(132.04 313.144)"><circle cx="12.864" cy="12.864" r="12.864" transform="translate(0 0.001)" fill="#c46a54"/><path d="M264.968,533.5a12.614,12.614,0,0,1-.211,2.319c-9.376,11.357-26.557.543-20.9-12.189v-.007a12.868,12.868,0,0,1,21.114,9.877Z" transform="translate(-239.238 -520.634)" fill="#f28256"/><path d="M255.613,538.883l.977,12.883v10.025h-1.954V551.727Z" transform="translate(-242.749 -526.018)" fill="#231f20"/></g><g transform="translate(120.37 297.94)"><circle cx="7.05" cy="7.05" r="7.05" transform="translate(0 0)" fill="#c46a54"/><path d="M236.123,506.118a6.959,6.959,0,0,1-.116,1.271c-5.139,6.224-14.554.3-11.456-6.68v0a7.053,7.053,0,0,1,11.572,5.414Z" transform="translate(-222.023 -499.067)" fill="#f28256"/><path d="M230.811,509.068l.977,7.572v15.336h-1.954V516.6Z" transform="translate(-223.761 -502.017)" fill="#231f20"/></g><g transform="translate(306.385 260.115)"><circle cx="4.262" cy="4.262" r="4.262" transform="translate(0.001 0)" fill="#c46a54"/><path d="M485.079,449.676a4.139,4.139,0,0,0,.07.769c3.106,3.763,8.8.18,6.926-4.039v0a4.265,4.265,0,0,0-7,3.273Z" transform="translate(-485.079 -445.414)" fill="#f28256"/><path d="M490.879,451.46l-.591,4.578v9.272h1.181v-9.3Z" transform="translate(-486.616 -447.198)" fill="#231f20"/></g><g transform="translate(320.599 255.598)"><circle cx="5.325" cy="5.325" r="5.325" transform="translate(0.001 0.001)" fill="#c46a54"/><path d="M505.241,444.333a5.218,5.218,0,0,0,.087.96c3.882,4.7,10.993.225,8.653-5.046v0a5.327,5.327,0,0,0-8.74,4.089Z" transform="translate(-505.241 -439.007)" fill="#f28256"/><path d="M512.487,446.561l-.738,5.719v11.584h1.476V452.251Z" transform="translate(-507.161 -441.236)" fill="#231f20"/></g><g transform="translate(158.775 288.432)"><circle cx="7.05" cy="7.05" r="7.05" transform="translate(0 0.001)" fill="#c46a54"/><path d="M290.6,492.631a6.887,6.887,0,0,1-.116,1.271c-5.139,6.224-14.554.3-11.455-6.68v0a7.052,7.052,0,0,1,11.572,5.413Z" transform="translate(-276.499 -485.58)" fill="#f28256"/><path d="M285.287,495.581l.977,7.572V518.49H284.31V503.114Z" transform="translate(-278.238 -488.531)" fill="#231f20"/></g><g transform="translate(242.854 99.211)"><path d="M399.844,219.825c.125-2.222-2.068-2.994-3.841-2.069a1.79,1.79,0,0,0-1.041,1.455,1.843,1.843,0,0,1,.99-1.544c1.4-.876,3.612-.6,4.143,1.169a3.919,3.919,0,0,1,.159.989Z" transform="translate(-394.961 -217.178)" fill="#03090a"/><path d="M401.887,219.822c.005-2.432,2.383-3.282,4.3-2.158a1.843,1.843,0,0,1,.991,1.544,1.791,1.791,0,0,0-1.041-1.455c-1.774-.926-3.966-.152-3.841,2.069Z" transform="translate(-397.004 -217.174)" fill="#03090a"/></g><g transform="translate(231.688 106.979)"><path d="M383.679,231.42c.7-2.114-1.223-3.427-3.175-2.993a1.79,1.79,0,0,0-1.382,1.136,1.842,1.842,0,0,1,1.356-1.235c1.577-.484,3.644.355,3.7,2.2a3.9,3.9,0,0,1-.1,1l-.4-.106Z" transform="translate(-379.122 -228.194)" fill="#03090a"/><path d="M385.586,231.936c.634-2.348,3.151-2.554,4.714-.971a1.842,1.842,0,0,1,.557,1.748,1.79,1.79,0,0,0-.629-1.675c-1.474-1.353-3.792-1.173-4.246,1l-.4-.106Z" transform="translate(-381.029 -228.71)" fill="#03090a"/></g><g transform="translate(192.734 128.68)"><path d="M330.137,263.061c.711-2.892-1.982-4.448-4.541-3.669a2.4,2.4,0,0,0-1.729,1.657,2.467,2.467,0,0,1,1.683-1.786c2.055-.806,4.9.1,5.16,2.56a5.191,5.191,0,0,1-.035,1.339l-.538-.1Z" transform="translate(-323.867 -258.976)" fill="#03090a"/><path d="M332.761,263.55c.606-3.2,3.942-3.729,6.189-1.777a2.465,2.465,0,0,1,.921,2.274,2.4,2.4,0,0,0-1.01-2.171c-2.105-1.654-5.179-1.177-5.562,1.774l-.538-.1Z" transform="translate(-326.491 -259.465)" fill="#03090a"/></g><g transform="translate(312.761 130.364)"><path d="M500.619,266.873c-.8-2.839-3.877-2.865-5.7-.945a2.373,2.373,0,0,0-.681,2.271,2.444,2.444,0,0,1,.579-2.36c1.377-1.7,4.271-2.3,5.695-.312a5.173,5.173,0,0,1,.623,1.172l-.513.176Z" transform="translate(-494.122 -262.224)" fill="#03090a"/><path d="M503.241,266.013c-1.038-3.05,1.578-5.136,4.466-4.551a2.441,2.441,0,0,1,1.9,1.511,2.375,2.375,0,0,0-1.93-1.378c-2.62-.4-5.036,1.512-3.927,4.242l-.513.176Z" transform="translate(-496.744 -261.364)" fill="#03090a"/></g><g transform="translate(283.008 122.165)"><path d="M456.8,253.132c-.255-2.185-2.521-2.565-4.091-1.365a1.769,1.769,0,0,0-.768,1.593,1.82,1.82,0,0,1,.7-1.671c1.213-1.089,3.416-1.2,4.233.437a3.862,3.862,0,0,1,.321.936l-.4.069Z" transform="translate(-451.919 -250.074)" fill="#03090a"/><path d="M458.827,252.793c-.407-2.369,1.765-3.6,3.824-2.83a1.821,1.821,0,0,1,1.225,1.336,1.771,1.771,0,0,0-1.26-1.241c-1.884-.6-3.889.524-3.391,2.666l-.4.069Z" transform="translate(-453.942 -249.735)" fill="#03090a"/></g><g transform="translate(272.072 112.046)"><path d="M439.588,237.678c-.207-1.418-1.69-1.623-2.69-.812a1.153,1.153,0,0,0-.47,1.052,1.186,1.186,0,0,1,.427-1.1,1.765,1.765,0,0,1,2.764.205,2.524,2.524,0,0,1,.227.6l-.258.053Z" transform="translate(-436.406 -235.637)" fill="#03090a"/><path d="M440.9,237.421c-.309-1.535,1.081-2.376,2.436-1.914a1.189,1.189,0,0,1,.823.847,1.154,1.154,0,0,0-.844-.784c-1.238-.356-2.522.414-2.157,1.8l-.258.053Z" transform="translate(-437.719 -235.38)" fill="#03090a"/></g><path d="M470.816,319.706c0-.169,0-.338.007-.5A2.385,2.385,0,0,1,470.816,319.706Z" transform="translate(-174.486 -148.065)" fill="#f7ad61"/><g transform="translate(178.538 417.914)"><path d="M303.731,669.249c5.233-.14,6.438,7.9,6.718,11.89l-1.712-.03a26.925,26.925,0,0,0-.019-3.528c-.265-3.209-1.034-7.993-4.986-8.333Z" transform="translate(-303.731 -669.247)" fill="#f6c260"/><path d="M317.551,669.249c-3.954.341-4.72,5.122-4.986,8.333a26.925,26.925,0,0,0-.019,3.528l-1.712.03c.279-3.984,1.483-12.03,6.718-11.89Z" transform="translate(-305.826 -669.247)" fill="#f6c260"/></g><g transform="translate(83.879 362.855)"><path d="M169.458,591.15c5.234-.14,6.439,7.9,6.718,11.89l-1.712-.03a26.812,26.812,0,0,0-.02-3.528c-.265-3.21-1.033-7.993-4.986-8.333Z" transform="translate(-169.458 -591.148)" fill="#f6c260"/><path d="M183.279,591.15c-3.954.341-4.721,5.122-4.986,8.333a26.929,26.929,0,0,0-.019,3.528l-1.712.03c.279-3.984,1.483-12.031,6.718-11.89Z" transform="translate(-171.553 -591.148)" fill="#f6c260"/></g><g transform="translate(277.129 454.212)"><path d="M443.58,720.738c5.233-.14,6.438,7.9,6.718,11.889l-1.712-.029a26.924,26.924,0,0,0-.019-3.528c-.265-3.21-1.033-7.993-4.986-8.333Z" transform="translate(-443.58 -720.736)" fill="#f6c260"/><path d="M459.764,724.744c-3.768.4-3.785,6.175-3.612,9.036l-1.712.03c.28-3.087,1.277-9.212,5.324-9.066Z" transform="translate(-446.784 -721.918)" fill="#f6c260"/></g><g transform="translate(243.893 434.244)"><path d="M396.435,692.413c5.233-.14,6.438,7.9,6.718,11.89l-1.712-.029a26.937,26.937,0,0,0-.019-3.528c-.265-3.21-1.033-7.994-4.986-8.334Z" transform="translate(-396.435 -692.411)" fill="#f6c260"/><path d="M412.619,696.42c-3.768.4-3.785,6.174-3.612,9.036l-1.712.029c.28-3.086,1.277-9.211,5.324-9.065Z" transform="translate(-399.639 -693.593)" fill="#f6c260"/></g><g transform="translate(211.499 411.968)"><path d="M366.086,660.815c-5.233-.14-6.439,7.9-6.718,11.89l1.712-.029a26.808,26.808,0,0,1,.019-3.528c.265-3.21,1.033-7.993,4.986-8.333Z" transform="translate(-353.106 -660.813)" fill="#f6c260"/><path d="M350.485,664.821c3.767.4,3.785,6.175,3.611,9.036l1.712.03c-.28-3.087-1.276-9.212-5.323-9.066Z" transform="translate(-350.485 -661.995)" fill="#f6c260"/></g><g transform="translate(60.896 310.498)"><path d="M136.858,516.883c5.234-.14,6.439,7.9,6.718,11.89l-1.712-.029a26.809,26.809,0,0,0-.02-3.528c-.265-3.21-1.033-7.993-4.986-8.333Z" transform="translate(-136.858 -516.881)" fill="#f6c260"/><path d="M153.042,520.889c-3.767.4-3.785,6.175-3.611,9.036l-1.712.03c.28-3.087,1.276-9.212,5.323-9.066Z" transform="translate(-140.062 -518.063)" fill="#f6c260"/><g transform="translate(0.228)"><path d="M152.782,516.883c-5.234-.14-6.439,7.9-6.718,11.89l1.712-.029a26.811,26.811,0,0,1,.02-3.528c.265-3.21,1.033-7.993,4.986-8.333Z" transform="translate(-139.802 -516.881)" fill="#f6c260"/><path d="M137.182,520.889c3.767.4,3.785,6.175,3.611,9.036l1.712.03c-.28-3.087-1.276-9.212-5.323-9.066Z" transform="translate(-137.182 -518.063)" fill="#f6c260"/></g></g><g transform="translate(243.208 364.06)"><g transform="translate(0 4.14)"><path d="M395.673,606.622h-.21c0-5.35,2.877-7.867,2.906-7.892l.137.16C398.477,598.915,395.673,601.374,395.673,606.622Z" transform="translate(-395.463 -598.73)" fill="#f6c260"/></g><g transform="translate(1.717 0)"><rect width="5.114" height="2.493" rx="1.246" transform="translate(0 3.823) rotate(-48.377)" fill="#c66c59"/></g></g><g transform="translate(331.252 378.786)"><g transform="translate(10.51 6.157)"><path d="M535.573,634.213h-.313c0-7.956,4.278-11.7,4.321-11.734l.2.238C539.742,622.752,535.573,626.411,535.573,634.213Z" transform="translate(-535.26 -622.479)" fill="#f6c260"/></g><g transform="translate(13.063 0)"><rect width="7.605" height="3.706" rx="1.853" transform="translate(0 5.685) rotate(-48.377)" fill="#c66c59"/></g><g transform="translate(5.851 6.157)"><path d="M532.862,634.213h.313c0-7.956-4.278-11.7-4.321-11.734l-.2.238C528.693,622.752,532.862,626.411,532.862,634.213Z" transform="translate(-528.651 -622.479)" fill="#f6c260"/></g><g transform="translate(0 0)"><rect width="3.706" height="7.605" rx="1.853" transform="matrix(0.748, -0.664, 0.664, 0.748, 0, 2.462)" fill="#c66c59"/></g></g><g transform="translate(219.398 380.887)"><g transform="translate(5.851 6.157)"><path d="M374.2,637.193h.313c0-7.955-4.278-11.7-4.321-11.734l-.2.238C370.03,625.733,374.2,629.391,374.2,637.193Z" transform="translate(-369.988 -625.459)" fill="#f6c260"/></g><g transform="translate(0 0)"><rect width="3.706" height="7.605" rx="1.853" transform="translate(0 2.462) rotate(-41.623)" fill="#c66c59"/></g></g></g><path d="M252.28,256.98a7.625,7.625,0,0,0-10.565-4.012,7.627,7.627,0,0,0-13.925-2.292,12.729,12.729,0,0,0-15.29-8.3,9.047,9.047,0,0,0-16.568-2.459,19.262,19.262,0,0,0-27.781,5.21,15.884,15.884,0,0,0-24.808,4.6,10.248,10.248,0,0,0-12.664-.09,11.622,11.622,0,0,0-22.07,7.278h-5.767a4.1,4.1,0,1,0,0,8.192H251.55a4.1,4.1,0,0,0,.73-8.128Z" transform="translate(-29.131 -69.473)" fill="#faa15f"/><path d="M240.341,175.033a4.464,4.464,0,0,1-4.463,4.463h-74.66a4.463,4.463,0,1,1,0-8.925H194.5c.591-5.961,7.277-10.653,15.44-10.653,6.935,0,12.8,3.384,14.776,8.059a6.571,6.571,0,0,1,2.026-.312,5.475,5.475,0,0,1,5.126,2.906h4.011a4.467,4.467,0,0,1,4.463,4.463Z" transform="translate(-46.246 -47.179)" fill="#fbf8e1"/><path d="M214.918,168.079a2.632,2.632,0,0,1-.216,1.038h-49.5a8.18,8.18,0,0,1-1.863-5.153c0-4.954,4.6-8.974,10.279-8.974a10.983,10.983,0,0,1,7.53,2.87,9.805,9.805,0,0,1,14.119,4.8,6.975,6.975,0,0,1,12.06,2.382,6.585,6.585,0,0,1,2.577-.505C212.672,164.538,214.918,166.126,214.918,168.079Z" transform="translate(-48.189 -45.725)" fill="#f6ad60"/><path d="M631.593,211.679c-.885-4.353-17.366-10.32-17.366-10.32-8.5-6.742-25.721-7.626-30.4-3.836-3.052,2.469-8.592.83-8.592.83-14.312-11.2-21.364-13.483-30.491,1.244-4.366,7.046-4.978,9.956,1.245,11.616s39.2,2.7,80.272,2.074Z" transform="translate(-159.72 -55.832)" fill="#f99e5e"/><path d="M607.913,216.425a4.125,4.125,0,0,1-4.13,4.13H461.324a4.133,4.133,0,0,1,0-8.265h11.752c1.545-3.416,7.4-5.955,14.4-5.955,5.055,0,9.512,1.325,12.181,3.351a9.2,9.2,0,0,1-.634-3.351c0-5.923,5.693-10.725,12.722-10.725a13.293,13.293,0,0,1,10.981,5.316,4.123,4.123,0,0,1,1.736-.4c2.441,0,4.6,2.3,5.9,5.806.714,1.643,7.584,5.955,13.6,5.955h59.821A4.133,4.133,0,0,1,607.913,216.425Z" transform="translate(-134.88 -57.709)" fill="#f58859"/></g></g></svg>