<svg xmlns="http://www.w3.org/2000/svg" width="68.783" height="73.128" viewBox="0 0 68.783 73.128">
  <g id="Artwork_65" data-name="Artwork 65" transform="translate(34.392 36.564)">
    <g id="Group_5" data-name="Group 5" transform="translate(-34.392 -36.564)">
      <path id="Path_10" data-name="Path 10" d="M70.836,22.5c0,13.765-8.115,23.165-20.711,23.165-5.027,0-4.422-.91-15.747-.91V44.63c1.7,0,2.058-2.91,2.058-13.159V26.138c0-8.746-.527-8.649-2.058-8.649V17.15a80.324,80.324,0,0,0,8.54-.387l.03.241a4.169,4.169,0,0,0-2.273,3.663V31.9c0,11.58,2.483,13.339,10.175,13.339,6.359,0,15.564-5.033,15.564-21.467C66.416,5.639,52.9.423,42.9.423c-37.728,0-29.83,31.5-11.161,31.5h0C3.69,31.919,3.661,0,42.9,0,61.2,0,70.836,9.277,70.836,22.5Z" transform="translate(-9.329)" fill="#1e1c1c"/>
      <path id="Path_11" data-name="Path 11" d="M43.649,85.963a16.017,16.017,0,0,1-3.737,2.2C26.547,93.8,8.112,79.319,25.05,79.319V78.98c-14.556,0-10.071,12.649,2.158,14.447-1.236-.017-2.472.076-3.715.076C12.074,93.5,0,99.694,0,114.266c0,15.194,10.857,20.692,23.764,20.692,23.345,0,22.051-7.892,22.051-27.844v-6.276c-.182-9.021-.441-11.783,2.028-12.866,6.647-2.827,14.088-4.584,20.941-2.119C62.063,80.915,50.176,80.8,43.649,85.963Zm-2.071,21.15c0,18.726-2.081,27.408-17.814,27.408-9.541,0-19.468-4.8-19.468-20.256,0-18.927,20.865-20.457,24.09-20.6v-.106q-.6-.052-1.169-.137c.39.007.781.015,1.169.026v.111a26.493,26.493,0,0,0,12.841-2.471,84,84,0,0,1,.351,9.806Z" transform="translate(0 -61.83)" fill="#1e1c1c"/>
    </g>
  </g>
</svg>
