<?xml version="1.0" encoding="UTF-8"?><svg id="Layer_2" xmlns="http://www.w3.org/2000/svg" viewBox="0 0 841.89 595.28"><defs><style>.cls-1{fill:#282526;}.cls-2{fill:#f8f3de;}.cls-3{opacity:.5;}</style></defs><g id="Layer_1-2"><rect class="cls-1" width="841.89" height="595.28"/><g class="cls-3"><path class="cls-2" d="M769.47,47.65v-.28h1.5c2.58,0,3.2-.75,3.2-2.73v-27.96c0-2.16-.8-2.73-3.2-2.73h-1.5v-.28h13.06v.28h-1.6c-2.44,0-3.1.66-3.1,2.73v27.96c0,1.88.42,2.73,3.1,2.73h1.6v.28h-13.06Z"/><path class="cls-2" d="M658.48,46.97c-2.49,0-3.29-1.46-3.9-3.2l-11.42-30.5h-.99c-2.77,7.57-5.08,13.91-6.72,18.33-4.37,11.8-5.88,14.24-7.71,15.37h-1.32v.28h8.74v-.28h-1.97c-.89-.23-1.74-.8-1.74-2.4s1.36-4.93,2.07-6.86l1.64-4.32.09-.28,5.92-16.26,5.92,16.26.19.28c3.29,9.68,3.85,11.23,3.85,11.94,0,1.6-1.55,1.64-2.44,1.64h-1.5v.28h11.98v-.28h-.71Z"/><path class="cls-2" d="M722.78,41.51c-1.57,3.71-4.65,6.15-10.33,6.15-3.2,0-9.82-1.79-9.82-11v-19.97c0-1.97,1.17-2.73,3.1-2.73h1.69v-.28h-13.25v.28h1.6c2.21,0,3.2.8,3.2,2.73v19.17c0,3.01-.09,12.27,13.44,12.27,5.88,0,9.15-2.57,10.79-6.62h-.41Z"/><path class="cls-2" d="M719.83,13.67v.28h2.73c.56.61,1.65,4.18,1.65,10.25h.39c.19-5.8.48-8.36,1.63-10.25h2.73v-.28h-9.12Z"/><path class="cls-2" d="M667.68,47.37h-.02l.14-.22.07-.14h.01s20.36-32.72,20.36-32.72v-.61h-22.65l-.42,7.33h.28l.42-3.52c1.83-2.77,3.62-3.52,12.36-3.52h5.83l-20.54,33.23v.47h4.01l.15-.28Z"/><path class="cls-2" d="M689.14,39.85l-.71,2.77c-.71,1.55-1.74,3.15-4.61,3.76-1.34.4-2.94.64-4.62.78v.49h8.76c.47-2.4.94-5.36,1.46-7.8h-.28Z"/><path class="cls-2" d="M765.61,44.55c-.05,1.27-.52,2.91-1.88,2.91s-2.16-1.74-2.73-3.01c-.66-1.6-1.6-3.71-2.49-5.4-1.5-2.82-5.08-6.91-10.62-8.32v-.14l1.74.05c6.16,0,11.89-3.2,11.89-9.02,0-3.22-1.46-7.11-8.52-8.17v.83c2.83,1.21,4.48,3.74,4.48,7.57,0,4.89-3.52,8.41-8.98,8.41-1.27,0-2.54-.14-3.81-.28-.99-.09-1.93-.14-2.63-.23v-14.99c0-.88,2.06-1.1,3.2-1.1l.03-.34c-2.18.15-4.44.36-6.38.36h-5.22v.28h1.5c2.26,0,3.2.28,3.2,2.73v27.96c0,1.88-.89,2.73-3.2,2.73h-1.5v.28h13.11v-.28h-1.65c-2.21,0-3.1-.85-3.1-2.73v-14.62c3.85,0,6.63,1.17,9.12,4.28.99,1.22,1.65,2.68,2.3,4.14l.42.99v-.05c2.21,4.79,4.32,8.93,8.18,8.93,3.48,0,3.76-2.4,3.81-3.76h-.28Z"/></g><g class="cls-3"><path class="cls-2" d="M772.86,136.9c2.09-.58,2.56-1.05,3.14-3.14.58,2.09,1.05,2.56,3.14,3.14-2.09.58-2.56,1.05-3.14,3.14-.58-2.09-1.05-2.56-3.14-3.14Z"/><path class="cls-2" d="M769.47,131.77v-.28h1.5c2.58,0,3.2-.75,3.2-2.73v-5.96c0-2.16-.8-2.73-3.2-2.73h-1.5v-.28h13.06v.28h-1.6c-2.44,0-3.1.66-3.1,2.73v5.96c0,1.88.42,2.73,3.1,2.73h1.6v.28h-13.06Z"/><path class="cls-2" d="M769.47,154.02v-.28h1.5c2.58,0,3.2-.75,3.2-2.73v-5.96c0-2.16-.8-2.73-3.2-2.73h-1.5v-.28h13.06v.28h-1.6c-2.44,0-3.1.66-3.1,2.73v5.96c0,1.88.42,2.73,3.1,2.73h1.6v.28h-13.06Z"/><path class="cls-2" d="M658.48,153.09c-2.49,0-3.29-1.46-3.9-3.2l-11.42-30.5h-.99c-2.77,7.57-5.08,13.91-6.72,18.33-4.37,11.8-5.88,14.24-7.71,15.37h-1.32v.28h8.74v-.28h-1.97c-.89-.23-1.74-.8-1.74-2.4s1.36-4.93,2.07-6.86l1.64-4.32.09-.28,5.92-16.26,5.92,16.26.19.28c3.29,9.68,3.85,11.23,3.85,11.94,0,1.6-1.55,1.64-2.44,1.64h-1.5v.28h11.98v-.28h-.71Z"/><path class="cls-2" d="M722.78,147.62c-1.57,3.71-4.65,6.15-10.33,6.15-3.2,0-9.82-1.79-9.82-11v-19.97c0-1.97,1.17-2.73,3.1-2.73h1.69v-.28h-13.25v.28h1.6c2.21,0,3.2.8,3.2,2.73v19.17c0,3.01-.09,12.27,13.44,12.27,5.88,0,9.15-2.57,10.79-6.62h-.41Z"/><path class="cls-2" d="M719.83,119.79v.28h2.73c.56.61,1.65,4.18,1.65,10.25h.39c.19-5.8.48-8.36,1.63-10.25h2.73v-.28h-9.12Z"/><path class="cls-2" d="M667.68,153.49h-.02l.14-.22.07-.14h.01s20.36-32.72,20.36-32.72v-.61h-22.65l-.42,7.33h.28l.42-3.52c1.83-2.77,3.62-3.52,12.36-3.52h5.83l-20.54,33.23v.47h4.01l.15-.28Z"/><path class="cls-2" d="M689.14,145.97l-.71,2.77c-.71,1.55-1.74,3.15-4.61,3.76-1.34.4-2.94.64-4.62.78v.49h8.76c.47-2.4.94-5.36,1.46-7.8h-.28Z"/><path class="cls-2" d="M765.61,150.67c-.05,1.27-.52,2.91-1.88,2.91s-2.16-1.74-2.73-3.01c-.66-1.6-1.6-3.71-2.49-5.4-1.5-2.82-5.08-6.91-10.62-8.32v-.14l1.74.05c6.16,0,11.89-3.2,11.89-9.02,0-3.22-1.46-7.11-8.52-8.17v.83c2.83,1.21,4.48,3.74,4.48,7.57,0,4.89-3.52,8.41-8.98,8.41-1.27,0-2.54-.14-3.81-.28-.99-.09-1.93-.14-2.63-.23v-14.99c0-.88,2.06-1.1,3.2-1.1l.03-.34c-2.18.15-4.44.36-6.38.36h-5.22v.28h1.5c2.26,0,3.2.28,3.2,2.73v27.96c0,1.88-.89,2.73-3.2,2.73h-1.5v.28h13.11v-.28h-1.65c-2.21,0-3.1-.85-3.1-2.73v-14.62c3.85,0,6.63,1.17,9.12,4.28.99,1.22,1.65,2.68,2.3,4.14l.42.99v-.05c2.21,4.79,4.32,8.93,8.18,8.93,3.48,0,3.76-2.4,3.81-3.76h-.28Z"/></g><g class="cls-3"><path class="cls-2" d="M772.86,230.37c2.09-.58,2.56-1.05,3.14-3.14.58,2.09,1.05,2.56,3.14,3.14-2.09.58-2.56,1.05-3.14,3.14-.58-2.09-1.05-2.56-3.14-3.14Z"/><path class="cls-2" d="M769.47,259.29v-.28h1.5c2.58,0,3.2-.75,3.2-2.73v-15.71c0-2.16-.8-2.73-3.2-2.73h-1.5v-.28h13.06v.28h-1.6c-2.44,0-3.1.66-3.1,2.73v15.71c0,1.88.42,2.73,3.1,2.73h1.6v.28h-13.06Z"/><path class="cls-2" d="M658.48,259.21c-2.49,0-3.29-1.46-3.9-3.2l-11.42-30.5h-.99c-2.77,7.57-5.08,13.91-6.72,18.33-4.37,11.8-5.88,14.24-7.71,15.37h-1.32v.28h8.74v-.28h-1.97c-.89-.23-1.74-.8-1.74-2.4s1.36-4.93,2.07-6.86l1.64-4.32.09-.28,5.92-16.26,5.92,16.26.19.28c3.29,9.68,3.85,11.23,3.85,11.94,0,1.6-1.55,1.64-2.44,1.64h-1.5v.28h11.98v-.28h-.71Z"/><path class="cls-2" d="M722.78,253.74c-1.57,3.71-4.65,6.15-10.33,6.15-3.2,0-9.82-1.79-9.82-11v-19.97c0-1.97,1.17-2.73,3.1-2.73h1.69v-.28h-13.25v.28h1.6c2.21,0,3.2.8,3.2,2.73v19.17c0,3.01-.09,12.27,13.44,12.27,5.88,0,9.15-2.57,10.79-6.62h-.41Z"/><path class="cls-2" d="M719.83,225.91v.28h2.73c.56.61,1.65,4.18,1.65,10.25h.39c.19-5.8.48-8.36,1.63-10.25h2.73v-.28h-9.12Z"/><path class="cls-2" d="M667.68,259.61h-.02l.14-.22.07-.14h.01s20.36-32.72,20.36-32.72v-.61h-22.65l-.42,7.33h.28l.42-3.52c1.83-2.77,3.62-3.52,12.36-3.52h5.83l-20.54,33.23v.47h4.01l.15-.28Z"/><path class="cls-2" d="M689.14,252.09l-.71,2.77c-.71,1.55-1.74,3.15-4.61,3.76-1.34.4-2.94.64-4.62.78v.49h8.76c.47-2.4.94-5.36,1.46-7.8h-.28Z"/><path class="cls-2" d="M765.61,256.79c-.05,1.27-.52,2.91-1.88,2.91s-2.16-1.74-2.73-3.01c-.66-1.6-1.6-3.71-2.49-5.4-1.5-2.82-5.08-6.91-10.62-8.32v-.14l1.74.05c6.16,0,11.89-3.2,11.89-9.02,0-3.22-1.46-7.11-8.52-8.17v.83c2.83,1.21,4.48,3.74,4.48,7.57,0,4.89-3.52,8.41-8.98,8.41-1.27,0-2.54-.14-3.81-.28-.99-.09-1.93-.14-2.63-.23v-14.99c0-.88,2.06-1.1,3.2-1.1l.03-.34c-2.18.15-4.44.36-6.38.36h-5.22v.28h1.5c2.26,0,3.2.28,3.2,2.73v27.96c0,1.88-.89,2.73-3.2,2.73h-1.5v.28h13.11v-.28h-1.65c-2.21,0-3.1-.85-3.1-2.73v-14.62c3.85,0,6.63,1.17,9.12,4.28.99,1.22,1.65,2.68,2.3,4.14l.42.99v-.05c2.21,4.79,4.32,8.93,8.18,8.93,3.48,0,3.76-2.4,3.81-3.76h-.28Z"/></g><g class="cls-3"><path class="cls-2" d="M779.14,363.32c-2.09.58-2.56,1.05-3.14,3.14-.58-2.09-1.05-2.56-3.14-3.14,2.09-.58,2.56-1.05,3.14-3.14.58,2.09,1.05,2.56,3.14,3.14Z"/><path class="cls-2" d="M782.53,334.4v.28h-1.5c-2.58,0-3.2.75-3.2,2.73v15.71c0,2.16.8,2.73,3.2,2.73h1.5v.28h-13.06v-.28h1.6c2.44,0,3.1-.66,3.1-2.73v-15.71c0-1.88-.42-2.73-3.1-2.73h-1.6v-.28h13.06Z"/><path class="cls-2" d="M658.48,365.33c-2.49,0-3.29-1.46-3.9-3.2l-11.42-30.5h-.99c-2.77,7.57-5.08,13.91-6.72,18.33-4.37,11.8-5.88,14.24-7.71,15.37h-1.32v.28h8.74v-.28h-1.97c-.89-.23-1.74-.8-1.74-2.4s1.36-4.93,2.07-6.86l1.64-4.32.09-.28,5.92-16.26,5.92,16.26.19.28c3.29,9.68,3.85,11.23,3.85,11.94,0,1.6-1.55,1.64-2.44,1.64h-1.5v.28h11.98v-.28h-.71Z"/><path class="cls-2" d="M722.78,359.86c-1.57,3.71-4.65,6.15-10.33,6.15-3.2,0-9.82-1.79-9.82-11v-19.97c0-1.97,1.17-2.73,3.1-2.73h1.69v-.28h-13.25v.28h1.6c2.21,0,3.2.8,3.2,2.73v19.17c0,3.01-.09,12.27,13.44,12.27,5.88,0,9.15-2.57,10.79-6.62h-.41Z"/><path class="cls-2" d="M719.83,332.03v.28h2.73c.56.61,1.65,4.18,1.65,10.25h.39c.19-5.8.48-8.36,1.63-10.25h2.73v-.28h-9.12Z"/><path class="cls-2" d="M667.68,365.73h-.02l.14-.22.07-.14h.01s20.36-32.72,20.36-32.72v-.61h-22.65l-.42,7.33h.28l.42-3.52c1.83-2.77,3.62-3.52,12.36-3.52h5.83l-20.54,33.23v.47h4.01l.15-.28Z"/><path class="cls-2" d="M689.14,358.21l-.71,2.77c-.71,1.55-1.74,3.15-4.61,3.76-1.34.4-2.94.64-4.62.78v.49h8.76c.47-2.4.94-5.36,1.46-7.8h-.28Z"/><path class="cls-2" d="M765.61,362.91c-.05,1.27-.52,2.91-1.88,2.91s-2.16-1.74-2.73-3.01c-.66-1.6-1.6-3.71-2.49-5.4-1.5-2.82-5.08-6.91-10.62-8.32v-.14l1.74.05c6.16,0,11.89-3.2,11.89-9.02,0-3.22-1.46-7.11-8.52-8.17v.83c2.83,1.21,4.48,3.74,4.48,7.57,0,4.89-3.52,8.41-8.98,8.41-1.27,0-2.54-.14-3.81-.28-.99-.09-1.93-.14-2.63-.23v-14.99c0-.88,2.06-1.1,3.2-1.1l.03-.34c-2.18.15-4.44.36-6.38.36h-5.22v.28h1.5c2.26,0,3.2.28,3.2,2.73v27.96c0,1.88-.89,2.73-3.2,2.73h-1.5v.28h13.11v-.28h-1.65c-2.21,0-3.1-.85-3.1-2.73v-14.62c3.85,0,6.63,1.17,9.12,4.28.99,1.22,1.65,2.68,2.3,4.14l.42.99v-.05c2.21,4.79,4.32,8.93,8.18,8.93,3.48,0,3.76-2.4,3.81-3.76h-.28Z"/></g><g class="cls-3"><path class="cls-2" d="M643.86,458.4c-2.09.58-2.56,1.05-3.14,3.14-.58-2.09-1.05-2.56-3.14-3.14,2.09-.58,2.56-1.05,3.14-3.14.58,2.09,1.05,2.56,3.14,3.14Z"/><path class="cls-2" d="M782.53,446.22v.28h-1.5c-2.58,0-3.2.75-3.2,2.73v12.29c0,2.16.8,2.73,3.2,2.73h1.5v.28h-13.06v-.28h1.6c2.44,0,3.1-.66,3.1-2.73v-12.29c0-1.88-.42-2.73-3.1-2.73h-1.6v-.28h13.06Z"/><path class="cls-2" d="M658.48,471.44c-2.49,0-3.29-1.46-3.9-3.2l-11.42-30.5h-.99c-2.77,7.57-5.08,13.91-6.72,18.33-4.37,11.8-5.88,14.24-7.71,15.37h-1.32v.28h8.74v-.28h-1.97c-.89-.23-1.74-.8-1.74-2.4s1.36-4.93,2.07-6.86l1.64-4.32.09-.28,5.92-16.26,5.92,16.26.19.28c3.29,9.68,3.85,11.23,3.85,11.94,0,1.6-1.55,1.64-2.44,1.64h-1.5v.28h11.98v-.28h-.71Z"/><path class="cls-2" d="M722.78,465.98c-1.57,3.71-4.65,6.15-10.33,6.15-3.2,0-9.82-1.79-9.82-11v-19.97c0-1.97,1.17-2.73,3.1-2.73h1.69v-.28h-13.25v.28h1.6c2.21,0,3.2.8,3.2,2.73v19.17c0,3.01-.09,12.27,13.44,12.27,5.88,0,9.15-2.57,10.79-6.62h-.41Z"/><path class="cls-2" d="M719.83,438.15v.28h2.73c.56.61,1.65,4.18,1.65,10.25h.39c.19-5.8.48-8.36,1.63-10.25h2.73v-.28h-9.12Z"/><path class="cls-2" d="M667.68,471.84h-.02l.14-.22.07-.14h.01s20.36-32.72,20.36-32.72v-.61h-22.65l-.42,7.33h.28l.42-3.52c1.83-2.77,3.62-3.52,12.36-3.52h5.83l-20.54,33.23v.47h4.01l.15-.28Z"/><path class="cls-2" d="M689.14,464.32l-.71,2.77c-.71,1.55-1.74,3.15-4.61,3.76-1.34.4-2.94.64-4.62.78v.49h8.76c.47-2.4.94-5.36,1.46-7.8h-.28Z"/><path class="cls-2" d="M765.61,469.02c-.05,1.27-.52,2.91-1.88,2.91s-2.16-1.74-2.73-3.01c-.66-1.6-1.6-3.71-2.49-5.4-1.5-2.82-5.08-6.91-10.62-8.32v-.14l1.74.05c6.16,0,11.89-3.2,11.89-9.02,0-3.22-1.46-7.11-8.52-8.17v.83c2.83,1.21,4.48,3.74,4.48,7.57,0,4.89-3.52,8.41-8.98,8.41-1.27,0-2.54-.14-3.81-.28-.99-.09-1.93-.14-2.63-.23v-14.99c0-.88,2.06-1.1,3.2-1.1l.03-.34c-2.18.15-4.44.36-6.38.36h-5.22v.28h1.5c2.26,0,3.2.28,3.2,2.73v27.96c0,1.88-.89,2.73-3.2,2.73h-1.5v.28h13.11v-.28h-1.65c-2.21,0-3.1-.85-3.1-2.73v-14.62c3.85,0,6.63,1.17,9.12,4.28.99,1.22,1.65,2.68,2.3,4.14l.42.99v-.05c2.21,4.79,4.32,8.93,8.18,8.93,3.48,0,3.76-2.4,3.81-3.76h-.28Z"/><rect class="cls-2" x="769.47" y="444.02" width="13.06" height=".28"/><rect class="cls-2" x="769.47" y="466.45" width="13.06" height=".28"/></g><g class="cls-3"><path class="cls-2" d="M642.17,566.29c-3.27.25-3.47.46-3.73,3.73-.25-3.27-.46-3.47-3.73-3.73,3.27-.25,3.47-.46,3.73-3.73.25,3.27.46,3.47,3.73,3.73Z"/><path class="cls-2" d="M767.22,556.24v-.28h1.5c2.58,0,3.2-.75,3.2-2.73v-5.96c0-2.16-.8-2.73-3.2-2.73h-1.5v-.28h13.06v.28h-1.6c-2.44,0-3.1.66-3.1,2.73v5.96c0,1.88.42,2.73,3.1,2.73h1.6v.28h-13.06Z"/><path class="cls-2" d="M767.22,578.49v-.28h1.5c2.58,0,3.2-.75,3.2-2.73v-5.96c0-2.16-.8-2.73-3.2-2.73h-1.5v-.28h13.06v.28h-1.6c-2.44,0-3.1.66-3.1,2.73v5.96c0,1.88.42,2.73,3.1,2.73h1.6v.28h-13.06Z"/><path class="cls-2" d="M656.24,577.56c-2.49,0-3.29-1.46-3.9-3.2l-11.42-30.5h-.99c-2.77,7.57-5.08,13.91-6.72,18.33-4.37,11.8-5.88,14.24-7.71,15.37h-1.32v.28h8.74v-.28h-1.97c-.89-.23-1.74-.8-1.74-2.4s1.36-4.93,2.07-6.86l1.64-4.32.09-.28,5.92-16.26,5.92,16.26.19.28c3.29,9.68,3.85,11.23,3.85,11.94,0,1.6-1.55,1.64-2.44,1.64h-1.5v.28h11.98v-.28h-.71Z"/><path class="cls-2" d="M720.54,572.1c-1.57,3.71-4.65,6.15-10.33,6.15-3.2,0-9.82-1.79-9.82-11v-19.97c0-1.97,1.17-2.73,3.1-2.73h1.69v-.28h-13.25v.28h1.6c2.21,0,3.2.8,3.2,2.73v19.17c0,3.01-.09,12.27,13.44,12.27,5.88,0,9.15-2.57,10.79-6.62h-.41Z"/><path class="cls-2" d="M717.59,544.27v.28h2.73c.56.61,1.65,4.18,1.65,10.25h.39c.19-5.8.48-8.36,1.63-10.25h2.73v-.28h-9.12Z"/><path class="cls-2" d="M665.44,577.96h-.02l.14-.22.07-.14h.01s20.36-32.72,20.36-32.72v-.61h-22.65l-.42,7.33h.28l.42-3.52c1.83-2.77,3.62-3.52,12.36-3.52h5.83l-20.54,33.23v.47h4.01l.15-.28Z"/><path class="cls-2" d="M686.9,570.44l-.71,2.77c-.71,1.55-1.74,3.15-4.61,3.76-1.34.4-2.94.64-4.62.78v.49h8.76c.47-2.4.94-5.36,1.46-7.8h-.28Z"/><path class="cls-2" d="M763.36,575.14c-.05,1.27-.52,2.91-1.88,2.91s-2.16-1.74-2.73-3.01c-.66-1.6-1.6-3.71-2.49-5.4-1.5-2.82-5.08-6.91-10.62-8.32v-.14l1.74.05c6.16,0,11.89-3.2,11.89-9.02,0-3.22-1.46-7.11-8.52-8.17v.83c2.83,1.21,4.48,3.74,4.48,7.57,0,4.89-3.52,8.41-8.98,8.41-1.27,0-2.54-.14-3.81-.28-.99-.09-1.93-.14-2.63-.23v-14.99c0-.88,2.06-1.1,3.2-1.1l.03-.34c-2.18.15-4.44.36-6.38.36h-5.22v.28h1.5c2.26,0,3.2.28,3.2,2.73v27.96c0,1.88-.89,2.73-3.2,2.73h-1.5v.28h13.11v-.28h-1.65c-2.21,0-3.1-.85-3.1-2.73v-14.62c3.85,0,6.63,1.17,9.12,4.28.99,1.22,1.65,2.68,2.3,4.14l.42.99v-.05c2.21,4.79,4.32,8.93,8.18,8.93,3.48,0,3.76-2.4,3.81-3.76h-.28Z"/><path class="cls-2" d="M767.28,556.24c-5.87.12-.82,1.39,1.39,1.94,2.49.65,4.95,1.42,7.37,2.3,1.28.48,11.81,4.35,7.93,5.98-1.27.39-2.58.29-3.86.33,0,0,0-.28,0-.28,1.27,0,2.59.17,3.81-.19,1.84-.55-.07-2.02-.92-2.54-4.39-2.68-9.41-4.18-14.35-5.54-.69-.32-5.08-.76-4.28-1.8.89-.51,1.93-.43,2.91-.47,0,0,0,.27,0,.27h0Z"/></g><g class="cls-3"><path class="cls-2" d="M372.67,129.63c.55-1.48,1.32-2.93,1.32-4.63v-.67c-.22-3.2-1.87-3.89-2.36-3.99-.49-.09-1.1-.14-1.1-.14-.33-.08-.38-.19-.38-.5,0-.16.11-.25.55-.27.44-.02,2.03.11,2.8.17,1.54.12,3.08.24,4.61.36,6.76.49,7.64,1.52,10.44,7.68,3.24,7.08,3.96,14.22,9.73,20.59,1.37,1.51,2.53,2.11,2.53,4.21,0,1.68-.88,2.74-3.13,2.87-3.9.22-7.81.45-11.71.71-5.33.39-6.7-6.61-7.25-9.73-.71-.03-1.37,0-1.98.01-1.26.04-2.47.13-3.84.18-3.46.11-6.75.81-6.75,4.6,0,1.22.17,2.44.17,3.71,0,1.59-.6,2.86-2.25,3.01-3.57.31-5.16.47-5.16-2.84.05-7.97,9.71-14.84,13.78-25.34ZM373.16,143.69c2.14-.05,4.28-.09,5.22-.26,0-.35,0-.71,0-1.06,0-5.53-1.92-13.22-3.52-15.16-1.32,4.97-1.92,5.03-6.97,16.55.93.03,3.13-.02,5.27-.07Z"/><path class="cls-2" d="M426.34,122.87c-4.73-.14-8.8,2.63-11.45,5.44-1.71,1.84-3.19,3.93-5.78,5.12-.33.13-.71.35-1.05.35-.33,0-.55-.24-.55-1.01,0-2.29,1.32-4.35,1.32-6.62,0-1.32-.5-2.61-1.21-3.83,0-.5.88-.6,1.82-.55,7.15.32,14.31.54,22.62.73,2.15.05,4.29.09,6.44.13,2.15.04,2.81,1.97,2.81,3.6,0,3.65-2.53,6.69-16.29,18.12-1.16.93-3.36,3.08-3.36,4.67,0,1.33,1.49,2.43,3.19,2.39,7.54-.18,5.5-9.16,13.6-9.19,3.3-.01,3.96,1.01,3.96,2.51,0,1.11-.39,2.53-.39,3.94,0,.98.27,1.92.27,2.91,0,1.16-1.05,2.41-2.7,2.44-3.01.05-6.02.11-9.03.18-7.7.2-8.2.07-10.68-1.46-1.54.67-2.09,1.84-4.18,1.92-1.8.07-3.59.14-5.39.22-2.31-.03-3.52-2.31-3.52-2.31-.44-.9-.66-1.85-.66-2.86,0-2.8,1.6-5.82,3.52-8.05,1.76-2.45,9.3-7.12,12.88-9.21.24-.13.48-.26.72-.39,2.7-1.55,7.43-3.65,7.43-6.6,0-2.12-2.15-2.52-4.35-2.59Z"/><path class="cls-2" d="M449.68,144.1c0-4.99,4.85-10.05,4.85-15.7-.17-1.74-.55-3.87-3.08-4.65-.27-.09-.55-.13-2.59-.14-.39,0-.5-.17-.5-.3,0-.21.06-.43.33-.42,1.98.03,10.74.04,14.53-.04.61.08,2.42,2.45,2.7,2.84,1.32,1.65,1.76,3.79,1.76,6.05,0,4.78-1.98,10.33-1.98,13.91,0,2.3.83,3.8,3.52,3.82,6.55.08,9.03-7.91,9.03-12.28,0-2.59-.5-5.91-1.49-8.78-.6-1.72-1.43-3.47-3.25-4.47-1.05-.54-1.71-.36-2.53-.52-.11-.08-.11-.43-.11-.47,0-.13.44-.18,1.16-.19,1.6-.02,4.57-.03,7.1-.09.77-.02,1.43-.07,2.31-.1.66-.02,1.43.27,1.43.57,0,.04,0,.09-.05.13-.06.04-.11.05-2.42.1-.77.02-2.37.65-2.7,2.3,0,.06,0,.11,0,.17,0,1.93,3.91,9.36,3.91,14.45,0,1.69-.28,3.38-.94,4.98-2.15,5.31-7.76,9.01-14.64,8.94-11.84-.09-16.35-2.05-16.35-10.11Z"/><path class="cls-2" d="M487.84,147.63c0-5.88,6.55-12.09,6.55-18.21,0-2.04-.28-5.06-3.03-6.03-.55-.2-3.58.15-3.52-.55,0-.31.39-.36.88-.38,6.27-.19,12.6-.53,20.03-.9,1.87-.09,3.25-.17,4.68-.15,5.01-.05,13.41,2.01,13.85,9.95v.34c0,3.99-4.67,5.11-8.52,6.49,3.85,1.46,8.14,4.14,8.41,7.99.11,1.67.99,2.93,1.76,3.66,1.21,1.14,1.32,2.34,1.32,3.19-.05,3.18-3.9,3.05-8.02,2.8-2.58-.16-4.84-.58-6.6-.86-.11,0-.28-.06-.39-.07-3.08-.5-4.29-3.61-4.29-6.16,0-1.76.71-3.74.71-5.61,0-3.08-3.02-4.84-5.39-4.83-.22,0-.44,0-.71.09-.77,1.78-.88,3.6-.88,5.47,0,2.64,1.38,5.09,1.38,7.8,0,3.12-.71,3.25-7.26,2.98-.99-.04-2.04-.03-3.03-.07-.88-.03-1.87-.11-2.81-.23-1.98-.2-3.63-1.7-4.35-3.12-.66-1.07-.77-2.43-.77-3.57ZM508.91,136.54c1.6,0,2.75-.85,3.19-2.35.22-.75.33-1.64.33-2.62,0-3.61-2.31-8.11-6.65-7.91-.07,0-.15,0-.22,0-.38.02-.94.09-.93.45,1.32,2.73,1.65,4.47,1.65,6.3,0,1.56-.22,3.25-.28,5.72.77.27,2.2.4,2.92.4Z"/><path class="cls-2" d="M535.3,148.05c.99-10.21,5.93-13.12,5.93-21.78,0-1.82-.49-4.38-2.96-4.21-.82.06-1.32.34-2.03.39-.27.02-.38-.08-.38-.58,0-.71,2.47-1.45,3.74-1.55,1.04-.08,2.03.1,3.07.02,1.37-.11,2.31-1.24,3.46-1.34,3.13-.31,5.54,7.25,5.98,9.28.22.97.33,2.06.33,3.1,0,1.53-.11,3.11-.16,4.81v.44c0,4.84,1.76,7.84,1.76,12.08,0,5.82-3.57,9.38-10.38,8.77-4.5-.4-8.35-3.32-8.35-9.42Z"/></g><g class="cls-3"><path class="cls-2" d="M372.67,234.82c.55-1.69,1.32-3.4,1.32-5.32,0-.25,0-.5,0-.75-.22-3.59-1.87-4.11-2.36-4.14-.49-.03-1.1.01-1.1.01-.33-.04-.38-.15-.38-.49,0-.17.11-.29.55-.38.44-.09,2.03-.2,2.8-.25,1.54-.1,3.08-.2,4.62-.3,6.76-.41,7.64.65,10.44,8.02,3.24,8.62,3.96,17.59,9.73,26.29,1.37,2.07,2.53,2.98,2.53,5.77,0,2.23-.88,3.56-3.13,3.46-3.9-.18-7.81-.38-11.71-.59-5.33-.33-6.71-8.71-7.26-12.35-.71-.08-1.37-.09-1.98-.11-1.26-.03-2.47,0-3.85-.05-3.46-.09-6.76.43-6.76,4.43,0,1.3.17,2.61.17,3.96,0,1.7-.6,2.95-2.25,2.83-3.57-.26-5.16-.39-5.16-3.69.05-7.77,9.72-14.15,13.79-26.37ZM373.17,250.53c2.14.04,4.29.08,5.22-.08v-1.23c0-6.48-1.92-15.3-3.52-17.31-1.32,5.64-1.92,6.09-6.98,18.47.93.07,3.13.12,5.27.16Z"/><path class="cls-2" d="M426.35,221.71c-4.73.12-8.8,4.46-11.44,8.57-1.71,2.7-3.19,5.7-5.78,7.43-.33.19-.71.51-1.05.51-.33,0-.55-.31-.55-1.37,0-3.14,1.32-6.05,1.32-9.2,0-1.82-.5-3.57-1.21-5.18,0-.69.88-.91,1.81-.95,7.15-.27,14.3-.55,22.61-.71,2.15-.04,4.29-.08,6.44-.11,2.15-.03,2.81,2.89,2.81,5.37,0,5.43-2.53,10.56-16.29,27.24-1.16,1.34-3.36,4.39-3.36,6.69,0,1.92,1.49,3.62,3.19,3.66,7.54.15,5.5-13.34,13.59-13.31,3.3.01,3.96,1.57,3.96,3.86,0,1.69-.39,3.84-.39,5.99,0,1.5.27,2.93.27,4.43,0,1.76-1.04,3.64-2.7,3.62-3.01-.04-6.02-.09-9.03-.15-7.7-.17-8.2-.46-10.67-2.82-1.54.86-2.09,2.5-4.18,2.43-1.8-.06-3.59-.12-5.39-.18-2.31-.28-3.52-3.52-3.52-3.52-.44-1.27-.66-2.59-.66-3.97,0-3.82,1.6-7.86,3.52-10.93,1.76-3.3,9.3-9.99,12.87-13.19.24-.19.48-.39.72-.59,2.7-2.34,7.43-5.63,7.43-10.03,0-3.17-2.15-3.64-4.35-3.59Z"/><path class="cls-2" d="M449.68,253.32c0-7.64,4.84-15.42,4.84-24.12-.17-2.68-.55-5.95-3.08-7.12-.27-.13-.55-.19-2.59-.18-.39,0-.5-.26-.5-.46,0-.33.06-.65.33-.66,1.98-.02,10.73-.04,14.53-.07.6.13,2.42,3.8,2.7,4.39,1.32,2.55,1.76,5.82,1.76,9.28,0,7.3-1.98,15.79-1.98,21.28,0,3.53.82,5.81,3.52,5.79,6.55-.06,9.02-12.16,9.02-18.7,0-3.89-.5-8.89-1.49-13.25-.6-2.6-1.43-5.28-3.25-6.86-1.05-.86-1.71-.61-2.53-.88-.11-.13-.11-.65-.11-.72,0-.2.44-.26,1.16-.25,1.59.02,4.57.13,7.1.17.77.01,1.43-.04,2.31-.02.66.01,1.43.48,1.43.93,0,.07,0,.13-.05.19-.06.06-.11.06-2.42.02-.77-.01-2.37.86-2.7,3.33,0,.09,0,.17,0,.26,0,2.93,3.91,14.17,3.91,21.73,0,2.52-.28,5.05-.94,7.45-2.15,7.97-7.76,13.87-14.64,13.92-11.83.08-16.35-3.13-16.35-15.47Z"/><path class="cls-2" d="M487.83,258.14c0-8.71,6.55-17.75,6.55-26.46,0-2.94-.28-7.28-3.03-8.89-.55-.34-3.58-.03-3.52-1.05,0-.45.38-.5.88-.49,6.27.16,12.6.24,20.02.55,1.87.08,3.25.14,4.68.33,5,.55,13.42,4.28,13.86,13.89v.42c0,4.84-4.67,6.13-8.52,7.9,3.85,1.91,8.14,5.12,8.41,9.78.11,2.04.99,3.51,1.76,4.31,1.21,1.27,1.32,2.69,1.32,3.7-.05,3.8-3.9,4.21-8.03,4.42-2.58.13-4.84-.13-6.6-.29-.11,0-.28-.05-.39-.04-3.08-.29-4.29-4.35-4.29-7.77,0-2.36.71-5.05.71-7.53,0-4.09-3.02-6.45-5.39-6.46-.22,0-.44,0-.71.13-.77,2.45-.88,4.97-.88,7.54,0,3.65,1.38,6.95,1.38,10.64,0,4.26-.71,4.55-7.26,4.78-.99.03-2.04.13-3.03.16-.88.03-1.87,0-2.81-.11-1.98-.13-3.63-2.21-4.35-4.25-.66-1.53-.77-3.52-.77-5.19ZM508.9,242.08c1.59,0,2.75-1.11,3.19-3.09.22-.99.33-2.16.33-3.47,0-4.76-2.31-10.98-6.65-11.15-.07,0-.15,0-.22,0-.38-.01-.93.03-.93.53,1.32,3.88,1.65,6.26,1.65,8.77,0,2.13-.22,4.45-.28,7.83.77.38,2.2.58,2.92.58Z"/><path class="cls-2" d="M535.29,255.77c.99-11.96,5.93-15.08,5.93-24.6,0-2.01-.49-4.92-2.97-5.06-.82-.05-1.32.22-2.03.18-.28-.02-.38-.14-.38-.72,0-.82,2.47-1.31,3.74-1.23,1.04.07,2.03.42,3.08.49,1.37.09,2.31-.99,3.46-.9,3.13.26,5.55,8.38,5.99,10.42.22,1.01.33,2.12.33,3.17,0,1.55-.11,3.15-.16,4.87v.44c0,4.94,1.76,7.89,1.76,12.11,0,5.74-3.57,9.93-10.38,10.44-4.5.33-8.35-2.47-8.35-9.59Z"/></g><g class="cls-3"><path class="cls-2" d="M372.69,343.43c.55-1.54,1.32-3.05,1.32-4.87v-.71c-.22-3.43-1.87-4.21-2.36-4.32-.49-.11-1.1-.18-1.1-.18-.33-.09-.38-.21-.38-.54,0-.16.11-.26.55-.27.44,0,2.04.17,2.8.25,1.54.16,3.08.3,4.62.42,6.76.51,7.64,1.54,10.45,8.49,3.24,8.03,3.96,16.22,9.73,23.92,1.37,1.82,2.53,2.59,2.53,5.06,0,1.98-.88,3.2-3.13,3.18-3.9-.03-7.81-.13-11.71-.33-5.33-.28-6.71-8.19-7.26-11.63-.71-.11-1.38-.17-1.98-.22-1.26-.11-2.47-.17-3.85-.32-3.46-.36-6.76-.21-6.76,3.69,0,1.26.17,2.55.17,3.87,0,1.65-.61,2.84-2.26,2.59-3.57-.53-5.17-.84-5.17-4.13.06-7.79,9.73-12.88,13.8-23.98ZM373.18,358.44c2.14.22,4.29.41,5.22.31,0-.38,0-.77,0-1.15,0-6.05-1.92-14.51-3.52-16.64-1.32,5.19-1.92,5.45-6.98,16.82.94.18,3.14.45,5.28.67Z"/><path class="cls-2" d="M426.37,333.66c-4.73.3-8.8,4.12-11.44,7.74-1.71,2.38-3.19,5.02-5.77,6.57-.33.17-.71.46-1.04.46-.33,0-.55-.26-.55-1.2,0-2.75,1.32-5.31,1.32-8.06,0-1.59-.5-3.12-1.21-4.54,0-.6.88-.79,1.81-.81,7.15-.19,14.3-.62,22.6-1.21,2.14-.15,4.29-.31,6.43-.48,2.14-.17,2.8,2.25,2.8,4.34,0,4.59-2.53,9.08-16.28,24.27-1.16,1.23-3.35,3.99-3.35,5.97,0,1.65,1.48,3,3.19,2.9,7.53-.48,5.5-11.78,13.58-12.39,3.3-.26,3.96,1,3.96,2.93,0,1.43-.38,3.28-.38,5.09,0,1.26.27,2.45.27,3.72,0,1.49-1.04,3.17-2.69,3.3-3.01.24-6.01.47-9.02.67-7.7.51-8.19.28-10.67-1.56-1.54.85-2.09,2.3-4.18,2.39-1.8.08-3.59.14-5.39.19-2.31-.1-3.52-2.89-3.52-2.88-.44-1.09-.66-2.24-.66-3.45,0-3.35,1.59-6.96,3.52-9.7,1.76-2.94,9.29-9.01,12.87-11.93.24-.18.48-.36.71-.54,2.69-2.13,7.42-5.2,7.42-8.94,0-2.69-2.15-2.99-4.35-2.85Z"/><path class="cls-2" d="M449.69,358.76c0-6.43,4.84-13.4,4.84-20.71-.17-2.24-.55-4.96-3.08-5.73-.27-.09-.55-.12-2.58.06-.38.03-.5-.18-.5-.34,0-.27.06-.55.33-.58,1.98-.17,10.72-.93,14.52-1.32.6.06,2.42,2.98,2.69,3.45,1.32,2.03,1.76,4.75,1.76,7.66,0,6.16-1.98,13.48-1.98,18.09,0,2.97.82,4.82,3.52,4.6,6.54-.54,9.02-10.94,9.02-16.5,0-3.3-.5-7.5-1.49-11.11-.6-2.15-1.43-4.35-3.24-5.52-1.05-.63-1.7-.36-2.53-.51-.11-.1-.11-.54-.11-.6,0-.16.44-.26,1.16-.31,1.59-.13,4.56-.31,7.09-.49.77-.06,1.43-.16,2.31-.22.66-.05,1.43.29,1.43.67,0,.06,0,.11-.05.17-.06.06-.11.06-2.42.22-.77.05-2.36.94-2.69,3.06,0,.07,0,.15,0,.22,0,2.47,3.9,11.7,3.9,18.14,0,2.14-.28,4.31-.94,6.39-2.14,6.91-7.75,12.23-14.63,12.81-11.82,1.02-16.33-1.22-16.33-11.62Z"/><path class="cls-2" d="M487.81,359.95c0-7.44,6.54-15.55,6.54-23.07,0-2.53-.28-6.26-3.02-7.43-.55-.25-3.57.26-3.52-.62,0-.38.38-.46.88-.49,6.27-.36,12.59-.76,20.02-.86,1.87-.02,3.24-.03,4.67.09,5,.24,13.42,3.54,13.86,12.45v.39c0,4.45-4.67,5.43-8.52,6.96,3.85,1.77,8.14,4.95,8.41,9.25.11,1.87.99,3.29,1.76,4.11,1.21,1.28,1.32,2.61,1.32,3.54-.05,3.51-3.9,3.43-8.03,3.31-2.59-.08-4.84-.45-6.6-.68-.11,0-.28-.06-.39-.06-3.08-.4-4.29-4.02-4.29-7.04,0-2.09.72-4.46.71-6.66,0-3.63-3.02-5.71-5.39-5.66-.22,0-.44,0-.71.12-.77,2.16-.88,4.36-.88,6.62,0,3.19,1.38,6.07,1.37,9.32,0,3.75-.71,3.94-7.26,4.17-.99.04-2.04.14-3.03.18-.88.04-1.87.03-2.8-.03-1.98-.06-3.63-1.78-4.34-3.5-.66-1.28-.77-2.98-.77-4.41ZM508.87,345.35c1.59-.02,2.75-1.01,3.19-2.77.22-.88.33-1.93.33-3.08,0-4.23-2.31-9.69-6.65-9.61-.07,0-.15,0-.22,0-.38,0-.93.08-.93.52,1.32,3.32,1.65,5.41,1.65,7.61,0,1.87-.22,3.91-.28,6.88.77.31,2.2.46,2.92.45Z"/><path class="cls-2" d="M535.27,358.91c.99-11.1,5.94-13.63,5.94-22.74,0-1.92-.49-4.74-2.97-4.98-.83-.08-1.32.15-2.04.09-.28-.02-.38-.14-.38-.69,0-.77,2.47-1.16,3.74-1.02,1.04.11,2.03.49,3.08.61,1.37.16,2.31-.82,3.46-.67,3.13.42,5.55,8.69,5.99,10.79.22,1.03.33,2.14.33,3.19,0,1.54-.11,3.12-.16,4.81,0,.15,0,.29,0,.44,0,4.89,1.76,8.16,1.76,12.4,0,5.79-3.58,8.99-10.39,8.14-4.51-.55-8.36-3.71-8.36-10.37Z"/></g><path class="cls-2" d="M372.69,449.62c.55-1.71,1.32-3.47,1.32-5.62,0-.28,0-.56,0-.85-.22-4.1-1.87-4.92-2.36-4.98-.5-.08-1.1-.08-1.1-.08-.33-.07-.38-.2-.38-.6,0-.2.11-.33.55-.39.44-.07,2.04-.06,2.8-.06,1.54,0,3.08,0,4.62,0,6.76-.09,7.64,1.64,10.45,10.24,3.24,9.85,3.96,18.15,9.73,24.07,1.37,1.39,2.53,1.97,2.53,3.66,0,1.33-.88,2.04-3.13,2.04-3.9,0-7.81-.01-11.71-.02-5.34.17-6.71-5.62-7.26-8.82-.71-.11-1.37-.16-1.98-.22-1.26-.11-2.47-.18-3.85-.33-3.46-.38-6.76-.26-6.76,3.34,0,1.15.17,2.3.17,3.46,0,1.45-.61,2.52-2.26,2.52-3.57-.03-5.17-.03-5.17-3.35.06-8.25,9.73-11.93,13.8-24.01ZM373.18,464.97c2.14.26,4.29.47,5.22.4,0-.35,0-.71,0-1.07,0-5.51-1.92-15.05-3.52-17.54-1.32,5.82-1.92,6.54-6.98,17.45.94.19,3.13.5,5.28.76Z"/><path class="cls-2" d="M426.37,437.69c-4.73-.01-8.8,4.87-11.44,9.27-1.71,2.89-3.19,5.94-5.77,7.66-.33.19-.71.51-1.04.52-.33,0-.55-.28-.55-1.34,0-3.12,1.32-6.21,1.32-9.74,0-2.05-.5-4.1-1.21-6.07,0-.83.88-1.07,1.81-1.07,7.15,0,14.3-.08,22.6-.08h6.43c2.14.02,2.8,2.87,2.8,5.21,0,4.8-2.53,10.67-16.28,25.12-1.15,1.12-3.35,3.49-3.35,5.03,0,1.3,1.48,2.31,3.19,2.27,7.53.07,5.5-9.79,13.58-10.76,3.3-.31,3.96.9,3.96,2.72,0,1.35-.38,3.06-.38,4.69,0,1.14.27,2.2.27,3.31,0,1.31-1.04,2.68-2.69,2.68-3.01.01-6.01.02-9.02.03-7.7.02-8.19-.13-10.67-1.48-1.54.57-2.09,1.52-4.18,1.52-1.8,0-3.59,0-5.39,0-2.31-.08-3.52-1.88-3.52-1.9-.44-.73-.66-1.54-.66-2.43,0-2.45,1.6-5.51,3.52-8.09,1.76-2.63,9.29-9.04,12.87-12.37.24-.2.48-.4.71-.6,2.69-2.41,7.42-5.8,7.42-10.28,0-3.26-2.15-3.85-4.35-3.83Z"/><path class="cls-2" d="M449.69,465.03c0-6.26,4.84-13.45,4.84-20.81-.16-2.28-.55-5.04-3.08-6.05-.27-.11-.55-.17-2.58-.14-.38,0-.5-.23-.5-.41,0-.3.06-.6.33-.6,1.98,0,10.72-.02,14.52-.08.6.12,2.42,2.91,2.69,3.35,1.32,1.92,1.76,4.4,1.76,7.17,0,5.81-1.98,13.29-1.98,18.12,0,3.1.82,5.12,3.52,4.98,6.54-.34,9.02-12.05,9.02-17.32,0-3.26-.5-7.12-1.49-10.24-.6-1.88-1.43-3.71-3.24-4.79-1.04-.58-1.7-.4-2.53-.57-.11-.09-.11-.47-.11-.52,0-.14.44-.19,1.16-.19,1.59,0,4.56.04,7.09.03.77,0,1.43-.04,2.31-.04.66,0,1.43.28,1.43.57,0,.04,0,.08-.05.12-.06.04-.11.04-2.42.06-.77,0-2.36.61-2.69,2.34,0,.06,0,.12,0,.18,0,1.99,3.9,9.95,3.9,16.71,0,2.2-.28,4.53-.94,6.82-2.14,7.73-7.75,13.84-14.63,13.69-11.82-.16-16.33-2.44-16.33-12.39Z"/><path class="cls-2" d="M487.81,466.54c0-8.69,6.54-17.04,6.54-23.07,0-2.09-.28-4.75-3.02-5.62-.55-.19-3.58.07-3.52-.55,0-.27.38-.31.88-.31,6.27-.01,12.59-.09,20.02-.09,1.87,0,3.24,0,4.67.07,5.01.27,13.42,1.55,13.86,9.09v.33c0,3.91-4.68,4.91-8.52,6.38,3.85,1.79,8.14,5.04,8.41,9.99.11,2.16.99,3.88,1.76,4.85,1.21,1.52,1.32,3.17,1.32,4.36-.05,4.49-3.9,4.8-8.03,4.77-2.58,0-4.84-.46-6.6-.77-.11,0-.28-.08-.39-.08-3.08-.56-4.29-5.52-4.29-9.23,0-2.6.71-5.39.71-7.83,0-4.02-3.02-5.98-5.39-5.94-.22,0-.44.01-.71.13-.77,2.16-.88,4.49-.88,7.03,0,3.6,1.38,7.11,1.37,11.35,0,4.95-.71,5.37-7.26,5.35-.99,0-2.04.08-3.03.08-.88,0-1.87-.07-2.8-.21-1.98-.22-3.63-2.58-4.34-4.73-.66-1.62-.77-3.67-.77-5.34ZM508.87,450.8c1.59-.02,2.75-.99,3.19-2.58.22-.79.33-1.71.33-2.68,0-3.64-2.31-7.21-6.65-7.16-.07,0-.15,0-.22,0-.38,0-.93.04-.93.33,1.32,2.24,1.65,3.85,1.65,5.62,0,1.53-.22,3.24-.28,6.04.77.29,2.2.42,2.92.41Z"/><path class="cls-2" d="M535.27,465.32c.99-12.42,5.94-14.29,5.94-22.46,0-1.67-.49-3.93-2.97-3.98-.83-.02-1.32.17-2.04.15-.28,0-.38-.09-.38-.51,0-.57,2.47-.98,3.74-.97,1.04.01,2.03.24,3.08.26,1.37.03,2.31-.87,3.46-.88,3.13-.2,5.55,7.42,5.99,9.61.22,1,.33,2.11.33,3.14,0,1.52-.11,3.08-.16,4.77,0,.15,0,.29,0,.44,0,4.89,1.76,8.25,1.76,12.47,0,5.63-3.58,9.47-10.39,9.61-4.51.11-8.36-3.85-8.36-11.65Z"/><g class="cls-3"><path class="cls-2" d="M372.59,551.52c.55-1.68,1.31-3.4,1.31-5.22v-.71c-.22-3.38-1.86-3.71-2.35-3.69-.49.03-1.09.13-1.09.13-.33,0-.38-.1-.38-.43,0-.16.11-.29.55-.42.44-.13,2.02-.39,2.79-.51,1.53-.25,3.06-.49,4.6-.72,6.74-1.01,7.62-.05,10.42,6.38,3.24,7.5,3.95,15.53,9.72,22.51,1.37,1.66,2.53,2.31,2.53,4.78,0,1.98-.88,3.28-3.13,3.54-3.9.44-7.8.93-11.7,1.47-5.32.74-6.69-6.79-7.24-10.12-.71.05-1.37.15-1.97.25-1.26.19-2.46.44-3.83.66-3.45.56-6.72,1.74-6.72,5.65,0,1.26.17,2.5.16,3.82,0,1.65-.6,3.02-2.24,3.31-3.55.64-5.13.95-5.13-2.35.05-7.9,9.65-16.26,13.71-28.33ZM373.08,566.4c2.13-.35,4.27-.68,5.2-.98,0-.38,0-.77,0-1.15,0-6.05-1.92-14.06-3.5-15.79-1.31,5.55-1.92,5.9-6.94,18.75.93-.11,3.11-.48,5.25-.82Z"/><path class="cls-2" d="M426.25,535.37c-4.74.27-8.82,4.21-11.47,7.94-1.71,2.45-3.2,5.16-5.78,6.88-.33.2-.72.51-1.05.54-.33.03-.55-.22-.55-1.16,0-2.75,1.32-5.4,1.32-8.15,0-1.59-.5-3.09-1.21-4.45,0-.6.88-.85,1.82-.94,7.16-.65,14.33-1.22,22.66-1.62,2.15-.1,4.31-.19,6.46-.26,2.15-.07,2.82,2.39,2.82,4.47,0,4.66-2.54,8.76-16.34,23.83-1.16,1.22-3.36,4.01-3.36,5.99,0,1.65,1.49,2.98,3.2,2.88,7.56-.42,5.52-11.77,13.63-12.09,3.31-.11,3.98,1.2,3.98,3.12,0,1.43-.39,3.25-.39,5.07,0,1.27.28,2.47.28,3.73,0,1.49-1.05,3.11-2.71,3.16-3.02.1-6.04.22-9.05.37-7.72.41-8.22.26-10.7-1.56-1.54.88-2.1,2.35-4.19,2.51-1.8.14-3.6.29-5.4.45-2.31.04-3.52-2.64-3.52-2.64-.44-1.06-.66-2.19-.66-3.4,0-3.35,1.6-7.09,3.52-9.95,1.76-3.09,9.31-9.48,12.9-12.39.24-.18.48-.36.72-.54,2.7-2.16,7.45-5.16,7.45-8.89,0-2.69-2.15-3.03-4.36-2.9Z"/><path class="cls-2" d="M449.66,561.43c0-6.44,4.86-13.03,4.86-20.33-.17-2.25-.55-5.01-3.09-5.97-.28-.11-.55-.16-2.6-.13-.39,0-.5-.21-.5-.38,0-.27.06-.55.33-.55,1.99-.05,10.77-.09,14.58-.07.61.12,2.43,3.23,2.71,3.73,1.33,2.17,1.77,4.93,1.77,7.84,0,6.16-1.99,13.27-1.99,17.89,0,2.97.83,4.9,3.53,4.97,6.57.17,9.05-9.92,9.05-15.48,0-3.3-.5-7.56-1.49-11.28-.61-2.22-1.44-4.51-3.26-5.89-1.05-.75-1.71-.55-2.54-.79-.11-.11-.11-.55-.11-.61,0-.16.44-.21,1.16-.19,1.6.05,4.58.2,7.12.32.77.03,1.43,0,2.32.05.66.03,1.43.46,1.43.84,0,.06,0,.11-.05.16-.06.05-.11.05-2.43-.06-.77-.04-2.37.66-2.7,2.74v.22c0,2.47,3.92,12.16,3.92,18.6,0,2.14-.28,4.28-.94,6.28-2.15,6.66-7.78,11.3-14.69,11.18-11.88-.19-16.41-2.66-16.41-13.08Z"/><path class="cls-2" d="M487.93,566.57c0-7.44,6.56-14.75,6.56-22.27,0-2.53-.28-6.29-3.03-7.8-.55-.32-3.59-.18-3.53-1.05,0-.38.39-.42.88-.39,6.29.39,12.63.78,20.06,1.53,1.87.19,3.25.34,4.68.6,5.01.8,13.4,4.88,13.84,13.81v.39c0,4.45-4.66,5.02-8.51,6.16,3.85,2.17,8.13,5.72,8.4,10.05.11,1.88.99,3.38,1.75,4.26,1.21,1.38,1.32,2.72,1.32,3.65-.05,3.51-3.89,3.12-8.01,2.6-2.58-.33-4.83-.93-6.59-1.35-.11-.01-.28-.09-.39-.1-3.08-.73-4.29-4.48-4.29-7.51,0-2.09.72-4.38.71-6.58,0-3.63-3.02-6.04-5.39-6.27-.22-.02-.44-.04-.72.04-.77,2.07-.88,4.26-.88,6.52,0,3.19,1.38,6.23,1.38,9.48,0,3.75-.71,3.86-7.27,3.31-.99-.08-2.04-.11-3.03-.18-.88-.07-1.87-.19-2.81-.37-1.98-.3-3.64-2.22-4.36-4.03-.66-1.36-.77-3.07-.77-4.5ZM509.04,554.48c1.6.16,2.75-.7,3.19-2.42.22-.86.33-1.89.33-3.04,0-4.23-2.31-9.94-6.66-10.36-.07,0-.15-.01-.22-.02-.39-.04-.94-.03-.94.41,1.32,3.48,1.65,5.6,1.65,7.8,0,1.87-.22,3.88-.28,6.85.77.4,2.2.71,2.92.78Z"/><path class="cls-2" d="M535.39,570.54c.99-11.02,5.91-13.25,5.91-22.38,0-1.92-.49-4.76-2.95-5.15-.82-.13-1.31.07-2.03-.04-.27-.04-.38-.17-.38-.72,0-.77,2.46-.99,3.72-.79,1.04.17,2.02.6,3.06.78,1.37.23,2.29-.71,3.44-.51,3.11.54,5.51,8.86,5.95,10.97.22,1.03.33,2.15.33,3.2,0,1.54-.11,3.11-.16,4.81,0,.15,0,.29,0,.44,0,4.89,1.74,8.19,1.74,12.43,0,5.78-3.54,8.98-10.32,7.82-4.48-.76-8.31-4.2-8.31-10.86Z"/></g><g class="cls-3"><path class="cls-2" d="M398.32,43.7c-5.78-7.64-6.49-15.78-9.73-23.7-2.8-6.82-3.68-7.86-10.45-7.86h-4.62c-.77,0-2.36,0-2.8.06-.44.05-.55.17-.55.33,0,.33.05.44.38.5,0,0,.6,0,1.1.06.49.05,2.14.66,2.36,4.07v.71c0,1.81-.77,3.41-1.32,5-4.07,11.44-13.75,18.04-13.8,25.9,0,3.3,1.59,3.3,5.17,3.3,1.65,0,2.26-1.26,2.26-2.91,0-12.84,7.26-23.65,8.58-28.98,1.59,1.98,3.52,10.28,3.52,16.33.13,4.25,2.24,15.45,7.59,15.45h11.71c2.25,0,3.13-1.21,3.13-3.19,0-2.47-1.16-3.24-2.53-5.06Z"/><path class="cls-2" d="M426.37,12.63c-4.73,0-8.8,3.63-11.44,7.15-1.71,2.31-3.19,4.89-5.77,6.38-.33.17-.71.44-1.04.44s-.55-.27-.55-1.21c0-2.75,1.32-5.28,1.32-8.03,0-1.59-.5-3.13-1.21-4.56,0-.6.88-.77,1.81-.77,7.15,0,14.3-.06,22.6-.06h6.43c2.14,0,2.8,2.47,2.8,4.56,0,4.62-2.53,8.8-16.28,23.1-1.16,1.16-3.35,3.79-3.35,5.77,0,1.65,1.48,3.08,3.19,3.08,7.53,0,5.5-11.44,13.58-11.44,3.3,0,3.96,1.32,3.96,3.24,0,1.43-.38,3.25-.38,5.06,0,1.26.27,2.47.27,3.74,0,1.49-1.04,3.08-2.69,3.08h-9.02c-7.7,0-8.19-.22-10.67-2.2-1.54.77-2.09,2.2-4.18,2.2h-5.39c-2.31-.17-3.52-2.97-3.52-2.97-.44-1.1-.66-2.25-.66-3.46,0-3.35,1.59-6.93,3.52-9.62,1.76-2.91,9.29-8.69,12.87-11.38l.71-.5c2.69-1.98,7.42-4.73,7.42-8.47,0-2.69-2.15-3.13-4.35-3.13Z"/><path class="cls-2" d="M449.69,39.52c0-6.43,4.84-12.98,4.84-20.29-.17-2.25-.55-5-3.08-6-.27-.11-.55-.16-2.58-.16-.38,0-.5-.22-.5-.39,0-.27.06-.55.33-.55,1.98,0,10.72,0,14.52-.05.6.11,2.42,3.19,2.69,3.68,1.32,2.14,1.76,4.89,1.76,7.81,0,6.16-1.98,13.31-1.98,17.93,0,2.97.82,4.89,3.52,4.89,6.54,0,9.02-10.23,9.02-15.78,0-3.3-.5-7.53-1.49-11.22-.6-2.2-1.43-4.46-3.24-5.77-1.04-.71-1.71-.5-2.53-.71-.11-.11-.11-.55-.11-.61,0-.17.44-.22,1.16-.22,1.59,0,4.56.05,7.09.05.77,0,1.43-.05,2.31-.05.66,0,1.43.38,1.43.77,0,.06,0,.11-.05.17s-.11.06-2.42.06c-.77,0-2.36.77-2.69,2.86v.22c0,2.47,3.9,11.99,3.9,18.42,0,2.14-.28,4.29-.94,6.32-2.14,6.76-7.75,11.66-14.63,11.66-11.82,0-16.33-2.64-16.33-13.03Z"/><path class="cls-2" d="M487.81,43.75c0-7.42,6.54-15.18,6.54-22.71,0-2.53-.28-6.27-3.02-7.59-.55-.28-3.58.05-3.52-.83,0-.38.38-.44.88-.44,6.27,0,12.59-.11,20.02-.11,1.87,0,3.25,0,4.67.11,5,.27,13.42,3.24,13.86,12.1v.39c0,4.45-4.67,5.66-8.52,7.26,3.85,1.7,8.14,4.67,8.41,8.96.11,1.87.99,3.24,1.76,4.01,1.21,1.21,1.32,2.53,1.32,3.46-.05,3.52-3.9,3.68-8.03,3.68-2.58,0-4.84-.33-6.6-.55-.11,0-.28-.05-.39-.05-3.08-.38-4.29-4.01-4.29-7.04,0-2.09.71-4.46.71-6.65,0-3.63-3.02-5.72-5.39-5.72-.22,0-.44,0-.71.11-.77,2.14-.88,4.34-.88,6.6,0,3.19,1.38,6.1,1.38,9.35,0,3.74-.71,3.96-7.26,3.96-.99,0-2.04.05-3.03.05-.88,0-1.87-.05-2.8-.17-1.98-.16-3.63-1.98-4.34-3.74-.66-1.32-.77-3.02-.77-4.45ZM508.87,29.95c1.59,0,2.75-.99,3.19-2.75.22-.88.33-1.92.33-3.08,0-4.23-2.31-9.68-6.65-9.68h-.22c-.38,0-.93.06-.93.5,1.32,3.35,1.65,5.44,1.65,7.64,0,1.87-.22,3.9-.28,6.87.77.33,2.2.5,2.92.5Z"/><path class="cls-2" d="M535.27,42.65c.99-11.16,5.94-14.19,5.94-23.32,0-1.92-.49-4.67-2.97-4.67-.83,0-1.32.27-2.04.27-.28,0-.38-.11-.38-.66,0-.77,2.47-1.37,3.74-1.37,1.04,0,2.03.27,3.08.27,1.37,0,2.31-1.1,3.46-1.1,3.13,0,5.55,7.86,5.99,9.9.22.99.33,2.09.33,3.13,0,1.54-.11,3.13-.16,4.84v.44c0,4.89,1.76,7.86,1.76,12.1,0,5.77-3.58,9.68-10.39,9.68-4.51,0-8.36-2.86-8.36-9.51Z"/></g><g class="cls-3"><path class="cls-2" d="M133.95,578.54v.35h-17.23v-.35c2.03,0,3.38-1.3,3.38-2.97,0-.3-.02-.43-.19-.88l-2.43-6.13h-10.14l-.51,1.21c-.26.61-.41,2.23-.41,3.65,0,2.68,1.83,5.12,4.51,5.12v.35h-12.26v-.35c3.34,0,6.33-5.58,7.85-9.38l5.56-13.94-1.19-2.91c2.06-1.91,3.65-4.39,4.66-7.08h.52s5.66,13.79,5.66,13.79l6.12,14.9c.96,2.38,2.84,4.61,6.08,4.61ZM117.32,568.06l-1.67-4.12-3.29-8.1v.02s-4.85,12.2-4.85,12.2h9.81Z"/><path class="cls-2" d="M164.22,567.89h.35l-3.85,11h-26.76l21.29-33.2h-2.48c-6.64,0-10.1,3.62-16.02,9.63h-.3l4.31-10.09h24.12l-21.34,33.25h3.09c7.55,0,11.93-4.01,17.59-10.59Z"/><path class="cls-2" d="M201.07,545.28v.41c-2.99,0-5.42,2.73-5.42,7.04v15.44c0,2.78-.66,5.37-2.28,7.59-1.97,2.73-5.52,4.45-11.54,4.45-6.73,0-13.67-4.2-13.67-10.53v-20.02c0-2.38-2.38-4.02-4.51-4.02v-.35h16.6v.35c-2.13,0-4.5,1.64-4.5,4.02v18.4c0,8.05,4,11.09,10.33,11.09,2.78,0,5.37-1.52,7.04-4,1.32-1.92,2.02-4.46,2.02-7.24v-15.19c0-4.3-3.29-7.04-5.42-7.04v-.4h11.34Z"/><path class="cls-2" d="M233.87,575.99c0,.09-.04.17-.11.2-.22.17-.46.35-.72.55-.12.08-.24.17-.36.25-.32.23-.67.46-1.03.68-.17.11-.34.21-.52.32-1.49.88-3.18,1.64-4.63,1.64-3.04,0-4.94-1.65-6.25-4.54l-4.24-10.26c-.76-1.04-1.84-1.88-3.58-1.91h-.71v11.55c0,2.38,2.38,4.06,4.51,4.06v.35h-16.62v-.35c2.13,0,4.51-1.68,4.51-4.06v-24.82c0-2.38-2.38-4.12-4.51-4.12v-.3h12.21c1.37,0,3.35-.05,5.48-.05,5.22,0,9.98,3.95,9.98,8.97,0,4.41-2.64,7.65-7.86,8.57,0,0,0,0,.02,0,.17.05.34.11.51.18h0s1.01.51,1.01.51c1.38.79,3.38,2.44,4.81,5.67.08.18.15.35.23.54.03.08.06.15.09.23l1.36,3.29c.05.11.09.23.15.34.68,1.57,1.65,3.23,2.79,3.62.89.3,1.63-.27,2.28-.69.17-.1.32-.23.49-.36l.31-.24h0s.09-.05.14-.05c.13,0,.24.11.24.24ZM220.24,554.11c0-3.65-1.83-8.52-5.27-8.52-1.27,0-2.1.04-3.24.04v16.79h2.08c4.92-.05,6.44-3.3,6.44-8.31Z"/><path class="cls-2" d="M244.53,549.66v24.82c0,2.38,2.38,4.01,4.51,4.01v.41h-16.62v-.41c2.13,0,4.51-1.63,4.51-4.01v-24.82c0-2.38-2.38-4.06-4.51-4.06v-.35h16.62v.35c-2.13,0-4.51,1.68-4.51,4.06Z"/></g><g class="cls-3"><path class="cls-2" d="M146.26,52.22v.99h-15.67v-.99h.99c1.15-1.81,1.59-6.65,1.59-7.92s0-1.65-.22-3.13h-5.72c-.22,1.04-.22,2.25-.22,3.02,0,2.25.6,6.1,1.59,8.03h.99v.99h-10.01v-.99h.99c4.78-6.32,8.14-25.35,12.26-40.25h2.2c1.43,11.22,4.78,29.81,10.34,40.25h.88ZM132.85,39.96c-.11-2.31-1.92-10.67-2.53-13.53h-.11c-.71,2.75-2.58,11.44-2.8,13.53h5.44Z"/><path class="cls-2" d="M167.41,25.03c-4.35,6.31-7.55,17.21-7.55,25.52,0,1.04,0,1.96.77,1.96.69,0,.92-.77.92-2.73,0-3.35,1-6.78,5.39-7.85.15-.04.19.08.15.15-.85,1.66-.85,3.2-.85,4.35,0,1.96.31,4.89,1.31,6.7,0,.04,0,.08-.08.08h-17.05v-.69h.65c4.81-8.01,6.97-21.48,6.97-25.83,0-1.04-.39-1.66-1.16-1.66-.92,0-1,1-1,2.96,0,2.89-1.5,7.7-5.39,7.7-.04,0-.12-.08-.08-.15.77-1.5,1.12-3.27,1.12-4.43,0-2.12-.31-5-1.12-6.62-.04-.08-.04-.15,0-.15h17.52v.69h-.54Z"/><path class="cls-2" d="M186.2,36.93c0-3.16-1.31-9.39-2.31-11.9h-.81v-.69h7.39v.69h-.62c-2,4.43-2.69,9.74-2.69,11.9v8.58c0,2.35-.23,7.85-5.08,7.85-2,0-7.85-.23-7.85-7.39v-10.36c0-3.81-1.08-7.85-2.5-10.59h-.77v-.69h11.51v.69h-.62c-1.85,2.81-2.08,12.86-2.08,14.4,0,10.28.15,12.86,3.23,12.86,2.04,0,3.2-2.19,3.2-6.78v-8.58Z"/><path class="cls-2" d="M200.95,41.16c0,6.12,2.04,10.16,2.66,11.36h.85v.69h-11.36v-.69h.54c.77-1.73,2.19-6.54,2.19-14.71,0-7.54-1.66-11.59-2.19-12.78h-.54v-.69h12.32c2.23,0,6.66.77,6.66,7.31,0,3.89-1.92,6.31-5.58,7.12v.08c4.04,1.27,5.43,3,5.43,10.01,0,1.23.08,2.16.81,2.16.38,0,.85-.31.92-.85,0,0,0-.08.08-.08h.31c.08,0,.08.08.08.15,0,.58-.23,3.12-4.27,3.12-3.5,0-4.43-2.43-4.43-4.58,0-1.19.46-2.42.46-4.62s-.39-4.89-3.27-4.89h-1.66v1.89ZM201.91,38.5c3.31,0,3.81-2.89,3.81-6.93,0-3.12-.42-6.54-2.5-6.54-2.23,0-2.27,8.82-2.27,11.51v1.96h.96Z"/><path class="cls-2" d="M228.13,25.03h-.54c-.31.62-2.73,5.62-2.73,12.78,0,7.93,2.04,13.36,2.73,14.71h.54v.69h-11.74v-.69h.54c.69-1.35,2.73-6.78,2.73-14.71,0-7.16-2.43-12.24-2.73-12.78h-.54v-.69h11.74v.69Z"/></g><g class="cls-3"><path class="cls-2" d="M108.66,124.26c.55-1.59,1.32-3.19,1.32-5v-.71c-.22-3.41-1.87-4.01-2.36-4.07-.5-.06-1.1-.06-1.1-.06-.33-.05-.38-.17-.38-.5,0-.16.11-.27.55-.33.44-.06,2.03-.06,2.8-.06h4.62c6.76,0,7.64,1.04,10.45,7.86,3.24,7.92,3.96,16.06,9.73,23.7,1.37,1.81,2.53,2.58,2.53,5.06,0,1.98-.88,3.19-3.13,3.19h-11.71c-5.33,0-6.71-7.75-7.26-11.16-.71-.05-1.38-.05-1.98-.05-1.27,0-2.47.05-3.85.05-3.46,0-6.76.6-6.76,4.51,0,1.26.17,2.53.17,3.85,0,1.65-.6,2.91-2.25,2.91-3.57,0-5.17,0-5.17-3.3.06-7.86,9.73-14.46,13.8-25.9ZM109.15,139.22c2.14,0,4.29,0,5.22-.17v-1.15c0-6.05-1.92-14.35-3.52-16.33-1.32,5.33-1.92,5.61-6.98,17.6.94.05,3.13.05,5.28.05Z"/><path class="cls-2" d="M149.03,153.19c-5.39-.11-7.26-3.52-7.26-7.09,0-2.58.99-5.22,2.42-6.65,1.48-1.87,4.12-3.35,6.1-4.45,2.92-1.59,6.32-2.97,9.02-5.11.77-.66,1.15-1.59,1.15-2.58,0-1.59-1.04-3.19-3.02-3.19-1.87,0-3.79,1.38-5,2.53-3.57,2.8-5.55,5.06-7.09,6.49-.99.93-1.87,1.65-2.47,1.65-.44,0-.71-.44-.71-1.49,0-.22,0-.49.05-.82.11-1.1,1.81-6.76,1.81-7.92,0-.33-.06-.66-.06-.94,0-.38.11-.66.77-.66,2.53-.06,5.11-.06,7.64-.06,5.06,0,9.95.06,14.35.06,2.15,0,2.31,3.85,2.31,5.44,0,3.02-2.69,7.2-5.17,9.02-6.05,4.45-9.95,8.14-9.95,9.84,0,1.38.88,2.03,2.14,2.03,1.1,0,2.14-.88,2.69-1.76l4.07-6.6c.55-.93,1.98-2.42,3.19-2.42,2.47,0,3.24,1.38,3.24,3.63,0,1.1-.38,2.14-.38,3.24,0,1.43.38,2.8.38,4.23,0,3.41-3.24,4.01-6.49,4.01-1.59,0-3.19-.17-4.4-.17-.99-.05-1.92-.27-2.86-.66-.5-.22-1.87-1.21-2.36-1.21-1.27.88-2.58,1.6-4.12,1.6Z"/><path class="cls-2" d="M174.22,146.98c0-1.76.72-2.86,4.01-12.37.44-1.32.77-2.86.77-4.34,0-2.53-.94-5-3.68-6.05-.44-.22-1.1,0-1.1-.61,0-.27.17-.6.6-.6h6.87c.77,0,2.31,1.92,2.69,2.42,2.75,3.9,3.41,8.19,3.41,13.25,0,1.65-.06,4.18-.33,11.16,4.23-1.37,7.42-9.18,7.42-14.52s-1.48-11.22-6.54-11.22h-1.21c-.49,0-.71-.22-.77-.71,0-.5.77-.5,1.65-.5h.94c2.14,0,4.4-.05,6.49.06,3.96.17,7.42,6.05,8.47,9.9.33,1.38.5,2.42.5,3.57,0,1.43-.22,3.13-.5,5.83-.06.22-.06.5-.06.71,0,1.59.6,2.2.6,4.56v.33c-.05,2.14-.6,3.19-.82,3.46-1.54,2.14-4.34,2.14-6.71,2.14h-.5c-5.33,0-5.55-2.64-6.05-3.3-2.75,1.87-5.22,3.3-8.63,3.3-4.07,0-7.09-.66-7.48-5.44-.06-.38-.06-.71-.06-1.04Z"/><path class="cls-2" d="M209.42,148.02c0-.6,0-1.32.11-2.09.27-2.53,1.81-4.51,2.8-6.65,1.21-2.58,2.03-5.5,2.03-8.36,0-2.09-.22-4.12-1.81-5.94-.82-.93-2.8-.93-2.8-1.92,0-.22.06-.22.6-.22,0,0,.55.05.94.05h4.56c2.36,0,4.07,1.49,5.55,3.46,1.98-1.65,5.17-3.13,7.86-3.13,3.24,0,6.54,2.25,6.54,5.83,0,1.49-.22,4.01-2.2,4.01-1.32,0-2.36-.93-3.68-.93-.77,0-1.38.27-2.15.27-1.54,0-1.92-.93-1.92-2.42,0-.61.11-1.16.11-1.71,0-.88-.71-1.98-1.87-1.98-.88,0-2.36,1.32-2.42,1.38.82,1.92,1.32,4.29,1.32,6.38,0,2.47-.66,4.89-.66,7.48,0,2.2.94,4.23.94,6.43,0,2.42-1.98,5.44-6.65,5.44-5.28-.06-7.2-1.38-7.2-5.39Z"/><path class="cls-2" d="M240,123.77c-.22-.05-.33,0-.33-.55,0-.27.27-.33.38-.33h5.88c.66,0,.93,0,1.1.17,3.35,3.03,5,6.1,5,10.56v2.92c0,1.92-.11,3.85-.11,5.72,0,2.15.94,3.91.94,5.99,0,2.7-1.54,4.95-4.45,4.95h-5.39c-2.15,0-3.02-2.2-3.02-4.56,0-8.14,3.9-10.72,4.12-18.2,0-2.47-.5-5.94-4.12-6.65ZM245.33,113.38c2.31,0,3.9,2.04,3.9,4.18,0,1.16-.6,2.2-1.87,2.2-.66,0-1.21-.28-1.87-.28-.99,0-1.87.93-2.8.93-1.38-.05-2.09-1.92-2.09-3.08,0-2.86,2.09-3.96,4.73-3.96Z"/></g><g class="cls-3"><path class="cls-2" d="M95.32,219.41c2.47,0,7.31,2.37,8.36,4.51s5.06,13.97,7.48,20.4c2.42,6.43,4.18,11.49,4.18,13.09s-1.98,4.51-3.74,5c-.66.17-1.7.27-2.86.27-1.92,0-4.23-.22-5.77-.5-2.47-.44-3.85-7.09-4.67-7.31-.83-.22-4.34-.28-6.93-.28s-5.17,0-5.61,1.71-2.97,5.28-5.77,5.28c-4.73,0-7.42-1.59-9.4-3.57-.27-.28-.39-1.1-.39-2.15,0-2.2.44-5.33.44-5.99,0-.99-2.58-3.68-2.58-5.33,0-1.16.55-1.32,1.1-1.32,1.16,0,4.23-.11,4.62-1.6.66-2.69,2.31-8.63,3.85-13.2,1.54-4.56,2.8-7.09,2.8-7.86s.88-1.98,3.35-1.98,6.87,1.43,6.87,1.43c.49,0,2.2-.61,4.67-.61ZM88.06,240.75c0,1.04.6,1.26,3.35,1.26,1.65,0,3.85-.11,3.85-.99,0-1.16-2.03-7.81-2.75-7.81-1.04,0-4.45,6.49-4.45,7.53Z"/><path class="cls-2" d="M119.58,218.75c.99,0,1.32,1.92,9.46,1.92s16-1.7,18.86-1.7,8.47,5.44,8.47,11.55-13.97,18.04-13.97,18.97,1.27,1.16,2.86,1.16c5.61,0,10.06-3.74,11.49-3.74s2.75,4.29,2.75,6.49-7.31,9.02-12.37,9.02-9.4-2.09-15.12-2.09-7.75.6-9.73.6-5.28-5.66-5.28-7.81,1.87-4.29,4.34-5.33c2.47-.99,11.66-8.52,14.96-11.88,3.3-3.3,4.45-4.12,4.45-5s-.6-.99-1.21-.99c-1.15,0-9.9,5.44-13.75,5.44s-7.48-11.16-7.48-13.75c0-1.76.27-2.86,1.27-2.86Z"/><path class="cls-2" d="M208.56,223.09c0,3.25.77,5.83.77,10.23s-1.92,11.82-3.52,16.22c-1.54,4.23-8.19,12.54-19.03,12.54s-22.82-9.29-22.82-20.73,2.36-16.72,2.36-18.59-.88-1.98-.88-2.86,1.98-1.32,3.46-1.32c6.32,0,16.11,5.28,16.11,10.61s-2.42,10.12-2.42,15.95c0,2.97.99,4.67,2.36,4.67s4.07-5.83,4.07-15.89.49-10.5,2.31-13.03c1.81-2.53,3.02-3.96,5-3.96,3.9,0,12.21,2.92,12.21,6.16Z"/><path class="cls-2" d="M216.32,220.51c7.15,0,10.83-2.86,18.97-2.86s16.99,4.67,16.99,14.79-8.63,12.04-9.18,12.15c.27.11,2.8.88,4.51,3.68,1.76,2.97,3.02,3.74,4.73,3.74s2.15-.5,3.24-.5,1.43.66,1.43,1.92-3.63,8.74-7.26,8.74c-10.06,0-15.12-11.77-16.22-11.77-.38,0-.55.44-.55,1.16,0,1.16.39,2.97.39,4.23,0,1.98-3.35,6.05-7.04,6.05s-8.74-2.15-8.74-4.46-1.04-9.13-1.04-14.9-.22-8.52-.22-9.84c0-2.75-3.68-5.77-3.68-8.96,0-1.54.77-3.19,3.68-3.19ZM231.88,232.72c0,1.54.11,4.12.99,4.12,2.2,0,7.48-3.79,7.48-5.72,0-.88-.66-1.49-2.31-1.49-2.25,0-6.16,1.54-6.16,3.08Z"/><path class="cls-2" d="M279.51,229.2c0,8.41.17,22.38.17,25.24s-1.38,6.71-9.84,6.71c-4.18,0-7.59-5.83-7.59-7.86s.27-12.04.27-20.02-.94-10.39-.94-11.88,3.68-2.58,5.17-2.58c5.99,0,12.76,1.98,12.76,10.39Z"/></g><g class="cls-3"><path class="cls-2" d="M129.06,434.09c-6.98,7.31-12.1,15.95-12.1,20.73,0,2.31,1.15,3.74,3.85,3.74,2.2,0,5.61-2.58,8.03-5.28,0,0,.27-.22.6-.22.44,0,.77.49.77.82-7.86,10.78-16.22,14.3-22.99,14.3-7.48,0-12.98-4.29-13.75-7.59,0,0-.17-.61-.5-.61-.11,0-.22.06-.38.22-6.6,4.79-11.6,6.76-15.12,6.76-4.4,0-6.54-3.13-6.54-7.81,0-7.59,5.55-19.25,15.84-28.38-15.07-2.14-27.77-8.36-27.77-20.68,0-7.7,6.6-15.73,10.23-18.15.99-.66,2.75-.94,4.84-.94,6.05,0,18.97,2.75,18.97,3.91,0,.11-.06.22-.27.33-9.29,4.35-18.15,12.43-18.15,18.97,0,7.1,6.98,11.33,15.95,13.47,8.41-6.21,19.36-10.72,32.56-10.72,7.26,0,12.32,1.98,12.32,4.4s-3.41,4.84-8.74,6.65c1.92,1.65,3.57,3.41,3.85,4.12,0,.94-.6,1.04-1.48,1.93ZM100.24,445.8c1.1,0,8.25-8.74,13.97-15.01-3.63.5-7.53.77-11.49.88-3.41,4.07-5.33,8.3-5.33,11.05,0,1.87.88,3.08,2.86,3.08ZM104.75,429.41h1.54c3.41,0,6.71-.22,9.73-.6,2.36-2.53,4.29-4.29,5.11-4.29s2.31.93,3.85,2.14c2.8-1.16,4.51-2.59,4.51-4.29,0-2.53-3.9-2.47-3.9-2.47-8.47,0-15.78,4.4-20.84,9.51Z"/><path class="cls-2" d="M148.42,471.54c-.55.05-1.27.05-2.09.05-4.12,0-20.9-3.9-20.9-8.14,0-.49.16-1.04.71-1.38,0,0,22.16-11.6,22.16-12.04-.06-.55-.6-.55-.94-.55-2.15,0-8.85-1.32-8.85-1.32-7.64,8.14-7.37,8.03-8.41,8.96l-1.48-1.1c.99-.82,1.92-1.81,2.86-2.75l13.69-14.41c.99-1.26,1.81-1.65,2.86-1.7,2.86,0,11.93-.17,13.31-.17,2.8,0,5.06-.22,6.71-.22,2.03,0,3.13.28,3.13,1.38,0,4.46-22.22,16.11-22.22,20.13,0,.88,1.1,1.43,3.68,1.43,4.01,0,8.96-.77,12.59-3.91.94-.77,1.81-1.65,2.64-2.53,0,0,.27-.22.6-.22.44,0,.77.49.77.82,0,.16-.06.38-.17.49,0,0-15.62,17.16-20.68,17.16Z"/><path class="cls-2" d="M167.23,466.37c-2.03,0-3.41-.88-3.41-3.13,0-5.22,13.69-15.78,13.69-19.58,0-.61-.27-.77-.93-.77-.6,0-1.48.11-2.91.11-1.16,0-1.71-.61-1.71-1.15,0-.44.33-.83.99-.83,5.61,0,9.24-2.75,15.34-2.75,3.24,0,4.23,1.54,4.23,3.46,0,3.19-9.51,9.46-9.51,13.04,0,.77.27,1.21.93,1.21.71,0,1.92-.61,3.74-1.93,4.34-5.28,10.28-11.16,11.93-12.76.77-.93,1.6-.93,2.97-.93,2.47.27,7.97,1.43,7.97,1.43,0,0,.55.11.55.55,0,.22-.11.55-.55.88-5.11,4.01-14.52,16.77-14.52,23.7,1.48-.11,2.97-.16,4.51-.16,3.13,0,4.45,1.32,4.45,3.13,0,4.29-7.31,11.38-16.88,11.38-5.88,0-8.41-3.19-8.41-7.97v-.66c-21.12,7.09-41.96,21.56-61.98,21.56-8.41,0-16.72-2.59-24.8-9.35-1.54-1.32-2.64-2.47-2.64-3.52,0-.28.11-.55.27-.82,1.38-1.87,12.04-5.5,14.02-6.38.6-.17,1.32-.28,1.98-.28.88,0,1.76.22,2.64.82,9.46,6.38,18.04,8.69,26.12,8.69,15.34,0,29.09-8.3,44.65-13.2,1.15-5.99,4.18-10.56,4.18-10.56-2.2,1.32-11.71,6.76-16.94,6.76ZM203.48,470.27c0-.71-.93-1.43-3.08-1.43-1.32,0-2.69.05-4.01.16.66,1.54,2.25,2.53,5.06,2.53,1.27,0,2.03-.61,2.03-1.26Z"/><path class="cls-2" d="M206.67,461.42c0-3.68,11.99-10.17,11.99-15.18,0-.88-1.1-1.04-2.14-1.04-.88,0-1.76.11-2.31.17-.6,0-.83-.5-.83-.99,0-.44.17-.94.27-1.1,2.8-.38,9.4-3.24,16.39-3.63,3.68.11,4.67,1.7,4.67,3.52,0,1.98-1.15,4.18-1.21,5,0,.11.06.16.11.16s.11,0,.17-.05c2.03-1.1,5.28-7.75,13.91-7.75,3.02,0,4.29,1.27,4.29,3.08,0,4.4-7.37,12.04-13.97,12.04-1.81,0-3.08-1.65-3.08-4.29,0,0-.11-.33-.33-.33-.11,0-.27.11-.49.33-.66.71-12.81,13.36-14.3,14.63-.71.55-1.81,1.04-2.86,1.04-.27,0-.55-.05-.83-.11-1.21-.22-9.46-2.7-9.46-5.5Z"/><path class="cls-2" d="M264.69,456.8c0,1.1.72,1.76,2.42,1.76,2.2,0,5.61-2.58,8.03-5.28,0,0,.27-.22.6-.22.44,0,.77.49.77.82,0,.16-.06.38-.17.49-3.9,4.89-14.41,12.59-22.55,12.59-4.89,0-6.65-1.76-6.65-4.4,0-6.71,11.6-18.86,13.91-21.01,0,0,1.32-1.48,3.24-1.48,2.58.28,6.27.66,8.8,1.65.5.17.83.61.83,1.04,0,.28-.11.55-.33.77-2.42,2.64-8.91,9.9-8.91,13.25ZM266.29,437.83c-2.75,0-4.56-.66-4.56-2.25,0-2.91,11.33-1.6,22.49-15.29.39-.28.71-.39,1.04-.39,2.2,0,3.46,5.22,3.46,8.3,0,.88-.06,1.76-.33,2.31-1.21,3.35-14.79,7.31-22.11,7.31Z"/></g><g class="cls-3"><path class="cls-2" d="M86.99,320.65h19.58c1.42,5.83,11.66,34.16,16.11,38.51h-18.69l-2.9-6.74c.67,3.76-2.01,6.74-6.02,6.74h-24.2c4.46-4.35,14.69-32.68,16.11-38.51ZM98,351.78c0-2.58-.75-6.42-2.09-10.98-2.26-7.65-3.79-12.65-6.28-12.65-1.85,0-2.26,2.2-2.26,4.49,0,2.74.62,6.55,1.72,10.96,2.12,8.43,4.67,11.63,7.2,11.63,1.18,0,1.72-1.26,1.72-3.44Z"/><path class="cls-2" d="M140.98,333.54c-4.51.21-9.48,9.75-13.48,15.76v-19.23h33.6l-14.48,25.46h.89c4.57,0,9.91-9.45,13.27-15.9v19.52h-34.27l14.48-25.62Z"/><path class="cls-2" d="M169.27,355.38c-1.72-2.71-1.88-4.78-1.88-10.69,0-5.37-.21-8.19-.56-11.14-.32-2.77-1.21-3.04-1.64-3.46h21.67c-.38.43-1.26.7-1.61,3.46-.38,2.9-.54,5.53-.54,10.82,0,4.78-.05,8.97,1.99,8.97,1.75,0,1.91-3.04,1.91-6.93v-16.33h19.47c-.38.43-1.26.7-1.58,3.46-.38,2.9-.54,5.53-.54,10.82,0,5.77.16,8.14.54,11.33.32,2.69,1.21,3.03,1.58,3.46h-19.47v-2.79c-2.07,2.17-5.32,3.46-10.1,3.46-4.14,0-7.44-1.61-9.24-4.46Z"/><path class="cls-2" d="M212.65,358.95c.4-.4,1.1-.97,1.37-3.25.35-2.93.56-5.56.56-10.82,0-5.8-.16-8.16-.56-11.33-.35-2.71-1.21-3.04-1.58-3.46h19.47v3.54c1.42-1.93,4.03-4.22,10.02-4.22,6.53,0,9.96,3.76,9.96,8.14,0,4.78-3.41,8.14-9.96,8.14-6.07,0-11.79-2.69-10.96-9.59-.91,0-2.63,3.41-.7,8.35,1.18,3.01,1.69,6.15,1.67,8.78l-.05,5.93h-19.44c.05-.08.13-.13.21-.21Z"/><path class="cls-2" d="M256.76,355.7c.35-2.93.56-5.56.56-10.82,0-5.8-.16-8.16-.56-11.33-.35-2.71-1.21-3.04-1.58-3.46h19.47v14.45c0,5.4.21,8.19.54,11.17.35,2.74,1.21,3.03,1.67,3.46h-21.67c.38-.43,1.26-.73,1.58-3.46ZM255.44,320.17c0-4.4,4.67-8.03,10.39-8.03s10.45,3.63,10.45,8.03-4.67,8.08-10.45,8.08-10.39-3.62-10.39-8.08Z"/></g></g></svg>