<?xml version="1.0" encoding="UTF-8"?><svg id="Layer_2" xmlns="http://www.w3.org/2000/svg" viewBox="0 0 586.55 178.63"><defs><style>.cls-1{fill:#282525;}</style></defs><g id="Layer_1-2"><path class="cls-1" d="M76.4,63.83c1.28-3.72,3.08-7.44,3.08-11.67v-1.67c-.51-7.95-4.36-9.36-5.51-9.49-1.15-.13-2.56-.13-2.56-.13-.77-.13-.9-.38-.9-1.15,0-.38.25-.64,1.28-.77,1.03-.13,4.74-.13,6.54-.13h10.77c15.77,0,17.82,2.44,24.36,18.33,7.56,18.46,9.23,37.43,22.69,55.25,3.2,4.23,5.9,6.02,5.9,11.79,0,4.62-2.05,7.44-7.31,7.44h-27.3c-12.44,0-15.64-18.08-16.92-26.02-1.67-.13-3.21-.13-4.61-.13-2.95,0-5.77.13-8.97.13-8.08,0-15.77,1.41-15.77,10.51,0,2.95.39,5.9.39,8.97,0,3.85-1.41,6.79-5.26,6.79-8.33,0-12.05,0-12.05-7.69.13-18.33,22.69-33.72,32.18-60.38ZM77.55,98.7c5,0,10,0,12.18-.38v-2.69c0-14.1-4.49-33.46-8.2-38.08-3.08,12.43-4.49,13.08-16.28,41.02,2.18.13,7.31.13,12.31.13Z"/><path class="cls-1" d="M201.53,39.99c-11.02,0-20.51,8.46-26.66,16.67-3.97,5.38-7.44,11.41-13.46,14.87-.77.38-1.67,1.02-2.44,1.02s-1.28-.64-1.28-2.82c0-6.41,3.08-12.31,3.08-18.72,0-3.72-1.15-7.31-2.82-10.64,0-1.41,2.05-1.79,4.23-1.79,16.67,0,33.33-.13,52.69-.13h15c5,0,6.54,5.77,6.54,10.64,0,10.77-5.9,20.51-37.95,53.84-2.69,2.69-7.82,8.85-7.82,13.46,0,3.85,3.46,7.18,7.44,7.18,17.56,0,12.82-26.67,31.67-26.67,7.69,0,9.23,3.08,9.23,7.56,0,3.33-.9,7.56-.9,11.79,0,2.95.64,5.77.64,8.72,0,3.46-2.43,7.18-6.28,7.18h-21.03c-17.95,0-19.1-.51-24.87-5.13-3.59,1.8-4.87,5.13-9.74,5.13h-12.56c-5.39-.38-8.2-6.92-8.2-6.92-1.03-2.56-1.54-5.26-1.54-8.08,0-7.82,3.72-16.15,8.2-22.44,4.1-6.79,21.67-20.25,30-26.54l1.67-1.15c6.28-4.61,17.31-11.03,17.31-19.74,0-6.28-5-7.31-10.13-7.31Z"/><path class="cls-1" d="M255.9,102.68c0-15,11.28-30.26,11.28-47.3-.38-5.26-1.28-11.67-7.18-13.98-.64-.25-1.28-.38-6.02-.38-.9,0-1.15-.51-1.15-.9,0-.64.13-1.28.77-1.28,4.61,0,25,0,33.85-.13,1.41.26,5.64,7.44,6.28,8.59,3.08,5,4.1,11.41,4.1,18.2,0,14.36-4.61,31.02-4.61,41.79,0,6.92,1.92,11.41,8.2,11.41,15.26,0,21.02-23.84,21.02-36.79,0-7.69-1.15-17.56-3.46-26.15-1.41-5.13-3.33-10.39-7.56-13.46-2.44-1.67-3.97-1.15-5.9-1.67-.26-.26-.26-1.28-.26-1.41,0-.38,1.03-.51,2.69-.51,3.72,0,10.64.13,16.54.13,1.79,0,3.33-.13,5.38-.13,1.54,0,3.33.9,3.33,1.79,0,.13,0,.26-.13.38s-.26.13-5.64.13c-1.8,0-5.51,1.79-6.28,6.67v.51c0,5.77,9.1,27.95,9.1,42.95,0,5-.64,10-2.18,14.74-5,15.77-18.08,27.18-34.1,27.18-27.56,0-38.08-6.15-38.08-30.38Z"/><path class="cls-1" d="M344.76,112.55c0-17.31,15.26-35.38,15.26-52.95,0-5.9-.64-14.62-7.05-17.69-1.28-.64-8.33.13-8.2-1.92,0-.9.9-1.02,2.05-1.02,14.62,0,29.36-.26,46.66-.26,4.36,0,7.56,0,10.9.26,11.67.64,31.28,7.56,32.31,28.2v.9c0,10.38-10.9,13.2-19.87,16.92,8.97,3.97,18.98,10.9,19.61,20.9.26,4.36,2.31,7.56,4.1,9.36,2.82,2.82,3.08,5.9,3.08,8.08-.13,8.2-9.1,8.59-18.72,8.59-6.03,0-11.28-.77-15.38-1.28-.26,0-.64-.13-.9-.13-7.18-.9-10-9.36-10-16.41,0-4.87,1.67-10.39,1.67-15.51,0-8.46-7.05-13.33-12.56-13.33-.51,0-1.02,0-1.67.26-1.79,5-2.05,10.13-2.05,15.38,0,7.44,3.21,14.23,3.21,21.79,0,8.72-1.67,9.23-16.92,9.23-2.31,0-4.74.13-7.05.13-2.05,0-4.36-.13-6.54-.38-4.61-.38-8.46-4.61-10.13-8.72-1.54-3.08-1.79-7.05-1.79-10.38ZM393.85,80.37c3.72,0,6.41-2.31,7.44-6.41.51-2.05.77-4.49.77-7.18,0-9.87-5.38-22.56-15.51-22.56h-.51c-.9,0-2.18.13-2.18,1.15,3.08,7.82,3.85,12.69,3.85,17.82,0,4.36-.51,9.1-.64,16.02,1.8.77,5.13,1.15,6.8,1.15Z"/><path class="cls-1" d="M455.4,109.98c2.31-26.03,13.84-33.08,13.84-54.36,0-4.49-1.15-10.9-6.92-10.9-1.92,0-3.08.64-4.74.64-.64,0-.9-.25-.9-1.54,0-1.79,5.77-3.2,8.72-3.2,2.43,0,4.74.64,7.18.64,3.2,0,5.38-2.56,8.07-2.56,7.31,0,12.95,18.33,13.97,23.08.51,2.31.77,4.87.77,7.31,0,3.59-.25,7.31-.38,11.28v1.02c0,11.41,4.1,18.33,4.1,28.2,0,13.46-8.33,22.56-24.23,22.56-10.51,0-19.48-6.67-19.48-22.18Z"/><rect class="cls-1" x=".5" y="132.56" width="542.34" height="1"/><rect class="cls-1" x=".5" y="38.33" width="542.34" height="1"/><rect class="cls-1" x="43.72" y=".5" width="1" height="176.28"/><rect class="cls-1" x="498.62" y=".5" width="1" height="176.28"/><path class="cls-1" d="M543.34,177.28H0V0h543.34v177.28ZM1,176.28h541.34V1H1v175.28Z"/><path class="cls-1" d="M542.84,156.45c2.31-26.03,13.84-33.08,13.84-54.36,0-4.49-1.15-10.9-6.92-10.9-1.92,0-3.08.64-4.74.64-.64,0-.9-.25-.9-1.54,0-1.79,5.77-3.2,8.72-3.2,2.43,0,4.74.64,7.18.64,3.2,0,5.38-2.56,8.07-2.56,7.31,0,12.95,18.33,13.97,23.08.51,2.31.77,4.87.77,7.31,0,3.59-.25,7.31-.38,11.28v1.02c0,11.41,4.1,18.33,4.1,28.2,0,13.46-8.33,22.56-24.23,22.56-10.51,0-19.48-6.67-19.48-22.18Z"/></g></svg>