<?xml version="1.0" encoding="UTF-8"?><svg id="Layer_2" xmlns="http://www.w3.org/2000/svg" xmlns:xlink="http://www.w3.org/1999/xlink" viewBox="0 0 353.11 488.65"><defs><style>.cls-1{fill:#ffe4c6;}.cls-2{fill:#fff;}.cls-3{fill:#668458;}.cls-4{fill:none;}.cls-5{clip-path:url(#clippath-1);}.cls-6{fill:#f9f4de;}.cls-7{clip-path:url(#clippath-3);}.cls-8{clip-path:url(#clippath-2);}.cls-9{fill:#d0aed2;}.cls-10{clip-path:url(#clippath);}.cls-11{fill:#282525;}</style><clipPath id="clippath"><rect class="cls-4" x="32.2" y="158.59" width="288.7" height="60.04"/></clipPath><clipPath id="clippath-1"><rect class="cls-4" x="29.86" y="312.99" width="293.39" height="61.02"/></clipPath><clipPath id="clippath-2"><rect class="cls-4" x="28.8" y="235.08" width="295.52" height="61.46"/></clipPath><clipPath id="clippath-3"><rect class="cls-4" x="28.8" y="390.46" width="295.52" height="61.46"/></clipPath></defs><g id="Layer_1-2"><rect class="cls-11" width="353.11" height="488.65"/><rect class="cls-6" x="38.37" y="139.14" width="276.38" height="3"/><rect class="cls-6" x="38.37" y="67.47" width="276.38" height="3"/><path class="cls-6" d="M131.18,54.54h2.16c.36,0,.41-.05.41-.41v-16.37h-.22c-2.54,0-4.15,1.9-5.14,5.95-.02.1-.07.14-.22.14-.19,0-.19-.05-.19-.14v-5.98c0-.31.14-.41.46-.41h15c.34,0,.46.14.46.46v5.93c0,.1-.02.14-.22.14-.14,0-.19-.05-.22-.14-.98-4.06-2.52-5.95-5.06-5.95h-.26v16.37c0,.36.05.41.41.41h2.18c.1,0,.14.02.14.22s-.05.21-.14.21h-9.55c-.1,0-.14-.02-.14-.21s.05-.22.14-.22Z"/><path class="cls-6" d="M143.66,44.65h6.94c.1,0,.14.02.14.22s-.05.22-.14.22h-1.22c-.36,0-.38.05-.24.41l1.61,4.22c.24.6.79,2.09,1.06,3h.1l1.18-3.55c.98-3,1.1-3.98-.94-4.08-.1,0-.14-.07-.14-.22,0-.19.05-.22.14-.22h4.32c.1,0,.14.02.14.22,0,.14-.05.22-.14.22-1.27.1-1.8.96-2.9,4.18l-3.29,9.5c-.67,1.92-1.75,2.69-2.95,2.69-1.56,0-2.54-.91-2.54-2.3,0-1.13.91-2.09,1.87-2.09.84,0,1.39.55,1.39,1.39,0,1.18-1.18,1.58-1.18,2.11,0,.29.19.46.58.46.79,0,1.8-.62,2.4-2.42l1.2-3.55h-2.21c-.14,0-.19-.05-.24-.19l-3.65-9.36c-.14-.36-.19-.41-.55-.41h-.72c-.1,0-.14-.02-.14-.22s.05-.22.14-.22Z"/><path class="cls-6" d="M158.49,45.49c0-.36-.05-.41-.41-.41h-1.25c-.1,0-.14-.02-.14-.22s.05-.22.14-.22h5.02c.36,0,.41.05.41.41,0,.17-.05.86-.07,1.01l.07.05c.41-1.06,1.44-1.75,2.76-1.75,2.52,0,4.73,2.21,4.73,5.35,0,3.31-1.87,5.54-4.68,5.54-1.46,0-2.3-.65-2.83-1.87l-.05.07c.1.43.14,1.3.14,1.8v4.99c0,.36.05.41.41.41h1.46c.1,0,.14.02.14.21s-.05.22-.14.22h-7.39c-.1,0-.14-.02-.14-.22s.05-.21.14-.21h1.27c.36,0,.41-.05.41-.41v-14.76ZM165,45.35c-.24-.24-.6-.36-.86-.36-.82,0-1.54.74-1.82,2.11v5.28c.38,1.54,1.13,2.26,1.82,2.26.31,0,.6-.1.86-.36.53-.53.72-1.63.72-4.56,0-3.12-.19-3.84-.72-4.37Z"/><path class="cls-6" d="M176.64,44.37c2.74,0,4.78,2.28,4.78,4.63,0,.31-.1.38-.38.38h-5.69v.58c0,2.86.24,3.65.74,4.15.34.34.84.53,1.49.53,1.66,0,2.78-1.18,3.31-2.11.1-.17.46.02.38.14-.84,1.54-2.18,2.59-4.63,2.59-3.02,0-5.33-2.26-5.33-5.52s2.59-5.38,5.33-5.38ZM175.87,45.04c-.31.31-.55,1.2-.55,3.94h1.92c.34,0,.38-.02.38-.26,0-2.79-.24-3.43-.5-3.7-.17-.17-.34-.24-.6-.24-.24,0-.46.07-.65.26Z"/><path class="cls-6" d="M190.77,41.34c-.82,0-1.44-.5-1.44-1.37,0-1.01.79-1.54.79-2.21,0-.22-.17-.6-.72-.6-.72,0-1.25.46-1.25,2.69v4.8h2.02c.1,0,.14.02.14.22s-.05.22-.14.22h-2.02v9.05c0,.36.05.41.41.41h1.22c.1,0,.14.02.14.22s-.05.21-.14.21h-7.08c-.1,0-.14-.02-.14-.21s.05-.22.14-.22h1.2c.36,0,.41-.05.41-.41v-9.05h-1.49c-.1,0-.14-.02-.14-.22s.05-.22.14-.22h1.49v-2.93c0-3.1,2.86-4.99,5.09-4.99,2.06,0,3.29,1.1,3.29,2.4s-.89,2.21-1.92,2.21Z"/><path class="cls-6" d="M194.66,49.21c1.06,0,1.75.26,2.04.41v-2.83c0-1.49-.48-1.99-1.63-1.99-1.08,0-1.46.43-1.46.91s.55.82.55,1.63c0,.72-.55,1.22-1.32,1.22-.89,0-1.61-.67-1.61-1.7,0-1.25,1.54-2.5,4.34-2.5,3.02,0,4.92,1.39,4.92,3.79v5.06c0,.77.34,1.18.82,1.18.29,0,.58-.02.86-.21.12-.07.34.26.24.36-.41.36-1.27.72-2.57.72-1.58,0-2.45-.65-2.86-1.66h-.1c-.41,1.08-1.1,1.66-2.64,1.66-2.28,0-3.53-1.13-3.53-2.9s1.37-3.14,3.94-3.14ZM195.67,54.4c.5,0,.96-.55,1.03-1.49v-2.88c-.31-.19-.58-.26-.91-.26-.72,0-1.13.53-1.13,2.62,0,1.44.41,2.02,1.01,2.02Z"/><path class="cls-6" d="M211.27,49.21c-.89,0-1.42-.6-1.42-1.39s.77-1.27.77-1.9c0-.55-.31-1.08-1.51-1.08-.41,0-.82.19-1.1.48-.48.48-.77,1.22-.77,4.39s.19,3.89.7,4.39c.34.34.79.53,1.3.53,1.56,0,2.78-1.18,3.31-2.11.1-.17.43.05.38.14-.7,1.25-2.18,2.59-4.22,2.59-3.02,0-5.5-2.26-5.5-5.52s2.54-5.38,5.64-5.38c2.28,0,4.1,1.37,4.1,2.95,0,1.06-.79,1.9-1.68,1.9Z"/><path class="cls-6" d="M219.77,44.37c2.74,0,4.78,2.28,4.78,4.63,0,.31-.1.38-.38.38h-5.69v.58c0,2.86.24,3.65.74,4.15.34.34.84.53,1.49.53,1.66,0,2.78-1.18,3.31-2.11.1-.17.46.02.38.14-.84,1.54-2.18,2.59-4.63,2.59-3.02,0-5.33-2.26-5.33-5.52s2.59-5.38,5.33-5.38ZM219,45.04c-.31.31-.55,1.2-.55,3.94h1.92c.34,0,.38-.02.38-.26,0-2.79-.24-3.43-.5-3.7-.17-.17-.34-.24-.6-.24-.24,0-.46.07-.65.26Z"/><g class="cls-10"><path class="cls-1" d="M52.62,174.7c.81-2.36,1.95-4.72,1.95-7.4v-1.06c-.33-5.05-2.77-5.94-3.5-6.02-.73-.08-1.63-.08-1.63-.08-.49-.08-.57-.24-.57-.73,0-.24.16-.41.81-.49.65-.08,3.01-.08,4.15-.08h6.83c10.01,0,11.31,1.55,15.46,11.64,4.8,11.72,5.86,23.76,14.4,35.07,2.03,2.68,3.74,3.82,3.74,7.48,0,2.93-1.3,4.72-4.64,4.72h-17.33c-7.89,0-9.93-11.47-10.74-16.52-1.06-.08-2.03-.08-2.93-.08-1.87,0-3.66.08-5.69.08-5.13,0-10.01.89-10.01,6.67,0,1.87.24,3.74.24,5.7,0,2.44-.9,4.31-3.34,4.31-5.29,0-7.65,0-7.65-4.88.08-11.63,14.4-21.4,20.42-38.32M53.36,196.83c3.17,0,6.35,0,7.73-.24v-1.71c0-8.95-2.85-21.24-5.21-24.17-1.95,7.89-2.85,8.3-10.33,26.04,1.38.08,4.64.08,7.81.08"/><path class="cls-1" d="M132.04,159.57c-7,0-13.02,5.37-16.92,10.58-2.52,3.42-4.72,7.24-8.54,9.44-.49.24-1.06.65-1.55.65s-.81-.41-.81-1.79c0-4.07,1.95-7.81,1.95-11.88,0-2.36-.73-4.64-1.79-6.75,0-.89,1.3-1.14,2.68-1.14,10.58,0,21.15-.08,33.44-.08h9.52c3.17,0,4.15,3.66,4.15,6.75,0,6.84-3.74,13.02-24.08,34.17-1.71,1.71-4.96,5.61-4.96,8.54,0,2.44,2.2,4.56,4.72,4.56,11.15,0,8.14-16.92,20.1-16.92,4.88,0,5.86,1.95,5.86,4.8,0,2.12-.57,4.8-.57,7.49,0,1.87.41,3.66.41,5.53,0,2.2-1.54,4.56-3.99,4.56h-13.35c-11.39,0-12.12-.33-15.78-3.26-2.28,1.14-3.09,3.26-6.18,3.26h-7.97c-3.42-.24-5.21-4.39-5.21-4.39-.65-1.63-.98-3.34-.98-5.13,0-4.96,2.36-10.25,5.21-14.24,2.6-4.31,13.75-12.85,19.04-16.84l1.06-.73c3.99-2.93,10.99-7,10.99-12.53,0-3.99-3.18-4.64-6.43-4.64"/><path class="cls-1" d="M166.55,199.35c0-9.52,7.16-19.2,7.16-30.02-.24-3.34-.81-7.4-4.56-8.87-.41-.16-.81-.24-3.82-.24-.57,0-.73-.33-.73-.57,0-.4.08-.81.49-.81,2.93,0,15.86,0,21.48-.08.9.16,3.58,4.72,3.99,5.45,1.95,3.17,2.6,7.24,2.6,11.55,0,9.11-2.93,19.69-2.93,26.52,0,4.39,1.22,7.24,5.21,7.24,9.68,0,13.34-15.13,13.34-23.35,0-4.88-.73-11.15-2.2-16.6-.9-3.25-2.12-6.59-4.8-8.54-1.54-1.06-2.52-.73-3.74-1.06-.16-.16-.16-.81-.16-.9,0-.24.65-.32,1.71-.32,2.36,0,6.75.08,10.49.08,1.14,0,2.12-.08,3.42-.08.98,0,2.11.57,2.11,1.14,0,.08,0,.16-.08.24-.08.08-.16.08-3.58.08-1.14,0-3.5,1.14-3.99,4.23v.33c0,3.66,5.78,17.74,5.78,27.26,0,3.17-.41,6.35-1.38,9.36-3.17,10.01-11.47,17.25-21.64,17.25-17.49,0-24.17-3.9-24.17-19.28"/><path class="cls-1" d="M222.94,205.62c0-10.98,9.68-22.46,9.68-33.6,0-3.74-.41-9.28-4.47-11.23-.82-.41-5.29.08-5.21-1.22,0-.57.57-.65,1.3-.65,9.28,0,18.63-.16,29.62-.16,2.77,0,4.8,0,6.92.16,7.4.41,19.85,4.8,20.5,17.9v.57c0,6.59-6.92,8.38-12.61,10.74,5.69,2.52,12.04,6.92,12.45,13.26.16,2.77,1.46,4.8,2.6,5.94,1.79,1.79,1.95,3.74,1.95,5.13-.08,5.21-5.78,5.45-11.88,5.45-3.82,0-7.16-.49-9.76-.81-.16,0-.41-.08-.57-.08-4.55-.57-6.35-5.94-6.35-10.41,0-3.09,1.06-6.59,1.06-9.85,0-5.37-4.47-8.46-7.97-8.46-.32,0-.65,0-1.06.16-1.14,3.17-1.3,6.43-1.3,9.76,0,4.72,2.03,9.03,2.03,13.83,0,5.53-1.06,5.86-10.74,5.86-1.46,0-3.01.08-4.48.08-1.3,0-2.77-.08-4.15-.24-2.93-.24-5.37-2.93-6.43-5.53-.98-1.95-1.14-4.47-1.14-6.59M254.1,185.2c2.36,0,4.07-1.46,4.72-4.07.32-1.3.49-2.85.49-4.56,0-6.26-3.42-14.32-9.85-14.32h-.32c-.57,0-1.38.08-1.38.73,1.95,4.96,2.44,8.06,2.44,11.31,0,2.76-.32,5.78-.41,10.17,1.14.49,3.26.73,4.31.73"/><path class="cls-1" d="M293.16,203.99c1.46-16.52,8.78-20.99,8.78-34.5,0-2.85-.73-6.91-4.39-6.91-1.22,0-1.95.4-3.01.4-.41,0-.57-.16-.57-.98,0-1.14,3.66-2.03,5.53-2.03,1.55,0,3.01.4,4.55.4,2.03,0,3.42-1.63,5.12-1.63,4.64,0,8.22,11.64,8.87,14.64.33,1.47.49,3.09.49,4.64,0,2.28-.16,4.64-.24,7.16v.65c0,7.24,2.6,11.64,2.6,17.9,0,8.54-5.29,14.32-15.38,14.32-6.67,0-12.37-4.23-12.37-14.08"/></g><path class="cls-6" d="M145.13,99.45c0-2.04.65-3.19,1.42-5.02.65-1.61,1.49-3.91,1.49-5.66,0-1.37-.19-2.9-1.85-2.98-.14,0-.17-.19-.17-.24s.05-.07.24-.07c.82,0,1.58-.02,3.48-.02h1.42c.5,0,.6.02.74.17,1.51,1.66,1.68,2.69,1.68,4.3,0,.96-.43,1.99-.6,3.14,0,.05,0,.1.07.12.19-.07.48-.1.82-.1,1.1,0,2.74.31,3.1.38.05,0,.07.02.07.02.05,0,.07-.02.1-.07.31-.94.77-3.17.77-4.99,0-1.34-.41-2.26-1.66-2.52-.12-.02-.24-.02-.36-.02-.46,0-.6-.1-.6-.24,0-.1.05-.19.48-.19h5.62c.7,0,2.11,1.92,2.11,3.84,0,2.4-.7,5.21-.74,6.22v.19c0,1.75.91,3.58.91,4.82,0,.34-.07.62-.24.89-.62,1.44-1.78,1.54-3.29,1.54-2.38,0-4.9-.22-4.9-3.14,0-1.46.72-3.43,1.01-4.32-.29-.26-.89-.34-1.49-.34-.53,0-1.03.07-1.37.1-.5.07-.58.53-.58.96,0,1.06.41,2.18.65,3.17.07.36.07.7.07,1.06,0,1.42-.62,2.09-2.02,2.47-.07,0-.36.05-.41.05h-3.14c-2.16,0-2.83-1.66-2.83-3.5Z"/><path class="cls-6" d="M178.08,92.47c-1.63,3.36-1.27,10.49-5.16,10.49-.22,0-.43-.02-.67-.07-2.62-.65-2.64-4.75-2.64-7.01v-.46c0-7.13-1.99-8.91-3.7-9.29-.31-.07-1.54-.14-1.54-.41,0-.19.05-.26.41-.26h6.65c.7,0,3.34,4.75,4.82,9.7,1.25-3.07,1.49-3.38,1.66-3.7-.48-3.1-.67-3.48-.89-3.89-.72-1.34-1.94-1.63-3.48-1.66-.12,0-.14-.1-.14-.17,0-.14.17-.19.22-.22.36-.05.72-.02,2.23-.02,1.08,0,2.71,0,5.35.02.02,0,.1.02.17.1,2.54,5.45,3.07,6.7,3.36,7.9.12.14.14.14.17.14.34,0,1.61-4.71,1.61-5.74,0-.67-.43-1.56-1.08-1.82-.38-.1-.77-.12-1.63-.12-.36,0-.65,0-1.06-.05-.12-.02-.19-.07-.19-.22,0-.1.02-.19.12-.19,3.31,0,4.68-.07,5.21-.07.36,0,.48.14.48.26s-.12.19-.24.19c-.24,0-.74.72-.86,1.42-.62,3.94-1.25,14.04-4.46,15.41-.41.17-.94.19-1.34.19-2.09,0-2.69-3.05-2.83-4.58l-.53-5.88Z"/><path class="cls-6" d="M196.68,92.85c.5-1.34.67-2.81.67-4.25,0-1.15-.53-2.78-1.92-2.78-1.01,0-1.63,1.08-2.02,1.82-.62,1.22-1.03,1.94-1.18,2.18-.24.43-1.13,1.46-1.68,1.46-.26,0-.46-.24-.46-.86,0-.98.43-1.9.43-3.48-.02-.41-.31-.74-.31-1.15,0-.19.1-.26.31-.31,1.22-.02,2.38-.02,3.55-.02,2.33,0,4.61.02,7.08.02h5.76c1.08,0,1.32,1.46,1.32,2.86,0,.98-.12,1.32-.12,2.16,0,.67.17,1.03.17,1.18,0,.05-.02.07-.07.07-1.46,0-2.06-2.38-2.69-3.26-.84-1.15-2.16-2.35-3.7-2.42.72,1.2,1.01,2.5,1.01,3.89,0,1.1-.12,2.26-.29,3.43-.14.91-.38,1.7-.38,2.64,0,1.22.36,2.42.7,3.55.12.65.14.98.14,1.34,0,1.03-.98,1.99-2.02,1.99h-4.1c-1.78,0-2.3-1.34-2.3-2.95,0-2.47,1.2-4.73,2.09-7.1Z"/><path class="cls-6" d="M97.41,114.14c.24-.7.58-1.39.58-2.18v-.31c-.1-1.49-.82-1.75-1.03-1.78-.22-.02-.48-.02-.48-.02-.14-.02-.17-.07-.17-.22,0-.07.05-.12.24-.14.19-.02.89-.02,1.22-.02h2.02c2.95,0,3.34.46,4.56,3.43,1.42,3.46,1.73,7.01,4.25,10.34.6.79,1.1,1.13,1.1,2.21,0,.86-.38,1.39-1.37,1.39h-5.11c-2.33,0-2.93-3.38-3.17-4.87-.31-.02-.6-.02-.86-.02-.55,0-1.08.02-1.68.02-1.51,0-2.95.26-2.95,1.97,0,.55.07,1.1.07,1.68,0,.72-.26,1.27-.98,1.27-1.56,0-2.26,0-2.26-1.44.02-3.43,4.25-6.31,6.02-11.3ZM97.63,120.67c.94,0,1.87,0,2.28-.07v-.5c0-2.64-.84-6.26-1.54-7.13-.58,2.33-.84,2.45-3.05,7.68.41.02,1.37.02,2.3.02Z"/><path class="cls-6" d="M111.24,123.26c0-3.24,2.86-6.62,2.86-9.91,0-1.1-.12-2.74-1.32-3.31-.24-.12-1.56.02-1.54-.36,0-.17.17-.19.38-.19,2.74,0,5.5-.05,8.74-.05.82,0,1.42,0,2.04.05,2.18.12,5.86,1.42,6.05,5.28v.17c0,1.94-2.04,2.47-3.72,3.17,1.68.74,3.55,2.04,3.67,3.91.05.82.43,1.42.77,1.75.53.53.58,1.1.58,1.51-.02,1.54-1.7,1.61-3.5,1.61-1.13,0-2.11-.14-2.88-.24-.05,0-.12-.02-.17-.02-1.34-.17-1.87-1.75-1.87-3.07,0-.91.31-1.94.31-2.9,0-1.58-1.32-2.5-2.35-2.5-.1,0-.19,0-.31.05-.34.94-.38,1.9-.38,2.88,0,1.39.6,2.66.6,4.08,0,1.63-.31,1.73-3.17,1.73-.43,0-.89.02-1.32.02-.38,0-.82-.02-1.22-.07-.86-.07-1.58-.86-1.9-1.63-.29-.58-.34-1.32-.34-1.94ZM120.43,117.24c.7,0,1.2-.43,1.39-1.2.1-.38.14-.84.14-1.34,0-1.85-1.01-4.22-2.9-4.22h-.1c-.17,0-.41.02-.41.22.58,1.46.72,2.38.72,3.34,0,.82-.1,1.7-.12,3,.34.14.96.22,1.27.22Z"/><path class="cls-6" d="M137.69,114.14c.24-.7.58-1.39.58-2.18v-.31c-.1-1.49-.82-1.75-1.03-1.78-.22-.02-.48-.02-.48-.02-.14-.02-.17-.07-.17-.22,0-.07.05-.12.24-.14.19-.02.89-.02,1.22-.02h2.02c2.95,0,3.34.46,4.56,3.43,1.42,3.46,1.73,7.01,4.25,10.34.6.79,1.1,1.13,1.1,2.21,0,.86-.38,1.39-1.37,1.39h-5.11c-2.33,0-2.93-3.38-3.17-4.87-.31-.02-.6-.02-.86-.02-.55,0-1.08.02-1.68.02-1.51,0-2.95.26-2.95,1.97,0,.55.07,1.1.07,1.68,0,.72-.26,1.27-.98,1.27-1.56,0-2.26,0-2.26-1.44.02-3.43,4.25-6.31,6.02-11.3ZM137.9,120.67c.94,0,1.87,0,2.28-.07v-.5c0-2.64-.84-6.26-1.54-7.13-.58,2.33-.84,2.45-3.05,7.68.41.02,1.37.02,2.3.02Z"/><path class="cls-6" d="M156.02,126.93h-.31c-1.99,0-4.03-.43-4.03-2.66.02-5.14,2.88-7.1,2.88-11.42,0-1.49-.36-3.07-2.18-3.07-.05,0-.1-.07-.1-.14s.02-.14.12-.14h11.06c2.64,0,5.64,1.97,5.64,4.82,0,1.99-1.54,3.62-3.58,3.89,2.93,1.54,3.65,3.02,3.65,4.8v.26c-.07,1.9-1.18,3.65-3.53,3.65-1.2,0-2.42.02-2.9.02-1.22,0-1.39-.14-3.02-.84-.43.82-1.92.84-3.7.84ZM161.01,116.97c1.15,0,1.39-1.73,1.39-2.54,0-1.94-.96-4.49-3.19-4.49-.07,0-.26.02-.38.07.98,1.25,1.42,2.78,1.42,4.34,0,.77-.07,1.51-.24,2.26.19.29.7.36,1.01.36ZM161.11,125.3c.77,0,1.37-.53,1.44-1.7v-.14c0-2.28-1.1-4.9-2.78-5.54-.38.98-.38,1.99-.38,2.76v.12c0,1.44.26,2.38.43,3.29.02.12.12.74.12.89.41.22.82.34,1.18.34Z"/><path class="cls-6" d="M174.29,112.85c0-.77-.14-1.66-.6-2.33-.34-.6-.89-.58-.89-.82,0-.22.6-.26,1.15-.26h5.28c1.78,0,3.6,0,5.52-.02,1.7,0,2.33,1.2,2.64,2.76.02.17.05.36.05.53,0,.94-.34,1.85-.34,2.76,0,.53.19,1.06.19,1.56,0,.17-.07.24-.22.24-.36,0-1.08-.48-1.27-.62-1.03-.72-1.63-1.9-2.02-3.1-.77-2.28-2.54-3.65-4.46-3.65-.19,0-.77.02-.96.05.6.82,1.32,2.18,1.32,4.27,0,.79-.12,1.61-.12,2.4,0,.12,1.06.14,1.18.14.91,0,1.22-.62,1.22-1.42,0-.86-.36-1.39-.91-2.11,0-.02-.02-.1-.02-.12,0-.26.22-.48.41-.48.02,0,.05.02.07.02.89.34,1.3,2.06,1.3,3.02,0,.72-.24,1.06-.24,1.49,0,.72.19,1.87.19,2.57,0,.65-.41,1.68-1.2,1.68-.14,0-.41-.05-.41-.24,0-.29.29-.62.29-.94,0-.91-1.15-1.87-2.16-1.94-.17.84-.19,1.58-.19,2.45,0,1.78.7,3.82,2.71,4.08,0-2.16,1.37-3.79,2.95-4.82.5-.31,1.15-.48,1.73-.48s1.22.41,1.22,1.61c0,.82-.31,1.58-.31,2.4v.12s.02.07.02.1c.12.41.29.96.29,1.75,0,.98-.72,1.44-1.73,1.44h-4.1c-1.1,0-1.87-.77-2.35-1.13-.5.55-1.27,1.1-2.06,1.1-.74,0-1.7.02-2.64.02-.6,0-1.18-.05-1.66-.22-.86-.31-1.58-1.46-1.58-2.4,0-5.14,2.71-6.98,2.71-11.47Z"/><path class="cls-6" d="M191.97,120.33c1.44,0,2.3,1.37,2.81,2.54.58,1.66,1.3,3.74,3.36,3.74,1.06,0,2.04-.72,2.04-1.87,0-1.27-.86-2.3-1.94-2.95-4.51-2.76-8.26-3.7-8.26-7.63,0-2.4,2.18-4.7,4.85-4.7h2.57c1.87,0,2.88,1.13,4.42,2.04.26.14.6.29.89.36.55.12.84-.05.84.6,0,1.3-1.25,2.21-2.5,2.21s-2.3-.98-2.93-2.04c-.86-1.49-1.15-2.83-3-2.83-1.1,0-1.9.7-1.9,1.82,0,.98.94,1.7,1.7,2.11l5.71,3.07c2.78,1.49,3.65,3.53,3.65,5.21,0,.91-.24,1.73-.58,2.3-.84,1.46-2.66,2.59-5.57,2.59-2.42,0-5.38-.1-7.03-2.18-.6-.74-.94-1.44-.94-2.4,0-1.01.72-1.99,1.8-1.99Z"/><path class="cls-6" d="M206.76,120.67v-.34c0-4.99,3.7-10.87,8.62-10.87h.19c2.23,0,4.06,1.06,5.57,2.62,1.82,1.87,2.71,4.18,2.71,6.67,0,1.25-.24,2.52-.67,3.82-.02.05.36.19.41.19,1.03,0,.89-1.37,1.87-1.37,1.08,0,1.56,1.42,1.56,2.62,0,.53-.1,1.03-.26,1.34-.53,1.18-1.68,1.42-2.88,1.42s-2.14-.58-3.07-1.32c-1.22,1.22-3.65,1.56-5.74,1.56-1.75,0-3.24-.24-3.6-.36-3.34-1.25-4.63-3.58-4.7-5.98ZM213.55,121.25c.29-.19,1.01-.46,1.78-.46.48,0,.98.07,1.39.26,0-1.85.19-3.74.7-5.52.12-.41.24-.94.24-1.51,0-1.44-.5-3.17-1.49-3.91-.29-.22-.6-.34-.91-.34-.65,0-1.25.5-1.32,1.34v.12c.24,1.03.48,2.04.48,3.1,0,2.33-.72,4.58-.86,6.91ZM215.23,125.59c1.27,0,1.58-1.34,1.58-2.4v-.41c-.53-.46-1.1-.74-1.8-.74-.79,0-1.44.55-1.44,1.37,0,.96.58,2.18,1.66,2.18Z"/><path class="cls-6" d="M229.92,121.41c0-2.81,2.11-5.66,2.11-8.86-.07-.98-.24-2.18-1.34-2.62-.12-.05-.24-.07-1.13-.07-.17,0-.22-.1-.22-.17,0-.12.02-.24.14-.24.86,0,4.68,0,6.34-.02.26.05,1.06,1.39,1.18,1.61.58.94.77,2.14.77,3.41,0,2.69-.86,5.81-.86,7.83,0,1.3.36,2.14,1.54,2.14,2.86,0,3.94-4.46,3.94-6.89,0-1.44-.22-3.29-.65-4.9-.26-.96-.62-1.94-1.42-2.52-.46-.31-.74-.22-1.1-.31-.05-.05-.05-.24-.05-.26,0-.07.19-.1.5-.1.7,0,1.99.02,3.1.02.34,0,.62-.02,1.01-.02.29,0,.62.17.62.34,0,.02,0,.05-.02.07-.02.02-.05.02-1.06.02-.34,0-1.03.34-1.18,1.25v.1c0,1.08,1.7,5.23,1.7,8.04,0,.94-.12,1.87-.41,2.76-.94,2.95-3.38,5.09-6.38,5.09-5.16,0-7.13-1.15-7.13-5.69Z"/><path class="cls-6" d="M248.28,112.85c0-.77-.14-1.66-.6-2.33-.34-.6-.89-.58-.89-.82,0-.22.6-.26,1.15-.26h5.28c1.78,0,3.6,0,5.52-.02,1.7,0,2.33,1.2,2.64,2.76.02.17.05.36.05.53,0,.94-.34,1.85-.34,2.76,0,.53.19,1.06.19,1.56,0,.17-.07.24-.22.24-.36,0-1.08-.48-1.27-.62-1.03-.72-1.63-1.9-2.02-3.1-.77-2.28-2.54-3.65-4.46-3.65-.19,0-.77.02-.96.05.6.82,1.32,2.18,1.32,4.27,0,.79-.12,1.61-.12,2.4,0,.12,1.06.14,1.18.14.91,0,1.22-.62,1.22-1.42,0-.86-.36-1.39-.91-2.11,0-.02-.02-.1-.02-.12,0-.26.22-.48.41-.48.02,0,.05.02.07.02.89.34,1.3,2.06,1.3,3.02,0,.72-.24,1.06-.24,1.49,0,.72.19,1.87.19,2.57,0,.65-.41,1.68-1.2,1.68-.14,0-.41-.05-.41-.24,0-.29.29-.62.29-.94,0-.91-1.15-1.87-2.16-1.94-.17.84-.19,1.58-.19,2.45,0,1.78.7,3.82,2.71,4.08,0-2.16,1.37-3.79,2.95-4.82.5-.31,1.15-.48,1.73-.48s1.22.41,1.22,1.61c0,.82-.31,1.58-.31,2.4v.12s.02.07.02.1c.12.41.29.96.29,1.75,0,.98-.72,1.44-1.73,1.44h-4.1c-1.1,0-1.87-.77-2.35-1.13-.5.55-1.27,1.1-2.06,1.1-.74,0-1.7.02-2.64.02-.6,0-1.18-.05-1.66-.22-.86-.31-1.58-1.46-1.58-2.4,0-5.14,2.71-6.98,2.71-11.47Z"/><g class="cls-5"><path class="cls-9" d="M50.61,329.36c.83-2.4,1.98-4.79,1.98-7.52v-1.07c-.33-5.13-2.81-6.04-3.55-6.12-.74-.08-1.65-.08-1.65-.08-.5-.08-.58-.25-.58-.74,0-.25.16-.41.82-.5.66-.08,3.06-.08,4.22-.08h6.94c10.17,0,11.49,1.57,15.71,11.83,4.88,11.91,5.95,24.14,14.64,35.63,2.07,2.73,3.8,3.89,3.8,7.61,0,2.98-1.32,4.8-4.71,4.8h-17.61c-8.02,0-10.09-11.66-10.91-16.78-1.08-.08-2.07-.08-2.98-.08-1.9,0-3.72.08-5.79.08-5.21,0-10.17.91-10.17,6.78,0,1.9.25,3.8.25,5.79,0,2.48-.91,4.38-3.39,4.38-5.37,0-7.77,0-7.77-4.96.08-11.82,14.63-21.75,20.75-38.94M51.36,351.85c3.22,0,6.45,0,7.86-.25v-1.74c0-9.1-2.89-21.58-5.29-24.56-1.98,8.02-2.89,8.43-10.5,26.46,1.41.08,4.71.08,7.94.08"/><path class="cls-9" d="M131.32,313.99c-7.11,0-13.23,5.46-17.2,10.75-2.56,3.47-4.79,7.36-8.68,9.59-.5.25-1.07.66-1.57.66s-.83-.41-.83-1.82c0-4.14,1.99-7.94,1.99-12.07,0-2.4-.75-4.71-1.82-6.86,0-.91,1.32-1.16,2.73-1.16,10.75,0,21.5-.08,33.98-.08h9.67c3.22,0,4.22,3.72,4.22,6.86,0,6.95-3.8,13.23-24.47,34.72-1.74,1.74-5.04,5.71-5.04,8.68,0,2.48,2.23,4.63,4.8,4.63,11.33,0,8.27-17.2,20.42-17.2,4.96,0,5.95,1.98,5.95,4.88,0,2.15-.58,4.88-.58,7.61,0,1.9.41,3.72.41,5.62,0,2.23-1.57,4.63-4.05,4.63h-13.56c-11.57,0-12.32-.33-16.04-3.31-2.31,1.16-3.14,3.31-6.28,3.31h-8.1c-3.47-.25-5.29-4.47-5.29-4.47-.66-1.65-.99-3.39-.99-5.21,0-5.04,2.4-10.42,5.29-14.47,2.65-4.38,13.97-13.06,19.35-17.11l1.07-.75c4.05-2.98,11.16-7.11,11.16-12.73,0-4.05-3.23-4.71-6.53-4.71"/><path class="cls-9" d="M166.38,354.42c0-9.67,7.28-19.51,7.28-30.51-.25-3.39-.83-7.53-4.63-9.01-.41-.16-.82-.25-3.89-.25-.58,0-.74-.33-.74-.58,0-.41.08-.83.5-.83,2.98,0,16.12,0,21.83-.08.91.16,3.64,4.79,4.05,5.54,1.98,3.22,2.64,7.36,2.64,11.74,0,9.26-2.97,20.01-2.97,26.95,0,4.47,1.24,7.36,5.29,7.36,9.84,0,13.56-15.38,13.56-23.73,0-4.96-.74-11.33-2.23-16.87-.91-3.31-2.15-6.7-4.88-8.68-1.57-1.07-2.56-.74-3.8-1.07-.17-.17-.17-.83-.17-.91,0-.25.66-.33,1.74-.33,2.4,0,6.86.08,10.67.08,1.16,0,2.15-.08,3.47-.08.99,0,2.15.58,2.15,1.16,0,.08,0,.17-.08.25-.08.08-.17.08-3.64.08-1.16,0-3.55,1.16-4.05,4.3v.33c0,3.72,5.87,18.02,5.87,27.7,0,3.22-.41,6.45-1.41,9.51-3.23,10.17-11.66,17.53-21.99,17.53-17.78,0-24.56-3.97-24.56-19.6"/><path class="cls-9" d="M223.69,360.78c0-11.16,9.84-22.82,9.84-34.15,0-3.8-.41-9.43-4.55-11.41-.83-.41-5.38.08-5.29-1.24,0-.58.58-.66,1.32-.66,9.43,0,18.93-.17,30.1-.17,2.81,0,4.88,0,7.03.17,7.53.41,20.17,4.88,20.84,18.19v.58c0,6.7-7.03,8.52-12.82,10.91,5.79,2.56,12.24,7.03,12.65,13.48.17,2.81,1.49,4.88,2.65,6.04,1.82,1.82,1.98,3.8,1.98,5.21-.08,5.29-5.87,5.54-12.07,5.54-3.89,0-7.28-.5-9.92-.83-.17,0-.41-.08-.58-.08-4.63-.58-6.45-6.04-6.45-10.58,0-3.14,1.07-6.7,1.07-10,0-5.46-4.55-8.6-8.1-8.6-.33,0-.66,0-1.07.17-1.16,3.22-1.32,6.53-1.32,9.92,0,4.79,2.07,9.18,2.07,14.06,0,5.62-1.08,5.95-10.91,5.95-1.49,0-3.06.08-4.55.08-1.32,0-2.81-.08-4.22-.25-2.97-.25-5.46-2.98-6.53-5.62-.99-1.99-1.16-4.55-1.16-6.7M255.36,340.03c2.4,0,4.13-1.49,4.8-4.13.33-1.32.5-2.89.5-4.63,0-6.37-3.47-14.55-10-14.55h-.33c-.58,0-1.4.08-1.4.74,1.98,5.04,2.48,8.19,2.48,11.49,0,2.81-.33,5.87-.41,10.33,1.16.5,3.31.74,4.38.74"/><path class="cls-9" d="M295.05,359.13c1.49-16.78,8.93-21.33,8.93-35.06,0-2.89-.74-7.03-4.46-7.03-1.24,0-1.99.41-3.06.41-.41,0-.58-.16-.58-.99,0-1.16,3.72-2.07,5.62-2.07,1.57,0,3.06.41,4.63.41,2.07,0,3.47-1.65,5.21-1.65,4.71,0,8.35,11.82,9.01,14.88.33,1.49.5,3.14.5,4.71,0,2.32-.16,4.71-.25,7.28v.66c0,7.36,2.65,11.82,2.65,18.19,0,8.68-5.38,14.55-15.63,14.55-6.78,0-12.57-4.3-12.57-14.3"/></g><g class="cls-8"><path class="cls-2" d="M49.7,251.57c.83-2.41,2-4.83,2-7.58v-1.08c-.33-5.17-2.83-6.08-3.58-6.16-.75-.08-1.67-.08-1.67-.08-.5-.08-.58-.25-.58-.75,0-.25.17-.41.83-.5.67-.08,3.08-.08,4.25-.08h6.99c10.25,0,11.58,1.58,15.82,11.91,4.91,11.99,5.99,24.32,14.74,35.89,2.08,2.75,3.83,3.91,3.83,7.66,0,3-1.34,4.83-4.75,4.83h-17.74c-8.08,0-10.16-11.74-10.99-16.9-1.08-.08-2.08-.08-3-.08-1.91,0-3.75.08-5.83.08-5.25,0-10.25.91-10.25,6.83,0,1.92.25,3.83.25,5.83,0,2.5-.92,4.41-3.42,4.41-5.41,0-7.83,0-7.83-5,.08-11.91,14.74-21.9,20.9-39.23M50.45,274.23c3.25,0,6.5,0,7.91-.25v-1.75c0-9.16-2.92-21.74-5.33-24.74-2,8.08-2.91,8.49-10.58,26.65,1.42.08,4.75.08,8,.08"/><path class="cls-2" d="M130.99,236.08c-7.16,0-13.33,5.5-17.32,10.83-2.58,3.5-4.83,7.41-8.74,9.66-.5.25-1.08.67-1.58.67s-.83-.42-.83-1.83c0-4.16,2-8,2-12.16,0-2.41-.75-4.75-1.83-6.91,0-.91,1.33-1.16,2.75-1.16,10.83,0,21.65-.09,34.23-.09h9.74c3.25,0,4.25,3.75,4.25,6.91,0,7-3.83,13.33-24.65,34.98-1.75,1.75-5.08,5.75-5.08,8.74,0,2.5,2.25,4.66,4.83,4.66,11.41,0,8.33-17.32,20.57-17.32,5,0,6,2,6,4.91,0,2.17-.58,4.91-.58,7.66,0,1.91.41,3.75.41,5.66,0,2.25-1.58,4.66-4.08,4.66h-13.66c-11.66,0-12.41-.34-16.16-3.33-2.33,1.17-3.16,3.33-6.33,3.33h-8.16c-3.5-.25-5.33-4.5-5.33-4.5-.67-1.66-1-3.41-1-5.25,0-5.08,2.42-10.49,5.33-14.57,2.66-4.41,14.07-13.16,19.49-17.24l1.08-.75c4.08-3,11.24-7.16,11.24-12.83,0-4.08-3.25-4.75-6.58-4.75"/><path class="cls-2" d="M166.31,276.81c0-9.74,7.33-19.65,7.33-30.73-.25-3.41-.83-7.58-4.66-9.08-.42-.17-.83-.25-3.91-.25-.58,0-.75-.33-.75-.58,0-.41.08-.83.5-.83,3,0,16.24,0,21.99-.08.92.17,3.67,4.83,4.08,5.58,2,3.25,2.66,7.41,2.66,11.83,0,9.33-3,20.15-3,27.15,0,4.5,1.25,7.41,5.33,7.41,9.91,0,13.66-15.49,13.66-23.9,0-5-.75-11.41-2.25-16.99-.92-3.33-2.16-6.75-4.91-8.74-1.58-1.08-2.58-.75-3.83-1.08-.17-.17-.17-.83-.17-.92,0-.25.67-.33,1.75-.33,2.41,0,6.91.08,10.74.08,1.16,0,2.17-.08,3.5-.08,1,0,2.16.58,2.16,1.16,0,.09,0,.17-.08.25s-.17.08-3.66.08c-1.17,0-3.58,1.17-4.08,4.33v.33c0,3.75,5.91,18.15,5.91,27.9,0,3.25-.42,6.49-1.42,9.58-3.25,10.24-11.74,17.65-22.15,17.65-17.91,0-24.74-4-24.74-19.74"/><path class="cls-2" d="M224.03,283.22c0-11.24,9.91-22.98,9.91-34.39,0-3.83-.42-9.5-4.58-11.49-.83-.42-5.41.08-5.33-1.25,0-.58.58-.67,1.33-.67,9.49,0,19.07-.17,30.32-.17,2.83,0,4.91,0,7.08.17,7.58.42,20.32,4.91,20.99,18.32v.58c0,6.75-7.08,8.58-12.91,10.99,5.83,2.58,12.33,7.08,12.74,13.57.17,2.83,1.5,4.91,2.66,6.08,1.83,1.83,2,3.83,2,5.25-.08,5.33-5.91,5.58-12.16,5.58-3.91,0-7.33-.5-9.99-.83-.17,0-.42-.08-.58-.08-4.66-.58-6.5-6.08-6.5-10.66,0-3.16,1.08-6.75,1.08-10.08,0-5.5-4.58-8.66-8.16-8.66-.33,0-.67,0-1.08.17-1.17,3.25-1.33,6.58-1.33,10,0,4.83,2.08,9.24,2.08,14.16,0,5.66-1.08,6-10.99,6-1.5,0-3.08.08-4.58.08-1.33,0-2.83-.08-4.25-.25-3-.25-5.5-3-6.58-5.66-1-2-1.17-4.58-1.17-6.75M255.93,262.32c2.41,0,4.16-1.5,4.83-4.16.33-1.33.5-2.91.5-4.66,0-6.41-3.5-14.66-10.08-14.66h-.33c-.58,0-1.42.09-1.42.75,2,5.08,2.5,8.25,2.5,11.58,0,2.83-.33,5.91-.42,10.41,1.17.5,3.33.75,4.41.75"/><path class="cls-2" d="M295.91,281.55c1.5-16.91,8.99-21.49,8.99-35.31,0-2.92-.75-7.08-4.49-7.08-1.25,0-2,.42-3.08.42-.42,0-.58-.17-.58-1,0-1.16,3.75-2.08,5.66-2.08,1.58,0,3.08.41,4.66.41,2.08,0,3.5-1.66,5.25-1.66,4.75,0,8.41,11.91,9.08,14.99.34,1.5.5,3.16.5,4.75,0,2.33-.16,4.75-.25,7.33v.66c0,7.41,2.67,11.91,2.67,18.32,0,8.74-5.41,14.66-15.74,14.66-6.83,0-12.66-4.33-12.66-14.41"/></g><g class="cls-7"><path class="cls-3" d="M49.7,406.95c.83-2.42,2-4.83,2-7.58v-1.08c-.33-5.17-2.83-6.08-3.58-6.16-.75-.08-1.67-.08-1.67-.08-.5-.08-.58-.25-.58-.75,0-.25.17-.41.83-.5.67-.09,3.08-.09,4.25-.09h6.99c10.25,0,11.58,1.58,15.82,11.91,4.91,11.99,5.99,24.32,14.74,35.89,2.08,2.75,3.83,3.91,3.83,7.66,0,3-1.34,4.83-4.75,4.83h-17.74c-8.08,0-10.16-11.74-10.99-16.9-1.08-.08-2.08-.08-3-.08-1.91,0-3.75.08-5.83.08-5.25,0-10.25.91-10.25,6.83,0,1.92.25,3.83.25,5.83,0,2.5-.92,4.41-3.42,4.41-5.41,0-7.83,0-7.83-5,.08-11.91,14.74-21.9,20.9-39.22M50.45,429.6c3.25,0,6.5,0,7.91-.25v-1.75c0-9.16-2.92-21.74-5.33-24.74-2,8.08-2.91,8.49-10.58,26.65,1.42.08,4.75.08,8,.08"/><path class="cls-3" d="M130.99,391.46c-7.16,0-13.33,5.5-17.32,10.83-2.58,3.5-4.83,7.41-8.74,9.66-.5.25-1.08.67-1.58.67s-.83-.42-.83-1.83c0-4.16,2-8,2-12.16,0-2.41-.75-4.75-1.83-6.91,0-.91,1.33-1.16,2.75-1.16,10.83,0,21.65-.09,34.23-.09h9.74c3.25,0,4.25,3.75,4.25,6.91,0,7-3.83,13.33-24.65,34.98-1.75,1.75-5.08,5.75-5.08,8.74,0,2.5,2.25,4.66,4.83,4.66,11.41,0,8.33-17.32,20.57-17.32,5,0,6,2,6,4.91,0,2.17-.58,4.91-.58,7.66,0,1.91.41,3.75.41,5.66,0,2.25-1.58,4.67-4.08,4.67h-13.66c-11.66,0-12.41-.34-16.16-3.33-2.33,1.17-3.16,3.33-6.33,3.33h-8.16c-3.5-.25-5.33-4.5-5.33-4.5-.67-1.66-1-3.42-1-5.25,0-5.08,2.42-10.49,5.33-14.57,2.66-4.41,14.07-13.16,19.49-17.24l1.08-.75c4.08-3,11.24-7.16,11.24-12.83,0-4.08-3.25-4.75-6.58-4.75"/><path class="cls-3" d="M166.31,432.18c0-9.74,7.33-19.66,7.33-30.73-.25-3.42-.83-7.58-4.66-9.08-.42-.17-.83-.25-3.91-.25-.58,0-.75-.33-.75-.58,0-.42.08-.83.5-.83,3,0,16.24,0,21.99-.08.92.17,3.67,4.83,4.08,5.58,2,3.25,2.66,7.41,2.66,11.83,0,9.33-3,20.15-3,27.15,0,4.5,1.25,7.41,5.33,7.41,9.91,0,13.66-15.49,13.66-23.9,0-5-.75-11.41-2.25-16.99-.92-3.33-2.16-6.75-4.91-8.74-1.58-1.08-2.58-.75-3.83-1.08-.17-.17-.17-.83-.17-.92,0-.25.67-.33,1.75-.33,2.41,0,6.91.08,10.74.08,1.16,0,2.17-.08,3.5-.08,1,0,2.16.58,2.16,1.17,0,.08,0,.17-.08.25-.08.08-.17.08-3.66.08-1.17,0-3.58,1.16-4.08,4.33v.33c0,3.75,5.91,18.15,5.91,27.9,0,3.25-.42,6.49-1.42,9.58-3.25,10.24-11.74,17.65-22.15,17.65-17.91,0-24.74-4-24.74-19.74"/><path class="cls-3" d="M224.03,438.6c0-11.24,9.91-22.98,9.91-34.39,0-3.83-.42-9.5-4.58-11.49-.83-.42-5.41.08-5.33-1.25,0-.58.58-.67,1.33-.67,9.49,0,19.07-.17,30.32-.17,2.83,0,4.91,0,7.08.17,7.58.42,20.32,4.91,20.99,18.32v.58c0,6.75-7.08,8.58-12.91,10.99,5.83,2.58,12.33,7.08,12.74,13.57.17,2.83,1.5,4.91,2.66,6.08,1.83,1.83,2,3.83,2,5.25-.08,5.33-5.91,5.58-12.16,5.58-3.91,0-7.33-.5-9.99-.83-.17,0-.42-.08-.58-.08-4.66-.58-6.5-6.08-6.5-10.66,0-3.16,1.08-6.75,1.08-10.08,0-5.5-4.58-8.66-8.16-8.66-.33,0-.67,0-1.08.17-1.17,3.25-1.33,6.58-1.33,10,0,4.83,2.08,9.24,2.08,14.16,0,5.66-1.08,6-10.99,6-1.5,0-3.08.08-4.58.08-1.33,0-2.83-.08-4.25-.25-3-.25-5.5-3-6.58-5.66-1-2-1.17-4.58-1.17-6.75M255.93,417.69c2.41,0,4.16-1.5,4.83-4.16.33-1.33.5-2.92.5-4.66,0-6.41-3.5-14.66-10.08-14.66h-.33c-.58,0-1.42.08-1.42.75,2,5.08,2.5,8.25,2.5,11.58,0,2.83-.33,5.91-.42,10.41,1.17.5,3.33.75,4.41.75"/><path class="cls-3" d="M295.91,436.93c1.5-16.91,8.99-21.49,8.99-35.31,0-2.92-.75-7.08-4.49-7.08-1.25,0-2,.42-3.08.42-.42,0-.58-.17-.58-1,0-1.17,3.75-2.08,5.66-2.08,1.58,0,3.08.42,4.66.42,2.08,0,3.5-1.67,5.25-1.67,4.75,0,8.41,11.91,9.08,14.99.34,1.5.5,3.17.5,4.75,0,2.33-.16,4.75-.25,7.33v.67c0,7.41,2.67,11.91,2.67,18.32,0,8.74-5.41,14.66-15.74,14.66-6.83,0-12.66-4.33-12.66-14.41"/></g></g></svg>