<?xml version="1.0" encoding="UTF-8"?><svg id="Layer_2" xmlns="http://www.w3.org/2000/svg" xmlns:xlink="http://www.w3.org/1999/xlink" viewBox="0 0 546 284"><defs><style>.cls-1{fill:#f8f3dd;}.cls-2{fill:#f8f3de;}.cls-3{fill:url(#linear-gradient);}</style><linearGradient id="linear-gradient" x1="-9.73" y1="-74.81" x2="520.32" y2="331.65" gradientUnits="userSpaceOnUse"><stop offset="0" stop-color="#f05f6f"/><stop offset=".07" stop-color="#f16a6f"/><stop offset=".35" stop-color="#f5906f"/><stop offset=".6" stop-color="#f9ab70"/><stop offset=".83" stop-color="#fbbc70"/><stop offset="1" stop-color="#fcc271"/></linearGradient></defs><g id="Layer_1-2"><rect class="cls-3" width="546" height="284"/><path class="cls-1" d="M148.33,135.98c.82-2.37,1.96-4.75,1.96-7.45v-1.06c-.33-5.08-2.78-5.98-3.52-6.06-.74-.08-1.64-.08-1.64-.08-.49-.08-.57-.25-.57-.74,0-.24.16-.41.82-.49.66-.08,3.03-.08,4.17-.08h6.87c10.07,0,11.38,1.56,15.55,11.7,4.83,11.79,5.89,23.9,14.49,35.28,2.05,2.7,3.76,3.85,3.76,7.53,0,2.95-1.31,4.75-4.67,4.75h-17.43c-7.94,0-9.99-11.54-10.8-16.61-1.06-.08-2.05-.08-2.95-.08-1.88,0-3.68.08-5.73.08-5.16,0-10.07.9-10.07,6.71,0,1.88.25,3.76.25,5.73,0,2.45-.9,4.34-3.36,4.34-5.32,0-7.69,0-7.69-4.91.08-11.7,14.49-21.53,20.54-38.55ZM149.06,158.25c3.19,0,6.39,0,7.78-.25v-1.72c0-9-2.86-21.36-5.24-24.31-1.97,7.94-2.86,8.35-10.4,26.19,1.39.08,4.67.08,7.86.08Z"/><path class="cls-1" d="M228.22,120.76c-7.04,0-13.1,5.4-17.02,10.64-2.54,3.44-4.75,7.28-8.59,9.49-.49.25-1.06.65-1.56.65s-.82-.41-.82-1.8c0-4.09,1.96-7.86,1.96-11.95,0-2.37-.74-4.67-1.8-6.79,0-.9,1.31-1.15,2.7-1.15,10.64,0,21.28-.08,33.64-.08h9.58c3.19,0,4.17,3.68,4.17,6.79,0,6.88-3.77,13.1-24.23,34.38-1.72,1.72-4.99,5.65-4.99,8.59,0,2.46,2.21,4.58,4.75,4.58,11.21,0,8.19-17.02,20.22-17.02,4.91,0,5.89,1.96,5.89,4.83,0,2.13-.57,4.83-.57,7.53,0,1.88.41,3.68.41,5.57,0,2.21-1.55,4.58-4.01,4.58h-13.42c-11.46,0-12.19-.33-15.88-3.27-2.29,1.15-3.11,3.27-6.22,3.27h-8.02c-3.44-.25-5.24-4.42-5.24-4.42-.66-1.64-.98-3.36-.98-5.16,0-4.99,2.37-10.31,5.24-14.32,2.62-4.34,13.83-12.93,19.15-16.94l1.06-.74c4.01-2.95,11.05-7.04,11.05-12.6,0-4.01-3.19-4.67-6.47-4.67Z"/><path class="cls-1" d="M262.93,160.78c0-9.58,7.2-19.32,7.2-30.2-.25-3.36-.82-7.45-4.58-8.92-.41-.16-.82-.24-3.85-.24-.57,0-.74-.33-.74-.57,0-.41.08-.82.49-.82,2.95,0,15.96,0,21.61-.08.9.16,3.6,4.75,4.01,5.48,1.96,3.19,2.62,7.28,2.62,11.62,0,9.17-2.95,19.81-2.95,26.68,0,4.42,1.23,7.28,5.24,7.28,9.74,0,13.42-15.22,13.42-23.49,0-4.91-.74-11.21-2.21-16.7-.9-3.27-2.13-6.63-4.83-8.59-1.56-1.06-2.54-.74-3.76-1.06-.16-.16-.16-.82-.16-.9,0-.25.66-.33,1.72-.33,2.37,0,6.79.08,10.56.08,1.15,0,2.13-.08,3.44-.08.98,0,2.13.57,2.13,1.15,0,.08,0,.16-.08.25s-.16.08-3.6.08c-1.15,0-3.52,1.15-4.01,4.26v.33c0,3.68,5.81,17.84,5.81,27.42,0,3.19-.41,6.38-1.39,9.41-3.19,10.07-11.54,17.35-21.77,17.35-17.6,0-24.31-3.93-24.31-19.4Z"/><path class="cls-1" d="M319.66,167.09c0-11.05,9.74-22.59,9.74-33.8,0-3.77-.41-9.33-4.5-11.29-.82-.41-5.32.08-5.24-1.23,0-.57.57-.65,1.31-.65,9.33,0,18.74-.16,29.79-.16,2.78,0,4.83,0,6.96.16,7.45.41,19.97,4.83,20.63,18.01v.57c0,6.63-6.96,8.43-12.69,10.8,5.73,2.54,12.11,6.96,12.52,13.34.16,2.78,1.47,4.83,2.62,5.97,1.8,1.8,1.96,3.77,1.96,5.16-.08,5.24-5.81,5.48-11.95,5.48-3.85,0-7.2-.49-9.82-.82-.16,0-.41-.08-.57-.08-4.58-.57-6.38-5.98-6.38-10.48,0-3.11,1.06-6.63,1.06-9.9,0-5.4-4.5-8.51-8.02-8.51-.33,0-.65,0-1.06.16-1.15,3.19-1.31,6.47-1.31,9.82,0,4.75,2.05,9.08,2.05,13.91,0,5.57-1.06,5.89-10.8,5.89-1.47,0-3.03.08-4.5.08-1.31,0-2.78-.08-4.17-.25-2.94-.24-5.4-2.95-6.46-5.57-.98-1.96-1.15-4.5-1.15-6.63ZM351.01,146.54c2.37,0,4.09-1.47,4.75-4.09.33-1.31.49-2.86.49-4.58,0-6.3-3.44-14.41-9.9-14.41h-.33c-.57,0-1.39.08-1.39.74,1.96,4.99,2.45,8.1,2.45,11.38,0,2.78-.33,5.81-.41,10.23,1.15.49,3.27.74,4.34.74Z"/><path class="cls-1" d="M390.3,165.45c1.47-16.62,8.84-21.12,8.84-34.7,0-2.86-.74-6.96-4.42-6.96-1.23,0-1.97.41-3.03.41-.41,0-.57-.16-.57-.98,0-1.15,3.68-2.05,5.57-2.05,1.55,0,3.03.41,4.58.41,2.05,0,3.44-1.64,5.16-1.64,4.67,0,8.27,11.7,8.92,14.73.33,1.47.49,3.11.49,4.67,0,2.29-.16,4.67-.24,7.2v.65c0,7.28,2.62,11.7,2.62,18.01,0,8.59-5.32,14.41-15.47,14.41-6.71,0-12.44-4.26-12.44-14.16Z"/><path class="cls-2" d="M242.96,68.36c24.1-3.28,26.76-5.94,30.04-30.04,3.28,24.1,5.94,26.76,30.04,30.04-24.1,3.28-26.76,5.94-30.04,30.04-3.28-24.1-5.94-26.76-30.04-30.04Z"/><path class="cls-2" d="M242.96,68.36c24.1-3.28,26.76-5.94,30.04-30.04,3.28,24.1,5.94,26.76,30.04,30.04-24.1,3.28-26.76,5.94-30.04,30.04-3.28-24.1-5.94-26.76-30.04-30.04Z"/><path class="cls-2" d="M257.98,94.38c9.21-22.51,8.24-26.14-11-41.04,22.51,9.21,26.14,8.24,41.04-11-9.21,22.51-8.24,26.14,11,41.04-22.51-9.21-26.14-8.24-41.04,11Z"/><path class="cls-2" d="M246.98,83.38c19.24-14.89,20.21-18.52,11-41.04,14.89,19.24,18.52,20.21,41.04,11-19.24,14.89-20.21,18.52-11,41.04-14.89-19.24-18.52-20.21-41.04-11Z"/><circle class="cls-2" cx="273" cy="68.36" r="17.99"/><path class="cls-2" d="M247.67,237.87c-1.91,14.28,8.12,27.4,22.4,29.31,12.95,1.73,24.95-6.36,28.49-18.54-4.28,6.78-12.25,10.82-20.73,9.69-11.6-1.55-19.74-12.21-18.19-23.8,1.41-10.55,10.37-18.25,20.71-18.38-1.09-.3-2.22-.52-3.37-.68-14.28-1.91-27.4,8.12-29.31,22.4Z"/><path class="cls-2" d="M479.91,140.75c-9.35-2.08-10.29-3.77-11.45-20.54-1.16,16.77-2.1,18.46-11.45,20.54,9.35,2.08,10.29,3.77,11.45,20.54,1.16-16.77,2.1-18.46,11.45-20.54Z"/><path class="cls-2" d="M476.44,186.34c-4.1-.65-4.51-1.18-5.02-6.43-.51,5.25-.92,5.78-5.02,6.43,4.1.65,4.51,1.18,5.02,6.43.51-5.25.92-5.78,5.02-6.43Z"/><path class="cls-2" d="M450.73,113.79c4.1-.65,4.51-1.18,5.02-6.43.51,5.25.92,5.78,5.02,6.43-4.1.65-4.51,1.18-5.02,6.43-.51-5.25-.92-5.78-5.02-6.43Z"/><path class="cls-2" d="M492.47,159.26c4.1-.65,4.51-1.18,5.02-6.43.51,5.25.92,5.78,5.02,6.43-4.1.65-4.51,1.18-5.02,6.43-.51-5.25-.92-5.78-5.02-6.43Z"/><path class="cls-2" d="M107.95,118.03c-14.84-3.3-16.33-5.98-18.18-32.59-1.84,26.62-3.33,29.29-18.18,32.59,14.84,3.3,16.33,5.98,18.18,32.59,1.84-26.62,3.33-29.29,18.18-32.59Z"/><path class="cls-2" d="M67.51,165.16c-9.35-2.08-10.29-3.77-11.45-20.54-1.16,16.77-2.1,18.46-11.45,20.54,9.35,2.08,10.29,3.77,11.45,20.54,1.16-16.77,2.1-18.46,11.45-20.54Z"/><path class="cls-2" d="M64.04,73.25c-4.1-.65-4.51-1.18-5.02-6.43-.51,5.25-.92,5.78-5.02,6.43,4.1.65,4.51,1.18,5.02,6.43.51-5.25.92-5.78,5.02-6.43Z"/><path class="cls-2" d="M64.04,210.75c-4.1-.65-4.51-1.18-5.02-6.43-.51,5.25-.92,5.78-5.02,6.43,4.1.65,4.51,1.18,5.02,6.43.51-5.25.92-5.78,5.02-6.43Z"/><path class="cls-2" d="M44.26,119.58c4.1-.65,4.51-1.18,5.02-6.43.51,5.25.92,5.78,5.02,6.43-4.1.65-4.51,1.18-5.02,6.43-.51-5.25-.92-5.78-5.02-6.43Z"/><path class="cls-2" d="M80.07,183.67c4.1-.65,4.51-1.18,5.02-6.43.51,5.25.92,5.78,5.02,6.43-4.1.65-4.51,1.18-5.02,6.43-.51-5.25-.92-5.78-5.02-6.43Z"/></g></svg>