<?xml version="1.0" encoding="UTF-8"?><svg id="Layer_2" xmlns="http://www.w3.org/2000/svg" viewBox="0 0 100.34 100.34"><defs><style>.cls-1{fill:#282526;}</style></defs><g id="Layer_1-2"><path class="cls-1" d="M0,50.17C40.25,44.69,44.69,40.25,50.17,0c5.48,40.25,9.91,44.69,50.17,50.17-40.25,5.48-44.69,9.91-50.17,50.17C44.69,60.08,40.25,55.64,0,50.17Z"/><path class="cls-1" d="M0,50.17C40.25,44.69,44.69,40.25,50.17,0c5.48,40.25,9.91,44.69,50.17,50.17-40.25,5.48-44.69,9.91-50.17,50.17C44.69,60.08,40.25,55.64,0,50.17Z"/><path class="cls-1" d="M25.08,93.61c15.39-37.6,13.76-43.66-18.36-68.53,37.6,15.39,43.66,13.76,68.53-18.36-15.39,37.6-13.76,43.66,18.36,68.53-37.6-15.39-43.66-13.76-68.53,18.36Z"/><path class="cls-1" d="M6.72,75.25C38.85,50.38,40.47,44.32,25.08,6.72c24.87,32.12,30.93,33.75,68.53,18.36-32.12,24.87-33.75,30.93-18.36,68.53-24.87-32.12-30.93-33.75-68.53-18.36Z"/><circle class="cls-1" cx="50.17" cy="50.17" r="30.04"/></g></svg>