<?xml version="1.0" encoding="UTF-8"?><svg id="Layer_2" xmlns="http://www.w3.org/2000/svg" xmlns:xlink="http://www.w3.org/1999/xlink" viewBox="0 0 559.37 396.85"><defs><style>.cls-1{fill:#fff;}.cls-2{fill:url(#radial-gradient);}</style><radialGradient id="radial-gradient" cx="279.69" cy="198.43" fx="279.69" fy="198.43" r="242.48" gradientTransform="translate(81.26 478.11) rotate(-90)" gradientUnits="userSpaceOnUse"><stop offset=".01" stop-color="#ffe4c6"/><stop offset=".08" stop-color="#fae1c3"/><stop offset=".17" stop-color="#ebdbbd"/><stop offset=".27" stop-color="#d3d0b1"/><stop offset=".36" stop-color="#b3c2a2"/><stop offset=".39" stop-color="#a7bd9d"/><stop offset=".5" stop-color="#a9bca0"/><stop offset=".6" stop-color="#b1b9aa"/><stop offset=".68" stop-color="#beb4bb"/><stop offset=".76" stop-color="#d0aed2"/><stop offset=".82" stop-color="#d4b2d0"/><stop offset=".88" stop-color="#e0c0cd"/><stop offset=".96" stop-color="#f4d7c8"/><stop offset=".99" stop-color="#ffe4c6"/></radialGradient></defs><g id="Layer_1-2"><rect class="cls-2" x="81.26" y="-81.26" width="396.85" height="559.37" transform="translate(478.11 -81.26) rotate(90)"/><path class="cls-1" d="M201.05,186.04c.64-1.86,1.54-3.73,1.54-5.85v-.84c-.26-3.99-2.19-4.69-2.76-4.76-.58-.07-1.29-.07-1.29-.07-.39-.06-.45-.19-.45-.58,0-.19.13-.32.64-.38.51-.07,2.38-.07,3.28-.07h5.4c7.91,0,8.94,1.22,12.22,9.19,3.79,9.26,4.63,18.77,11.38,27.71,1.61,2.12,2.96,3.02,2.96,5.91,0,2.32-1.03,3.73-3.66,3.73h-13.69c-6.24,0-7.84-9.07-8.49-13.05-.84-.06-1.61-.06-2.31-.06-1.48,0-2.89.06-4.5.06-4.05,0-7.91.71-7.91,5.27,0,1.48.19,2.96.19,4.5,0,1.93-.71,3.41-2.64,3.41-4.18,0-6.04,0-6.04-3.86.07-9.19,11.38-16.91,16.14-30.28ZM201.62,203.52c2.51,0,5.02,0,6.11-.19v-1.35c0-7.07-2.25-16.78-4.11-19.1-1.54,6.24-2.25,6.56-8.17,20.57,1.09.06,3.66.06,6.17.06Z"/><path class="cls-1" d="M263.8,174.08c-5.53,0-10.29,4.24-13.37,8.36-1.99,2.7-3.73,5.72-6.75,7.46-.39.19-.84.51-1.22.51s-.64-.32-.64-1.41c0-3.22,1.54-6.17,1.54-9.39,0-1.86-.58-3.66-1.41-5.34,0-.71,1.03-.9,2.12-.9,8.36,0,16.72-.07,26.43-.07h7.52c2.51,0,3.28,2.89,3.28,5.34,0,5.4-2.96,10.29-19.03,27-1.35,1.35-3.92,4.44-3.92,6.75,0,1.93,1.74,3.6,3.73,3.6,8.81,0,6.43-13.37,15.88-13.37,3.86,0,4.63,1.54,4.63,3.79,0,1.67-.45,3.79-.45,5.92,0,1.48.32,2.89.32,4.37,0,1.74-1.22,3.6-3.15,3.6h-10.55c-9,0-9.58-.26-12.47-2.57-1.8.9-2.44,2.57-4.89,2.57h-6.3c-2.7-.19-4.11-3.47-4.11-3.47-.51-1.29-.77-2.64-.77-4.05,0-3.92,1.86-8.1,4.11-11.25,2.06-3.41,10.87-10.16,15.04-13.31l.84-.58c3.15-2.31,8.68-5.53,8.68-9.9,0-3.15-2.51-3.66-5.08-3.66Z"/><path class="cls-1" d="M291.07,205.52c0-7.52,5.66-15.17,5.66-23.72-.19-2.64-.64-5.85-3.6-7.01-.32-.13-.64-.19-3.02-.19-.45,0-.58-.26-.58-.45,0-.32.07-.64.39-.64,2.31,0,12.54,0,16.97-.06.71.13,2.83,3.73,3.15,4.31,1.54,2.51,2.06,5.72,2.06,9.13,0,7.2-2.31,15.56-2.31,20.96,0,3.47.96,5.72,4.11,5.72,7.65,0,10.54-11.96,10.54-18.45,0-3.86-.58-8.81-1.74-13.12-.71-2.57-1.67-5.21-3.79-6.75-1.22-.84-1.99-.58-2.96-.84-.13-.13-.13-.64-.13-.71,0-.19.51-.26,1.35-.26,1.86,0,5.34.06,8.29.06.9,0,1.67-.06,2.7-.06.77,0,1.67.45,1.67.9,0,.07,0,.13-.06.19s-.13.07-2.83.07c-.9,0-2.76.9-3.15,3.34v.26c0,2.89,4.56,14.02,4.56,21.54,0,2.51-.32,5.01-1.09,7.39-2.51,7.91-9.07,13.63-17.1,13.63-13.82,0-19.1-3.09-19.1-15.24Z"/><path class="cls-1" d="M335.63,210.47c0-8.68,7.65-17.74,7.65-26.55,0-2.96-.32-7.33-3.54-8.87-.64-.32-4.18.06-4.11-.96,0-.45.45-.51,1.03-.51,7.33,0,14.72-.13,23.4-.13,2.19,0,3.79,0,5.47.13,5.85.32,15.69,3.79,16.2,14.14v.45c0,5.21-5.47,6.62-9.97,8.49,4.5,1.99,9.52,5.46,9.84,10.48.13,2.19,1.16,3.79,2.06,4.69,1.41,1.41,1.54,2.96,1.54,4.05-.06,4.11-4.56,4.31-9.39,4.31-3.02,0-5.66-.39-7.71-.64-.13,0-.32-.06-.45-.06-3.6-.45-5.01-4.69-5.01-8.23,0-2.44.84-5.21.84-7.78,0-4.24-3.54-6.69-6.3-6.69-.26,0-.51,0-.84.13-.9,2.51-1.03,5.08-1.03,7.72,0,3.73,1.61,7.14,1.61,10.93,0,4.37-.84,4.63-8.49,4.63-1.16,0-2.38.06-3.54.06-1.03,0-2.19-.06-3.28-.19-2.31-.19-4.24-2.31-5.08-4.37-.77-1.54-.9-3.54-.9-5.21ZM360.26,194.33c1.86,0,3.22-1.16,3.73-3.22.26-1.03.38-2.25.38-3.6,0-4.95-2.7-11.32-7.78-11.32h-.26c-.45,0-1.09.07-1.09.58,1.54,3.92,1.93,6.37,1.93,8.94,0,2.19-.26,4.56-.32,8.04.9.39,2.57.58,3.41.58Z"/><path class="cls-1" d="M391.12,209.18c1.16-13.05,6.94-16.59,6.94-27.26,0-2.25-.58-5.46-3.47-5.46-.96,0-1.54.32-2.38.32-.32,0-.45-.13-.45-.77,0-.9,2.89-1.61,4.37-1.61,1.22,0,2.38.32,3.6.32,1.61,0,2.7-1.29,4.05-1.29,3.66,0,6.49,9.19,7.01,11.57.26,1.16.39,2.44.39,3.66,0,1.8-.13,3.66-.19,5.66v.51c0,5.72,2.06,9.19,2.06,14.14,0,6.75-4.18,11.32-12.15,11.32-5.27,0-9.77-3.34-9.77-11.12Z"/></g></svg>