<?xml version="1.0" encoding="UTF-8"?><svg id="Layer_2" xmlns="http://www.w3.org/2000/svg" xmlns:xlink="http://www.w3.org/1999/xlink" viewBox="0 0 1253.71 507.07"><defs><style>.cls-1{fill:#ffe4c6;}.cls-2,.cls-3,.cls-4,.cls-5{fill:#668458;}.cls-2,.cls-6,.cls-7,.cls-8{opacity:.8;}.cls-3,.cls-9,.cls-10,.cls-11{opacity:.6;}.cls-12,.cls-13,.cls-14,.cls-5{opacity:.4;}.cls-12,.cls-10,.cls-15,.cls-8{fill:#d0aed2;}.cls-16,.cls-6,.cls-13,.cls-11{fill:#fff;}.cls-17,.cls-9,.cls-7,.cls-14{fill:#182a18;}.cls-18{fill:#f8f3de;}.cls-19{fill:url(#linear-gradient);}</style><linearGradient id="linear-gradient" x1="-284.44" y1="253.53" x2="1725.95" y2="253.53" gradientUnits="userSpaceOnUse"><stop offset="0" stop-color="#579fd6"/><stop offset=".18" stop-color="#4c64af"/><stop offset=".29" stop-color="#46439a"/><stop offset=".52" stop-color="#2e2a6d"/><stop offset=".58" stop-color="#272360"/><stop offset=".65" stop-color="#292864"/><stop offset=".73" stop-color="#2e3773"/><stop offset=".81" stop-color="#38508b"/><stop offset=".9" stop-color="#4573ac"/><stop offset="1" stop-color="#579fd6"/></linearGradient></defs><g id="Layer_1-2"><rect class="cls-19" width="1253.71" height="507.07"/><path class="cls-13" d="M1108.61,33.2c-37.41,0-67.73,30.32-67.73,67.73s30.32,67.73,67.73,67.73,67.73-30.32,67.73-67.73-30.32-67.73-67.73-67.73ZM1108.61,155.03c-29.88,0-54.09-24.22-54.09-54.09s24.21-54.09,54.09-54.09,54.09,24.21,54.09,54.09-24.21,54.09-54.09,54.09Z"/><path class="cls-11" d="M1108.61,46.84c-29.88,0-54.09,24.21-54.09,54.09s24.21,54.09,54.09,54.09,54.09-24.22,54.09-54.09-24.21-54.09-54.09-54.09ZM1108.61,140.34c-21.77,0-39.41-17.64-39.41-39.41s17.64-39.41,39.41-39.41,39.41,17.64,39.41,39.41-17.64,39.41-39.41,39.41Z"/><path class="cls-6" d="M1108.61,61.53c-21.77,0-39.41,17.64-39.41,39.41s17.64,39.41,39.41,39.41,39.41-17.64,39.41-39.41-17.64-39.41-39.41-39.41ZM1108.61,125.01c-13.3,0-24.08-10.78-24.08-24.08s10.79-24.08,24.08-24.08,24.08,10.79,24.08,24.08-10.79,24.08-24.08,24.08Z"/><path class="cls-15" d="M37.06,228.82c31.32-4.26,34.77-7.71,39.03-39.03,4.26,31.32,7.71,34.77,39.03,39.03-31.32,4.26-34.77,7.71-39.03,39.03-4.26-31.32-7.71-34.77-39.03-39.03Z"/><path class="cls-15" d="M37.06,228.82c31.32-4.26,34.77-7.71,39.03-39.03,4.26,31.32,7.71,34.77,39.03,39.03-31.32,4.26-34.77,7.71-39.03,39.03-4.26-31.32-7.71-34.77-39.03-39.03Z"/><path class="cls-15" d="M56.58,262.63c11.97-29.25,10.71-33.97-14.29-53.32,29.25,11.97,33.97,10.71,53.32-14.29-11.97,29.25-10.71,33.97,14.29,53.32-29.25-11.97-33.97-10.71-53.32,14.29Z"/><path class="cls-15" d="M42.29,248.34c24.99-19.35,26.26-24.07,14.29-53.32,19.35,24.99,24.07,26.26,53.32,14.29-24.99,19.35-26.26,24.07-14.29,53.32-19.35-24.99-24.07-26.26-53.32-14.29Z"/><circle class="cls-15" cx="76.09" cy="228.82" r="23.37"/><path class="cls-15" d="M40.03,75.68c-2.51,18.76,10.67,36,29.43,38.5,17.02,2.27,32.78-8.35,37.43-24.35-5.63,8.91-16.1,14.22-27.23,12.73-15.23-2.04-25.93-16.03-23.9-31.27,1.85-13.86,13.62-23.97,27.2-24.14-1.44-.39-2.92-.69-4.43-.89-18.76-2.51-36,10.67-38.5,29.43Z"/><path class="cls-1" d="M154.39,228.82c31.32-4.26,34.77-7.71,39.03-39.03,4.26,31.32,7.71,34.77,39.03,39.03-31.32,4.26-34.77,7.71-39.03,39.03-4.26-31.32-7.71-34.77-39.03-39.03Z"/><path class="cls-1" d="M154.39,228.82c31.32-4.26,34.77-7.71,39.03-39.03,4.26,31.32,7.71,34.77,39.03,39.03-31.32,4.26-34.77,7.71-39.03,39.03-4.26-31.32-7.71-34.77-39.03-39.03Z"/><path class="cls-1" d="M173.91,262.63c11.97-29.25,10.71-33.97-14.29-53.32,29.25,11.97,33.97,10.71,53.32-14.29-11.97,29.25-10.71,33.97,14.29,53.32-29.25-11.97-33.97-10.71-53.32,14.29Z"/><path class="cls-1" d="M159.62,248.34c24.99-19.35,26.26-24.07,14.29-53.32,19.35,24.99,24.07,26.26,53.32,14.29-24.99,19.35-26.26,24.07-14.29,53.32-19.35-24.99-24.07-26.26-53.32-14.29Z"/><circle class="cls-1" cx="193.43" cy="228.82" r="23.37"/><path class="cls-1" d="M157.36,75.68c-2.51,18.76,10.67,36,29.43,38.5,17.02,2.27,32.78-8.35,37.43-24.35-5.63,8.91-16.1,14.22-27.23,12.73-15.23-2.04-25.93-16.03-23.9-31.27,1.85-13.86,13.62-23.97,27.2-24.14-1.44-.39-2.92-.69-4.43-.89-18.76-2.51-36,10.67-38.5,29.43Z"/><path class="cls-17" d="M271.73,228.82c31.32-4.26,34.77-7.71,39.03-39.03,4.26,31.32,7.71,34.77,39.03,39.03-31.32,4.26-34.77,7.71-39.03,39.03-4.26-31.32-7.71-34.77-39.03-39.03Z"/><path class="cls-17" d="M271.73,228.82c31.32-4.26,34.77-7.71,39.03-39.03,4.26,31.32,7.71,34.77,39.03,39.03-31.32,4.26-34.77,7.71-39.03,39.03-4.26-31.32-7.71-34.77-39.03-39.03Z"/><path class="cls-17" d="M291.24,262.63c11.97-29.25,10.71-33.97-14.29-53.32,29.25,11.97,33.97,10.71,53.32-14.29-11.97,29.25-10.71,33.97,14.29,53.32-29.25-11.97-33.97-10.71-53.32,14.29Z"/><path class="cls-17" d="M276.95,248.34c24.99-19.35,26.26-24.07,14.29-53.32,19.35,24.99,24.07,26.26,53.32,14.29-24.99,19.35-26.26,24.07-14.29,53.32-19.35-24.99-24.07-26.26-53.32-14.29Z"/><circle class="cls-17" cx="310.76" cy="228.82" r="23.37"/><path class="cls-17" d="M274.7,75.68c-2.51,18.76,10.67,36,29.43,38.5,17.02,2.27,32.78-8.35,37.43-24.35-5.63,8.91-16.1,14.22-27.23,12.73-15.23-2.04-25.93-16.03-23.9-31.27,1.85-13.86,13.62-23.97,27.2-24.14-1.44-.39-2.92-.69-4.43-.89-18.76-2.51-36,10.67-38.5,29.43Z"/><path class="cls-4" d="M389.06,228.82c31.32-4.26,34.77-7.71,39.03-39.03,4.26,31.32,7.71,34.77,39.03,39.03-31.32,4.26-34.77,7.71-39.03,39.03-4.26-31.32-7.71-34.77-39.03-39.03Z"/><path class="cls-4" d="M389.06,228.82c31.32-4.26,34.77-7.71,39.03-39.03,4.26,31.32,7.71,34.77,39.03,39.03-31.32,4.26-34.77,7.71-39.03,39.03-4.26-31.32-7.71-34.77-39.03-39.03Z"/><path class="cls-4" d="M408.58,262.63c11.97-29.25,10.71-33.97-14.29-53.32,29.25,11.97,33.97,10.71,53.32-14.29-11.97,29.25-10.71,33.97,14.29,53.32-29.25-11.97-33.97-10.71-53.32,14.29Z"/><path class="cls-4" d="M394.29,248.34c24.99-19.35,26.26-24.07,14.29-53.32,19.35,24.99,24.07,26.26,53.32,14.29-24.99,19.35-26.26,24.07-14.29,53.32-19.35-24.99-24.07-26.26-53.32-14.29Z"/><circle class="cls-4" cx="428.09" cy="228.82" r="23.37"/><path class="cls-4" d="M392.03,75.68c-2.51,18.76,10.67,36,29.43,38.5,17.02,2.27,32.78-8.35,37.43-24.35-5.63,8.91-16.1,14.22-27.23,12.73-15.23-2.04-25.93-16.03-23.9-31.27,1.85-13.86,13.62-23.97,27.2-24.14-1.44-.39-2.92-.69-4.43-.89-18.76-2.51-36,10.67-38.5,29.43Z"/><path class="cls-18" d="M500.84,228.82c31.32-4.26,34.77-7.71,39.03-39.03,4.26,31.32,7.71,34.77,39.03,39.03-31.32,4.26-34.77,7.71-39.03,39.03-4.26-31.32-7.71-34.77-39.03-39.03Z"/><path class="cls-18" d="M500.84,228.82c31.32-4.26,34.77-7.71,39.03-39.03,4.26,31.32,7.71,34.77,39.03,39.03-31.32,4.26-34.77,7.71-39.03,39.03-4.26-31.32-7.71-34.77-39.03-39.03Z"/><path class="cls-18" d="M520.35,262.63c11.97-29.25,10.71-33.97-14.29-53.32,29.25,11.97,33.97,10.71,53.32-14.29-11.97,29.25-10.71,33.97,14.29,53.32-29.25-11.97-33.97-10.71-53.32,14.29Z"/><path class="cls-18" d="M506.06,248.34c24.99-19.35,26.26-24.07,14.29-53.32,19.35,24.99,24.07,26.26,53.32,14.29-24.99,19.35-26.26,24.07-14.29,53.32-19.35-24.99-24.07-26.26-53.32-14.29Z"/><circle class="cls-18" cx="539.87" cy="228.82" r="23.37"/><path class="cls-18" d="M503.81,75.68c-2.51,18.76,10.67,36,29.43,38.5,17.02,2.27,32.78-8.35,37.43-24.35-5.63,8.91-16.1,14.22-27.23,12.73-15.23-2.04-25.93-16.03-23.9-31.27,1.85-13.86,13.62-23.97,27.2-24.14-1.44-.39-2.92-.69-4.43-.89-18.76-2.51-36,10.67-38.5,29.43Z"/><path class="cls-15" d="M102.96,371.72c-11.55-2.57-12.71-4.65-14.14-25.36-1.43,20.71-2.59,22.79-14.14,25.36,11.55,2.57,12.71,4.65,14.14,25.36,1.43-20.71,2.59-22.79,14.14-25.36Z"/><path class="cls-15" d="M71.49,408.39c-7.28-1.62-8.01-2.93-8.91-15.98-.9,13.05-1.63,14.36-8.91,15.98,7.28,1.62,8.01,2.93,8.91,15.98.9-13.05,1.63-14.36,8.91-15.98Z"/><path class="cls-15" d="M68.79,336.88c-3.19-.51-3.51-.92-3.9-5-.4,4.09-.72,4.5-3.9,5,3.19.51,3.51.92,3.9,5,.4-4.09.72-4.5,3.9-5Z"/><path class="cls-15" d="M68.79,443.86c-3.19-.51-3.51-.92-3.9-5-.4,4.09-.72,4.5-3.9,5,3.19.51,3.51.92,3.9,5,.4-4.09.72-4.5,3.9-5Z"/><path class="cls-15" d="M53.4,372.93c3.19-.51,3.51-.92,3.9-5,.4,4.09.72,4.5,3.9,5-3.19.51-3.51.92-3.9,5-.4-4.09-.72-4.5-3.9-5Z"/><path class="cls-15" d="M81.26,422.79c3.19-.51,3.51-.92,3.9-5,.4,4.09.72,4.5,3.9,5-3.19.51-3.51.92-3.9,5-.4-4.09-.72-4.5-3.9-5Z"/><path class="cls-1" d="M217.51,371.72c-11.55-2.57-12.71-4.65-14.14-25.36-1.43,20.71-2.59,22.79-14.14,25.36,11.55,2.57,12.71,4.65,14.14,25.36,1.43-20.71,2.59-22.79,14.14-25.36Z"/><path class="cls-1" d="M186.04,408.39c-7.28-1.62-8.01-2.93-8.91-15.98-.9,13.05-1.63,14.36-8.91,15.98,7.28,1.62,8.01,2.93,8.91,15.98.9-13.05,1.63-14.36,8.91-15.98Z"/><path class="cls-1" d="M183.34,336.88c-3.19-.51-3.51-.92-3.9-5-.4,4.09-.72,4.5-3.9,5,3.19.51,3.51.92,3.9,5,.4-4.09.72-4.5,3.9-5Z"/><path class="cls-1" d="M183.34,443.86c-3.19-.51-3.51-.92-3.9-5-.4,4.09-.72,4.5-3.9,5,3.19.51,3.51.92,3.9,5,.4-4.09.72-4.5,3.9-5Z"/><path class="cls-1" d="M167.95,372.93c3.19-.51,3.51-.92,3.9-5,.4,4.09.72,4.5,3.9,5-3.19.51-3.51.92-3.9,5-.4-4.09-.72-4.5-3.9-5Z"/><path class="cls-1" d="M195.81,422.79c3.19-.51,3.51-.92,3.9-5,.4,4.09.72,4.5,3.9,5-3.19.51-3.51.92-3.9,5-.4-4.09-.72-4.5-3.9-5Z"/><path class="cls-17" d="M332.06,371.72c-11.55-2.57-12.71-4.65-14.14-25.36-1.43,20.71-2.59,22.79-14.14,25.36,11.55,2.57,12.71,4.65,14.14,25.36,1.43-20.71,2.59-22.79,14.14-25.36Z"/><path class="cls-17" d="M300.59,408.39c-7.28-1.62-8.01-2.93-8.91-15.98-.9,13.05-1.63,14.36-8.91,15.98,7.28,1.62,8.01,2.93,8.91,15.98.9-13.05,1.63-14.36,8.91-15.98Z"/><path class="cls-17" d="M297.89,336.88c-3.19-.51-3.51-.92-3.9-5-.4,4.09-.72,4.5-3.9,5,3.19.51,3.51.92,3.9,5,.4-4.09.72-4.5,3.9-5Z"/><path class="cls-17" d="M297.89,443.86c-3.19-.51-3.51-.92-3.9-5-.4,4.09-.72,4.5-3.9,5,3.19.51,3.51.92,3.9,5,.4-4.09.72-4.5,3.9-5Z"/><path class="cls-17" d="M282.5,372.93c3.19-.51,3.51-.92,3.9-5,.4,4.09.72,4.5,3.9,5-3.19.51-3.51.92-3.9,5-.4-4.09-.72-4.5-3.9-5Z"/><path class="cls-17" d="M310.36,422.79c3.19-.51,3.51-.92,3.9-5,.4,4.09.72,4.5,3.9,5-3.19.51-3.51.92-3.9,5-.4-4.09-.72-4.5-3.9-5Z"/><path class="cls-4" d="M446.6,371.72c-11.55-2.57-12.71-4.65-14.14-25.36-1.43,20.71-2.59,22.79-14.14,25.36,11.55,2.57,12.71,4.65,14.14,25.36,1.43-20.71,2.59-22.79,14.14-25.36Z"/><path class="cls-4" d="M415.13,408.39c-7.28-1.62-8.01-2.93-8.91-15.98-.9,13.05-1.63,14.36-8.91,15.98,7.28,1.62,8.01,2.93,8.91,15.98.9-13.05,1.63-14.36,8.91-15.98Z"/><path class="cls-4" d="M412.43,336.88c-3.19-.51-3.51-.92-3.9-5-.4,4.09-.72,4.5-3.9,5,3.19.51,3.51.92,3.9,5,.4-4.09.72-4.5,3.9-5Z"/><path class="cls-4" d="M412.43,443.86c-3.19-.51-3.51-.92-3.9-5-.4,4.09-.72,4.5-3.9,5,3.19.51,3.51.92,3.9,5,.4-4.09.72-4.5,3.9-5Z"/><path class="cls-4" d="M397.05,372.93c3.19-.51,3.51-.92,3.9-5,.4,4.09.72,4.5,3.9,5-3.19.51-3.51.92-3.9,5-.4-4.09-.72-4.5-3.9-5Z"/><path class="cls-4" d="M424.9,422.79c3.19-.51,3.51-.92,3.9-5,.4,4.09.72,4.5,3.9,5-3.19.51-3.51.92-3.9,5-.4-4.09-.72-4.5-3.9-5Z"/><path class="cls-18" d="M561.15,371.72c-11.55-2.57-12.71-4.65-14.14-25.36-1.43,20.71-2.59,22.79-14.14,25.36,11.55,2.57,12.71,4.65,14.14,25.36,1.43-20.71,2.59-22.79,14.14-25.36Z"/><path class="cls-18" d="M529.68,408.39c-7.28-1.62-8.01-2.93-8.91-15.98-.9,13.05-1.63,14.36-8.91,15.98,7.28,1.62,8.01,2.93,8.91,15.98.9-13.05,1.63-14.36,8.91-15.98Z"/><path class="cls-18" d="M526.98,336.88c-3.19-.51-3.51-.92-3.9-5-.4,4.09-.72,4.5-3.9,5,3.19.51,3.51.92,3.9,5,.4-4.09.72-4.5,3.9-5Z"/><path class="cls-18" d="M526.98,443.86c-3.19-.51-3.51-.92-3.9-5-.4,4.09-.72,4.5-3.9,5,3.19.51,3.51.92,3.9,5,.4-4.09.72-4.5,3.9-5Z"/><path class="cls-18" d="M511.59,372.93c3.19-.51,3.51-.92,3.9-5,.4,4.09.72,4.5,3.9,5-3.19.51-3.51.92-3.9,5-.4-4.09-.72-4.5-3.9-5Z"/><path class="cls-18" d="M539.45,422.79c3.19-.51,3.51-.92,3.9-5,.4,4.09.72,4.5,3.9,5-3.19.51-3.51.92-3.9,5-.4-4.09-.72-4.5-3.9-5Z"/><path class="cls-14" d="M881.89,242.52h-20.17c0-40.65-33.07-73.71-73.71-73.71s-73.71,33.07-73.71,73.71h-20.17c0-51.85,42.03-93.88,93.88-93.88s93.88,42.03,93.88,93.88Z"/><path class="cls-9" d="M861.72,242.52h-20.17c0-29.53-24.02-53.55-53.54-53.55s-53.55,24.02-53.55,53.55h-20.17c0-40.65,33.07-73.71,73.71-73.71s73.71,33.07,73.71,73.71Z"/><path class="cls-7" d="M841.55,242.52h-20.17c0-18.41-14.97-33.38-33.38-33.38s-33.38,14.97-33.38,33.38h-20.17c0-29.53,24.02-53.55,53.55-53.55s53.54,24.02,53.54,53.55Z"/><path class="cls-17" d="M821.39,242.52h-66.76c0-18.41,14.98-33.38,33.38-33.38s33.38,14.97,33.38,33.38Z"/><path class="cls-5" d="M881.89,358.78h-20.17c0-40.65-33.07-73.71-73.71-73.71s-73.71,33.07-73.71,73.71h-20.17c0-51.85,42.03-93.88,93.88-93.88s93.88,42.03,93.88,93.88Z"/><path class="cls-3" d="M861.72,358.78h-20.17c0-29.53-24.02-53.55-53.54-53.55s-53.55,24.02-53.55,53.55h-20.17c0-40.65,33.07-73.71,73.71-73.71s73.71,33.07,73.71,73.71Z"/><path class="cls-2" d="M841.55,358.78h-20.17c0-18.41-14.97-33.38-33.38-33.38s-33.38,14.97-33.38,33.38h-20.17c0-29.53,24.02-53.55,53.55-53.55s53.54,24.02,53.54,53.55Z"/><path class="cls-4" d="M821.39,358.78h-66.76c0-18.41,14.98-33.38,33.38-33.38s33.38,14.97,33.38,33.38Z"/><path class="cls-12" d="M881.89,475.03h-20.17c0-40.65-33.07-73.71-73.71-73.71s-73.71,33.07-73.71,73.71h-20.17c0-51.85,42.03-93.88,93.88-93.88s93.88,42.03,93.88,93.88Z"/><path class="cls-10" d="M861.72,475.03h-20.17c0-29.53-24.02-53.55-53.54-53.55s-53.55,24.02-53.55,53.55h-20.17c0-40.65,33.07-73.71,73.71-73.71s73.71,33.07,73.71,73.71Z"/><path class="cls-8" d="M841.55,475.03h-20.17c0-18.41-14.97-33.38-33.38-33.38s-33.38,14.97-33.38,33.38h-20.17c0-29.53,24.02-53.55,53.55-53.55s53.54,24.02,53.54,53.55Z"/><path class="cls-15" d="M821.39,475.03h-66.76c0-18.41,14.98-33.38,33.38-33.38s33.38,14.97,33.38,33.38Z"/><path class="cls-13" d="M881.89,113.6h-20.17c0-40.65-33.07-73.71-73.71-73.71s-73.71,33.07-73.71,73.71h-20.17c0-51.85,42.03-93.88,93.88-93.88s93.88,42.03,93.88,93.88Z"/><path class="cls-11" d="M861.72,113.6h-20.17c0-29.53-24.02-53.55-53.54-53.55s-53.55,24.02-53.55,53.55h-20.17c0-40.65,33.07-73.71,73.71-73.71s73.71,33.07,73.71,73.71Z"/><path class="cls-6" d="M841.55,113.6h-20.17c0-18.41-14.97-33.38-33.38-33.38s-33.38,14.97-33.38,33.38h-20.17c0-29.53,24.02-53.55,53.55-53.55s53.54,24.02,53.54,53.55Z"/><path class="cls-16" d="M821.39,113.6h-66.76c0-18.41,14.98-33.38,33.38-33.38s33.38,14.97,33.38,33.38Z"/><path class="cls-17" d="M1003.66,337.4c3.22,0,3.22-5,0-5s-3.22,5,0,5h0Z"/><circle class="cls-16" cx="1108.61" cy="100.93" r="24.08" transform="translate(755.67 1156.69) rotate(-76.72)"/><path class="cls-12" d="M1108.61,327.03c-37.41,0-67.73,30.32-67.73,67.73s30.32,67.73,67.73,67.73,67.73-30.32,67.73-67.73-30.32-67.73-67.73-67.73ZM1108.61,448.86c-29.88,0-54.09-24.22-54.09-54.09s24.21-54.09,54.09-54.09,54.09,24.21,54.09,54.09-24.21,54.09-54.09,54.09Z"/><path class="cls-10" d="M1108.61,340.67c-29.88,0-54.09,24.21-54.09,54.09s24.21,54.09,54.09,54.09,54.09-24.22,54.09-54.09-24.21-54.09-54.09-54.09ZM1108.61,434.17c-21.77,0-39.41-17.64-39.41-39.41s17.64-39.41,39.41-39.41,39.41,17.64,39.41,39.41-17.64,39.41-39.41,39.41Z"/><path class="cls-8" d="M1108.61,355.36c-21.77,0-39.41,17.64-39.41,39.41s17.64,39.41,39.41,39.41,39.41-17.64,39.41-39.41-17.64-39.41-39.41-39.41ZM1108.61,418.84c-13.3,0-24.08-10.78-24.08-24.08s10.79-24.08,24.08-24.08,24.08,10.79,24.08,24.08-10.79,24.08-24.08,24.08Z"/><circle class="cls-15" cx="1108.61" cy="394.76" r="24.08" transform="translate(469.7 1383.01) rotate(-76.72)"/><path class="cls-5" d="M1108.61,180.52c-37.41,0-67.73,30.32-67.73,67.73s30.32,67.73,67.73,67.73,67.73-30.32,67.73-67.73-30.32-67.73-67.73-67.73ZM1108.61,302.35c-29.88,0-54.09-24.22-54.09-54.09s24.21-54.09,54.09-54.09,54.09,24.21,54.09,54.09-24.21,54.09-54.09,54.09Z"/><path class="cls-3" d="M1108.61,194.17c-29.88,0-54.09,24.21-54.09,54.09s24.21,54.09,54.09,54.09,54.09-24.22,54.09-54.09-24.21-54.09-54.09-54.09ZM1108.61,287.66c-21.77,0-39.41-17.64-39.41-39.41s17.64-39.41,39.41-39.41,39.41,17.64,39.41,39.41-17.64,39.41-39.41,39.41Z"/><path class="cls-2" d="M1108.61,208.85c-21.77,0-39.41,17.64-39.41,39.41s17.64,39.41,39.41,39.41,39.41-17.64,39.41-39.41-17.64-39.41-39.41-39.41ZM1108.61,272.33c-13.3,0-24.08-10.78-24.08-24.08s10.79-24.08,24.08-24.08,24.08,10.79,24.08,24.08-10.79,24.08-24.08,24.08Z"/><circle class="cls-4" cx="1108.61" cy="248.25" r="24.08" transform="translate(612.29 1270.17) rotate(-76.72)"/></g></svg>