<?xml version="1.0" encoding="UTF-8"?><svg id="Layer_2" xmlns="http://www.w3.org/2000/svg" viewBox="0 0 896.8 289.66"><defs><style>.cls-1{opacity:.4;}.cls-1,.cls-2,.cls-3,.cls-4{fill:#282525;}.cls-2{opacity:.6;}.cls-3{opacity:.8;}</style></defs><g id="Layer_1-2"><path class="cls-4" d="M13.8,136.09c.55-1.59,1.32-3.19,1.32-5v-.71c-.22-3.41-1.87-4.01-2.36-4.07-.5-.06-1.1-.06-1.1-.06-.33-.05-.38-.17-.38-.5,0-.16.11-.27.55-.33.44-.06,2.04-.06,2.8-.06h4.62c6.76,0,7.64,1.04,10.45,7.86,3.24,7.92,3.96,16.06,9.73,23.7,1.37,1.81,2.53,2.58,2.53,5.06,0,1.98-.88,3.19-3.13,3.19h-11.71c-5.33,0-6.71-7.75-7.26-11.16-.71-.05-1.38-.05-1.98-.05-1.26,0-2.47.05-3.85.05-3.46,0-6.76.6-6.76,4.51,0,1.26.17,2.53.17,3.85,0,1.65-.61,2.91-2.26,2.91-3.57,0-5.17,0-5.17-3.3.06-7.86,9.73-14.46,13.8-25.9ZM14.3,151.05c2.14,0,4.29,0,5.22-.17v-1.15c0-6.05-1.92-14.35-3.52-16.33-1.32,5.33-1.92,5.61-6.98,17.6.94.05,3.13.05,5.28.05Z"/><path class="cls-4" d="M67.48,125.86c-4.73,0-8.8,3.63-11.44,7.15-1.71,2.31-3.19,4.89-5.77,6.38-.33.17-.71.44-1.04.44s-.55-.27-.55-1.21c0-2.75,1.32-5.28,1.32-8.03,0-1.59-.5-3.13-1.21-4.56,0-.6.88-.77,1.81-.77,7.15,0,14.3-.06,22.6-.06h6.43c2.14,0,2.8,2.47,2.8,4.56,0,4.62-2.53,8.8-16.28,23.1-1.16,1.16-3.35,3.79-3.35,5.77,0,1.65,1.48,3.08,3.19,3.08,7.53,0,5.5-11.44,13.58-11.44,3.3,0,3.96,1.32,3.96,3.24,0,1.43-.38,3.25-.38,5.06,0,1.26.27,2.47.27,3.74,0,1.49-1.04,3.08-2.69,3.08h-9.02c-7.7,0-8.19-.22-10.67-2.2-1.54.77-2.09,2.2-4.18,2.2h-5.39c-2.31-.17-3.52-2.97-3.52-2.97-.44-1.1-.66-2.25-.66-3.46,0-3.35,1.59-6.93,3.52-9.62,1.76-2.91,9.29-8.69,12.87-11.38l.71-.5c2.69-1.98,7.42-4.73,7.42-8.47,0-2.69-2.15-3.13-4.35-3.13Z"/><path class="cls-4" d="M90.8,152.75c0-6.43,4.84-12.98,4.84-20.29-.17-2.25-.55-5-3.08-6-.27-.11-.55-.16-2.58-.16-.38,0-.5-.22-.5-.39,0-.27.06-.55.33-.55,1.98,0,10.72,0,14.52-.05.6.11,2.42,3.19,2.69,3.68,1.32,2.14,1.76,4.89,1.76,7.81,0,6.16-1.98,13.31-1.98,17.93,0,2.97.82,4.89,3.52,4.89,6.54,0,9.02-10.23,9.02-15.78,0-3.3-.5-7.53-1.49-11.22-.6-2.2-1.43-4.46-3.24-5.77-1.04-.71-1.71-.5-2.53-.71-.11-.11-.11-.55-.11-.61,0-.17.44-.22,1.16-.22,1.59,0,4.56.05,7.09.05.77,0,1.43-.05,2.31-.05.66,0,1.43.38,1.43.77,0,.06,0,.11-.05.17s-.11.06-2.42.06c-.77,0-2.36.77-2.69,2.86v.22c0,2.47,3.9,11.99,3.9,18.42,0,2.14-.28,4.29-.94,6.32-2.14,6.76-7.75,11.66-14.63,11.66-11.82,0-16.33-2.64-16.33-13.03Z"/><path class="cls-4" d="M128.92,156.98c0-7.42,6.54-15.18,6.54-22.71,0-2.53-.28-6.27-3.02-7.59-.55-.28-3.58.05-3.52-.83,0-.38.38-.44.88-.44,6.27,0,12.59-.11,20.02-.11,1.87,0,3.25,0,4.67.11,5,.27,13.42,3.24,13.86,12.1v.39c0,4.45-4.67,5.66-8.52,7.26,3.85,1.7,8.14,4.67,8.41,8.96.11,1.87.99,3.24,1.76,4.01,1.21,1.21,1.32,2.53,1.32,3.46-.05,3.52-3.9,3.68-8.03,3.68-2.58,0-4.84-.33-6.6-.55-.11,0-.28-.05-.39-.05-3.08-.38-4.29-4.01-4.29-7.04,0-2.09.71-4.46.71-6.65,0-3.63-3.02-5.72-5.39-5.72-.22,0-.44,0-.71.11-.77,2.14-.88,4.34-.88,6.6,0,3.19,1.38,6.1,1.38,9.35,0,3.74-.71,3.96-7.26,3.96-.99,0-2.04.05-3.03.05-.88,0-1.87-.05-2.8-.17-1.98-.16-3.63-1.98-4.34-3.74-.66-1.32-.77-3.02-.77-4.45ZM149.98,143.18c1.59,0,2.75-.99,3.19-2.75.22-.88.33-1.92.33-3.08,0-4.23-2.31-9.68-6.65-9.68h-.22c-.38,0-.93.06-.93.5,1.32,3.35,1.65,5.44,1.65,7.64,0,1.87-.22,3.9-.28,6.87.77.33,2.2.5,2.92.5Z"/><path class="cls-4" d="M176.38,155.89c.99-11.16,5.94-14.19,5.94-23.32,0-1.92-.49-4.67-2.97-4.67-.83,0-1.32.27-2.04.27-.28,0-.38-.11-.38-.66,0-.77,2.47-1.37,3.74-1.37,1.04,0,2.03.27,3.08.27,1.37,0,2.31-1.1,3.46-1.1,3.13,0,5.55,7.86,5.99,9.9.22.99.33,2.09.33,3.13,0,1.54-.11,3.13-.16,4.84v.44c0,4.89,1.76,7.86,1.76,12.1,0,5.77-3.58,9.68-10.39,9.68-4.51,0-8.36-2.86-8.36-9.51Z"/><path class="cls-4" d="M247.69,136.09c.55-1.59,1.32-3.19,1.32-5v-.71c-.22-3.41-1.87-4.01-2.36-4.07-.5-.06-1.1-.06-1.1-.06-.33-.05-.38-.17-.38-.5,0-.16.11-.27.55-.33.44-.06,2.04-.06,2.8-.06h4.62c6.76,0,7.64,1.04,10.45,7.86,3.24,7.92,3.96,16.06,9.73,23.7,1.37,1.81,2.53,2.58,2.53,5.06,0,1.98-.88,3.19-3.13,3.19h-11.71c-5.33,0-6.71-7.75-7.26-11.16-.71-.05-1.38-.05-1.98-.05-1.26,0-2.47.05-3.85.05-3.46,0-6.76.6-6.76,4.51,0,1.26.17,2.53.17,3.85,0,1.65-.61,2.91-2.26,2.91-3.57,0-5.17,0-5.17-3.3.06-7.86,9.73-14.46,13.8-25.9ZM248.18,151.05c2.14,0,4.29,0,5.22-.17v-1.15c0-6.05-1.92-14.35-3.52-16.33-1.32,5.33-1.92,5.61-6.98,17.6.94.05,3.13.05,5.28.05Z"/><path class="cls-4" d="M301.37,125.86c-4.73,0-8.8,3.63-11.44,7.15-1.71,2.31-3.19,4.89-5.77,6.38-.33.17-.71.44-1.04.44s-.55-.27-.55-1.21c0-2.75,1.32-5.28,1.32-8.03,0-1.59-.5-3.13-1.21-4.56,0-.6.88-.77,1.81-.77,7.15,0,14.3-.06,22.6-.06h6.43c2.14,0,2.8,2.47,2.8,4.56,0,4.62-2.53,8.8-16.28,23.1-1.16,1.16-3.35,3.79-3.35,5.77,0,1.65,1.48,3.08,3.19,3.08,7.53,0,5.5-11.44,13.58-11.44,3.3,0,3.96,1.32,3.96,3.24,0,1.43-.38,3.25-.38,5.06,0,1.26.27,2.47.27,3.74,0,1.49-1.04,3.08-2.69,3.08h-9.02c-7.7,0-8.19-.22-10.67-2.2-1.54.77-2.09,2.2-4.18,2.2h-5.39c-2.31-.17-3.52-2.97-3.52-2.97-.44-1.1-.66-2.25-.66-3.46,0-3.35,1.59-6.93,3.52-9.62,1.76-2.91,9.29-8.69,12.87-11.38l.71-.5c2.69-1.98,7.42-4.73,7.42-8.47,0-2.69-2.15-3.13-4.35-3.13Z"/><path class="cls-4" d="M324.69,152.75c0-6.43,4.84-12.98,4.84-20.29-.17-2.25-.55-5-3.08-6-.27-.11-.55-.16-2.58-.16-.38,0-.5-.22-.5-.39,0-.27.06-.55.33-.55,1.98,0,10.72,0,14.52-.05.6.11,2.42,3.19,2.69,3.68,1.32,2.14,1.76,4.89,1.76,7.81,0,6.16-1.98,13.31-1.98,17.93,0,2.97.82,4.89,3.52,4.89,6.54,0,9.02-10.23,9.02-15.78,0-3.3-.5-7.53-1.49-11.22-.6-2.2-1.43-4.46-3.24-5.77-1.04-.71-1.71-.5-2.53-.71-.11-.11-.11-.55-.11-.61,0-.17.44-.22,1.16-.22,1.59,0,4.56.05,7.09.05.77,0,1.43-.05,2.31-.05.66,0,1.43.38,1.43.77,0,.06,0,.11-.05.17s-.11.06-2.42.06c-.77,0-2.36.77-2.69,2.86v.22c0,2.47,3.9,11.99,3.9,18.42,0,2.14-.28,4.29-.94,6.32-2.14,6.76-7.75,11.66-14.63,11.66-11.82,0-16.33-2.64-16.33-13.03Z"/><path class="cls-4" d="M362.81,156.98c0-7.42,6.54-15.18,6.54-22.71,0-2.53-.28-6.27-3.02-7.59-.55-.28-3.58.05-3.52-.83,0-.38.38-.44.88-.44,6.27,0,12.59-.11,20.02-.11,1.87,0,3.25,0,4.67.11,5,.27,13.42,3.24,13.86,12.1v.39c0,4.45-4.67,5.66-8.52,7.26,3.85,1.7,8.14,4.67,8.41,8.96.11,1.87.99,3.24,1.76,4.01,1.21,1.21,1.32,2.53,1.32,3.46-.05,3.52-3.9,3.68-8.03,3.68-2.58,0-4.84-.33-6.6-.55-.11,0-.28-.05-.39-.05-3.08-.38-4.29-4.01-4.29-7.04,0-2.09.71-4.46.71-6.65,0-3.63-3.02-5.72-5.39-5.72-.22,0-.44,0-.71.11-.77,2.14-.88,4.34-.88,6.6,0,3.19,1.38,6.1,1.38,9.35,0,3.74-.71,3.96-7.26,3.96-.99,0-2.04.05-3.03.05-.88,0-1.87-.05-2.8-.17-1.98-.16-3.63-1.98-4.34-3.74-.66-1.32-.77-3.02-.77-4.45ZM383.87,143.18c1.59,0,2.75-.99,3.19-2.75.22-.88.33-1.92.33-3.08,0-4.23-2.31-9.68-6.65-9.68h-.22c-.38,0-.93.06-.93.5,1.32,3.35,1.65,5.44,1.65,7.64,0,1.87-.22,3.9-.28,6.87.77.33,2.2.5,2.92.5Z"/><path class="cls-4" d="M410.27,155.89c.99-11.16,5.94-14.19,5.94-23.32,0-1.92-.49-4.67-2.97-4.67-.83,0-1.32.27-2.04.27-.28,0-.38-.11-.38-.66,0-.77,2.47-1.37,3.74-1.37,1.04,0,2.03.27,3.08.27,1.37,0,2.31-1.1,3.46-1.1,3.13,0,5.55,7.86,5.99,9.9.22.99.33,2.09.33,3.13,0,1.54-.11,3.13-.16,4.84v.44c0,4.89,1.76,7.86,1.76,12.1,0,5.77-3.58,9.68-10.39,9.68-4.51,0-8.36-2.86-8.36-9.51Z"/><path class="cls-4" d="M481.58,136.09c.55-1.59,1.32-3.19,1.32-5v-.71c-.22-3.41-1.87-4.01-2.36-4.07-.5-.06-1.1-.06-1.1-.06-.33-.05-.38-.17-.38-.5,0-.16.11-.27.55-.33.44-.06,2.04-.06,2.8-.06h4.62c6.76,0,7.64,1.04,10.45,7.86,3.24,7.92,3.96,16.06,9.73,23.7,1.37,1.81,2.53,2.58,2.53,5.06,0,1.98-.88,3.19-3.13,3.19h-11.71c-5.33,0-6.71-7.75-7.26-11.16-.71-.05-1.38-.05-1.98-.05-1.26,0-2.47.05-3.85.05-3.46,0-6.76.6-6.76,4.51,0,1.26.17,2.53.17,3.85,0,1.65-.61,2.91-2.26,2.91-3.57,0-5.17,0-5.17-3.3.06-7.86,9.73-14.46,13.8-25.9ZM482.07,151.05c2.14,0,4.29,0,5.22-.17v-1.15c0-6.05-1.92-14.35-3.52-16.33-1.32,5.33-1.92,5.61-6.98,17.6.94.05,3.13.05,5.28.05Z"/><path class="cls-4" d="M535.25,125.86c-4.73,0-8.8,3.63-11.44,7.15-1.71,2.31-3.19,4.89-5.77,6.38-.33.17-.71.44-1.04.44s-.55-.27-.55-1.21c0-2.75,1.32-5.28,1.32-8.03,0-1.59-.5-3.13-1.21-4.56,0-.6.88-.77,1.81-.77,7.15,0,14.3-.06,22.6-.06h6.43c2.14,0,2.8,2.47,2.8,4.56,0,4.62-2.53,8.8-16.28,23.1-1.16,1.16-3.35,3.79-3.35,5.77,0,1.65,1.48,3.08,3.19,3.08,7.53,0,5.5-11.44,13.58-11.44,3.3,0,3.96,1.32,3.96,3.24,0,1.43-.38,3.25-.38,5.06,0,1.26.27,2.47.27,3.74,0,1.49-1.04,3.08-2.69,3.08h-9.02c-7.7,0-8.19-.22-10.67-2.2-1.54.77-2.09,2.2-4.18,2.2h-5.39c-2.31-.17-3.52-2.97-3.52-2.97-.44-1.1-.66-2.25-.66-3.46,0-3.35,1.59-6.93,3.52-9.62,1.76-2.91,9.29-8.69,12.87-11.38l.71-.5c2.69-1.98,7.42-4.73,7.42-8.47,0-2.69-2.15-3.13-4.35-3.13Z"/><path class="cls-4" d="M558.58,152.75c0-6.43,4.84-12.98,4.84-20.29-.17-2.25-.55-5-3.08-6-.27-.11-.55-.16-2.58-.16-.38,0-.5-.22-.5-.39,0-.27.06-.55.33-.55,1.98,0,10.72,0,14.52-.05.6.11,2.42,3.19,2.69,3.68,1.32,2.14,1.76,4.89,1.76,7.81,0,6.16-1.98,13.31-1.98,17.93,0,2.97.82,4.89,3.52,4.89,6.54,0,9.02-10.23,9.02-15.78,0-3.3-.5-7.53-1.49-11.22-.6-2.2-1.43-4.46-3.24-5.77-1.04-.71-1.71-.5-2.53-.71-.11-.11-.11-.55-.11-.61,0-.17.44-.22,1.16-.22,1.59,0,4.56.05,7.09.05.77,0,1.43-.05,2.31-.05.66,0,1.43.38,1.43.77,0,.06,0,.11-.05.17s-.11.06-2.42.06c-.77,0-2.36.77-2.69,2.86v.22c0,2.47,3.9,11.99,3.9,18.42,0,2.14-.28,4.29-.94,6.32-2.14,6.76-7.75,11.66-14.63,11.66-11.82,0-16.33-2.64-16.33-13.03Z"/><path class="cls-4" d="M596.69,156.98c0-7.42,6.54-15.18,6.54-22.71,0-2.53-.28-6.27-3.02-7.59-.55-.28-3.58.05-3.52-.83,0-.38.38-.44.88-.44,6.27,0,12.59-.11,20.02-.11,1.87,0,3.25,0,4.67.11,5,.27,13.42,3.24,13.86,12.1v.39c0,4.45-4.67,5.66-8.52,7.26,3.85,1.7,8.14,4.67,8.41,8.96.11,1.87.99,3.24,1.76,4.01,1.21,1.21,1.32,2.53,1.32,3.46-.05,3.52-3.9,3.68-8.03,3.68-2.58,0-4.84-.33-6.6-.55-.11,0-.28-.05-.39-.05-3.08-.38-4.29-4.01-4.29-7.04,0-2.09.71-4.46.71-6.65,0-3.63-3.02-5.72-5.39-5.72-.22,0-.44,0-.71.11-.77,2.14-.88,4.34-.88,6.6,0,3.19,1.38,6.1,1.38,9.35,0,3.74-.71,3.96-7.26,3.96-.99,0-2.04.05-3.03.05-.88,0-1.87-.05-2.8-.17-1.98-.16-3.63-1.98-4.34-3.74-.66-1.32-.77-3.02-.77-4.45ZM617.75,143.18c1.59,0,2.75-.99,3.19-2.75.22-.88.33-1.92.33-3.08,0-4.23-2.31-9.68-6.65-9.68h-.22c-.38,0-.93.06-.93.5,1.32,3.35,1.65,5.44,1.65,7.64,0,1.87-.22,3.9-.28,6.87.77.33,2.2.5,2.92.5Z"/><path class="cls-4" d="M644.16,155.89c.99-11.16,5.94-14.19,5.94-23.32,0-1.92-.49-4.67-2.97-4.67-.83,0-1.32.27-2.04.27-.28,0-.38-.11-.38-.66,0-.77,2.47-1.37,3.74-1.37,1.04,0,2.03.27,3.08.27,1.37,0,2.31-1.1,3.46-1.1,3.13,0,5.55,7.86,5.99,9.9.22.99.33,2.09.33,3.13,0,1.54-.11,3.13-.16,4.84v.44c0,4.89,1.76,7.86,1.76,12.1,0,5.77-3.58,9.68-10.39,9.68-4.51,0-8.36-2.86-8.36-9.51Z"/><path class="cls-4" d="M715.46,136.09c.55-1.59,1.32-3.19,1.32-5v-.71c-.22-3.41-1.87-4.01-2.36-4.07-.5-.06-1.1-.06-1.1-.06-.33-.05-.38-.17-.38-.5,0-.16.11-.27.55-.33.44-.06,2.04-.06,2.8-.06h4.62c6.76,0,7.64,1.04,10.45,7.86,3.24,7.92,3.96,16.06,9.73,23.7,1.37,1.81,2.53,2.58,2.53,5.06,0,1.98-.88,3.19-3.13,3.19h-11.71c-5.33,0-6.71-7.75-7.26-11.16-.71-.05-1.38-.05-1.98-.05-1.26,0-2.47.05-3.85.05-3.46,0-6.76.6-6.76,4.51,0,1.26.17,2.53.17,3.85,0,1.65-.61,2.91-2.26,2.91-3.57,0-5.17,0-5.17-3.3.06-7.86,9.73-14.46,13.8-25.9ZM715.96,151.05c2.14,0,4.29,0,5.22-.17v-1.15c0-6.05-1.92-14.35-3.52-16.33-1.32,5.33-1.92,5.61-6.98,17.6.94.05,3.13.05,5.28.05Z"/><path class="cls-4" d="M769.14,125.86c-4.73,0-8.8,3.63-11.44,7.15-1.71,2.31-3.19,4.89-5.77,6.38-.33.17-.71.44-1.04.44s-.55-.27-.55-1.21c0-2.75,1.32-5.28,1.32-8.03,0-1.59-.5-3.13-1.21-4.56,0-.6.88-.77,1.81-.77,7.15,0,14.3-.06,22.6-.06h6.43c2.14,0,2.8,2.47,2.8,4.56,0,4.62-2.53,8.8-16.28,23.1-1.16,1.16-3.35,3.79-3.35,5.77,0,1.65,1.48,3.08,3.19,3.08,7.53,0,5.5-11.44,13.58-11.44,3.3,0,3.96,1.32,3.96,3.24,0,1.43-.38,3.25-.38,5.06,0,1.26.27,2.47.27,3.74,0,1.49-1.04,3.08-2.69,3.08h-9.02c-7.7,0-8.19-.22-10.67-2.2-1.54.77-2.09,2.2-4.18,2.2h-5.39c-2.31-.17-3.52-2.97-3.52-2.97-.44-1.1-.66-2.25-.66-3.46,0-3.35,1.59-6.93,3.52-9.62,1.76-2.91,9.29-8.69,12.87-11.38l.71-.5c2.69-1.98,7.42-4.73,7.42-8.47,0-2.69-2.15-3.13-4.35-3.13Z"/><path class="cls-4" d="M792.46,152.75c0-6.43,4.84-12.98,4.84-20.29-.17-2.25-.55-5-3.08-6-.27-.11-.55-.16-2.58-.16-.38,0-.5-.22-.5-.39,0-.27.06-.55.33-.55,1.98,0,10.72,0,14.52-.05.6.11,2.42,3.19,2.69,3.68,1.32,2.14,1.76,4.89,1.76,7.81,0,6.16-1.98,13.31-1.98,17.93,0,2.97.82,4.89,3.52,4.89,6.54,0,9.02-10.23,9.02-15.78,0-3.3-.5-7.53-1.49-11.22-.6-2.2-1.43-4.46-3.24-5.77-1.04-.71-1.71-.5-2.53-.71-.11-.11-.11-.55-.11-.61,0-.17.44-.22,1.16-.22,1.59,0,4.56.05,7.09.05.77,0,1.43-.05,2.31-.05.66,0,1.43.38,1.43.77,0,.06,0,.11-.05.17s-.11.06-2.42.06c-.77,0-2.36.77-2.69,2.86v.22c0,2.47,3.9,11.99,3.9,18.42,0,2.14-.28,4.29-.94,6.32-2.14,6.76-7.75,11.66-14.63,11.66-11.82,0-16.33-2.64-16.33-13.03Z"/><path class="cls-4" d="M830.58,156.98c0-7.42,6.54-15.18,6.54-22.71,0-2.53-.28-6.27-3.02-7.59-.55-.28-3.58.05-3.52-.83,0-.38.38-.44.88-.44,6.27,0,12.59-.11,20.02-.11,1.87,0,3.25,0,4.67.11,5,.27,13.42,3.24,13.86,12.1v.39c0,4.45-4.67,5.66-8.52,7.26,3.85,1.7,8.14,4.67,8.41,8.96.11,1.87.99,3.24,1.76,4.01,1.21,1.21,1.32,2.53,1.32,3.46-.05,3.52-3.9,3.68-8.03,3.68-2.58,0-4.84-.33-6.6-.55-.11,0-.28-.05-.39-.05-3.08-.38-4.29-4.01-4.29-7.04,0-2.09.71-4.46.71-6.65,0-3.63-3.02-5.72-5.39-5.72-.22,0-.44,0-.71.11-.77,2.14-.88,4.34-.88,6.6,0,3.19,1.38,6.1,1.38,9.35,0,3.74-.71,3.96-7.26,3.96-.99,0-2.04.05-3.03.05-.88,0-1.87-.05-2.8-.17-1.98-.16-3.63-1.98-4.34-3.74-.66-1.32-.77-3.02-.77-4.45ZM851.64,143.18c1.59,0,2.75-.99,3.19-2.75.22-.88.33-1.92.33-3.08,0-4.23-2.31-9.68-6.65-9.68h-.22c-.38,0-.93.06-.93.5,1.32,3.35,1.65,5.44,1.65,7.64,0,1.87-.22,3.9-.28,6.87.77.33,2.2.5,2.92.5Z"/><path class="cls-4" d="M878.04,155.89c.99-11.16,5.94-14.19,5.94-23.32,0-1.92-.49-4.67-2.97-4.67-.83,0-1.32.27-2.04.27-.28,0-.38-.11-.38-.66,0-.77,2.47-1.37,3.74-1.37,1.04,0,2.03.27,3.08.27,1.37,0,2.31-1.1,3.46-1.1,3.13,0,5.55,7.86,5.99,9.9.22.99.33,2.09.33,3.13,0,1.54-.11,3.13-.16,4.84v.44c0,4.89,1.76,7.86,1.76,12.1,0,5.77-3.58,9.68-10.39,9.68-4.51,0-8.36-2.86-8.36-9.51Z"/><path class="cls-4" d="M65.46,65.49c19.27-2.62,21.4-4.75,24.02-24.02,2.62,19.27,4.75,21.4,24.02,24.02-19.27,2.62-21.4,4.75-24.02,24.02-2.62-19.27-4.75-21.4-24.02-24.02Z"/><path class="cls-4" d="M65.46,65.49c19.27-2.62,21.4-4.75,24.02-24.02,2.62,19.27,4.75,21.4,24.02,24.02-19.27,2.62-21.4,4.75-24.02,24.02-2.62-19.27-4.75-21.4-24.02-24.02Z"/><path class="cls-4" d="M77.47,86.3c7.37-18,6.59-20.91-8.79-32.81,18,7.37,20.91,6.59,32.81-8.79-7.37,18-6.59,20.91,8.79,32.81-18-7.37-20.91-6.59-32.81,8.79Z"/><path class="cls-4" d="M68.68,77.5c15.38-11.91,16.16-14.81,8.79-32.81,11.91,15.38,14.81,16.16,32.81,8.79-15.38,11.91-16.16,14.81-8.79,32.81-11.91-15.38-14.81-16.16-32.81-8.79Z"/><circle class="cls-4" cx="89.48" cy="65.49" r="14.38"/><path class="cls-4" d="M776.89,57.74c-1.54,11.54,6.56,22.15,18.11,23.69,10.47,1.4,20.17-5.14,23.04-14.99-3.46,5.48-9.91,8.75-16.76,7.83-9.37-1.25-15.96-9.87-14.71-19.24,1.14-8.53,8.38-14.75,16.74-14.86-.88-.24-1.79-.42-2.73-.55-11.54-1.54-22.15,6.57-23.69,18.11Z"/><path class="cls-4" d="M481.84,39.84c-11.55-2.57-12.71-4.65-14.14-25.36-1.43,20.71-2.59,22.79-14.14,25.36,11.55,2.57,12.71,4.65,14.14,25.36,1.43-20.71,2.59-22.79,14.14-25.36Z"/><path class="cls-4" d="M450.37,76.51c-7.28-1.62-8.01-2.93-8.91-15.98-.9,13.05-1.63,14.36-8.91,15.98,7.28,1.62,8.01,2.93,8.91,15.98.9-13.05,1.63-14.36,8.91-15.98Z"/><path class="cls-4" d="M447.67,5c-3.19-.51-3.51-.92-3.9-5-.4,4.09-.72,4.5-3.9,5,3.19.51,3.51.92,3.9,5,.4-4.09.72-4.5,3.9-5Z"/><path class="cls-4" d="M447.67,111.98c-3.19-.51-3.51-.92-3.9-5-.4,4.09-.72,4.5-3.9,5,3.19.51,3.51.92,3.9,5,.4-4.09.72-4.5,3.9-5Z"/><path class="cls-4" d="M432.28,41.05c3.19-.51,3.51-.92,3.9-5,.4,4.09.72,4.5,3.9,5-3.19.51-3.51.92-3.9,5-.4-4.09-.72-4.5-3.9-5Z"/><path class="cls-4" d="M460.14,90.91c3.19-.51,3.51-.92,3.9-5,.4,4.09.72,4.5,3.9,5-3.19.51-3.51.92-3.9,5-.4-4.09-.72-4.5-3.9-5Z"/><path class="cls-1" d="M447.14,197.17c-25.54,0-46.25,20.7-46.25,46.25s20.7,46.25,46.25,46.25,46.25-20.7,46.25-46.25-20.7-46.25-46.25-46.25ZM447.14,280.35c-20.4,0-36.93-16.54-36.93-36.94s16.53-36.93,36.93-36.93,36.93,16.53,36.93,36.93-16.53,36.94-36.93,36.94Z"/><path class="cls-2" d="M447.14,206.48c-20.4,0-36.93,16.53-36.93,36.93s16.53,36.94,36.93,36.94,36.93-16.54,36.93-36.94-16.53-36.93-36.93-36.93ZM447.14,270.32c-14.86,0-26.91-12.04-26.91-26.91s12.04-26.91,26.91-26.91,26.91,12.04,26.91,26.91-12.04,26.91-26.91,26.91Z"/><path class="cls-3" d="M447.14,216.51c-14.86,0-26.91,12.04-26.91,26.91s12.04,26.91,26.91,26.91,26.91-12.04,26.91-26.91-12.04-26.91-26.91-26.91ZM447.14,259.86c-9.08,0-16.44-7.36-16.44-16.44s7.36-16.44,16.44-16.44,16.44,7.36,16.44,16.44-7.36,16.44-16.44,16.44Z"/><circle class="cls-4" cx="447.14" cy="243.41" r="16.44" transform="translate(107.51 622.67) rotate(-76.72)"/><rect class="cls-4" x="507.86" y="242.91" width="262.47" height="1"/><rect class="cls-4" x="123.95" y="242.59" width="262.47" height="1"/><rect class="cls-4" x="507.86" y="65.16" width="262.47" height="1"/><rect class="cls-4" x="123.95" y="64.83" width="262.47" height="1"/></g></svg>