<?xml version="1.0" encoding="UTF-8"?><svg id="Layer_2" xmlns="http://www.w3.org/2000/svg" xmlns:xlink="http://www.w3.org/1999/xlink" viewBox="0 0 1260.52 389.51"><defs><style>.cls-1{fill:url(#linear-gradient-2);}.cls-2{fill:#feebe1;}.cls-3{fill:#3c76bc;}.cls-4{fill:#fff;}.cls-5{fill:url(#linear-gradient-4);}.cls-6{fill:url(#radial-gradient);}.cls-7{fill:#5581c1;}.cls-8{fill:url(#linear-gradient-3);}.cls-9{fill:url(#linear-gradient-5);}.cls-10{fill:#0453a1;}.cls-11{fill:url(#radial-gradient-2);}.cls-12{fill:url(#linear-gradient-7);}.cls-13{fill:#fde6e0;}.cls-14{fill:url(#linear-gradient-6);}.cls-15{fill:#292b69;}.cls-16{fill:#517bbe;}.cls-17{fill:#2f509d;}.cls-18{fill:#e8e8e8;}.cls-19{fill:url(#linear-gradient);}</style><linearGradient id="linear-gradient" x1=".07" y1="194.41" x2="1259.88" y2="194.41" gradientUnits="userSpaceOnUse"><stop offset="0" stop-color="#fff" stop-opacity=".8"/><stop offset=".39" stop-color="#fef4ee" stop-opacity=".91"/><stop offset=".74" stop-color="#feede4" stop-opacity=".98"/><stop offset="1" stop-color="#feebe1"/></linearGradient><linearGradient id="linear-gradient-2" x1="-4045.09" y1="134.15" x2="-4002.16" y2="134.15" gradientTransform="translate(-3386.9) rotate(-180) scale(1 -1)" gradientUnits="userSpaceOnUse"><stop offset="0" stop-color="#0453a1"/><stop offset="1" stop-color="#0074b8"/></linearGradient><linearGradient id="linear-gradient-3" x1="176.22" y1="432.41" x2="260.08" y2="119.62" gradientUnits="userSpaceOnUse"><stop offset=".1" stop-color="#0453a1"/><stop offset=".7" stop-color="#afc5d7"/><stop offset="1" stop-color="#fffbf1"/></linearGradient><linearGradient id="linear-gradient-4" x1="174.17" y1="196.85" x2="-96.55" y2="470.41" gradientUnits="userSpaceOnUse"><stop offset="0" stop-color="#fffbf1"/><stop offset="0" stop-color="#fcf8ef"/><stop offset=".1" stop-color="#cbc8d0"/><stop offset=".21" stop-color="#9f9eb4"/><stop offset=".32" stop-color="#7b7a9d"/><stop offset=".43" stop-color="#5d5d8a"/><stop offset=".55" stop-color="#46477b"/><stop offset=".67" stop-color="#353771"/><stop offset=".82" stop-color="#2c2d6a"/><stop offset="1" stop-color="#292b69"/></linearGradient><linearGradient id="linear-gradient-5" x1="937.21" y1="238.48" x2="1207.06" y2="363.04" gradientUnits="userSpaceOnUse"><stop offset="0" stop-color="#fffbf1"/><stop offset=".05" stop-color="#ebe7e4"/><stop offset=".18" stop-color="#b8b6c4"/><stop offset=".32" stop-color="#8c8ba8"/><stop offset=".45" stop-color="#686891"/><stop offset=".59" stop-color="#4c4d7f"/><stop offset=".72" stop-color="#383a73"/><stop offset=".86" stop-color="#2c2e6b"/><stop offset="1" stop-color="#292b69"/></linearGradient><linearGradient id="linear-gradient-6" x1="905.34" y1="419.17" x2="916.95" y2="144.18" xlink:href="#linear-gradient-3"/><radialGradient id="radial-gradient" cx="784.96" cy="-184.82" fx="784.96" fy="-184.82" r="5.82" gradientTransform="translate(72.06 495.22) rotate(3)" gradientUnits="userSpaceOnUse"><stop offset="0" stop-color="#fff" stop-opacity=".8"/><stop offset=".01" stop-color="#fffefe" stop-opacity=".8"/><stop offset=".4" stop-color="#fffcf7" stop-opacity=".91"/><stop offset=".74" stop-color="#fffbf2" stop-opacity=".98"/><stop offset="1" stop-color="#fffbf1"/></radialGradient><linearGradient id="linear-gradient-7" x1="325.77" y1="237.57" x2="895.87" y2="495.09" xlink:href="#linear-gradient-5"/><radialGradient id="radial-gradient-2" cx="1183.7" cy="76.94" fx="1183.7" fy="76.94" r="175.05" gradientTransform="translate(962.2 -1088.39) rotate(75.52)" gradientUnits="userSpaceOnUse"><stop offset="0" stop-color="#fcc292"/><stop offset=".04" stop-color="#fccea9"/><stop offset=".09" stop-color="#fdddc3"/><stop offset=".15" stop-color="#fdead9"/><stop offset=".21" stop-color="#fef3ea"/><stop offset=".3" stop-color="#fefaf6"/><stop offset=".42" stop-color="#fefdfd"/><stop offset=".75" stop-color="#fff"/></radialGradient></defs><g id="Layer_2-2"><rect class="cls-19" x=".07" width="1259.81" height="388.82"/></g><g id="Crystal_Goblet"><rect class="cls-15" x="115.05" y="150.97" width="8.02" height="131.07"/><polygon class="cls-17" points="115.05 247.4 115.05 276.93 123.07 276.93 123.07 253.21 115.05 247.4"/><path class="cls-16" d="M94.76,184.71l24.29-14.97,14.27,8.78,10.04,6.18-12.19-26.37-9.85-21.48c-.31-.68-.77-1.15-1.27-1.4-1.14-.58-2.57-.1-3.25,1.4l-9.85,21.48-12.19,26.37Z"/><path class="cls-17" d="M92.64,221.94l24.89-8.91,1.52-.54,26.42,9.45-13.26-22.86-10.55-18.34c-1.15-2.03-4.07-2.03-5.22,0l-.84,1.45-9.71,16.89-13.26,22.86Z"/><path class="cls-17" d="M102.41,247.67l16.49-5.9.16-.05,16.66,5.96-8.35-14.41-6.65-11.58c-.73-1.26-2.57-1.26-3.3,0l-2.24,3.89-4.42,7.68-8.35,14.41Z"/><path class="cls-15" d="M110.91,202.56c-.4,3.86,3.11,7.68,6.62,10.48l1.52-.54,26.42,9.45-13.26-22.86-10.55-18.34c-1.15-2.03-4.07-2.03-5.22,0l-.84,1.45c.3.33.56.68.82,1.05,2.72,3.88-4.75,11.74-5.52,19.32Z"/><path class="cls-3" d="M133.32,178.53l10.04,6.18-12.19-26.37-9.85-21.48c-.31-.68-.77-1.15-1.27-1.4-.49.82-.82,1.78-1,2.86-.91,5.76,6.48,25.57,14.27,40.2Z"/><circle class="cls-17" cx="119.64" cy="195.37" r="1.46"/><circle class="cls-3" cx="115.17" cy="161.8" r="1.46"/><circle class="cls-17" cx="130.5" cy="211.29" r="1.46"/><circle class="cls-17" cx="120.9" cy="233.7" r="1.26"/><path class="cls-15" d="M171.76,306.36c-3.63,5.94-11.38,7.81-17.32,4.18-4.82-2.95-6.97-8.63-5.64-13.84h0c.31-1.2.78-2.36,1.46-3.47,3.62-5.94,11.38-7.81,17.31-4.18.87.53,1.64,1.15,2.33,1.82,4.04,4.02,4.96,10.42,1.85,15.49Z"/><path class="cls-15" d="M169.9,290.87c-6.64,3.2-16.32,1.15-21.1,5.82.31-1.19.78-2.35,1.46-3.46,3.62-5.94,11.38-7.81,17.31-4.18.87.53,1.64,1.15,2.33,1.82Z"/><path class="cls-4" d="M152.4,302.29c-9.82,6.4-22.96,3.6-29.34-6.24-1.47-2.21-2.43-4.58-2.96-7.03,10.43-5.66,25.48-9.51,39.41-14.55,5.18,9.62,2.21,21.77-7.11,27.81Z"/><path class="cls-4" d="M159.67,274.97c-13.93,5.04-28.98,8.88-39.41,14.55-.52-2.33-.62-4.74-.33-7.06.72-6.02,4.01-11.68,9.5-15.24,7.04-4.62,15.85-4.44,22.64-.33,2.61,1.6,4.91,3.79,6.69,6.54.33.51.64,1.02.91,1.54Z"/><path class="cls-2" d="M124.07,277.76c-.32,1.55,1.38,2.46,2.25,1.14.88-1.32,5.38-7.06,9.89-8.78,4.51-1.72,1.12-2.9-1.63-2.14-5.12,1.41-9.26,3.67-10.51,9.78Z"/><polygon class="cls-17" points="568.12 245.9 560.08 182.48 568.12 180.95 550.55 112.55 534.47 180.03 542.51 181.56 534.47 244.98 568.12 245.9"/><path class="cls-15" d="M563.91,178.42l-8.05,1.52,5.68,44.75c1.42-.04,2.71-.06,3.88-.06l-5.35-42.16,8.05-1.52-12.76-49.55-1.66,7.39,10.2,39.63Z"/><polygon class="cls-3" points="550.55 112.55 534.47 180.03 539.65 181.15 552.58 119.86 550.55 112.55"/><polygon class="cls-17" points="398.46 389.5 393.22 358.74 391.47 348.46 388.9 333.35 388.19 328.71 388.19 328.69 381.16 283.06 378.68 266.97 368.46 333.35 364.49 359.12 359.89 388.95 359.81 389.5 363.65 389.5 398.46 389.5"/><polygon class="cls-17" points="456.9 333.35 423.55 333.35 431.88 279.2 440.23 225.05 442.39 239.11 448.57 279.2 456.9 333.35"/><polygon class="cls-4" points="428.33 358.75 382.19 358.75 393.73 301.04 405.25 243.34 408.15 257.9 416.79 301.04 428.33 358.75"/><rect class="cls-15" x="633.55" y="125.42" width="5.78" height="88.12"/><polygon class="cls-1" points="658.19 180.67 647.92 153.83 655.25 149.51 646.45 128.34 651.22 125.39 646.82 121.28 637.28 87.62 633.23 101.75 630.31 111.96 623.71 118.33 626.64 121.74 623.71 132.21 618.94 137.89 621.13 141.76 618.21 149.73 626.28 154.28 616.75 177.1 615.26 180.67 658.19 180.67"/><polygon class="cls-10" points="639.33 193.01 639.33 214.27 633.55 214.27 633.55 188.29 639.33 193.01"/><polygon class="cls-3" points="616.75 177.1 621.95 174.04 629.96 154.86 621.89 150.3 624.82 142.35 622.62 138.47 627.4 132.79 630.32 122.33 627.4 118.9 634 112.54 635.14 108.52 633.23 101.75 630.31 111.96 623.71 118.33 626.64 121.74 623.71 132.21 618.94 137.89 621.13 141.76 618.21 149.73 626.28 154.28 616.75 177.1"/><circle class="cls-3" cx="630.85" cy="175.94" r="1.74"/><circle class="cls-15" cx="650.52" cy="147.21" r="1.74"/><circle class="cls-3" cx="638.18" cy="122.14" r="1.74"/><path class="cls-7" d="M523.86,117.87l-6.6,5.96-8.52,7.76h0s0,0,0,0l-8.52-7.76-6.6-5.96c-.37-.34,3.4-.25,8.08,2.93l7.06,5.3,7.06-5.3c4.68-3.18,8.45-3.28,8.08-2.93Z"/><path class="cls-7" d="M453.85,117.63l6.53-5.9,8.32-7.57h0s0,0,0,0l8.32,7.57,6.53,5.9c.37.33-9.75-.13-14.86-5.11-5.12,4.98-15.23,5.44-14.86,5.11Z"/><path class="cls-4" d="M449.82,93.82l-4.18,3.77-5.27,4.8-.03.03-.04-.03-5.27-4.8-4.18-3.77c-.24-.21,3.5-1.21,9.49,1.94,5.98-3.15,9.72-2.15,9.48-1.94Z"/></g><g id="Layer_1-2"><polygon class="cls-17" points="29.77 186.58 0 186.58 0 16.44 29.77 186.58"/></g><g id="Gradient"><path class="cls-17" d="M599.23,192.88c-2.05,2.38-6.51,3.8-8.26,4.37-2.13.71-2.96,4.24-4.26,6.6-1.31,2.36-4.09,2.87-4.09,2.87h0c-.11-.15-1.11-1.5-.49-1.73.16-.05.43-.04.84.1h.03c.83.04,1.92.12,2.37-3.92-.11-1.49,2.64-4.98,3.99-5.66,1.25-.33,2.53-.78,2.82-1.08,1.94-1.86,3.91-2.62,4.34-4.28l.66-2.32v-.04c-1.18-.1.39-1.25.39-1.25.49-2.58,1.72-2.79,1.83-2.99.11-.19.33-.87.57-1.44.26-.57.56-.14.73.06.19.21.5.62.66.65.16.03.3.37.3.37,0,0-.34,2.91-.96,5.81h0c-.16.77-.34,1.52-.54,2.22-.17.59-.5,1.15-.93,1.65Z"/><path class="cls-15" d="M602.33,204.34h-.01c-.23-.58-.45-1.13-.67-1.62-.1-.23-.19-.43-.28-.65-.18-.41-.34-.79-.51-1.13-.16-.36-.32-.68-.45-.98-.05.84-.02,1.9.08,2.88.02.26.06.49.1.72.01.11.05.24.05.34.03.09.04.19.06.28l.09,1.16-.54.07c-.03-.07-.06-.13-.1-.22-.04-.15-.1-.3-.13-.45-.06-.28-.13-.58-.21-.89.01-.23.01-.43-.04-.59-.18-.67-1.56-4.19-1.56-4.19h-.02c-2.41.57-3.11-.08-4.58.42,0,0-.02,0-.03,0h-.01c.02.14.05.27.07.4.01.12.02.26.04.38,0,0,0,.01,0,.02,0,.15.02.31.02.46v.02c-.02.33-.06.64-.15.93-.02.11-.05.21-.08.3-.36.56-1.11,1.87-1.45,2.68-.02.04-.03.08-.05.11-.03.06-.06.11-.07.17-.02.04-.03.08-.04.11-.04.11-.05.19-.04.24-.01.08,0,.16,0,.24.02.09.05.2.08.29h0c.05.11.11.23.18.33.06.09.14.18.22.26.24.45.53.93.79,1.24.29.37-.28.57-.84.66-.31-.14-.64-.51-.95-.97-.04-.06-.08-.13-.13-.2-.17-.28-.33-.57-.48-.86,0-.01-.02-.02-.02-.03-.21-.58-.43-1.07-.56-1.19-.02-.02-.02-.05-.03-.07,0-.28.16-.4.31-.91v-.08s0,0,0,0c-.26.2-.51.37-.75.57-.11.08-.23.18-.33.29-.06.05-.12.12-.18.2-.05.04-.08.1-.12.14-.05.05-.11.13-.15.2-.12.21-.21.42-.27.69-.08.24-.13.5-.13.77,0,.18,0,.35.02.51,0,.07,0,.13,0,.18,0,.03,0,.06,0,.09,0,.07,0,.15,0,.21.03.42.09.7.16.91.02.03.03.06.04.09,0,.02.02.03.02.04.03.07.05.09.05.09l-1.24.18s-.02-.07-.03-.1c-.01-.06-.03-.15-.06-.24.08-.12.12-.23.08-.32-.14-.24-.75-1.97-.83-2.18,0-.01,0-.02,0-.02l.08-.21.04-.09s.03-.05.03-.07c.03-.06.06-.12.09-.19.04-.11.09-.22.13-.33.03-.08.06-.14.09-.21s.05-.12.07-.17c.02-.06.05-.11.05-.14.06-.1.06-.15.04-.18,0-.02-.04,0-.06,0-.01,0-.02.03-.02.03h-.01c-.24.38-.45.7-.68.97-.08.12-.17.23-.26.32-.05.04-.08.09-.14.13h0c-.3.32-.59.55-.88.7-.15.1-.31.16-.45.22-.67.23-1.25.11-1.67-.06-.04-.02-.08-.03-.11-.06-.03,0-.06-.03-.08-.05-.06-.03-.1-.05-.15-.07-.06-.04-.14-.09-.2-.14,0,0,2.78-.51,4.09-2.87,1.3-2.36,2.13-5.9,4.26-6.6,1.75-.58,6.21-1.99,8.26-4.37.44-.5.77-1.06.93-1.65.2-.7.38-1.45.54-2.21h0c.63-2.91.96-5.82.96-5.82h0c0,.05.02.09.03.13.01.05.03.13.05.21.11.5.27,1.48.09,2.6-.09.35-.2.62-.22.89-.01.03-.02.07-.03.1t0,.02s0,.04.01.06c.01.12.05.25.1.38.01.04.03.08.05.13,0,.01,0,.02.03.03.07.15.17.31.27.47.08.12.17.25.27.38.03.06.07.11.11.17.17.28.32.55.45.8.09.17.17.33.24.46,0,.02.02.03.02.05,0,.01,0,.02.02.03.01.04.03.08.04.14.03.07.05.15.07.22.09.31.14.64.15,1,.01.13.01.26,0,.4,0,.05,0,.11-.01.16,0,.15-.01.31-.04.47v.05c-.03.15-.06.3-.09.44-.03.17-.07.33-.12.51-.07.24-.14.5-.24.77-.05.1-.08.21-.13.33-.05.13-.11.27-.17.4-.07.17-.16.35-.25.54-.12.25-.24.5-.39.76-.01.03-.03.06-.04.08,0,0-.01,0-.01.02-.1.13-.19.27-.3.39,0,0-.09.04-.13.34-.03.19-.02.47.03.9,0,.04,0,.09.01.13,0,.03,0,.07.02.11.19,1.32,1.16,4.68,1.47,5.36.25.55-.4.67-.7.7Z"/><polygon class="cls-17" points="1219.07 269.36 1237.39 272.18 1232.81 242.44 1228.23 212.7 1227.12 219.91 1223.65 242.44 1219.07 269.36"/><polygon class="cls-17" points="1187.89 267.6 1202.83 267.6 1199.1 243.34 1195.36 219.08 1194.39 225.38 1191.62 243.34 1187.89 267.6"/><polygon class="cls-4" points="1199.57 265.19 1220.24 265.19 1215.07 239.34 1209.91 213.49 1208.61 220.01 1204.74 239.34 1199.57 265.19"/><rect class="cls-15" x="788.63" y="209.95" width="4.42" height="115.19"/><polygon class="cls-17" points="788.63 288.82 788.63 325.14 793.05 325.14 793.05 297.58 788.63 288.82"/><path class="cls-15" d="M772.76,245.58l10.57-9.14,3.62-3.13,3.88-3.37,18.08,15.63-9.06-21.97-4.87-11.91-2.92-7.12c-.18-.45-.46-.75-.78-.89-.6-.28-1.31.01-1.67.89l-7.79,19.03-9.07,21.97Z"/><path class="cls-17" d="M763.63,300.39l18.18-16.33,9.03-8.13,27.21,24.46-13.64-25.9-11.03-21.1c-1.13-2.16-3.96-2.16-5.07,0l-.95,1.81-10.08,19.28-13.65,25.9Z"/><path class="cls-15" d="M781.79,284.18l9.04-8.25,27.21,24.46-13.64-25.9-11.03-21.1c-1.13-2.16-3.96-2.16-5.07,0l-.95,1.81c-5.11,18.3-.06,15.08-5.55,28.85-.02.08-.02.12-.02.12Z"/><path class="cls-17" d="M772.76,245.58l10.57-9.14,3.62-3.13c1.35-9.08,3.28-22.05,4.33-29.62-.6-.28-1.31.01-1.67.89l-7.79,19.03-9.07,21.97Z"/><circle class="cls-17" cx="796.84" cy="270.63" r="1.72"/><circle class="cls-17" cx="793.48" cy="222.15" r="1.25"/><path class="cls-15" d="M1045.29,301.05c0,.48-.02.96-.08,1.42-.13,1.12-.39,2.2-.79,3.21-.06.16-.13.31-.19.46,0,0,0,.02,0,.02-.61,1.1-2,3.16-4.45,5.15-.22.18-.46.36-.71.55-.29.21-.59.43-.89.63-1.7.84-3.61,1.31-5.64,1.31-6.93,0-12.56-5.52-12.75-12.4v-.07c7.63-4.11,16.88-6.12,21-10.01,2.48,2.09,4.14,5.13,4.45,8.55v.03c.04.38.06.76.06,1.14Z"/><path class="cls-17" d="M1019.77,301.05c0,.1,0,.2,0,.3,4.6-9.95,12.11-8.09,17.6-12.11-.02,0-.04,0-.06-.03-1.21-.49-2.51-.79-3.88-.9-.3-.03-.61-.03-.91-.03-6.82,0-12.4,5.36-12.74,12.1,0,.22-.02.44-.02.66Z"/><path class="cls-17" d="M1040.78,291.33c-4.12,3.89-13.37,5.9-21,10.01,0-.09,0-.19,0-.28,0-.22,0-.44.02-.66,0-.17.02-.34.04-.51.02-.11.02-.22.04-.34.02-.24.06-.49.1-.73.04-.23.09-.46.13-.69,0-.02,0-.02.02-.04.02-.09.04-.17.06-.26.09-.37.21-.73.33-1.08.05-.13.09-.27.15-.4.03-.08.06-.16.1-.24.1-.24.21-.49.33-.73.25-.51.54-.99.85-1.46.14-.21.29-.42.45-.62.31-.4.65-.79,1-1.16.16-.16.32-.32.48-.47.2-.19.4-.37.62-.54.2-.16.39-.31.6-.46.22-.16.44-.31.67-.45.02-.02.05-.03.07-.04.16-.1.32-.2.48-.28.09-.06.2-.12.3-.17.21-.11.42-.21.64-.31.25-.12.51-.22.77-.32.14-.06.28-.11.43-.16.46-.15.92-.28,1.41-.38.12-.02.24-.06.36-.07.14-.03.28-.06.42-.07.21-.03.42-.06.62-.08.19-.02.38-.03.57-.04.23-.02.47-.02.69-.02.3,0,.61,0,.91.03,1.37.1,2.67.41,3.88.9.02.02.05.02.06.02,1.25.51,2.39,1.22,3.4,2.08Z"/><path class="cls-15" d="M811.97,329.98c-4.82,3.82-11.82,3.01-15.64-1.82-3.1-3.91-3.15-9.28-.45-13.2h0c.62-.9,1.37-1.72,2.27-2.43,4.81-3.82,11.82-3.01,15.63,1.81.56.7,1.01,1.46,1.38,2.22,2.12,4.57.93,10.16-3.19,13.42Z"/><path class="cls-15" d="M815.16,316.56c-6.48.63-13.89-4.03-19.28-1.61.62-.89,1.37-1.71,2.27-2.42,4.81-3.82,11.82-3.01,15.63,1.81.56.7,1.01,1.46,1.38,2.22Z"/><polygon class="cls-17" points="1027.8 331.66 1001.51 331.66 1008.07 288.97 1014.65 246.27 1016.36 257.36 1021.24 288.97 1027.8 331.66"/><polygon class="cls-4" points="1009.3 330.32 972.92 330.32 982.02 284.83 991.1 239.34 993.39 250.81 1000.2 284.83 1009.3 330.32"/><polygon class="cls-17" points="1142.35 294.47 1136.18 245.84 1142.35 244.67 1128.87 192.22 1116.54 243.96 1122.71 245.13 1116.54 293.77 1142.35 294.47"/><path class="cls-15" d="M1139.11,242.73l-6.17,1.16,4.36,34.32c1.09-.03,2.08-.05,2.98-.05l-4.1-32.33,6.17-1.16-9.78-38-1.27,5.67,7.82,30.39Z"/><polygon class="cls-3" points="1128.87 192.22 1116.54 243.96 1120.51 244.82 1130.43 197.82 1128.87 192.22"/><polygon class="cls-4" points="742.38 254.69 748.52 276.31 725.57 276.71 722.8 276.76 728.95 255.14 722.8 252.41 736.23 195.96 737.68 202.54 748.52 251.95 742.38 254.69"/><polygon class="cls-18" points="726.28 250.44 732.43 253.18 726.28 274.8 725.57 276.71 722.8 276.76 728.95 255.14 722.8 252.41 736.23 195.96 737.68 202.54 726.28 250.44"/><path class="cls-8" d="M359.81,389.5h3.84c-1.27-.18-2.52-.36-3.76-.55-21.76-3.21-38.93-7.23-53.19-11.84-56.41-18.22-67.31-45.5-137.56-67.71-6.04-1.91-12.51-3.78-19.49-5.6-.21-.06-.42-.11-.63-.16-5.7-1.49-11.74-2.94-18.16-4.36-2.1-.46-4.25-.92-6.44-1.38-23.1-4.83-50.8-9.2-84.61-12.93l15.13,104.53h304.87Z"/><path class="cls-5" d="M173.85,389.5H.07v-209.06c.21,0,.42,0,.63.01,10.64.04,20.39,1.41,29.39,3.94,31.44,8.81,53.78,31.77,72.88,62.3.13.21.26.41.4.63,4.02,6.46,7.89,13.25,11.68,20.32,1.64,3.05,3.26,6.15,4.86,9.29.29.55.57,1.1.85,1.65.58,1.15,1.16,2.3,1.73,3.46.78,1.54,1.55,3.1,2.31,4.67.08.15.16.3.23.46,1.96,3.98,3.9,8.02,5.83,12.11.79,1.66,1.58,3.34,2.37,5.02,12.72,27.17,25.49,56.43,40.62,85.2Z"/><path class="cls-9" d="M1260.52,253.01c-143.98-.47-287.96,36.5-287.96,136.49h287.96s0-136.49,0-136.49Z"/><path class="cls-14" d="M768.98,389.5s40.37-93.49,139.45-97.56c99.08-4.07,135.78,97.56,135.78,97.56h-275.23Z"/><path class="cls-15" d="M895.67,386.86c-4.82,3.82-11.82,3.01-15.64-1.82-3.1-3.91-3.15-9.28-.45-13.2h0c.62-.9,1.37-1.72,2.27-2.43,4.81-3.82,11.82-3.01,15.63,1.81.56.7,1.01,1.46,1.38,2.22,2.12,4.57.93,10.16-3.19,13.42Z"/><path class="cls-15" d="M898.86,373.45c-6.48.63-13.89-4.03-19.28-1.61.62-.89,1.37-1.71,2.27-2.42,4.81-3.82,11.82-3.01,15.63,1.81.56.7,1.01,1.46,1.38,2.22Z"/><path class="cls-2" d="M874.39,382.21c-10.1,2.32-20.15-4.02-22.44-14.13-.54-2.28-.62-4.55-.31-6.74,10.38-1.52,24.04-.11,37.14-.04,1.36,9.56-4.81,18.73-14.39,20.9Z"/><path class="cls-2" d="M888.76,361.76c-13.09-.07-26.76-1.48-37.14.04.28-2.09.93-4.12,1.88-5.96,2.43-4.78,6.89-8.47,12.53-9.74,7.25-1.68,14.51,1.15,18.88,6.63,1.68,2.12,2.92,4.64,3.56,7.47.12.52.22,1.04.29,1.56Z"/><path class="cls-6" d="M858.37,353.21c-.74,1.19.39,2.46,1.52,1.64s6.62-4.22,10.88-4.27c4.26-.05,1.81-2.06-.7-2.27-4.68-.4-8.8.22-11.7,4.9Z"/><path class="cls-12" d="M943.56,389.5H257.14c18.12-4.19,34.56-8.31,49.56-12.39,22.2-6.05,41.23-12.02,57.79-17.99,6.75-2.44,13.1-4.88,19.08-7.33,2.71-1.11,5.34-2.22,7.9-3.33,11.9-5.16,22.3-10.38,31.65-15.71.19-.1.38-.21.57-.32,11.25-6.44,20.99-13.05,30-19.94,26.57-20.31,46.86-43.01,81.2-70.89,7.91-6.43,16.58-13.14,26.24-20.15,1.17-.85,2.36-1.71,3.56-2.57h0c146.23-91.33,217.1,170.98,378.87,170.62Z"/><circle class="cls-11" cx="1183.7" cy="76.94" r="60.5" transform="translate(813.21 1203.79) rotate(-75.52)"/><circle class="cls-4" cx="1183.7" cy="76.94" r="39.68" transform="translate(813.21 1203.79) rotate(-75.52)"/><circle class="cls-2" cx="1193.68" cy="69.22" r="12.26"/><circle class="cls-13" cx="1175.55" cy="89.31" r="6.5"/><circle class="cls-13" cx="1172.5" cy="56.32" r="3.81"/></g></svg>