<?xml version="1.0" encoding="UTF-8"?><svg id="Layer_2" xmlns="http://www.w3.org/2000/svg" viewBox="0 0 1038.43 378.15"><defs><style>.cls-1{fill:#ae9065;font-family:Candara, Candara;font-size:16px;letter-spacing:.03em;}.cls-2{fill:#00402d;}.cls-3,.cls-4{fill:none;stroke:#ae9065;stroke-miterlimit:10;}.cls-5{fill:#b0794f;}.cls-4{stroke-dasharray:11.48 11.48;}</style></defs><g id="Layer_1-2"><path class="cls-2" d="M16.11,358.08c.55-.05.85-.13,1.16-.16.25-.02.44-.03.63-.02-.1-.35-.21-.68-.33-.99-1.34-.13-1.89-.28-2.84-1.08-.74-.62-.84-.99-.88-1.48l-.06-.68c-.38-2.22-.31-1.47-1.28-3.25-.51-.95-1-1.41-2.5-2.33-.93-.61-2.15-1-2.76-.94-.25.02-.42.1-.4.35,0,.06.02.25.09.36.37.71.48,1.26.54,1.94.04.44.08.93.07,1.49l.03.31c-.02.44,0,.75.03.99.07.75.27,1.04.77,1.68.7.93,1.06.72,2.44.91,1.39.19,1.43.62,2.4,1.09.65.31,1.11.65,1.14.95.01.13-.09.32-.34.4-.18.09-.36.1-.55.12-.62.05-1.38-.13-2.01-.21-.82-.11-1.31,0-2.49-.02-1.19-.03-2.85.12-3.46-.45-.54-.44-1.2-.89-1.25-1.45-.01-.12-.02-.18.03-.31.24-.76.67-2.36,1.19-3.53.21-.45.25-.7.22-1.01-.04-.43-.33-.84-.51-1.57-.35-1.15.09-1.13-1.22-2.63-.84-.98-2.35-1.23-3.03-1.17-.18.02-.3.1-.3.16s.08.11.2.16c.64.19.9.99.97,1.78.04.44,0,.87-.08,1.25-.17.89-.7,2-.65,2.55.1,1.18-.42,1.66-1,3.51-.1.26-.08.45-.06.7.11,1.29,1.51,2.36,2.67,2.88.59.32,1.4.31,2.2.24.69-.06,1.36-.18,2.1-.24.37-.03.81-.07,1.18-.04,2.18,0,2.63.2,4.2.44.38.03.63.07.88.04.81-.07,1.08-.47,2.87-.75Z"/><path class="cls-2" d="M16.11,310.39c.55-.05.85-.13,1.16-.16.25-.02.44-.03.63-.02-.1-.35-.21-.68-.33-.99-1.34-.13-1.89-.28-2.84-1.08-.74-.62-.84-.99-.88-1.48l-.06-.68c-.38-2.22-.31-1.47-1.28-3.25-.51-.95-1-1.41-2.5-2.33-.93-.61-2.15-1-2.76-.94-.25.02-.42.1-.4.35,0,.06.02.25.09.36.37.71.48,1.26.54,1.94.04.44.08.93.07,1.49l.03.31c-.02.44,0,.75.03.99.07.75.27,1.04.77,1.68.7.93,1.06.72,2.44.91,1.39.19,1.43.62,2.4,1.09.65.31,1.11.65,1.14.95.01.13-.09.32-.34.4-.18.09-.36.1-.55.12-.62.05-1.38-.13-2.01-.21-.82-.11-1.31,0-2.49-.02-1.19-.03-2.85.12-3.46-.45-.54-.44-1.2-.89-1.25-1.45-.01-.12-.02-.18.03-.31.24-.76.67-2.36,1.19-3.53.21-.45.25-.7.22-1.01-.04-.43-.33-.84-.51-1.57-.35-1.15.09-1.13-1.22-2.63-.84-.98-2.35-1.23-3.03-1.17-.18.02-.3.1-.3.16s.08.11.2.16c.64.19.9.99.97,1.78.04.44,0,.87-.08,1.25-.17.89-.7,2-.65,2.55.1,1.18-.42,1.66-1,3.51-.1.26-.08.45-.06.7.11,1.29,1.51,2.36,2.67,2.88.59.32,1.4.31,2.2.24.69-.06,1.36-.18,2.1-.24.37-.03.81-.07,1.18-.04,2.18,0,2.63.2,4.2.44.38.03.63.07.88.04.81-.07,1.08-.47,2.87-.75Z"/><path class="cls-2" d="M16.11,208.02c.55-.05.85-.13,1.16-.16.25-.02,1.1-.06,1.29-.04-.1-.35-1.1-.68-1.22-.98-1.34-.13-1.66-.25-2.62-1.05-.74-.62-.84-.99-.88-1.48l-.06-.68c-.38-2.22-.31-1.47-1.28-3.25-.51-.95-1-1.41-2.5-2.33-.93-.61-2.15-1-2.76-.94-.25.02-.42.1-.4.35,0,.06.02.25.09.36.37.71.48,1.26.54,1.94.04.44.08.93.07,1.49l.03.31c-.02.44,0,.75.03.99.07.75.27,1.04.77,1.68.7.93,1.06.72,2.44.91,1.39.19,1.43.62,2.4,1.09.65.31,1.11.65,1.14.95.01.13-.09.32-.34.4-.18.09-.36.1-.55.12-.62.05-1.38-.13-2.01-.21-.82-.11-1.31,0-2.49-.02-1.19-.03-2.85.12-3.46-.45-.54-.44-1.2-.89-1.25-1.45-.01-.12-.02-.18.03-.31.24-.76.67-2.36,1.19-3.53.21-.45.25-.7.22-1.01-.04-.43-.33-.84-.51-1.57-.35-1.15.09-1.13-1.22-2.63-.84-.98-2.35-1.23-3.03-1.17-.18.02-.3.1-.3.16s.08.11.2.16c.64.19.9.99.97,1.78.04.44,0,.87-.08,1.25-.17.89-.7,2-.65,2.55.1,1.18-.42,1.66-1,3.51-.1.26-.08.45-.06.7.11,1.29,1.51,2.36,2.67,2.88.59.32,1.4.31,2.2.24.69-.06,1.36-.18,2.1-.24.37-.03.81-.07,1.18-.04,2.18,0,2.63.2,4.2.44.38.03.63.07.88.04.81-.07,1.08-.47,2.87-.75Z"/><path class="cls-2" d="M16.11,165.68c.55-.05.85-.13,1.16-.16.25-.02.77-.06.96-.04-.1-.35-.29-.7-.41-1-1.34-.13-2.14-.23-3.1-1.03-.74-.62-.84-.99-.88-1.48l-.06-.68c-.38-2.22-.31-1.47-1.28-3.25-.51-.95-1-1.41-2.5-2.33-.93-.61-2.15-1-2.76-.94-.25.02-.42.1-.4.35,0,.06.02.25.09.36.37.71.48,1.26.54,1.94.04.44.08.93.07,1.49l.03.31c-.02.44,0,.75.03.99.07.75.27,1.04.77,1.68.7.93,1.06.72,2.44.91,1.39.19,1.43.62,2.4,1.09.65.31,1.11.65,1.14.95.01.13-.09.32-.34.4-.18.09-.36.1-.55.12-.62.05-1.38-.13-2.01-.21-.82-.11-1.31,0-2.49-.02-1.19-.03-2.85.12-3.46-.45-.54-.44-1.2-.89-1.25-1.45-.01-.12-.02-.18.03-.31.24-.76.67-2.36,1.19-3.53.21-.45.25-.7.22-1.01-.04-.43-.33-.84-.51-1.57-.35-1.15.09-1.13-1.22-2.63-.84-.98-2.35-1.23-3.03-1.17-.18.02-.3.1-.3.16s.08.11.2.16c.64.19.9.99.97,1.78.04.44,0,.87-.08,1.25-.17.89-.7,2-.65,2.55.1,1.18-.42,1.66-1,3.51-.1.26-.08.45-.06.7.11,1.29,1.51,2.36,2.67,2.88.59.32,1.4.31,2.2.24.69-.06,1.36-.18,2.1-.24.37-.03.81-.07,1.18-.04,2.18,0,2.63.2,4.2.44.38.03.63.07.88.04.81-.07,1.08-.47,2.87-.75Z"/><rect class="cls-2" x="134.79" y="309.21" width="879.24" height="1"/><rect class="cls-2" x="134.79" y="206.82" width="879.24" height="1"/><rect class="cls-2" x="134.79" y="163.98" width="879.24" height="1"/><polyline class="cls-2" points="134.89 356.94 1014.03 356.94 1014.03 357.94 134.79 357.94"/><polyline class="cls-2" points="54.39 357.94 17.12 357.94 17.12 356.94 54.46 356.94"/><polyline class="cls-2" points="70.67 310.22 17.12 310.22 17.12 309.22 70.67 309.22"/><polyline class="cls-2" points="69.48 207.82 17.12 207.82 17.12 206.82 69.57 206.82"/><polyline class="cls-2" points="62.08 165.48 17.12 165.48 17.12 164.48 62.16 164.48"/><path class="cls-5" d="M468.52,208.39c-63.59,0-63.26,38.71-9.24,38.71-50.37-49.1,30.33-34.21,30.33-3.89,0,14.47-22.62,5.82-48.63,16.98-65.08,27.93,20.93,78.01,47.93,34.26,0,22.77,43.11,28.72,43.11-17.47,0,16.82-21.67,13.03-13.51-19.81,8.25-33.17-18.1-48.79-50-48.79ZM488.92,273.74c0,60.91-77.29-33.13,0-10.87,0,0,0,10.87,0,10.87Z"/><path class="cls-5" d="M384.75,282.02c.4,11.24-2.42,19.62-8.34,21.92-8.77,3.41-21.52-7.61-30.94-25.6,6.16-21.04,20.11-23.42,32.83-25.31,12.06-1.78,23.02-3.1,25.23-19.41-2.48-4.11-5.53-7.84-9.02-11.09-9.2-8.56-21.52-13.79-35.07-13.79-28.45,0-51.51,23.06-51.51,51.51s23.06,51.51,51.51,51.51c25.45,0,46.59-18.46,50.75-42.72-6.36,6.97-16.15,11.32-25.44,12.97ZM342.46,216.58c9.1-3.54,22.49,8.47,31.99,27.66-12.36,2.15-27.32,2.09-35.49,18.8-7.58-22.39-6.24-42.68,3.51-46.47Z"/><path class="cls-5" d="M226.59,226.07c2.44-17.96,8.19-38.41,18.4-61.59-19.88,0-32.88,42.81-65.75,42.81,23.45,23.95,21.91,85.62,0,104.48l20.01-10.61c17.37,6.54,32.22,9.54,44.77,9.83l2.88.02c91.95-.84,54.01-151.07-20.31-84.95ZM223.88,281.88v-20.91c-.07-35.9,25.45-53.82,38.48-1.78,13,50.77-1.78,56.17-38.48,22.68Z"/><path class="cls-5" d="M753.08,281.62c0,7.28-.85,13.36-2.88,18.1-9.79,22.83-55.42,13.65-49.34-13.15,5.8-25.6,15.71-72.28-28.35-77.99,9.33-3.12,17.48-1.99,25.58-4.11,25.02-7.51,36.75-40.89,54.09-40.89-25.02,39.97-11.43,47.44,6.68,27.4-3.84,12.87-5.88,34.85,1.78,40.36-19.83-14.25-26.84-4.06-26.2,29.86.4,21.22.61,31.86,9.13,31.91,3.47.02,9.52-5.05,9.52-11.5Z"/><path class="cls-5" d="M609.46,290.88c-5.37,10.6-14.03,15.33-22.14,18.34-18.28,6.8-36.76-.39-35.86-17.04,1.54-28.41-12.48-35.34-19.42-42.28,29.89,0,42.57-43.58,60.65-43.58-9.15,30.58-24.89,90.89-2.07,90.89,9.16,0,15.45-5.11,19.31-15.37-.32-14.04-5.08-29.42-12.27-36.6,29.88,0,41.7-38.92,59.77-38.92-15.46,51.67-22.52,93.52,2.31,103.57h-62.09c6.88-2.32,10.57-9.8,11.81-19.01Z"/><path class="cls-5" d="M917.42,252.82c-31.7,13.5-57.99,31.78-66.08,63.12h-.04s0,.02,0,.02c-13.42,43.44-54.16,47.91-89.15,34.46,8.41-6.12,9.94-32.68,5.1-41.34,66.93,61.92,67.8,20.07,67.38,6.88-.58-18.06-40.78-49.64-72.48-63.14,36.28,0,25.3-45.5,59.2-45.5-19.45,24.82,20.57,84.83,28.84,84.83,5.25.32,32.56-56.03,8.03-84.83,36.82,0,22.92,45.5,59.2,45.5Z"/><path class="cls-2" d="M1028.28,355.42c5.03-6.05-6.98-4.06-5.88,1.74-2.2-.29-7-.52-9.05-.24-.43.06-.22.75-.22,1.06,0,0,5.77,0,8.08.96-3.16.8-5.82,4.39-3.09,7.07.71.69,1.31-.67,1.4-.92,2.46-1.13,2.42-3.9,2.05-6.06,9.06,3.51-5.53,3.25,1.12,11.64,5.51-6.48,1.16-11.08,5.83-7-.66,1.98-4.24,3.08-2.82,6.01,2.52,6.7,5.76-1.8,2.91-4.84,1.85-.63,3.21,3.48,2.66,5.17,1.36,16.23,8.59,4.85-.3-5.02,9.49,10.26,8.12-4.58-1.26-1.79-3.1-3.67,5.11,1.05,7.21-1.29,4.4-.54-2.53-4.47-4.54-3.46.87-.63,1.74-1.26,2.6-1.91,2.46-2.52-5.35-2.38-6.69-1.1ZM1019.45,365.03s0,.02-.02,0c0,0,.01,0,.02,0ZM1027.53,356.36c-.65.56-1.1,1.29-1.47,2.09-.75.76-3.99-1-1.73-1.06,1.09-.31,2.33-.38,3.2-1.03ZM1031.31,359.03c-1.25.6-2.15,3.21-3.17,2.1-3.95-3.09-.08-2.05,2.58-1.97.2-.03.4-.08.59-.13Z"/><path class="cls-2" d="M1028.37,307.7c5.03-6.05-6.98-4.06-5.88,1.74-2.2-.29-7-.52-9.05-.24-.43.06-.22.75-.22,1.06,0,0,5.77,0,8.08.96-3.16.8-5.82,4.39-3.09,7.07.71.69,1.31-.67,1.4-.92,2.46-1.13,2.42-3.9,2.05-6.06,9.06,3.51-5.53,3.25,1.12,11.64,5.51-6.48,1.16-11.08,5.83-7-.66,1.98-4.24,3.08-2.82,6.01,2.52,6.7,5.76-1.8,2.91-4.84,1.85-.63,3.21,3.48,2.66,5.17,1.36,16.23,8.59,4.85-.3-5.02,9.49,10.26,8.12-4.58-1.26-1.79-3.1-3.67,5.11,1.05,7.21-1.29,4.4-.54-2.53-4.47-4.54-3.46.87-.63,1.74-1.26,2.6-1.91,2.46-2.52-5.35-2.38-6.69-1.1ZM1019.53,317.3s0,.02-.02,0c0,0,.01,0,.02,0ZM1027.62,308.64c-.65.56-1.1,1.29-1.47,2.09-.75.76-3.99-1-1.73-1.06,1.09-.31,2.33-.38,3.2-1.03ZM1031.4,311.31c-1.25.6-2.15,3.21-3.17,2.1-3.95-3.09-.08-2.05,2.58-1.97.2-.03.4-.08.59-.13Z"/><path class="cls-2" d="M1028.37,205.25c5.03-6.05-6.98-4.06-5.88,1.74-2.2-.29-6.97-.44-9.03-.16-.43.06-.25.67-.25.98,0,0,5.77,0,8.08.96-3.16.8-5.82,4.39-3.09,7.07.71.69,1.31-.67,1.4-.92,2.46-1.13,2.42-3.9,2.05-6.06,9.06,3.51-5.53,3.25,1.12,11.64,5.51-6.48,1.16-11.08,5.83-7-.66,1.98-4.24,3.08-2.82,6.01,2.52,6.7,5.76-1.8,2.91-4.84,1.85-.63,3.21,3.48,2.66,5.17,1.36,16.23,8.59,4.85-.3-5.02,9.49,10.26,8.12-4.58-1.26-1.79-3.1-3.67,5.11,1.05,7.21-1.29,4.4-.54-2.53-4.47-4.54-3.46.87-.63,1.74-1.26,2.6-1.91,2.46-2.52-5.35-2.38-6.69-1.1ZM1019.53,214.86s0,.02-.02,0c0,0,.01,0,.02,0ZM1027.62,206.19c-.65.56-1.1,1.29-1.47,2.09-.75.76-3.99-1-1.73-1.06,1.09-.31,2.33-.38,3.2-1.03ZM1031.4,208.86c-1.25.6-2.15,3.21-3.17,2.1-3.95-3.09-.08-2.05,2.58-1.97.2-.03.4-.08.59-.13Z"/><path class="cls-2" d="M1028.37,162.41c5.03-6.05-6.98-4.06-5.88,1.74-2.2-.29-6.97-.44-9.03-.16-.43.06-.25.67-.25.98,0,0,5.77,0,8.08.96-3.16.8-5.82,4.39-3.09,7.07.71.69,1.31-.67,1.4-.92,2.46-1.13,2.42-3.9,2.05-6.06,9.06,3.51-5.53,3.25,1.12,11.64,5.51-6.48,1.16-11.08,5.83-7-.66,1.98-4.24,3.08-2.82,6.01,2.52,6.7,5.76-1.8,2.91-4.84,1.85-.63,3.21,3.48,2.66,5.17,1.36,16.23,8.59,4.85-.3-5.02,9.49,10.26,8.12-4.58-1.26-1.79-3.1-3.67,5.11,1.05,7.21-1.29,4.4-.54-2.53-4.47-4.54-3.46.87-.63,1.74-1.26,2.6-1.91,2.46-2.52-5.35-2.38-6.69-1.1ZM1019.53,172.02s0,.02-.02,0c0,0,.01,0,.02,0ZM1027.62,163.36c-.65.56-1.1,1.29-1.47,2.09-.75.76-3.99-1-1.73-1.06,1.09-.31,2.33-.38,3.2-1.03ZM1031.4,166.03c-1.25.6-2.15,3.21-3.17,2.1-3.95-3.09-.08-2.05,2.58-1.97.2-.03.4-.08.59-.13Z"/><path class="cls-2" d="M65.39,355.85c0,1.48-.47,2.78-1.42,3.89s-2.25,1.67-3.91,1.67c-.54,0-1.45-.04-2.71-.11.08-1.61.12-3.4.12-5.34,0-1.83-.04-3.44-.12-4.83h.86c.21,0,.53,0,.95-.02.43-.02.71-.02.84-.02,1.84,0,3.2.45,4.07,1.36s1.31,2.04,1.31,3.41ZM64.03,356.2c0-1.16-.37-2.12-1.11-2.9-.74-.78-1.88-1.16-3.42-1.16-.22,0-.52.03-.9.08.04,1.21.06,2.46.06,3.74,0,1.41.03,2.83.09,4.28.42.08.82.12,1.2.12,1.38,0,2.4-.41,3.07-1.22.67-.82,1-1.8,1-2.94Z"/><path class="cls-2" d="M74,356.72c0,.22-.01.52-.03.91l-5.37.09c.05.76.35,1.4.88,1.91.54.51,1.25.77,2.13.77.79,0,1.53-.1,2.23-.29l-.13,1.1c-.51.2-1.25.3-2.21.3-1.35,0-2.39-.37-3.1-1.11s-1.07-1.64-1.07-2.7c0-1.14.32-2.11.97-2.93s1.52-1.23,2.61-1.23c1,0,1.77.3,2.29.89s.79,1.36.79,2.29ZM72.7,356.73c0-1.46-.61-2.2-1.84-2.2s-1.99.76-2.21,2.28l4.05-.09Z"/><path class="cls-2" d="M81.17,359.18c0,1.52-.97,2.28-2.91,2.28-.86,0-1.66-.09-2.41-.26l.24-1.15c.68.26,1.41.39,2.2.39,1.14,0,1.7-.32,1.7-.97,0-.31-.13-.56-.38-.75-.25-.18-.67-.39-1.25-.62-.74-.29-1.28-.57-1.61-.84-.49-.4-.73-.89-.73-1.45s.22-1.1.67-1.53c.45-.42,1.13-.64,2.05-.64s1.61.08,2.16.23l-.24,1.12c-.56-.22-1.21-.34-1.95-.34-1,0-1.5.29-1.5.87,0,.29.11.53.34.71.22.18.66.4,1.31.65.7.28,1.22.55,1.56.81.5.41.76.9.76,1.48Z"/><path class="cls-2" d="M88.99,360.11l-.08,1.05c-.42.24-.99.36-1.7.36-1.35,0-2.38-.37-3.09-1.12-.71-.75-1.07-1.64-1.07-2.7,0-1.11.38-2.07,1.12-2.88s1.74-1.2,2.98-1.2c.62,0,1.12.06,1.52.19l-.21,1.23c-.55-.2-1.1-.3-1.66-.3-.74,0-1.33.26-1.77.77s-.66,1.16-.66,1.94c0,.84.26,1.55.78,2.11.52.56,1.26.84,2.21.84.39,0,.93-.1,1.62-.29Z"/><path class="cls-2" d="M97.34,356.72c0,.22-.01.52-.03.91l-5.37.09c.05.76.35,1.4.88,1.91.54.51,1.25.77,2.13.77.79,0,1.53-.1,2.23-.29l-.13,1.1c-.51.2-1.25.3-2.21.3-1.35,0-2.39-.37-3.1-1.11s-1.07-1.64-1.07-2.7c0-1.14.32-2.11.97-2.93s1.52-1.23,2.61-1.23c1,0,1.77.3,2.29.89s.79,1.36.79,2.29ZM96.04,356.73c0-1.46-.61-2.2-1.84-2.2s-1.99.76-2.21,2.28l4.05-.09Z"/><path class="cls-2" d="M106.16,361.3h-1.42c.11-1.37.17-2.86.17-4.48,0-.8-.16-1.35-.49-1.64-.33-.29-.79-.44-1.39-.44-.74,0-1.42.27-2.05.8,0,1.78.01,3.7.03,5.77h-1.42c.09-1.77.13-3.05.13-3.84,0-1.22-.11-2.4-.34-3.55l1.38-.2.15.95h.06c.77-.7,1.6-1.05,2.48-1.05s1.53.19,2.01.57c.47.38.71,1.06.71,2.04,0,.1,0,.29-.02.59-.01.29-.02.49-.02.59,0,.87.01,2.17.03,3.89Z"/><path class="cls-2" d="M115.35,361.29l-1.16.04c-.04-.22-.06-.46-.06-.71h-.09c-.55.59-1.36.89-2.44.89-.99,0-1.78-.36-2.36-1.08s-.88-1.59-.88-2.6c0-1.15.33-2.14.98-2.98.65-.83,1.57-1.25,2.75-1.25.84,0,1.45.17,1.81.52h.06c0-1.29-.04-2.56-.11-3.8l1.48-.05c-.1,1.32-.15,3.05-.15,5.2s.05,4.12.16,5.84ZM114.09,359.75c0-1.62-.04-3.18-.13-4.68-.42-.35-.95-.52-1.58-.52-.88,0-1.54.29-1.98.88s-.66,1.32-.66,2.21c0,.79.21,1.46.62,2s.99.81,1.72.81c.92,0,1.59-.23,2-.7Z"/><path class="cls-2" d="M124.22,356.72c0,.22-.01.52-.03.91l-5.37.09c.05.76.35,1.4.88,1.91.54.51,1.25.77,2.13.77.79,0,1.53-.1,2.23-.29l-.13,1.1c-.51.2-1.25.3-2.21.3-1.35,0-2.39-.37-3.1-1.11s-1.07-1.64-1.07-2.7c0-1.14.32-2.11.97-2.93s1.52-1.23,2.61-1.23c1,0,1.77.3,2.29.89s.79,1.36.79,2.29ZM122.92,356.73c0-1.46-.61-2.2-1.84-2.2s-1.99.76-2.21,2.28l4.05-.09Z"/><path class="cls-2" d="M131.15,353.88l-.35,1.24c-.41-.16-.78-.24-1.13-.24-.98,0-1.61.47-1.91,1.4,0,2.4.02,4.07.05,5.02h-1.38c.08-1.65.12-2.93.12-3.84,0-1.23-.12-2.42-.37-3.55l1.37-.2c.1.57.15.96.15,1.15h.06c.56-.83,1.22-1.24,1.97-1.24.4,0,.87.09,1.42.26Z"/><path class="cls-2" d="M81.24,211.29h-1.7c0-.2-.39-.95-1.17-2.25-.76-1.25-1.32-2.1-1.68-2.55h-.09c-.31.42-.8,1.25-1.45,2.48-.69,1.3-1.03,2.07-1.03,2.31h-1.64c0-.16.55-1.05,1.65-2.7,1.09-1.62,1.77-2.56,2.03-2.81v-.08c-.28-.32-.86-1.12-1.73-2.4-.9-1.32-1.35-2.05-1.35-2.19h1.68c0,.16.31.76.94,1.81.61,1.03,1.05,1.7,1.32,2.02h.08c.27-.32.69-1,1.27-2.04s.87-1.63.87-1.79h1.65c0,.15-.48.85-1.43,2.11-.92,1.21-1.55,1.98-1.88,2.32v.08c.4.44,1.1,1.43,2.11,2.97,1.05,1.59,1.57,2.49,1.57,2.7Z"/><path class="cls-2" d="M85.47,206.75l-.09,1.01-3.34.11.07-1,3.37-.12Z"/><path class="cls-2" d="M93.81,211.29h-1.42c.11-1.37.17-2.84.17-4.42,0-.84-.16-1.41-.47-1.71-.32-.29-.75-.44-1.31-.44-.78,0-1.51.27-2.2.8,0,2.84.02,4.77.06,5.77h-1.38c.05-1.38.07-3.32.07-5.83,0-2.2-.08-3.92-.23-5.16l1.48-.08c-.04,1.59-.06,3.06-.06,4.42h.05c.78-.69,1.64-1.03,2.57-1.03.83,0,1.48.19,1.95.58s.7,1.07.7,2.04c0,.1,0,.29-.02.58-.01.29-.02.54-.02.76,0,.75.01,1.99.03,3.71Z"/><path class="cls-2" d="M102.66,206.7c0,.22-.01.52-.03.91l-5.37.09c.05.76.35,1.4.88,1.91.54.51,1.25.77,2.13.77.79,0,1.53-.1,2.23-.29l-.13,1.1c-.51.2-1.25.3-2.21.3-1.35,0-2.39-.37-3.1-1.11s-1.07-1.64-1.07-2.7c0-1.14.32-2.11.97-2.93s1.52-1.23,2.61-1.23c1,0,1.77.3,2.29.89s.79,1.36.79,2.29ZM101.36,206.72c0-1.46-.61-2.2-1.84-2.2s-1.99.76-2.21,2.28l4.05-.09Z"/><path class="cls-2" d="M106.28,211.29h-1.41c.07-1.04.11-2.23.11-3.57,0-1.5-.09-2.77-.27-3.79l1.56-.21c-.06,1.09-.09,2.42-.09,4,0,1.25.04,2.44.11,3.57ZM106.61,201.52c0,.27-.09.5-.26.69s-.41.29-.73.29c-.27,0-.47-.08-.62-.25s-.22-.37-.22-.61c0-.26.09-.49.27-.68.18-.19.42-.29.73-.29.25,0,.46.08.61.25s.22.37.22.6Z"/><path class="cls-2" d="M116.09,202.88l-.12,1.08c-.97,0-1.5.16-1.6.47v.08c.33.41.5.87.5,1.39,0,.81-.27,1.48-.8,2.01-.53.53-1.36.79-2.47.79-.5,0-.89-.05-1.18-.16-.26.18-.38.41-.38.68,0,.33.15.55.45.66.39.15,1.19.22,2.41.22,1.98,0,2.97.66,2.97,1.97,0,.94-.39,1.71-1.16,2.33-.77.61-1.77.92-2.99.92s-2.15-.23-2.68-.68c-.53-.46-.8-1-.8-1.64,0-.58.13-1.05.39-1.41.26-.35.59-.57.98-.66v-.07c-.41-.2-.62-.58-.62-1.14,0-.51.26-.96.78-1.34v-.06c-.28-.14-.54-.36-.79-.69s-.38-.72-.38-1.2c0-.83.27-1.5.82-2.02s1.34-.78,2.38-.78c.85,0,1.52.15,2,.46h.09c.17-.88.6-1.32,1.31-1.32.39,0,.68.04.89.12ZM114.7,212.61c0-.49-.18-.83-.54-1.04-.36-.2-1.03-.3-2.01-.3-.67,0-1.28-.03-1.83-.09-.64.31-.95.76-.95,1.35,0,1.27.83,1.91,2.5,1.91.87,0,1.56-.17,2.07-.51s.76-.78.76-1.32ZM113.61,206.22c0-.57-.18-1.01-.54-1.32-.36-.3-.82-.46-1.38-.46-.53,0-.97.15-1.32.44-.35.29-.53.71-.53,1.25s.18,1,.54,1.3c.36.3.83.45,1.39.45.52,0,.96-.14,1.31-.43s.53-.7.53-1.23Z"/><path class="cls-2" d="M124.4,211.29h-1.42c.11-1.37.17-2.84.17-4.42,0-.84-.16-1.41-.47-1.71-.32-.29-.75-.44-1.31-.44-.78,0-1.51.27-2.2.8,0,2.84.02,4.77.06,5.77h-1.38c.05-1.38.07-3.32.07-5.83,0-2.2-.08-3.92-.23-5.16l1.48-.08c-.04,1.59-.06,3.06-.06,4.42h.05c.78-.69,1.64-1.03,2.57-1.03.83,0,1.48.19,1.95.58s.7,1.07.7,2.04c0,.1,0,.29-.02.58-.01.29-.02.54-.02.76,0,.75.01,1.99.03,3.71Z"/><path class="cls-2" d="M131.13,210.21l-.09,1.02c-.41.15-.8.23-1.16.23-.94,0-1.58-.24-1.92-.71s-.52-1.33-.52-2.56c0-.8,0-1.84.02-3.12-.29,0-.72.02-1.29.05l.05-1.13c.49.03.94.05,1.33.05,0-.31.03-1.05.08-2.23l1.23-.12c-.09,1.09-.13,1.88-.13,2.35.51,0,1.26-.03,2.25-.08l-.05,1.16c-.94-.03-1.69-.05-2.26-.05-.01.79-.02,1.67-.02,2.66,0,1.07.11,1.78.34,2.13s.65.52,1.26.52c.2,0,.5-.05.9-.16Z"/><path class="cls-2" d="M74.62,168.47h-1.65c0-.35-.33-1.45-.98-3.29h-4.51c-.65,1.82-.97,2.91-.97,3.29h-1.58c0-.19.67-1.86,2.02-5s2.02-4.86,2.02-5.18h1.81c0,.31.64,2.01,1.92,5.1s1.92,4.78,1.92,5.07ZM71.62,164.16c-1.22-3.06-1.84-4.68-1.84-4.88h-.09c0,.16-.63,1.79-1.9,4.88h3.82Z"/><path class="cls-2" d="M81.09,166.35c0,1.52-.97,2.28-2.91,2.28-.86,0-1.66-.09-2.41-.26l.24-1.15c.68.26,1.41.39,2.2.39,1.14,0,1.7-.32,1.7-.97,0-.31-.13-.56-.38-.75-.25-.18-.67-.39-1.25-.62-.74-.29-1.28-.57-1.61-.84-.49-.4-.73-.89-.73-1.45s.22-1.1.67-1.53c.45-.42,1.13-.64,2.05-.64s1.61.08,2.16.23l-.24,1.12c-.56-.22-1.21-.34-1.95-.34-1,0-1.5.29-1.5.87,0,.29.11.53.34.71.22.18.66.4,1.31.65.7.28,1.22.55,1.56.81.5.41.76.9.76,1.48Z"/><path class="cls-2" d="M88.92,167.28l-.08,1.05c-.42.24-.99.36-1.7.36-1.35,0-2.38-.37-3.09-1.12-.71-.75-1.07-1.64-1.07-2.7,0-1.11.38-2.07,1.12-2.88s1.74-1.2,2.98-1.2c.62,0,1.12.06,1.52.19l-.21,1.23c-.55-.2-1.1-.3-1.66-.3-.74,0-1.33.26-1.77.77s-.66,1.16-.66,1.94c0,.84.26,1.55.78,2.11.52.56,1.26.84,2.21.84.39,0,.93-.1,1.62-.29Z"/><path class="cls-2" d="M97.27,163.89c0,.22-.01.52-.03.91l-5.37.09c.05.76.35,1.4.88,1.91.54.51,1.25.77,2.13.77.79,0,1.53-.1,2.23-.29l-.13,1.1c-.51.2-1.25.3-2.21.3-1.35,0-2.39-.37-3.1-1.11s-1.07-1.64-1.07-2.7c0-1.14.32-2.11.97-2.93s1.52-1.23,2.61-1.23c1,0,1.77.3,2.29.89s.79,1.36.79,2.29ZM95.96,163.9c0-1.46-.61-2.2-1.84-2.2s-1.99.76-2.21,2.28l4.05-.09Z"/><path class="cls-2" d="M106.09,168.47h-1.42c.11-1.37.17-2.86.17-4.48,0-.8-.16-1.35-.49-1.64-.33-.29-.79-.44-1.39-.44-.74,0-1.42.27-2.05.8,0,1.78.01,3.7.03,5.77h-1.42c.09-1.77.13-3.05.13-3.84,0-1.22-.11-2.4-.34-3.55l1.38-.2.15.95h.06c.77-.7,1.6-1.05,2.48-1.05s1.53.19,2.01.57c.47.38.71,1.06.71,2.04,0,.1,0,.29-.02.59-.01.29-.02.49-.02.59,0,.87.01,2.17.03,3.89Z"/><path class="cls-2" d="M115.27,168.46l-1.16.04c-.04-.22-.06-.46-.06-.71h-.09c-.55.59-1.36.89-2.44.89-.99,0-1.78-.36-2.36-1.08s-.88-1.59-.88-2.6c0-1.15.33-2.14.98-2.98.65-.83,1.57-1.25,2.75-1.25.84,0,1.45.17,1.81.52h.06c0-1.29-.04-2.56-.11-3.8l1.48-.05c-.1,1.32-.15,3.05-.15,5.2s.05,4.12.16,5.84ZM114.01,166.92c0-1.62-.04-3.18-.13-4.68-.42-.35-.95-.52-1.58-.52-.88,0-1.54.29-1.98.88s-.66,1.32-.66,2.21c0,.79.21,1.46.62,2s.99.81,1.72.81c.92,0,1.59-.23,2-.7Z"/><path class="cls-2" d="M124.15,163.89c0,.22-.01.52-.03.91l-5.37.09c.05.76.35,1.4.88,1.91.54.51,1.25.77,2.13.77.79,0,1.53-.1,2.23-.29l-.13,1.1c-.51.2-1.25.3-2.21.3-1.35,0-2.39-.37-3.1-1.11s-1.07-1.64-1.07-2.7c0-1.14.32-2.11.97-2.93s1.52-1.23,2.61-1.23c1,0,1.77.3,2.29.89s.79,1.36.79,2.29ZM122.84,163.9c0-1.46-.61-2.2-1.84-2.2s-1.99.76-2.21,2.28l4.05-.09Z"/><path class="cls-2" d="M131.07,161.05l-.35,1.24c-.41-.16-.78-.24-1.13-.24-.98,0-1.61.47-1.91,1.4,0,2.4.02,4.07.05,5.02h-1.38c.08-1.65.12-2.93.12-3.84,0-1.23-.12-2.42-.37-3.55l1.37-.2c.1.57.15.96.15,1.15h.06c.56-.83,1.22-1.24,1.97-1.24.4,0,.87.09,1.42.26Z"/><path class="cls-2" d="M81.15,310.35c0,1.01-.43,1.79-1.29,2.34-.84.54-1.99.8-3.45.8-.41,0-1.2-.02-2.39-.05.07-1.61.11-3.4.11-5.34,0-1.83-.04-3.44-.11-4.83h.94c.18,0,.55,0,1.1-.02.55-.02.95-.02,1.2-.02,2.17,0,3.25.75,3.25,2.24,0,1.17-.51,1.94-1.54,2.33v.08c1.45.26,2.18,1.08,2.18,2.47ZM79.2,305.86c0-1.08-.73-1.62-2.18-1.62-.73,0-1.32.04-1.77.12.04.38.06,1.43.06,3.18.25.01.54.02.84.02,1.03,0,1.78-.12,2.25-.35.53-.26.8-.71.8-1.34ZM79.83,310.48c0-1.28-1.14-1.92-3.41-1.92-.42,0-.78.02-1.1.05,0,1.39.03,2.63.09,3.73.2.05.55.07,1.05.07,1.25,0,2.15-.16,2.67-.49.47-.3.7-.77.7-1.43Z"/><path class="cls-2" d="M89.23,313.45l-1.23.05c-.06-.25-.09-.5-.09-.73h-.08c-.64.58-1.51.88-2.62.88-.6,0-1.11-.18-1.55-.53-.43-.35-.65-.85-.65-1.5,0-.8.34-1.45,1.02-1.93.68-.49,1.93-.74,3.77-.77.02-.12.02-.27.02-.43,0-.64-.17-1.07-.51-1.28-.34-.21-.86-.32-1.55-.32-.82,0-1.62.1-2.41.3l.13-1.08c.78-.22,1.68-.34,2.7-.34.93,0,1.64.19,2.15.57.5.38.76,1.04.76,1.96,0,.25-.01.69-.04,1.33s-.04,1.07-.04,1.29c0,.95.07,1.79.21,2.53ZM87.84,311.93c-.03-.79-.04-1.5-.04-2.13-.98,0-1.72.07-2.23.22-.85.26-1.28.76-1.28,1.49s.5,1.06,1.5,1.06c.86,0,1.54-.21,2.05-.64Z"/><path class="cls-2" d="M96.57,311.33c0,1.52-.97,2.28-2.91,2.28-.86,0-1.66-.09-2.41-.26l.24-1.15c.68.26,1.41.39,2.2.39,1.14,0,1.7-.32,1.7-.97,0-.31-.13-.56-.38-.75-.25-.18-.67-.39-1.25-.62-.74-.29-1.28-.57-1.61-.84-.49-.4-.73-.89-.73-1.45s.22-1.1.67-1.53c.45-.42,1.13-.64,2.05-.64s1.61.08,2.16.23l-.24,1.12c-.56-.22-1.21-.34-1.95-.34-1,0-1.5.29-1.5.87,0,.29.11.53.34.71.22.18.66.4,1.31.65.7.28,1.22.55,1.56.81.5.41.76.9.76,1.48Z"/><path class="cls-2" d="M105.12,308.86c0,.22-.01.52-.03.91l-5.37.09c.05.76.35,1.4.88,1.91.54.51,1.25.77,2.13.77.79,0,1.53-.1,2.23-.29l-.13,1.1c-.51.2-1.25.3-2.21.3-1.35,0-2.39-.37-3.1-1.11s-1.07-1.64-1.07-2.7c0-1.14.32-2.11.97-2.93s1.52-1.23,2.61-1.23c1,0,1.77.3,2.29.89s.79,1.36.79,2.29ZM103.82,308.88c0-1.46-.61-2.2-1.84-2.2s-1.99.76-2.21,2.28l4.05-.09Z"/><path class="cls-2" d="M108.83,313.45h-1.5c.09-1.72.14-3.66.14-5.83s-.08-3.83-.23-5.16l1.59-.08c-.1,1.42-.15,3.16-.15,5.24s.05,4.08.15,5.83Z"/><path class="cls-2" d="M112.8,313.45h-1.41c.07-1.04.11-2.23.11-3.57,0-1.5-.09-2.77-.27-3.79l1.56-.21c-.06,1.09-.09,2.42-.09,4,0,1.25.04,2.44.11,3.57ZM113.13,303.68c0,.27-.09.5-.26.69s-.41.29-.73.29c-.27,0-.47-.08-.62-.25s-.22-.37-.22-.61c0-.26.09-.49.27-.68.18-.19.42-.29.73-.29.25,0,.46.08.61.25s.22.37.22.6Z"/><path class="cls-2" d="M121.89,313.45h-1.42c.11-1.37.17-2.86.17-4.48,0-.8-.16-1.35-.49-1.64-.33-.29-.79-.44-1.39-.44-.74,0-1.42.27-2.05.8,0,1.78.01,3.7.03,5.77h-1.42c.09-1.77.13-3.05.13-3.84,0-1.22-.11-2.4-.34-3.55l1.38-.2.15.95h.06c.77-.7,1.6-1.05,2.48-1.05s1.53.19,2.01.57c.47.38.71,1.06.71,2.04,0,.1,0,.29-.02.59-.01.29-.02.49-.02.59,0,.87.01,2.17.03,3.89Z"/><path class="cls-2" d="M130.74,308.86c0,.22-.01.52-.03.91l-5.37.09c.05.76.35,1.4.88,1.91.54.51,1.25.77,2.13.77.79,0,1.53-.1,2.23-.29l-.13,1.1c-.51.2-1.25.3-2.21.3-1.35,0-2.39-.37-3.1-1.11s-1.07-1.64-1.07-2.7c0-1.14.32-2.11.97-2.93s1.52-1.23,2.61-1.23c1,0,1.77.3,2.29.89s.79,1.36.79,2.29ZM129.44,308.88c0-1.46-.61-2.2-1.84-2.2s-1.99.76-2.21,2.28l4.05-.09Z"/><circle class="cls-3" cx="188.75" cy="253.24" r="54.58"/><line class="cls-3" x1="175.78" y1="200.22" x2="112.16" y2="54.09"/><line class="cls-3" x1="337.81" y1="208.06" x2="286.46" y2="20.91"/><line class="cls-3" x1="385.83" y1="217.05" x2="286.46" y2="20.91"/><circle class="cls-3" cx="631.55" cy="233.29" r="40.95"/><line class="cls-3" x1="506.41" y1="265.55" x2="551.94" y2="44.67"/><text class="cls-1" transform="translate(59.17 44.85)"><tspan x="0" y="0">Curved spine</tspan></text><text class="cls-1" transform="translate(240.66 13.11)"><tspan x="0" y="0">High contrast</tspan></text><text class="cls-1" transform="translate(501.53 38.21)"><tspan x="0" y="0">Consistent width</tspan></text><text class="cls-1" transform="translate(349.69 84.86)"><tspan x="0" y="0">Angle of stress</tspan></text><text class="cls-1" transform="translate(706.41 22.39)"><tspan x="0" y="0">Curved terminal’s </tspan><tspan x="0" y="19.2">accentuate serifs</tspan></text><circle class="cls-3" cx="720.22" cy="250.21" r="13.81"/><circle class="cls-3" cx="503.09" cy="279.36" r="13.81"/><circle class="cls-3" cx="341.53" cy="215.33" r="8.16"/><circle class="cls-3" cx="385.83" cy="232.99" r="15.93"/><line class="cls-3" x1="718.02" y1="236.78" x2="551.94" y2="44.67"/><line class="cls-3" x1="651.63" y1="197.59" x2="768.23" y2="44.67"/><line class="cls-3" x1="499.8" y1="334.35" x2="497.64" y2="328.75"/><line class="cls-4" x1="493.52" y1="318.03" x2="413.09" y2="109.16"/><line class="cls-3" x1="411.03" y1="103.8" x2="408.87" y2="98.21"/></g></svg>