<?xml version="1.0" encoding="UTF-8"?><svg id="Layer_2" xmlns="http://www.w3.org/2000/svg" xmlns:xlink="http://www.w3.org/1999/xlink" viewBox="0 0 546.09 284.64"><defs><style>.cls-1{fill:url(#linear-gradient-15);}.cls-2{fill:url(#linear-gradient-13);}.cls-3{fill:url(#linear-gradient-2);}.cls-4,.cls-5,.cls-6,.cls-7{fill:#feebe1;}.cls-8{fill:url(#linear-gradient-25);}.cls-5{opacity:.2;}.cls-9{fill:#fef3ee;}.cls-10{fill:url(#linear-gradient-10);}.cls-11{fill:url(#linear-gradient-12);}.cls-12{fill:#212655;}.cls-13{fill:#eae5e1;}.cls-13,.cls-14,.cls-15,.cls-16,.cls-17{opacity:.6;}.cls-18{fill:#3c76bc;}.cls-19{fill:#fff;}.cls-20{fill:#606b7c;}.cls-21{opacity:.79;}.cls-21,.cls-22,.cls-23{fill:#2f509d;}.cls-14{fill:#dddad3;}.cls-15{fill:#0d4c83;}.cls-24{fill:url(#linear-gradient-26);}.cls-25{fill:none;}.cls-26{fill:url(#linear-gradient-4);}.cls-27{fill:url(#radial-gradient-5);}.cls-6{opacity:.35;}.cls-28{fill:url(#radial-gradient);}.cls-29{fill:url(#radial-gradient-3);}.cls-22{opacity:.5;}.cls-30{fill:#5581c1;}.cls-31{fill:url(#linear-gradient-3);}.cls-32{fill:#82b1df;}.cls-33{fill:url(#linear-gradient-5);}.cls-34{fill:#0453a1;}.cls-35{fill:url(#linear-gradient-22);}.cls-36{fill:url(#linear-gradient-24);}.cls-37{fill:url(#linear-gradient-8);}.cls-38{fill:#fffbf1;}.cls-39{fill:url(#radial-gradient-2);}.cls-40{fill:url(#linear-gradient-14);}.cls-16,.cls-41{fill:#184274;}.cls-42{fill:url(#linear-gradient-20);}.cls-43{fill:url(#radial-gradient-4);}.cls-44{fill:url(#linear-gradient-17);}.cls-45{fill:url(#linear-gradient-7);}.cls-46{fill:#afbde1;}.cls-47{fill:url(#linear-gradient-9);}.cls-48{fill:url(#linear-gradient-11);}.cls-49{fill:#fde6e0;}.cls-50{fill:url(#linear-gradient-19);}.cls-41{opacity:.3;}.cls-51{fill:url(#linear-gradient-6);}.cls-52{fill:#292b69;}.cls-53{fill:#517bbe;}.cls-54{fill:#0f66b1;}.cls-55{fill:url(#linear-gradient-21);}.cls-17{fill:#cecac3;}.cls-56{fill:#73a6d9;}.cls-57{fill:url(#radial-gradient-6);}.cls-58{fill:url(#linear-gradient-16);}.cls-59{fill:#e8e8e8;}.cls-60{fill:url(#linear-gradient);}.cls-61{fill:url(#linear-gradient-23);}.cls-62{fill:url(#linear-gradient-18);}.cls-7{opacity:.65;}</style><radialGradient id="radial-gradient" cx="273" cy="142" fx="273" fy="142" r="217.59" gradientUnits="userSpaceOnUse"><stop offset="0" stop-color="#fff"/><stop offset=".42" stop-color="#fffcf6"/><stop offset="1" stop-color="#fffbf1"/></radialGradient><linearGradient id="linear-gradient" x1="1149.37" y1="121.2" x2="1154.02" y2="121.2" gradientTransform="translate(1616.24) rotate(-180) scale(1 -1)" gradientUnits="userSpaceOnUse"><stop offset="0" stop-color="#0453a1"/><stop offset="1" stop-color="#0074b8"/></linearGradient><linearGradient id="linear-gradient-2" x1="386.56" y1="135.03" x2="457.56" y2="189.35" gradientUnits="userSpaceOnUse"><stop offset="0" stop-color="#fffbf1"/><stop offset=".22" stop-color="#ccd9e0"/><stop offset=".71" stop-color="#4f85b9"/><stop offset="1" stop-color="#0453a1"/></linearGradient><linearGradient id="linear-gradient-3" x1="398.25" y1="236.77" x2="470.74" y2="241.44" gradientUnits="userSpaceOnUse"><stop offset=".55" stop-color="#fffbf1"/><stop offset=".56" stop-color="#f1f2ec"/><stop offset=".61" stop-color="#bacddb"/><stop offset=".66" stop-color="#89accb"/><stop offset=".71" stop-color="#6091be"/><stop offset=".77" stop-color="#3f7ab3"/><stop offset=".82" stop-color="#2569ab"/><stop offset=".88" stop-color="#125ca5"/><stop offset=".94" stop-color="#0755a2"/><stop offset="1" stop-color="#0453a1"/></linearGradient><linearGradient id="linear-gradient-4" x1="430.34" y1="245.96" x2="465.09" y2="297.81" gradientUnits="userSpaceOnUse"><stop offset=".44" stop-color="#fffbf1"/><stop offset=".44" stop-color="#fefaf0"/><stop offset=".48" stop-color="#cad7e0"/><stop offset=".53" stop-color="#9cb8d1"/><stop offset=".58" stop-color="#739dc4"/><stop offset=".63" stop-color="#5086b9"/><stop offset=".69" stop-color="#3473b0"/><stop offset=".75" stop-color="#1f65a9"/><stop offset=".81" stop-color="#0f5aa4"/><stop offset=".89" stop-color="#0654a1"/><stop offset="1" stop-color="#0453a1"/></linearGradient><linearGradient id="linear-gradient-5" x1="425.39" y1="120.23" x2="502.26" y2="201.67" gradientUnits="userSpaceOnUse"><stop offset=".16" stop-color="#fffbf1"/><stop offset=".21" stop-color="#e9eeed"/><stop offset=".3" stop-color="#c9dbe9"/><stop offset=".39" stop-color="#afcbe5"/><stop offset=".5" stop-color="#9bbfe2"/><stop offset=".62" stop-color="#8cb7e0"/><stop offset=".76" stop-color="#84b2df"/><stop offset="1" stop-color="#82b1df"/></linearGradient><linearGradient id="linear-gradient-6" x1="1162.09" y1="140.67" x2="1169.3" y2="140.67" xlink:href="#linear-gradient"/><linearGradient id="linear-gradient-7" x1="1136.05" y1="148.01" x2="1145.01" y2="148.01" xlink:href="#linear-gradient"/><radialGradient id="radial-gradient-2" cx="-82.06" cy="132.86" fx="-82.06" fy="132.86" r="1.04" gradientTransform="translate(560 36.62) rotate(18.62)" gradientUnits="userSpaceOnUse"><stop offset="0" stop-color="#fff" stop-opacity=".8"/><stop offset=".01" stop-color="#fffefe" stop-opacity=".8"/><stop offset=".4" stop-color="#fffcf7" stop-opacity=".91"/><stop offset=".74" stop-color="#fffbf2" stop-opacity=".98"/><stop offset="1" stop-color="#fffbf1"/></radialGradient><linearGradient id="linear-gradient-8" x1="405.41" y1="135.21" x2="520.09" y2="186.25" gradientUnits="userSpaceOnUse"><stop offset="0" stop-color="#fffbf1"/><stop offset=".46" stop-color="#0074b8"/><stop offset="1" stop-color="#0453a1"/></linearGradient><radialGradient id="radial-gradient-3" cx="474.32" cy="127.68" fx="474.32" fy="127.68" r=".73" gradientTransform="matrix(1,0,0,1,0,0)" xlink:href="#radial-gradient-2"/><linearGradient id="linear-gradient-9" x1="388.32" y1="136.38" x2="459.32" y2="190.7" xlink:href="#linear-gradient-2"/><linearGradient id="linear-gradient-10" x1="502.58" y1="135.46" x2="518.54" y2="142.56" xlink:href="#linear-gradient-8"/><radialGradient id="radial-gradient-4" cx="417.2" cy="140.33" fx="417.2" fy="140.33" r="12.04" gradientTransform="matrix(1,0,0,1,0,0)" xlink:href="#radial-gradient-2"/><radialGradient id="radial-gradient-5" cx="274.1" cy="66.68" fx="274.1" fy="66.68" r="83.2" gradientTransform="translate(270.13 -215.38) rotate(75.52)" gradientUnits="userSpaceOnUse"><stop offset="0" stop-color="#fcc292"/><stop offset=".03" stop-color="#fccca4"/><stop offset=".09" stop-color="#fddbc0"/><stop offset=".16" stop-color="#fde8d7"/><stop offset=".24" stop-color="#fef2e9"/><stop offset=".33" stop-color="#fef9f5"/><stop offset=".45" stop-color="#fefdfc"/><stop offset=".74" stop-color="#fff"/></radialGradient><linearGradient id="linear-gradient-11" x1="308.29" y1="69.61" x2="337.89" y2="106.91" gradientUnits="userSpaceOnUse"><stop offset="0" stop-color="#afbde1"/><stop offset=".03" stop-color="#b6c1e1"/><stop offset=".16" stop-color="#d0d0e1"/><stop offset=".31" stop-color="#e4dce1"/><stop offset=".47" stop-color="#f3e4e1"/><stop offset=".67" stop-color="#fbe9e1"/><stop offset="1" stop-color="#feebe1"/></linearGradient><linearGradient id="linear-gradient-12" x1="325.31" y1="98.08" x2="301.69" y2="64.98" gradientUnits="userSpaceOnUse"><stop offset="0" stop-color="#feebe1"/><stop offset=".14" stop-color="#f5e6e0"/><stop offset=".36" stop-color="#dedbe0"/><stop offset=".64" stop-color="#b9c9de"/><stop offset=".96" stop-color="#85b0dd"/><stop offset="1" stop-color="#7eaddd"/></linearGradient><linearGradient id="linear-gradient-13" x1="276.79" y1="42.54" x2="229.75" y2="101.74" gradientUnits="userSpaceOnUse"><stop offset=".06" stop-color="#afbde1"/><stop offset=".2" stop-color="#c0c7e1"/><stop offset=".59" stop-color="#ece1e1"/><stop offset=".79" stop-color="#feebe1"/></linearGradient><linearGradient id="linear-gradient-14" x1="248.18" y1="97.31" x2="296.76" y2="97.31" gradientUnits="userSpaceOnUse"><stop offset="0" stop-color="#82b1df"/><stop offset=".43" stop-color="#83b1df"/><stop offset=".59" stop-color="#8ab5df"/><stop offset=".7" stop-color="#96badf"/><stop offset=".79" stop-color="#a7c2df"/><stop offset=".86" stop-color="#bdccdf"/><stop offset=".93" stop-color="#d8d9e0"/><stop offset=".99" stop-color="#f8e8e0"/><stop offset="1" stop-color="#feebe1"/></linearGradient><linearGradient id="linear-gradient-15" x1="269.16" y1="217.75" x2="269.16" y2="110.54" gradientUnits="userSpaceOnUse"><stop offset="0" stop-color="#5c95cd"/><stop offset=".3" stop-color="#598fc8"/><stop offset=".67" stop-color="#5180ba"/><stop offset=".94" stop-color="#4970ac"/></linearGradient><linearGradient id="linear-gradient-16" x1="243.95" y1="215.48" x2="291.83" y2="215.48" gradientUnits="userSpaceOnUse"><stop offset="0" stop-color="#82b1df"/><stop offset=".64" stop-color="#d4d7e0"/><stop offset="1" stop-color="#feebe1"/></linearGradient><linearGradient id="linear-gradient-17" x1="262.4" y1="218.01" x2="262.4" y2="205.65" gradientTransform="matrix(1,0,0,1,0,0)" xlink:href="#linear-gradient"/><linearGradient id="linear-gradient-18" x1="235.38" y1="208.4" x2="251.05" y2="208.4" gradientTransform="matrix(1,0,0,1,0,0)" xlink:href="#linear-gradient"/><linearGradient id="linear-gradient-19" x1="95.85" y1="96.42" x2="75.37" y2="129.84" gradientUnits="userSpaceOnUse"><stop offset=".17" stop-color="#fffbf1"/><stop offset=".72" stop-color="#afbde1"/></linearGradient><linearGradient id="linear-gradient-20" x1="47.04" y1="186.41" x2="66.27" y2="190.16" gradientUnits="userSpaceOnUse"><stop offset=".02" stop-color="#fffbf1"/><stop offset=".14" stop-color="#fbf8ef"/><stop offset=".25" stop-color="#eff0eb"/><stop offset=".36" stop-color="#dbe3e5"/><stop offset=".48" stop-color="#bfd0dc"/><stop offset=".59" stop-color="#9cb8d1"/><stop offset=".7" stop-color="#709bc3"/><stop offset=".81" stop-color="#3d79b3"/><stop offset=".92" stop-color="#0453a1"/></linearGradient><linearGradient id="linear-gradient-21" x1="82.09" y1="137.73" x2="127.02" y2="159.3" gradientUnits="userSpaceOnUse"><stop offset=".13" stop-color="#afbde1"/><stop offset=".43" stop-color="#c7d0e5"/><stop offset="1" stop-color="#fffbf1"/></linearGradient><linearGradient id="linear-gradient-22" x1="37.22" y1="150.32" x2="87.13" y2="150.32" gradientUnits="userSpaceOnUse"><stop offset="0" stop-color="#fffbf1"/><stop offset="1" stop-color="#afbde1"/></linearGradient><linearGradient id="linear-gradient-23" x1="21.51" y1="123.16" x2="86.47" y2="123.16" gradientUnits="userSpaceOnUse"><stop offset="0" stop-color="#fffbf1"/><stop offset=".17" stop-color="#ececed"/><stop offset=".52" stop-color="#cbd2e6"/><stop offset=".81" stop-color="#b6c2e2"/><stop offset="1" stop-color="#afbde1"/></linearGradient><linearGradient id="linear-gradient-24" x1="89.87" y1="155.84" x2="71.23" y2="107.63" gradientUnits="userSpaceOnUse"><stop offset=".48" stop-color="#537cbe"/><stop offset=".49" stop-color="#517bbe"/><stop offset=".55" stop-color="#5f84c1"/><stop offset=".66" stop-color="#859eca"/><stop offset=".81" stop-color="#c2c7d7"/><stop offset=".95" stop-color="#fff0e6"/></linearGradient><linearGradient id="linear-gradient-25" x1="1551.88" y1="116.5" x2="1555.32" y2="116.5" gradientTransform="translate(1616.24) rotate(-180) scale(1 -1)" gradientUnits="userSpaceOnUse"><stop offset="0" stop-color="#292b69"/><stop offset=".62" stop-color="#0d4b92"/><stop offset="1" stop-color="#005ca7"/></linearGradient><radialGradient id="radial-gradient-6" cx="-19.96" cy="-242.09" fx="-19.96" fy="-242.09" r=".61" gradientTransform="translate(70.04 364.08) rotate(3)" xlink:href="#radial-gradient-2"/><linearGradient id="linear-gradient-26" x1="61.93" y1="120.76" x2="91.91" y2="134.25" gradientUnits="userSpaceOnUse"><stop offset="0" stop-color="#fffbf1"/><stop offset=".09" stop-color="#cfdbe1"/><stop offset=".19" stop-color="#9ab7d0"/><stop offset=".3" stop-color="#6c98c2"/><stop offset=".41" stop-color="#467fb6"/><stop offset=".52" stop-color="#296cac"/><stop offset=".63" stop-color="#145ea6"/><stop offset=".73" stop-color="#0855a2"/><stop offset=".84" stop-color="#0453a1"/></linearGradient></defs><g id="Gradient"><rect class="cls-28" width="546" height="284"/><path class="cls-17" d="M546.09,206.85v77.21h-43.05l-.03-.05-45.83-83.96-2.23-3.25s1.77-2.11,2.75-2.38c.31-.09.75-.12,1.2-.12l.69-2.32s12.36.91,23.21-5.45c10.84-6.35,22.14-20.05,24.11-23.89,1.96-3.83,3.63-2.24,3.63-2.24l35.55,46.43Z"/><path class="cls-34" d="M510.67,160.24c-.19.49-.39.97-.6,1.46-.06.15-.13.29-.19.44-.26.59-.53,1.18-.82,1.77-.1.21-.2.42-.31.63-.13.26-.26.52-.4.78-.11.21-.22.43-.34.64-.18.33-.36.67-.54.99-.18.32-.36.63-.54.94,0,.01-.01.03-.02.04-.11.19-.22.38-.33.56-.43.72-.88,1.42-1.34,2.12-5.15,7.85-12.28,14.43-20.54,19.06-.6.34-1.21.66-1.83.97-.06.04-.13.07-.2.1-.92.47-1.86.91-2.81,1.33-.22.1-.44.19-.67.29,0,0-.02,0-.03.01-.18.08-.36.15-.54.23-.28.12-.55.23-.83.34-.31.13-.62.24-.94.36-1.74.66-3.51,1.24-5.3,1.74-.57.18-1.15.3-1.72.44l-1.73.4-1.75.32c-.58.1-1.17.23-1.76.29l-1.76.23c-.29.03-.59.08-.88.11l-.89.07-1.77.14c-.59.06-1.19.05-1.78.07-.09,0-.17,0-.26,0l.06,2.76-2.89-2.76-8.14-7.79c3.64.62,7.34.87,11.03.76,1-.02,2.01-.07,3.01-.15.22-.02.45-.04.67-.06.69-.06,1.37-.13,2.05-.23.21-.02.42-.06.63-.09.15-.02.3-.04.45-.06.18-.03.35-.06.53-.08.24-.04.49-.08.73-.12.24-.04.48-.09.72-.13.45-.08.9-.17,1.34-.27.03,0,.07-.02.1-.02.48-.11.96-.22,1.43-.33.17-.04.34-.08.5-.13,2.01-.51,3.99-1.13,5.93-1.87.26-.09.51-.19.77-.3.26-.1.52-.2.78-.31.26-.1.52-.21.78-.32.26-.11.52-.22.77-.34.25-.11.51-.23.76-.35.26-.12.51-.24.76-.36.51-.24,1.01-.5,1.51-.75,3.74-1.95,7.25-4.35,10.49-7.08.42-.33.8-.7,1.19-1.05l1.18-1.07,1.12-1.13c.37-.38.76-.74,1.11-1.14.72-.78,1.45-1.55,2.12-2.39.34-.41.69-.81,1.02-1.23l.96-1.28c.32-.43.65-.85.94-1.3l.91-1.32c.32-.43.57-.9.86-1.35.28-.46.57-.91.84-1.37.99-1.74,1.94-3.52,2.76-5.36l3.63,3.48Z"/><path class="cls-13" d="M494.51,159.18c-.09.15-.17.29-.26.44-.18.29-.36.58-.55.87,0,.02-.02.03-.03.04-.13.2-.27.41-.4.61-.02.02-.03.04-.04.06-.16.24-.32.47-.49.71-.15.21-.3.42-.45.62-.04.06-.09.12-.13.18-.15.2-.29.39-.44.59-.01.02-.02.03-.03.05-.02.03-.05.06-.07.09-.08.1-.16.2-.24.31-.08.1-.16.2-.24.3-.37.46-.75.92-1.13,1.37-.19.22-.39.45-.58.67-.2.22-.39.44-.6.65-.2.22-.4.43-.61.65-.2.21-.41.42-.62.63l-.11.11c-.17.17-.35.35-.53.51-.21.2-.43.41-.65.61-.2.19-.41.38-.62.57-.02.02-.04.04-.06.06-.2.18-.4.35-.6.52,0,0,0,0-.01,0-.02.02-.05.05-.08.07-.21.18-.42.35-.63.52-.46.37-.92.74-1.39,1.09-.08.06-.15.12-.23.17-.03.02-.07.05-.1.07-.03.02-.06.04-.09.07l-.09.06c-.09.07-.19.14-.28.21-.09.07-.19.14-.29.2-.2.15-.41.29-.62.43-.06.04-.12.08-.17.12-.02.01-.04.02-.06.04-.08.06-.16.11-.24.16-.02,0-.03.02-.04.03-.11.07-.23.15-.34.22-.15.1-.29.19-.44.28-.03.02-.06.04-.09.05,0,0,0,0,0,0-.14.09-.28.18-.43.27-.02.01-.03.02-.05.03,0,0,0,0-.02,0-.11.07-.22.13-.33.2-.1.06-.2.12-.3.18-.07.04-.14.09-.22.13-.02.02-.05.03-.07.04-.09.06-.19.11-.29.17-.05.02-.09.05-.13.07-.02.01-.04.02-.06.03-.07.04-.15.09-.23.13-.07.04-.14.08-.21.12-.08.05-.16.09-.24.13-.06.04-.13.07-.2.11,0,0-.02,0-.02.01-.03.02-.07.04-.11.06-.09.05-.18.1-.27.14-.17.09-.33.18-.5.26-.54.27-1.09.54-1.64.79-.14.06-.28.13-.43.19-.03.02-.06.03-.1.04-.03.02-.06.03-.1.05-.03.02-.06.03-.09.04-.02,0-.05.02-.07.03,0,0-.02,0-.03.01-.06.02-.11.05-.16.07-.19.08-.39.17-.59.25-.06.03-.12.06-.19.08-.2.08-.4.17-.61.24-.16.06-.32.13-.49.19-.05.02-.1.04-.15.06-.11.04-.22.08-.33.12-.23.09-.46.17-.7.25-.07.02-.14.05-.21.07-.2.07-.39.13-.59.2-.08.03-.16.05-.24.08-.03.01-.06.02-.1.03-.02,0-.03.01-.05.02,0,0-.02,0-.02,0-.05.02-.1.03-.15.05-.11.03-.21.06-.32.09l-.21.06c-.07.02-.13.04-.2.06-.06.02-.12.03-.19.05-.03,0-.06.02-.09.02-.06.02-.11.03-.17.05,0,0-.02,0-.03,0-.08.02-.15.04-.23.07-.16.04-.32.09-.48.13-.05.01-.09.02-.14.04-.08.02-.16.04-.24.06-.04,0-.09.02-.13.03-.25.06-.5.13-.76.18-.05.01-.1.02-.15.04-.21.05-.42.09-.63.14h0c-.05.01-.1.02-.16.03-.05,0-.1.02-.15.03-.24.05-.47.1-.71.14-.06.01-.12.02-.18.03-.17.04-.35.07-.52.09-.02,0-.04,0-.06,0-.02,0-.05,0-.06.01,0,0-.02,0-.02,0-.02,0-.03,0-.05,0,0,0-.01,0-.02,0-.02,0-.04,0-.06,0-.01,0-.02,0-.03,0-.08.01-.16.03-.24.04,0,0-.01,0-.02,0,0,0-.01,0-.02,0-.1.02-.2.03-.3.05-.13.02-.25.04-.37.06-.13.02-.25.04-.37.05-.09.01-.18.02-.27.03-.06,0-.13.02-.19.02-.06,0-.11.02-.16.02-.03,0-.07,0-.1.01-.08.01-.15.02-.23.03-.08,0-.15.02-.23.02,0,0-.02,0-.02,0-.07,0-.14.02-.21.02-.06,0-.11.01-.16.02-.12.02-.25.03-.37.04-.02,0-.04,0-.06,0-.16.02-.32.02-.48.04-.04,0-.08,0-.12,0-.01,0-.02,0-.03,0-.04,0-.09,0-.13,0-.09,0-.19.02-.29.02-.01,0-.02,0-.03,0-.09,0-.19.01-.29.02-.01,0-.02,0-.03,0-.16,0-.31.02-.47.02-.24.01-.47.02-.71.03-.06,0-.13,0-.2,0-.07,0-.13,0-.2,0h-.02l-2.42-1.39c8.91-4.7,26.12-11.28,40.14-20.56Z"/><path class="cls-13" d="M514.74,137.19s-.01.06-.02.11v-.05s.02-.04.02-.06Z"/><rect class="cls-52" x="464.21" y="120.25" width=".63" height="9.55"/><polygon class="cls-60" points="466.88 126.24 465.76 123.33 466.56 122.86 465.6 120.57 466.12 120.25 465.64 119.8 464.61 116.16 464.17 117.69 463.86 118.79 463.14 119.48 463.46 119.85 463.14 120.99 462.62 121.6 462.86 122.02 462.54 122.89 463.42 123.38 462.38 125.85 462.22 126.24 466.88 126.24"/><polygon class="cls-34" points="464.83 127.58 464.83 129.88 464.21 129.88 464.21 127.07 464.83 127.58"/><polygon class="cls-18" points="462.38 125.85 462.95 125.52 463.82 123.44 462.94 122.95 463.26 122.09 463.02 121.67 463.54 121.05 463.86 119.92 463.54 119.55 464.25 118.86 464.38 118.42 464.17 117.69 463.86 118.79 463.14 119.48 463.46 119.85 463.14 120.99 462.62 121.6 462.86 122.02 462.54 122.89 463.42 123.38 462.38 125.85"/><polygon class="cls-23" points="470.77 131.51 469.72 123.25 470.77 123.06 468.48 114.16 466.39 122.94 467.44 123.14 466.39 131.39 470.77 131.51"/><path class="cls-52" d="M470.22,122.73l-1.05.2.74,5.82c.18,0,.35,0,.51,0l-.7-5.49,1.05-.2-1.66-6.45-.22.96,1.33,5.16Z"/><polygon class="cls-18" points="468.48 114.16 466.39 122.94 467.07 123.08 468.75 115.11 468.48 114.16"/><path class="cls-52" d="M472.9,129.57c-.82.72-2.07.64-2.8-.18-.59-.67-.65-1.62-.2-2.34h0c.1-.17.23-.32.38-.45.82-.72,2.07-.64,2.79.18.11.12.19.25.27.38.42.79.26,1.8-.44,2.41Z"/><path class="cls-4" d="M475.61,131.42c-1.24.35-2.54-.37-2.89-1.61-.08-.28-.11-.56-.08-.84,1.28-.26,3-.17,4.63-.25.23,1.18-.48,2.37-1.66,2.7Z"/><path class="cls-23" d="M473.34,127.16c-1.15.17-2.51-.59-3.44-.11.1-.16.23-.32.38-.45.82-.72,2.07-.64,2.79.18.11.12.19.25.27.38Z"/><path class="cls-4" d="M477.27,128.77c-1.63.08-3.35,0-4.63.25.02-.26.09-.52.2-.76.27-.61.8-1.1,1.5-1.3.89-.26,1.82.05,2.4.7.22.25.39.56.49.91.02.06.03.13.05.19Z"/><polygon class="cls-23" points="482.94 144.83 488.54 145.69 487.14 136.59 485.74 127.5 485.4 129.7 484.34 136.59 482.94 144.83"/><polygon class="cls-23" points="474.9 134.92 479.47 134.92 478.33 127.5 477.19 120.08 476.89 122.01 476.04 127.5 474.9 134.92"/><polygon class="cls-4" points="477.94 140.37 484.26 140.37 482.68 132.46 481.1 124.56 480.7 126.55 479.52 132.46 477.94 140.37"/><polygon class="cls-7" points="448 135.73 442.4 136.59 443.8 127.5 445.2 118.4 445.54 120.61 446.6 127.5 448 135.73"/><polygon class="cls-21" points="456.04 128.4 451.47 128.4 452.61 120.98 453.75 113.56 454.05 115.49 454.9 120.98 456.04 128.4"/><polygon class="cls-22" points="453 132.03 446.68 132.03 448.26 124.12 449.84 116.22 450.24 118.21 451.42 124.12 453 132.03"/><polygon class="cls-7" points="428.06 131.63 433.66 132.5 432.26 123.4 430.86 114.3 430.52 116.51 429.46 123.4 428.06 131.63"/><polygon class="cls-21" points="420.03 124.3 424.6 124.3 423.45 116.88 422.31 109.46 422.01 111.39 421.17 116.88 420.03 124.3"/><polygon class="cls-22" points="423.06 127.93 429.38 127.93 427.8 120.02 426.23 112.12 425.83 114.11 424.64 120.02 423.06 127.93"/><path class="cls-53" d="M414.1,153.33c-.34-.8-.65-1.62-.93-2.44.29.83.6,1.64.93,2.44Z"/><path class="cls-53" d="M420.67,164.36c-.36-.43-.7-.87-1.03-1.32.34.45.68.88,1.03,1.32Z"/><path class="cls-53" d="M496.75,154.95c.25-.54.49-1.09.72-1.64-.23.55-.46,1.1-.72,1.64Z"/><path class="cls-53" d="M497.8,152.48c.22-.56.43-1.12.62-1.69-.2.57-.4,1.14-.62,1.69Z"/><path class="cls-3" d="M454.42,197.11s-.08,0-.12,0c-3.68-.09-7.35-.51-10.95-1.27-4.64-1.02-9.16-2.56-13.42-4.62-.54-.24-1.06-.53-1.58-.8l-1.57-.83-1.53-.91c-.51-.31-1.02-.59-1.51-.93-.98-.66-1.99-1.28-2.92-2.01l-1.42-1.06-1.37-1.12c-.93-.73-1.78-1.54-2.66-2.33-.45-.39-.85-.82-1.27-1.23-.42-.42-.84-.83-1.24-1.25-1.59-1.73-3.14-3.5-4.52-5.4-5.63-7.51-9.31-16.38-10.73-25.5-1.35-9.12-.56-18.5,2.54-26.95-.39,2.21-.69,4.43-.84,6.65-.18,2.21-.23,4.43-.15,6.64.19,4.41.76,8.76,1.84,12.98,2.18,8.41,6.17,16.25,11.68,22.77,2.73,3.27,5.83,6.22,9.21,8.77,3.39,2.54,7.01,4.77,10.87,6.47,3.85,1.72,7.87,3.04,12,3.86.5.1,1.01.2,1.52.28l8.14,7.79Z"/><path class="cls-31" d="M459.29,283.54h-7.03l2.04-86.43s.08,0,.12,0l2.89,2.76,1.98,83.66Z"/><path class="cls-26" d="M424.43,283.36l.49-.25.49-.22.98-.44c.65-.27,1.3-.53,1.95-.76,1.3-.48,2.6-.89,3.9-1.27,2.6-.75,5.2-1.31,7.8-1.76,5.2-.88,10.4-1.28,15.6-1.27,5.2,0,10.4.41,15.61,1.29,2.6.46,5.2,1.02,7.8,1.76,1.3.38,2.6.78,3.9,1.27.65.23,1.3.49,1.95.76l.98.43.49.22.49.25v.7l-7.8.17-7.8.1c-5.2.06-10.4.05-15.61.08-5.2-.03-10.4-.02-15.6-.08l-7.8-.1-7.8-.17v-.7Z"/><path class="cls-33" d="M498.98,149.06s0,0,0,0c0,0,0,.02,0,.02-.02.07-.04.13-.06.2-.05.18-.11.36-.17.54-.02.06-.04.11-.06.17-.09.26-.17.52-.26.78-.07.21-.15.42-.23.63h0c-.03.09-.06.17-.09.25-.1.27-.2.54-.31.81-.09.25-.2.5-.3.74,0,.03-.02.06-.04.09-.23.55-.47,1.09-.72,1.64,0,.01-.01.02-.02.04-.11.24-.22.48-.34.71-.11.22-.22.44-.33.66,0,0,0,.01,0,.02,0,0,0,.01,0,.02-.1.19-.2.38-.3.57-.11.21-.22.41-.33.62-.12.21-.23.43-.35.64-.13.23-.26.46-.4.69-.05.09-.1.17-.16.26,0,0,0,0,0,0-.09.15-.17.29-.26.44-.18.29-.36.58-.55.87,0,.02-.02.03-.03.04-.13.2-.27.41-.4.61-.02.02-.03.04-.04.06-.16.24-.32.47-.49.71-.15.21-.3.42-.45.62-.04.06-.09.12-.13.18-.15.2-.29.39-.44.59-.01.02-.02.03-.03.05-.1.13-.2.26-.31.39-.08.1-.16.2-.24.3-.37.46-.75.92-1.13,1.37-.19.22-.39.45-.58.67-.2.22-.39.44-.6.65-.2.22-.4.43-.61.65-.2.21-.41.42-.62.63l-.11.11c-.17.17-.35.35-.53.51-.21.2-.43.41-.65.61-.2.19-.41.38-.62.57-.02.02-.04.04-.06.06-.2.18-.4.35-.6.52,0,0,0,0-.01,0-.02.02-.05.05-.08.07-.21.18-.42.35-.63.52-.46.37-.92.74-1.39,1.09-.08.06-.15.12-.23.17-.03.02-.07.05-.1.07-.03.02-.06.04-.09.07-.12.09-.25.18-.37.27-.09.07-.19.14-.29.2-.2.15-.41.29-.62.43-.06.04-.12.08-.17.12-.02.01-.04.02-.06.04-.08.06-.16.11-.24.17-.02,0-.03.02-.04.03-.11.07-.23.15-.34.22-.15.1-.29.19-.44.28-.03.02-.06.04-.09.05,0,0,0,0,0,0-.14.09-.28.18-.43.27-.02.01-.03.02-.05.03,0,0,0,0-.02,0-.11.07-.22.13-.33.2-.1.06-.2.12-.3.18-.07.04-.14.09-.22.13-.02.02-.05.03-.07.04-.09.06-.19.11-.29.17-.04.02-.09.05-.13.07-.02.01-.04.02-.06.03-.14.08-.29.17-.43.24-.08.05-.16.09-.24.13-.06.04-.13.07-.2.11,0,0-.02,0-.02.01-.03.02-.07.04-.11.06-.09.05-.18.09-.27.14-.17.09-.33.18-.5.26-.54.27-1.09.54-1.64.79-.14.06-.28.13-.43.19-.03.02-.06.03-.1.04-.03.02-.06.03-.1.05-.03.02-.06.03-.09.04-.02,0-.04.02-.07.03,0,0-.02,0-.03.01-.06.02-.11.05-.16.07-.19.08-.39.17-.59.25-.06.03-.12.06-.19.08-.2.08-.4.17-.61.24-.16.06-.32.13-.49.19-.05.02-.1.04-.15.06-.11.04-.22.08-.33.12-.23.09-.46.17-.7.25-.07.02-.14.05-.21.07-.2.07-.39.13-.59.2-.08.03-.16.05-.24.08-.03.01-.06.02-.1.03-.02,0-.03.01-.05.02,0,0-.02,0-.02,0-.15.05-.31.1-.46.14l-.21.06c-.13.04-.26.08-.39.11-.03,0-.06.02-.09.02-.03,0-.06.02-.09.02-.02,0-.05.02-.07.02,0,0-.02,0-.03,0-.08.02-.15.04-.23.07-.16.04-.32.09-.48.13-.05.01-.09.02-.14.04-.08.02-.16.04-.24.06-.04.01-.09.02-.13.03-.25.06-.5.13-.76.18-.26.06-.52.12-.78.17h0c-.05.01-.1.02-.16.03-.05,0-.1.02-.15.03-.24.05-.47.09-.71.14-.06.01-.12.02-.18.03-.2.04-.39.07-.59.1-.02,0-.05,0-.06.01,0,0-.02,0-.02,0-.02,0-.03,0-.05,0,0,0-.01,0-.02,0-.02,0-.04,0-.06,0-.01,0-.02,0-.03,0-.09.02-.18.03-.27.04,0,0-.01,0-.02,0-.1.02-.2.03-.3.05-.13.02-.25.04-.37.06-.13.02-.25.04-.37.05-.09.01-.18.02-.27.03-.06,0-.13.02-.19.02-.06,0-.11.02-.16.02-.03,0-.07,0-.1.01-.08.01-.15.02-.23.03-.08,0-.16.02-.23.02,0,0-.02,0-.02,0-.07,0-.14.02-.21.02-.06,0-.11.01-.16.02-.12.02-.25.03-.37.04-.02,0-.04,0-.06,0-.02,0-.05,0-.07,0-.01,0-.02,0-.04,0-.16.02-.32.03-.49.04-.01,0-.02,0-.03,0-.14.01-.28.02-.42.03-.01,0-.02,0-.03,0-.09,0-.19.01-.29.02-.01,0-.02,0-.03,0-.16,0-.31.02-.47.02-.24.01-.47.02-.71.03-.06,0-.13,0-.2,0-.2,0-.4.01-.6.01h-.02c-.07,0-.13,0-.2,0h-.09c-.1,0-.21,0-.31,0-.12,0-.24,0-.36,0-.12,0-.24,0-.36,0-.15,0-.29,0-.44,0-.05,0-.1,0-.15,0-.09,0-.18,0-.27,0-.15,0-.29,0-.44-.02h0c-.07,0-.13,0-.2,0-.24,0-.48-.02-.72-.04-.17,0-.35-.02-.52-.04-.11,0-.22-.02-.33-.03-.13,0-.25-.02-.38-.03-.05,0-.1,0-.15-.01-.08,0-.17-.02-.25-.02-.05,0-.09,0-.14-.02-.13-.01-.26-.03-.39-.04-.17-.02-.33-.04-.49-.06-.03,0-.06,0-.08-.01-.05,0-.1-.01-.16-.02-.09-.01-.19-.02-.28-.04-.12-.02-.24-.03-.36-.05-.02,0-.05,0-.08-.01-.19-.03-.39-.06-.58-.09-.1-.02-.21-.03-.32-.05-.22-.04-.44-.07-.66-.11-.22-.04-.44-.08-.66-.13-.21-.04-.42-.09-.63-.13-.14-.03-.28-.06-.43-.09,0,0-.02,0-.02,0-.15-.03-.31-.07-.46-.1-.16-.04-.32-.08-.48-.12s-.32-.08-.48-.12c-.01,0-.02,0-.03,0-.23-.06-.45-.12-.68-.18-.06-.02-.12-.03-.18-.05-.17-.05-.33-.09-.5-.14-.03,0-.06-.02-.08-.02-.03,0-.06-.02-.09-.02,0,0,0,0-.02,0-.23-.06-.46-.13-.68-.2h-.01c-.16-.06-.33-.11-.49-.16-.13-.04-.25-.08-.38-.13,0,0,0,0,0,0h0s-.09-.03-.14-.05c-.03,0-.06-.02-.09-.03-.31-.1-.62-.21-.93-.33-.33-.12-.66-.25-.98-.38,0,0-.02,0-.03-.01-.32-.13-.64-.26-.95-.39-.04-.02-.07-.04-.11-.05-.06-.02-.11-.05-.17-.07-.17-.07-.35-.15-.52-.23-.04-.02-.08-.03-.11-.05-.11-.05-.22-.1-.33-.15-.22-.09-.43-.2-.65-.3-.11-.05-.21-.1-.32-.16-.27-.13-.54-.27-.81-.41-.01,0-.02,0-.03-.02-.29-.15-.57-.3-.86-.45-.06-.03-.12-.07-.18-.1-.15-.08-.3-.17-.46-.25-.02,0-.04-.02-.05-.03-.1-.06-.2-.12-.31-.18-.17-.09-.35-.2-.51-.3-.13-.08-.26-.16-.38-.23-.34-.2-.68-.41-1.01-.63-.28-.17-.56-.36-.83-.54-.03-.02-.06-.05-.1-.07-.28-.19-.56-.38-.83-.58,0,0,0,0-.01,0-.21-.15-.43-.3-.63-.46-.06-.05-.13-.09-.19-.14-.04-.03-.07-.06-.11-.09-.14-.1-.27-.21-.41-.31-.17-.13-.35-.27-.52-.4-.08-.06-.16-.12-.24-.19-.13-.1-.26-.21-.39-.31-.03-.02-.05-.04-.08-.07-.09-.07-.18-.15-.28-.23-.1-.09-.21-.17-.31-.27-.02-.02-.05-.05-.08-.07-.17-.14-.33-.28-.49-.43l-.02-.02-.52-.47c4.6-13.04,8.93-22.86,13.22-29.96,16.47-27.22,32.38-14.41,60.38,9.65Z"/><ellipse class="cls-38" cx="455.24" cy="159.09" rx=".4" ry=".13" transform="translate(20.84 368.5) rotate(-45)"/><ellipse class="cls-38" cx="458.22" cy="154.77" rx=".4" ry=".13" transform="translate(109.4 489.8) rotate(-62.51)"/><ellipse class="cls-38" cx="463.35" cy="143.98" rx=".4" ry=".13" transform="translate(121.73 488.54) rotate(-62.51)"/><ellipse class="cls-38" cx="464.3" cy="143.09" rx=".4" ry=".13" transform="translate(123.03 488.91) rotate(-62.51)"/><ellipse class="cls-38" cx="464.22" cy="142.31" rx=".4" ry=".13" transform="translate(123.68 488.42) rotate(-62.51)"/><ellipse class="cls-38" cx="465.16" cy="141.42" rx=".4" ry=".13" transform="translate(124.98 488.78) rotate(-62.51)"/><ellipse class="cls-38" cx="465.08" cy="140.64" rx=".4" ry=".13" transform="translate(125.63 488.29) rotate(-62.51)"/><ellipse class="cls-38" cx="460.82" cy="149.77" rx=".4" ry=".13" transform="translate(115.24 489.42) rotate(-62.51)"/><ellipse class="cls-38" cx="460.74" cy="148.99" rx=".4" ry=".13" transform="translate(115.89 488.93) rotate(-62.51)"/><ellipse class="cls-38" cx="461.69" cy="148.1" rx=".4" ry=".13" transform="translate(117.19 489.29) rotate(-62.51)"/><ellipse class="cls-38" cx="461.61" cy="147.32" rx=".4" ry=".13" transform="translate(117.84 488.8) rotate(-62.51)"/><ellipse class="cls-38" cx="462.56" cy="146.43" rx=".4" ry=".13" transform="translate(119.14 489.16) rotate(-62.51)"/><ellipse class="cls-38" cx="462.48" cy="145.65" rx=".4" ry=".13" transform="translate(119.79 488.67) rotate(-62.51)"/><ellipse class="cls-38" cx="463.43" cy="144.76" rx=".4" ry=".13" transform="translate(121.09 489.03) rotate(-62.51)"/><ellipse class="cls-38" cx="458.14" cy="154" rx=".4" ry=".13" transform="translate(110.05 489.31) rotate(-62.51)"/><ellipse class="cls-38" cx="459.09" cy="153.1" rx=".4" ry=".13" transform="translate(111.35 489.67) rotate(-62.51)"/><ellipse class="cls-38" cx="459.01" cy="152.33" rx=".4" ry=".13" transform="translate(112 489.18) rotate(-62.51)"/><ellipse class="cls-38" cx="457.22" cy="156.23" rx=".4" ry=".13" transform="translate(107.57 489.7) rotate(-62.51)"/><ellipse class="cls-38" cx="457.14" cy="155.45" rx=".4" ry=".13" transform="translate(108.22 489.21) rotate(-62.51)"/><ellipse class="cls-38" cx="456.26" cy="157.6" rx=".4" ry=".13" transform="translate(105.84 489.59) rotate(-62.51)"/><ellipse class="cls-38" cx="456.18" cy="156.82" rx=".4" ry=".13" transform="translate(106.49 489.1) rotate(-62.51)"/><ellipse class="cls-38" cx="459.96" cy="151.44" rx=".4" ry=".13" transform="translate(113.3 489.55) rotate(-62.51)"/><ellipse class="cls-38" cx="459.88" cy="150.66" rx=".4" ry=".13" transform="translate(113.94 489.06) rotate(-62.51)"/><path class="cls-52" d="M466.84,139.82l-.48-2.41s-.04,0-.04,0-.14.17-.36-.11h-.03s-.04.1-.04.1v.44s-.02.84-.05.87c0,0-.02.02-.04.04-.02.01-.18.62-.18.62v.35s.16,0,.1.08-.14.18-.24.2c-.03,0-.05,0-.07,0,.02.1.03.19.04.19.01,0,.3.1.3.1,0,0,.02.08-.06.09-.07,0-.42.01-.54.02-.02-.28-.03-.87.05-.99.1-.15.11-.53.09-.69-.02-.16.06-.69-.04-.69-.11,0-.4-.03-.32-.39,0,0-.27-.38-.23-.45.04-.07.21-.33.21-.33,0,0,.26-.26.37-.3.1-.05.1-.13.13-.21s-.08,0-.1-.04c-.02-.03-.12-.35-.03-.4.08-.05.13-.05.25-.07.04,0,.12,0,.2,0,.01.03,0,.08-.09.13,0,0,0,.3-.04.35h-.07s0,.09,0,.09c0,0,.03.02.05.02.02,0,.07-.02.09-.01.02,0,.08.05.08.05h0s.11.04.11.04c0,0,0,0,.02.06.03.05.17.36.27.46.04.04.02.09.02.11l.09.1s0,.02,0,0,0-.09,0-.09c0,0,.03,0,.03,0l-.03-.16.04-.04.05.24s.09.02.07.05v.09s.01.03-.02.07l.44,2.34s.01.08-.01.1Z"/><path class="cls-52" d="M465.29,139.42c-.08.12-.17.69-.15.97-.02,0-.04,0-.04,0,0,0-.04.02-.05-.05,0-.06-.04-.6-.04-.6.01,0,.02,0,.03-.02-.02-.18-.03-.54.13-.72l.17.27c-.01.06-.03.1-.05.14Z"/><path class="cls-34" d="M465.71,135.82c-.08,0-.16,0-.2,0-.12.02-.09.05-.17.1-.08.05.04.24.05.27.02.03.09.05.05.13-.03.08-.03.31-.13.35-.1.05-.37.28-.37.28-.15.28.03.99.36,1.02.1-.05.05.53.07.69.01.12.02.42-.02.62l-.17-.27-.06-.83s-.02,0-.1-.02l-.09.45-.2.97s-.02.05-.05.06c0,0,.13-.64.22-1.08.05-.23.08-.41.08-.42,0,0-.03-.02-.03-.02,0,0-.21-.17-.17-.54,0,0-.25-.23-.14-.5,0,0-.03-.04-.03-.05,0,0,.15-.23.15-.23,0,0-.01-.16.15-.21l.06-.06.14-.06v-.04s.07-.03.07-.03v.03l.16-.05v-.03s-.15.07-.2-.24c-.05-.31.13-.41.31-.41.12,0,.26.03.29.09Z"/><ellipse class="cls-38" cx="455.75" cy="159.19" rx=".4" ry=".13" transform="translate(20.92 368.89) rotate(-45)"/><ellipse class="cls-38" cx="455.91" cy="158.42" rx=".4" ry=".13" transform="translate(21.51 368.78) rotate(-45)"/><rect class="cls-52" x="450.01" y="139.2" width=".97" height="14.81"/><polygon class="cls-51" points="454.15 148.49 452.43 143.98 453.66 143.25 452.18 139.69 452.98 139.2 452.24 138.51 450.64 132.85 449.96 135.22 449.47 136.94 448.36 138.01 448.85 138.58 448.36 140.34 447.56 141.3 447.93 141.95 447.43 143.29 448.79 144.05 447.19 147.89 446.94 148.49 454.15 148.49"/><polygon class="cls-34" points="450.98 150.56 450.98 154.14 450.01 154.14 450.01 149.77 450.98 150.56"/><polygon class="cls-18" points="447.19 147.89 448.06 147.37 449.41 144.15 448.05 143.38 448.55 142.05 448.18 141.4 448.98 140.44 449.47 138.68 448.98 138.11 450.09 137.04 450.28 136.36 449.96 135.22 449.47 136.94 448.36 138.01 448.85 138.58 448.36 140.34 447.56 141.3 447.93 141.95 447.43 143.29 448.79 144.05 447.19 147.89"/><circle class="cls-18" cx="449.56" cy="147.69" r=".29"/><circle class="cls-52" cx="452.87" cy="142.86" r=".29"/><circle class="cls-18" cx="450.79" cy="138.65" r=".29"/><rect class="cls-52" x="475.05" y="146.19" width="1.21" height="18.4"/><polygon class="cls-45" points="480.2 157.72 478.05 152.12 479.58 151.22 477.74 146.8 478.74 146.18 477.82 145.32 475.83 138.3 474.98 141.25 474.38 143.38 473 144.71 473.61 145.42 473 147.6 472 148.79 472.46 149.6 471.85 151.26 473.53 152.21 471.54 156.98 471.23 157.72 480.2 157.72"/><polygon class="cls-34" points="476.26 160.3 476.26 164.73 475.05 164.73 475.05 159.31 476.26 160.3"/><polygon class="cls-18" points="471.54 156.98 472.63 156.34 474.3 152.33 472.62 151.38 473.23 149.72 472.77 148.91 473.77 147.73 474.38 145.54 473.77 144.83 475.14 143.5 475.38 142.66 474.98 141.25 474.38 143.38 473 144.71 473.61 145.42 473 147.6 472 148.79 472.46 149.6 471.85 151.26 473.53 152.21 471.54 156.98"/><circle class="cls-18" cx="474.49" cy="156.73" r=".36"/><circle class="cls-52" cx="478.59" cy="150.74" r=".36"/><circle class="cls-18" cx="476.02" cy="145.5" r=".36"/><path class="cls-52" d="M498.2,151.41h0c-.03.09-.06.17-.09.25-.1.27-.2.54-.31.81-.09.24-.19.49-.29.73,0,0,0,0,0,0-.5.76-1.22,1.38-2.12,1.75-.79.32-1.62.41-2.41.29-.18-.03-.36-.06-.54-.12-.66-.18-1.28-.5-1.8-.95-.26-.23-.5-.49-.71-.78-.2-.27-.37-.57-.51-.88-.02-.03-.03-.06-.05-.1-.03-.08-.06-.15-.09-.22.06-.06.11-.13.17-.19,1.71-1.81,4.39-2.6,6.43-5.38.89.49,1.63,1.28,2.05,2.3.13.31.21.62.27.93.09.52.1,1.04.02,1.54Z"/><path class="cls-23" d="M491.28,153c-.6.88-1.14,2.23-1.42,3.34-.42-.36-.68-.9-.66-1.5.03-1.05.9-1.88,1.96-1.85.04,0,.08,0,.13,0Z"/><path class="cls-52" d="M491.04,156.8c-.45-.01-.87-.18-1.19-.46.28-1.11.81-2.45,1.42-3.34.99.09,1.75.94,1.72,1.95-.03,1.05-.91,1.88-1.96,1.85Z"/><path class="cls-52" d="M489.44,152.02c-.02.16-.03.33-.04.51-.02-.03-.03-.06-.05-.1-.03-.08-.06-.15-.09-.22.06-.06.11-.13.17-.19Z"/><rect class="cls-34" x="498.11" y="126.36" width=".87" height="22.71"/><path class="cls-52" d="M498.98,143.57v5.5s0,.02,0,.02c-.07.25-.15.49-.23.74-.02.06-.04.11-.06.17-.09.26-.17.52-.26.78-.1.3-.21.59-.32.88v-6.37l.87-1.73Z"/><path class="cls-56" d="M503.46,137.17l-2.87-2.48-.98-.85-1.06-.91-4.91,4.25,2.46-5.97,1.32-3.24.79-1.94c.05-.12.13-.2.21-.24.16-.08.35,0,.45.24l2.12,5.17,2.46,5.97Z"/><path class="cls-52" d="M503.91,145.61l-3.58-3.22-1.78-1.6-5.36,4.82,2.69-5.11,2.17-4.16c.22-.43.78-.43,1,0l.19.36,1.99,3.8,2.69,5.11Z"/><path class="cls-34" d="M500.33,142.41l-1.78-1.63-5.36,4.82,2.69-5.11,2.17-4.16c.22-.43.78-.43,1,0l.19.36c1.01,3.61.01,2.97,1.09,5.69,0,.02,0,.02,0,.02Z"/><path class="cls-53" d="M503.46,137.17l-2.87-2.48-.98-.85c-.37-2.47-.89-5.99-1.18-8.05.16-.08.35,0,.45.24l2.12,5.17,2.46,5.97Z"/><circle class="cls-52" cx="497.36" cy="139.74" r=".34"/><circle class="cls-53" cx="497.83" cy="130.81" r=".34"/><rect class="cls-52" x="453.75" y="140.33" width="1.14" height="18.71"/><polygon class="cls-23" points="453.75 154.1 453.75 158.31 454.89 158.31 454.89 154.93 453.75 154.1"/><path class="cls-53" d="M450.85,145.15l3.47-2.14,2.04,1.25,1.43.88-1.74-3.76-1.41-3.07c-.04-.1-.11-.16-.18-.2-.16-.08-.37-.01-.46.2l-1.41,3.07-1.74,3.76Z"/><path class="cls-23" d="M450.55,150.46l3.55-1.27.22-.08,3.77,1.35-1.89-3.26-1.51-2.62c-.16-.29-.58-.29-.75,0l-.12.21-1.39,2.41-1.89,3.26Z"/><path class="cls-23" d="M451.94,154.14l2.35-.84h.02s2.38.84,2.38.84l-1.19-2.06-.95-1.65c-.1-.18-.37-.18-.47,0l-.32.56-.63,1.1-1.19,2.06Z"/><path class="cls-52" d="M453.16,147.7c-.06.55.44,1.1.94,1.5l.22-.08,3.77,1.35-1.89-3.26-1.51-2.62c-.16-.29-.58-.29-.75,0l-.12.21s.08.1.12.15c.39.55-.68,1.68-.79,2.76Z"/><path class="cls-18" d="M456.35,144.27l1.43.88-1.74-3.76-1.41-3.07c-.04-.1-.11-.16-.18-.2-.07.12-.12.25-.14.41-.13.82.92,3.65,2.04,5.74Z"/><circle class="cls-23" cx="454.4" cy="146.67" r=".21"/><circle class="cls-18" cx="453.76" cy="141.88" r=".21"/><circle class="cls-23" cx="455.95" cy="148.94" r=".21"/><circle class="cls-23" cx="454.58" cy="152.14" r=".18"/><path class="cls-52" d="M441.95,144.27c-1.01.42-2.17-.05-2.59-1.06-.34-.82-.09-1.74.55-2.28h0c.15-.12.32-.23.51-.31,1.01-.42,2.17.05,2.59,1.06.06.15.1.3.13.45.14.88-.33,1.78-1.19,2.15Z"/><path class="cls-52" d="M443.14,142.12c-1.14-.2-2.19-1.36-3.23-1.2.15-.12.32-.23.51-.31,1.01-.42,2.17.05,2.59,1.06.06.15.1.3.13.45Z"/><path class="cls-4" d="M439.86,141.97c-1.84-.09-3.26-1.65-3.17-3.49.02-.42.11-.81.27-1.17,1.85.24,4.12,1.13,6.36,1.77-.22,1.7-1.72,2.98-3.47,2.89Z"/><path class="cls-4" d="M443.3,139.15c-2.24-.64-4.51-1.53-6.36-1.77.15-.35.36-.66.61-.93.65-.7,1.59-1.12,2.61-1.07,1.32.06,2.43.89,2.92,2.04.19.44.28.94.25,1.45,0,.1-.01.19-.03.28Z"/><path class="cls-39" d="M438.5,136.23c-.18.17-.05.44.18.35s1.34-.41,2.07-.21.41-.27-.01-.42c-.78-.29-1.52-.38-2.24.28Z"/><polygon class="cls-23" points="470.73 165.82 469.67 157.51 470.73 157.31 468.42 148.35 466.32 157.19 467.37 157.39 466.32 165.7 470.73 165.82"/><path class="cls-52" d="M470.17,156.98l-1.05.2.74,5.86c.19,0,.35,0,.51,0l-.7-5.52,1.05-.2-1.67-6.49-.22.97,1.34,5.19Z"/><polygon class="cls-18" points="468.42 148.35 466.32 157.19 467 157.34 468.69 149.31 468.42 148.35"/><path class="cls-37" d="M498.98,149.06h0s0,.02,0,.03c-.02.07-.04.13-.06.2-.03.12-.07.24-.11.35-.02.06-.04.12-.06.18-.02.06-.04.11-.06.17-.09.26-.17.52-.26.78-.07.21-.15.42-.23.63t0,0h0c-.03.09-.06.17-.09.25-.1.27-.2.54-.31.81-.09.24-.19.49-.29.73-.02.03-.03.07-.04.1-.23.55-.47,1.09-.72,1.64,0,.01-.01.02-.02.04-.11.24-.22.48-.34.71-.11.22-.22.44-.33.66,0,0,0,.01,0,.02,0,0,0,.01,0,.02-.1.19-.2.38-.3.57-.11.21-.22.41-.33.62-.12.21-.23.43-.35.64-.13.23-.26.46-.4.69-.05.09-.1.17-.16.26,0,0,0,0,0,0-.09.15-.17.29-.26.44-.18.29-.36.58-.55.87,0,.02-.02.03-.03.04-.13.2-.27.41-.4.61-.02.02-.03.04-.04.06-.16.24-.32.47-.49.71-.15.21-.3.42-.45.62-.04.06-.09.12-.13.18-.15.2-.29.39-.44.59-.01.02-.02.03-.03.05-.02.03-.05.06-.07.09-.08.1-.16.2-.24.31-.08.1-.16.2-.24.3-.37.46-.75.92-1.13,1.37-.19.22-.39.45-.58.67-.2.22-.39.44-.6.65-.2.22-.4.43-.61.65-.2.21-.41.42-.62.63l-.11.11c-.17.17-.35.35-.53.51-.21.2-.43.41-.65.61-.2.19-.41.38-.62.57-.02.02-.04.04-.06.06-.2.18-.4.35-.6.52,0,0,0,0-.01,0-.02.02-.05.05-.08.07-.21.18-.42.35-.63.52-.46.37-.92.74-1.39,1.09-.08.06-.15.12-.23.17-.03.02-.07.05-.1.07-.03.02-.06.04-.09.07l-.09.06c-.09.07-.19.14-.28.21-.09.07-.19.14-.29.2-.2.15-.41.29-.62.43-.06.04-.12.08-.17.12-.02.01-.04.02-.06.04-.08.06-.16.11-.24.16-.02,0-.03.02-.04.03-.11.07-.23.15-.34.22-.15.1-.29.19-.44.28-.03.02-.06.04-.09.05,0,0,0,0,0,0-.14.09-.28.18-.43.27-.02.01-.03.02-.05.03,0,0,0,0-.02,0-.11.07-.22.13-.33.2-.1.06-.2.12-.3.18-.07.04-.14.09-.22.13-.02.02-.05.03-.07.04-.09.06-.19.11-.29.17-.05.02-.09.05-.13.07-.02.01-.04.02-.06.03-.07.04-.15.09-.23.13-.07.04-.14.08-.21.12-.08.05-.16.09-.24.13-.06.04-.13.07-.2.11,0,0-.02,0-.02.01-.03.02-.07.04-.11.06-.09.05-.18.1-.27.14-.17.09-.33.18-.5.26-.54.27-1.09.54-1.64.79-.14.06-.28.13-.43.19-.03.02-.06.03-.1.04-.03.02-.06.03-.1.05-.03.02-.06.03-.09.04-.02,0-.05.02-.07.03,0,0-.02,0-.03.01-.06.02-.11.05-.16.07-.19.08-.39.17-.59.25-.06.03-.12.06-.19.08-.2.08-.4.17-.61.24-.16.06-.32.13-.49.19-.05.02-.1.04-.15.06-.11.04-.22.08-.33.12-.23.09-.46.17-.7.25-.07.02-.14.05-.21.07-.2.07-.39.13-.59.2-.08.03-.16.05-.24.08-.03.01-.06.02-.1.03-.02,0-.03.01-.05.02,0,0-.02,0-.02,0-.05.02-.1.03-.15.05-.11.03-.21.06-.32.09l-.21.06c-.07.02-.13.04-.2.06-.06.02-.12.03-.19.05-.03,0-.06.02-.09.02-.06.02-.11.03-.17.05,0,0-.02,0-.03,0-.08.02-.15.04-.23.07-.16.04-.32.09-.48.13-.05.01-.09.02-.14.04-.08.02-.16.04-.24.06-.04,0-.09.02-.13.03-.25.06-.5.13-.76.18-.05.01-.1.02-.15.04-.21.05-.42.09-.63.14h0c-.05.01-.1.02-.16.03-.05,0-.1.02-.15.03-.24.05-.47.1-.71.14-.06.01-.12.02-.18.03-.17.04-.35.07-.52.09-.02,0-.04,0-.06,0-.02,0-.05,0-.06.01,0,0-.02,0-.02,0-.02,0-.03,0-.05,0,0,0-.01,0-.02,0-.02,0-.04,0-.06,0-.01,0-.02,0-.03,0-.08.01-.16.03-.24.04,0,0-.01,0-.02,0,0,0-.01,0-.02,0-.1.02-.2.03-.3.05-.13.02-.25.04-.37.06-.13.02-.25.04-.37.05-.09.01-.18.02-.27.03-.06,0-.13.02-.19.02-.06,0-.11.02-.16.02-.03,0-.07,0-.1.01-.08.01-.15.02-.23.03-.08,0-.15.02-.23.02,0,0-.02,0-.02,0-.07,0-.14.02-.21.02-.06,0-.11.01-.16.02-.12.02-.25.03-.37.04-.02,0-.04,0-.06,0-.16.02-.32.02-.48.04-.04,0-.08,0-.12,0-.01,0-.02,0-.03,0-.04,0-.09,0-.13,0-.09,0-.19.02-.29.02-.01,0-.02,0-.03,0-.09,0-.19.01-.29.02-.01,0-.02,0-.03,0-.16,0-.31.02-.47.02-.24.01-.47.02-.71.03-.06,0-.13,0-.2,0-.07,0-.13,0-.2,0h-.02c-.13,0-.25,0-.38,0h-.02c-.07,0-.13,0-.2,0h-.09c-.1,0-.21,0-.31,0-.12,0-.24,0-.36,0-.12,0-.24,0-.36,0-.15,0-.29,0-.44,0-.05,0-.1,0-.15,0-.09,0-.18,0-.27,0-.15,0-.29,0-.44-.02h0c-.07,0-.13,0-.2,0-.06,0-.13,0-.2-.01-.17,0-.35-.02-.52-.03-.17,0-.35-.02-.52-.04-.11,0-.22-.02-.33-.03-.13,0-.25-.02-.38-.03-.05,0-.1,0-.15-.01-.09-.01-.19-.02-.29-.03h-.1c-.13-.02-.26-.04-.39-.05-.17-.02-.33-.04-.49-.06-.03,0-.06,0-.08-.01-.05,0-.1-.01-.16-.02-.09-.01-.17-.02-.26-.04-.07,0-.15-.02-.22-.03-.08,0-.15-.02-.23-.03-.19-.03-.39-.06-.58-.09-.1-.02-.21-.03-.32-.05-.23-.04-.46-.08-.68-.12-.21-.04-.43-.08-.64-.12-.21-.04-.42-.09-.63-.13-.14-.03-.28-.06-.43-.09,0,0-.02,0-.02,0-.12-.02-.23-.05-.35-.08-.04,0-.07-.02-.11-.03-.16-.04-.32-.08-.48-.11-.16-.04-.32-.08-.48-.12-.01,0-.02,0-.03,0-.23-.06-.45-.12-.68-.18-.06-.02-.12-.03-.18-.05-.2-.06-.39-.11-.58-.17-.03,0-.06-.02-.09-.02,0,0,0,0-.02,0-.24-.07-.48-.15-.72-.22h0s-.05-.02-.07-.02c-.13-.04-.26-.08-.39-.12-.13-.04-.25-.08-.38-.13,0,0,0,0,0,0h0s-.09-.04-.14-.05c-.03,0-.06-.02-.09-.03-.27-.09-.54-.18-.8-.28-.04-.02-.09-.03-.13-.04-.33-.12-.66-.25-.98-.38,0,0-.02,0-.03-.01-.32-.13-.64-.26-.95-.39-.04-.02-.07-.04-.11-.05-.06-.02-.11-.05-.17-.07-.17-.07-.35-.15-.52-.23-.04-.02-.08-.03-.11-.05-.11-.05-.22-.1-.33-.15-.11-.05-.22-.1-.33-.16-.11-.05-.21-.09-.32-.14-.11-.05-.21-.1-.32-.16-.27-.13-.54-.27-.81-.41-.01,0-.02,0-.03-.02-.29-.15-.57-.3-.86-.45-.06-.03-.12-.07-.18-.1-.15-.08-.3-.17-.46-.25-.02,0-.04-.02-.05-.03l-.18-.11s-.08-.04-.12-.07c-.04-.02-.08-.05-.12-.07-.13-.07-.26-.15-.39-.22-.13-.08-.26-.16-.38-.23-.34-.2-.68-.41-1.01-.63-.28-.17-.56-.36-.83-.54-.03-.02-.06-.05-.1-.07-.28-.19-.56-.38-.83-.58,0,0,0,0-.01,0-.21-.15-.42-.31-.63-.46-.06-.05-.13-.09-.19-.14-.04-.03-.07-.06-.11-.09-.14-.1-.27-.21-.41-.31-.17-.13-.35-.27-.52-.4-.08-.06-.16-.12-.24-.19-.13-.1-.26-.21-.39-.31-.03-.02-.05-.04-.08-.07-.04-.04-.09-.07-.13-.11-.05-.04-.09-.08-.14-.12-.1-.09-.21-.17-.31-.27-.02-.02-.05-.05-.08-.07-.17-.14-.33-.28-.49-.43l-.02-.02-.52-.47c-.21-.19-.42-.38-.62-.58-.18-.17-.35-.33-.53-.5-.28-.28-.57-.57-.85-.85-.14-.15-.28-.3-.43-.45-.39-.42-.78-.85-1.16-1.28-.19-.21-.37-.43-.56-.65-.18-.21-.35-.42-.53-.64-.02-.02-.03-.04-.05-.06-.35-.43-.69-.87-1.03-1.32-.38-.51-.75-1.02-1.1-1.54-.12-.18-.24-.36-.36-.54-.02-.03-.04-.06-.06-.09-.14-.22-.29-.44-.43-.66-.15-.24-.31-.49-.45-.73-.15-.24-.3-.49-.44-.74-.15-.25-.29-.5-.43-.75-.14-.25-.28-.5-.41-.76-.27-.51-.53-1.02-.79-1.54-.13-.26-.24-.52-.37-.77,0,0,0-.01,0-.02-.1-.23-.21-.46-.31-.69-.03-.06-.06-.13-.08-.19-.1-.24-.2-.47-.3-.71-.34-.81-.65-1.62-.94-2.45-1.63-4.65-2.51-9.65-2.51-14.87,0-6.79,1.5-13.23,4.19-19.01,8.39,2.56,15.84,12.4,23.76,22.4,4.77,6.03,9.72,12.13,15.14,16.73.38.32.76.64,1.15.95.17.13.34.27.51.4.05.04.1.07.15.11,3.46,2.67,7.13,4.69,11.08,5.66,1.25.31,2.54.52,3.85.61,1.48.1,3.01.05,4.57-.17.4-.06.8-.12,1.21-.2,4.38-.84,9.08-2.99,14.19-6.82.65-.49,1.31-1,1.97-1.55.19-.15.38-.31.56-.47,1.66-1.39,3.37-2.96,5.12-4.72.02-.03.05-.05.08-.08.11-.11.22-.22.33-.33.15-.16.31-.32.46-.48Z"/><path class="cls-30" d="M465.39,109.37l-1.23,1.11-1.59,1.45h0s0,0,0,0l-1.59-1.45-1.23-1.11c-.07-.06.63-.05,1.51.55l1.32.99,1.32-.99c.87-.59,1.58-.61,1.51-.55Z"/><path class="cls-30" d="M452.3,109.32l1.22-1.1,1.56-1.42h0s0,0,0,0l1.56,1.42,1.22,1.1c.07.06-1.82-.02-2.78-.96-.96.93-2.85,1.02-2.78.96Z"/><path class="cls-4" d="M451.55,104.87l-.78.71-.99.9h0s0,0,0,0l-.99-.9-.78-.71s.65-.23,1.77.36c1.12-.59,1.82-.4,1.77-.36Z"/><path class="cls-52" d="M470.78,137.7s0,0,0,0c0,0,0,0,0,0,0,0,.01,0,.01,0h0Z"/><path class="cls-23" d="M495.87,146.64c-2.03,2.78-4.71,3.57-6.43,5.38-.06.06-.12.12-.17.19-.81-2.31.33-4.87,2.62-5.8.1-.04.21-.08.31-.11.47-.15.95-.23,1.42-.23,0,0,.02,0,.02,0,.78,0,1.54.2,2.22.58Z"/><circle class="cls-23" cx="495.72" cy="149.28" r=".39"/><path class="cls-29" d="M473.43,127.91c-.08.15.06.3.2.19s.8-.57,1.33-.6.21-.27-.1-.28c-.59-.02-1.1.08-1.43.69Z"/><path class="cls-47" d="M454.42,197.11s-.08,0-.12,0c-3.68-.09-7.35-.51-10.95-1.27-4.64-1.02-9.16-2.56-13.42-4.62-.54-.24-1.06-.53-1.58-.8l-1.57-.83-1.53-.91c-.51-.31-1.02-.59-1.51-.93-.98-.66-1.99-1.28-2.92-2.01l-1.42-1.06-1.37-1.12c-.93-.73-1.78-1.54-2.66-2.33-.45-.39-.85-.82-1.27-1.23-.42-.42-.84-.83-1.24-1.25-1.59-1.73-3.14-3.5-4.52-5.4-5.63-7.51-9.31-16.38-10.73-25.5-1.35-9.12-.56-18.5,2.54-26.95-.39,2.21-.69,4.43-.84,6.65-.18,2.21-.23,4.43-.15,6.64.19,4.41.76,8.76,1.84,12.98,2.18,8.41,6.17,16.25,11.68,22.77,2.73,3.27,5.83,6.22,9.21,8.77,3.39,2.54,7.01,4.77,10.87,6.47,3.85,1.72,7.87,3.04,12,3.86.5.1,1.01.2,1.52.28l8.14,7.79Z"/><path class="cls-10" d="M514.49,144.54c-.32,3.52-1.01,7.02-2.01,10.44-.3,1.04-.64,2.08-1,3.11-.08.22-.16.45-.24.67-.18.5-.37.99-.57,1.48l-3.63-3.48c.06-.12.11-.24.16-.37.06-.13.12-.26.17-.4.16-.36.32-.72.47-1.08l.58-1.5s0,0,0,0c.41-1,.7-2.03,1.06-3.05.18-.51.31-1.03.46-1.55l.44-1.57c.23-1.06.5-2.11.7-3.18v-.02s0,0,0,0l.29-1.58c.05-.27.1-.54.14-.8l.1-.81.21-1.62c.07-.54.09-1.09.15-1.63l.13-1.64c.02-.55.06-1.1.07-1.65.03-1.1.04-2.2.02-3.3-.04-2.21-.23-4.42-.53-6.62-.14-1.1-.32-2.2-.52-3.3-.21-1.09-.45-2.19-.7-3.28.15.34.29.69.43,1.03.29.72.57,1.44.83,2.18.06.17.12.33.17.5.11.31.21.63.31.94.06.2.13.4.19.6.24.8.47,1.6.67,2.4.05.2.1.4.15.61.1.41.2.82.28,1.24.04.2.09.4.13.6.04.2.08.41.12.61.05.24.09.49.14.74.03.17.06.33.09.5.08.48.16.96.22,1.44.04.25.07.51.1.76.02.11.03.22.04.32.08.61.14,1.22.19,1.84.02.21.04.42.05.63.03.33.05.65.07.98.02.22.03.45.04.67,0,.19.02.39.02.58,0,.09,0,.19.01.28v.05s0,0,0,0c0,.03,0,.06,0,.08,0,.21.01.42.02.62.04,2.17-.04,4.36-.24,6.53Z"/><polyline class="cls-25" points="436.66 176.9 442.22 179.06 442.22 179.07"/><path class="cls-15" d="M510.67,160.24c-.19.49-.39.97-.6,1.46-.06.15-.13.29-.19.44-.26.59-.53,1.18-.82,1.77-.1.21-.2.42-.31.63-.13.26-.26.52-.4.78-.11.21-.22.43-.34.64-.18.33-.36.67-.54.99-.18.32-.36.63-.54.94,0,.01-.01.03-.02.04-.11.19-.22.38-.33.56-.43.72-.88,1.42-1.34,2.12-5.15,7.85-12.28,14.43-20.54,19.06-.6.34-1.21.66-1.83.97-.06.04-.13.07-.2.1-.92.47-1.86.91-2.81,1.33-.22.1-.44.19-.67.29,0,0-.02,0-.03.01-.18.08-.36.15-.54.23-.28.12-.55.23-.83.34-.31.13-.62.24-.94.36-1.74.66-3.51,1.24-5.3,1.74-.57.18-1.15.3-1.72.44l-1.73.4-1.75.32c-.58.1-1.17.23-1.76.29l-1.76.23c-.29.03-.59.08-.88.11l-.89.07-1.77.14c-.59.06-1.19.05-1.78.07-.09,0-.17,0-.26,0l.06,2.76-2.89-2.76-8.14-7.79c3.64.62,7.34.87,11.03.76,1-.02,2.01-.07,3.01-.15.22-.02.45-.04.67-.06.69-.06,1.37-.13,2.05-.23.21-.02.42-.06.63-.09.15-.02.3-.04.45-.06.18-.03.35-.06.53-.08.24-.04.49-.08.73-.12.24-.04.48-.09.72-.13.45-.08.9-.17,1.34-.27.03,0,.07-.02.1-.02.48-.11.96-.22,1.43-.33.17-.04.34-.08.5-.13,2.01-.51,3.99-1.13,5.93-1.87.26-.09.51-.19.77-.3.26-.1.52-.2.78-.31.26-.1.52-.21.78-.32.26-.11.52-.22.77-.34.25-.11.51-.23.76-.35.26-.12.51-.24.76-.36.51-.24,1.01-.5,1.51-.75,3.74-1.95,7.25-4.35,10.49-7.08.42-.33.8-.7,1.19-1.05l1.18-1.07,1.12-1.13c.37-.38.76-.74,1.11-1.14.72-.78,1.45-1.55,2.12-2.39.34-.41.69-.81,1.02-1.23l.96-1.28c.32-.43.65-.85.94-1.3l.91-1.32c.32-.43.57-.9.86-1.35.28-.46.57-.91.84-1.37.99-1.74,1.94-3.52,2.76-5.36l3.63,3.48Z"/><path class="cls-14" d="M442.22,179.07c.24.08.48.15.72.22-.23-.06-.46-.13-.68-.2h-.01s-.03-.02-.03-.02Z"/><path class="cls-14" d="M443.13,179.34c.22.07.45.13.68.19-.06-.02-.12-.03-.18-.05-.17-.05-.33-.09-.5-.14Z"/><path class="cls-14" d="M445.59,179.98c.12.03.23.06.35.08-.15-.03-.31-.07-.46-.1.04,0,.07.02.11.02Z"/><path class="cls-14" d="M449.46,180.7c.07.01.14.02.21.03-.12-.02-.24-.03-.36-.05.05,0,.1.01.15.02Z"/><path class="cls-14" d="M453.35,181.07c.07,0,.14,0,.2.01-.24,0-.48-.02-.72-.04.17,0,.35.02.52.03Z"/><path class="cls-14" d="M456.8,181.12c.07,0,.13,0,.2,0-.2,0-.4.01-.6.01.13,0,.25,0,.38,0h.02Z"/><path class="cls-14" d="M459.04,181.02s.09,0,.13,0c-.14.01-.28.02-.42.03.1,0,.2-.02.29-.02Z"/><path class="cls-14" d="M459.32,181c.12,0,.25-.02.37-.03-.16.02-.32.03-.49.04.04,0,.08,0,.12,0Z"/><path class="cls-14" d="M468.04,179.45s.06-.02.09-.02c-.06.02-.11.03-.17.05.02,0,.05-.01.07-.02Z"/><path class="cls-14" d="M477.71,175.45c.08-.04.15-.08.23-.13-.14.08-.29.17-.43.24.07-.04.14-.08.21-.12Z"/><path class="cls-14" d="M480.76,173.6c.08-.05.16-.11.24-.16-.08.06-.16.11-.24.17h0Z"/><path class="cls-14" d="M482.41,172.44l.09-.06c-.12.09-.25.18-.37.27.09-.07.19-.14.28-.21Z"/><path class="cls-14" d="M491.62,163.42s.05-.06.07-.09c-.1.13-.2.26-.31.39.08-.1.16-.2.24-.31Z"/><polygon class="cls-14" points="498.2 151.41 498.2 151.42 498.2 151.42 498.2 151.41"/><polyline class="cls-25" points="464.83 136.41 498.51 149.54 498.8 149.65"/><line class="cls-25" x1="425.93" y1="169.86" x2="425.91" y2="169.84"/><path class="cls-17" d="M507.04,156.76c-.82,1.84-1.77,3.62-2.76,5.36-.27.46-.56.91-.84,1.37-.29.45-.55.92-.86,1.35l-.91,1.32c-.29.45-.61.87-.94,1.3l-.96,1.28c-.33.42-.68.82-1.02,1.23-.66.83-1.4,1.6-2.12,2.39-.35.4-.74.77-1.11,1.14l-1.12,1.13-1.18,1.07c-.39.35-.78.72-1.19,1.05-3.24,2.72-6.75,5.13-10.49,7.08-.5.26-1,.51-1.51.75-.25.12-.5.24-.76.36-.25.12-.51.24-.76.35-.26.11-.51.23-.77.34-.26.11-.52.22-.78.32-.26.11-.52.21-.78.31-.25.1-.51.2-.77.3-1.94.73-3.92,1.35-5.93,1.87-.17.04-.33.09-.5.13-.48.12-.95.23-1.43.33-.03,0-.07.02-.1.02-.45.09-.9.19-1.34.27-.24.05-.48.09-.72.13-.24.04-.49.09-.73.12-.17.03-.35.06-.53.08-.15.02-.3.04-.45.06-.21.03-.42.06-.63.09-.68.09-1.36.17-2.05.23-.23.02-.45.04-.67.06-1,.08-2,.13-3.01.15-3.69.11-7.39-.14-11.03-.76l-20.35-19.47c.16.15.33.29.49.43.02.02.05.05.08.07.1.09.21.18.31.27.09.08.18.15.28.23.03.02.05.05.08.07.13.1.26.21.39.31.08.06.16.13.24.19.17.13.35.27.52.4.13.11.27.21.41.31.04.03.07.06.11.09.06.05.13.09.19.14.21.16.42.31.63.46,0,0,0,0,.01,0,.28.2.55.39.83.58.04.02.07.05.1.07.28.19.55.37.83.54.33.22.67.43,1.01.63.13.08.25.16.38.23.17.1.34.2.51.3.1.06.2.12.31.18.02,0,.03.02.05.03.15.09.3.17.46.25.06.03.13.07.18.1.28.15.57.31.86.45.01,0,.02.01.03.02.27.14.54.28.81.41.1.05.21.11.32.16.16.08.32.15.48.22.06.03.11.05.17.08.11.05.22.1.33.15.04.02.08.03.11.05.17.08.35.16.52.23.06.02.11.05.17.07.04.02.08.04.11.05.32.13.63.26.95.39,0,0,.02,0,.03.01.32.13.65.25.98.38.15.06.31.11.46.17.15.05.31.11.46.16.03,0,.06.02.09.03.05.02.09.04.14.05h0s0,0,0,0c.13.04.25.09.38.13.06.02.13.04.19.06.1.03.2.06.3.09h.01c.23.08.45.15.68.21,0,0,0,0,.02,0,.03,0,.06.02.09.02.03,0,.06.02.08.02.17.05.33.09.5.14.06.02.12.03.18.05.23.06.45.13.68.18,0,0,.02,0,.03,0,.16.04.32.08.48.12.16.04.32.08.48.12.02,0,.04,0,.06.01.13.03.27.06.4.09,0,0,.02,0,.02,0,.14.03.28.06.43.09.21.05.42.09.63.13.22.05.44.09.66.13.22.04.44.08.66.11.11.02.21.04.32.05.19.03.39.06.58.09.02,0,.05,0,.08.01.12.02.24.03.36.05.09.01.19.02.28.04.05,0,.1.01.16.02.03,0,.06,0,.08.01.16.02.32.04.49.06.13.02.26.03.39.04.05,0,.09,0,.14.02.08,0,.17.02.25.02.05,0,.1,0,.15.01.13.01.25.02.38.03.11.01.22.02.33.03.17.02.35.03.52.04.12,0,.24.02.36.02.09,0,.17,0,.26.01.03,0,.07,0,.1,0,.07,0,.13,0,.2,0h0c.14,0,.29.02.44.02.09,0,.18,0,.27,0,.05,0,.1,0,.15,0,.15,0,.29,0,.44,0,.12,0,.24,0,.36,0,.12,0,.24,0,.36,0,.1,0,.21,0,.31,0h.09c.07,0,.13,0,.2,0h.02c.2,0,.4,0,.6-.01.07,0,.14,0,.2,0,.24,0,.47-.02.71-.03.16,0,.32-.02.47-.02.01,0,.02,0,.03,0,.1,0,.2,0,.29-.02.01,0,.02,0,.03,0,.14,0,.28-.02.42-.03.01,0,.02,0,.03,0,.05,0,.1,0,.14-.01.06,0,.11,0,.16,0,.02,0,.04,0,.05,0,.05,0,.09,0,.13,0,.01,0,.02,0,.04,0,.02,0,.05,0,.07,0,.02,0,.04,0,.06,0,.12,0,.25-.02.37-.04.06,0,.11,0,.16-.02.07,0,.14-.01.21-.02,0,0,.02,0,.02,0,.08,0,.16-.02.23-.02.08,0,.16-.02.23-.03.03,0,.07,0,.1-.01.06,0,.11-.01.16-.02.06,0,.13-.02.19-.02.09,0,.18-.02.27-.03.13-.02.25-.03.37-.05.13-.02.25-.03.37-.06.1-.01.2-.03.3-.05,0,0,.01,0,.02,0,0,0,.02,0,.02,0,.08-.01.16-.03.24-.04.01,0,.02,0,.03,0,.02,0,.04,0,.06,0,0,0,.01,0,.02,0,.02,0,.03,0,.05,0,0,0,.02,0,.02,0,.02,0,.04,0,.06-.01.02,0,.04,0,.06,0,.17-.03.35-.06.52-.09.06,0,.12-.02.18-.03.24-.04.47-.09.71-.14.05-.01.1-.02.15-.03.05-.01.1-.02.16-.03h0c.21-.04.42-.09.63-.14.05-.01.1-.02.15-.04.25-.06.51-.12.76-.18.04,0,.09-.02.13-.03.08-.02.16-.04.24-.06.05-.01.09-.02.14-.04.16-.04.32-.08.48-.13.08-.02.16-.05.23-.07,0,0,.02,0,.03,0,.06-.02.11-.03.17-.05.03,0,.06-.02.09-.02.06-.02.13-.03.19-.05.07-.02.13-.04.2-.06l.21-.06c.1-.03.2-.06.3-.09,0,0,.02,0,.02,0,.05-.02.1-.03.15-.05,0,0,.02,0,.02,0,.02,0,.03,0,.05-.02.03,0,.06-.02.1-.03.08-.02.16-.05.24-.08.2-.06.4-.13.59-.2.07-.02.14-.05.21-.07.24-.08.47-.16.7-.25.11-.04.22-.08.33-.12.05-.02.1-.04.15-.06.17-.06.33-.12.49-.19.2-.08.41-.16.61-.24.07-.02.13-.05.19-.08.2-.08.39-.17.59-.25.06-.02.11-.04.16-.07,0,0,.02,0,.03-.01.02-.01.04-.02.07-.03.03-.01.06-.03.09-.04.03-.02.06-.03.1-.05.03-.01.07-.03.1-.04.14-.06.28-.13.43-.19.55-.25,1.1-.51,1.64-.79.17-.09.33-.17.5-.26.09-.04.18-.09.27-.14.04-.02.07-.04.11-.06,0,0,.02,0,.02-.01.07-.04.13-.07.2-.11.08-.04.17-.09.24-.13.15-.08.29-.16.43-.24.02,0,.04-.02.06-.03.04-.02.09-.05.13-.07.1-.06.19-.11.29-.17.02-.02.05-.03.07-.04.07-.04.15-.09.22-.13.1-.06.2-.12.3-.18.11-.07.22-.13.33-.2,0,0,0,0,.02,0,.02,0,.03-.02.05-.03.14-.08.29-.17.43-.27,0,0,0,0,0,0,.03-.02.06-.03.09-.05.15-.09.29-.19.44-.28.12-.07.23-.15.34-.22.02,0,.03-.02.04-.03.04-.03.08-.06.12-.08.04-.02.08-.06.12-.08.02-.01.04-.02.06-.04.06-.04.12-.08.17-.12.21-.14.42-.28.62-.43.1-.06.19-.13.29-.2.12-.09.25-.18.37-.27.03-.02.06-.05.09-.07.03-.02.07-.05.1-.07.08-.06.16-.11.23-.17.47-.35.94-.72,1.39-1.09.21-.17.42-.35.63-.52.03-.02.05-.05.08-.07,0,0,0,0,.01,0,.2-.17.4-.35.6-.52.02-.02.04-.03.06-.06.21-.19.42-.37.62-.57.22-.2.43-.4.65-.61.17-.17.35-.34.53-.51l.11-.11c.21-.2.42-.42.62-.63.2-.22.41-.43.61-.65.2-.21.4-.43.6-.65.2-.22.39-.44.58-.67.39-.45.76-.91,1.13-1.37.08-.1.16-.2.24-.3.1-.13.2-.26.31-.39,0-.02.02-.03.03-.05.15-.19.29-.39.44-.59.05-.06.09-.12.13-.18.15-.2.3-.41.45-.62.17-.23.33-.47.49-.71.01-.02.02-.04.04-.06.13-.2.27-.41.4-.61,0-.02.02-.03.03-.04.19-.28.37-.57.55-.87.09-.15.18-.29.26-.44,0,0,0,0,0,0,.05-.09.1-.17.16-.26.14-.23.27-.46.4-.69.12-.21.24-.42.35-.64.11-.2.22-.41.33-.62.1-.19.2-.38.3-.57,0,0,0-.01,0-.02,0,0,0-.01,0-.02.11-.22.22-.44.33-.66.11-.24.23-.47.34-.71,0-.02.01-.03.02-.04.25-.54.49-1.09.72-1.64,0-.02.01-.03.02-.05,0-.02.02-.04.02-.06.05-.12.1-.24.15-.36.05-.12.1-.25.15-.37.11-.27.21-.54.31-.81.03-.08.06-.16.09-.24h0s0,0,0,0c.08-.21.15-.42.23-.63.09-.26.17-.52.26-.78.02-.06.04-.11.06-.17.02-.06.04-.12.06-.18l1.35.53,6.89,6.59Z"/><line class="cls-25" x1="500.15" y1="150.17" x2="498.98" y2="149.06"/><path class="cls-43" d="M416.79,154.79c-4.84-9.28-3.4-25.15-1.77-29.21,1.63-4.06,4.35-.55,3.53,1.64s-4.28,16.4,1.64,25.87c2.3,3.68-1.37,5.6-3.41,1.7Z"/><polygon class="cls-32" points="336.11 73.03 327.4 73.03 329.58 58.89 331.49 46.46 331.75 44.75 333.93 58.89 334.14 60.26 336.11 73.03"/><polygon class="cls-19" points="343.17 54.1 345.63 66.39 348.09 78.68 343.17 78.68 338.26 78.68 340.72 66.39 343.17 54.1"/><polygon class="cls-32" points="342.86 76.14 331.55 76.14 334.38 61.99 336.62 50.74 337.2 47.83 340.03 61.99 342.31 73.38 342.86 76.14"/><polygon class="cls-23" points="315.26 80.93 303.94 80.93 306.78 66.78 309.6 52.62 310.18 55.53 312.43 66.78 315.26 80.93"/><circle class="cls-27" cx="274.1" cy="66.68" r="28.75" transform="translate(141 315.4) rotate(-75.52)"/><path class="cls-48" d="M356.55,86.81l-6.69.03h-51.47l-11.62-.42c12.95-5.92,26.75-28.73,31.26-33.8,4.51-5.07,9.3-3.38,12.96,1.69,2.36,3.26,18.86,23.35,25.57,32.5Z"/><circle class="cls-19" cx="274.1" cy="66.68" r="18.86" transform="translate(141 315.4) rotate(-75.52)"/><circle class="cls-4" cx="278.85" cy="63.02" r="5.83"/><circle class="cls-49" cx="270.23" cy="72.56" r="3.09"/><circle class="cls-19" cx="279.54" cy="78.29" r="1.63"/><circle class="cls-49" cx="268.78" cy="56.88" r="1.81"/><path class="cls-11" d="M350.07,86.84h-.21s-58.02,0-58.02,0v7.63c-1.23-.06-1.93-.1-1.93-.1l-5.92-14.15s23.99-15.01,35.49-14.36c9.4.53,25,16.24,30.6,20.98Z"/><polygon class="cls-23" points="198.16 85.51 189.45 86.84 191.63 72.71 193.81 58.57 194.33 62 195.98 72.71 198.16 85.51"/><polygon class="cls-23" points="214.3 84.06 207.2 84.06 208.97 72.53 210.75 61 211.21 64 212.53 72.53 214.3 84.06"/><polygon class="cls-19" points="207.02 84.38 197.2 84.38 199.66 72.09 202.11 59.81 202.73 62.9 204.57 72.09 207.02 84.38"/><path class="cls-23" d="M285.77,64.39c-.8,1.26-2.81,2.22-3.59,2.61-.96.48-1.11,2.2-1.56,3.39-.46,1.2-1.73,1.63-1.73,1.63h0c-.06-.06-.62-.63-.35-.78.07-.03.2-.05.4,0h.01c.39-.04.91-.08.85-2.01-.15-.69.91-2.52,1.5-2.93.57-.24,1.14-.54,1.25-.7.79-1.01,1.66-1.5,1.75-2.31l.16-1.14v-.02c-.57.03.1-.61.1-.61.06-1.25.62-1.43.66-1.53.04-.1.09-.43.17-.72.09-.29.25-.1.35-.02.1.09.28.26.36.26.08,0,.17.15.17.15,0,0,.04,1.39-.06,2.8h0c-.02.37-.06.74-.1,1.08-.04.29-.16.58-.33.84Z"/><path class="cls-52" d="M288,69.57h0c-.15-.26-.29-.5-.42-.72-.06-.1-.12-.19-.18-.29-.11-.18-.21-.35-.32-.5-.1-.16-.19-.3-.28-.43.03.4.12.89.23,1.35.03.12.06.23.09.33.01.05.04.11.05.16.02.04.03.09.05.13l.12.54-.25.07s-.04-.06-.06-.1c-.03-.07-.07-.13-.09-.2-.05-.13-.1-.27-.16-.4,0-.11-.02-.2-.06-.28-.13-.3-1.02-1.87-1.02-1.87h0c-1.09.43-1.47.17-2.12.51,0,0,0,0-.01,0h0c.02.07.04.12.06.19.01.06.03.12.04.18,0,0,0,0,0,0,.01.07.03.14.04.21h0c.01.17.01.31,0,.46,0,.05,0,.1-.02.15-.13.29-.39.96-.5,1.36,0,.02,0,.04-.01.06,0,.03-.02.06-.02.09,0,.02,0,.04,0,.05,0,.05,0,.09,0,.11,0,.04,0,.08.01.11.01.04.04.09.06.13h0s.07.1.1.14c.03.04.08.08.12.11.14.19.31.4.46.53.16.16-.09.29-.35.37-.16-.04-.34-.19-.51-.39-.02-.02-.05-.06-.08-.09-.1-.12-.19-.25-.29-.37,0,0,0,0,0-.01-.14-.26-.28-.48-.34-.52,0,0-.01-.02-.02-.03-.02-.13.05-.2.09-.45v-.04h0c-.11.11-.21.21-.31.32-.05.05-.09.1-.14.16-.02.03-.05.07-.07.1-.02.02-.03.05-.05.08-.02.03-.04.07-.06.1-.04.11-.07.21-.08.34-.02.12-.03.24,0,.37.01.09.03.17.04.24,0,.03,0,.06.01.09,0,.01,0,.03,0,.04,0,.03.01.07.02.1.04.19.09.32.14.42,0,.01.02.02.02.04,0,0,0,.01.01.02.02.03.03.04.03.04l-.57.17s-.01-.03-.02-.05c0-.03-.02-.07-.04-.11.03-.06.04-.12.01-.16-.08-.1-.48-.87-.54-.97,0,0,0,0,0,0l.02-.1v-.05s.02-.02.02-.03c0-.03.02-.06.03-.1,0-.05.03-.11.04-.16,0-.04.02-.07.03-.1s.01-.06.02-.09c0-.03.01-.06.01-.07.02-.05.02-.08,0-.09,0,0-.02,0-.03,0,0,0,0,.01,0,.01h0c-.09.19-.17.36-.26.5-.03.06-.07.12-.1.17-.02.02-.03.05-.06.07h0c-.12.17-.24.3-.37.39-.06.06-.13.1-.19.13-.3.15-.58.14-.79.09-.02,0-.04,0-.06-.02-.01,0-.03,0-.04-.02-.03,0-.05-.01-.08-.02-.03-.01-.07-.03-.1-.05,0,0,1.27-.43,1.73-1.63.45-1.2.6-2.92,1.56-3.39.78-.39,2.79-1.35,3.59-2.61.17-.27.29-.55.33-.84.05-.34.08-.71.1-1.07h0c.1-1.41.06-2.8.06-2.8h0s.01.04.02.06c0,.02.02.06.04.1.09.23.23.68.22,1.22-.02.17-.05.3-.04.43,0,.01,0,.03,0,.05t0,0s0,.02,0,.03c.01.06.04.11.07.17,0,.02.02.04.03.06,0,0,0,0,.01.01.04.07.1.13.16.2.05.05.09.1.15.16.02.02.04.05.06.07.1.12.19.24.27.35.05.08.1.14.14.2,0,0,0,.01.01.02,0,0,0,0,0,.01,0,.02.02.04.03.06.02.03.03.07.05.1.06.14.11.29.14.46.01.06.02.12.03.19,0,.02,0,.05,0,.08,0,.07.01.15.01.22v.02c0,.07,0,.14,0,.21,0,.08,0,.16-.02.25-.01.12-.03.25-.06.38-.01.05-.02.1-.04.16-.01.07-.03.13-.05.2-.02.09-.05.18-.08.27-.04.12-.08.25-.13.38,0,.01,0,.03-.01.04,0,0,0,0,0,0-.04.07-.07.14-.11.2,0,0-.04.02-.04.17,0,.09.02.22.08.42,0,.02,0,.04.01.06,0,.01,0,.03.02.05.18.61.86,2.12,1.06,2.42.16.24-.14.34-.28.38Z"/><path class="cls-2" d="M283.38,74.39v25.46l-30.13.12v-13.13h-63.8c13.73-5.77,31.18-16.26,43.91-34.03.78-1.09,1.74-2.04,2.85-2.8,3.61-2.5,8.73-1.97,12.81,2.19,3.17,3.23,18.52,19.57,24.81,24.23.67.49,1.23.85,1.66,1.05,0,0,3.89-1.98,7.88-3.08Z"/><polygon class="cls-19" points="269.13 82.41 259.3 82.41 261.76 70.12 264.21 57.83 264.73 60.41 266.67 70.12 269.13 82.41"/><polygon class="cls-59" points="264.73 60.41 260.33 82.41 259.3 82.41 261.76 70.12 264.21 57.83 264.73 60.41"/><polygon class="cls-23" points="259.57 87.83 248.25 87.83 251.08 73.67 253.91 59.53 254.43 62.16 256.73 73.67 259.57 87.83"/><polygon class="cls-52" points="254.43 62.16 249.3 87.83 248.25 87.83 251.08 73.67 253.91 59.53 254.43 62.16"/><path class="cls-40" d="M295.64,71.28l-.29,1.18-.31,1.28-3.16,13.1-.05.21v33.23l-14.79,7.89-28.87-5.1v-35.58c5.56-3.02,18.43-7.23,25.66-11.07,8.97-4.76,17.07-8.95,18.92-9.58,4.79-1.62,4.65,2.04,2.88,4.44Z"/><path class="cls-6" d="M295.35,72.46l-.31,1.28-3.16,13.1-.05.21v35.98l-3.94-.2s-.71-35.56,0-40.21c.7-4.65,2.96-6.97,4.71-8.87.79-.85,1.83-1.18,2.74-1.28Z"/><rect class="cls-52" x="278.77" y="84.93" width="2.18" height="35.67"/><polygon class="cls-23" points="259.49 115.57 248.18 115.57 251.01 101.42 253.83 87.27 254.47 90.44 256.67 101.42 259.49 115.57"/><polygon class="cls-52" points="254.47 90.44 249.45 115.57 248.18 115.57 251.01 101.42 253.83 87.27 254.47 90.44"/><path class="cls-23" d="M280.85,122.03c-.98,2.77-4.03,4.22-6.8,3.24-2.25-.8-3.63-2.96-3.54-5.23h0c.02-.52.12-1.05.3-1.56.98-2.77,4.03-4.22,6.79-3.24.4.14.78.33,1.12.55,2.02,1.31,2.96,3.88,2.12,6.25Z"/><polygon class="cls-23" points="280.95 111.18 280.95 119.21 278.77 119.21 278.77 112.76 280.95 111.18"/><path class="cls-19" d="M289.64,122.82c-2.46,2.46-6.44,2.45-8.9,0-1.09-1.09-1.69-2.48-1.82-3.9-.16-1.79.45-3.63,1.83-5,1.77-1.77,4.33-2.26,6.55-1.48.86.3,1.66.8,2.35,1.49,2.46,2.46,2.45,6.44,0,8.9Z"/><polygon class="cls-19" points="267.49 110.65 270.35 120.71 259.67 120.9 258.38 120.92 261.24 110.86 258.38 109.59 264.63 83.32 265.3 86.39 270.35 109.38 267.49 110.65"/><polygon class="cls-59" points="260 108.68 262.86 109.95 260 120.01 259.67 120.9 258.38 120.92 261.24 110.86 258.38 109.59 264.63 83.32 265.3 86.39 260 108.68"/><path class="cls-52" d="M278.74,115.79c-2.47,1.9-6.65,1.9-8.22,4.24.02-.52.12-1.04.3-1.56.98-2.77,4.03-4.22,6.79-3.24.4.14.78.33,1.12.55Z"/><path class="cls-1" d="M291.83,119.51v80.32c-4.35-3.15-17.04,19.81-19.15,17.79l-26.19-6.43v-100.65c29.65,15.72,25.63,5.31,45.34,8.97Z"/><path class="cls-5" d="M285.78,199.58s0-55.98,0-57.25c0-2.96.42-9.75,3.8-9.72.14,0-.49,68.23-.63,68.23-.84,0-3.17-1.27-3.17-1.27Z"/><path class="cls-52" d="M289.3,191.62c0,.06,0,.11,0,.17-.09,3.89-3.27,7.01-7.18,7.01s-7.18-3.21-7.18-7.18c0-3,1.84-5.58,4.45-6.64,0,0,.02,0,.03-.01.68-.28,1.41-.45,2.18-.5.17-.01.34-.02.51-.02,3.84,0,6.98,3.02,7.17,6.81,0,.12,0,.25,0,.37Z"/><circle class="cls-23" cx="288.24" cy="196.2" r="2.96"/><path class="cls-52" d="M285.66,195.17c.88-1.09,2.06-1.55,2.8-1.44.45.06.62.49.28.49-.77.02-1.95.3-2.66,1.37-.34.51-1.73.18-1.57-.02s1.14-.4,1.14-.4Z"/><polygon class="cls-23" points="252.85 176.14 246.49 176.14 246.49 139.79 252.85 176.14"/><polygon class="cls-52" points="256.28 136.13 260.87 160.81 265.46 185.49 256.28 185.49 247.09 185.49 251.68 160.81 256.28 136.13"/><polygon class="cls-23" points="266.63 186.09 269.65 162.26 266.63 161.69 273.23 135.99 279.27 161.34 276.25 161.91 279.27 185.74 266.63 186.09"/><path class="cls-52" d="M268.22,160.74l3.02.57-2.13,16.81c-.53-.01-1.02-.02-1.46-.02l2.01-15.84-3.02-.57,4.79-18.61.62,2.78-3.83,14.89Z"/><polygon class="cls-12" points="256.03 151.62 249.73 185.49 247.09 185.49 254.75 144.33 256.03 151.62"/><path class="cls-58" d="M291.83,199.32v63.33l-24.21-3.34-14.38-1.98-9.3-3.14v-79.71c.54-.77,1.4-1.53,2.54-2.22,3.71-2.28,10.37-3.95,18.73-3.95,10,0,15.35,27.39,26.62,31.01Z"/><rect class="cls-52" x="283.38" y="216.21" width="1.35" height="35.3"/><polygon class="cls-34" points="284.74 242.95 284.74 251.5 283.38 251.5 283.38 245.64 284.74 242.95"/><rect class="cls-52" x="261.34" y="223.16" width="2.11" height="32.18"/><path class="cls-53" d="M291.7,233.01l-4.46-3.86-1.53-1.32-1.64-1.42-7.63,6.6,3.83-9.28,2.06-5.03,1.23-3.01c.08-.19.19-.32.33-.38.25-.12.55,0,.7.38l3.29,8.04,3.83,9.28Z"/><path class="cls-34" d="M292.4,246.12l-5.57-5-2.77-2.49-8.34,7.5,4.18-7.94,3.38-6.46c.35-.66,1.21-.66,1.55,0l.29.56,3.09,5.91,4.18,7.94Z"/><polygon class="cls-44" points="256.22 239.61 268.58 239.61 265.41 227.35 267.73 225.24 266.89 221.54 267.52 219.75 266.15 217.11 265.3 212.25 266.15 210.67 264.24 207.71 262.24 196.41 259.49 212.04 258.22 213.94 259.6 215.31 257.06 225.14 259.17 227.14 256.22 239.61"/><path class="cls-18" d="M286.77,252.17c-.95-.89-1.98-1.61-3.1-2.11-.71-.32-1.45-.63-2.21-.94-.68-.28-1.39-.55-2.11-.82-8.28-3.12-18.69-5.94-26.09-9.5-2.25-1.08-4.23-2.23-5.77-3.48-1.43-1.15-2.5-2.38-3.1-3.72-.37-.83-1.1-1.62-2.11-2.38v6.75c2.97,2.31,8.22,4.73,10.98,7.46,10.16,9.98,19.1,22.07,27.68,31.37,1.36.11,2.63.54,3.74,1.21,1.74,1.06,3.08,2.72,3.72,4.7,1.63.43,2.92,1.71,3.38,3.33h.07v-22.67c0-.86-.18-1.71-.54-2.49-1.24-2.68-2.73-5.01-4.52-6.71Z"/><rect class="cls-52" x="242.27" y="205.21" width="2.11" height="32.18"/><rect class="cls-52" x="269.25" y="258.89" width="1.63" height="8.45" rx=".64" ry=".64" transform="translate(49.39 -42.61) rotate(9.93)"/><rect class="cls-52" x="269.35" y="258.83" width="1.63" height="8.45" rx=".64" ry=".64" transform="translate(534.2 -6.15) rotate(90.21)"/><rect class="cls-52" x="260.8" y="248.34" width="1.63" height="8.45" rx=".64" ry=".64" transform="translate(48.52 -42.09) rotate(10.13)"/><circle class="cls-4" cx="259.37" cy="203.72" r=".53"/><rect class="cls-52" x="260.9" y="248.26" width="1.63" height="8.45" rx=".64" ry=".64" transform="translate(515.16 -8.31) rotate(90.21)"/><rect class="cls-52" x="259.69" y="248.65" width="1.63" height="8.45" rx=".64" ry=".64" transform="translate(343.11 -100.66) rotate(59)"/><path class="cls-34" d="M280.92,274.81c-.23-.02-.47-.03-.71-.03-4.74,0-8.59,3.85-8.59,8.59,0,.23,0,.45.03.67h-7.29c-1.25-2.39-3.57-4.13-6.33-4.58-1.24-6.02-6.57-10.54-12.96-10.54-.96,0-1.91.1-2.81.3v-33.26c2.97,2.31,8.22,4.73,10.98,7.46,10.16,9.98,19.1,22.07,27.68,31.37Z"/><path class="cls-52" d="M288.38,280.71c-.11-.03-.23-.06-.36-.08-.29-.05-.58-.08-.87-.08-.18,0-.35,0-.52.03-1.96.21-3.57,1.61-4.08,3.46h-10.89c-.02-.22-.03-.45-.03-.67,0-4.74,3.85-8.59,8.59-8.59.24,0,.48,0,.71.03,1.36.11,2.63.54,3.74,1.21,1.74,1.06,3.08,2.72,3.72,4.7Z"/><path class="cls-34" d="M291.76,284.05h-9.22c.51-1.86,2.12-3.25,4.08-3.46.17-.02.35-.03.52-.03.3,0,.59.03.87.08.12.02.24.05.36.08,1.63.43,2.92,1.71,3.38,3.33Z"/><polygon class="cls-62" points="235.38 225.38 239.13 215.58 236.45 214 239.67 206.28 237.93 205.2 239.53 203.7 243.02 191.41 244.49 196.57 245.56 200.3 247.97 202.62 246.9 203.87 247.97 207.69 249.71 209.76 248.91 211.18 249.98 214.08 247.03 215.75 250.51 224.08 251.05 225.38 235.38 225.38"/><path class="cls-30" d="M226.46,55.84l-2.5,2.26-3.23,2.94h0s0,0,0,0l-3.23-2.94-2.5-2.26c-.14-.13,1.29-.09,3.06,1.11l2.68,2.01,2.68-2.01c1.77-1.21,3.2-1.24,3.06-1.11Z"/><path class="cls-30" d="M199.91,55.75l2.48-2.24,3.16-2.87h0s0,0,0,0l3.16,2.87,2.48,2.24c.14.13-3.7-.05-5.64-1.94-1.94,1.89-5.78,2.06-5.64,1.94Z"/><path class="cls-19" d="M198.38,46.72l-1.59,1.43-2,1.82h-.01s-.01,0-.01,0l-2-1.82-1.59-1.43c-.09-.08,1.33-.46,3.6.74,2.27-1.2,3.69-.82,3.6-.74Z"/><path class="cls-52" d="M264.37,284.05h-22.1v-14.81c.91-.2,1.85-.3,2.81-.3,6.38,0,11.72,4.52,12.96,10.54,2.76.45,5.09,2.19,6.33,4.58Z"/><polygon class="cls-52" points="261.05 215.36 258.54 225.17 260.63 227.17 257.7 239.61 256.22 239.61 259.14 227.17 257.06 225.17 259.56 215.36 258.21 213.99 259.46 212.09 261.16 202.32 261.91 206.56 260.94 212.09 259.69 213.99 261.05 215.36"/><path class="cls-52" d="M286.83,241.15l-2.77-2.53-8.34,7.5,4.18-7.94,3.38-6.46c.35-.66,1.21-.66,1.55,0l.29.56c1.57,5.61.02,4.62,1.7,8.84,0,.02,0,.04,0,.04Z"/><polygon class="cls-34" points="242.27 229.89 242.27 237.65 244.38 237.65 244.38 228.17 242.27 229.89"/><polygon class="cls-18" points="250.51 224.08 248.61 222.96 245.69 215.96 248.63 214.29 247.56 211.39 248.37 209.97 246.62 207.9 245.55 204.08 246.62 202.83 244.21 200.51 243.8 199.04 244.49 196.57 245.56 200.3 247.97 202.62 246.9 203.87 247.97 207.69 249.71 209.76 248.91 211.18 249.98 214.08 247.03 215.75 250.51 224.08"/><path class="cls-52" d="M247.52,255.58c-1.08-1.08-.87-3.04-.87-3.04,0,0,1.96-.21,3.04.87s.87,3.04.87,3.04c0,0-1.96.21-3.04-.87Z"/><path class="cls-52" d="M261.44,212.96c.13-.47.7-.72.7-.72,0,0,.36.51.24.98s-.7.72-.7.72c0,0-.36-.51-.24-.98Z"/><path class="cls-52" d="M268.52,273.71c-1.04,1.11-3.01.97-3.01.97,0,0-.28-1.95.77-3.07,1.04-1.11,3.01-.97,3.01-.97,0,0,.28,1.95-.77,3.07Z"/><path class="cls-18" d="M262.09,263.54c-.76-.04-1.34-.83-1.34-.83,0,0,.66-.74,1.42-.7s1.34.83,1.34.83c0,0-.66.74-1.42.7Z"/><path class="cls-18" d="M264.08,232.97c-.34-.42-.19-1.1-.19-1.1,0,0,.7,0,1.03.43s.19,1.1.19,1.1c0,0-.7,0-1.03-.43Z"/><circle class="cls-52" cx="254.94" cy="266.75" r="1.27"/><circle class="cls-18" cx="245.36" cy="223.66" r=".63"/><ellipse class="cls-18" cx="264.69" cy="210.93" rx=".49" ry=".42"/><ellipse class="cls-18" cx="263.86" cy="220.81" rx=".49" ry=".42"/><circle class="cls-52" cx="238.18" cy="213.17" r=".63"/><circle class="cls-18" cx="242.69" cy="204.01" r=".63"/><path class="cls-56" d="M291.7,233.01l-4.46-3.86-1.53-1.32c-.57-3.84-1.38-9.31-1.83-12.51.25-.12.55,0,.7.38l3.29,8.04,3.83,9.28Z"/><circle class="cls-52" cx="260.43" cy="224.45" r=".53"/><circle class="cls-52" cx="261.17" cy="236.65" r=".53"/><circle class="cls-34" cx="282.22" cy="237" r=".53"/><circle class="cls-56" cx="282.94" cy="223.11" r=".53"/><circle class="cls-56" cx="277.68" cy="216.67" r=".53"/><circle class="cls-56" cx="270.11" cy="221.53" r=".53"/><circle class="cls-56" cx="274.94" cy="232.44" r=".53"/><circle class="cls-56" cx="289.11" cy="236.6" r=".53"/><circle class="cls-4" cx="271.47" cy="206.02" r=".53"/><circle class="cls-4" cx="256.68" cy="213.41" r=".53"/><circle class="cls-4" cx="247.02" cy="198.31" r=".53"/><circle class="cls-4" cx="269.76" cy="186.34" r=".53"/><circle class="cls-4" cx="266.3" cy="196.82" r=".53"/><circle class="cls-4" cx="256.77" cy="181.51" r=".53"/><circle class="cls-4" cx="253.56" cy="192.21" r=".53"/><path class="cls-6" d="M291.83,202.89v9.27c-12-7.11-20.54-25.29-22.31-30.58,6.75,5.96,13.72,21.16,22.31,21.31Z"/><path class="cls-53" d="M286.48,94.12l-6.61-4.07-3.88,2.39-2.73,1.68,3.32-7.18,2.68-5.85c.09-.19.21-.31.35-.38.31-.16.7-.03.88.38l2.68,5.85,3.32,7.18Z"/><path class="cls-23" d="M287.05,104.25l-6.77-2.42-.41-.15-7.19,2.57,3.61-6.22,2.87-4.99c.31-.55,1.11-.55,1.42,0l.23.39,2.64,4.6,3.61,6.22Z"/><path class="cls-23" d="M284.4,111.25l-4.49-1.61h-.04s-4.53,1.61-4.53,1.61l2.27-3.92,1.81-3.15c.2-.34.7-.34.9,0l.61,1.06,1.2,2.09,2.27,3.92Z"/><polygon class="cls-18" points="273.23 135.99 279.27 161.34 277.33 161.76 272.47 138.74 273.23 135.99"/><path class="cls-52" d="M282.08,98.97c.11,1.05-.85,2.09-1.8,2.85l-.41-.15-7.19,2.57,3.61-6.22,2.87-4.99c.31-.55,1.11-.55,1.42,0l.23.39c-.08.09-.15.19-.22.29-.74,1.06,1.29,3.19,1.5,5.26Z"/><path class="cls-52" d="M279.91,109.64h-.04s-4.53,1.61-4.53,1.61l2.27-3.92,1.81-3.15c.2-.34.7-.34.9,0l.61,1.06c.53,1.31.58,2.87-1.01,4.41Z"/><path class="cls-18" d="M275.98,92.43l-2.73,1.68,3.32-7.18,2.68-5.85c.09-.19.21-.31.35-.38.13.22.22.48.27.78.25,1.57-1.76,6.96-3.88,10.94Z"/><polyline class="cls-25" points="264.3 101.14 266.05 97.22 266.97 95.17 269.23 90.08"/><path class="cls-23" d="M289.3,191.62c0,.06,0,.11,0,.17-2.59-5.6-6.82-4.55-9.9-6.82,0,0,.02,0,.03-.01.68-.28,1.41-.45,2.18-.5.17-.01.34-.02.51-.02,3.84,0,6.98,3.02,7.17,6.81,0,.12,0,.25,0,.37Z"/><circle class="cls-23" cx="279.71" cy="97.02" r=".4"/><circle class="cls-18" cx="280.92" cy="87.88" r=".4"/><circle class="cls-23" cx="276.75" cy="101.35" r=".4"/><circle class="cls-23" cx="279.36" cy="107.45" r=".34"/><path class="cls-59" d="M287.3,112.44c-1.66,1.83-5.44,4.14-8.37,6.48-.16-1.79.45-3.63,1.83-5,1.77-1.77,4.33-2.26,6.55-1.48Z"/><path class="cls-20" d="M292.53,64.06l-.02.1s0,0,0-.02c0,0,0,0,0,0,0,0,0,0,0,0,0,0,.01-.03.02-.07Z"/><path class="cls-34" d="M65.29,284.64h-5.48c.03-3.11-.41-6.37-.98-9.64-.45-2.54-.98-5.1-1.54-7.67-.16-.74-.32-1.48-.48-2.23-.81-3.67-1.61-7.38-2.34-11.11l4.11-3.36c.88,4.17,1.88,8.34,2.9,12.53.07.27.13.54.2.81.8,3.31,1.61,6.64,2.3,10.05.68,3.41,1.26,6.91,1.32,10.61Z"/><path class="cls-50" d="M67.44,116.73c-2.77-6.03,11.37,7.55,18.07,7.73,57.55,1.55-34.02-42.49-18.07-7.73Z"/><path class="cls-42" d="M84.56,127.77c-1.01,3.28-2.09,6.5-3.2,9.73-1.11,3.22-2.27,6.43-3.44,9.63-2.36,6.4-4.84,12.75-7.41,19.07-1.28,3.16-2.6,6.31-3.92,9.45-1.33,3.13-2.73,6.28-3.98,9.36-1.24,3.12-2.34,6.29-3.28,9.5-.93,3.22-1.7,6.47-2.31,9.76-.61,3.29-1.04,6.61-1.32,9.93-.26,3.33-.38,6.67-.33,10.02.09,6.68.81,13.35,1.96,19.97.35,2,.73,4,1.15,6,.03.14.06.29.09.44l-4.11,3.36c-.04-.2-.08-.4-.11-.6-.55-2.81-1.04-5.64-1.46-8.49-1.02-6.82-1.6-13.74-1.53-20.67.02-3.47.23-6.93.59-10.38.37-3.44.9-6.87,1.61-10.26.71-3.39,1.59-6.74,2.63-10.03,1.05-3.3,2.26-6.53,3.61-9.71,1.38-3.19,2.83-6.23,4.23-9.33,1.39-3.1,2.78-6.2,4.14-9.31,2.71-6.23,5.33-12.49,7.85-18.81,1.25-3.16,2.48-6.32,3.67-9.5,1.19-3.18,2.35-6.38,3.42-9.58l1.45.45Z"/><path class="cls-55" d="M108.99,170.89c-33.69,0-1.69-38.01-30.75-38.01-2.55,0,13.06-11.07,10.43-11.07,35.76,0,56.27,49.08,20.32,49.08Z"/><path class="cls-35" d="M84.07,153.95c0,35.15-38.55,13.44-46.66-.56-2.33-7.26,17.02-17.08,21.1-18.43,5.62-1.6,10.65-4.74,16.12-7.29,3.4,2.57,9.12,5.26,12.06,5.49,1.79,2.98-2.63,11.2-2.63,20.8Z"/><path class="cls-61" d="M86.47,133.16c-18.71-14.47-63.73,18.88-64.85,5.85-2.54-29.47,40.9-48.36,49.51-22.68-4.66,3.71,10.05,12.83,15.34,16.83Z"/><polygon class="cls-23" points="74.03 124.04 68.82 124.84 70.12 116.39 71.43 107.94 71.74 109.99 72.73 116.39 74.03 124.04"/><polygon class="cls-23" points="80.76 121.73 76.52 121.73 77.58 114.84 78.64 107.94 78.91 109.73 79.7 114.84 80.76 121.73"/><polygon class="cls-4" points="78.07 120.93 72.2 120.93 73.67 113.59 75.13 106.24 75.5 108.1 76.6 113.59 78.07 120.93"/><polygon class="cls-23" points="86.95 120.95 83.08 121.54 84.04 115.25 85.01 108.96 85.25 110.49 85.98 115.25 86.95 120.95"/><polygon class="cls-19" points="91.34 122.73 88.18 122.73 88.97 117.6 89.76 112.47 89.96 113.8 90.55 117.6 91.34 122.73"/><polygon class="cls-52" points="89.13 122.57 84.76 122.57 85.86 117.1 86.95 111.63 87.22 113.01 88.04 117.1 89.13 122.57"/><path class="cls-36" d="M93.98,128.25c-.78.04-1.76.06-2.89.05h-.41c-7.45-.08-21-1.28-29.52-5.8.1-.65.27-1.29.49-1.93.16-.45.34-.89.56-1.31.63-1.25,1.48-2.33,2.49-3.24.02-.02.03-.03.05-.04.17-.16.35-.3.53-.44.79-.63,1.67-1.16,2.62-1.59.08-.04.17-.08.25-.11.01-.01.02-.02.04-.02,4.5-1.94,10.45-1.72,15.94,1.06,3.11,1.57,5.65,3.75,7.47,6.2.11.14.22.29.31.44.83,1.2,1.5,2.45,1.98,3.73,0,.01.01.02,0,.03.02.05.03.09.05.13l-.67.3.72,2.55Z"/><circle class="cls-19" cx="87.84" cy="122.93" r=".25"/><circle class="cls-19" cx="89.76" cy="124.35" r=".25"/><circle class="cls-19" cx="90.01" cy="121.52" r=".25"/><circle class="cls-19" cx="87.93" cy="125.62" r=".25"/><circle class="cls-19" cx="84.63" cy="124.67" r=".25"/><circle class="cls-19" cx="81.69" cy="126.9" r=".25"/><circle class="cls-19" cx="84.88" cy="127.54" r=".25"/><circle class="cls-19" cx="85.71" cy="120.09" r=".25"/><circle class="cls-19" cx="83.2" cy="119.14" r=".25"/><circle class="cls-19" cx="83.02" cy="122.57" r=".25"/><circle class="cls-19" cx="79.97" cy="124.63" r=".25"/><circle class="cls-19" cx="80.39" cy="121.41" r=".25"/><circle class="cls-19" cx="87.99" cy="118.78" r=".25"/><circle class="cls-19" cx="84.66" cy="117.27" r=".25"/><circle class="cls-19" cx="81.58" cy="115.25" r=".25"/><circle class="cls-19" cx="77.98" cy="126.12" r=".25"/><circle class="cls-19" cx="74.9" cy="124.1" r=".25"/><circle class="cls-19" cx="79.74" cy="116.55" r=".25"/><circle class="cls-19" cx="80.42" cy="119.15" r=".25"/><circle class="cls-19" cx="76.99" cy="118.95" r=".25"/><circle class="cls-19" cx="74.6" cy="121.77" r=".25"/><circle class="cls-19" cx="77.85" cy="121.7" r=".25"/><circle class="cls-19" cx="77.04" cy="114.24" r=".25"/><circle class="cls-19" cx="74.38" cy="113.86" r=".25"/><circle class="cls-19" cx="74.96" cy="117.25" r=".25"/><circle class="cls-19" cx="72.43" cy="119.93" r=".25"/><circle class="cls-19" cx="72.13" cy="116.69" r=".25"/><circle class="cls-19" cx="65.5" cy="119.8" r=".25"/><circle class="cls-19" cx="68.15" cy="120.18" r=".25"/><circle class="cls-19" cx="67.58" cy="116.79" r=".25"/><circle class="cls-19" cx="70.11" cy="114.11" r=".25"/><circle class="cls-19" cx="70.4" cy="117.35" r=".25"/><path class="cls-52" d="M84.36,127.34s0,.05,0,.07c.05,1.55,1.33,2.79,2.89,2.78s2.86-1.3,2.85-2.89c0-1.2-.75-2.22-1.8-2.64,0,0,0,0-.01,0-.27-.11-.57-.17-.87-.2-.07,0-.14,0-.21,0-1.53.01-2.78,1.22-2.85,2.74,0,.05,0,.1,0,.15Z"/><path class="cls-23" d="M84.36,127.34s0,.05,0,.07c1.02-2.24,2.71-1.84,3.94-2.75,0,0,0,0-.01,0-.27-.11-.57-.17-.87-.2-.07,0-.14,0-.21,0-1.53.01-2.78,1.22-2.85,2.74,0,.05,0,.1,0,.15Z"/><path class="cls-52" d="M84.84,128.59c-.47.45-1.22.44-1.67-.03-.21-.21-.32-.49-.33-.77.65-.25,1.27-.61,1.87-1.01.06.04.11.09.16.14.45.47.44,1.22-.03,1.67Z"/><path class="cls-23" d="M84.7,126.78c-.6.41-1.22.76-1.87,1.01-.02-.33.1-.66.36-.91.42-.4,1.05-.44,1.51-.11Z"/><polygon class="cls-23" points="70.93 128.41 66.93 129.03 67.93 122.49 68.93 115.95 69.17 117.54 69.93 122.49 70.93 128.41"/><polygon class="cls-4" points="93.98 128.25 94.1 128.68 90.93 128.74 90.54 128.75 90.67 128.29 91.4 125.76 90.54 125.38 91.57 121.06 92.4 117.58 92.6 118.49 94.1 125.32 93.92 125.4 93.25 125.7 93.98 128.25"/><polygon class="cls-9" points="91.03 125.11 91.88 125.49 91.03 128.48 90.93 128.74 90.55 128.75 91.4 125.76 90.55 125.38 92.4 117.58 92.6 118.49 91.03 125.11"/><polygon class="cls-23" points="74.79 130.57 71.53 130.57 72.35 125.24 73.16 119.91 73.37 121.29 73.98 125.24 74.79 130.57"/><polygon class="cls-19" points="73.44 129.06 68.93 129.06 70.06 123.38 71.19 117.7 71.47 119.13 72.31 123.38 73.44 129.06"/><rect class="cls-52" x="62.39" y="115.81" width=".46" height="7.06"/><polygon class="cls-8" points="64.36 120.23 63.54 118.08 64.13 117.74 63.42 116.04 63.81 115.8 63.45 115.47 62.69 112.78 62.36 113.91 62.13 114.73 61.6 115.24 61.84 115.51 61.6 116.35 61.22 116.8 61.39 117.11 61.16 117.75 61.81 118.12 61.04 119.95 60.92 120.23 64.36 120.23"/><polygon class="cls-34" points="62.85 121.22 62.85 122.93 62.39 122.93 62.39 120.84 62.85 121.22"/><polygon class="cls-54" points="61.04 119.95 61.46 119.7 62.1 118.16 61.45 117.8 61.69 117.16 61.51 116.85 61.9 116.4 62.13 115.56 61.9 115.28 62.43 114.77 62.52 114.45 62.36 113.91 62.13 114.73 61.6 115.24 61.84 115.51 61.6 116.35 61.22 116.8 61.39 117.11 61.16 117.75 61.81 118.12 61.04 119.95"/><circle class="cls-52" cx="62.17" cy="119.85" r=".14"/><circle class="cls-54" cx="63.75" cy="117.55" r=".14"/><circle class="cls-52" cx="62.76" cy="115.54" r=".14"/><path class="cls-52" d="M65.94,124.98c-.51.4-1.25.32-1.65-.19-.33-.41-.33-.98-.05-1.39h0c.07-.09.14-.18.24-.26.51-.4,1.25-.32,1.65.19.06.07.11.15.14.23.22.48.1,1.07-.34,1.41Z"/><path class="cls-52" d="M66.28,123.57c-.68.07-1.46-.42-2.03-.17.07-.09.14-.18.24-.26.51-.4,1.25-.32,1.65.19.06.07.11.15.14.23Z"/><path class="cls-4" d="M63.7,124.49c-1.06.24-2.12-.42-2.36-1.49-.06-.24-.07-.48-.03-.71,1.09-.16,2.53-.01,3.91,0,.14,1.01-.51,1.97-1.52,2.2Z"/><path class="cls-4" d="M65.22,122.34c-1.38,0-2.82-.16-3.91,0,.03-.22.1-.43.2-.63.26-.5.73-.89,1.32-1.03.76-.18,1.53.12,1.99.7.18.22.31.49.37.79.01.05.02.11.03.16Z"/><path class="cls-57" d="M62.01,121.44c-.08.13.04.26.16.17s.7-.44,1.15-.45.19-.22-.07-.24c-.49-.04-.93.02-1.23.52Z"/><path class="cls-24" d="M94.63,128.21s-.01,0-.02,0h0c-.92,1.79-2.09,3.27-3.4,4.44-1.47,1.33-3.11,2.28-4.77,2.89-.05.02-.1.03-.15.05-2.87.83-12.32-1.96-14.97-3.36-.11-.06-.22-.12-.31-.18-.03-.02-.05-.03-.08-.05,0,0,0,0,0,0-.1-.06-.2-.12-.3-.18-.08-.05-.16-.09-.24-.14-.16-.1-.32-.2-.48-.3-.08-.05-.15-.09-.22-.14-4.81-3.09-8.07-6.42-8.54-8.75,10.41,5.53,28.34,6.09,33.46,5.72h.02Z"/><path class="cls-18" d="M89.27,108.39l1.33,1.2,1.71,1.56h0s0,0,0,0l1.71-1.56,1.33-1.2c.08-.07-.68-.05-1.62.59l-1.42,1.06-1.42-1.06c-.94-.64-1.7-.66-1.62-.59Z"/><path class="cls-32" d="M103.83,107.34l-1.31-1.18-1.67-1.52h0s0,0,0,0l-1.67,1.52-1.31,1.18c-.07.07,1.96-.03,2.98-1.03,1.03,1,3.06,1.09,2.98,1.03Z"/><path class="cls-46" d="M104.64,102.31l.84.76,1.06.96h0s0,0,0,0l1.06-.96.84-.76s-.7-.24-1.9.39c-1.2-.63-1.95-.43-1.9-.39Z"/><path class="cls-41" d="M83.56,137.51c-.26-.07-.52-.14-.79-.22h.02c.26.08.52.15.78.22Z"/><path class="cls-34" d="M65.29,284.64h-5.48c.03-3.11-.41-6.37-.98-9.64-.45-2.54-.98-5.1-1.54-7.67,1.36-1.35,2.75-2.74,4.19-4.16.07.27.13.54.2.81.8,3.31,1.61,6.64,2.3,10.05.68,3.41,1.26,6.91,1.32,10.61Z"/><path class="cls-34" d="M93.56,135.08c-.21.43-.46.85-.73,1.24-.17.26-.36.51-.56.75,0,0,0,0-.01,0,0,.02-.02.03-.04.05-.21.25-.44.5-.67.73-.11.05-.21.09-.33.13-.11.04-.23.08-.36.11-.08.02-.17.04-.26.06-.35.08-.75.13-1.17.15-.29.01-.59.02-.9,0-.03,0-.06,0-.09,0-.59-.02-1.23-.08-1.91-.19-.12-.02-.23-.04-.35-.06-.12-.02-.24-.04-.36-.06-.48-.08-.97-.19-1.48-.31-.25-.06-.51-.12-.77-.19-.25-.07-.52-.14-.78-.22h0s0,0-.01,0c-1.35-.39-2.78-.89-4.26-1.48,0,0-.01,0-.02,0-1.32-.53-2.67-1.15-4.05-1.84-1.09-.55-2.14-1.13-3.13-1.72,2.66,1.39,12.1,4.19,14.97,3.36.05-.02.1-.03.15-.05,1.66-.61,3.3-1.56,4.77-2.89,1.3-1.18,2.47-2.65,3.4-4.44h0c.35,2.37.03,4.73-1.05,6.87Z"/><path class="cls-16" d="M65.29,284.64h-5.48c.03-3.11-.41-6.37-.98-9.64-.45-2.54-.98-5.1-1.54-7.67-.16-.74-.32-1.48-.48-2.23-.81-3.67-1.61-7.38-2.34-11.11l4.11-3.36c.88,4.17,1.88,8.34,2.9,12.53.07.27.13.54.2.81.8,3.31,1.61,6.64,2.3,10.05.68,3.41,1.26,6.91,1.32,10.61Z"/><path class="cls-16" d="M93.56,135.08c-.21.43-.46.85-.73,1.24-.17.26-.36.51-.56.75,0,0,0,0-.01,0,0,.02-.02.03-.04.05-.21.25-.44.5-.67.73-.11.05-.21.09-.33.13-.11.04-.23.08-.36.11-.08.02-.17.04-.26.06-.35.08-.75.13-1.17.15-.29.01-.59.02-.9,0-.03,0-.06,0-.09,0-.59-.02-1.23-.08-1.91-.19-.12-.02-.23-.04-.35-.06-.12-.02-.24-.04-.36-.06-.48-.08-.97-.19-1.48-.31-.25-.06-.51-.12-.77-.19-.25-.07-.52-.14-.78-.22h0s0,0-.01,0c-1.35-.39-2.78-.89-4.26-1.48,0,0-.01,0-.02,0-1.32-.53-2.67-1.15-4.05-1.84-1.09-.55-2.14-1.13-3.13-1.72,2.66,1.39,12.1,4.19,14.97,3.36.05-.02.1-.03.15-.05,1.66-.61,3.3-1.56,4.77-2.89,1.3-1.18,2.47-2.65,3.4-4.44h0c.35,2.37.03,4.73-1.05,6.87Z"/></g></svg>