<?xml version="1.0" encoding="UTF-8"?><svg id="Layer_2" xmlns="http://www.w3.org/2000/svg" viewBox="0 0 1256.17 234"><defs><style>.cls-1{fill:#f8f3de;}</style></defs><g id="Layer_1-2"><path class="cls-1" d="M243.75,104.91c0,77.22-40.95,129.09-120.12,129.09H.78v-11.31l14.43-5.07c10.14-3.51,10.53-10.14,10.53-88.92,0-109.2-2.34-109.98-12.09-113.49L0,11.31V0h143.13c72.93,0,100.62,41.34,100.62,104.91ZM100.62,222.3c59.67-6.63,66.3-30.03,66.3-88.92,0-79.56-17.16-120.12-63.18-120.9h-3.51c-1.95,10.14-1.95,25.35-1.95,108.81,0,77.22.78,92.04,2.34,101.01Z"/><path class="cls-1" d="M271.82,15.21l-14.04-3.9.39-11.31h122.85v11.31l-14.43,4.68c-10.14,3.51-10.53,10.14-10.53,84.63,0,113.1,2.34,115.05,12.09,118.17l14.04,3.9v11.31h-123.24v-11.31l14.82-5.07c9.75-3.51,10.14-10.14,10.14-88.14,0-109.59-2.34-111.15-12.09-114.27Z"/><path class="cls-1" d="M634.13,104.91c0,77.22-40.95,129.09-120.12,129.09h-122.85v-11.31l14.43-5.07c10.14-3.51,10.53-10.14,10.53-88.92,0-109.2-2.34-109.98-12.09-113.49l-13.65-3.9V0h143.13c72.93,0,100.62,41.34,100.62,104.91ZM491,222.3c59.67-6.63,66.3-30.03,66.3-88.92,0-79.56-17.16-120.12-63.18-120.9h-3.51c-1.95,10.14-1.95,25.35-1.95,108.81,0,77.22.78,92.04,2.34,101.01Z"/><path class="cls-1" d="M662.21,15.21l-14.04-3.9.39-11.31h122.85v11.31l-14.43,4.68c-10.14,3.51-10.53,10.14-10.53,84.63,0,113.1,2.34,115.05,12.09,118.17l14.04,3.9v11.31h-123.24v-11.31l14.82-5.07c9.75-3.51,10.14-10.14,10.14-88.14,0-109.59-2.34-111.15-12.09-114.27Z"/><path class="cls-1" d="M980.44,234h-198.51v-11.31l14.82-5.07c8.97-3.51,9.75-9.75,9.75-92.04,0-105.69-2.34-107.25-11.7-110.37l-14.43-3.9.39-11.31h200.46c.39,24.18,1.56,56.16,3.9,86.19h-10.14l-14.82-24.57c-19.89-31.98-39.78-46.8-79.95-49.92-1.56,11.31-1.95,33.15-1.95,97.5,23.4-1.95,35.88-11.31,44.07-33.93l5.46-15.6h6.24c-.39,26.52,3.51,86.19,6.24,112.32h-6.63l-7.02-15.99c-10.53-24.57-24.96-33.15-48.36-35.88v1.56c0,64.35.78,87.75,2.34,99.84,38.61-3.51,60.45-15.6,79.17-48.75l17.55-32.76h10.14c-3.51,32.76-6.24,67.08-7.02,93.99Z"/><path class="cls-1" d="M1144.24,234h-137.28v-11.31l13.26-5.07c11.31-3.9,11.7-10.14,11.7-88.92,0-109.59-2.34-110.37-14.04-113.88l-12.09-3.51V0h168.48c44.07,0,63.57,19.5,63.57,46.8,0,24.96-17.55,50.7-52.65,63.18,20.28,50.7,46.8,98.67,63.57,109.59l7.41,3.12v11.31h-89.31c-7.8-14.04-28.08-64.74-46.41-117.78-6.24-.39-11.31-1.17-16.38-1.95,0,99.06,2.34,100.62,24.96,104.91l15.21,3.12v11.7ZM1160.62,69.81c0-35.88-13.26-58.5-52.26-58.5h-.78c-1.56,9.36-3.51,28.47-3.51,92.82,9.36,3.12,17.16,4.29,28.47,4.29,21.84,0,28.08-8.58,28.08-38.61Z"/></g></svg>