<?xml version="1.0" encoding="UTF-8"?><svg id="Layer_2" xmlns="http://www.w3.org/2000/svg" xmlns:xlink="http://www.w3.org/1999/xlink" viewBox="0 0 203.18 215.73"><defs><style>.cls-1{fill:none;}.cls-2{clip-path:url(#clippath-1);}.cls-3{fill:#f9f3dd;}.cls-4{clip-path:url(#clippath);}</style><clipPath id="clippath"><rect class="cls-1" width="203.18" height="215.73"/></clipPath><clipPath id="clippath-1"><rect class="cls-1" width="203.18" height="215.73"/></clipPath></defs><g id="Layer_1-2"><g id="Artwork_47"><g class="cls-4"><g class="cls-2"><path class="cls-3" d="M181.69,66.37c0,40.61-23.97,68.34-61.18,68.34-14.85,0-13.06-2.68-46.51-2.68v-.36c5.01,0,6.08-8.58,6.08-38.82v-15.73c0-25.8-1.56-25.52-6.08-25.52v-1c11.92,0,19.33-.54,25.23-1.14l.09.71c-3.91,1.73-6.71,6.42-6.71,10.81v33.13c0,34.16,7.33,39.35,30.06,39.35,18.78,0,45.98-14.85,45.98-63.33C168.63,16.64,128.72,1.25,99.15,1.25-12.29,1.25,11.04,94.16,66.18,94.16-16.65,94.16-16.74,0,99.15,0,153.23,0,181.69,27.37,181.69,66.37"/><path class="cls-3" d="M128.93,71.2c-3.47,2.73-7.12,4.85-11.04,6.5-39.48,16.63-93.94-26.1-43.9-26.1v-1c-43,0-29.75,37.32,6.37,42.62-3.65-.05-7.3.22-10.97.22C35.67,93.44,0,111.7,0,154.69s32.07,61.04,70.2,61.04c68.96,0,65.14-23.28,65.14-82.14v-18.51c-.54-26.61-1.3-34.76,5.99-37.96,19.63-8.34,41.61-13.52,61.86-6.25-19.85-14.57-54.96-14.9-74.25.33M122.82,133.59c0,55.24-6.15,80.86-52.62,80.86-28.18,0-57.51-14.17-57.51-59.76,0-55.84,61.63-60.35,71.16-60.76v-.31c-1.18-.1-2.33-.24-3.45-.4,1.15.02,2.31.04,3.45.08v.33c10.72.9,23.56-.99,37.93-7.29.79,5.85,1.04,15.06,1.04,28.93v18.33Z"/></g></g></g></g></svg>