<?xml version="1.0" encoding="UTF-8"?><svg id="Layer_2" xmlns="http://www.w3.org/2000/svg" xmlns:xlink="http://www.w3.org/1999/xlink" viewBox="0 0 694.93 297.89"><defs><style>.cls-1{fill:none;}.cls-2{clip-path:url(#clippath-1);}.cls-3{fill:#282526;}.cls-4{fill:#f8f3de;}.cls-5{clip-path:url(#clippath);}</style><clipPath id="clippath"><rect class="cls-1" x="557.15" y="151.6" width="137.78" height="146.29"/></clipPath><clipPath id="clippath-1"><rect class="cls-1" x="557.15" y="151.6" width="137.78" height="146.29"/></clipPath></defs><g id="Layer_1-2"><rect class="cls-3" x="0" width="693.93" height="134.52"/><rect class="cls-3" x="0" y="158.55" width="503.13" height="134.52"/><path class="cls-4" d="M54.02,63.03c8.82-.84,12.88-3.92,16.1-12.18l2.24-5.6h2.24c-.56,10.22-.28,33.46.42,43.54h-2.24l-2.24-5.88c-4.2-10.78-7.7-14.98-16.52-15.96.14,31.78,1.68,32.48,6.72,33.46l7.98,1.4v4.06H19.44v-4.06l5.32-1.82c3.22-1.26,3.5-3.5,3.5-33.04,0-37.94-.84-38.36-4.2-39.62l-5.04-1.4v-4.06h67.9c.14,9.38.42,21.7,1.4,33.32h-3.64l-5.32-11.2c-5.74-11.9-12.18-16.8-24.78-17.78-.56,4.06-.56,11.76-.56,33.46v3.36Z"/><path class="cls-4" d="M163.64,105.87h-71.26v-4.06l5.32-1.82c3.22-1.26,3.5-3.5,3.5-33.04,0-37.94-.84-38.5-4.2-39.62l-5.18-1.4.14-4.06h71.96c.14,8.68.56,20.16,1.4,30.94h-3.64l-5.32-8.82c-7.14-11.48-14.28-16.8-28.7-17.92-.56,4.06-.7,11.9-.7,35,8.4-.7,12.88-4.06,15.82-12.18l1.96-5.6h2.24c-.14,9.52,1.26,30.94,2.24,40.32h-2.38l-2.52-5.74c-3.78-8.82-8.96-11.9-17.36-12.88v.56c0,23.1.28,31.5.84,35.84,13.86-1.26,21.7-5.6,28.42-17.5l6.3-11.76h3.64c-1.26,11.76-2.24,24.08-2.52,33.74Z"/><path class="cls-4" d="M208.44,105.87h-40.46v-4.06l1.96-.98c4.9-2.38,14.42-24.78,42-83.44h4.9c5.74,12.04,14.42,30.38,19.88,42.42,11.9,25.62,17.64,37.66,22.4,40.88l1.68,1.12v4.06h-45.5v-4.2l2.94-.42c3.08-.28,5.04-1.12,5.04-4.62,0-2.94-2.94-10.5-7.14-20.16-3.36-.14-6.86-.28-10.78-.28-3.5,0-6.3,0-9.38.14-.28,3.92-.42,7.56-.42,10.64,0,8.4,2.8,12.88,9.52,14.14l3.36.56v4.2ZM214.46,72.83c-4.62-10.64-9.38-20.86-12.18-26.32-3.08,7.84-4.9,17.5-5.88,26.46,2.8.14,5.6.14,8.96.14s6.3-.14,9.1-.28Z"/><path class="cls-4" d="M320.58,105.87h-55.3v-4.06l7.42-1.96c6.86-1.82,7.14-3.64,7.14-31.78s-.28-37.52-.84-41.72c-5.88,1.82-8.54,6.3-13.72,17.22l-8.26,18.34h-3.36c1.12-13.86,1.26-28.14,1.4-40.04h75.18c.14,11.9.28,26.18,1.4,40.04h-3.36l-8.26-18.34c-5.18-10.78-8.12-14.98-13.72-17.22-.42,3.78-.56,10.64-.56,31.36,0,40.32,1.12,40.88,7.84,42.42l7.14,1.68-.14,4.06Z"/><path class="cls-4" d="M412.84,70.03c0,20.44-12.04,37.24-36.54,37.24-22.68,0-33.88-11.34-33.88-31.5,0-5.88.28-8.68.28-18.06,0-28.42-1.4-29.4-4.48-30.52l-3.64-1.26.14-4.06h42.7v4.06l-5.04,1.68c-3.78,1.4-3.92,4.62-3.92,38.78,0,20.72,8.12,29.4,21.84,29.4,10.64,0,14.14-2.52,14.14-17.36,0-41.3-5.32-47.88-13.72-50.96l-4.2-1.54v-4.06h33.6v4.06l-2.94,1.68c-3.5,1.82-4.62,4.2-4.62,27.16,0,3.78.28,13.02.28,15.26Z"/><path class="cls-4" d="M472.48,105.87h-49.28v-4.06l4.76-1.82c4.06-1.4,4.2-3.64,4.2-31.92,0-39.34-.84-39.62-5.04-40.88l-4.34-1.26v-4.06h60.48c15.82,0,22.82,7,22.82,16.8,0,8.96-6.3,18.2-18.9,22.68,7.28,18.2,16.8,35.42,22.82,39.34l2.66,1.12v4.06h-32.06c-2.8-5.04-10.08-23.24-16.66-42.28-2.24-.14-4.06-.42-5.88-.7,0,35.56.84,36.12,8.96,37.66l5.46,1.12v4.2ZM478.36,46.93c0-12.88-4.76-21-18.76-21h-.28c-.56,3.36-1.26,10.22-1.26,33.32,3.36,1.12,6.16,1.54,10.22,1.54,7.84,0,10.08-3.08,10.08-13.86Z"/><path class="cls-4" d="M584.34,105.87h-71.26v-4.06l5.32-1.82c3.22-1.26,3.5-3.5,3.5-33.04,0-37.94-.84-38.5-4.2-39.62l-5.18-1.4.14-4.06h71.96c.14,8.68.56,20.16,1.4,30.94h-3.64l-5.32-8.82c-7.14-11.48-14.28-16.8-28.7-17.92-.56,4.06-.7,11.9-.7,35,8.4-.7,12.88-4.06,15.82-12.18l1.96-5.6h2.24c-.14,9.52,1.26,30.94,2.24,40.32h-2.38l-2.52-5.74c-3.78-8.82-8.96-11.9-17.36-12.88v.56c0,23.1.28,31.5.84,35.84,13.86-1.26,21.7-5.6,28.42-17.5l6.3-11.76h3.64c-1.26,11.76-2.24,24.08-2.52,33.74Z"/><path class="cls-4" d="M681.07,59.53c0,27.72-14.7,46.34-43.12,46.34h-44.1v-4.06l5.18-1.82c3.64-1.26,3.78-3.64,3.78-31.92,0-39.2-.84-39.48-4.34-40.74l-4.9-1.4v-4.06h51.38c26.18,0,36.12,14.84,36.12,37.66ZM629.69,101.67c21.42-2.38,23.8-10.78,23.8-31.92,0-28.56-6.16-43.12-22.68-43.4h-1.26c-.7,3.64-.7,9.1-.7,39.06,0,27.72.28,33.04.84,36.26Z"/><path class="cls-4" d="M82.86,227.34c-5.88,12.88-13.02,30.24-20.86,47.74h-3.5c-4.34-9.38-14-30.66-19.74-43.12-10.92-23.94-16.66-36.12-20.86-39.76l-1.54-1.26v-4.06h43.12v4.06l-1.12.28c-3.78.84-5.74,3.22-5.74,6.86,0,4.76,4.62,13.72,10.22,24.5,2.24,4.2,7.28,14.84,9.8,19.74,2.94-6.02,6.02-12.32,8.82-17.92-9.1-19.6-14.14-29.54-17.5-32.62l-.84-.84v-4.06h42.28v4.06l-2.1,1.12c-2.24,1.12-5.46,5.32-10.36,14.42,1.82,2.8,3.64,5.6,5.32,8.12,5.04,7.98,13.72,21.84,18.34,29.26,2.66-11.06,5.04-26.6,5.04-36.82,0-9.38-3.22-13.86-8.26-15.12l-4.34-.98v-4.06h39.76v4.06l-1.68,1.54c-4.76,4.2-14.14,26.18-40.74,82.46h-3.5c-3.64-9.1-12.32-31.08-18.06-43.12-.7-1.54-1.4-2.94-1.96-4.48ZM86.08,193.05c0,2.1,2.38,6.44,5.46,11.2,1.68-3.64,2.38-6.3,2.38-9.1.14-3.5-.56-4.9-3.92-4.9-2.66,0-3.92.7-3.92,2.8Z"/><path class="cls-4" d="M182.68,272.29c-24.08,0-39.9-16.52-39.9-42.28,0-28.7,15.68-44.38,47.74-44.38,26.6,0,39.9,14,39.9,37.52,0,32.48-18.34,49.14-47.74,49.14ZM193.74,267.1c4.9,0,6.44-3.64,6.44-26.18,0-33.88-9.38-50.54-20.16-50.54-4.76,0-6.86,2.1-6.86,30.1,0,33.18,7.56,46.62,20.58,46.62Z"/><path class="cls-4" d="M284.59,270.88h-49.28v-4.06l4.76-1.82c4.06-1.4,4.2-3.64,4.2-31.92,0-39.34-.84-39.62-5.04-40.88l-4.34-1.26v-4.06h60.48c15.82,0,22.82,7,22.82,16.8,0,8.96-6.3,18.2-18.9,22.68,7.28,18.2,16.8,35.42,22.82,39.34l2.66,1.12v4.06h-32.06c-2.8-5.04-10.08-23.24-16.66-42.28-2.24-.14-4.06-.42-5.88-.7,0,35.56.84,36.12,8.96,37.66l5.46,1.12v4.2ZM290.47,211.95c0-12.88-4.76-21-18.76-21h-.28c-.56,3.36-1.26,10.22-1.26,33.32,3.36,1.12,6.16,1.54,10.22,1.54,7.84,0,10.08-3.08,10.08-13.86Z"/><path class="cls-4" d="M329.67,192.34l-5.04-1.4.14-4.06h44.1v4.06l-5.18,1.68c-3.64,1.26-3.78,3.64-3.78,30.38,0,40.6.84,41.3,4.34,42.42l5.04,1.4v4.06h-44.24v-4.06l5.32-1.82c3.5-1.26,3.64-3.64,3.64-31.64,0-39.34-.84-39.9-4.34-41.02ZM382.59,270.88c-2.52-4.76-11.9-24.22-19.18-41.02,18.2-17.08,20.86-21.56,20.86-26.18,0-5.74-3.78-10.78-8.68-12.18l-2.66-.7v-3.92h40.32v3.92l-3.22,1.26c-4.34,1.68-8.54,3.22-27.16,22.82,15.12,29.54,22.4,46.2,28.42,50.4,1.12.7,2.66,1.12,3.92,1.68v3.92h-32.62Z"/><path class="cls-4" d="M478.63,187.73c-.98,9.1-1.82,17.08-2.1,30.52h-3.64l-3.5-6.44c-5.18-10.08-15.12-20.72-26.04-20.72-4.06,0-6.86,2.66-6.86,6.86,0,9.1,3.08,15.54,21.84,19.88,21.28,5.18,25.34,12.88,25.34,23.24,0,17.36-14,31.22-41.16,31.22-12.04,0-21.84-3.22-26.88-5.6.42-9.38,1.68-18.2,1.82-29.26h3.78l3.08,6.86c5.88,13.16,18.2,17.92,39.76,17.92,6.16,0,6.86-1.82,6.86-5.32,0-7.14-4.9-12.46-30.52-19.04-21.98-5.46-24.92-14.28-24.78-21.84-.14-16.8,18.9-30.38,39.06-30.38,10.08,0,18.2,1.12,23.94,2.1Z"/><g id="Artwork_65"><g class="cls-5"><g class="cls-2"><path class="cls-3" d="M680.35,196.6c0,27.54-16.26,46.34-41.48,46.34-10.07,0-8.86-1.82-31.54-1.82v-.24c3.4,0,4.12-5.82,4.12-26.32v-10.67c0-17.5-1.06-17.3-4.12-17.3v-.68c8.08,0,13.11-.37,17.11-.77l.06.48c-2.65,1.17-4.55,4.35-4.55,7.33v22.46c0,23.17,4.97,26.69,20.38,26.69,12.74,0,31.18-10.07,31.18-42.94,0-36.27-27.07-46.7-47.11-46.7-75.57,0-59.75,63-22.36,63-56.17,0-56.23-63.85,22.36-63.85,36.67,0,55.97,18.56,55.97,45"/><path class="cls-3" d="M644.58,199.88c-2.35,1.85-4.83,3.29-7.48,4.4-26.77,11.28-63.7-17.7-29.77-17.7v-.68c-29.16,0-20.17,25.3,4.32,28.9-2.48-.03-4.95.15-7.44.15-22.87,0-47.06,12.39-47.06,41.54s21.75,41.39,47.6,41.39c46.76,0,44.17-15.79,44.17-55.7v-12.55c-.36-18.05-.88-23.57,4.06-25.74,13.31-5.66,28.22-9.17,41.95-4.24-13.46-9.88-37.27-10.1-50.35.22M640.43,242.19c0,37.46-4.17,54.83-35.68,54.83-19.11,0-39-9.61-39-40.52,0-37.86,41.79-40.92,48.25-41.2v-.21c-.8-.07-1.58-.16-2.34-.27.78.01,1.56.03,2.34.05v.22c7.27.61,15.97-.67,25.72-4.94.54,3.97.7,10.21.7,19.62v12.43Z"/></g></g></g></g></svg>