<?xml version="1.0" encoding="UTF-8"?><svg id="Layer_2" xmlns="http://www.w3.org/2000/svg" viewBox="0 0 786.49 821.59"><defs><style>.cls-1{fill:#00402d;}.cls-2{fill:none;stroke:#00402d;stroke-miterlimit:10;stroke-width:2px;}.cls-3{fill:#f9f3de;}</style></defs><g id="Layer_1-2"><path class="cls-1" d="M629.16,314.32c34.32-49.81-9.03-63.17-19.78-41.5-1.73,3.5-2.21,7.48-1.56,11.33,2.17,12.95,7.44,22.86,13.71,30.16h-45.14c14.48-12.46,15.49-53.23,0-69.06,21.73,0,30.31-28.29,43.45-28.29-8.22,18.66-12.07,34.65-12.91,48.24v.02c-.16,3.82,2.06,3.04,4.34-.45h0c14.51-25.43,52.82-21.2,47.61,4.16-1.86,9.1-5.35,36.19,10.11,45.39h-39.84Z"/><path class="cls-1" d="M33.94,245.99c-42.03,0-41.82,25.59-6.11,25.59-33.29-32.45,20.05-22.61,20.05-2.57,0,9.56-14.95,3.85-32.14,11.23-43.02,18.46,13.83,51.56,31.68,22.65,0,15.05,28.5,18.99,28.5-11.55,0,11.12-14.32,8.61-8.93-13.09,5.45-21.93-11.97-32.25-33.05-32.25ZM47.42,289.18c0,40.26-51.08-21.9,0-7.19,0,0,0,7.18,0,7.19Z"/><path class="cls-1" d="M301.1,314.32h40.42c-14.48-16.85-23.58-47.61-1.68-97.36-13.14,0-21.73,28.29-43.46,28.29,2.69,2.75,4.88,6.24,6.59,10.21-2.1,1.72-5.8-.02-8.5-2.09-10.44-8.05-20.76-5.23-26.75.26-30.81,28.25,10.72,85.69,37.75,48.42,0,0,.33,7.56-4.37,12.26ZM304.54,270.67l.41,20.29c-12.03,58.24-61.38-86.3-.41-20.29Z"/><path class="cls-1" d="M530.91,297.57c-11.82.41-35.5-2.07-35.5-6.99,0-1.6.97-2.91,2.42-3.65,7.21,3.99,17.97,4.62,29,.93,16.93-5.66,28.22-19.4,25.71-31.03-.05-.28-.12-.56-.2-.83-.07-.26-.15-.52-.24-.78-.59-1.77-1.49-3.37-2.66-4.79,0,0,0-.01-.02-.02-.33-.4-.68-.79-1.05-1.16-.26-.33-.2-.4.43-.09.09.05.2.1.31.16,4.24,2.25,8.4,4.44,9.48,4.96,2.41,1.16,5.06.28,5.94-1.94.88-2.23-.36-4.97-2.77-6.12-2.2-1.05-19.87-2.28-22.78-2.47-.06,0-.11,0-.17-.01-.02,0-.04,0-.06,0-.03,0-.05,0-.08,0-.17-.02-.41-.07-.86-.17-.05-.02-.12-.03-.18-.05-6.54-1.65-14.32-1.14-22.56,1.61-17.33,5.79-28.75,20.06-25.51,31.86,1,3.65,3.29,6.63,6.49,8.85-6.33,1.92-11.91,6.47-11.91,13.16,0,6.26,7.21,12.51,12.14,14.26-3.65.92-10.49,2.09-9.9,20.07.46,13.92,12.16,21.81,30.39,21.81,20.71,0,50.2-.28,50.2-31.94,0-21.44-24.16-25.93-36.07-25.62ZM515.28,248.99c5.2-2.03,10.81,8.29,13.01,15.31,2.52,8.07,4.05,17.75-1.78,19.93-5.72,2.15-10.94-7.41-13.17-15.25-2.8-9.82-3.59-18,1.94-19.99ZM499.86,314.53c36.05-.85,51.63-.89,56.44,14.32,11.03,34.87-72.15,24.24-56.44-14.32Z"/><path class="cls-1" d="M397.59,294.54c.27,7.43-1.6,12.97-5.51,14.49-5.79,2.25-14.23-5.03-20.45-16.92,4.07-13.91,13.29-15.48,21.7-16.73,7.97-1.18,15.22-2.05,16.67-12.83-1.64-2.72-3.65-5.18-5.96-7.33-6.08-5.66-14.23-9.12-23.18-9.12-18.8,0-34.05,15.24-34.05,34.05s15.24,34.05,34.05,34.05c16.82,0,30.79-12.2,33.54-28.24-4.2,4.6-10.67,7.48-16.81,8.57ZM369.64,251.29c6.01-2.34,14.87,5.6,21.14,18.28-8.17,1.42-18.06,1.38-23.46,12.43-5.01-14.8-4.12-28.21,2.32-30.71Z"/><path class="cls-1" d="M117.43,257.68c1.61-11.87,5.42-25.39,12.16-40.71-13.14,0-21.73,28.3-43.46,28.3,15.5,15.83,14.48,56.59,0,69.06l13.22-7.01c11.48,4.32,21.29,6.3,29.59,6.5l1.91.02c60.77-.56,35.7-99.85-13.42-56.15ZM115.64,294.57v-13.82c-.05-23.73,16.82-35.57,25.43-1.17,8.59,33.56-1.18,37.12-25.43,14.99Z"/><path class="cls-1" d="M489.17,234.69c-6.84.05-14.2,4.96-17.36,8.94-11.95-26.9-40.87-21.26-12.7,4.53-.83,3.82-1.46,7.48-1.88,11.01,5-1.46,9.04-3.46,10.53-5.82-2.55,6.49-1.3,20.09,2.46,25.8-1.8-2.24-7.24-4.61-13.7-6.46.39,18.67,6.75,32.23,14.76,41.54h-45.14c9.29-8,13.04-27.64,10.44-44.87-4.52-.09-8.04.53-9.32,2.18,2.21-3.89,1.49-8.55,0-12.76,1.18,1.52,4,2.41,7.64,2.77-1.44-5.06-3.51-9.66-6.24-13.39,0-36.77,48.71-27.4,60.52-13.47Z"/><path class="cls-1" d="M242.44,290.38c-3.84,15.28-15.86,26.43-30.09,26.43-17.33,0-31.38-16.53-31.38-36.94s14.1-35.62,31.38-36.94c11.82-.91,17.89-.31,27.22,3.66-1.89,3.97-3.04,9.21-3.04,14.95,0,4.57.73,8.83,1.98,12.37-5.16,1.96-18.3-30.21-33.72-26.27-7.35,1.88-7.55,19.34-.94,37.36,6.6,18.02,16.96,17.38,21.72,16.3,5.07-1.16,10.97-3.52,14.24-14.06l2.63,3.13Z"/><path class="cls-1" d="M693.32,240.67c7.64.1,16.54-4,24.45-12.05-8.09-7.88-17.07-11.79-24.71-11.52-15.1.52-14.85,23.38.25,23.57Z"/><path class="cls-1" d="M681.87,314.32h43.46c-21.73-16.65-8.65-49.09,0-71.91-13.14,0-21.73,16.55-43.45,16.55,8.76,14.33,17.95,38.71,0,55.36Z"/><path class="cls-1" d="M751.82,240.89c7.64.1,16.54-4,24.45-12.05-8.09-7.88-17.07-11.79-24.71-11.52-15.1.52-14.85,23.38.25,23.57Z"/><path class="cls-1" d="M786.49,237.81c-24.5,30.84,26.31,88.03-26.01,109.16-25.69,10.37-45.2-8.4-49.57-22.07,9.49,5.57,22.62,8.06,26.67,1.79,38.69,52.16,26.53-59.64,5.46-72.33,21.73,0,30.32-16.55,43.45-16.55Z"/><path class="cls-1" d="M368.95,447.32c39.83-55.29-28.81-44.72-19.64-17.95,2.56,5.78,7.82,10.99,14.95,17.95h-45.14c16.4-14.14,15.5-34.35,0-50.18,28.19,0,22.57-12.12,43.46-12.12-4.27,6.99-7.04,13.17-9.93,17.99-3.94,6.56-3.32,12.03,3.49,1.83,0-.01.02-.02.03-.03,12.26-21.9,50.67-29.82,45.39,1.54-4.16,24.74.11,35.04,7.23,40.98h-39.83Z"/><path class="cls-1" d="M478.64,401.58c-9.63-16.97-29.31-24.98-46.32-16.65-17,8.32-23.84,29.27-15.27,46.79,8.58,17.52,29.27,24.88,46.32,16.65,17.51-8.44,25.04-29.56,15.27-46.79ZM464.52,438.6c-.89,3.76-2.67,6.43-5.28,7.44-3.72,1.44-8.43-.77-12.98-5.47-4.26-4.41-8.38-11.01-11.41-18.86-4-10.37-5.12-20.4-3.53-27.01.9-3.74,2.66-6.39,5.27-7.4,2.75-1.06,6.03-.13,9.39,2.32,5.46,3.98,11.12,11.98,14.99,22.02,3.99,10.34,5.11,20.35,3.54,26.97Z"/><path class="cls-1" d="M164.43,349.97c-13.14,0-21.73,28.3-43.46,28.3,15.5,15.83,14.49,56.59,0,69.06h45.14c-14.49-16.84-23.58-47.61-1.68-97.36Z"/><path class="cls-1" d="M635.88,484.58h45.14c-22.57-13.35-16.59-67.92-1.68-97.36-6.4,0-13.05,3.88-19.33,10.77-.53.58-1.05,1.21-1.56,1.88-11.66-7.18-20.4-12.07-26.34-12.5l-1.9-.11c-60.73-2.4-46.52,105.56,12.18,56.59l3.98-3.82c.14.94.26,1.88.36,2.82,1.73,16.42-2.11,34.21-10.84,41.72ZM644.39,408.61l-.6,12.43c-.14,3.03-.55,5.86-1.17,8.4-4.23,17.36-14.26,21.11-24.29-8.47-11.12-32.81,2.98-37.02,26.13-13.74l-.07,1.37Z"/><path class="cls-1" d="M529.16,397.79c1.47-4.05,3.1-7.86,4.86-11.33-13.14,0-21.73,28.29-43.46,28.29,15.5,15.83,14.48,56.6,0,69.06h45.14c-8.99-5.32-13.45-17.17-14.62-31.36,6.08,1.85,11.6,2.89,16.6,3.25l1.9.11c60.11,2.38,46.8-103.4-10.42-58.02ZM525.32,435.84l.67-13.8c1.11-23.71,18.54-34.71,25.46.06,6.95,33.94-2.99,37.02-26.13,13.73Z"/><path class="cls-1" d="M59.11,419.97c2.42,11.58,7.37,20.59,13.19,27.35H27.16c14.48-12.46,15.5-53.23,0-69.06,21.73,0,30.32-28.3,43.46-28.3-12.06,27.4-14.72,49.04-12.26,65.77l6.7-4.84c23.22-18.96,4.94-25.74,3.59-28.47,7.14,3.04,23.85,2.79,27.84,0,2.92,4.27,2.8,16.52-23.08,24.42,40.35-.45,30.02,37.64,40.35,40.47h-36.17c9.48-5.01,11.71-36.54-18.47-27.35Z"/><path class="cls-1" d="M272.44,447.32c30.36-42.15-2.3-46.03-15.49-33.63l-1.03,1.14c-1.11,18.71,6.15,27.28,12.39,32.49h-44c39.83-55.29-28.81-44.72-19.64-17.95,2.56,5.78,7.82,10.99,14.95,17.95h-45.14c16.4-14.14,15.5-34.35,0-50.18,28.19,0,22.57-12.12,43.46-12.12-4.27,6.99-7.04,13.17-9.93,17.99-3.94,6.56-3.32,12.03,3.48,1.83,0-.01.02-.02.03-.03,12.26-21.9,50.67-29.82,45.39,1.54-.15.88-.28,1.75-.4,2.6.84-.91,1.87-2.24,3.11-4.1,0-.01.02-.02.03-.03,12.26-21.9,50.67-29.82,45.39,1.54-4.16,24.74.11,35.04,7.23,40.98h-39.83Z"/><path class="cls-1" d="M750.5,413.08c-10.87-8.2-38.52.17-32.82,16.83,2.57,5.78,7.82,10.98,14.95,17.94h-45.14c16.4-14.14,15.5-34.35,0-50.18,28.19,0,22.57-12.12,43.46-12.12-4.94,8.09-10.24,20.3-12.69,25.91.17.25.38.47.65.61,9.18-15.45,29.71-30.34,40.43-25.23-6.48,7.05-9.09,16.7-8.83,26.24Z"/><path class="cls-1" d="M333.68,537.31c-20.95,8.92-38.33,21.01-43.68,41.71h-15.28c-5.34-20.71-22.73-32.8-43.68-41.71,23.98,0,16.73-30.08,39.13-30.08-12.85,16.41,13.59,56.07,19.06,56.07,3.47.21,21.52-37.04,5.3-56.07,24.34,0,15.15,30.08,39.13,30.08Z"/><path class="cls-1" d="M67.15,515.08c-3.64,3.58-3.09,13.54-1.11,23.78l-.22-.67c-4.49-12.8-18.15-24.71-27.75-24.71-6.12,0-10.29,3.34-10.29,8.48,0,6.4,4.28,8.33,18.61,11.94,16.13,4.03,22.11,12.08,22.11,22.37,0,36.26-58.41,18.21-54.79,14.51,3.78-3.86,2.69-12.63,1.11-22.94h0c3.12,12.13,15.97,26.43,32.52,26.43,8.2,0,10.15-2.5,10.15-6.67,0-6.67-4.02-9.53-22.23-14.4-16.55-4.31-21-12.5-21-20.57,0-13.21,14.19-23.33,30.59-23.92,11.11-.4,24.17,3.48,22.3,6.36Z"/><path class="cls-1" d="M127.21,558.5c0,4.81-.56,8.83-1.91,11.96-6.47,15.09-36.63,9.02-32.61-8.69,3.84-16.92,10.38-47.77-18.74-51.55,6.16-2.06,11.55-1.31,16.91-2.71,16.54-4.97,24.29-27.03,35.75-27.03-16.53,26.42-7.55,31.36,4.42,18.11-2.54,8.51-3.89,23.04,1.17,26.67-13.11-9.42-17.74-2.68-17.32,19.74.27,14.03.41,21.06,6.03,21.09,2.29.02,6.29-3.34,6.29-7.6Z"/><path class="cls-1" d="M193.58,561.34c-3.91,7.71-10.2,11.14-16.1,13.33-13.29,4.95-26.73-.28-26.07-12.39,1.12-20.66-9.07-25.69-14.12-30.74,21.73,0,30.32-28.3,43.46-28.3-6.65,22.23-17.46,62.7-.87,62.7,6.66,0,11.23-3.72,14.04-11.17-.23-10.21-3.7-21.39-8.92-26.61,21.73,0,30.32-28.3,43.46-28.3-11.24,37.57-16.38,68,1.68,75.3h-45.14c5-1.69,7.69-7.12,8.58-13.82Z"/><path class="cls-1" d="M496.5,537.31c-20.95,8.92-38.33,21.01-43.67,41.71h-15.28c-2.9-11.25-9.36-19.96-18.02-26.99-8.66,7.03-15.12,15.74-18.02,26.99h-15.28c-5.35-20.71-22.73-32.8-43.68-41.71,23.98,0,16.72-30.08,39.13-30.08-12.85,16.41,13.59,56.07,19.07,56.07,1.58.09,6.22-7.66,9.24-17.91-4.99-3-10.43-5.66-16.12-8.08,10.59,0,15.09-5.87,18.74-12.42,2.33-4.18,4.32-8.65,7.33-12.04,2.94-3.32,6.87-5.61,13.05-5.61-4.82,6.15-4.11,15.57-1.06,24.94,1.05,3.22,2.37,6.44,3.85,9.51,5.68,11.85,13.56,21.62,16.28,21.62,3.47.2,21.52-37.04,5.3-56.07,24.34,0,15.15,30.08,39.13,30.08Z"/><path class="cls-1" d="M588.2,579.08h-33.02c1.27-7.2-7.12-16.13-18.4-24.24-5.38,9.25-2.51,22.26,2.05,24.24l-33.35-.05c9.02-3.47,18.37-16.75,28.29-26.29-9.13-6.19-19.66-11.75-28.4-15.47,23.98,0,16.72-30.08,39.13-30.08-4.96,12.87.11,22.87,8.33,31.76,7.55-6.29,19.34-13.76,5.37-31.76,24.33,0,8.72,29.89,32.69,29.89-17.18,6.43-27,.88-35.35,4.66,12.77,12.58,30.63,23.24,32.66,37.34Z"/><path class="cls-1" d="M700.5,538.28c-20.95,8.92-38.33,21.01-43.68,41.72h-.03s0,.02,0,.02c-8.87,28.71-35.79,31.66-58.92,22.78,5.56-4.05,6.57-21.6,3.37-27.33,44.24,40.93,44.81,13.26,44.53,4.55-.38-11.94-26.95-32.81-47.9-41.73,23.98,0,16.72-30.08,39.13-30.08-12.85,16.41,13.59,56.07,19.06,56.07,3.47.21,21.52-37.03,5.31-56.07,24.33,0,15.15,30.08,39.13,30.08Z"/><path class="cls-1" d="M705.59,576.2c29.16-20.5,23.09-46.18,39.76-61.04-30.51,0-36.14,31.31-36.14,31.31h0c.35-13.85,6.92-25.81,3.13-35.46h60.6s-.76,0-.76,0c-21.52,11-17.06,50.67-38.61,60.91,30.28,0,39.26-31.57,39.26-31.57h0c1.24,14.01-7.86,28.83-3.13,35.85h-63.36s-.76,0-.76,0Z"/><path class="cls-1" d="M485.67,738.86c11.73-21.49-23.74-8.21-16.93,8.82-8.69.53-20.12-.26-26.42,8.25,6.04.23,16.21-3.69,23.82-2.12-9.16,4.33-15.14,16.88-5.19,23.44,2.58,1.68,3.61-2.84,3.73-3.65,6.83-4.93,5.05-13.36,2.64-19.74,29.75,5.3-14.95,13.24,10.4,34.87,12.95-23.07-3.08-34.51,13.61-24.87-.84,6.43-11.1,11.94-5.03,20.03,11.71,18.95,16.52-8.95,5.98-16.52,5.27-3.04,11.89,8.72,11.21,14.2,13.87,48.73,29.12,9.67-3.93-15.16,35.1,25.65,22.04-18.83-4.92-4.7-11.65-9.34,16.22.15,21.25-8.27,13.11-4.27-10.41-12.14-15.93-7.86,2.27-2.45,4.57-4.88,6.78-7.37,5.99-9.17-17.77-4.05-21.08.63ZM464.45,773.47s-.01.07-.05.04c.02-.02.03-.02.05-.04ZM483.93,742.18c-1.66,2.1-2.6,4.61-3.24,7.25-1.84,2.77-12.79-.67-5.91-2.19,3.15-1.6,6.9-2.56,9.15-5.06ZM497.09,748.07c-3.46,2.58-4.63,11.1-8.41,8.31-13.92-7.07-1.47-6.2,6.69-7.56.59-.23,1.17-.47,1.72-.74Z"/><path class="cls-1" d="M274.17,752.81c-19.28,15.09,18.55,16.94,19.04-1.4,8.19,2.95,18.37,8.2,27.53,2.88-5.46-2.6-16.34-3.03-22.71-7.48,10.12-.35,20.58-9.51,14.04-19.47-1.7-2.57-4.44,1.18-4.87,1.88-8.23,1.82-9.92,10.27-10.24,17.08-25.23-16.64,18.97-6.24,4.25-36.14-21.02,16.06-10.83,32.91-22.34,17.45,3.32-5.57,14.92-6.58,12.54-16.41-3.25-22.04-18.71,1.68-12.03,12.81-6.04.7-7.47-12.71-4.67-17.48,6.55-50.24-22.92-20.41-2.39,15.47-22.09-37.44-27.69,8.57,2.66,6.27,7,13.19-14.84-6.56-22.79-.82-13.73-1.26,4.75,15.27,11.52,13.52-3.05,1.35-6.13,2.67-9.15,4.09-9.13,6.05,14.71,10.76,19.61,7.76ZM307.37,729.42s.04-.06.06-.01c-.02.01-.04,0-.06.01ZM277.08,750.45c2.35-1.27,4.21-3.21,5.85-5.38,2.78-1.82,11.48,5.68,4.56,4.35-3.52.22-7.35-.38-10.41,1.03ZM267.34,739.83c4.2-1,8.65-8.36,11.01-4.3,9.99,12-1.11,6.27-9.14,4.3-.63-.02-1.26-.03-1.87,0Z"/><circle class="cls-3" cx="384.58" cy="751.95" r="68.64"/><circle class="cls-2" cx="384.58" cy="751.95" r="68.64"/><circle class="cls-1" cx="384.58" cy="751.95" r="58.32"/><path class="cls-3" d="M382.19,716.6c-2.5,0-5.1-.25-7.8-.25h-17.42c15.47,35.15,9.04,56.88-1.19,68.78l18.62-.09c2.7,0,5.3-.24,7.8-.24,23.83,0,38.46-8.48,38.46-34.05,0-22.79-12.81-34.14-38.46-34.14ZM398.24,780.04c-3.75,1.43-8.71,1.41-12-2.66-3.58-4.41-4.01-23.99-4.05-31.17,0-1.71-.06-3.41-.15-5.11-2.28-41.15,15.68-11.7,20.18,2.88,5.26,17.04,4.57,32.81-3.98,36.06Z"/><path class="cls-1" d="M258.74,59.84c2.27,2.56,4.63,5.05,6.96,7.56-5.66-4.39-29.78,3.68-16.34,8.06,5.16,8.64,33.74-1.1,21.79,8.48-27.65-14.48-41.05,31.13-5.04,4.82-33.9,25.46-18.25,65.52-4.03,15.54-.7-5.62,6.09-17.68,11.49-14.56-10.81,7.77-5.88,36.38,6.13,16.94,6.23-8.29-4.29-13.95-5.16-20.54,17.12-9.89.68,1.84,13.96,25.51,26-22.19-19.85-30.33,10.67-35.77-2.47,6.55-4.3,15.19,2.71,20.25.12.82,1.18,5.47,3.82,3.74,10.21-6.73,4.07-19.6-5.32-24.04,7.81-1.61,18.24,2.4,24.43,2.17-6.46-8.73-18.18-7.92-27.09-8.46,6.99-17.47-29.39-31.09-17.36-9.05-3.4-4.81-27.76-10.06-21.62-.65ZM302.18,96.03s-.04,0-.05-.04c.02.02.03.02.05.04ZM291.53,69.09c7.06,1.56-4.17,5.09-6.06,2.25-.66-2.71-1.63-5.28-3.33-7.44,2.31,2.56,6.16,3.56,9.38,5.19ZM270.42,70.71c8.37,1.4,21.14.51,6.87,7.76-3.87,2.86-5.08-5.87-8.63-8.52.56.28,1.16.53,1.76.76Z"/><path class="cls-1" d="M517.38,66.84c-3.1-1.45-6.25-2.81-9.38-4.19,6.94,1.79,25.9-15.16,11.81-13.86-8.15-5.89-30.55,14.36-23.37.84,31.12,2.36,25.38-44.83,2.72-6.43,21.05-36.8-9.17-67.39-2.45-15.87,2.87,4.89,1.4,18.64-4.79,17.92,6.86-11.41-9-35.73-12.33-13.13-2.43,10.08,9.47,11.11,12.87,16.83-11.81,15.86-1.35-1.43-22.91-17.9-15.1,30.67,30.23,20,4.36,37.07-.32-6.99-2.06-15.65-10.5-17.52-.44-.71-3.24-4.56-4.99-1.92-6.71,10.22,4.02,19.62,14.4,19.97-6.53,4.57-17.7,5.01-23.29,7.68,9.39,5.46,19.83.07,28.23-2.95.5,18.81,39.29,16.92,19.52,1.44,5.02,3.07,29.48-1.75,20.11-7.96ZM463.17,50.8s.04-.01.06.02c-.02-.01-.04,0-.06-.02ZM483.61,71.32c-7.09,1.36,1.82-6.32,4.67-4.46,1.68,2.22,3.58,4.21,6,5.51-3.13-1.44-7.06-.83-10.67-1.05ZM502.36,61.48c-8.24,2.03-19.62,7.9-9.37-4.41,2.43-4.16,6.99,3.38,11.3,4.41-.63-.04-1.28-.03-1.92,0Z"/><path class="cls-3" d="M454.43,73.92c0,38.88-31.52,70.4-70.4,70.4-38.88,0-70.4-31.52-70.4-70.4,0-38.88,31.52-70.4,70.4-70.4,38.88,0,70.4,31.52,70.4,70.4Z"/><path class="cls-2" d="M454.43,73.92c0,38.88-31.52,70.4-70.4,70.4-38.88,0-70.4-31.52-70.4-70.4,0-38.88,31.52-70.4,70.4-70.4,38.88,0,70.4,31.52,70.4,70.4Z"/><path class="cls-1" d="M443.85,73.92c0,33.03-26.78,59.81-59.81,59.81-33.03,0-59.81-26.78-59.81-59.81,0-33.03,26.78-59.81,59.81-59.81,33.03,0,59.81,26.78,59.81,59.81Z"/><path class="cls-3" d="M415.98,96.81c-7.56,5.74-17.88,8.84-28.07,8.84-19.78,0-33.88-15.13-33.88-34.91s14.1-35.81,33.87-35.81c7.31,0,14.11,2.19,19.77,5.95-2.03,3.15-3.31,7.83-3.31,13.05,0,2.16.22,4.22.62,6.11.08.37.16.74.26,1.1-.19-.42-.39-.82-.58-1.23-7.09-14.37-20.47-22.96-27.76-20.23-7.99,2.99-9.34,19.13-3.02,36.04,6.33,16.91,17.94,28.2,25.93,25.21v-11.65c0-14.46-12.77-12.53-12.77-20.41,2.07,3.05,6.05,5.97,11.07,7.77,3.26,1.17,6.48,1.7,9.31,1.64,2.6-.05,4.88-.61,6.53-1.61-.62,2.29-.97,4.86-.97,7.59,0,4.95,1.16,9.42,3,12.55Z"/></g></svg>