<?xml version="1.0" encoding="UTF-8"?><svg id="Layer_2" xmlns="http://www.w3.org/2000/svg" xmlns:xlink="http://www.w3.org/1999/xlink" viewBox="0 0 546 284.26"><defs><style>.cls-1{fill:url(#linear-gradient-15);}.cls-2{fill:url(#linear-gradient-13);}.cls-3{fill:url(#linear-gradient-28);}.cls-4{fill:url(#linear-gradient-42);}.cls-5{fill:url(#linear-gradient-2);}.cls-6{fill:#0f422e;}.cls-7{fill:url(#linear-gradient-43);}.cls-8{fill:url(#linear-gradient-25);}.cls-9{fill:url(#linear-gradient-10);}.cls-10{fill:url(#linear-gradient-12);}.cls-11{fill:url(#linear-gradient-40);}.cls-12{fill:url(#linear-gradient-27);}.cls-13{fill:#1d1d1b;}.cls-14{opacity:.6;}.cls-14,.cls-15,.cls-16{fill:#fff7e4;}.cls-17{fill:#543823;}.cls-18{fill:url(#linear-gradient-37);}.cls-19{fill:url(#linear-gradient-39);}.cls-20{fill:url(#linear-gradient-26);}.cls-21{fill:#b87d4a;}.cls-22{fill:#187665;}.cls-23,.cls-24{fill:none;}.cls-25{fill:url(#linear-gradient-4);}.cls-26{fill:#aad3a4;}.cls-27{fill:url(#linear-gradient-35);}.cls-28{fill:url(#linear-gradient-30);}.cls-29{fill:url(#radial-gradient);}.cls-30{fill:url(#linear-gradient-44);}.cls-31{fill:url(#linear-gradient-3);}.cls-32{fill:url(#linear-gradient-34);}.cls-33{fill:url(#linear-gradient-5);}.cls-34{fill:url(#linear-gradient-38);}.cls-35{fill:url(#linear-gradient-22);}.cls-36{fill:url(#linear-gradient-24);}.cls-37{fill:#004a50;}.cls-38{fill:#166e3d;}.cls-39{fill:#5ab67b;}.cls-40{fill:url(#linear-gradient-33);}.cls-41{fill:url(#linear-gradient-8);}.cls-42{fill:url(#radial-gradient-2);}.cls-43{fill:url(#linear-gradient-14);}.cls-44{fill:url(#linear-gradient-29);}.cls-45{fill:#08302a;}.cls-46{fill:url(#linear-gradient-20);}.cls-47{fill:#b89765;}.cls-48{fill:url(#linear-gradient-17);}.cls-49{fill:url(#linear-gradient-7);}.cls-50{fill:url(#linear-gradient-9);}.cls-51{fill:url(#linear-gradient-11);}.cls-52{fill:#0b463f;}.cls-53{fill:url(#linear-gradient-19);}.cls-54{fill:url(#linear-gradient-6);}.cls-55{fill:url(#linear-gradient-36);}.cls-56{fill:url(#linear-gradient-21);}.cls-16{opacity:.25;}.cls-57{fill:#131d13;}.cls-58{fill:url(#linear-gradient-32);}.cls-59{fill:url(#linear-gradient-41);}.cls-60{fill:url(#linear-gradient-16);}.cls-61{fill:url(#linear-gradient);}.cls-62{fill:url(#linear-gradient-23);}.cls-63{fill:url(#linear-gradient-31);}.cls-64{clip-path:url(#clippath);}.cls-24{stroke:#1d1d1b;stroke-miterlimit:10;}.cls-65{fill:url(#linear-gradient-18);}</style><radialGradient id="radial-gradient" cx="273" cy="142.13" fx="273" fy="142.13" r="407.95" gradientUnits="userSpaceOnUse"><stop offset="0" stop-color="#fff7e4"/><stop offset=".36" stop-color="#fdf5e2"/><stop offset=".48" stop-color="#f7efdb"/><stop offset=".58" stop-color="#ece4cf"/><stop offset=".65" stop-color="#ddd5bf"/></radialGradient><radialGradient id="radial-gradient-2" cx="273" cy="137.14" fx="273" fy="137.14" r="123.62" gradientUnits="userSpaceOnUse"><stop offset="0" stop-color="#fff7e4"/><stop offset=".19" stop-color="#cec7b8" stop-opacity=".77"/><stop offset=".49" stop-color="#87827a" stop-opacity=".45"/><stop offset=".73" stop-color="#54504c" stop-opacity=".21"/><stop offset=".91" stop-color="#343030" stop-opacity=".06"/><stop offset="1" stop-color="#282526" stop-opacity="0"/></radialGradient><linearGradient id="linear-gradient" x1="325.54" y1="80.27" x2="266.38" y2="80.5" gradientUnits="userSpaceOnUse"><stop offset="0" stop-color="#dce1f3"/><stop offset=".07" stop-color="#e3e5ef"/><stop offset=".25" stop-color="#f0edea"/><stop offset=".48" stop-color="#f7f1e7"/><stop offset=".98" stop-color="#faf3e7"/></linearGradient><linearGradient id="linear-gradient-2" x1="310.9" y1="68.58" x2="337.87" y2="23.62" gradientUnits="userSpaceOnUse"><stop offset=".02" stop-color="#4c4d42"/><stop offset=".11" stop-color="#656559"/><stop offset=".4" stop-color="#b0ac9d"/><stop offset=".61" stop-color="#dfd8c8"/><stop offset=".72" stop-color="#f2ead9"/></linearGradient><linearGradient id="linear-gradient-3" x1="314.18" y1="53.31" x2="279.69" y2="43.22" gradientUnits="userSpaceOnUse"><stop offset=".38" stop-color="#0b463f"/><stop offset=".42" stop-color="#20554d"/><stop offset=".59" stop-color="#6e8e82"/><stop offset=".73" stop-color="#acbbac"/><stop offset=".85" stop-color="#d9dbca"/><stop offset=".95" stop-color="#f4efdd"/><stop offset="1" stop-color="#fff7e4"/></linearGradient><linearGradient id="linear-gradient-4" x1="251.44" y1="44.39" x2="196.9" y2="121.45" gradientUnits="userSpaceOnUse"><stop offset=".14" stop-color="#fff7e4"/><stop offset=".84" stop-color="#ddd5bf"/></linearGradient><linearGradient id="linear-gradient-5" x1="182.09" y1="136.8" x2="254.5" y2="113.09" gradientUnits="userSpaceOnUse"><stop offset=".07" stop-color="#b89765"/><stop offset=".21" stop-color="#ba9a69"/><stop offset=".35" stop-color="#c1a375"/><stop offset=".5" stop-color="#ccb38a"/><stop offset=".64" stop-color="#dcc8a7"/><stop offset=".79" stop-color="#f1e4cb"/><stop offset=".87" stop-color="#fff7e4"/></linearGradient><linearGradient id="linear-gradient-6" x1="5499.15" y1="9064.63" x2="5512.96" y2="9058.54" gradientTransform="translate(4243.24 9930.52) rotate(-53.73) scale(1 -1)" gradientUnits="userSpaceOnUse"><stop offset=".02" stop-color="#166e3d"/><stop offset=".45" stop-color="#19834a"/><stop offset=".97" stop-color="#5ab67b"/></linearGradient><linearGradient id="linear-gradient-7" x1="2344.46" y1="-347.72" x2="2354.71" y2="-352.24" gradientTransform="translate(-1841.02 1388.5) rotate(-23.06)" xlink:href="#linear-gradient-6"/><linearGradient id="linear-gradient-8" x1="308.01" y1="146.8" x2="328.79" y2="169.23" gradientUnits="userSpaceOnUse"><stop offset=".08" stop-color="#fff7e4"/><stop offset=".11" stop-color="#e2e2d0"/><stop offset=".19" stop-color="#a9b9aa"/><stop offset=".26" stop-color="#799589"/><stop offset=".34" stop-color="#51796e"/><stop offset=".41" stop-color="#326259"/><stop offset=".48" stop-color="#1c524a"/><stop offset=".55" stop-color="#0f4942"/><stop offset=".61" stop-color="#0b463f"/></linearGradient><linearGradient id="linear-gradient-9" x1="283.92" y1="141.1" x2="288.7" y2="152.87" gradientUnits="userSpaceOnUse"><stop offset="0" stop-color="#fff7e4"/><stop offset=".12" stop-color="#ccd2c2"/><stop offset=".33" stop-color="#7a978a"/><stop offset=".51" stop-color="#3e6b61"/><stop offset=".64" stop-color="#195048"/><stop offset=".71" stop-color="#0b463f"/></linearGradient><linearGradient id="linear-gradient-10" x1="221.88" y1="154.35" x2="230" y2="154.35" gradientTransform="matrix(1,0,0,1,0,0)" xlink:href="#linear-gradient-6"/><linearGradient id="linear-gradient-11" x1="205.16" y1="216.17" x2="269.24" y2="140.65" gradientUnits="userSpaceOnUse"><stop offset=".3" stop-color="#0f422e"/><stop offset=".35" stop-color="#134531"/><stop offset=".41" stop-color="#21503c"/><stop offset=".47" stop-color="#38614d"/><stop offset=".53" stop-color="#587965"/><stop offset=".59" stop-color="#829885"/><stop offset=".66" stop-color="#b4beab"/><stop offset=".72" stop-color="#efebd8"/><stop offset=".74" stop-color="#fff7e4"/></linearGradient><linearGradient id="linear-gradient-12" x1="240.92" y1="191.47" x2="241.04" y2="191.42" gradientUnits="userSpaceOnUse"><stop offset="0" stop-color="#166e3d"/><stop offset=".51" stop-color="#19834a"/><stop offset="1" stop-color="#5ab67b"/></linearGradient><linearGradient id="linear-gradient-13" x1="240.82" y1="191.11" x2="241.54" y2="190.69" gradientTransform="matrix(1,0,0,1,0,0)" xlink:href="#linear-gradient-6"/><linearGradient id="linear-gradient-14" x1="240.9" y1="191.91" x2="241.17" y2="191.74" gradientTransform="matrix(1,0,0,1,0,0)" xlink:href="#linear-gradient-6"/><linearGradient id="linear-gradient-15" x1="230.29" y1="192.09" x2="240.49" y2="175.14" gradientTransform="matrix(1,0,0,1,0,0)" xlink:href="#linear-gradient-6"/><linearGradient id="linear-gradient-16" x1="10664.23" y1="11681.67" x2="10676.59" y2="11676.22" gradientTransform="translate(11575.52 11214.17) rotate(-88.27) scale(1 -1)" xlink:href="#linear-gradient-6"/><linearGradient id="linear-gradient-17" x1="1075.71" y1="204.5" x2="1080.16" y2="201.91" gradientTransform="translate(-848.5)" xlink:href="#linear-gradient-6"/><linearGradient id="linear-gradient-18" x1="3867.43" y1="-422.43" x2="3877.68" y2="-426.95" gradientTransform="translate(-2388.12 3102.36) rotate(-41.55)" xlink:href="#linear-gradient-6"/><linearGradient id="linear-gradient-19" x1="4282.02" y1="-595.42" x2="4293.77" y2="-602.26" gradientTransform="translate(-2121.28 3819.55) rotate(-48.22)" xlink:href="#linear-gradient-6"/><linearGradient id="linear-gradient-20" x1="266.49" y1="222.87" x2="271.94" y2="215.69" gradientUnits="userSpaceOnUse"><stop offset=".18" stop-color="#166e3d"/><stop offset=".54" stop-color="#19834a"/><stop offset=".97" stop-color="#5ab67b"/></linearGradient><linearGradient id="linear-gradient-21" x1="278.48" y1="154.76" x2="283" y2="155.96" gradientUnits="userSpaceOnUse"><stop offset=".08" stop-color="#fff7e4"/><stop offset=".12" stop-color="#e2e2d0"/><stop offset=".22" stop-color="#a9b9aa"/><stop offset=".32" stop-color="#799589"/><stop offset=".42" stop-color="#51796e"/><stop offset=".52" stop-color="#326259"/><stop offset=".61" stop-color="#1c524a"/><stop offset=".7" stop-color="#0f4942"/><stop offset=".78" stop-color="#0b463f"/></linearGradient><linearGradient id="linear-gradient-22" x1="272.98" y1="152.28" x2="279.87" y2="155.78" gradientUnits="userSpaceOnUse"><stop offset=".08" stop-color="#fff7e4"/><stop offset=".11" stop-color="#e2e2d0"/><stop offset=".17" stop-color="#a9b9aa"/><stop offset=".24" stop-color="#799589"/><stop offset=".3" stop-color="#51796e"/><stop offset=".37" stop-color="#326259"/><stop offset=".43" stop-color="#1c524a"/><stop offset=".49" stop-color="#0f4942"/><stop offset=".54" stop-color="#0b463f"/></linearGradient><linearGradient id="linear-gradient-23" x1="281.15" y1="165" x2="297.62" y2="167.3" gradientUnits="userSpaceOnUse"><stop offset="0" stop-color="#fff7e4"/><stop offset=".08" stop-color="#ccd2c2"/><stop offset=".21" stop-color="#7a978a"/><stop offset=".32" stop-color="#3e6b61"/><stop offset=".4" stop-color="#195048"/><stop offset=".44" stop-color="#0b463f"/></linearGradient><linearGradient id="linear-gradient-24" x1="10900.38" y1="5631.06" x2="10912.74" y2="5625.61" gradientTransform="translate(-4957.26 11214.17) rotate(-91.73)" xlink:href="#linear-gradient-6"/><linearGradient id="linear-gradient-25" x1="7130.69" y1="151.37" x2="7135.14" y2="148.78" gradientTransform="translate(7466.76) rotate(-180) scale(1 -1)" xlink:href="#linear-gradient-6"/><linearGradient id="linear-gradient-26" x1="306.85" y1="169.87" x2="278.46" y2="179.94" gradientUnits="userSpaceOnUse"><stop offset=".14" stop-color="#4c4d42"/><stop offset=".18" stop-color="#5f5f53"/><stop offset=".28" stop-color="#8f8d7f"/><stop offset=".37" stop-color="#b7b3a3"/><stop offset=".47" stop-color="#d6d0bf"/><stop offset=".56" stop-color="#ede5d3"/><stop offset=".65" stop-color="#faf2df"/><stop offset=".72" stop-color="#fff7e4"/></linearGradient><linearGradient id="linear-gradient-27" x1="257.99" y1="116.11" x2="369.09" y2="200.01" xlink:href="#linear-gradient-8"/><linearGradient id="linear-gradient-28" x1="8499.35" y1="4176.7" x2="8509.61" y2="4172.18" gradientTransform="translate(1296.12 9593.75) rotate(-122.01)" xlink:href="#linear-gradient-6"/><linearGradient id="linear-gradient-29" x1="8046.47" y1="1883.86" x2="8053.18" y2="1879.96" gradientTransform="translate(8538.84 987.92) rotate(-161.16) scale(1 -1)" xlink:href="#linear-gradient-6"/><linearGradient id="linear-gradient-30" x1="7989.05" y1="1729.27" x2="8001.17" y2="1723.92" gradientTransform="translate(8459.03 893.25) rotate(-162.77) scale(1 -1)" xlink:href="#linear-gradient-6"/><linearGradient id="linear-gradient-31" x1="341.99" y1="190.29" x2="312.57" y2="155.78" gradientUnits="userSpaceOnUse"><stop offset="0" stop-color="#b87d4a"/><stop offset=".15" stop-color="#b9804e"/><stop offset=".32" stop-color="#bf8a5a"/><stop offset=".48" stop-color="#c99b6f"/><stop offset=".65" stop-color="#d7b28d"/><stop offset=".82" stop-color="#e8d0b3"/><stop offset=".99" stop-color="#fdf4e1"/><stop offset="1" stop-color="#fff7e4"/></linearGradient><linearGradient id="linear-gradient-32" x1="8075.37" y1="1761.15" x2="8089.18" y2="1755.06" gradientTransform="translate(8574.26 893.25) rotate(-162.77) scale(1 -1)" xlink:href="#linear-gradient-6"/><linearGradient id="linear-gradient-33" x1="4332.57" y1="-590.48" x2="4344.32" y2="-597.32" gradientTransform="translate(-2121.28 3819.55) rotate(-48.22)" xlink:href="#linear-gradient-6"/><linearGradient id="linear-gradient-34" x1="323.42" y1="214.2" x2="272.73" y2="185.89" gradientUnits="userSpaceOnUse"><stop offset=".07" stop-color="#0f422e"/><stop offset=".14" stop-color="#174834"/><stop offset=".24" stop-color="#2d5945"/><stop offset=".37" stop-color="#527561"/><stop offset=".53" stop-color="#869b88"/><stop offset=".69" stop-color="#c6ccb9"/><stop offset=".82" stop-color="#fff7e4"/></linearGradient><linearGradient id="linear-gradient-35" x1="1647.06" y1="-265.54" x2="1655.88" y2="-270.67" gradientTransform="translate(-1224.42 987.92) rotate(-18.84)" xlink:href="#linear-gradient-6"/><linearGradient id="linear-gradient-36" x1="1531.05" y1="-238.49" x2="1546.99" y2="-245.51" gradientTransform="translate(-1144.6 893.25) rotate(-17.23)" xlink:href="#linear-gradient-6"/><linearGradient id="linear-gradient-37" x1="207.41" y1="177.07" x2="224.76" y2="166.98" gradientTransform="matrix(1,0,0,1,0,0)" xlink:href="#linear-gradient-6"/><linearGradient id="linear-gradient-38" x1="207.44" y1="177.02" x2="223.79" y2="167.51" gradientTransform="matrix(1,0,0,1,0,0)" xlink:href="#linear-gradient-6"/><linearGradient id="linear-gradient-39" x1="5444.04" y1="217.51" x2="5428.27" y2="203.84" gradientTransform="translate(-5124.67)" gradientUnits="userSpaceOnUse"><stop offset=".1" stop-color="#166e3d"/><stop offset=".49" stop-color="#328c57"/><stop offset=".97" stop-color="#5ab67b"/></linearGradient><linearGradient id="linear-gradient-40" x1="257" y1="245.01" x2="272.08" y2="137.53" gradientUnits="userSpaceOnUse"><stop offset=".12" stop-color="#131d13"/><stop offset=".28" stop-color="#383f34"/><stop offset=".64" stop-color="#989889"/><stop offset="1" stop-color="#fff7e4"/></linearGradient><linearGradient id="linear-gradient-41" x1="6575.26" y1="8139.35" x2="6579.71" y2="8136.75" gradientTransform="translate(5110.47 9376.83) rotate(-66.98) scale(1 -1)" xlink:href="#linear-gradient-6"/><linearGradient id="linear-gradient-42" x1="325.54" y1="80.27" x2="266.38" y2="80.5" gradientUnits="userSpaceOnUse"><stop offset="0" stop-color="#dce1f3"/><stop offset=".22" stop-color="#e4e6ef"/><stop offset=".84" stop-color="#faf3e7"/></linearGradient><clipPath id="clippath"><path class="cls-4" d="M320.91,68.95c-2.05,6.81-3.22,14.62-3.22,22.93,0,6.01.6,11.75,1.72,17.04.22,1.04.45,2.06.72,3.07-.53-1.16-1.08-2.3-1.63-3.42-2.11-4.28-4.42-8.37-6.9-12.27v-29.88c0-4.62-3.74-8.36-8.36-8.36h-30.24c-1.07-.6-2.14-1.17-3.2-1.7l7.61-7.61h35.14c4.62,0,8.36,3.74,8.36,8.36v11.83Z"/></clipPath><linearGradient id="linear-gradient-43" x1="317.95" y1="68.35" x2="296.68" y2="89.84" gradientUnits="userSpaceOnUse"><stop offset=".02" stop-color="#4c4d42"/><stop offset=".28" stop-color="#8f8c7f"/><stop offset=".5" stop-color="#c4bfaf"/><stop offset=".68" stop-color="#e5decd"/><stop offset=".77" stop-color="#f2ead9"/></linearGradient><linearGradient id="linear-gradient-44" x1="306.37" y1="55.31" x2="275.24" y2="88.74" gradientUnits="userSpaceOnUse"><stop offset=".08" stop-color="#0b463f"/><stop offset=".13" stop-color="#23574f"/><stop offset=".26" stop-color="#628479"/><stop offset=".44" stop-color="#c5cbbc"/><stop offset=".52" stop-color="#f4ecdb"/></linearGradient></defs><g id="Layer_2-2"><rect class="cls-29" width="546" height="284.26"/><circle class="cls-42" cx="273" cy="137.14" r="123.62"/><path class="cls-61" d="M320.91,68.95c-2.05,6.81-3.22,14.62-3.22,22.93,0,6.01.6,11.75,1.72,17.04.22,1.04.45,2.06.72,3.07-.53-1.16-1.08-2.3-1.63-3.42-2.11-4.28-4.42-8.37-6.9-12.27v-29.88c0-4.62-3.74-8.36-8.36-8.36h-30.24c-1.07-.6-2.14-1.17-3.2-1.7l7.61-7.61h35.14c4.62,0,8.36,3.74,8.36,8.36v11.83Z"/><path class="cls-5" d="M320.91,68.96v-11.83c0-4.62-3.74-8.36-8.36-8.36l.8-.8c4.74,2.17,9.27,4.7,13.58,7.55-2.43,3.77-4.47,8.32-6.01,13.44Z"/><path class="cls-31" d="M313.35,47.96l-.8.8h-35.14l8.8-8.8c9.55,1.38,18.67,4.11,27.14,8Z"/><path class="cls-25" d="M286.2,39.96l-8.8,8.8-7.61,7.61c-10.74-5.39-20.93-7.06-28.66-4.17-13.75,5.14-20.44,24.25-19.41,49.2-5.08-7.81-10.02-16.73-12.94-29.71-5.62,2.24-11.57,7.22-17,12.86,16.19-27.45,44.88-45.62,80.03-45.62,4.88,0,9.68.35,14.38,1.03Z"/><polygon class="cls-57" points="216.1 79.71 217.89 89.32 219.67 98.92 216.1 98.92 212.52 98.92 214.31 89.32 216.1 79.71"/><circle class="cls-15" cx="275.71" cy="137.94" r="30.7"/><polygon class="cls-52" points="212.79 73.74 214.58 83.34 216.37 92.95 212.79 92.95 209.22 92.95 211.01 83.34 212.79 73.74"/><polygon class="cls-52" points="205.32 67.45 207.1 77.06 208.89 86.66 205.32 86.66 201.74 86.66 203.53 77.06 205.32 67.45"/><polygon class="cls-57" points="203.04 70.29 204.82 79.89 206.61 89.49 203.04 89.49 199.46 89.49 201.25 79.89 203.04 70.29"/><path class="cls-33" d="M242.04,173.56c-9.84-14.8-59.48-13.25-64.6-34.85,0-19.97,5.16-38.56,14.35-54.16h0c5.43-5.65,11.38-10.64,17.01-12.88,2.91,12.97,7.85,21.9,12.94,29.71h0c.64,15.47,4.26,33.19,11,51.23,2.77,7.4,5.9,14.41,9.29,20.94Z"/><polygon class="cls-17" points="193.54 133.89 186.24 134.07 185.77 133.11 193.51 132.87 193.54 133.89"/><polygon class="cls-17" points="191.75 141.24 186.14 141.37 185.77 140.4 191.72 140.22 191.75 141.24"/><polygon class="cls-21" points="185.76 133.11 185.64 147.82 186.67 147.83 186.77 134.06 185.76 133.11"/><path class="cls-39" d="M189.57,130.29c1.82.78,3.95-.02,4.78-1.84.48-1.05.43-2.2-.04-3.16-.2.15-.34.25-.34.25-1.69.11-3.26,1.15-3.97,2.81-.24.55-.36,1.12-.37,1.69h0c0,.08-.02.16-.05.25Z"/><path class="cls-38" d="M190.22,134.84c.39-.52.91-.9,1.51-.76.22.14.46.27.71.38,1.75.75,3.71.34,5.01-.88-.17-1.19-.92-2.27-2.1-2.82-1.84-.85-4.02-.05-4.87,1.8-.34.75-.42,1.55-.26,2.29Z"/><circle class="cls-54" cx="194.15" cy="130.92" r="6.22"/><path class="cls-38" d="M192.92,133.22c.72-1.26-.34-2.43-.65-2.23-.46.67,0,1.99.65,2.23Z"/><circle class="cls-38" cx="192.56" cy="127.76" r=".43"/><circle class="cls-39" cx="195.79" cy="131.37" r=".43"/><path class="cls-39" d="M196.52,125.16c-.66-.28-1.36-.43-2.06-.46-.21.81.24,1.37.65,1.62.08.05.15.08.22.1h0c.55.15,1.08.39,1.56.75,1.46,1.07,2.11,2.83,1.84,4.51,0,0,.06.17.17.39.27.6.81,1.61,1.11.94.19-.53.31-1.09.34-1.64.22-.18.43-.38.61-.62,1.24-1.6.96-3.91-.64-5.15-1.12-.88-2.6-.99-3.81-.43Z"/><path class="cls-38" d="M190.44,125.92c-1.09,0-2.17.49-2.9,1.42-1.22,1.57-.97,3.83.56,5.09.34,1.36,1.14,2.62,2.36,3.51,2.06,1.51,4.73,1.57,6.8.37-.01-.44-.17-.85-.99-1.25-1.52.78-3.41.69-4.88-.39-.54-.39-.96-.88-1.27-1.42-.9-1.55-.85-3.54.28-5.08.16-.22.34-.42.53-.6.27-.55-.46-1.65-.48-1.65Z"/><path class="cls-57" d="M211.04,160.2c.47.25.85-.16,1.17-.83s.79-1.38.92-1.57c.17-.26.35-.38.23.13-.1.44-.46,1.48-.59,1.64s-.46.46-.46.46c-.13.13.36.46.47.18.13-.34.36-.22.36-.22,0,0,.88-2.56.95-2.66s.05-.32-.03-.41-.29-.5-.38-.64-.04-.56.24-.8.33-.35.35-.35.07-.02.07.17.1.41.15.42-.09-.19,0-.34.77-1.22.8-1.95c.02-.48-1.27-1.32-1.79-1.42-.67-.12-1.92,0-2.16-.05s-1.21-.2-1.31-.24c-.45-.17-.88-.18-1.06-.14s-.05-.26-.03-.31.19-.56.17-.61l.24.04s.86-.45.91-.51-.4-.11-.55-.13-.51.11-.56.11c-.13.01-.15-.38-.02-.39s1.05-.15,1.18-.67c.03-.13.67-.4.81-.89.07-.25.16-.84.16-.88s-.07-.2-.07-.22-.21,1.05-.21,1.05c-.02.17-.53.68-.57.69-.05,0-.09-.11-.1-.16s-.04.22-.07.27c-.29.4-.59.5-.68.52s.08-.2.08-.2l-.41.27c-.22.23-1.17.52-1.28.05-.02-.1.29-.61.29-.61l-.38.4c-.21,0-1.35-.75-1.33-.84.01-.07,0-.3.06-.36s.24-.24.28-.27c.07-.04-.38.15-.4.25s-.08.28-.08.28c0,.09-.43-.3-.41-.5,0-.12-.08-1.14-.07-1.19.08-.35.5-1.2.59-1.31s-.65.59-.66.86c0,.1-.17.12-.25-.04s.02.18.08.32.17.91.14,1.12-.16.17-.21-.03-.03-.56,0-.65-.14.04-.13.3.11.56.1.62c-.02.16.05.22.22.17,0,.11.39.49.61.57.11.04,1.2.83,1.22.88s-.04.24-.04.24c-.09.02-.44-.25-.44-.34,0-.1-.51-.13-.51-.13,0,0-.08.12.07.33.09.12.27.51.34.53s.4.23.32.33c-.13.18-.22.77-.26,1.08s-.25,1.15-.12,1.62c.06.21,0,.22,0,.22,0,0-.15.26-.04.46.08.15.6,1.14.54,1.46s-.24,1.12-.32,1.25c-.12.19-.12.55-.21.78-.68,1.62-1.25,1.84-1.4,1.9s-.19.16.3.24c.21.04.65-.45.81-.67s.64-1.53,1.04-2.03.76-1.18.82-1.44l.72.13s.18.66.15.87-.19.81.03,1.4l-.21,1.68s-.08.35-.28.42c-.12.04-.2.28.06.23s.48-.1.51-.29.06-.32.18-.3,0-.78-.03-.91c-.05-.26.24-1.63.32-1.77s.36-.86.38-1.21l.74.09s.58.02.73-.05.63.09.78,1.04c.07.43-.03,1.15-.07,1.21s-.66,1.26-.8,1.41-.74.75-.74.75Z"/><polygon class="cls-21" points="178.67 135.22 178.67 143 177.44 139.11 177.44 137.67 178.67 135.22"/><circle class="cls-49" cx="183.34" cy="146.35" r="4.62"/><path class="cls-39" d="M187.59,144.54c.37.87.45,1.78.29,2.64-.74.02-1.06-.57-1.09-.92,0,0,0,0,0,0-.01-.42-.1-.84-.28-1.25-.53-1.24-1.69-2.01-2.95-2.09,0,0-1.48-1-.75-1.15,1.98-.22,3.95.86,4.77,2.78Z"/><circle class="cls-41" cx="320" cy="159.75" r="7.53"/><circle class="cls-50" cx="286.93" cy="148.51" r="3.51"/><polygon class="cls-38" points="230.09 149.53 231.87 159.13 233.66 168.74 230.09 168.74 226.51 168.74 228.3 159.13 230.09 149.53"/><polygon class="cls-52" points="234.57 157.68 236.36 167.28 238.15 176.89 234.57 176.89 231 176.89 232.78 167.28 234.57 157.68"/><polygon class="cls-9" points="225.94 143.45 227.97 154.35 230 165.26 225.94 165.26 221.88 165.26 223.91 154.35 225.94 143.45"/><path class="cls-51" d="M292.24,223.67c-26.18-1.07-64.27-3.98-85.97-13.35-8.57-8.31-15.48-18.33-20.38-29.65h0c-5.47-12.6-8.44-26.79-8.44-41.96,5.11,21.6,54.76,20.05,64.6,34.85,0,0,0,0,0,0,2.13,4.1,4.37,8.01,6.68,11.7,13.32,21.25,29.32,35.5,43.52,38.4Z"/><polygon class="cls-21" points="235.45 203.28 235.45 218.1 234.38 218.1 234.38 203.74 235.45 203.28"/><polygon class="cls-17" points="235.45 194.47 235.45 203.28 234.38 203.74 234.38 194.47 235.45 194.47"/><path class="cls-10" d="M240.99,191.61h0c-.03-.09-.05-.2-.03-.33.01.11.02.22.03.33Z"/><path class="cls-2" d="M241.35,190.56c-.25.28-.36.52-.39.72-.01-.12-.03-.25-.05-.37.07-.13.21-.25.44-.34Z"/><path class="cls-43" d="M240.99,192.04s0-.06,0-.09c0-.11,0-.22,0-.33.08.22.26.33.26.33h0c-.08.03-.17.07-.25.1Z"/><path class="cls-1" d="M244.36,185.55c0,1.95-.99,3.68-2.5,4.7-.05.03-.09.06-.14.09-.03.02-.06.04-.09.05-.02,0-.03.02-.05.03-.03.02-.07.04-.1.06-.04.03-.09.05-.13.07-.23.1-.37.22-.44.34.02.12.04.25.05.37-.02.13,0,.24.03.33,0,.11,0,.22,0,.33,0,.03,0,.06,0,.09-.03,1.88-.9,3.57-2.25,4.69-.03.03-.06.05-.1.08,0,0,0,0,0,0-.56.52-.08,1.36-.08,1.36-1.1.67-2.4,1.06-3.79,1.06-4.03,0-7.29-3.26-7.29-7.29,0-.04,0-.08,0-.13-2.38-1.09-4.03-3.48-4.03-6.27,0-1.9.77-3.62,2.02-4.87,1.25-1.25,2.97-2.02,4.87-2.02h4.93c0,1.21.63,1.21.85,1.21h2.56c3.13,0,5.68,2.55,5.68,5.68Z"/><path class="cls-39" d="M243.55,190.42c-.44.44-.95.83-1.5,1.14,0,.13.01.25.01.38,0,2.64-1.4,4.95-3.5,6.23,0,0-.47-.83.08-1.36,0,0,0,0,0,0,.03-.03.07-.05.1-.08,1.37-1.14,2.25-2.86,2.25-4.79,0-.11,0-.23,0-.34-.01-.24-.12-.6-.16-.83.07-.13.87-.42,1.03-.53,1.51-1.02,2.5-2.75,2.5-4.7,0-3.13-2.55-5.68-5.68-5.68h-2.56c-.22,0-.85,0-.85-1.21h3.41c3.8,0,6.89,3.08,6.89,6.89,0,1.9-.77,3.62-2.02,4.87Z"/><path class="cls-39" d="M237.64,184.37c-.39-1.85,1.89-2.92,2.25-2.56-.02,1.4-1.14,2.5-2.25,2.56Z"/><path class="cls-39" d="M234.43,195.21c-1.76.7-3.21-1.36-2.91-1.77,1.38-.22,2.66.69,2.91,1.77Z"/><path class="cls-38" d="M231.79,183.94c-1.35.16-1.97-1.54-1.69-1.77,1,.11,1.71.98,1.69,1.77Z"/><circle class="cls-38" cx="229.6" cy="188.11" r=".93"/><circle class="cls-38" cx="236.99" cy="188.43" r=".61"/><polygon class="cls-17" points="224.25 200.33 224.25 205.41 223.34 207.26 223.34 200.33 224.25 200.33"/><polygon class="cls-21" points="228.4 205.18 224.25 210.34 224.25 218.58 223.34 218.58 223.34 207.22 224.25 205.41 224.25 208.77 227.7 204.76 228.4 205.18"/><path class="cls-39" d="M221.83,192.87c.46,1.72,2.2,2.76,3.94,2.34,1-.24,1.79-.92,2.2-1.78-.21-.06-.37-.1-.37-.1-1.02-1.13-2.61-1.65-4.18-1.23-.52.14-.99.37-1.39.67h0c-.06.04-.12.07-.2.1Z"/><path class="cls-38" d="M218.81,195.87c.58-.01,1.14.14,1.38.64.02.23.06.47.13.7.44,1.65,1.81,2.79,3.4,3.03.74-.78,1.09-1.91.82-3.03-.42-1.76-2.2-2.85-3.96-2.43-.71.17-1.32.56-1.75,1.09Z"/><circle class="cls-60" cx="224.25" cy="196.07" r="5.57"/><path class="cls-38" d="M225.59,198.83c-.47-1.21-1.89-1.12-1.92-.79.21.69,1.4,1.1,1.92.79Z"/><circle class="cls-38" cx="221.23" cy="195.48" r=".38"/><circle class="cls-39" cx="225.56" cy="195.24" r=".38"/><path class="cls-39" d="M223.08,190.63c-.63.13-1.22.38-1.75.71.26.71.87.89,1.3.86.08,0,.15-.02.22-.04h0c.48-.17.99-.26,1.53-.24,1.62.05,3,1.02,3.64,2.39,0,0,.13.09.32.21.5.3,1.41.77,1.29.13-.13-.49-.33-.96-.58-1.39.07-.24.12-.5.14-.76.11-1.81-1.28-3.37-3.09-3.47-1.27-.08-2.42.59-3.02,1.61Z"/><path class="cls-38" d="M229.83,196.96c-.32,2.12-1.86,3.96-4.06,4.55-1.13.3-2.27.24-3.29-.12-.59,1.27-1.87,2.15-3.36,2.15-2.05,0-3.7-1.66-3.7-3.7,0-1.86,1.37-3.4,3.16-3.66.18-.03.36-.04.54-.04.25,0,.49.02.73.07.15.08.27.18.33.31.02.23.06.47.13.7.36,1.33,1.32,2.33,2.52,2.8.28.11.58.19.88.23.55.08,1.13.06,1.7-.1,1.58-.43,2.69-1.7,3-3.2.74-.34,1.11-.23,1.43,0Z"/><path class="cls-48" d="M230.09,205.83h0s-.08-.64-.68-.7c-.18.06-.36.09-.54.09-.72,0-1.36-.46-1.59-1.14-.15-.43-.12-.88.08-1.29.06-.12.13-.24.22-.34-.66.03-1.02-.13-.92-.28,0,0,0,0,0,0,.3-.49.78-.89,1.37-1.09,1.36-.46,2.83.26,3.3,1.62.42,1.22-.13,2.54-1.24,3.13Z"/><path class="cls-38" d="M230.09,205.83h0c-.12.06-.25.12-.38.17-1.36.46-2.83-.26-3.3-1.62-.26-.76-.14-1.57.25-2.2.46-.1.66-.1.92.28-.08.1-.16.21-.22.34-.2.4-.23.86-.08,1.29.23.68.87,1.14,1.59,1.14.18,0,.37-.03.54-.09.59.06.69.69.68.7Z"/><circle class="cls-65" cx="227.97" cy="216.23" r="4.62"/><circle class="cls-53" cx="289.14" cy="223.67" r="5.65"/><circle class="cls-52" cx="290.83" cy="150.99" r="2.31"/><path class="cls-46" d="M273.65,223.23c-1.37.47-2.84-.12-3.52-1.33-.3.2-.63.36-.99.48-2.35.8-4.91-.45-5.72-2.81-.8-2.35.45-4.92,2.81-5.72s4.91.45,5.72,2.81c.1.28.16.57.2.86,1.42-.27,2.87.54,3.35,1.95.53,1.55-.3,3.23-1.85,3.76Z"/><path class="cls-45" d="M295.92,156.2c-1.17,2.24-3.05,3.55-5.09,4.04l-1.8-1.2c2.77.51,5.35-.73,5.35-4.44l1.55,1.6Z"/><path class="cls-45" d="M282.93,154.07l-2.29-1.52c-.17-1.93.16-4.19,1.19-6.75l1.81,1.4c-1.42,2.6-1.45,4.95-.71,6.87Z"/><path class="cls-45" d="M287.04,158.38v1.84c-.9-.22-1.77-.58-2.56-1.09v-2.63c.74.8,1.63,1.43,2.56,1.88Z"/><path class="cls-56" d="M282.93,154.07c.36.92.9,1.74,1.55,2.43v2.63c-2.03-1.3-3.56-3.54-3.83-6.58l2.29,1.52h0Z"/><path class="cls-45" d="M290.83,160.24c-1.24.3-2.55.29-3.79-.01v-1.84c.65.31,1.33.54,1.99.66l1.8,1.2Z"/><path class="cls-45" d="M277.55,150.99c-.54-.34-1.25-.8-1.94-1.26-.18-1.58-.28-3.23-.25-4.9l2.03.7c-.55.03-.39,2.85.15,5.45Z"/><path class="cls-35" d="M279.25,155.23c-1.1.35-1.84,3.18-1.84,3.18-.64-2.16-1.4-5.25-1.79-8.68.69.46,1.4.92,1.94,1.26.4,1.94.92,3.44,1.69,4.24Z"/><path class="cls-45" d="M286.48,159.31c-.44-.49-.93-1.02-1.42-1.56-.01-1.57.07-4.71.19-6.25l2.01.69c-.42-.09-.94,4.37-.78,7.12Z"/><path class="cls-62" d="M288.91,170.65c-.51.84-.36,3.18-.36,3.18-3.71-2.62-3.46-12.6-3.49-16.09l1.42,1.57c-.33,1.48-.92,6.96,2.32,10.42.23.25.28.63.11.91Z"/><polygon class="cls-17" points="339.03 147.2 339.03 152.28 339.94 154.13 339.94 147.2 339.03 147.2"/><polygon class="cls-17" points="337.32 153.65 336.77 154.4 334.89 152.04 335.58 151.63 337.32 153.65"/><polygon class="cls-21" points="339.94 154.09 339.94 165.44 339.03 165.44 339.03 157.21 336.77 154.4 337.32 153.65 339.03 155.64 339.03 152.28 339.94 154.09"/><path class="cls-39" d="M341.45,139.74c-.46,1.72-2.2,2.76-3.94,2.34-1-.24-1.79-.92-2.2-1.78.21-.06.37-.1.37-.1,1.02-1.13,2.61-1.65,4.18-1.23.52.14.99.37,1.39.67h0c.06.04.12.07.2.1Z"/><path class="cls-38" d="M344.48,142.74c-.58-.01-1.14.14-1.38.64-.02.23-.06.47-.13.7-.44,1.65-1.81,2.79-3.4,3.03-.74-.78-1.09-1.91-.82-3.03.42-1.76,2.2-2.85,3.96-2.43.71.17,1.32.56,1.75,1.09Z"/><circle class="cls-36" cx="339.03" cy="142.94" r="5.57"/><path class="cls-38" d="M337.69,145.7c.47-1.21,1.89-1.12,1.92-.79-.21.69-1.4,1.1-1.92.79Z"/><circle class="cls-38" cx="342.05" cy="142.35" r=".38"/><circle class="cls-39" cx="337.72" cy="142.11" r=".38"/><path class="cls-39" d="M340.21,137.49c.63.13,1.22.38,1.75.71-.26.71-.87.89-1.3.86-.08,0-.15-.02-.22-.04h0c-.48-.17-.99-.26-1.53-.24-1.62.05-3,1.02-3.64,2.39,0,0-.13.09-.32.21-.5.3-1.41.77-1.29.13.13-.49.33-.96.58-1.39-.07-.24-.12-.5-.14-.76-.11-1.81,1.28-3.37,3.09-3.47,1.27-.08,2.42.59,3.02,1.61Z"/><path class="cls-38" d="M333.45,143.83c.32,2.12,1.86,3.96,4.06,4.55,1.13.3,2.27.24,3.29-.12.59,1.27,1.87,2.15,3.36,2.15,2.05,0,3.7-1.66,3.7-3.7,0-1.86-1.37-3.4-3.16-3.66-.18-.03-.36-.04-.54-.04-.25,0-.49.02-.73.07-.15.08-.27.18-.33.31-.02.23-.06.47-.13.7-.36,1.33-1.32,2.33-2.52,2.8-.28.11-.58.19-.88.23-.55.08-1.13.06-1.7-.1-1.58-.43-2.69-1.7-3-3.2-.74-.34-1.11-.23-1.43,0Z"/><path class="cls-8" d="M333.2,152.7h0s.08-.64.68-.7c.18.06.36.09.54.09.72,0,1.36-.46,1.59-1.14.15-.43.12-.88-.08-1.29-.06-.12-.13-.24-.22-.34.66.03,1.02-.13.92-.28,0,0,0,0,0,0-.3-.49-.78-.89-1.37-1.09-1.36-.46-2.83.26-3.3,1.62-.42,1.22.13,2.54,1.24,3.13Z"/><path class="cls-38" d="M333.2,152.7h0c.12.06.25.12.38.17,1.36.46,2.83-.26,3.3-1.62.26-.76.14-1.57-.25-2.2-.46-.1-.66-.1-.92.28.08.1.16.21.22.34.2.4.23.86.08,1.29-.23.68-.87,1.14-1.59,1.14-.18,0-.37-.03-.54-.09-.59.06-.69.69-.68.7Z"/><path class="cls-20" d="M312.05,183.06c-2.14.65-4.55,1.12-7.33,1.39-1.19-12.08-6.02-19.37-11.75-24.7,4.56,0,15.46,13.92,19.08,23.31Z"/><path class="cls-14" d="M322.79,63.59c1.4,6.98.49,16.83-3.42,29.83t0,0c-1.13,1.83-2.23,3.69-3.27,5.6-.62,1.13-1.23,2.26-1.81,3.42.29-1.01.56-2.03.8-3.07,1.24-5.29.65-10.89.65-16.9,0-14.56,1.4-23.14-4.91-31.91,4.44.83,7.92,3.27,10.08,7.46v-.91c0-4.62-3.74-8.36-8.36-8.36l.8-.8c4.74,2.17,9.27,4.7,13.58,7.55-1.54,2.39-2.93,5.1-4.13,8.08Z"/><path class="cls-12" d="M344.41,155.25c-16.19,11.76-18.33,23.57-32.37,27.82-4.11-9.39-15.02-23.32-19.08-23.31-10.33-9.61-23.55-12.83-23.55-26.22,5.78,8.51,16.87,16.65,30.85,21.66,9.08,3.26,18.06,4.73,25.96,4.56,7.25-.15,13.59-1.69,18.2-4.5Z"/><circle class="cls-3" cx="327.53" cy="169.92" r="4.62"/><path class="cls-39" d="M325.08,166c.8-.5,1.69-.72,2.56-.7.13.73-.4,1.14-.74,1.22,0,0,0,0,0,0-.41.08-.82.23-1.2.47-1.14.71-1.72,1.98-1.61,3.24,0,0-.76,1.62-1.02.92-.53-1.92.23-4.03,2.01-5.14Z"/><polygon class="cls-17" points="311.68 180.56 312.12 181.37 313.69 178.76 313.01 178.35 311.68 180.56"/><polygon class="cls-21" points="309.78 178.96 311.32 181.51 311.32 184.18 312.12 184.18 312.12 181.37 311.68 180.56 310.47 178.54 309.78 178.96"/><circle class="cls-44" cx="312.75" cy="169.93" r="3.22"/><circle class="cls-13" cx="311.72" cy="174.05" r="5.46"/><circle class="cls-28" cx="311.72" cy="174.05" r="5.46"/><path class="cls-38" d="M308.58,178.53c.45.32.96.57,1.52.74,2.88.89,5.94-.72,6.84-3.6.66-2.14-.05-4.37-1.64-5.75-.36.14-.65.38-.76,1.18,1.08,1.04,1.55,2.63,1.08,4.16-.67,2.15-2.95,3.36-5.11,2.69-.23-.07-.45-.16-.65-.26-.55-.07-.98.34-1.28.84Z"/><path class="cls-39" d="M306.5,172.44c-.33,1.06-.32,2.15-.03,3.14.87-.07,1.18-.8,1.18-1.22,0,0,0,0,0,0-.04-.49.02-1,.17-1.51.47-1.52,1.75-2.56,3.21-2.82,0,0,1.62-1.36.74-1.44-2.35-.03-4.54,1.48-5.27,3.85Z"/><path class="cls-39" d="M309.22,172.94c.98.37,1.76-.79,1.59-1.02-.77-.11-1.46.42-1.59,1.02Z"/><path class="cls-38" d="M312.73,174.03c-.46,1.19.63,2.06.86,1.85.31-.64-.28-1.72-.86-1.85Z"/><circle class="cls-38" cx="309.55" cy="176.27" r=".37"/><circle class="cls-39" cx="312.78" cy="171.98" r=".37"/><line class="cls-24" x1="304.72" y1="184.45" x2="304.72" y2="184.45"/><path class="cls-63" d="M350.07,211.37c-9.84-16.22-24.51-23.19-37.05-25.77-2.91-.6-5.71-.96-8.3-1.15,2.78-.27,5.19-.74,7.33-1.39,14.04-4.25,16.18-16.06,32.37-27.82-1.73,6.38-2.71,13.56-2.71,21.15,0,13.8,3.22,26.24,8.37,34.96Z"/><polygon class="cls-17" points="333.81 183.59 333.81 189.26 334.83 191.34 334.83 183.59 333.81 183.59"/><polygon class="cls-47" points="333.81 189.26 333.81 203.98 334.83 203.98 334.83 191.29 333.81 189.26"/><path class="cls-39" d="M329.76,178.97c1.89.59,3.92-.43,4.57-2.32.37-1.09.2-2.24-.37-3.14-.18.17-.32.28-.32.28-1.67.29-3.12,1.48-3.66,3.21-.18.57-.24,1.15-.2,1.72h0c0,.08,0,.16-.02.25Z"/><path class="cls-38" d="M330.88,183.44c.33-.55.82-.99,1.43-.92.23.12.48.22.74.3,1.82.56,3.72-.04,4.89-1.4-.29-1.17-1.15-2.17-2.38-2.59-1.92-.65-4.01.37-4.66,2.29-.27.78-.25,1.58-.02,2.31Z"/><circle class="cls-13" cx="334.43" cy="178.38" r="6.22"/><circle class="cls-58" cx="334.43" cy="178.38" r="6.22"/><path class="cls-38" d="M337,178.79c-1.42-.27-2.18,1.11-1.9,1.34.78.22,1.88-.66,1.9-1.34Z"/><circle class="cls-38" cx="331.96" cy="180.91" r=".43"/><circle class="cls-39" cx="334.32" cy="176.68" r=".43"/><path class="cls-39" d="M328.21,178.02c-.04.72.04,1.43.24,2.1.84-.07,1.22-.67,1.31-1.14.02-.09.03-.17.02-.24h0c-.04-.57.02-1.15.2-1.72.54-1.73,1.99-2.92,3.66-3.21,0,0,.14-.12.32-.28.48-.45,1.25-1.29.53-1.36-.57,0-1.13.07-1.67.21-.24-.15-.5-.28-.78-.37-1.92-.65-4.01.37-4.66,2.29-.46,1.35-.09,2.78.83,3.74Z"/><path class="cls-38" d="M330.91,183.51c.36,1.03,1.17,1.89,2.28,2.28,1.89.64,3.93-.34,4.63-2.19,1.18-.76,2.11-1.93,2.55-3.37.75-2.44-.06-4.98-1.87-6.55-.41.15-.75.44-.86,1.34,1.23,1.18,1.77,3,1.23,4.74-.2.63-.52,1.2-.93,1.67-1.17,1.35-3.07,1.96-4.89,1.4-.26-.08-.51-.18-.74-.3-.61-.07-1.41.97-1.4,1Z"/><circle class="cls-40" cx="326.5" cy="189.26" r="5.65"/><path class="cls-32" d="M350.07,211.37c-5.49,4.17-11.49,7.83-17.88,10.97-5.54,2.73-11.37,5.06-17.39,6.99-5.77-.65-13.09-1.22-20.43-5.31,3.71.46,7.28.1,10.62-1.15v-32.46c0-2.11-.1-4.09-.28-5.96,2.59.19,5.39.55,8.3,1.15,12.54,2.58,27.21,9.55,37.05,25.77Z"/><polygon class="cls-17" points="178.67 110.89 178.67 135.22 177.44 137.73 177.44 110.89 178.67 110.89"/><path class="cls-39" d="M185,126.17l-4.06-3.51-1.39-1.2-1.49-1.29-6.95,6.01,3.48-8.44,1.87-4.58,1.12-2.74c.07-.17.18-.29.3-.34.23-.11.5,0,.64.34l2.99,7.31,3.49,8.44Z"/><path class="cls-39" d="M185.64,138.1l-5.07-4.55-2.52-2.27-7.59,6.82,3.8-7.22,3.08-5.88c.32-.6,1.1-.6,1.41,0l.26.51,2.81,5.38,3.81,7.22Z"/><path class="cls-38" d="M180.58,133.58l-2.52-2.3-7.59,6.82,3.8-7.22,3.08-5.88c.32-.6,1.1-.6,1.41,0l.26.51c1.43,5.1.02,4.2,1.55,8.04,0,.02,0,.03,0,.03Z"/><path class="cls-26" d="M185,126.17l-4.06-3.51-1.39-1.2c-.52-3.49-1.26-8.47-1.67-11.38.23-.11.5,0,.64.34l2.99,7.31,3.49,8.44Z"/><circle class="cls-39" cx="176.38" cy="129.81" r=".48"/><path class="cls-6" d="M311.19,213.18c-.59,3.19-4.11,3.64-4.34,2.86.19-1.8,2.91-3.38,4.34-2.86Z"/><circle class="cls-26" cx="177.04" cy="117.17" r=".48"/><polygon class="cls-17" points="253.16 215.17 252.58 216.24 250.51 212.81 251.41 212.27 253.16 215.17"/><polygon class="cls-21" points="255.65 213.07 253.63 216.42 253.63 218.94 252.58 218.94 252.58 216.24 253.16 215.17 254.76 212.53 255.65 213.07"/><circle class="cls-27" cx="251.75" cy="201.21" r="4.24"/><circle class="cls-55" cx="253.11" cy="206.62" r="7.18"/><path class="cls-38" d="M257.23,212.51c-.59.42-1.26.75-1.99.98-3.79,1.17-7.81-.94-8.99-4.73-.87-2.81.07-5.75,2.16-7.56.48.18.86.5,1,1.55-1.42,1.36-2.04,3.46-1.42,5.47.88,2.83,3.88,4.41,6.71,3.53.3-.09.58-.21.86-.35.72-.09,1.29.44,1.68,1.11Z"/><path class="cls-39" d="M259.97,204.5c.43,1.4.42,2.82.04,4.13-1.14-.09-1.55-1.05-1.55-1.6,0,0,0,0,0,0,.05-.65-.02-1.32-.23-1.98-.62-2-2.3-3.37-4.22-3.7,0,0-2.13-1.79-.97-1.89,3.09-.03,5.97,1.95,6.93,5.05Z"/><path class="cls-39" d="M256.39,205.16c-1.29.48-2.31-1.04-2.09-1.33,1.01-.14,1.92.55,2.09,1.33Z"/><path class="cls-38" d="M251.78,206.59c.6,1.56-.82,2.71-1.14,2.43-.4-.84.37-2.27,1.14-2.43Z"/><circle class="cls-38" cx="255.95" cy="209.54" r=".49"/><circle class="cls-39" cx="251.71" cy="203.9" r=".49"/><path class="cls-37" d="M207.84,182.41v.15l-.96-.15h-1.1c-1.38,0-2.5-1.12-2.5-2.5,0-.21.03-.42.08-.61-2.15-.31-3.79-2.16-3.79-4.39v-.31c0-2.45,1.99-4.44,4.44-4.44h2.88c0,.38.08.96-1.38.96h-1.5c-1.92,0-3.48,1.56-3.48,3.48v.31c0,1.72,1.28,3.19,2.97,3.44l1.06.15-.26,1.03c-.03.12-.05.25-.05.37,0,.85.69,1.54,1.54,1.54h.68c.8,0,1.38.38,1.38.96Z"/><path class="cls-22" d="M217.57,174.6v.31c0,1.55.27,3.08.27,4.41,0,2.86-3.72,3.1-4.41,3.1h-5.59c0-.58-.58-.96-1.38-.96h-.68c-.85,0-1.54-.69-1.54-1.54,0-.13.02-.25.05-.37l.26-1.03-1.06-.15c-1.69-.25-2.97-1.73-2.97-3.44v-.31c0-1.92,1.56-3.48,3.48-3.48h1.5c1.46,0,1.38-.58,1.38-.96h6.25c2.45,0,4.44,1.99,4.44,4.44Z"/><polygon class="cls-37" points="212.88 177.05 212.88 179.2 212.24 179.7 212.24 177.05 212.88 177.05"/><polygon class="cls-37" points="207.84 182.41 207.84 184.9 206.88 185.65 206.88 182.41 207.84 182.41"/><path class="cls-21" d="M212.88,179.2v12.19c0,.47-.24.91-.62,1.17h-.02s-3.63,2.43-3.63,2.43c-.48.32-.76.85-.76,1.42v14.44h-.96v-25.21l.96-.75v9.31c0,.22.24.35.43.23l3.18-2.12c.49-.33.78-.88.78-1.46v-11.16l.64-.5Z"/><path class="cls-38" d="M204.57,174.94c-1.05.39-1.89-.85-1.7-1.09.82-.11,1.57.45,1.7,1.09Z"/><circle class="cls-37" cx="205.67" cy="179.31" r=".4"/><rect class="cls-18" x="206.62" y="166.94" width="17.58" height="10.95" rx="5.47" ry="5.47"/><path class="cls-34" d="M223.24,172.42c0,1.72-.97,3.22-2.39,3.98-.67.75-.08,1.1-.08,1.1h0c-.63.25-1.32.39-2.04.39h-6.63c-3.02,0-5.47-2.45-5.47-5.47,0-1.51.61-2.88,1.6-3.87s2.36-1.6,3.87-1.6h3.92c0,.96.5.96.68.96h2.03c2.49,0,4.51,2.02,4.51,4.51Z"/><path class="cls-39" d="M224.2,172.42c0,1.51-.61,2.88-1.6,3.87-.52.52-1.14.93-1.83,1.21h0s-.77-.75.08-1.1c1.42-.76,2.39-2.26,2.39-3.98,0-2.49-2.02-4.51-4.51-4.51h-2.03c-.18,0-.68,0-.68-.96h2.71c3.02,0,5.47,2.45,5.47,5.47Z"/><path class="cls-39" d="M217.9,171.48c-.31-1.47,1.5-2.32,1.79-2.03-.02,1.11-.91,1.99-1.79,2.03Z"/><path class="cls-38" d="M213.25,171.14c-1.07.12-1.57-1.23-1.34-1.41.79.08,1.36.78,1.34,1.41Z"/><circle class="cls-38" cx="211.51" cy="174.45" r=".74"/><circle class="cls-38" cx="217.38" cy="174.7" r=".49"/><path class="cls-21" d="M215.5,70.32l1.42,1.28,1.83,1.66h0s0,0,0,0l1.83-1.66,1.42-1.28c.08-.07-.73-.05-1.73.63l-1.51,1.14-1.51-1.14c-1-.68-1.81-.7-1.73-.63Z"/><path class="cls-47" d="M230.51,70.27l-1.4-1.26-1.79-1.62h0s0,0,0,0l-1.79,1.62-1.4,1.26c-.08.07,2.09-.03,3.19-1.1,1.1,1.07,3.27,1.17,3.19,1.1Z"/><path class="cls-15" d="M231.38,65.16l.9.81,1.13,1.03h0s0,0,0,0l1.13-1.03.9-.81c.05-.05-.75-.26-2.04.42-1.28-.68-2.08-.46-2.03-.42Z"/><line class="cls-23" x1="283.78" y1="154.63" x2="282.93" y2="154.07"/><line class="cls-23" x1="280.64" y1="152.55" x2="279.25" y2="151.63"/><line class="cls-23" x1="292.79" y1="161.54" x2="290.83" y2="160.24"/><line class="cls-23" x1="289.03" y1="159.04" x2="288.26" y2="158.53"/><path class="cls-38" d="M329.49,187.19c-1.42-.27-2.18,1.11-1.9,1.34.78.22,1.88-.66,1.9-1.34Z"/><circle class="cls-38" cx="330.16" cy="190.79" r=".55"/><path class="cls-38" d="M293.22,220.66c-1.42-.27-2.18,1.11-1.9,1.34.78.22,1.88-.66,1.9-1.34Z"/><circle class="cls-38" cx="288.35" cy="221.54" r=".55"/><rect class="cls-17" x="312.3" y="207.32" width="1.47" height="22.35"/><polygon class="cls-19" points="307.52 221.33 310.12 214.52 308.26 213.43 310.5 208.06 309.29 207.31 310.4 206.27 312.82 197.74 313.85 201.32 314.59 203.91 316.26 205.52 315.52 206.39 316.26 209.04 317.47 210.48 316.92 211.46 317.66 213.48 315.61 214.64 318.03 220.43 318.4 221.33 307.52 221.33"/><polygon class="cls-21" points="313.77 224.46 313.77 229.49 312.3 229.85 312.3 223.26 313.77 224.46"/><polygon class="cls-38" points="318.03 220.43 316.71 219.65 314.68 214.78 316.72 213.63 315.98 211.61 316.54 210.63 315.33 209.19 314.58 206.54 315.33 205.67 313.65 204.05 313.36 203.03 313.85 201.32 314.59 203.91 316.26 205.52 315.52 206.39 316.26 209.04 317.47 210.48 316.92 211.46 317.66 213.48 315.61 214.64 318.03 220.43"/><circle class="cls-39" cx="314.45" cy="220.13" r=".44"/><circle class="cls-38" cx="309.46" cy="212.85" r=".44"/><circle class="cls-39" cx="312.59" cy="206.49" r=".44"/><path class="cls-45" d="M221.05,184.74c1.16,3.03-1.6,5.25-2.21,4.71-.78-1.63.71-4.4,2.21-4.71Z"/><path class="cls-45" d="M186.63,170.76c2.69-1.82,5.48.36,5.08,1.08-1.41,1.13-4.44.3-5.08-1.08Z"/><path class="cls-45" d="M196.64,177.79c1.16,3.03-1.6,5.25-2.21,4.71-.78-1.63.71-4.4,2.21-4.71Z"/><path class="cls-45" d="M203.89,196.95c-.41,3.22-3.9,3.86-4.18,3.1.09-1.81,2.72-3.53,4.18-3.1Z"/><path class="cls-45" d="M195.64,160.23c2.09,2.48.21,5.48-.55,5.17-1.27-1.29-.76-4.39.55-5.17Z"/><path class="cls-45" d="M330.56,197.94c1.16,3.03-1.6,5.25-2.21,4.71-.78-1.63.71-4.4,2.21-4.71Z"/><path class="cls-45" d="M334.7,213.38c1.16,3.03-1.6,5.25-2.21,4.71-.78-1.63.71-4.4,2.21-4.71Z"/><path class="cls-45" d="M341.2,204.97c3.07,1.04,3.02,4.58,2.21,4.7-1.76-.44-2.93-3.36-2.21-4.7Z"/><path class="cls-45" d="M323.82,218.22c3.07,1.04,3.02,4.58,2.21,4.7-1.76-.44-2.93-3.36-2.21-4.7Z"/><circle class="cls-6" cx="212.24" cy="162.88" r="1.34"/><path class="cls-6" d="M275.62,217.21c3.23.33,3.96,3.79,3.2,4.09-1.81-.04-3.6-2.62-3.2-4.09Z"/><circle class="cls-6" cx="263.49" cy="210.86" r="1.34"/><circle class="cls-45" cx="214.93" cy="206.61" r="1.34"/><circle class="cls-45" cx="324.72" cy="210.86" r="1.34"/><path class="cls-6" d="M316.87,187.46c1.16,3.03-1.6,5.25-2.21,4.71-.78-1.63.71-4.4,2.21-4.71Z"/><circle class="cls-6" cx="309.02" cy="201.18" r="1.34"/><circle class="cls-6" cx="317.15" cy="198.62" r="1.34"/><circle class="cls-45" cx="333.19" cy="207.81" r="1.34"/><circle class="cls-45" cx="187.85" cy="162.88" r="1.34"/><circle class="cls-45" cx="259.2" cy="217.6" r="1.34"/><path class="cls-45" d="M238.41,206.96c-.63-3.18,2.46-4.9,2.97-4.27.49,1.74-1.45,4.21-2.97,4.27Z"/><path class="cls-45" d="M240.81,215.83c-.63-3.18,2.46-4.9,2.97-4.27.49,1.74-1.45,4.21-2.97,4.27Z"/><circle class="cls-45" cx="198.27" cy="189.49" r="1.34"/><circle class="cls-45" cx="196.38" cy="172.22" r="1.34"/><path class="cls-45" d="M185.23,154.62c-.03,3.24-3.42,4.29-3.78,3.56-.13-1.81,2.28-3.83,3.78-3.56Z"/><circle class="cls-45" cx="181.44" cy="150.99" r="1.34"/><path class="cls-39" d="M231.43,213.16c.62.7.99,1.54,1.12,2.41-.69.25-1.19-.21-1.33-.53,0,0,0,0,0,0-.14-.39-.36-.77-.66-1.1-.89-1.01-2.24-1.37-3.46-1.05,0,0-1.72-.48-1.07-.85,1.8-.84,4.02-.44,5.4,1.13Z"/><path class="cls-11" d="M314.8,229.33c-13.69,4.38-28.36,6.66-42.94,6.66-26.32,0-49.04-9.62-65.59-25.67,22.07,8,59,9.06,85.97,13.35.72.15,1.43.26,2.13.35,8.02,1.35,15.06,3.03,20.43,5.31Z"/><path class="cls-59" d="M190.49,139.06h0s.56.33.38.9c-.12.14-.22.29-.3.46-.28.66-.11,1.43.43,1.91.33.3.77.45,1.22.43.14,0,.27-.03.4-.07-.28.6-.28.99-.1.95,0,0,0,0,0,0,.57-.09,1.12-.37,1.54-.83.96-1.07.87-2.71-.2-3.67-.96-.86-2.39-.87-3.37-.09Z"/><path class="cls-38" d="M190.49,139.06h0c-.11.09-.21.18-.3.29-.96,1.07-.87,2.71.2,3.67.6.54,1.38.74,2.12.63.27-.38.34-.57.1-.95-.13.04-.26.06-.4.07-.45.02-.88-.13-1.22-.43-.54-.48-.71-1.25-.43-1.91.07-.17.17-.33.3-.46.18-.57-.36-.91-.38-.9Z"/><polygon class="cls-57" points="288.12 39.96 289.42 46.97 290.73 53.98 288.12 53.98 285.51 53.98 286.81 46.97 288.12 39.96"/><polygon class="cls-57" points="309.42 43.04 310.73 50.05 312.03 57.06 309.42 57.06 306.81 57.06 308.12 50.05 309.42 43.04"/><polygon class="cls-52" points="287.63 51.1 286.81 45.82 287.63 45.69 285.83 40 284.19 45.62 285.01 45.74 284.19 51.02 287.63 51.1"/><path class="cls-52" d="M287.2,45.48l-.82.13.58,3.73c.14,0,.28,0,.4,0l-.55-3.51.82-.13-1.3-4.13-.17.62,1.04,3.3Z"/><polygon class="cls-52" points="285.83 40 284.19 45.62 284.72 45.71 286.04 40.61 285.83 40"/><path class="cls-57" d="M293.52,46.23s-.03.05-.04.08c-.88,1.71-.24,3.81,1.45,4.74,1.72.94,3.87.31,4.81-1.41.71-1.3.52-2.85-.36-3.93,0,0,0,0-.01-.01-.23-.28-.51-.53-.83-.74-.07-.05-.14-.09-.22-.13-1.66-.91-3.74-.35-4.72,1.25-.03.05-.06.1-.09.16Z"/><circle class="cls-57" cx="292.9" cy="48.46" r="1.46"/><path class="cls-57" d="M294.26,48.63c-.12-.68-.53-1.16-.87-1.29-.21-.08-.38.06-.24.15.33.19.78.59.83,1.22.02.3.71.48.68.36s-.4-.45-.4-.45Z"/><path class="cls-57" d="M293.52,46.23s-.03.05-.04.08c2.45-1.81,4.03-.36,5.91-.61,0,0,0,0-.01-.01-.23-.28-.51-.53-.83-.74-.07-.05-.14-.09-.22-.13-1.66-.91-3.74-.35-4.72,1.25-.03.05-.06.1-.09.16Z"/><circle class="cls-57" cx="311.6" cy="48.76" r="2.46"/><path class="cls-4" d="M320.91,68.95c-2.05,6.81-3.22,14.62-3.22,22.93,0,6.01.6,11.75,1.72,17.04.22,1.04.45,2.06.72,3.07-.53-1.16-1.08-2.3-1.63-3.42-2.11-4.28-4.42-8.37-6.9-12.27v-29.88c0-4.62-3.74-8.36-8.36-8.36h-30.24c-1.07-.6-2.14-1.17-3.2-1.7l7.61-7.61h35.14c4.62,0,8.36,3.74,8.36,8.36v11.83Z"/><g class="cls-64"><path class="cls-15" d="M317.43,48.76c.18.28.8.23,1.29.21.46-.03,1.08-.75.97-1.13-.09-.35-.29-.62-.55-.79-1.85-1.32-4.05-1.87-5.99-2.6-2.51-.92-5.49-1.33-8.6-1.56-.95-.08-2.05.2-3.06.33l.04-.15c-.52.1-1.03.15-1.56.35-.18.07-.46.53-.58.85-.08.21-.04.6.04.75.27.53.69.73,1.25.27.65-.54,1.14-.51,1.59-.35,1.73.65,3.31,1.21,5.5.68.09-.02.17,0,.23.04.71.47,1.73.33,2.62.43.27.02.52.11.72.23.7.43,1.46.76,2.37.96,1.29.28,2.99.27,3.73,1.47ZM302.76,60.7c-1,1.33-1.46,1.7-1.74,1.72l-2.03.15c-.17.01-.27-.12-.48,0-.77.43-.9-.46-1.49-.47-.08,0-.13-.12-.1-.33.04-.27.13-.7.27-1.02.12-.29.42-.75.5-.75.41-.03.77.04,1.13.11.32.06.57.25.93.2.63-.09,1.38-.36,2.06-.47.56-.1,1.07-.04.96.87ZM290.51,70.15c-.11,0-.19.1-.27-.04,0-.08-.16-.53-.18-.86-.02-.14.18-.52.19-.59.15-.24.24.13.26,1.49ZM292.2,61.79c-.69.09-1.34.22-2.03.36-.41.06-.83.2-1.24.23-.44.04-.89-.02-1.33,0-.18.01-.37.08-.53.23-.52.47-.94.24-1.26-.92.07-1.03.33-1.48.74-1.47h.96c.6-.02,1.21,0,1.81-.05l.72-.07c.27-.03.37-.05.57-.08l1.06-.17s.05,0,.07.02c.66.83,1.56-.13,2.2.49.05.05.13.04.2-.01.97-.71,1.56.16,2.32.18.07,0,.15.01.15.14,0,.18-.04.45-.12.72-.05.17-.21.49-.28.57-.18.19-.36.37-.48.38-.81.09-1.6.18-2.36.17-.26,0-.46-.32-.71-.48-.15-.1-.29-.25-.46-.23ZM308.14,52.49c-.42.34-.9.75-1.24.8-.83.12-1.62.26-2.38.3-.63.04-1.2-.02-1.8-.04-.78-.03-1.63.14-2.02-.94.32-.25.59-.53.8-.59.35-.09.66-.04.98-.03.95.03,1.87.11,2.83.12.71,0,1.47-.11,2.2-.12.4,0,.38.04.62.5ZM308.48,65.96c-.61.51-1.53.9-1.38.58.06-.15.48-.56.65-.76.93-.73,1.62-1.03,1.47-.68-.07.18-.4.57-.74.86ZM308.82,62.52c-.04.18-.26.5-.54.97-.64.46-1.19.9-1.6,1.15-.68.42-.88.27-.54-.24.34-.53.95-1.11,1.57-1.62.64-.53,1.2-.65,1.11-.27ZM309.45,66.75c-.37.5-1.31,1.12-1.92,1.32-.66.22-.76.05-.58-.33.13-.27.58-.71,1.34-1.24.75-.52,1.17-.7,1.24-.51.04.1.07.19.13.37-.02.04-.07.19-.22.39ZM309.66,68.15c-.02.26-.43.62-1.28,1.11-2.03.64-2.02.44.04-1.2,1.45-.75,1.27-.27,1.24.09ZM293.07,43.35c.84.01,1.65.23,2.69.39-.33.61-.46.88-.6,1.11-.05.08-.15.04-.23.07-.9.27-1.8.54-2.69.81-.28-2.02-.19-2.38.83-2.37ZM285.26,60.83c.03.29-.04.86-.14,1.01-.24.35-.51.7-.78.75-.57.1-1.14.03-1.71,0-.49-.03-.49-.05-1.07-1.36.19-.35.3-.73.42-.77.97-.31,1.95-.75,2.94-.31.13.06.3.39.34.68ZM290.6,51.96l2.15.08c.58.04,1.15.12,1.72.16.5.03,1.02,0,1.51.06.19.02.33.24.49.36-.26.6-.51.87-.83.86-.28,0-.57.04-.81-.07-.32-.15-.62-.14-.99.03-.3.13-.65.15-.9-.02-.53-.35-1.1-.25-1.66-.11-.31.08-.63.24-.92.15-1.05-.31-2.12-.16-3.17-.06-1.64.16-3.27-.44-4.9.07-1.02-.36-2.05.07-3.08-.06-.62-.08-1.25.15-1.88.15-1.22,0-2.44-.17-3.65-.04-1.25.13-2.51.18-3.6.35-.15-.02-.47-.15-.66-.2v-1.49c.1,0,.21.01.31-.02.37-.13.76-.03,1.13.01,1.5.17,2.98-.18,4.46-.24,1.42-.06,2.85.09,4.27.14.22,0,.44-.04.66-.05l1.89-.09c.98-.04,1.97-.11,2.95-.12.44,0,.88.13,1.32.13.89,0,1.77-.07,2.66-.07.51,0,1,.07,1.52.09ZM269.41,62.71v-2.35c.2-.34.45-.49.74-.44.63.09,1.26,0,1.91.29.74.32,1.53,0,2.3-.05.16-.01.32-.16.47-.16l5.18.23c.32.02.63.08,1.03.13-.18,1.61-.59,2.01-1,2-.36,0-.72-.49-1.16-.83-.65,1.13-1.47,1.22-2.32,1.15-1.28-.11-2.56-.19-3.85-.18-.77,0-1.53.29-2.3.31-.33,0-.69.21-1.01-.1ZM285.09,45.44c-.22,0-.41-.51-.37-1.21.04-.67.2-.98.47-.96l1.29.13v.06s1.68-.22,1.68-.22c.25-.03.52.1.5.8-.01.46-.21,1.25-.33,1.27-1.08.14-2.17.17-3.25.13ZM293.62,35.95c-.73,1.23-1.25,1.53-1.84.97-.13-.13-.21-.5-.22-.78,0-.17.14-.49.25-.54.64-.3,1.34-.62,1.8.35ZM296.99,43.59c.53-.21,1.1-.29,1.56.28-1.15,1.85-1.19,1.92-1.86,1.45-.14-.1-.31-.51-.26-.71.1-.38.38-.95.56-1.02ZM299.73,36.95c-.27-.05-.43-.47-.77-.86.49-.39.78-.72,1.06-.82.53-.18.74.13.6.7-.17.68-.54,1.05-.89.98ZM294.63,36.04c.41-.31.68-.64.93-.65.17-.01.41.37.41.65,0,.51-.47,1.01-.82.85-.18-.08-.28-.43-.52-.84ZM297.89,35.19c.05.17.24.44.19.71-.11.57-.39,1.09-.8.89-.17-.08-.34-.41-.36-.7-.02-.5.41-.93.97-.91ZM298.5,53.29c-.08-.24.07-.69.35-.87.37-.25.75-.39,1.1-.56.2.44.1.87-.32,1.31-.46.46-1,.49-1.13.12ZM309.49,73.64c.12,0,.04.12.04.19-.05.66-.2,1.33-.1,1.95.06.36-.26.73-1.11,1.13,1.16.1,1.29.41.2.87-1.16-.1-1.73-.21-1.29-.57.15-.12.35-.3.19-.36-1.07-.43-.54-1.08-.4-1.72.06-.28.25-.59.46-.91.1-.16.5-.4,1.03-.51.39-.08.71-.07.98-.05ZM308.55,70.23c-.62.34-1.2.47-1.09.23.05-.12.42-.4.57-.55.9-.48,1.35-.58,1.35-.37,0,.17-.33.41-.83.68ZM323.71,76.65c-.05-.29-.04-.58-.03-.87l.37-6.06c.02-.38.19-.73.99-1.03.74-.28,1.22-.13,1.24.39,0,.31-.08.65-.09.96-.04,1.3-.39,2.61.15,3.81.17.37-.2.88-.27,1.32-.07.45-.02.89-.11,1.34-.09.42.26.89-.65,1.38-1.12-.25-1.51-.69-1.6-1.25ZM291.18,43.43c.12,1.11-.07,1.64-.42,1.88-.32.21-.65.39-.86.31-.2-.07-.42-.45-.4-1.16.02-.67.19-.98.45-1.01.27-.04.8-.02,1.24-.03ZM308.64,79.32c-.72.05-1.28-.1-1.55-.36l-.06-.06c-.17-.18-.1-.36.57-.51.28-.06.81-.11,1.09-.08.66.06.98.23.82.5.04.19.09.44-.87.51ZM315.99,80.1c-.05-.38-.08-.77,0-1.12.16-.79.16-1.58.09-2.37-.1-1.11.03-2.26.08-3.41,0-.23.16-.47.61-.58.46-.11.53.12.59.33.28,1.04.37,2.17.25,3.32-.13,1.23-.09,2.47-.1,3.67,0,.34.16.71-.53.96-.66-.13-.91-.44-.96-.8ZM309.61,82.45c.08.38-.28.6-1.18.81-.96-.39-1.25-.84-1.29-1.27-.05-.54.16-1.08.35-1.62.04-.12.46-.28.74-.3.3-.01.75.1.95.21.21.12.25.3.27.45.07.57.03,1.15.16,1.72ZM323.94,79.47c.05-.1.48-.34.78-.36.27-.03.78.15.88.28.44.48,1.04.98-.31,1.48-1.46-.35-1.55-.86-1.34-1.4ZM316.27,70.08c-.34-.23-.48-.55-.4-.99.07-.42.04-.8.04-1.2,0-.21-.07-.4-.03-.63.27-1.59.17-3.02-.01-4.38-.05-.3.22-.8.27-1.19.04-.27.16-.66,0-.73-.45-.17-.38-.68-.31-1.25.19-1.39-.47-2.25-1.13-3.12-.05-.07-.11-.15-.22-.16-.55-.06-.11-.98-.5-1.11-.39-.17-.91-.16-1.15-.48-.11-.16-.14-.27.01-.51.07-.11.19-.25.35-.42.13-.13.3-.29.52-.47.36.29.71.57.99.91.12.14.21.34.39.41.99.45,1.4,1.49,1.72,2.47.52,1.58.35,3.41.7,4.84.25,1,.03,2.32,0,3.49l-.1,3.47c0,.19.04.38-.06.59-.07.15-.33.38-.52.46-.18.07-.46.06-.57-.01ZM335.12,83.51c-.28,1.17-.39,2.33-.28,3.5.11,1.24.03,2.48.1,3.72.06,1,.4,2.01.31,3.01-.11,1.27-.53,2.53-.82,3.8-.07.33-.1.65-.25.97-.08.17-.36.33-.66.59-1.68-.56-1.51-1.21-1.59-1.81-.04-.29.11-.59.24-.88.66-1.49.45-2.99.06-4.48-.15-.58-.36-1.16.14-1.75.24-.29.08-.65-.06-.97-.23-.55-.17-1.09.09-1.64.32-.7.35-1.4.1-2.12-.17-.49.32-1.01.57-1.67-.73-.54-.8-1.28-.8-2.04l-.03-1.64-.06-2.16-.14-5.14c0-.41.06-.83.12-1.25.04-.26.24-.56.2-.79-.26-1.3-.15-2.67-.05-4.06.09-1.38.13-2.78-.3-3.95-.13-.4-.07-.89-.11-1.32-.07-.67-.11-1.37-.23-2.02-.04-.23-.18-.42-.2-.65-.05-.55.36-1.16.97-1.5.65-.36,1.46-.28,1.61.22.12.45.31.89.18,1.45-.2.9-.2,1.68-.08,2.43.08.76.3,1.47.53,2.19.5,1.71.18,3.72.22,5.59.03,1.44.1,2.92-.22,4.39-.28,1.26-.24,2.47-.15,3.68.04.61.09,1.22.13,1.82l.03.69c0,.18,0,.37-.02.55-.02.19.13.38.24.57.1.19.34.37.34.56,0,.71.05,1.42-.11,2.13ZM342.36,83.56c.32.24.58.53.58.8,0,1.3-.12,2.61-.14,3.91-.01.86.07,1.72.12,2.58.03.58-.13,1.14-.79,1.7-1.39.02-1.75-.25-1.76-.66l-.12-4.5c-.01-.98,0-1.97.09-2.95.02-.28.19-.57.46-.83.26-.26,1.24-.29,1.56-.05ZM309.63,72.29c.01.19-.16.44-.97.74-.75.28-1.19.3-1.39.21-.14-.06-.18-.17-.19-.29-.03-.33-.04-.66-.04-1.01,0-.1.03-.22.15-.36.18-.23.57-.5,1.23-.81.72-.34,1.05-.35,1.1-.22.1.29.04.67.04,1.01l-.08.03c.05.23.14.45.15.7ZM307.56,84.1c.02-.1.32-.2.45-.28,1.06-.02,1.48.26,1.48.55-.02.92.81,1.81.45,2.76-.26.68.06,1.39.11,2.09.05.74.12,1.49.09,2.23-.06,1.46-.06,2.93-.63,4.38-.05.13-.04.26-.16.37-.25.24-1.12.31-1.64.15-.61-.19-.86-.46-.76-.76.06-.19.39-.41.24-.56-.77-.68-.19-1.32.17-1.98.09-.15.25-.33.15-.47-.47-.68-.08-1.34.17-2,.42-1.1,0-2.17-.39-3.25-.05-.13-.15-.25-.14-.38.12-.95.25-1.9.42-2.86ZM341.26,93.09c.42.06.86.11,1.42.19-.1.45-.01.92-.93,1.3-1.6-.59-1.65-.77-.49-1.48ZM325.82,92.36c-.01.15-.22.3-.34.46-1.24-.11-1.45-.33-1.52-.56-.25-.82-.41-1.63-.23-2.46.18-.84.08-1.68.11-2.51.02-.51.08-1.03.09-1.54,0-.16.02-.34-.17-.49-.66-.52.1-1.01.35-1.52.03-.05.26-.1.46-.17.55.08,1,.15,1.33.2.14.37.33.69.37,1.01.13,1.24.53,2.49.21,3.73-.34,1.29-.54,2.57-.65,3.85ZM324.61,81.93c.22-.06.75-.02.99.06.53.17.44.39-.04.57-.1.04-.26.05-.44.09-.16-.04-.39-.08-.53-.14-.39-.19-.56-.42.01-.57ZM341.44,95.08c.62-.1,1,.21,1.09.58.2.84.39,1.68.59,2.52l-.14.02c0,.43.15.88-.03,1.27-.12.26-.66.61-1.06.64-.4.03-1.05-.23-1.28-.47-.29-.31-.4-.73-.37-1.09.09-.95.26-1.89.48-2.83.06-.24.4-.59.71-.64ZM308.34,64.91c-.53.44-1.36.85-1.57.78-.16-.06.25-.61.84-1.15.65-.58,1.26-.85,1.39-.6.08.14.08.33-.67.97ZM341.35,56.72c.33-.15.92-.04,1.03.18.37.68.49,1.52.66,2.33.09.47.14.96.17,1.46.48,1.57-.1,3.45-.23,5.17-.17,2.34-.02,4.62-.03,6.94l-.03,4.11-.02,2.05-.03,1.24c0,.18-.21.37-.21.55,0,.29-.41.45-1,.42-.37-.01-.86-.19-.99-.34-.25-.26-.36-.56-.38-.85l-.03-.5-.03-.84-.05-1.89c-.03-1.26-.04-2.51-.01-3.77.05-2.5.13-5,.36-7.58.18-2,.44-4.13-.11-5.9-.14-.52-.09-1.17.03-1.79.06-.29.56-.84.9-1ZM290.5,77.62c-.06.32-.12.7-.16.9-.03.18-.03.17-.04.14,0-.12-.02-.21-.05-.21-.09,0,.25.09-.83.34-.17.06-.35.15-.5.04-.67-.46-1.33-.14-2-.01-.76.14-1.54-.1-2.31-.17-.51-.05-1.01-.12-1.52-.11-.44,0-.88,0-1.3.2-.41.21-.79.34-1.19-.03-.12-.11-.28-.2-.4-.09-1.1.99-2.26-.72-3.36.2-.19.16-.41.25-.6.16-.65-.33-1.27-.08-1.9.25-.13.07-.28.15-.39.05-.61-.56-1.23-.49-1.87-.6-.73-.13-1.47.1-2.22.13-.15,0-.32-.06-.47-.16v-1.79c.67-.13,1.27.11,1.86.2,1.07.16,2.16-.07,3.22-.07.93,0,1.84.24,2.77-.02.27-.07.53-.3.79-.3,3.88,0,7.75,0,11.63.05h.52s.05.04.05.04c.04.02.07.04.11.07l.19.17s.03-.04.02.06c-.01.14-.05.44-.08.6ZM290.52,78.03c-.03.12-.06.23-.08.29-.02.03-.09.33.09-.59.03-.16.11-.53.12-.56.06-.16.12-.26-.14.86ZM290.85,77.05c-.08.3-.13.51-.18.72-.06.21-.15.49-.19.61-.03.08,0-.07.15-.6.07-.27.13-.44.23-.74ZM291.73,76.94s-.1.23-.16.35c-.68,1.03-.86,1.3-1.04,1.57-.13.19-.16.24.16-.34.27-.5.19-.41.04-.15-.13.21-.25.42-.25.42-.02,0,0-.09,0-.19,0-.03.05-.19.09-.37.03-.11.1-.36.16-.54.29-.87.33-.89.33-.82,0,.28.21-.03.42-.24.03-.02.05-.04.05-.01-.02.32.07.33.2.31ZM291.55,77.58c-.15.19-.44.57-.57.75-.63.82-.43.58.77-1.17.15-.16.33-.35.37-.36,0,0-.08.12-.19.27-.12.16-.26.36-.38.51ZM276.97,35c.38-.14.84-.19,1.13.81-.36,1.55-.66,2.04-1.19,1.69-.44-.28-.84-.35-1.29-.16-.26.11-.58-.13-.81-.48-.28-.41-.48-.52-.79-.2-.47.47-.96.89-1.48.25-.15-.18-.37.02-.56.07l-2.19.51c-.12.03-.25.08-.37.06v-2.65c.44-.04.87.01,1.31.03.25.01.52.15.76.02.69-.36,1.37-.32,2.08-.09,1.12.37,2.26.57,3.41.15ZM309.02,27.48c.25-.63.97-1.09,1.65-.92,1.81.41,3.57.77,5.34,1.09,1.68.43,3.43.78,4.86,1.49,1.16.56,2.48.83,3.64,1.42,1.45.68,2.86,1.48,4.14,2.5,1.94,1.56,3.97,3.3,5.81,5.18,1.04,1.05,1.89,2.2,2.65,3.39.71,1.2,1.39,2.41,1.97,3.64.45.9.86,1.82,1.28,2.74.37.96.71,1.96,1.06,2.95.18.47.3,1,.4,1.54.1.54.19,1.08.26,1.63.04.37-.19.86-.35,1.4-1.45.16-1.9-.43-2.08-1.27l-.32-1.35-.39-1.26c-.27-.83-.49-1.71-.76-2.52-.17-.5-.31-1.02-.49-1.51-.2-.48-.45-.93-.8-1.31-.22-.24-.38-.58-.44-.95-.25-1.5-1.54-2.29-1.8-3.92-.06-.29-.48-.39-.74-.57-.34-.24-.67-.54-1.09-.69-.84-.31-.18-1.84-1.28-1.96-.92-.08-1.22-.84-1.72-1.4-.44-.54-1.08-.84-1.63-1.25-.13-.08-.31-.1-.44-.19-1.99-1.32-4.02-2.34-6.18-3.13-.81-.26-1.49-.71-2.29-1.02-.39-.17-.79-.32-1.21-.42-.44-.1-.93-.12-1.44-.09-.35.03-.63-.14-.91-.26l-.99-.43c-.33-.14-.7-.25-1.05-.37-.21-.07-.47-.05-.62-.19-.38-.35-.8-.63-1.3-.76-.51-.1-1.09-.07-1.75.16-.12.04-.23-.03-.34-.05-.6-.15-.89-.74-.65-1.33ZM305.42,34.98c1.2-.09,2.31.05,3.45.1h0c.91.09,1.81.2,2.7.31.3.03.59.09.81.25.29.22.62.56.13,1.27-.33.47-.88.79-1.33,1.15-.1.08-.24.09-.3.04-.49-.3-1.18-.28-1.81-.35-.63-.07-1.23-.19-1.69-.67-.37-.41-.94-.36-1.57-.14-.5.18-1.04.34-1.21-.25-.07-.25-.07-.71.07-1,.13-.29.56-.69.75-.7ZM277.7,27.26c.77-.62,1.42-.55,2.04-.34,1.03.35,2.05-.03,3.07-.02,1.18,0,2.36-.2,3.54-.24.8-.02,1.59-.14,2.39-.28l1.19-.22c.11-.02.17-.04.32-.05l.6-.05,1.19-.1c.58-.04,1.15,0,1.73.02,4.05.18,8.1.35,12.15.53.74.03,1.43.22,2.23.36-.15.44-.19.83-.36,1.01-.32.35-.72.66-1.08.83-.3.14-.63.08-.91.03-3-.54-6.32.15-9.42.25-.36.01-.72-.06-1.07-.11-.35-.05-.7-.21-1.05-.18-1.27.12-2.53.17-3.79.16h-.37s-.25-.02-.25-.02l-.5-.05c-.33-.04-.66-.1-.99-.17-.9-.21-1.76.67-2.64.07-.14-.1-.31.1-.47.15-.22.08-.45.27-.67.22-1.28-.28-2.55.08-3.82.19-.13.01-.27.05-.38-.06-.56-.54-1.11-.54-1.69-.24-.2.11-.46,0-.64-.25-.14-.19-.19-.76-.35-1.43ZM269.41,26.67c.13-.09.27-.15.4-.15,1.28.01,2.56-.03,3.83.26.56.12,1.13.23,1.69.32.34.05.67.24,1.03-.16.18-.21.47.15.84.3-.13.75-.16,1.35-.26,1.42-.3.22-.69.55-.92.24-.23-.31-.38-.28-.59-.16-.64.35-.64.32-1.22-.69-.76.99-1.6.7-2.41.77-.8.06-1.6.12-2.4.16v-2.29ZM292.8,82.3c-1.02.14-1.64,0-1.74-.28-.09-.26.15-.56.36-.83.05-.06.58-.12.82-.09.23.03.5.18.52.28.07.29.03.59.04.91ZM292.17,77.4c-.9.89-1.11,1.09-1.41,1.39-.47.46-.31.34.53-.66-.2.22-.42.46-.62.68-.18.2,0-.01.42-.55.31-.4.98-1.24,1.1-1.35.14-.13.37-.35.22-.14-.31.44-.01.16.14.07.15-.09-.11.24-.38.55ZM298.82,78.47c-.14-.32.13-.69.16-1.04,0-.14-.09-.25-.16-.37-.01-.02-.12-.02-.1-.05.18-.33.11-.6.29-.95.1-.2.07-.36-.06-.46-.19-.14-.15-.37,0-.68.1-.2-.23-.18-.23-.33,0-.3.11-.66.13-.99,0-.14-.12-.2-.1-.35.04-.58-.05-1.2-.57-1.43-.26-.1-.19-.53-.5-.57-.07-.01-.2.03-.1-.16.36-.71-.23-.35-.46-.35-.07,0-.29.17-.28.07.05-.65-.52-.51-.92-.53-.53-.02-1.18.2-1.71.24-.24.02-.39-.19-.62-.24-.19-.05-.42.03-.61-.04-.14-.05-.25-.24-.38-.4-.09-.12-.17-.35-.41.15-.33.7-.55,1.21-.48-.09-.46.7-.71.77-.92-.44.06-.22.13-.52.17-.53.18-.01.48-.87.65-.67.28.34.57.33.93.13.71-.41,1.34-.28,1.92-.17.68.13,1.59-.2,2.28-.08.34.06.87-.17,1.06.14.22.39.83.27,1.27.45.39.16.75.42,1.06.72.24.24.53.46.68.76.05.07.06.17-.01.34-.29.67-.21.97.07,1.15.13.09-.17.49-.17.66,0,.59.06,1.14.03,1.74-.03.45.39.75.31,1.25-.07.45-.16.89-.17,1.31-.01.47,0,.93.04,1.39.79.07.02.32.23.46.21.15-.32.32-.15.47.08.08.12.16.12.24,0,.04,0,.08-.02.12l-.04.3c-.07.4-.17.79-.14,1.19.05.6.1,1.19.04,1.79-.05.55.25,1.13-.02,1.67-.55,1.11.62,2.25,0,3.36-.14.26-.27.51-1.25.49-.63-.01-.91-.25-.77-.6.52-1.28-.56-2.32-.08-3.6.13-.36-.2-.97-.19-1.33.05-1.05-.04-2.09.17-3.14.03-.16.05-.15.06-.2.02-.04.03-.08.04-.12.02-.08.01-.16,0-.23-.02-.15-.09-.3-.15-.45ZM292.52,77.43c-.06.07-.34.32-.51.47-.34.27-.57.45-.6.48-.1.07-.18.12-.19.12.04-.03.35-.3.54-.47.59-.51.82-.68.76-.61ZM292.05,77.73c-1.06.92-1.48,1.3-1.13.96.36-.34.9-.85,1.52-1.44.35-.26.36-.24-.39.48ZM292.67,79.14c-.05.02-.25.04-.47.07-1.34.08-1.67.12-1.54.09.11-.02.31-.06.3-.07-.01-.01-.23.02-.37.04-.07.01-.35.07-.26.05.52-.14-.15.02-.12.03.03,0,.24-.09.32-.15.07-.04.11-.08-.28.12-.14.08.03-.02.1-.06.16-.09.33-.22.26-.18-.09.05-.01,0,.27-.25.1-.08.26-.2.43-.34.29-.22.7-.54,1.02-.79.16-.12.34-.24.34-.24.02.1.46-.07.41.11-.02.06-.35.29-.25.27.46-.07-.17.44-.19.59-.01.08.22.08.27.15.1.13.46.31-.25.55ZM292.33,80.13c-.93-.26-1.44-.47-1.59-.72-.15-.1.06-.03.57-.09,1.57-.05,1.64-.05,1.63,0,0-.14.53.58-.61.81ZM324.87,57.36c1.09.15.32,1.55.77,2.15.26.34.16.95.08,1.51-.04.25-.4.64-.75,1.15-.93-.37-1.45-.99-1.62-1.74-.17-.76.05-1.71.56-2.72-1.25.13-1.4-.52-.87-1.75.23-.56.11-.85-.34-.88-.09,0-.15-.05-.23-.07-.43-.09-.38-.52-.1-1.09.3-.59.85-.91,1.38-1.18.23.19.72.26.66.61-.36,1.62,1.2,1.91.59,3.58-.06.16-.21.43-.13.44ZM317.1,36.93c.31-.03.53-.08.73-.07.19.01.36.07.52.14,1.34.64,2.64,1.35,3.85,2.19-.18.68-.6,1.02-1.08,1.21-.99.37-1.7.31-2.22-.05-.68-.44-1.11-1.18-2.17-1.14-.81.04-.63-.66.38-2.29ZM341.69,81.81c1.09.28,1.2.62.79,1.01-.89.12-1.57.02-1.82-.36-.21-.31.05-.56,1.03-.66ZM302.84,61.17c.54-.8,1.17-1.32,1.56-1.25,1.27.26,2.57.74,3.49,1.83-.32.36-.66.81-.98,1.08-.41.36-.87.68-1.17.85-.66.37-1.1.52-.97.02.21-.79-.18-.97-.73-.9-.16.01-.28-.02-.33-.13-.15-.35-.24-.79-1.13-.11-.04.03-.06.02-.08.02-.32.02-.15-.64.35-1.4ZM322.64,41.97c-.13-.37-.2-.76.39-1.36.54-.55,1-.74,1.49-.39.48.36.86.81,1.21,1.22-.34.76-.66,1.19-1.31,1.25-.86.06-1.56.02-1.77-.72ZM312.22,52.88c.12.07.13.43.02.53-.24.23-.73.6-.91.61-.4,0-.83.03-1.02-.19-.27-.3-.65-.39-1.13-.38-.1,0-.22,0-.25-.07-.05-.15-.04-.35-.06-.53.25-.19.51-.41.71-.48.27-.09.5-.03.72,0,.22.03.42.1.59.14.48.11.95.17,1.33.37ZM313.3,37.88c-.05-.21.04-.7.21-.93.26-.34.68-.67.99-.79.27-.11.45.09.66.16.21.07.48.07.61.24.11.15.17.49.04.75-.14.29-.51.68-.77.86-.8.54-1.55.4-1.73-.29ZM316.88,71.93c-.53-.28-.57-.41-.18-.71.09-.07.32-.16.38-.15.45.14.31.46,0,.79-.12.04-.19.08-.2.07ZM276.62,43.65c2.04-.46,4.1-.22,6.14-.59.5-.09.98.07,1.5.6-.23,1.83-.74,2.1-1.3,1.81-.5-.26-.97-.38-1.45.08-.03.03-.06.07-.1.06-1.72-.46-3.41.87-5.14.24-.55-.2-1.13.06-1.69-.08-1.52-.4-3.05-.19-4.57-.16-.21,0-.42,0-.62-.09v-2.28c.24-.17.5-.27.75-.25.73.05,1.45.24,2.18.31,1.29.12,2.59.2,3.88.29.13,0,.27.07.4.04ZM269.85,70.61c-.14-.01-.3-.02-.44-.07v-2.51c.14,0,.29.05.42.1,1.89.85,3.76.31,5.67.18.43-.03.87.02,1.3.07,1.32.14,2.64.33,3.97.41.57.04,1.15-.13,1.73-.21,1.55-.21,3.14.13,4.69-.05.61-.07,1.19.26,1.79.73-.14.96-.43,1.18-.77,1.2l-3.36.19c-.4.03-.79.12-1.19.2-1.18.26-2.41-.02-3.59.22-.25.05-.5-.08-.75-.11-.61-.08-1.24,0-1.84-.27-1.61-.71-3.21.63-4.81-.03-.95-.39-1.88.03-2.81-.04ZM317.7,88.9c0,.89-.07,1.77-.07,2.66,0,.44.14.88.13,1.32-.01.98-.08,1.97-.12,2.95l-.09,1.89c-.01.22-.06.44-.05.66.05,1.43.2,2.85.14,4.27-.06,1.49-.41,2.97-.24,4.46.04.37.14.76.01,1.13-.04.1-.02.21-.02.31h-1.49c-.05-.19-.18-.51-.2-.66.17-1.1.22-2.35.35-3.6.13-1.21-.05-2.44-.04-3.65,0-.63.23-1.26.15-1.88-.13-1.03.3-2.06-.06-3.08.51-1.63-.09-3.27.07-4.9.11-1.05.25-2.11-.06-3.17-.09-.3.07-.63.15-.94.15-.58.24-1.14-.11-1.72-.17-.27-.15-.64-.02-.93.17-.35.18-.66.03-1.02-.12-.27-.07-.57-.07-.85,0-.33.26-.52.86-.65.13.19.34.38.36.57.06.5.03,1,.06,1.5.04.57.13,1.14.16,1.7l.08,2.1c.02.5.09,1.01.09,1.51ZM306.76,107.55c.02-.77.3-1.53.31-2.3.01-1.28-.07-2.57-.18-3.85-.08-.85.02-1.67,1.15-2.32-.34-.44-.83-.8-.83-1.16,0-.41.39-.82,2-1,.05.4.12.72.13,1.03l.23,5.18c0,.16-.15.32-.16.47-.06.77-.38,1.55-.05,2.3.28.64.19,1.27.29,1.91.04.29-.1.54-.44.74h-2.35c-.31-.32-.11-.68-.1-1.01ZM292.55,83.54c.1.08.05.2.06.3.1,1.48.26,2.96.28,4.44.05,3.88.05,7.75.05,11.63,0,.26-.22.53-.3.79-.26.93-.02,1.84-.02,2.77,0,1.07-.23,2.16-.07,3.22.09.59.33,1.19.2,1.86h-1.79c-.11-.16-.17-.32-.16-.47.03-.75.26-1.49.13-2.22-.11-.63-.04-1.26-.6-1.87-.1-.11-.02-.26.05-.39.33-.63.58-1.25.25-1.9-.1-.19,0-.41.16-.6.92-1.1-.79-2.26.2-3.36.1-.11.02-.28-.09-.4-.37-.4-.24-.78-.03-1.19.21-.42.2-.87.2-1.3,0-.5-.07-1.01-.11-1.52-.07-.77-.31-1.55-.17-2.31.13-.67.45-1.33-.01-2-.1-.15-.01-.34.04-.5.5-1.51.35-3.02.12-4.54-.02-.16-.03-.35.14-.48.16-.12.56-.23.9-.25.16-.01.46.16.6.27ZM334.71,104.41c.23.71.27,1.38-.09,2.08-.12.24.01.51.02.76.02.44.07.87.03,1.31h-2.65c-.03-.12.03-.24.06-.37l.51-2.19c.04-.19.25-.42.07-.56-.64-.53-.22-1.01.25-1.48.31-.31.21-.52-.2-.79-.34-.23-.59-.55-.48-.81.19-.45.12-.85-.16-1.29-.35-.54.14-.83,1.69-1.19,1,.29.95.75.81,1.13-.42,1.15-.22,2.29.15,3.41ZM340.61,108.56c.04-.8.09-1.6.16-2.4.07-.82-.23-1.65.77-2.41-1.02-.58-1.04-.58-.69-1.22.12-.22.15-.36-.16-.59-.31-.23.03-.62.24-.92.07-.09.67-.13,1.42-.26.15.37.51.66.3.84-.4.36-.21.69-.16,1.03.09.56.19,1.13.32,1.69.28,1.27.24,2.55.26,3.83,0,.13-.06.27-.15.4h-2.29ZM325.96,101.75c.1,1.29.17,2.59.29,3.88.07.73.26,1.45.31,2.18.02.25-.08.51-.25.75h-2.28c-.09-.2-.1-.41-.09-.62.02-1.52.24-3.05-.16-4.57-.15-.56.12-1.14-.08-1.69-.62-1.72.71-3.42.24-5.14,0-.03.03-.06.06-.1.46-.48.34-.95.08-1.45-.29-.56-.02-1.07,1.81-1.3.53.52.69,1,.6,1.5-.37,2.04-.13,4.1-.59,6.14-.03.13.03.26.04.4ZM298.91,105.31c-.65-1.6.69-3.2-.03-4.81-.26-.6-.19-1.22-.27-1.84-.03-.25-.16-.51-.11-.75.24-1.18-.04-2.41.22-3.59.09-.4.18-.79.2-1.19l.19-3.36c.02-.35.24-.63,1.2-.77.47.6.8,1.18.73,1.79-.18,1.55.16,3.14-.05,4.69-.08.58-.25,1.15-.21,1.73.08,1.32.28,2.64.41,3.97.04.43.1.87.07,1.3-.13,1.92-.67,3.78.18,5.67.06.13.11.28.1.42h-2.51c-.05-.14-.06-.3-.07-.44-.08-.94.34-1.86-.04-2.81ZM297.94,53.08c-.25.03-.51.06-.77.09.11-.57.32-.91.62-.94.29-.03.4.23.15.85ZM301.52,36.07c.14-.31.46-.71.68-.79.55-.2,1.07-.16,1.46.5-.76.82-1.31,1.48-1.87,1.22-.24-.11-.54-.34-.27-.94ZM332.54,51.64c-1.9.93-2.44.98-2.76.23-.16-.43-.34-.86-.52-1.29-.17-.44-.34-.87-.54-1.31-.29-.7-.17-.87,1.33-2.17,1.34,1.09,2.28,2.53,2.49,4.54ZM324.33,63.39c.24-.21,1.02-.53,1.17-.48.43.14.67.47.89.65-.08.36-.09.54-.18.75-.2.46-.91.88-1.49.91-1.03.05-1.32-1.01-.4-1.83ZM330.85,54.44c0-.25.28-.81.53-.98.42-.28,1.22-.61,1.35-.49.36.39.5.98.67,1.52.09.29.04.33-.88,1.4-1.77.37-1.65-.59-1.67-1.45ZM324.87,66.16c1.32.08,1.49.27.98.91-.32.41-1.01.67-1.38.52-.58-.25-.63-.62.4-1.43ZM321.38,48.76c.3.45.64.68-.1,1.32-.59.51-1.18.56-1.34.04-.06-.19.08-.65.3-.92.44-.55.99-.64,1.14-.43ZM290.13,35.34c-.22,1.33-.44,2-.91,1.91-.16-.03-.32.17-.48.15-2.33-.3-4.66.67-6.99.35-.83-.11-1.65-.35-2.48-.57-.15-.04-.32-.2-.42-.46-.1-.25-.16-.69-.15-1.03,0-.21.17-.54.28-.56.54-.09,1.1-.28,1.63-.08,1.27.48,2.54.68,3.83.33.44-.12.89-.02,1.34-.03.41,0,.83,0,1.24-.05.99-.12,1.98-.1,3.1.05ZM327.08,44.35c-.62.55-1.45.63-1.74.18-.2-.29.09-1.15.53-1.58.48-.45,1.62-.62,1.84-.23.18.3-.19,1.23-.64,1.62ZM329.3,46.44c-1.07.67-1.65.53-2.08.18-.3-.24-.12-.98.36-1.52.5-.57,1.34-.79,1.68-.44.34.38.38.52.04,1.77ZM323.23,51.03c.29.27.09.73-.43,1.23-.57.55-.97.57-1.23.37-.15-.11-.27-.27-.31-.47-.07-.34.19-.82.67-1.16.3-.21.66-.27.94-.28.18,0,.25.19.36.3Z"/></g><polygon class="cls-52" points="297.82 43.05 299.61 52.65 301.4 62.25 297.82 62.25 294.25 62.25 296.04 52.65 297.82 43.05"/><polygon class="cls-57" points="303.89 45.88 305.67 55.49 307.46 65.09 303.89 65.09 300.31 65.09 302.1 55.49 303.89 45.88"/><path class="cls-7" d="M311.6,66.43v29.88c-1.71-2.7-3.49-5.29-5.34-7.79v-29.89c3.13,1.21,5.34,4.24,5.34,7.8Z"/><rect class="cls-57" x="279.45" y="48.38" width=".69" height="10.52"/><polygon class="cls-57" points="282.39 54.97 281.16 51.77 282.04 51.25 280.99 48.73 281.56 48.37 281.03 47.88 279.89 43.86 279.41 45.55 279.06 46.77 278.27 47.53 278.62 47.94 278.27 49.19 277.7 49.87 277.97 50.33 277.62 51.28 278.58 51.82 277.44 54.55 277.26 54.97 282.39 54.97"/><polygon class="cls-57" points="280.14 56.45 280.14 58.99 279.45 58.99 279.45 55.88 280.14 56.45"/><polygon class="cls-57" points="277.44 54.55 278.06 54.18 279.02 51.89 278.06 51.35 278.41 50.4 278.14 49.93 278.71 49.26 279.06 48.01 278.71 47.6 279.5 46.84 279.64 46.36 279.41 45.55 279.06 46.77 278.27 47.53 278.62 47.94 278.27 49.19 277.7 49.87 277.97 50.33 277.62 51.28 278.58 51.82 277.44 54.55"/><circle class="cls-57" cx="279.13" cy="54.41" r=".21"/><circle class="cls-57" cx="281.47" cy="50.98" r=".21"/><circle class="cls-57" cx="280" cy="47.99" r=".21"/><circle class="cls-57" cx="294.38" cy="58.06" r="4.25"/><path class="cls-14" d="M317.97,93.76c-.25-.47-.52-.89-.88-1.17-.09-.07-.18-.13-.28-.17-.13-.07-.26-.15-.35-.25-.1-.11-.17-.24-.19-.42-.02-.17-.02-.33,0-.5.1.08.2.15.29.22.15.11.28.23.42.35.1.09.2.17.29.27.06.06.12.12.18.18.06.17.12.34.19.51.06.17.13.33.2.5.04.16.08.32.12.48Z"/><path class="cls-14" d="M317.97,93.76c-.25-.47-.52-.89-.88-1.17.06-.1.1-.2.13-.32.02-.06.03-.12.05-.19.06.06.12.12.18.18.06.17.12.34.19.51.06.17.13.33.2.5.04.16.08.32.12.48Z"/><path class="cls-14" d="M306.53,97.18c0,.22,0,.43,0,.64-.13,1.22-1.22,1.03-1.52,2.06-.25.8.15,1.65.22,2.5.01.17.01.33,0,.5-.02.18-.09.31-.19.42-.1.1-.22.18-.35.25-.1.05-.19.11-.28.17-.03.02-.06.05-.09.08.02-.23.04-.45,0-.67-.03-.19-.1-.37-.23-.54-.58-.81-1.97-.52-2.36-1.51-.05-.17-.09-.34-.12-.52-.1-.54-.15-1.09-.15-1.66,0-.24,0-.47.03-.7.04-.16.09-.32.15-.49.08-.28.25-.45.43-.68.52-.7,1.39-1.04,1.62-1.85.35-1.1-.46-2.71,1.02-3.11.29.3.6.58.87.97.17.26.33.44.44.77.08.19.14.38.2.56.06.27.1.55.15.83.1.67.16,1.34.18,1.99Z"/><path class="cls-14" d="M333.73,96.47c.07.21,0,.5-.11.67-.2.27-.42.52-.62.77-.1.13-.2.25-.3.38-.75.82-1.16,1.81-1.39,2.97-.05.39-.55.62-.95.84v.02c0,.15,0,.31-.01.47.07.21,0,.5-.11.67-.2.27-.42.52-.62.77-.1.12-.2.25-.3.37-.15.17-.29.34-.42.53.34.73.77,1.42,1.31,2.07.06.23.08.47.08.7,0,.15,0,.31-.01.47.06.21,0,.5-.11.67-.2.27-.42.52-.62.77-.1.13-.2.25-.31.38-.75.83-1.16,1.81-1.39,2.97-.06.46-.75.69-1.16.97-.15.1-.31.2-.46.3-.6.41-1.15.87-1.66,1.45-.14.13-.29.27-.43.4-.14.14-.28.28-.42.41-.13.1-.26.18-.4.24-.41.18-.84.2-1.26.28-.19.03-.38.04-.57.05-.19.01-.39.02-.59.02-.17,0-.35,0-.52-.01-.18-.01-.35-.03-.52-.04-.54,0-1.06-.12-1.47-.47-.4-.33-.77-.71-1.16-1.06.01.24-.01.48-.11.7-.06.15-.17.25-.32.32-.15.07-.32.12-.5.16-1.32.27-2.13,1.37-3.12,2.18-.4.35-.93.46-1.47.47-.17.02-.34.03-.52.04-.17,0-.35.01-.53.01-.19,0-.39,0-.58-.02-.05,0-.09,0-.14-.01-.02.38-.06.75-.13,1.12-.03.18-.07.35-.12.52-.4.99-1.79.7-2.37,1.51-.58.75.06,1.68-.29,2.49-.06.14-.17.25-.32.32-.15.07-.32.12-.51.16-1.32.27-2.13,1.37-3.11,2.18-.41.35-.93.47-1.47.47-.17.02-.34.03-.52.04-.17.01-.35.01-.52.01-.2,0-.39,0-.59-.02-.19-.02-.38-.03-.57-.06-.42-.08-.85-.1-1.26-.28-.14-.06-.27-.13-.4-.24-.14-.14-.28-.27-.42-.41s-.28-.27-.43-.4c-.51-.58-1.06-1.04-1.66-1.45-.15-.1-.3-.2-.46-.3-.4-.27-1.1-.5-1.16-.97-.23-1.16-.64-2.14-1.39-2.97-.1-.13-.2-.25-.3-.38-.21-.25-.42-.5-.62-.77-.11-.17-.17-.46-.11-.67,0-.16-.01-.31-.01-.47,0-.24.02-.47.07-.7.58-.7,1.02-1.43,1.38-2.21-.1-.13-.2-.26-.32-.39-.1-.13-.2-.25-.31-.38-.2-.25-.42-.5-.62-.77-.12-.17-.17-.46-.11-.67,0-.13-.01-.27-.01-.4-.41-.26-1.05-.49-1.11-.94-.23-1.16-.64-2.14-1.39-2.97-.1-.13-.2-.25-.3-.38-.2-.25-.42-.5-.62-.77-.12-.17-.17-.47-.11-.67,0-.16-.01-.31-.01-.47,0-.24.02-.47.08-.7.57-.7,1.02-1.43,1.37-2.21-.1-.13-.2-.27-.32-.39-.1-.13-.2-.25-.3-.38-.2-.25-.42-.5-.62-.77-.11-.17-.17-.47-.11-.67,0-.16-.01-.31-.01-.47,0-.24.02-.47.07-.7,1.21-1.47,1.84-3.09,2.28-4.92.07-.16.14-.33.21-.5.06-.17.13-.34.19-.52.15-.15.31-.31.48-.45.14-.12.28-.24.42-.35.42-.3.86-.7,1.35-.85-.06-.09-.12-.17-.18-.27-.11-.19-.21-.53-.2-.79-.03-.18-.06-.37-.09-.56-.04-.28-.07-.56-.07-.84.65-1.88.85-3.88.86-6.1.03-.2.05-.41.07-.61.02-.21.04-.42.05-.63.09-.2.18-.4.28-.59.08-.16.17-.31.26-.46.37-.57.74-1.39,1.34-1.27,1.3.38,2.13-.94,3.14-1.65.08-.05.18-.06.28-.07.1,0,.19,0,.27,0,.38.06.79.14,1.11.45.76.89,1.59,1.34,2.43,1.74.14.06.29.13.43.19,1.2.3.87,2.32,1.32,3.59.16.46.4.77.68,1.06,0,0,.01,0,.02,0,.17-.07.35-.14.52-.21,1.03-.42,2.02-.89,2.84-1.72.35-.29.87-.41,1.36-.51.1,0,.23-.03.35-.04.13,0,.26,0,.37.02,1.45.46,2.78,1.45,4.4.98.13-.03.26-.04.38-.02.03-.3.06-.6.11-.91.04-.28.09-.56.14-.83.06-.19.12-.38.2-.56.06-.19.14-.34.24-.48-.32-.23-.61-.49-.68-1.09,0-.21,0-.42,0-.64.02-.65.08-1.31.18-1.99.04-.28.09-.56.14-.83.06-.19.12-.38.2-.56.11-.32.27-.51.44-.77.51-.77,1.23-1.09,1.54-2.03.45-1.27.12-3.29,1.32-3.59.14-.07.29-.13.43-.19.85-.39,1.67-.84,2.44-1.73.31-.31.72-.39,1.11-.45.08,0,.17-.01.27,0,.1,0,.2.02.28.06,1.01.71,1.84,2.03,3.14,1.65.6-.12.97.71,1.34,1.27.09.15.17.3.26.46.1.19.19.38.28.59.02.21.03.42.05.63.02.21.04.41.07.62,0,2.22.21,4.22.86,6.1,0,.28-.02.56-.06.84-.03.18-.06.37-.09.56.01.25-.08.59-.2.78-.06.09-.12.18-.18.27.49.15.93.55,1.34.85.15.11.29.23.42.35.16.14.33.29.48.45.06.17.12.34.19.51.07.17.14.33.21.5.43,1.83,1.07,3.45,2.28,4.92.06.23.08.46.08.7,0,.16,0,.31-.01.47.06.21,0,.5-.11.67-.2.27-.42.52-.62.77-.1.13-.2.25-.3.38-.15.17-.29.34-.42.52.34.73.77,1.42,1.31,2.07.06.23.07.46.07.7,0,.16,0,.31-.01.47Z"/><path class="cls-14" d="M317.97,93.76c-.25-.47-.52-.89-.88-1.17-.09-.07-.18-.13-.28-.17-.13-.07-.26-.15-.35-.25-.1-.11-.17-.24-.19-.42-.02-.17-.02-.33,0-.5.1.08.2.15.29.22.15.11.28.23.42.35.1.09.2.17.29.27.06.06.12.12.18.18.06.17.12.34.19.51.06.17.13.33.2.5.04.16.08.32.12.48Z"/><path class="cls-16" d="M320.34,68.95c-2.05,6.81-3.22,14.62-3.22,22.93,0,6.01.6,11.75,1.72,17.04.22,1.04.45,2.06.72,3.07-.53-1.16-1.08-2.3-1.63-3.42-2.11-4.28-3.85-8.37-6.32-12.27v-29.88c0-3.63-2.46-6.85-5.35-7.8,2.35-3.53,3.8-6.85,5.78-9.87,4.59.03,8.3,3.77,8.3,8.36v11.83Z"/><line class="cls-23" x1="305.54" y1="58.27" x2="305.49" y2="58.37"/><path class="cls-30" d="M306.26,58.63v29.89c-3.19-4.31-6.57-8.32-10.07-11.98-1.89-1.99-3.82-3.87-5.77-5.66-5.72-5.22-11.63-9.54-17.43-12.81h30.24c.78,0,1.54.11,2.25.31.26.07.52.16.77.26Z"/></g></svg>