<?xml version="1.0" encoding="UTF-8"?><svg id="Layer_2" xmlns="http://www.w3.org/2000/svg" viewBox="0 0 87.11 76.31"><defs><style>.cls-1{fill:#272526;}</style></defs><g id="Layer_1-2"><path class="cls-1" d="M10.88,76.31C3.81,66.99,0,54.28,0,41.74,0,17.37,18.64,0,43,0s44.11,17.36,44.11,41.73c0,9-2.7,17.38-7.33,24.35-3.88-2.5-9.64-4.08-16.08-4.08-2.65,0-5.19.27-7.53.76-.46.1-.91.2-1.36.32.51-.23,1.01-.48,1.51-.72,17.7-8.74,28.28-25.21,24.92-34.2-3.68-9.85-23.56-11.51-44.4-3.72C16.02,32.24,2.12,46.54,5.8,56.39h14.35c17.82,0,15.44-15.73,25.14-15.73-3.76,2.55-7.36,7.46-9.57,13.64-1.44,4.01-2.09,7.98-2.02,11.47.07,3.21.75,6.01,1.99,8.04-2.82-.77-5.99-1.2-9.35-1.2-6.1,0-11.6,1.42-15.46,3.7Z"/></g></svg>