<?xml version="1.0" encoding="UTF-8"?><svg id="Layer_2" xmlns="http://www.w3.org/2000/svg" viewBox="0 0 569.32 385.47"><defs><style>.cls-1{fill:#282526;}</style></defs><g id="Gradient"><path class="cls-1" d="M521.48,220.14c-.18.68-.39,1.37-.61,2.05h-8.04l1.68-2.05h6.97Z"/><path class="cls-1" d="M518.47,214.18l4.09,1.71c-.47,2.12-1.03,4.21-1.69,6.3h-3.66v-8.53l1.26.52Z"/><polygon class="cls-1" points="529.01 227.52 528.26 227.83 528 227.39 528.02 227.28 529.01 227.52"/><rect class="cls-1" x="505.3" y="220.14" width=".26" height="2.05"/><path class="cls-1" d="M522.56,215.89c-.09.43-.19.85-.29,1.27l-2.71-1.13-1.09-1.85,4.09,1.71Z"/><polygon class="cls-1" points="529.01 227.52 528.26 227.83 528 227.39 528.02 227.28 529.01 227.52"/><polygon class="cls-1" points="527.54 229.49 528 227.39 527.6 229.5 527.54 229.49"/><polygon class="cls-1" points="528.02 227.28 529.01 227.52 528.26 227.83 528 227.39 528.02 227.28"/><path class="cls-1" d="M556.73,234.13c-.13-.02-3.12.98-3.24.83l3.24-.83Z"/><polygon class="cls-1" points="492.92 269.42 488.84 270.05 488.84 268.61 492.92 269.42"/><polygon class="cls-1" points="492.92 269.42 488.84 270.05 488.84 268.61 492.92 269.42"/><path class="cls-1" d="M337.75,195.92c0,.22,0,.44.01.66-.02-.65-.04-1.31-.04-1.96,0,.43.02.87.03,1.3Z"/><path class="cls-1" d="M337.9,184.96c.01-.28.02-.57.04-.85,0,.28-.03.57-.04.85Z"/><path class="cls-1" d="M338.1,203.23c0,.14,0,.29.02.43-.04-.46-.08-.92-.1-1.38.02.32.05.64.08.95Z"/><path class="cls-1" d="M338.45,177.61c.02-.15.03-.31.05-.46-.04.42-.08.86-.13,1.27.03-.27.05-.54.08-.81Z"/><path class="cls-1" d="M339.2,171.43c.02-.08.03-.17.04-.25-.11.78-.21,1.55-.32,2.33.09-.7.19-1.38.28-2.08Z"/><path class="cls-1" d="M340.07,166.09c.13-.72.27-1.44.41-2.16-.28,1.45-.54,2.88-.78,4.33.12-.73.24-1.45.37-2.17Z"/><path class="cls-1" d="M341.56,158.89c.12-.52.25-1.04.38-1.57-.14.58-.27,1.17-.42,1.75.01-.06.03-.12.04-.18Z"/><path class="cls-1" d="M344.44,148.35c.1-.32.2-.65.31-.97-.1.29-.17.57-.26.86-.27.78-.49,1.59-.74,2.38.22-.76.44-1.52.69-2.27Z"/><path class="cls-1" d="M346.08,143.41c.2-.57.41-1.15.62-1.72-.19.57-.42,1.15-.62,1.72Z"/><path class="cls-1" d="M351.31,130.61c.23-.53.48-1.05.73-1.58-.25.52-.47,1.06-.73,1.58Z"/><path class="cls-1" d="M356.66,120.15c.19-.33.38-.67.58-1-.14.25-.42.75-.58,1Z"/><path class="cls-1" d="M357.24,119.15c.31-.57.64-1.13.97-1.68-.33.55-.63,1.12-.97,1.68Z"/><path class="cls-1" d="M362.36,274.25c.08.13.17.26.26.39-.12-.18-.25-.35-.36-.53.04.05.07.09.1.14Z"/><path class="cls-1" d="M366.15,279.66c.07.1.14.2.21.3-.3-.4-.6-.81-.89-1.21.22.3.45.61.68.91Z"/><path class="cls-1" d="M371.37,98.75c.24-.3.48-.6.74-.9-.24.3-.49.6-.74.9Z"/><path class="cls-1" d="M395.63,309.78c.09.08.18.15.28.23-.43-.33-.85-.66-1.28-1,.33.26.66.52,1,.77Z"/><path class="cls-1" d="M442.59,333.84h.02,0s-.03,0-.05-.01v-.03s.03.03.04.04Z"/><polygon class="cls-1" points="488.84 268.61 492.92 269.42 488.84 270.05 488.84 268.61"/><rect class="cls-1" x="505.3" y="220.14" width=".26" height="2.05"/><path class="cls-1" d="M519.18,179.88l-1.57-.24,1.33-.27c.09.17.17.34.24.51Z"/><path class="cls-1" d="M522.56,215.89c-.47,2.12-1.03,4.21-1.69,6.3h-8.04l1.68-2.05h2.7v-6.48c.84.34,4.45,1.85,5.35,2.23Z"/><path class="cls-1" d="M442.55,333.8s.03.03.04.04h-.04v-.04Z"/><path class="cls-1" d="M502.91,330.99c-.35.25-.9.25-1.24,0h1.24Z"/><path class="cls-1" d="M434.88,331.28s.01.01.02.01c-.01,0-.02,0-.03-.01h.01Z"/><path class="cls-1" d="M440.08,333.07c.27.08.53.17.8.25-.27-.07-.53-.17-.8-.25Z"/><path class="cls-1" d="M442.59,333.84s-.03,0-.04-.01v-.03s.03.03.04.04Z"/><path class="cls-1" d="M503.4,330.07c.01,1.44-2.24,1.44-2.22,0-.03-1.44,2.24-1.44,2.22,0Z"/><path class="cls-1" d="M474.18,328.55c.02,1.45-2.25,1.44-2.23,0-.02-1.43,2.25-1.44,2.23,0Z"/><path class="cls-1" d="M474.18,328.55c.02,1.45-2.25,1.44-2.23,0-.02-1.43,2.25-1.44,2.23,0Z"/><path class="cls-1" d="M474.18,328.55c.02,1.45-2.25,1.44-2.23,0-.02-1.43,2.25-1.44,2.23,0Z"/><path class="cls-1" d="M503.4,330.07c.01,1.44-2.24,1.44-2.22,0-.03-1.44,2.24-1.44,2.22,0Z"/><path class="cls-1" d="M534.78,98.34l25.85-5.16c-7.07-1.41-23.11-4.62-30.23-6.05.25-.29.5-.58.74-.87,8.54-1.31,29.42-4.53,38.18-5.88-7.62-1.17-22.57-3.48-30.2-4.65,3.67-5.56,6.5-11.21,8.27-17-78.49-37.95-177.93,5.8-202.9,89.51-20.89,63.49,7.21,137.4,65.02,170.97,0,.01.01.01.01.01,8.04,4.82,16.54,8.88,25.36,12.06,2.52.94,5.1,1.77,7.67,2.55v-.03s.03.03.04.04h25.76l-4.02,4.41s.03,0,.08-.01l-10.53,11.72c7.9-4.21,22.82-11.94,30.62-16.12h9.63c-2.95,3.4-9.63,11.14-12.66,14.64l19.52-8.06,16.91-6.92c1.25-.51,1.09-1.76,0-2.17-9.81-4.01-26.5-10.86-36.43-14.97l12.65,14.63h-9.62c-6.83-3.68-20.37-10.66-27.21-14.31,5.88-6.94,11.5-13.65,16.79-20.13,6.16-.95,32.36-4.98,39.02-6.01-5.32-.83-24.8-3.8-30.44-4.7.77-.98,1.53-1.95,2.28-2.92,7.69-1.53,29.78-5.94,37.77-7.54-5.75-1.15-22.02-4.4-27.93-5.59.19-.25.37-.49.54-.74,10.09-1.55,31.81-4.89,42.04-6.47-9.25-1.42-24.79-3.82-34.02-5.24,3.9-6,7.31-11.81,10.18-17.45l13.46-1.71.64,3.42c1.63-.41,28.63-7.35,29.11-7.47l-27.72-6.61-.75.31-.26-.44-.4,2.11h-.06c.02-.12.47-2.12.48-2.22l.99.24,6.75-2.81,1.05,1.69,1.45-1.56,11.93-3.38c-2.1-.61-6.55-1.88-8.63-2.47l-2.25-2.34-1.21,1.04-3.71-1.04-2.02-1.69-1.37.78-2.82-1.04-1.62,2.86-4-1.67c-.47,2.12-1.03,4.21-1.69,6.3h-8.04l1.68-2.05h2.7v-6.48c.84.34,4.45,1.85,5.35,2.23,1.89-8.45,2.13-16.56.49-24.44,9.83-1.51,25.79-3.98,35.63-5.49-10.23-1.58-31.01-4.78-41.07-6.32,8.2-1.65,24.18-4.84,32.38-6.48-9.29-1.85-31.33-6.25-40.37-8.06-.46-.56-.94-1.12-1.44-1.68,8-1.4,26.7-4.16,34.66-5.42-11.43-1.76-37.08-5.71-48.26-7.43-5.85-4.72-12.64-9.42-20.44-14.14,8.37-6.62,16.7-13.15,24.6-19.65,13.46-2.07,41.19-6.34,54.74-8.43-9.86-1.54-28.63-4.31-38.44-6.06l.6-.12,19.14-3.83ZM501.18,330.07c-.03-1.44,2.24-1.44,2.22,0,.01,1.44-2.24,1.44-2.22,0ZM473.07,327.44c1.44-.02,1.44,2.25,0,2.22-1.45.03-1.45-2.24,0-2.22ZM488.84,270.05v-1.44l4.08.81-4.08.63ZM505.56,222.19h-.26v-2.05h.26v2.05Z"/><path class="cls-1" d="M340.91,223.34c.18.85.37,1.7.57,2.55-.2-.84-.39-1.7-.57-2.55Z"/><path class="cls-1" d="M343.39,233.27c.12.43.24.85.37,1.27-.14-.43-.25-.84-.37-1.27Z"/><path class="cls-1" d="M429,329c.4.17.8.34,1.21.5-.46-.19-.92-.36-1.37-.56.05.02.1.04.16.06Z"/><path class="cls-1" d="M440.08,333.07c.27.08.53.17.8.25-.27-.07-.53-.17-.8-.25Z"/><path class="cls-1" d="M442.55,333.8s.03.03.04.04c-.02,0-.03,0-.04-.01v-.03Z"/><path class="cls-1" d="M515.64,102.17c-.07.07-.13.13-.2.19l-.4-.07.6-.12Z"/><path class="cls-1" d="M544.85,371.35c-20.11,8.71-41.93,13.24-63.81,13.93t-.02,0c-103.72,4.85-194.85-84.69-195.55-187.9l-9.02.21-253.7,6c-1.36,30.75-6.02,62.4-19.3,90.59H1.15C-.37,226.61-.4,157.65,1.15,90.08h2.3c13.48,28.44,18.1,60.43,19.37,91.47l262.67,6.21c1.07-125.14,130.36-220.63,249.15-177.05-173.16-32.38-296.4,162.49-182.55,300.4,45.91,55.07,123.75,77.83,192.76,60.24Z"/></g></svg>