<?xml version="1.0" encoding="UTF-8"?><svg id="Layer_2" xmlns="http://www.w3.org/2000/svg" viewBox="0 0 569.32 385.47"><defs><style>.cls-1{fill:#f8f3df;}</style></defs><g id="Gradient"><path class="cls-1" d="M534.78,98.34l25.85-5.16c-7.07-1.41-23.11-4.62-30.23-6.05.25-.29.5-.58.74-.87,8.54-1.31,29.42-4.53,38.18-5.88-7.62-1.17-22.57-3.48-30.2-4.65,3.67-5.56,6.5-11.21,8.27-17-78.49-37.95-177.93,5.8-202.9,89.51-20.89,63.49,7.21,137.4,65.02,170.97,0,.01.01.01.01.01,8.04,4.82,16.54,8.88,25.36,12.06,2.52.94,5.1,1.78,7.67,2.55v-.03l.04.04h25.76l-4.02,4.41s.03,0,.08-.01l-10.53,11.72c7.9-4.21,22.82-11.94,30.62-16.12h9.63c-2.95,3.4-9.63,11.14-12.66,14.64l19.52-8.06,16.91-6.92c1.25-.51,1.09-1.76,0-2.17-9.81-4.01-26.5-10.86-36.43-14.97l12.65,14.63h-9.62c-6.83-3.68-20.37-10.66-27.21-14.31,5.88-6.94,11.5-13.65,16.79-20.13,6.16-.95,32.36-4.98,39.02-6.01-5.32-.83-24.8-3.8-30.44-4.7.77-.98,1.53-1.95,2.28-2.92,7.69-1.53,29.78-5.94,37.77-7.54-5.75-1.15-22.02-4.4-27.93-5.59.19-.25.37-.49.54-.74,10.09-1.55,31.81-4.89,42.04-6.47-9.25-1.42-24.79-3.82-34.02-5.24,3.9-6,7.31-11.81,10.18-17.45l13.46-1.71.64,3.42c1.63-.41,28.63-7.35,29.11-7.47l-27.72-6.61-.75.31-.26-.43h0c.01-.07.02-.11.02-.12l.99.24,6.75-2.81,1.05,1.69,1.45-1.56,11.93-3.38c-2.1-.61-6.55-1.88-8.63-2.47l-2.25-2.34-1.21,1.04-3.71-1.04-2.02-1.69-1.37.78-2.82-1.04-1.62,2.86-4-1.67c-.47,2.12-1.03,4.22-1.69,6.3h-8.04l1.68-2.05h2.7v-6.48c.84.34,4.45,1.85,5.35,2.23,1.89-8.45,2.13-16.56.49-24.44,9.83-1.51,25.79-3.97,35.63-5.49-10.23-1.58-31.01-4.78-41.07-6.32,8.2-1.65,24.18-4.84,32.38-6.48-9.29-1.85-31.33-6.25-40.37-8.06-.46-.56-.94-1.12-1.44-1.68,8-1.4,26.7-4.16,34.66-5.42-11.43-1.76-37.08-5.71-48.26-7.43-5.85-4.72-12.64-9.42-20.44-14.14,8.37-6.62,16.7-13.15,24.6-19.65,13.46-2.07,41.19-6.34,54.74-8.43-9.86-1.54-28.63-4.31-38.44-6.06l.6-.12,19.14-3.83ZM527.92,227.79l-.32,1.71h-.06c.02-.09.24-1.09.38-1.71Z"/><path class="cls-1" d="M544.85,371.35c-20.11,8.71-41.93,13.24-63.81,13.93t-.02,0c-103.72,4.85-194.85-84.69-195.55-187.9l-9.02.21-253.7,6c-1.36,30.75-6.02,62.4-19.3,90.59H1.15C-.37,226.61-.4,157.65,1.15,90.08h2.3c13.48,28.44,18.1,60.43,19.37,91.47l262.67,6.21c1.07-125.14,130.36-220.63,249.15-177.05-173.16-32.38-296.4,162.49-182.55,300.4,45.91,55.07,123.75,77.83,192.76,60.24Z"/></g></svg>