<?xml version="1.0" encoding="UTF-8"?><svg id="Layer_2" xmlns="http://www.w3.org/2000/svg" viewBox="0 0 319.33 368.69"><defs><style>.cls-1{fill:#f8f3df;}</style></defs><g id="Layer_3"><path class="cls-1" d="M114.71,35.04c14.93,6.4,22.18,26.11,28.35,47.98,1.1,3.92,2.16,7.91,3.24,11.89-2.47-3.19-6.42-7.25-11.46-11.5-4.97-4.21-10.99-8.57-17.65-12.43,1,4.54,2.45,6.31,4.35,9.98.45.86.93,1.84,1.44,2.98,1.1,2.5.53,4.39-.77,4.87-1.44.55-3.79-.62-5.77-4.58-3.37-6.75-16.46-19.26-49.35-23.84-6.08,1.51-11.98,4.37-17.48,8.94.81.41,1.65.81,2.52,1.19.42.2.86.38,1.3.57.28.12.55.24.84.35.38.16.77.3,1.17.46.52.21,1.04.4,1.57.59.52.2,1.06.4,1.6.58,4.24,1.47,8.6,2.67,12.45,3.6.81.2,1.59.37,2.35.55.42.1.83.18,1.24.28.2.04.38.08.56.12.14.03.27.06.4.08.35.07.7.15,1.03.22.06,0,.12.02.18.04.27.06.53.11.78.16.23.04.45.08.66.13.16.03.3.06.46.09.07.01.14.03.21.04.28.06.56.11.81.16.78.14,1.44.27,1.99.36.09.02.18.04.25.04.37.07.66.12.88.16-.04,0-.08,0-.11,0-.37-.03-.73-.06-1.07-.08-.45-.03-.91-.04-1.34-.05-.96,0-1.87.07-2.72.22-9.35,1.61-23.82,1.09-34.66-2.96-2.84,3.51-5.52,7.23-8,11.15-5.96,9.37-10.85,19.84-14.42,31.2-.93,2.94-1.77,5.94-2.52,8.99,6.97-3.95,17.78-9.27,25.56-12.72-18.35,11.29-30.06,27.54-27.58,45.81-1.14,3.77-1.82,7.52-2.02,11.19t0,.03h0c.21,4.16.57,8.36,1.1,12.61,3.45,23.43-7.23,43.86-15.08,45.74,0,0,11.31,13.83,24.35-24.35,0,0,3.14-11.31,5.66-12.88,2.52-1.57,2.99-4.93,6.44-13.05,6.08-14.3,39.68-73.47,79.29-77.41.04,0,.08,0,.12,0,1.28-.13,2.57-.2,3.87-.21,0,0-39.44,25.61-50.59,63.8,0,0,8.53-8.9,11.33-6.36,2.33,2.11-6.47,18.77.45,34.8-6.76-36.61,52.49-91.14,87.31-72.33,33.81,22.92,48.97,72.17,44.48,113.79-6-6.46-9.95-16.28-14.14-23.98h0c-1.05-2.43-4.79-8.63-9.77-12.02-4.07-3-8.01-4.14-10.32-4.35-3.45-.31-12.73-12.09-11-7.86,1.73,4.24.63,9.11.63,9.11-3.22,16.36-.62,59.33,30.91,84.08-3.87,8-8.35,16.09-11.69,23.74h0s-.4.96-.4.96c-.42.98-.82,1.97-1.2,2.93-.42-.24-.84-.47-1.27-.69h-.01c-8.43-4.45-17.35-5.73-24.27-5.65h0c-5.61-5.38-12.22-5.66-10.42-4.88,1.18.52,4.07,2.36,6.97,5.02-5.03.39-8.44,1.44-8.91,2.16,2.93-.61,6.65-.71,10.68-.43,1.51,1.58,2.92,3.36,3.97,5.25,3.46,6.18,11.11,8.17,14.57,8.27,2.91.09,2.84,1.36,5.56,2.94-.64,6.3.88,11.9,6.02,16.38,3.02,2.31,9.19,2.72,16.74.94,2.88,4.73,7.35,9.72,8.87,11.07,1.88,1.68,3.67,4.91,2.78,7.28-.9,2.37-1.42,9.17.78,12.42,0,0,.18-5.51.83-6.7,1.84-3.3,1.78-11.62-2.2-16.03-2.61-2.88-5.81-6.09-7.82-8.9,1.29-.39,2.62-.83,3.96-1.36,5.27,3.85,9.94,12.64,10.53,17.09,1.56,10.08,10.61,11.08,13.16,9.17-2.12,1.7-10.1-3.97-10.5-9.41-.49-6.6-4.77-13.79-8.93-17.73,1.32-.16,3.2-.91,5.12-2.09,1.9-1.17,3.4-2.51,4.14-3.6.03-.03.05-.06.07-.1.09-.15.17-.28.23-.42.05-.04.09-.06.15-.09h0c9.45-6.22,18.75-15.31,25.63-27.63.07-.14.15-.29.21-.44,9.31-7.01,15.44-6.02,24.98-9.59,5.76-2.04,11.61-5.36,17.05-9.95.68-.57,1.35-1.15,2.02-1.76,13.8-12.64,24.39-33.61,22.74-62.2-.11-1.88-26.11,8.83-34.91,18.58-8.53,9.43-15.88,15.1-22.18,17.39-.79-57.04-38.28-124.19-100.38-149.21,0,0-4.86-2.36-6.28-8.17-.5-2.09-2.28-7.67-4.5-14.38-3.97-12.01-9.36-27.66-11.53-33.38-8.88-23.45-36.37-18.46-43.18-30.99-1.32-2.43-3.5-8.68-4.91-16.79-1.69,17.16,3.85,27.03,23.41,35.04ZM82.89,79.1h0s.01,0,.03,0c0,0,.01,0,.01,0,.05,0,.08.01.12.02-.06,0-.11,0-.16-.01ZM182.68,315.99h-.29c-8.73-.75-14.86-4.48-20.04-11.28-.06-.07-.11-.13-.16-.21,7.62.91,15.73,2.98,21.16,5.49.06.02.11.04.16.07-.1.3-.19.59-.28.89-.52,1.81-.69,3.56-.54,5.03Z"/></g></svg>