<?xml version="1.0" encoding="UTF-8"?><svg id="Layer_2" xmlns="http://www.w3.org/2000/svg" viewBox="0 0 498.5 199.61"><defs><style>.cls-1{isolation:isolate;}.cls-2{fill:#282526;}.cls-3{fill:#f9f3dd;stroke:#231f20;stroke-miterlimit:10;}</style></defs><g id="Layer_1-2"><ellipse class="cls-3" cx="249.25" cy="99.81" rx="248.75" ry="99.31"/><g id="LET_S_CHAT" class="cls-1"><g class="cls-1"><path class="cls-2" d="M73.5,121.21c4.78-2.02,7.37-6.24,11.1-13.28l3.73-7.94,2.27.08c-.97,8.34-1.78,16.93-1.94,23.73h-35.88v-2.35l3.08-1.05c2.02-.73,2.11-2.11,2.11-18.3,0-22.76-.57-23.08-2.51-23.73l-2.83-.81v-2.35h27.62v2.35l-4.94.97c-2.02.49-2.27,1.46-2.27,19.92,0,16.04.16,20.41.49,22.76Z"/><path class="cls-2" d="M133.77,123.8h-41.23v-2.35l3.08-1.05c1.86-.73,2.02-2.03,2.02-19.12,0-21.95-.49-22.27-2.43-22.92l-3-.81.08-2.35h41.63c.08,5.02.32,11.66.81,17.9h-2.11l-3.08-5.1c-4.13-6.64-8.26-9.72-16.6-10.37-.32,2.35-.41,6.88-.41,20.25,4.86-.41,7.45-2.35,9.15-7.05l1.13-3.24h1.3c-.08,5.51.73,17.9,1.3,23.33h-1.38l-1.46-3.32c-2.19-5.1-5.18-6.88-10.04-7.45v.32c0,13.36.16,18.22.49,20.73,8.02-.73,12.55-3.24,16.44-10.12l3.65-6.8h2.11c-.73,6.8-1.3,13.93-1.46,19.52Z"/><path class="cls-2" d="M177.75,123.8h-31.99v-2.35l4.29-1.13c3.97-1.05,4.13-2.11,4.13-18.39s-.16-21.71-.49-24.14c-3.4,1.05-4.94,3.64-7.94,9.96l-4.78,10.61h-1.94c.65-8.02.73-16.28.81-23.16h43.49c.08,6.88.16,15.15.81,23.16h-1.94l-4.78-10.61c-3-6.24-4.7-8.67-7.94-9.96-.24,2.19-.32,6.16-.32,18.14,0,23.33.65,23.65,4.54,24.54l4.13.97-.08,2.35Z"/><path class="cls-2" d="M194.92,101.85h-1.54c-1.78-8.26-5.02-21.06-6.8-26.65h15.23c-1.7,5.59-4.94,18.38-6.88,26.65Z"/><path class="cls-2" d="M241.17,75.69c-.57,5.26-1.05,9.88-1.21,17.66h-2.11l-2.02-3.73c-3-5.83-8.75-11.99-15.06-11.99-2.35,0-3.97,1.54-3.97,3.97,0,5.26,1.78,8.99,12.63,11.5,12.31,3,14.66,7.45,14.66,13.44,0,10.04-8.1,18.06-23.81,18.06-6.97,0-12.63-1.86-15.55-3.24.24-5.43.97-10.53,1.05-16.93h2.19l1.78,3.97c3.4,7.61,10.53,10.37,23,10.37,3.56,0,3.97-1.05,3.97-3.08,0-4.13-2.83-7.21-17.66-11.01-12.72-3.16-14.42-8.26-14.34-12.64-.08-9.72,10.93-17.58,22.6-17.58,5.83,0,10.53.65,13.85,1.21Z"/><path class="cls-2" d="M299,108.57l1.3-6.56h2.11c1.05,7.05,1.62,10.21,2.19,14.74-2.92,2.92-10.77,7.86-22.19,7.86-15.47,0-22.11-9.56-22.11-22.84,0-20.98,17.25-27.38,29.56-27.38,6.88,0,10.61.97,13.61,2.11-.49,6.88-.81,12.96-1.05,19.44h-2.11l-2.92-5.18c-4.94-8.75-10.69-12.55-16.36-12.55-2.75,0-3.89,1.46-3.89,12.96,0,22.03,5.35,28.59,15.47,28.59,3.56,0,4.45-.24,6.4-11.18Z"/><path class="cls-2" d="M344.04,99.26c-2.51-.08-4.78-.08-7.61-.08-3,0-5.43,0-8.02.16.08,20.25.57,20.65,2.51,21.3l2.92.81v2.35h-25.59v-2.35l3.08-1.05c2.02-.73,2.11-2.11,2.11-18.3,0-22.76-.49-23.08-2.51-23.73l-2.92-.81.08-2.35h25.51v2.35l-3,.97c-2.11.73-2.19,2.11-2.19,17.58v.89c2.59.16,5.02.16,8.02.16,2.83,0,5.1,0,7.61-.08-.08-17.82-.65-18.14-2.51-18.71l-2.92-.81.08-2.35h25.51v2.35l-3,.97c-2.11.73-2.19,2.11-2.19,17.58,0,23.49.49,23.89,2.51,24.54l2.92.81v2.35h-25.59v-2.35l3.08-1.05c2.02-.73,2.11-2.11,2.11-18.3v-2.83Z"/><path class="cls-2" d="M386.24,123.8h-23.41v-2.35l1.13-.57c2.83-1.38,8.34-14.34,24.3-48.27h2.83c3.32,6.96,8.34,17.58,11.5,24.54,6.88,14.82,10.21,21.79,12.96,23.65l.97.65v2.35h-26.32v-2.43l1.7-.24c1.78-.16,2.92-.65,2.92-2.67,0-1.7-1.7-6.07-4.13-11.66-1.94-.08-3.97-.16-6.24-.16-2.02,0-3.65,0-5.43.08-.16,2.27-.24,4.37-.24,6.16,0,4.86,1.62,7.45,5.51,8.18l1.94.32v2.43ZM389.73,104.68c-2.67-6.16-5.43-12.07-7.05-15.23-1.78,4.54-2.83,10.12-3.4,15.31,1.62.08,3.24.08,5.18.08s3.64-.08,5.26-.16Z"/><path class="cls-2" d="M451.12,123.8h-31.99v-2.35l4.29-1.13c3.97-1.05,4.13-2.11,4.13-18.39s-.16-21.71-.49-24.14c-3.4,1.05-4.94,3.64-7.94,9.96l-4.78,10.61h-1.94c.65-8.02.73-16.28.81-23.16h43.49c.08,6.88.16,15.15.81,23.16h-1.94l-4.78-10.61c-3-6.24-4.7-8.67-7.94-9.96-.24,2.19-.32,6.16-.32,18.14,0,23.33.65,23.65,4.54,24.54l4.13.97-.08,2.35Z"/></g></g></g></svg>