<?xml version="1.0" encoding="UTF-8"?><svg id="Layer_2" xmlns="http://www.w3.org/2000/svg" xmlns:xlink="http://www.w3.org/1999/xlink" viewBox="0 0 546 285.23"><defs><style>.cls-1{fill:none;}.cls-2{fill:#282526;}.cls-3{fill:url(#linear-gradient);}.cls-4{clip-path:url(#clippath);}</style><linearGradient id="linear-gradient" x1="515.32" y1="369.94" x2="9.03" y2="-105.02" gradientUnits="userSpaceOnUse"><stop offset="0" stop-color="#d11c5b"/><stop offset=".01" stop-color="#d32459"/><stop offset=".06" stop-color="#dd4951"/><stop offset=".11" stop-color="#e6684a"/><stop offset=".16" stop-color="#ed8244"/><stop offset=".22" stop-color="#f39640"/><stop offset=".28" stop-color="#f7a43d"/><stop offset=".36" stop-color="#f9ac3b"/><stop offset=".5" stop-color="#faaf3b"/><stop offset=".59" stop-color="#f8ab3b"/><stop offset=".67" stop-color="#f59f3e"/><stop offset=".75" stop-color="#f08c42"/><stop offset=".83" stop-color="#e87248"/><stop offset=".91" stop-color="#df4f4f"/><stop offset=".98" stop-color="#d32558"/><stop offset="1" stop-color="#d11c5b"/></linearGradient><clipPath id="clippath"><rect class="cls-1" x="129.85" y="43.6" width="286.3" height="198.04"/></clipPath></defs><g id="Layer_1-2"><rect class="cls-3" width="546" height="285.23"/><g class="cls-4"><path class="cls-2" d="M194.96,230.23h.55c.57,0,1.09.15,1.56.44.1.07.22.17.37.31.17.19.29.36.36.51.2.39.3.82.3,1.28v5.3h0s-.64,0-.64,0h0v-5.27c0-.71-.24-1.24-.72-1.58-.35-.23-.77-.35-1.26-.35h-.46c-.58,0-1.05.16-1.42.47-.38.35-.56.84-.56,1.47v5.25h0s-.64,0-.64,0h0v-7.73h0s.64,0,.64,0h0v.74c.19-.24.33-.38.44-.44.12-.08.28-.15.47-.23.35-.12.69-.17,1.03-.17"/><path class="cls-2" d="M203.89,230.23h.08c.53,0,1.05.15,1.54.46.11.08.22.16.31.24h0c.13-.28.36-.48.7-.61.18-.06.35-.09.51-.09h.22v.64h0s-.19,0-.19,0c-.29,0-.5.1-.64.31-.06.14-.09.25-.09.34.29.46.43.94.43,1.45v.04c0,.62-.21,1.2-.63,1.72-.12.14-.25.27-.41.41-.18.14-.33.24-.46.3-.43.22-.86.33-1.28.33h-.11c-.46,0-.92-.13-1.38-.38-.25.21-.38.47-.38.76,0,.21.07.37.2.46.24.21.8.31,1.69.31h.59c1.08,0,1.88.26,2.42.8l.12.14c.21.29.35.57.4.87.02.1.03.2.03.29v.11c0,.32-.1.66-.3,1.02-.33.56-.86.98-1.59,1.25-.45.16-.92.24-1.4.24h-.11c-.84,0-1.57-.2-2.21-.6-.45-.3-.77-.7-.96-1.19-.08-.23-.12-.43-.12-.63v-.07c0-.47.19-.93.58-1.39.18-.19.3-.3.35-.33.07-.05.16-.11.27-.18-.41-.24-.62-.6-.62-1.1h0c0-.44.16-.82.49-1.16-.07-.07-.14-.14-.21-.22-.44-.53-.65-1.13-.65-1.78s.22-1.24.65-1.77c.13-.15.25-.27.37-.36.14-.11.27-.2.39-.27.45-.24.91-.36,1.37-.36M202.86,237.51c-.88.51-1.32,1.07-1.32,1.68h0c0,.37.15.71.44,1.02.16.15.28.25.36.29.49.33,1.12.49,1.88.49s1.42-.2,1.96-.59c.07-.05.17-.14.29-.26.17-.19.29-.39.37-.62.05-.15.07-.29.07-.41v-.03c0-.31-.12-.6-.35-.86-.12-.12-.21-.2-.28-.24-.14-.09-.29-.16-.47-.22-.25-.08-.41-.12-.47-.12-.24-.04-.46-.06-.64-.06h-.78c-.38.01-.72-.02-1.05-.07M201.76,232.96v.08c0,.37.11.74.34,1.11.06.1.17.23.33.39.23.21.49.36.75.46.24.09.49.13.73.13h.03c.5,0,.95-.16,1.37-.48.18-.16.31-.28.37-.38.28-.38.42-.8.42-1.26,0-.43-.13-.84-.4-1.21-.15-.21-.33-.38-.53-.52-.39-.25-.8-.38-1.25-.38h-.02c-.52,0-1,.17-1.43.52-.17.17-.28.28-.31.34-.1.13-.18.26-.23.39-.13.29-.19.57-.19.83"/><path class="cls-2" d="M213.19,230.23c.92,0,1.6.33,2.02.99.25.41.37.85.37,1.33v3.68c0,.44.06.92.19,1.43.04.15.09.29.15.42h-.69s-.03-.09-.08-.26c-.05-.18-.1-.43-.15-.73,0-.03,0-.04,0-.04-.29.23-.53.41-.74.53-.22.13-.44.23-.66.32-.46.17-.88.26-1.25.26h-.12c-.45,0-.87-.12-1.27-.36-.1-.06-.22-.16-.36-.29,0,0-.03-.04-.08-.11-.32-.4-.48-.87-.48-1.41v-.08c0-.99.64-1.67,1.91-2.03.65-.18,1.42-.27,2.32-.27.19,0,.41,0,.67.02v-1.03c0-.5-.14-.91-.44-1.24-.3-.31-.74-.47-1.31-.47-.46,0-1.01.1-1.64.32-.25.1-.6.26-1.06.48l-.12.05-.27-.59c.55-.26.95-.45,1.19-.55.18-.08.47-.16.86-.25.38-.08.73-.12,1.04-.12M210.68,235.94v.02c0,.55.2.97.59,1.25.28.2.61.3.98.3h.06c.45,0,.94-.14,1.47-.42.18-.1.38-.23.59-.39.14-.11.33-.26.55-.48v-1.94c-.26-.02-.48-.02-.68-.02-1.22,0-2.17.18-2.84.54-.12.06-.23.14-.35.25-.14.14-.22.26-.25.34-.09.14-.13.33-.13.57"/><path class="cls-2" d="M221.72,230.23h.08c.53,0,1.05.15,1.54.46.11.08.22.16.31.24h0c.13-.28.36-.48.7-.61.18-.06.35-.09.51-.09h.22v.64h0s-.19,0-.19,0c-.29,0-.5.1-.64.31-.06.14-.09.25-.09.34.29.46.43.94.43,1.45v.04c0,.62-.21,1.2-.63,1.72-.12.14-.25.27-.41.41-.18.14-.33.24-.46.3-.43.22-.86.33-1.28.33h-.11c-.46,0-.92-.13-1.38-.38-.25.21-.38.47-.38.76,0,.21.07.37.2.46.24.21.8.31,1.69.31h.59c1.08,0,1.88.26,2.42.8l.12.14c.21.29.35.57.4.87.02.1.03.2.03.29v.11c0,.32-.1.66-.3,1.02-.33.56-.86.98-1.59,1.25-.45.16-.92.24-1.4.24h-.11c-.84,0-1.57-.2-2.21-.6-.45-.3-.77-.7-.96-1.19-.08-.23-.12-.43-.12-.63v-.07c0-.47.19-.93.58-1.39.18-.19.3-.3.35-.33.07-.05.16-.11.27-.18-.41-.24-.62-.6-.62-1.1h0c0-.44.16-.82.49-1.16-.07-.07-.14-.14-.21-.22-.44-.53-.65-1.13-.65-1.78s.22-1.24.65-1.77c.13-.15.25-.27.37-.36.14-.11.27-.2.39-.27.45-.24.91-.36,1.37-.36M220.7,237.51c-.88.51-1.32,1.07-1.32,1.68h0c0,.37.15.71.44,1.02.16.15.28.25.36.29.49.33,1.12.49,1.88.49s1.42-.2,1.96-.59c.07-.05.17-.14.29-.26.17-.19.29-.39.37-.62.05-.15.07-.29.07-.41v-.03c0-.31-.12-.6-.35-.86-.12-.12-.21-.2-.28-.24-.14-.09-.29-.16-.47-.22-.25-.08-.41-.12-.47-.12-.24-.04-.46-.06-.64-.06h-.78c-.38.01-.72-.02-1.05-.07M219.59,232.96v.08c0,.37.11.74.34,1.11.06.1.17.23.33.39.23.21.49.36.75.46.24.09.49.13.73.13h.03c.5,0,.95-.16,1.37-.48.18-.16.31-.28.37-.38.28-.38.42-.8.42-1.26,0-.43-.13-.84-.4-1.21-.15-.21-.33-.38-.53-.52-.39-.25-.8-.38-1.25-.38h-.02c-.52,0-1,.17-1.43.52-.17.17-.28.28-.31.34-.1.13-.18.26-.23.39-.13.29-.19.57-.19.83"/><path class="cls-2" d="M230.99,230.15h.1c.5,0,1,.15,1.5.44.14.08.3.2.48.36.19.17.32.31.4.4.22.28.38.52.48.73.1.2.2.43.27.69.07.26.11.41.11.45-.09.03-1.02.32-2.78.86l-3.12.97c.04.17.09.33.15.47.09.24.22.48.38.72.07.11.2.27.38.46.51.48,1.08.73,1.71.73s1.22-.26,1.74-.78c.23-.24.38-.44.46-.6l.03-.05h0c.37.21.55.32.55.33-.09.15-.2.32-.34.51-.08.09-.18.21-.31.34-.25.23-.47.39-.65.49-.47.28-.96.41-1.46.41h-.07c-.58,0-1.14-.18-1.68-.55-.13-.09-.28-.22-.46-.39-.19-.2-.34-.38-.44-.53-.23-.33-.41-.69-.54-1.1-.14-.45-.21-.9-.21-1.34v-.11c0-.61.13-1.21.39-1.81.1-.23.24-.47.42-.72.09-.12.21-.26.36-.42.21-.2.38-.35.53-.44.53-.35,1.08-.52,1.64-.52M228.32,234.09v.03c0,.12,0,.25.02.38l3.71-1.15,1.52-.46c-.01-.06-.07-.22-.19-.49-.08-.16-.19-.33-.32-.52-.08-.11-.2-.24-.35-.39l-.12-.11c-.47-.38-.99-.58-1.54-.58h-.02c-.59,0-1.14.23-1.64.68-.19.19-.32.34-.39.45-.14.2-.24.38-.32.53-.24.52-.36,1.06-.36,1.64"/><path class="cls-2" d="M286.34,72.04c.1-.43.18-.87.24-1.31-.06.44-.14.88-.24,1.31M290.51,121.98c.42,1.06.77,2.22,1.05,3.49-.18-1.29-.51-2.51-1.05-3.49M286.34,72.04c.1-.43.18-.87.24-1.31-.06.44-.14.88-.24,1.31"/><path class="cls-2" d="M286.34,72.04c.1-.43.18-.87.24-1.31-.06.44-.14.88-.24,1.31"/><path class="cls-2" d="M286.34,72.04c.1-.43.18-.87.24-1.31-.06.44-.14.88-.24,1.31"/><path class="cls-2" d="M297.35,70.67c0,.13-.02.26-.04.4-.02.15-.04.29-.07.44,0,.03,0,.07-.01.1-.03.18-.06.35-.11.51,0,.01,0,.03,0,.03-.03.19-.09.37-.14.55-.16.57-.36,1.13-.6,1.65-.07.16-.15.31-.22.47-.08.17-.16.32-.26.49-.08.15-.17.31-.26.45,0,.02-.02.03-.03.05-.1.14-.18.28-.27.41-.14.21-.29.42-.44.61-.16.19-.31.38-.46.55-.03.02-.04.04-.05.07-.1.1-.2.21-.29.3-.31.34-.4.43-.73.67-3.1-2.31-5.08-2.64-8.21-3.11,0,0,.94-2.28.94-2.29s0,0,0-.01c0,0,0-.01,0-.02,0,0,.01-.01.01-.02.09-.31.17-.61.24-.94.1-.43.18-.87.24-1.3.11-.8.14-1.63.07-2.45v-.03c-.02-.21-.04-.42-.07-.62-.12-.76-.31-1.51-.61-2.24-.04-.12-.09-.23-.14-.35-.11-.25-.24-.49-.38-.73-.06-.12-.14-.24-.21-.36-.06-.09-.13-.2-.19-.3-.69-1.02-1.63-1.97-2.87-2.83-.11-.09-.22-.16-.35-.24-.22-.16-.46-.3-.72-.44-.15-.09-.31-.18-.48-.26-.16-.09-.33-.18-.51-.27-.12-.06-.25-.12-.37-.17-.6-.28-1.24-.55-1.93-.79,11.54.31,14.07,5.46,14.11,12.46,2.74-.46,3.34-5.37,3.27-7.29,1.81,2.16,2.36,4.58,2.14,6.84M297.4,110.43v-1.6c-.39.03-3.07,1.13-3.07,1.13-2.34.39-2.21-1.9-.77-1.9,2.68-1.54,4.79-2.34,6.03-2.12,0,0,.1.42.59,1.55.74,1.72-2.79,2.94-2.79,2.94M302.21,103.63c-1.19.64,1.16-2.81,1.09-3.58.08-.29.76-.23.72,0,.09.72-.24,2.74-1.81,3.58M283.57,75.06c-.63-2.05-1.79-5.2-3.29-6.53-.2-.18-.4-.36-.62-.55-.2-.18-.43-.36-.65-.53-.36-.29-.74-.56-1.13-.83-.15-.1-.3-.21-.45-.31-.21-.13-.4-.27-.61-.39-.02-.01-.04-.03-.07-.04-.28-.18-.57-.34-.86-.5-.31-.18-.64-.34-.98-.51-.14-.07-.29-.14-.43-.2-.21-.1-.42-.19-.64-.28-.53-.22-1.09-.42-1.65-.61-.08-.02-.15-.05-.23-.07-.27-.08-.55-.14-.85-.19-2.77-.49-6.38.1-9.41.7,8-.27,18.03,5.56,16.11,10.19l.48,1.14c4.28,2.06,12.2,1.43,18.15,6.18,2.42,2.31-.62,2.05-.62,2.05-.33,2.4,10.07,6.98,10.24,11.71h-5.73c-.52-.56-2.31-1.73-3.33-1.51-.15,2.77,2.51,2.68,2.53,3.15,0,.29.93.3.93.3-.47,3.3,1.28,3.19,1.64,3.87-1.23,1.13-1.49,2.27-1.49,2.27-.62-.11-1.28.2-1.81.46-.51.26-8.65,1.03-8.65,1.03-4.55.84-5.51-3.03-5.35-5.25,3.48-1.37,6.94-1.58,6.28-2.27-3.48.59-7.67-.26-9.17-6.45-.08-.32-.92,7.58-1.34,6.96-.4-.6-3.54-3.85-3.75-4.06,1.74,2.79,1.95,7.82,1.95,7.82-1.65-1.03-2.57-3.19-5.2-3.71-.32,2.36-.2,4.41.23,6.29-1.3.29-5.14-4.07-5.13-3.84.15,2.82,3.08,5.91,5.97,6.38.23.56.5,1.11.79,1.65l6.56,9.22,9.56,7.65c-.28-1.28-.64-2.44-1.05-3.5-.32-.82-.68-1.58-1.06-2.28.18,0,.41.06.74.27,1.24.77,4.53,2.01,5.67,7.38,1.24-3.78-1.48-7.98-6.39-11.08-2.36-1.49-1.74-4.38-1.74-4.38.87.57,12.26,6.95,12.35,13.34.05,2.91.61,5.56-4.58,9.43-.16-.91-.57-2.07-.57-1.46s-2.1,3.13-3.26,4.49c-.44.52-.75.87-.75.87-.04-.16-.1-.35-.18-.53-1.62-4.12-10.88-12.29-19.12-19.02-4.29-3.5-8.31-6.61-10.83-8.56-7.58-5.88-12.13-21.58-12.13-21.58-1.28,24.31,7.75,33.42,13.14,36.9-1.79-2-7.65-13.61-6.57-15.02,6.28,4.19,11.88,7.93,16.37,11.94,7.37,6.59,11.77,13.91,11.4,25.16,0,.05,0,.09,0,.14-.02.61-.05,1.22-.1,1.85.19-.44.43-1.29.68-2.35.01-.05.02-.1.03-.14.98-4.11,2.22-11.24,2.22-11.24,1.1.55,2.04,4.25,2.62,7.17,0,.01,0,.03,0,.05.03.13.05.25.08.38,0,0,1.27-1.22,3.26-3.13,0,0,.01,0,.03-.02.49-.46,1.01-.97,1.57-1.5,0,0,.01-.01.02-.02.13-.11.27-.23.4-.33,9.23-7.8,19.25-14.76,27.74-23.29,2.98-2.99,5.57-6.14,7.73-9.46.07-.12.15-.23.22-.35,4.55-7.11,7.12-14.97,7.18-23.57,0-.11,0-.23,0-.35,0-.55,0-1.09-.03-1.65,0-.11,0-.23.01-.33v-.06c.25-7.87-1.68-14.9-6.06-20.96-.67-.93-1.43-1.8-2.25-2.67-.03-.04-.05-.07-.1-.11-.84-.91-1.73-1.8-2.62-2.74-4.76-5.04-11.84-8.77-19.69-9.42-.55-.05-1.09-.07-1.64-.09-3.13-.1-6.36.31-9.59,1.33-1,.31-2.01.67-3.02,1.11-.61.27-1.22.55-1.82.85-.6.31-1.21.64-1.81,1-.3.18-.6.36-.9.55-.3.19-.6.38-.9.59-3.6,2.44-7.12,5.78-10.39,10.17-.25.34-.5.68-.76,1.04.54.19,1.06.39,1.56.61.12.05.25.11.37.16.12.06.24.11.36.17.19.08.37.17.55.26,1.17.61,2.22,1.3,3.11,2.06.09.08.19.16.27.24.12.12.25.23.36.35.06.05.1.1.15.16.05.04.1.1.15.15.1.09.19.21.27.31.1.1.18.2.25.31.05.05.09.11.13.16,0,0,.01.01.01.02.09.11.17.22.24.33.03.05.07.1.1.15.11.16.2.31.29.47.1.18.21.37.29.55,0,0,0,0,0,.01.08.18.15.36.22.55,0,0,0,0,0,.01h0c.83,1.99.61,5.41-.24,7.75"/><path class="cls-2" d="M286.22,82.85c-2.31-.99-6.56,1.99,1.32,3.17,3.9.59,6.57,4.71,8.58,5.02,2.01.31-6.95-6.31-7.65-6.2,0,0,1.39-3.84-3.13-5.48-.64-.23-.57.59.33,1.08,1.76.96,1.6,2.88.55,2.41"/><path class="cls-2" d="M247.07,61.02c-.96,0-5.96,2.13-9.7,3.38-3.75,1.25-9.85-.51-9.85-.51,5,.29,5.88-1.62,10.66-2.43,2.4-.41,8.9-.44,8.9-.44"/><path class="cls-2" d="M254.66,144.34s.02-.1,0-.14c-.6-1.38-1.98-6.75,1.5-2.98,3.53,3.82,6.96,8.43,7.25,9.11.29.69-2.07-13.35-10.49-16.86-2.35-.98-2.65,7.25-.49,9.51,1.72,1.8,2.13,1.54,2.23,1.36"/><path class="cls-2" d="M249.1,132.99v-9.02c5.59,3.14,16.86,17.91,18.37,28.13,0,0,4.96.2,3.79-16.37,0,0-.1-1.86.78-.39.88,1.47,3.14,2.98,2.84,6.54,0,0,3.04-6.34-4.12-13.5-7.16-7.15-11.66-10.88-11.66-10.88,0,0,8.82,14.41,9.8,17.3.98,2.89.59,10.79-.39,10.73-1.63-.1-2.35-8.24-4.21-11.18-1.86-2.94-10.56-11.27-13.32-12.45-2.76-1.18-7.95-6.96-9.62-9.8,0,0-1.57,2.45,2.45,8.72,4.02,6.27,5.29,12.15,5.29,12.15"/><path class="cls-2" d="M226.36,88.39c-3.82,6.67-5.78,11.08-4.22,20.88,0,0,.29-3.82,1.18-5.29.88-1.47,1.76-.2,1.76.49s.88,13.53,7.35,19.21c0,0-1.27-10.1-.78-10.88.49-.78,1.18-.59,1.28.29.1.88,3.72,9.31,5.68,11.76,1.96,2.45,4.9,4.93,6.17,8.54,0,0,1.37-1.29-1.57-8.06-2.94-6.76-8.43-12.25-9.02-15.09-.59-2.84-2.25-8.63-1.86-10.29,0,0-3.31,5.81-2.35,11.57.29,1.76-1.18,1.39-1.47-.63-.29-2.02-2.74-10.05-2.74-17.51l.59-5Z"/><path class="cls-2" d="M231.84,101.13c1.86-8.53,7.06-24.01,18.92-30.58,0,0-18.04,4.51-25.78,17.84,0,0,5.39-4.31,7.65-5,2.25-.69,1.08,1.18.69,1.76-.39.59-2.06,4.71-1.96,9.31.1,4.61.49,6.66.49,6.66"/><path class="cls-2" d="M239.88,109.85c-.78-3.23-3.63-13.82-1.08-21.47,0,0,1.86,8.72,2.84,9.8.98,1.08,1.77,1.37,1.37-2.25-.39-3.63-.59-10.59,3.92-17.35,0,0-4.51,21.17,1.77,33.52,0,0-5.78-2.06-7.74-10.98-1.09-.13-1.08,8.72-1.08,8.72"/><path class="cls-2" d="M259.49,64.85c-11.85,1.85-21.52,5.7-31.76,14.49,5.39-11.43,19.21-18.32,31.76-14.49"/><path class="cls-2" d="M266.76,61.02c-5.05-1.31-10.46-3.23-15.49.74,0,0,.44-4.55,3.57-5.19,3.7-.75,11.92,4.44,11.92,4.44"/><path class="cls-2" d="M219.6,103.47c.98-3.85-3.77-15.04-2.3-16.65,1.62,8.33,4.41,8.33,2.3,16.65"/><path class="cls-2" d="M215.92,98.2c-.57-4.21-5.08-8.86-3.11-11.29,1.81-2.23,3.66-5.56,3.66-5.56,1.03-.39-2.65,7.61-1.18,13.14.35,1.3.62,3.72.62,3.72"/><path class="cls-2" d="M230.32,68.83c-1.19,1.13-5.3,2.35-6.56,4.57-1.95,3.46-.09,5.19-1.84,11.01,2.63-7.37,3.78-6.98,8.4-15.58"/><path class="cls-2" d="M236.99,51.57s-.08.06-.13.07c-1.5.1-6.9,1.35-1.96,2.7,5.02,1.37,10.69,2.29,11.43,2.23.74-.05-12.17,2.22-19.8-1.53-2.29-1.13,5.22-5.69,8.21-4.82,2.39.7,2.35,1.18,2.23,1.35"/><path class="cls-2" d="M213.39,81.42c.67-3.26,2.62-14.05,8.19-19.87,0,0-2.76,9.17-1.61,10.08.48.38.65-.48.86-1.98.66-4.72,5.65-8.02,13.09-11.27-10.63,6.83-16.9,15.56-13.51,28.85,0,0-4.35-4.33-2.32-13.23-.93-.59-4.7,7.43-4.7,7.43"/><path class="cls-2" d="M242.37,48.71c-2.13.78.57,5.81.57,5.81-1.71-.12-3.8-3.2-2.74-4.49,1.06-1.29-3.12-2.23-3.12-2.23-8.21-1.34-24.19,13.43-27.74,36.88-.6-48.13,44.82-49.44,59.47-27.09-7.03-1.08-12.49-13.96-26.44-8.88"/><path class="cls-2" d="M275.83,74.79c-1.34.21-1.09.42-1.96.61v.03s-.1.14-.25.38c-.68,1.05-2.58,3.95-3.02,4.25-.53.38-2.68.98-2.66,1.6.16,4.1-5.42,11.85-5.99,14.86-2.21,11.68,10.75,18.28,16.41,20.94.56.26,1.25.66,2.05,1.17-2.51-4.77-9.28-7.29-13.73-11.23-4.7-4.16-4.02-9.12-4.02-10.79s5-6.9,5.76-8.07c0,0,.46-1.41.68-2.85.23-1.44.08-3.87.08-3.87h2.81c-.29-3.85,1.27-5.39,4.54-5.87l-.71-1.17Z"/><path class="cls-2" d="M270.89,76.7l2.65-1.83c-4.7-7.85-23.67-5.58-23.67,8.76,0,0,1.59-1.14,2.5-1.06,1.67.14-3.99,6.75,1.44,12.44-.99-3.47-.46-9.99,2.2-10.62,0,0,.83-.53.61,1.29-.23,1.82-.84,9.41.23,11.84,0,0,1.44-10.77,3.79-11.68,0,0-1.37-1.54-2.66-1.87-1.29-.33.76-1.32,1.29-1.32s-1.44-.91-3.41-.46c0,0-.08-2.66,3.41-3.57l-5.06-.15c-.32-3.71,15.37-8.86,16.67-1.78"/><polygon class="cls-2" points="129.88 164.15 132.43 164.15 132.46 164.19 132.46 209.93 153.75 209.93 153.78 209.96 153.78 212.51 153.75 212.54 129.88 212.54 129.85 212.51 129.85 164.19 129.88 164.15"/><polygon class="cls-2" points="162.67 164.15 162.67 212.51 162.64 212.54 160.09 212.54 160.06 212.51 160.06 164.15 162.67 164.15"/><path class="cls-2" d="M183.46,163.43h4.53c2.23,0,4.31.67,6.25,2.02.97.73,1.82,1.59,2.55,2.58,2.03,2.91,3.04,6.67,3.04,11.27v18.05c0,4.74-1.05,8.55-3.14,11.44-.31.42-.76.93-1.35,1.52-1.04.92-2.07,1.61-3.11,2.05-1.39.57-2.8.86-4.23.86h-4.53c-2.36,0-4.53-.73-6.51-2.18-.35-.26-.83-.71-1.42-1.32-.68-.79-1.16-1.44-1.42-1.95-.42-.64-.84-1.51-1.26-2.61-.82-2.34-1.22-4.87-1.22-7.6v-18.38c0-3.97.8-7.36,2.41-10.18.33-.55.77-1.17,1.32-1.85.7-.75,1.18-1.2,1.42-1.36.68-.53,1.28-.91,1.79-1.16,1.59-.79,3.22-1.19,4.89-1.19M174.24,179.39v17.91c0,4.25.9,7.59,2.71,10.02,1.72,2.18,3.95,3.27,6.68,3.27h4.2c2.91,0,5.24-1.24,7.01-3.74,1.59-2.38,2.38-5.63,2.38-9.75v-17.52c0-5.27-1.28-9.09-3.83-11.47-1.57-1.39-3.42-2.08-5.55-2.08h-4.2c-2.6,0-4.74.99-6.41,2.97-1.98,2.47-2.97,5.93-2.97,10.38"/><path class="cls-2" d="M238.69,212.51l-.03.03h-3.83s-.28-.5-.76-1.42l-6.81-13.02-6.38-12.2-8.46-16.23-1.19-2.31h-.03v45.15l-.03.03h-2.64l-.03-.03v-48.32l.03-.03h3.93c.07.07.32.52.76,1.36l7.07,13.55,6.97,13.35,7.87,15.1.86,1.62v-44.99h2.71v48.36Z"/><polygon class="cls-2" points="250.1 164.15 252.64 164.15 252.67 164.19 252.67 187.06 277.56 187.06 277.56 164.19 277.6 164.15 280.14 164.15 280.17 164.19 280.17 212.51 280.14 212.54 277.6 212.54 277.56 212.51 277.56 189.64 252.67 189.64 252.67 212.51 252.64 212.54 250.1 212.54 250.06 212.51 250.06 164.19 250.1 164.15"/><polygon class="cls-2" points="291.58 164.15 314.15 164.15 314.18 164.19 314.18 166.73 314.15 166.77 294.15 166.77 294.15 187.06 310.38 187.06 310.38 189.64 294.15 189.64 294.15 209.93 314.15 209.93 314.18 209.96 314.18 212.51 314.15 212.54 291.58 212.54 291.54 212.51 291.54 164.19 291.58 164.15"/><path class="cls-2" d="M336.92,164.15s.14.29.3.86l4.16,13.72,4.79,15.73,4.83,15.8.66,2.28h-2.74c-.07-.07-.19-.46-.36-1.19l-4.33-14.11h-17.95l-4.66,15.27v.03h-2.68l-.03-.03,5.09-16.76,4.5-14.71,4.56-14.94.59-1.95h3.27ZM332.36,177.47c-2.12,6.81-3.6,11.65-4.46,14.51l-.83,2.64h16.36l-3.04-9.98-4.79-15.83-.33-1.02-2.91,9.68Z"/><path class="cls-2" d="M358.28,164.15h12.33c2.36,0,4.64.65,6.84,1.95.55.35,1.16.83,1.82,1.42.86.84,1.38,1.42,1.55,1.75.44.57.78,1.08,1.03,1.52,1.14,2.11,1.72,4.36,1.72,6.74v1.22c0,2.69-.72,5.27-2.15,7.74-1.45,2.45-3.39,4.25-5.82,5.42.26.62,2.23,5.4,5.88,14.34l2.58,6.28h-3.01s-.3-.65-.76-1.82l-5.85-14.58-1.36-3.37c-.81.22-1.82.33-3.01.33h-9.25v19.4l-.03.03h-2.51l-.03-.03v-48.32l.03-.03ZM360.82,166.73v23.77h9.92c.88,0,1.91-.21,3.07-.63,2.58-1.06,4.53-2.91,5.85-5.55.84-1.79,1.26-3.69,1.26-5.72v-.83c0-3.15-.99-5.78-2.97-7.9-.68-.64-1.22-1.09-1.62-1.35-1.79-1.19-3.75-1.79-5.88-1.79h-9.62Z"/><polygon class="cls-2" points="386.17 164.15 416.12 164.15 416.15 164.19 416.15 166.73 402.43 166.73 402.43 212.51 402.4 212.54 399.85 212.54 399.85 166.73 386.14 166.73 386.14 164.19 386.17 164.15"/><polygon class="cls-2" points="242.13 225.98 247.78 225.98 247.79 225.99 247.79 226.62 247.78 226.63 242.78 226.63 242.78 231.7 246.84 231.7 246.84 232.35 242.78 232.35 242.78 237.42 247.78 237.42 247.79 237.43 247.79 238.07 247.78 238.08 242.13 238.08 242.13 238.07 242.13 225.99 242.13 225.98"/><path class="cls-2" d="M253.29,230.23h.55c.57,0,1.09.15,1.56.44.1.07.22.17.37.31.17.19.29.36.36.51.2.39.3.82.3,1.28v5.3h0s-.64,0-.64,0h0v-5.27c0-.71-.24-1.24-.72-1.58-.35-.23-.77-.35-1.26-.35h-.46c-.58,0-1.05.16-1.42.47-.38.35-.56.84-.56,1.47v5.25h0s-.64,0-.64,0h0v-7.73h0s.64,0,.64,0h0v.74c.19-.24.33-.38.44-.44.12-.08.28-.15.47-.23.35-.12.69-.17,1.03-.17"/><path class="cls-2" d="M262.34,230.23c.92,0,1.6.33,2.02.99.25.41.37.85.37,1.33v3.68c0,.44.06.92.19,1.43.04.15.09.29.15.42h-.69s-.03-.09-.08-.26c-.05-.18-.1-.43-.15-.73,0-.03,0-.04,0-.04-.29.23-.53.41-.74.53-.22.13-.44.23-.66.32-.46.17-.88.26-1.25.26h-.12c-.45,0-.87-.12-1.27-.36-.1-.06-.22-.16-.36-.29,0,0-.03-.04-.08-.11-.32-.4-.48-.87-.48-1.41v-.08c0-.99.64-1.67,1.91-2.03.65-.18,1.42-.27,2.32-.27.19,0,.41,0,.67.02v-1.03c0-.5-.14-.91-.44-1.24-.3-.31-.74-.47-1.31-.47-.46,0-1.01.1-1.64.32-.25.1-.6.26-1.06.48l-.12.05-.27-.59c.55-.26.95-.45,1.19-.55.18-.08.47-.16.86-.25.38-.08.73-.12,1.04-.12M259.83,235.94v.02c0,.55.2.97.59,1.25.28.2.61.3.98.3h.06c.45,0,.94-.14,1.47-.42.18-.1.38-.23.59-.39.14-.11.33-.26.55-.48v-1.94c-.26-.02-.48-.02-.68-.02-1.22,0-2.17.18-2.84.54-.12.06-.23.14-.35.25-.14.14-.22.26-.25.34-.09.14-.13.33-.13.57"/><path class="cls-2" d="M268.35,225.98h.64v5.79c.08-.16.24-.37.47-.62.17-.17.29-.28.36-.33.23-.17.41-.29.57-.36.41-.2.82-.3,1.23-.3h.08c.53,0,1.05.16,1.57.5.13.08.29.22.5.41.24.25.41.46.5.63.18.27.32.56.43.88.18.5.27,1.03.27,1.6,0,.85-.21,1.63-.64,2.35-.11.19-.27.41-.5.65-.23.23-.4.38-.51.45-.53.36-1.08.54-1.65.54h-.04c-.67,0-1.29-.23-1.87-.71-.21-.18-.38-.35-.5-.51-.12-.16-.21-.29-.27-.4v1.53h0s-.64,0-.64,0h0v-12.09h0ZM268.99,234.13v.03c0,.86.25,1.63.74,2.3.07.1.18.22.33.37.48.44,1.01.66,1.59.66.62,0,1.18-.25,1.68-.74.18-.19.3-.35.39-.49.4-.63.6-1.34.6-2.12s-.2-1.48-.6-2.12c-.07-.11-.18-.25-.31-.4-.18-.19-.32-.31-.42-.38-.42-.3-.86-.45-1.31-.45h-.02c-.61,0-1.17.25-1.68.76-.19.21-.33.39-.41.54-.37.62-.55,1.3-.55,2.03"/><polygon class="cls-2" points="277.79 225.98 278.43 225.98 278.44 225.99 278.44 238.07 278.43 238.08 277.79 238.08 277.79 238.07 277.79 225.99 277.79 225.98"/><path class="cls-2" d="M284.34,230.15h.1c.5,0,1,.15,1.5.44.14.08.3.2.48.36.19.17.32.31.4.4.22.28.38.52.48.73.1.2.2.43.27.69.07.26.11.41.11.45-.09.03-1.02.32-2.78.86l-3.12.97c.04.17.09.33.15.47.09.24.22.48.38.72.07.11.2.27.38.46.51.48,1.08.73,1.71.73s1.22-.26,1.74-.78c.23-.24.38-.44.45-.6l.03-.05h0c.37.21.55.32.55.33-.09.15-.2.32-.34.51-.08.09-.18.21-.31.34-.25.23-.47.39-.65.49-.47.28-.96.41-1.46.41h-.07c-.58,0-1.14-.18-1.68-.55-.13-.09-.28-.22-.46-.39-.19-.2-.34-.38-.44-.53-.23-.33-.41-.69-.54-1.1-.14-.45-.21-.9-.21-1.34v-.11c0-.61.13-1.21.39-1.81.1-.23.24-.47.42-.72.09-.12.21-.26.36-.42.21-.2.38-.35.53-.44.53-.35,1.08-.52,1.64-.52M281.66,234.09v.03c0,.12,0,.25.02.38l3.71-1.15,1.52-.46c-.01-.06-.07-.22-.19-.49-.08-.16-.19-.33-.32-.52-.08-.11-.2-.24-.35-.39l-.12-.11c-.47-.38-.99-.58-1.54-.58h-.02c-.59,0-1.14.23-1.65.68-.19.19-.32.34-.39.45-.14.2-.24.38-.32.53-.24.52-.36,1.06-.36,1.64"/><polygon class="cls-2" points="295.48 225.98 301.12 225.98 301.13 225.99 301.13 226.62 301.12 226.63 296.12 226.63 296.12 231.7 300.18 231.7 300.18 232.35 296.12 232.35 296.12 237.42 301.12 237.42 301.13 237.43 301.13 238.07 301.12 238.08 295.48 238.08 295.47 238.07 295.47 225.99 295.48 225.98"/><path class="cls-2" d="M306.64,230.23h.55c.56,0,1.07.14,1.53.42.1.07.23.16.36.3.19.19.31.36.37.49h0c.25-.46.64-.79,1.16-1.01.35-.14.72-.21,1.11-.21h.54c.6,0,1.14.16,1.6.47.66.48.99,1.19.99,2.12v5.25h0s-.64,0-.64,0h0v-5.21c0-.9-.33-1.5-1-1.8-.3-.13-.62-.19-.98-.19h-.47c-.63,0-1.14.19-1.5.56-.15.15-.26.33-.33.51-.03.09-.07.22-.11.38-.03.14-.04.38-.04.7v5.03h0s-.64,0-.64,0h0v-5.27c0-.71-.24-1.23-.73-1.58-.35-.23-.76-.35-1.26-.35h-.46c-.58,0-1.05.16-1.42.47-.38.35-.56.84-.56,1.47v5.25h0s-.64,0-.64,0h0v-7.73h.65v.73c.19-.24.33-.38.44-.44.12-.08.28-.15.47-.22.35-.12.69-.18,1.03-.18"/><path class="cls-2" d="M321.43,230.14c.72,0,1.38.27,1.98.79.2.19.33.32.38.4.14.17.26.35.37.53.39.7.59,1.47.59,2.29,0,.89-.23,1.7-.7,2.45-.09.15-.22.32-.38.5-.19.19-.31.31-.37.35-.57.47-1.2.7-1.88.7-.79,0-1.51-.32-2.15-.95-.25-.28-.42-.5-.51-.66v5.09h0s-.64,0-.64,0h0v-11.3h0s.64,0,.64,0h0v1.42c.09-.15.21-.31.36-.5.19-.2.33-.34.41-.4.58-.47,1.21-.71,1.89-.71M318.77,234.13v.03c0,.85.24,1.62.73,2.29.19.24.39.45.62.61.42.29.86.44,1.31.44.61,0,1.17-.25,1.68-.74.2-.22.34-.4.43-.55.38-.62.56-1.31.56-2.05,0-.69-.17-1.34-.49-1.93-.07-.14-.17-.29-.3-.45-.18-.21-.34-.36-.47-.46-.44-.33-.9-.5-1.38-.5h-.04c-.56,0-1.08.22-1.56.65-.21.21-.35.37-.4.47-.13.18-.25.38-.35.6-.22.52-.33,1.05-.33,1.6"/><path class="cls-2" d="M330.32,230.15h.08c.52,0,1.03.16,1.54.48.14.09.3.22.49.39.14.13.24.25.32.36.18.24.32.45.41.64.34.66.51,1.37.51,2.14,0,.85-.21,1.64-.64,2.35-.11.19-.27.41-.5.65-.23.23-.4.38-.51.45-.53.36-1.08.54-1.65.54h-.04c-.63,0-1.23-.21-1.79-.64-.26-.22-.47-.43-.63-.64-.14-.18-.25-.35-.33-.5-.36-.7-.54-1.42-.54-2.17v-.11c0-.68.15-1.34.46-1.99.09-.19.22-.39.37-.61.09-.13.24-.29.43-.49l.12-.12c.38-.31.76-.52,1.14-.63.26-.07.51-.11.75-.11M327.69,234.13v.03c0,.84.23,1.59.7,2.26.06.09.18.23.36.41l.12.11c.46.38.95.56,1.49.56.61,0,1.16-.24,1.66-.73.18-.19.31-.36.4-.51.4-.63.6-1.33.6-2.1s-.2-1.48-.6-2.12c-.07-.11-.18-.25-.31-.4-.18-.19-.32-.31-.42-.38-.42-.3-.86-.45-1.31-.45h-.02c-.61,0-1.17.25-1.68.76-.19.21-.33.39-.41.54-.37.62-.55,1.3-.55,2.03"/><path class="cls-2" d="M336.32,230.23s.02.07.05.2l.95,3.51.87,3.25h0l.86-3.2c.24-.88.49-1.78.74-2.7l.14-.49h.69s.04.13.11.38l1.03,3.83.6,2.19h0l.81-3.03s.18-.69.52-1.95c.34-1.25.52-1.91.53-1.97h.71s-1.17,4.28-1.17,4.28l-.97,3.57h-.87s-.03-.09-.08-.28l-1.18-4.35-.39-1.45h0l-.97,3.6-.68,2.49h-.87s-.03-.09-.08-.26l-.97-3.59-1.01-3.68s-.03-.11-.08-.32h.7Z"/><path class="cls-2" d="M350.01,230.15h.1c.5,0,1,.15,1.5.44.14.08.3.2.48.36.19.17.32.31.4.4.22.28.38.52.48.73.1.2.2.43.27.69.07.26.11.41.11.45-.09.03-1.02.32-2.78.86l-3.12.97c.04.17.09.33.15.47.09.24.22.48.38.72.07.11.2.27.38.46.51.48,1.08.73,1.71.73s1.22-.26,1.74-.78c.23-.24.38-.44.46-.6l.03-.05h0c.37.21.55.32.55.33-.09.15-.2.32-.34.51-.08.09-.18.21-.31.34-.25.23-.47.39-.65.49-.47.28-.96.41-1.46.41h-.07c-.58,0-1.14-.18-1.68-.55-.13-.09-.28-.22-.46-.39-.19-.2-.34-.38-.44-.53-.23-.33-.41-.69-.54-1.1-.14-.45-.21-.9-.21-1.34v-.11c0-.61.13-1.21.39-1.81.1-.23.24-.47.42-.72.09-.12.21-.26.36-.42.21-.2.38-.35.53-.44.53-.35,1.08-.52,1.64-.52M347.34,234.09v.03c0,.12,0,.25.02.38l3.71-1.15,1.52-.46c-.01-.06-.07-.22-.19-.49-.08-.16-.19-.33-.32-.52-.08-.11-.2-.24-.35-.39l-.12-.11c-.47-.38-.99-.58-1.54-.58h-.02c-.59,0-1.14.23-1.64.68-.19.19-.32.34-.39.45-.14.2-.24.38-.32.53-.24.52-.36,1.06-.36,1.64"/><path class="cls-2" d="M357.98,230.23h.46c.46,0,.9.17,1.3.51.12.1.22.21.31.35-.06.05-.24.19-.53.42-.03-.06-.08-.12-.12-.17-.11-.12-.19-.2-.27-.24-.23-.14-.48-.22-.73-.22h-.39c-.49,0-.9.24-1.23.74-.3.49-.45,1.1-.45,1.84v4.62h0s-.64,0-.64,0h0v-7.73h.65v.85c.04-.12.14-.26.3-.41.19-.17.35-.28.47-.33.29-.15.58-.22.87-.22"/><rect class="cls-2" x="237.7" y="225.98" width=".98" height="15.08"/><rect class="cls-2" x="291.05" y="225.98" width=".98" height="15.08"/></g></g></svg>