<?xml version="1.0" encoding="UTF-8"?><svg id="Layer_2" xmlns="http://www.w3.org/2000/svg" viewBox="0 0 159.55 187.25"><defs><style>.cls-1{fill:#282526;}</style></defs><g id="Layer_1-2"><path class="cls-1" d="M117.73,113.24c.63.15,1.28.27,1.92.35-.64-.08-1.29-.2-1.92-.35ZM44.29,119.37c-1.55.61-3.26,1.13-5.13,1.54,1.89-.27,3.69-.75,5.13-1.54ZM117.73,113.24c.63.15,1.28.27,1.92.35-.64-.08-1.29-.2-1.92-.35Z"/><path class="cls-1" d="M117.73,113.24c.63.15,1.28.27,1.92.35-.64-.08-1.29-.2-1.92-.35Z"/><path class="cls-1" d="M117.73,113.24c.63.15,1.28.27,1.92.35-.64-.08-1.29-.2-1.92-.35Z"/><path class="cls-1" d="M119.74,129.44c-.19-.01-.38-.03-.58-.06-.22-.03-.43-.06-.65-.1-.05,0-.1-.01-.14-.02-.26-.04-.51-.09-.75-.16-.02.01-.04,0-.05-.01-.28-.05-.54-.13-.81-.21-.83-.23-1.66-.53-2.43-.88-.24-.1-.46-.22-.69-.33-.24-.12-.47-.24-.71-.38-.22-.12-.45-.25-.66-.38-.03-.01-.05-.03-.07-.04-.21-.14-.41-.27-.6-.4-.31-.21-.61-.43-.9-.64-.28-.23-.55-.45-.81-.68-.03-.04-.06-.06-.1-.08-.15-.15-.3-.29-.44-.43-.49-.46-.63-.59-.98-1.07,3.39-4.56,3.87-7.46,4.58-12.08.01,0,3.35,1.38,3.36,1.38s.01,0,.02,0,.02,0,.03.01c0,0,.02.02.03.02.45.13.9.25,1.38.35.63.15,1.28.27,1.92.35,1.18.16,2.4.2,3.6.1h.04c.3-.03.61-.06.91-.1,1.11-.17,2.22-.45,3.29-.89.17-.06.34-.14.51-.21.36-.16.72-.35,1.07-.55.18-.09.35-.21.52-.31.14-.09.3-.19.44-.28,1.5-1.01,2.9-2.4,4.16-4.22.13-.16.24-.33.35-.51.23-.33.44-.68.65-1.05.14-.22.27-.45.39-.7.13-.24.26-.49.39-.75.09-.18.17-.36.25-.54.41-.88.8-1.83,1.15-2.84-.45,16.97-8.02,20.68-18.32,20.75.67,4.03,7.9,4.91,10.72,4.81-3.18,2.66-6.74,3.46-10.06,3.15ZM61.28,129.51h2.35c-.04-.57-1.67-4.51-1.67-4.51-.57-3.44,2.8-3.25,2.8-1.13,2.26,3.95,3.44,7.04,3.11,8.87,0,0-.61.14-2.28.87-2.53,1.09-4.32-4.1-4.32-4.1ZM70.44,136.55c.33-.93,1.82.96,3.69,1.73.82.21-.33.94-.33.94-1.97.57-3.86-1.25-3.36-2.68ZM113.29,109.16c3.01-.93,7.65-2.63,9.6-4.84.26-.29.53-.59.8-.9.26-.3.52-.63.78-.95.42-.53.82-1.08,1.21-1.66.15-.22.31-.44.45-.66.19-.3.39-.59.57-.9.02-.03.04-.06.05-.1.26-.41.5-.83.73-1.27.26-.46.5-.94.74-1.44.1-.2.2-.42.29-.63.15-.31.28-.62.41-.94.33-.78.62-1.6.89-2.42.03-.11.07-.22.1-.34.11-.4.21-.81.28-1.24.72-4.07-.15-9.39-1.02-13.84.39,11.77-8.17,26.52-14.98,23.7l-1.67.71c-3.03,6.29-2.1,17.94-9.08,26.68-3.4,3.55-3.02-.91-3.02-.91-3.53-.49-10.27,14.81-17.22,15.06v-8.43c.82-.76,2.55-3.39,2.22-4.89-4.07-.22-3.94,3.69-4.63,3.72-.43.01-.44,1.37-.44,1.37-4.85-.69-4.7,1.89-5.69,2.42-1.67-1.82-3.33-2.2-3.33-2.2.16-.91-.29-1.89-.67-2.66-.38-.75-1.52-12.72-1.52-12.72-1.23-6.69,4.45-8.1,7.72-7.87,2.01,5.12,2.32,10.21,3.33,9.24-.87-5.12.38-11.29,9.48-13.48.47-.11-11.14-1.36-10.23-1.97.88-.58,5.66-5.21,5.97-5.51-4.1,2.56-11.51,2.86-11.51,2.86,1.52-2.42,4.7-3.79,5.46-7.65-3.46-.47-6.49-.3-9.25.34-.43-1.92,5.98-7.56,5.64-7.54-4.15.22-8.68,4.53-9.39,8.78-.82.34-1.64.73-2.43,1.15l-13.56,9.65-11.26,14.06c1.88-.41,3.58-.93,5.14-1.55,1.2-.47,2.32-.99,3.35-1.56.01.26-.09.6-.4,1.08-1.13,1.83-2.95,6.67-10.84,8.33,5.55,1.83,11.74-2.18,16.3-9.4,2.2-3.46,6.44-2.56,6.44-2.56-.83,1.29-10.22,18.02-19.62,18.16-4.28.08-8.17.89-13.87-6.74,1.34-.23,3.04-.83,2.15-.83s-4.6-3.08-6.6-4.8c-.76-.65-1.28-1.1-1.28-1.1.24-.06.51-.14.78-.26,6.05-2.38,18.07-15.99,27.97-28.12,5.14-6.32,9.72-12.22,12.59-15.92,8.64-11.14,31.73-17.84,31.73-17.84-35.74-1.88-49.14,11.4-54.26,19.32,2.94-2.63,20.01-11.26,22.08-9.66-6.15,9.24-11.66,17.47-17.56,24.08-9.69,10.83-20.45,17.3-37,16.76-.07,0-.13-.01-.2-.01-.89-.03-1.79-.08-2.72-.15.65.28,1.9.63,3.46,1,.07.02.14.03.21.05,6.04,1.44,16.54,3.26,16.54,3.26-.8,1.62-6.24,3-10.54,3.86-.02,0-.05.01-.07.01-.19.04-.37.07-.56.11,0,0,1.8,1.87,4.61,4.79,0,.01.01.02.03.04.68.71,1.43,1.49,2.21,2.31.01.01.02.02.03.03.16.19.33.4.49.59,11.47,13.56,21.71,28.31,34.25,40.79,4.4,4.38,9.03,8.19,13.91,11.37.17.11.34.22.51.32,10.45,6.7,22.02,10.46,34.66,10.55.17.01.34.01.51.01.8,0,1.61-.01,2.42-.04.16.01.33.01.49.02h.09c11.58.37,21.92-2.47,30.82-8.92,1.37-.98,2.65-2.1,3.93-3.3.06-.04.11-.08.16-.14,1.34-1.23,2.64-2.55,4.03-3.86,7.41-7,12.89-17.41,13.86-28.96.07-.8.11-1.61.13-2.41.14-4.6-.46-9.35-1.96-14.11-.45-1.48-.99-2.96-1.64-4.44-.39-.89-.8-1.79-1.26-2.68-.46-.88-.94-1.78-1.47-2.66-.26-.44-.53-.88-.81-1.33-.28-.44-.56-.88-.86-1.33-3.58-5.3-8.49-10.47-14.95-15.28-.5-.37-1-.74-1.53-1.11-.28.79-.57,1.56-.89,2.3-.08.18-.16.36-.24.55-.08.18-.16.35-.25.52-.12.28-.25.54-.38.8-.89,1.73-1.91,3.27-3.03,4.58-.12.14-.23.28-.35.4-.17.18-.34.37-.51.53-.07.08-.15.15-.23.22-.06.07-.14.14-.22.22-.14.14-.31.28-.46.4-.14.14-.29.26-.45.37-.08.07-.16.13-.24.19-.01.01-.02.02-.03.02-.16.13-.32.25-.48.35-.07.05-.14.1-.22.15-.23.16-.45.29-.69.42-.26.15-.54.3-.81.43,0,0-.01,0-.02.01-.27.12-.53.22-.8.32-.01,0-.01.01-.02.01h0c-2.92,1.23-7.94.89-11.38-.35Z"/><path class="cls-1" d="M101.83,113.06c1.45-3.4-2.92-9.65-4.66,1.94-.86,5.73-6.93,9.66-7.38,12.61-.45,2.95,9.27-10.23,9.13-11.25,0,0,5.64,2.04,8.06-4.6.34-.94-.86-.84-1.59.48-1.42,2.58-4.23,2.36-3.55.81Z"/><path class="cls-1" d="M133.94,55.5c0-1.41-3.14-8.76-4.97-14.27-1.84-5.51.76-14.49.76-14.49-.43,7.35,2.38,8.65,3.57,15.68.6,3.52.65,13.08.65,13.08Z"/><path class="cls-1" d="M11.41,66.66c.07.04.14.03.21,0,2.02-.89,9.92-2.91,4.38,2.2-5.62,5.19-12.4,10.23-13.41,10.67-1.01.43,19.63-3.04,24.79-15.42,1.44-3.46-10.67-3.89-13.98-.72-2.65,2.53-2.26,3.13-2,3.27Z"/><path class="cls-1" d="M28.11,58.49h13.26C36.76,66.7,15.03,83.28,0,85.5c0,0-.29,7.3,24.07,5.57,0,0,2.74-.14.58,1.15s-4.39,4.61-9.62,4.18c0,0,9.33,4.47,19.85-6.05,10.52-10.52,16-17.15,16-17.15,0,0-21.19,12.97-25.44,14.41s-15.87.87-15.78-.58c.14-2.4,12.11-3.46,16.43-6.2,4.32-2.74,16.58-15.53,18.31-19.59,1.73-4.05,10.23-11.69,14.41-14.14,0,0-3.6-2.31-12.83,3.6-9.22,5.91-17.87,7.78-17.87,7.78Z"/><path class="cls-1" d="M93.69,25.05c-9.8-5.62-16.29-8.5-30.7-6.2,0,0,5.62.43,7.78,1.73,2.16,1.3.29,2.59-.72,2.59s-19.89,1.3-28.25,10.81c0,0,14.85-1.87,16-1.15s.86,1.73-.43,1.87c-1.3.14-13.69,5.48-17.3,8.36-3.6,2.88-7.26,7.21-12.57,9.08,0,0,1.9,2.02,11.85-2.31,9.95-4.32,18.02-12.4,22.2-13.26,4.18-.86,12.68-3.32,15.13-2.74,0,0-8.54-4.87-17.01-3.46-2.59.43-2.04-1.73.92-2.16,2.97-.43,14.79-4.04,25.74-4.04l7.35.86Z"/><path class="cls-1" d="M74.95,33.1c12.54,2.74,35.31,10.38,44.97,27.82,0,0-6.63-26.52-26.23-37.91,0,0,6.34,7.93,7.35,11.24,1.01,3.32-1.73,1.59-2.59,1.01-.86-.58-6.92-3.03-13.69-2.88s-9.8.72-9.8.72Z"/><path class="cls-1" d="M62.12,44.92c4.76-1.15,20.32-5.33,31.57-1.59,0,0-12.83,2.74-14.41,4.18-1.59,1.44-2.02,2.59,3.32,2.02,5.33-.58,15.57-.86,25.51,5.77,0,0-31.13-6.63-49.3,2.59,0,0,3.03-8.5,16.14-11.39.2-1.61-12.83-1.59-12.83-1.59Z"/><path class="cls-1" d="M128.31,73.77c-2.72-17.43-8.38-31.64-21.31-46.7,16.81,7.93,26.94,28.25,21.31,46.7Z"/><path class="cls-1" d="M133.94,84.45c1.93-7.42,4.75-15.37-1.09-22.77,0,0,6.69.65,7.63,5.25,1.11,5.44-6.54,17.53-6.54,17.53Z"/><path class="cls-1" d="M71.51,15.1c5.67,1.44,22.11-5.54,24.49-3.38-12.24,2.38-12.24,6.49-24.49,3.38Z"/><path class="cls-1" d="M79.26,9.68c6.2-.84,13.03-7.47,16.61-4.57,3.28,2.66,8.18,5.38,8.18,5.38.58,1.51-11.2-3.9-19.31-1.73-1.92.51-5.48.92-5.48.92Z"/><path class="cls-1" d="M122.46,30.87c-1.67-1.75-3.45-7.79-6.73-9.64-5.08-2.87-7.63-.13-16.19-2.7,10.84,3.87,10.27,5.55,22.91,12.35Z"/><path class="cls-1" d="M147.82,40.68c-.06-.04-.09-.11-.1-.19-.15-2.21-1.99-10.15-3.97-2.87-2.01,7.38-3.37,15.72-3.28,16.81.08,1.09-3.27-17.9,2.25-29.11,1.66-3.36,8.37,7.67,7.09,12.07-1.03,3.52-1.74,3.45-1.98,3.28Z"/><path class="cls-1" d="M103.93,5.97c4.79.99,20.66,3.86,29.22,12.05,0,0-13.49-4.05-14.82-2.38-.56.7.71.96,2.92,1.26,6.94.97,11.79,8.3,16.57,19.25-10.04-15.63-22.88-24.85-42.43-19.87,0,0,6.37-6.4,19.46-3.4.87-1.37-10.92-6.91-10.92-6.91Z"/><path class="cls-1" d="M152.04,48.58c-1.14-3.14-8.54.83-8.54.83.17-2.52,4.71-5.59,6.6-4.03,1.9,1.57,3.28-4.59,3.28-4.59C155.35,28.73,133.63,5.23,99.15,0c70.78-.88,72.71,65.91,39.84,87.45,1.59-10.34,20.53-18.37,13.05-38.88Z"/><path class="cls-1" d="M113.68,97.79c-.31-1.97-.62-1.6-.9-2.88h-.05s-.21-.14-.56-.36c-1.55-1-5.8-3.8-6.26-4.44-.56-.77-1.45-3.94-2.35-3.91-6.02.23-17.42-7.97-21.86-8.81-17.18-3.24-26.89,15.81-30.79,24.14-.38.82-.97,1.84-1.73,3.01,7.02-3.68,10.72-13.64,16.52-20.19,6.11-6.92,13.41-5.91,15.86-5.91s10.15,7.36,11.87,8.47c0,0,2.08.67,4.2,1,2.12.33,5.69.11,5.69.11v4.13c5.67-.43,7.92,1.87,8.64,6.68l1.72-1.04Z"/><path class="cls-1" d="M110.87,90.53l2.69,3.9c11.55-6.92,8.2-34.81-12.88-34.81,0,0,1.68,2.34,1.56,3.68-.21,2.45-9.93-5.87-18.3,2.12,5.09-1.45,14.69-.67,15.62,3.24,0,0,.78,1.23-1.9.89-2.68-.33-13.83-1.23-17.4.33,0,0,15.84,2.12,17.18,5.58,0,0,2.26-2.01,2.75-3.9.49-1.9,1.94,1.12,1.94,1.9s1.34-2.12.67-5.02c0,0,3.9-.11,5.24,5.02l.22-7.44c5.46-.48,13.03,22.61,2.61,24.51Z"/></g></svg>