<?xml version="1.0" encoding="UTF-8"?><svg id="Layer_2" xmlns="http://www.w3.org/2000/svg" viewBox="0 0 1918.37 210.23"><defs><style>.cls-1{fill:#f8f3de;}</style></defs><g id="Layer_1-2"><path class="cls-1" d="M96.72,200.36H.33v-9.54l5.92-2.3c12.17-4.61,14.15-13.16,23.36-169.1-3.62-1.64-7.9-2.63-12.83-3.62L0,12.5V2.96h102.65c16.78,42.44,28.29,65.47,52.97,110.87,15.13-36.52,29.94-73.7,42.77-110.87h84.88v9.54l-11.84,3.95c-9.21,3.29-9.21,8.55-7.24,71.39,2.96,95.41,4.94,97.05,13.16,99.69l12.17,3.29v9.54h-121.4v-9.54l22.04-4.28c18.09-3.29,15.79-9.21,13.82-75.34-1.65-50.99-2.3-74.35-2.63-86.53-22.7,55.93-45.4,114.16-66.79,175.68h-8.55c-23.36-54.29-52.31-117.45-77.64-162.85-2.96-5.26-5.92-9.21-9.21-12.5,10.2,140.81,19.08,152.98,43.1,160.88l14.48,4.94v9.54Z"/><path class="cls-1" d="M339.85,200.36v-9.54l17.44-3.62c13.49-2.96,13.49-9.21,13.49-71.72-8.55-12.5-17.11-25-23.69-34.54-29.61-43.76-41.78-61.52-51.65-66.79l-4.28-1.65.33-9.54h105.94v9.87l-4.61.33c-7.24.66-12.17,2.3-12.17,7.9,0,5.26,8.55,20.73,19.74,38.82,10.86,17.44,21.71,34.87,27.96,44.08,9.54-21.05,16.78-48.03,16.78-66.46,0-15.13-6.91-21.71-23.69-23.69l-7.24-.99V2.96h96.72v9.54l-2.96.99c-9.87,2.96-30.27,32.24-76.33,100.34.33,70.4,2.96,71.72,15.13,74.02l16.78,2.96-.33,9.54h-123.37Z"/><path class="cls-1" d="M713.59,98.04c-13.82,30.27-30.6,71.06-49.02,112.19h-8.22c-10.2-22.04-32.9-72.05-46.39-101.33-25.66-56.26-39.15-84.88-49.02-93.44l-3.62-2.96V2.96h101.33v9.54l-2.63.66c-8.88,1.97-13.49,7.57-13.49,16.12,0,11.19,10.86,32.24,24.02,57.57,5.26,9.87,17.11,34.87,23.03,46.39,6.91-14.15,14.15-28.95,20.73-42.11-21.38-46.06-33.23-69.42-41.12-76.66l-1.97-1.97V2.96h99.36v9.54l-4.93,2.63c-5.26,2.63-12.83,12.5-24.35,33.89,4.28,6.58,8.55,13.16,12.5,19.08,11.84,18.75,32.24,51.32,43.1,68.76,6.25-25.99,11.84-62.51,11.84-86.53,0-22.04-7.57-32.57-19.41-35.53l-10.2-2.3V2.96h93.43v9.54l-3.95,3.62c-11.19,9.87-33.23,61.52-95.74,193.78h-8.23c-8.55-21.38-28.95-73.04-42.44-101.33-1.65-3.62-3.29-6.91-4.61-10.53ZM721.16,17.44c0,4.94,5.59,15.13,12.83,26.32,3.95-8.55,5.59-14.8,5.59-21.38.33-8.22-1.32-11.52-9.21-11.52-6.25,0-9.21,1.64-9.21,6.58Z"/><path class="cls-1" d="M1037.98,200.36h-167.46v-9.54l12.5-4.28c7.57-2.96,8.22-8.22,8.22-77.64,0-89.16-1.97-90.47-9.87-93.11l-12.17-3.29.33-9.54h169.1c.33,20.4,1.32,47.38,3.29,72.71h-8.55l-12.5-20.73c-16.78-26.98-33.56-39.48-67.44-42.11-1.32,9.54-1.65,27.96-1.65,82.25,19.74-1.64,30.27-9.54,37.18-28.62l4.61-13.16h5.26c-.33,22.37,2.96,72.71,5.26,94.75h-5.59l-5.92-13.49c-8.88-20.73-21.06-27.96-40.8-30.27v1.31c0,54.29.66,74.03,1.97,84.22,32.57-2.96,50.99-13.16,66.79-41.12l14.81-27.64h8.55c-2.96,27.64-5.26,56.59-5.92,79.29Z"/><path class="cls-1" d="M1060.35,200.36v-9.54l11.84-4.28c8.88-3.29,9.21-8.55,9.21-75.01,0-91.79-2.3-92.12-11.19-95.41l-10.53-3.62V2.96h101.33c55.27,0,77.64,14.8,77.64,42.77,0,20.73-26.65,37.51-54.94,47.38,48.69,2.96,65.8,21.38,65.8,48.36,0,31.58-36.19,58.89-82.58,58.89h-106.59ZM1144.25,13.16c-1.65,7.9-1.65,19.41-1.65,79.62,8.23,0,16.12-.33,24.67-.33h5.92c3.95-7.57,5.92-23.69,5.92-40.14,0-31.58-9.21-36.85-34.87-39.15ZM1142.6,102.64v2.63c0,64.48.33,77.64,1.97,85.21,37.83-3.95,41.12-13.49,41.12-42.77,0-25.66-4.28-48.36-22.04-48.36-5.26,0-12.5,1.32-21.06,3.29Z"/><path class="cls-1" d="M1414.02,4.93c-2.3,21.38-4.28,40.14-4.93,71.72h-8.55l-8.22-15.13c-12.17-23.69-35.53-48.69-61.19-48.69-9.54,0-16.12,6.25-16.12,16.12,0,21.38,7.24,36.52,51.32,46.72,50.01,12.17,59.55,30.27,59.55,54.61,0,40.79-32.9,73.37-96.72,73.37-28.29,0-51.32-7.57-63.17-13.16.99-22.04,3.95-42.77,4.28-68.76h8.88l7.24,16.12c13.82,30.93,42.77,42.11,93.43,42.11,14.48,0,16.12-4.28,16.12-12.5,0-16.78-11.51-29.28-71.72-44.74-51.65-12.83-58.56-33.56-58.23-51.32-.33-39.48,44.41-71.39,91.79-71.39,23.69,0,42.77,2.63,56.26,4.93Z"/><path class="cls-1" d="M1446.92,15.79l-11.84-3.29.33-9.54h103.63v9.54l-12.17,3.95c-8.55,2.96-8.88,8.55-8.88,71.39,0,95.41,1.97,97.05,10.2,99.69l11.84,3.29v9.54h-103.96v-9.54l12.5-4.28c8.22-2.96,8.55-8.55,8.55-74.35,0-92.45-1.97-93.76-10.2-96.39Z"/><path class="cls-1" d="M1707.48,200.36h-129.95v-9.54l17.44-4.61c16.12-4.28,16.78-8.55,16.78-74.68s-.66-88.17-1.97-98.04c-13.82,4.28-20.07,14.8-32.24,40.47l-19.41,43.1h-7.9c2.63-32.57,2.96-66.13,3.29-94.09h176.67c.33,27.96.66,61.52,3.29,94.09h-7.9l-19.41-43.1c-12.17-25.33-19.08-35.2-32.24-40.47-.99,8.88-1.32,25-1.32,73.7,0,94.75,2.63,96.07,18.42,99.68l16.78,3.95-.33,9.54Z"/><path class="cls-1" d="M1912.45,200.36h-167.46v-9.54l12.5-4.28c7.57-2.96,8.22-8.22,8.22-77.64,0-89.16-1.97-90.47-9.87-93.11l-12.17-3.29.33-9.54h169.1c.33,20.4,1.32,47.38,3.29,72.71h-8.55l-12.5-20.73c-16.78-26.98-33.56-39.48-67.44-42.11-1.32,9.54-1.65,27.96-1.65,82.25,19.74-1.64,30.27-9.54,37.18-28.62l4.61-13.16h5.26c-.33,22.37,2.96,72.71,5.26,94.75h-5.59l-5.92-13.49c-8.88-20.73-21.06-27.96-40.8-30.27v1.31c0,54.29.66,74.03,1.97,84.22,32.57-2.96,50.99-13.16,66.79-41.12l14.8-27.64h8.55c-2.96,27.64-5.26,56.59-5.92,79.29Z"/></g></svg>