<?xml version="1.0" encoding="UTF-8"?><svg id="Layer_2" xmlns="http://www.w3.org/2000/svg" xmlns:xlink="http://www.w3.org/1999/xlink" viewBox="0 0 2014.3 484.54"><defs><style>.cls-1{fill:none;}.cls-2{clip-path:url(#clippath-1);}.cls-3{fill:#0d1b2a;}.cls-4{fill:#778da9;}.cls-5{fill:#282526;}.cls-6{clip-path:url(#clippath-2);}.cls-7{clip-path:url(#clippath);}.cls-8{fill:#415a77;}</style><clipPath id="clippath"><rect class="cls-1" x="700.44" y="113.6" width="613.42" height="238.16"/></clipPath><clipPath id="clippath-1"><rect class="cls-1" y="111.6" width="614.3" height="238.5"/></clipPath><clipPath id="clippath-2"><rect class="cls-1" x="1400" y="111.6" width="614.3" height="238.5"/></clipPath></defs><g id="Layer_2-2"><g class="cls-7"><path class="cls-5" d="M754.37,326.54c-15.06,0-34.73-5.67-44.93-12.92-4.48-6.79-9.05-24.74-9-41.44h1.98c6.11,32.28,24.06,48.65,53.36,48.65s48.2-16.08,48.2-41.98c0-23.76-12.77-33.26-31.93-40.21-2.61-.95-5.08-1.82-7.5-2.68-9.03-3.19-17.55-6.21-30.03-11.99-10.4-4.84-27.84-16.68-27.84-41.58,0-28.34,21.09-44.59,57.87-44.59,9.46,0,22.39,1.58,29.07,3.55,8.8,8.37,14.16,21.75,15.17,37.82h-1.99c-5.34-18.64-15.02-35.65-47.61-35.65-26.24,0-42.55,14.03-42.55,36.61,0,15.78,7.95,27.67,23.62,35.35,10.53,5.15,17.57,7.71,30.34,12.37,2.03.74,4.2,1.53,6.55,2.39,25.99,9.59,37.09,23.37,37.09,46.07,0,25-18.51,50.23-59.85,50.23"/><path class="cls-5" d="M944.01,351.76c-4.48,0-8.97-.09-13.36-.27-45.64-2.12-75.92-15.97-89.99-41.16-7.84-15.37-7.9-32.01-.15-46.82,8.82-16.85,26.79-29.01,46.91-31.75,4.11-.61,8.24-.93,12.3-.93,3.03,0,6.07.17,9.02.52l1.39.16v-76.52c0-5.69-5.35-8.98-8.97-9.42l-.08-.02h-.09c-2.94-.35-6.1-.76-8.9-1.17-9.6-1.4-11.3-2.52-11.6-4.3,2.78.02,6.43.11,10.57.2,6.97.16,15.63.36,24.33.36s16.22-.15,23.36-.3c6.99-.14,13.6-.28,21.34-.28,25.11,0,55.04,8.08,55.04,46.56,0,33.1-24.94,54.48-63.54,54.48-7.75,0-22.63-2.15-29.38-3.91l-1.56-.41v61.21c0,2.42.88,7.32,4.21,8.55l.16.06h.17c5.05.45,11.01,1.11,15.2,1.71,9.86,1.45,12.13,2.65,12.64,4.3-2.88-.02-6.93-.1-11.51-.2-7.77-.16-17.44-.36-26.14-.36s-12.82.2-16.12.36c-1.9.09-3.59.17-5.79.2.26-2.22,1.7-3.71,9.2-5.2.15-.04.24-.06.32-.07.08,0,.15-.02.21-.03.11-.01.22-.03.33-.06h.05l.31-.1c3.88-1.03,6.12-6.15,6.21-10.44v-61.59s-1.24,0-1.24,0c-13.52,0-25.2,2.72-34.81,8.08-15.82,8.52-30.63,26.79-28.02,48.38,6.28,41.88,61.57,51.21,85.04,53.28,8.3.63,16.52.95,24.46.95,42.68,0,80.98-9.19,113.85-27.3l.12-.07.11-.1c4.52-4.07,5.98-10.7,5.98-13.27v-137.19c0-.32.01-.74.03-1.22.05-1.37.11-3.24-.03-5.3-.19-2.63-.68-4.91-1.46-6.78l-.19-.44-.43-.2c-34.42-16.11-63.68-25.91-92.08-30.84-15.97-2.68-32.49-4.04-49.11-4.04-1,0-2.01,0-3.01.01-2.15.04-4.28.09-6.41.14-4.3.1-8.74.2-13.1.2-3.18,0-6.1-.05-8.83-.17,10.59-3.26,23.03-5.03,38.8-5.53,3.22-.09,6.41-.13,9.49-.13,11.95,0,22.84.66,33.3,2.01,30.68,3.82,62.99,14.1,101.7,32.34,5.12,2.35,10.35,4.85,15.4,7.26,20.66,9.85,42.04,20.03,64.25,24.98l2.83.51c1.69.3,3.55.63,4.67.84,4.94.65,9.96.98,14.59.98h.71c.17,0,.41.01.66.01.9,0,1.78-.08,2.63-.15.6-.05,1.2-.1,1.8-.13l3.08-.18c.69-.03,1.41-.07,2.14-.2,6.18-.61,11.76-1.59,17.67-2.62,1.78-.31,3.57-.63,5.41-.93-6.57,4.37-14.04,7.54-22.23,9.42-1.25.32-3.13.6-4.64.82l-.72.11c-.62.06-1.33.17-2.04.28-1.14.17-2.31.35-3.31.37-2.81.23-5.6.35-8.38.35-30.4,0-58.79-13.55-86.24-26.66l-4.46-2.13-.59.94c-.87,1.39-1.38,3.61-1.38,6.11v127.52c0,1.82.74,3.53,2.08,4.81,1.33,1.27,3.08,1.96,4.94,1.96.42,0,.85-.04,1.27-.11l.3-.05.24-.19c13.78-10.48,26.72-23.01,38.46-37.24,1.58-1.77,3.17-3.59,4.76-5.4,5.58-6.38,11.35-12.98,17.87-18.78,3.26-2.84,8.33-6.89,14.55-9.18,1.53-.58,3.1-1.02,4.68-1.3l1.03-.18v-28.52h10.52v30.03l1.07.15c5.88.84,17.61,1.7,27.05,1.7,48.61,0,53.86-31.93,53.86-45.66,0-26.91-17.06-41.13-49.34-41.13h-32.65v23.01h-10.52v-18.97c0-3.73-4.13-4.24-5.69-4.44,0,0-.75-.08-1.02-.1-3.31-.36-7.34-.88-11.32-1.46-9.6-1.4-11.3-2.52-11.6-4.3,2.77.02,6.43.11,10.56.2,6.96.16,15.63.36,24.33.36,8.22,0,14.98-.15,21.53-.29,6.53-.14,13.28-.29,21.47-.29h.96c34.88,0,54.08,16.53,54.08,46.56,0,25.51-15.33,43.95-42.05,50.57l-1.71.42.97,1.47c1.09,1.65,2.4,3.67,3.92,6,8.92,13.69,25.52,39.16,40.84,58.85,10.29,13.36,17.97,18.01,32.26,19.33v1.21c-1.88.83-6.33,2.06-11.2,2.06-14.93,0-20.95-4.15-35.76-24.66-6.68-9.13-13.17-18.99-20.04-29.43-7.19-10.93-14.63-22.24-22.41-32.8l-.42-.57-.7.07c-2.77.27-4.43.27-6.95.27-9.01,0-20.77-1.41-27.96-3.34l-1.57-.42v77.19c.11,3.45,2.33,5.21,4.48,5.44,3.66.36,8.48.96,13.57,1.69,9.59,1.41,11.29,2.53,11.6,4.3-2.78-.02-6.43-.11-10.57-.2-6.96-.16-15.63-.36-24.33-.36s-17.37.2-24.33.36c-4.14.09-7.79.18-10.56.2.3-1.78,2.01-2.89,11.6-4.31,5.07-.73,9.88-1.33,13.52-1.69,2.25-.23,4.51-2.08,4.51-5.7v-78.37l-1.61.49c-5.09,1.54-10.22,4.76-15.23,9.59-6.11,5.74-11.78,12.54-17.26,19.11-1.43,1.71-2.86,3.43-4.3,5.13-16.28,19.63-32.01,34.55-48.1,45.64-24.69,17.31-55.99,28.69-93.04,33.82-18.24,2.5-36,3.77-52.78,3.77M920.66,232.69l1.08.15c6.13.83,19.53,1.99,28.74,1.99,48.61,0,53.86-33.12,53.86-47.35,0-27.29-16.5-41.13-49.05-41.13h-34.63v86.35Z"/><path class="cls-3" d="M902.86,306.13c-.14.03-.27.05-.41.09.09-.04.22-.06.41-.09"/></g><g class="cls-2"><path class="cls-5" d="M54.01,324.84c-15.08,0-34.78-5.67-44.99-12.94C4.53,305.1-.04,287.13,0,270.4h1.98c6.11,32.33,24.09,48.72,53.44,48.72s48.27-16.11,48.27-42.04c0-23.8-12.78-33.31-31.98-40.26-2.61-.95-5.09-1.82-7.51-2.68-9.04-3.2-17.58-6.21-30.07-12.01-10.41-4.85-27.88-16.7-27.88-41.64,0-28.38,21.12-44.65,57.95-44.65,9.47,0,22.42,1.59,29.11,3.55,8.82,8.38,14.18,21.78,15.19,37.87h-1.99c-5.35-18.66-15.04-35.7-47.68-35.7-26.28,0-42.61,14.05-42.61,36.66,0,15.8,7.96,27.71,23.65,35.4,10.55,5.15,17.59,7.72,30.38,12.39,2.03.74,4.2,1.53,6.56,2.39,26.03,9.6,37.14,23.4,37.14,46.14,0,25.04-18.53,50.31-59.94,50.31"/><path class="cls-4" d="M488.55,227.38l-.2.87v-.92c.06.01.14.04.2.05"/><path class="cls-5" d="M243.92,350.1c-4.49,0-8.99-.09-13.38-.27-45.7-2.12-76.03-15.99-90.12-41.22-7.85-15.39-7.91-32.06-.15-46.89,8.83-16.87,26.83-29.06,46.98-31.79,4.12-.62,8.26-.93,12.32-.93,3.04,0,6.08.17,9.03.52l1.39.16v-76.63c0-5.69-5.36-9-8.98-9.43l-.07-.02h-.09c-2.95-.35-6.11-.76-8.92-1.17-9.61-1.4-11.32-2.53-11.62-4.31,2.78.02,6.44.11,10.58.2,6.97.16,15.66.36,24.37.36s16.24-.15,23.39-.3c7.01-.14,13.62-.28,21.37-.28,25.15,0,55.12,8.09,55.12,46.63,0,33.14-24.97,54.56-63.63,54.56-7.76,0-22.66-2.15-29.42-3.91l-1.56-.41v61.3c0,2.42.88,7.33,4.22,8.57l.16.06h.17c5.05.45,11.03,1.12,15.22,1.72,9.88,1.45,12.15,2.66,12.66,4.31-2.88-.02-6.94-.1-11.53-.2-7.78-.16-17.46-.36-26.17-.36s-12.84.2-16.14.36c-1.91.09-3.6.17-5.79.2.26-2.22,1.71-3.71,9.22-5.21.15-.04.24-.06.32-.07.08,0,.15-.02.21-.03.11-.01.22-.03.33-.06h.05l.31-.1c3.88-1.03,6.13-6.16,6.22-10.46v-61.68s-1.25,0-1.25,0c-13.54,0-25.24,2.72-34.86,8.09-15.84,8.53-30.67,26.83-28.06,48.45,6.29,41.94,61.65,51.28,85.16,53.36,8.31.63,16.55.95,24.5.95,42.74,0,81.1-9.2,114.01-27.34l.13-.07.11-.1c4.52-4.08,5.99-10.71,5.99-13.29v-137.38c0-.32.01-.74.03-1.22.04-1.37.11-3.24-.03-5.31-.19-2.63-.68-4.91-1.47-6.79l-.19-.44-.43-.2c-34.47-16.13-63.77-25.95-92.21-30.89-15.99-2.69-32.54-4.05-49.18-4.05-1,0-2.01,0-3.01.01-2.15.04-4.29.09-6.43.14-4.3.1-8.75.2-13.12.2-3.19,0-6.11-.05-8.84-.17,10.6-3.26,23.06-5.03,38.85-5.54,3.22-.09,6.42-.13,9.51-.13,11.96,0,22.87.66,33.35,2.01,30.72,3.82,63.08,14.12,101.85,32.38,5.13,2.36,10.36,4.85,15.42,7.26,20.69,9.86,42.09,20.06,64.34,25.02l2.84.51c1.7.3,3.55.63,4.68.84,4.94.65,9.97.98,14.61.98h.71c.17,0,.41.01.66.01.9,0,1.78-.08,2.63-.15.6-.05,1.2-.1,1.8-.13l3.08-.18c.69-.04,1.41-.07,2.15-.2,6.19-.61,11.78-1.59,17.69-2.62,1.78-.31,3.58-.63,5.42-.94-6.58,4.38-14.06,7.55-22.27,9.44-1.25.32-3.13.6-4.64.82l-.72.11c-.62.07-1.33.17-2.05.28-1.14.17-2.32.35-3.31.37-2.81.23-5.61.35-8.39.35-30.45,0-58.87-13.57-86.36-26.7l-4.47-2.13-.59.94c-.88,1.39-1.38,3.62-1.38,6.12v127.7c0,1.82.74,3.53,2.09,4.82,1.33,1.27,3.09,1.97,4.95,1.97.42,0,.85-.04,1.27-.11l.3-.05.24-.19c13.8-10.49,26.76-23.04,38.51-37.3,1.58-1.77,3.17-3.59,4.76-5.41,5.59-6.39,11.36-13,17.89-18.81,3.26-2.84,8.34-6.9,14.57-9.19,1.54-.59,3.11-1.02,4.69-1.3l1.03-.18v-28.56h10.54v30.07l1.07.15c5.89.84,17.64,1.71,27.09,1.71,48.68,0,53.93-31.98,53.93-45.73,0-26.95-17.08-41.19-49.41-41.19h-32.69v23.04h-10.54v-19c0-3.73-4.14-4.25-5.69-4.44,0,0-.75-.08-1.02-.1-3.32-.36-7.36-.88-11.34-1.46-9.61-1.4-11.32-2.53-11.62-4.31,2.78.02,6.44.11,10.58.2,6.97.16,15.65.36,24.37.36,8.23,0,15-.15,21.56-.29,6.54-.14,13.3-.29,21.5-.29h.96c34.92,0,54.16,16.56,54.16,46.63,0,25.55-15.35,44.01-42.11,50.64l-1.71.42.97,1.47c1.08,1.65,2.41,3.68,3.92,6.01,8.93,13.71,25.55,39.22,40.9,58.94,10.31,13.38,17.99,18.04,32.3,19.36v1.21c-1.88.84-6.34,2.06-11.21,2.06-14.95,0-20.98-4.15-35.81-24.69-6.69-9.14-13.18-19.02-20.06-29.48-7.2-10.95-14.65-22.27-22.44-32.85l-.42-.57-.7.07c-2.77.27-4.44.27-6.97.27-9.02,0-20.8-1.41-28-3.35l-1.57-.42v77.3c.11,3.45,2.33,5.21,4.48,5.44,3.67.36,8.49.96,13.59,1.69,9.6,1.41,11.31,2.53,11.61,4.31-2.78-.02-6.44-.11-10.58-.2-6.97-.16-15.65-.36-24.37-.36s-17.39.2-24.37.36c-4.14.09-7.8.18-10.58.2.3-1.78,2.01-2.9,11.62-4.31,5.08-.73,9.89-1.33,13.54-1.69,2.26-.23,4.52-2.09,4.52-5.71v-78.48l-1.61.49c-5.1,1.54-10.23,4.77-15.25,9.6-6.12,5.75-11.8,12.56-17.29,19.14-1.43,1.71-2.86,3.43-4.31,5.14-16.31,19.65-32.06,34.6-48.17,45.71-24.73,17.33-56.08,28.73-93.18,33.87-18.27,2.51-36.05,3.78-52.85,3.78M220.54,230.86l1.08.15c6.14.84,19.56,1.99,28.78,1.99,48.68,0,53.93-33.16,53.93-47.42,0-27.33-16.53-41.19-49.12-41.19h-34.68v86.47Z"/><path class="cls-4" d="M202.71,304.4c-.14.03-.27.05-.41.09.09-.04.22-.06.41-.09"/></g><g class="cls-6"><path class="cls-5" d="M1454.01,324.84c-15.08,0-34.78-5.67-44.99-12.94-4.49-6.8-9.06-24.77-9.02-41.5h1.98c6.11,32.33,24.09,48.72,53.44,48.72s48.27-16.11,48.27-42.04c0-23.8-12.78-33.31-31.98-40.26-2.61-.95-5.08-1.82-7.51-2.68-9.04-3.2-17.58-6.21-30.07-12.01-10.41-4.85-27.88-16.7-27.88-41.64,0-28.38,21.12-44.65,57.95-44.65,9.47,0,22.42,1.59,29.11,3.55,8.82,8.38,14.18,21.78,15.19,37.87h-1.99c-5.35-18.66-15.04-35.7-47.68-35.7-26.28,0-42.61,14.05-42.61,36.66,0,15.8,7.96,27.71,23.65,35.4,10.55,5.15,17.59,7.72,30.39,12.39,2.03.74,4.2,1.53,6.56,2.39,26.03,9.6,37.14,23.4,37.14,46.14,0,25.04-18.53,50.31-59.93,50.31"/><path class="cls-8" d="M1888.55,227.38l-.2.87v-.92c.06.01.14.04.2.05"/><path class="cls-5" d="M1643.92,350.1c-4.49,0-8.99-.09-13.38-.27-45.7-2.12-76.03-15.99-90.12-41.22-7.85-15.39-7.91-32.06-.15-46.89,8.83-16.87,26.83-29.06,46.98-31.79,4.12-.62,8.26-.93,12.32-.93,3.04,0,6.08.17,9.03.52l1.39.16v-76.63c0-5.69-5.36-9-8.98-9.43l-.07-.02h-.09c-2.95-.35-6.11-.76-8.92-1.17-9.61-1.4-11.32-2.53-11.62-4.31,2.78.02,6.44.11,10.58.2,6.97.16,15.66.36,24.37.36s16.24-.15,23.39-.3c7.01-.14,13.62-.28,21.37-.28,25.15,0,55.12,8.09,55.12,46.63,0,33.14-24.97,54.56-63.63,54.56-7.76,0-22.66-2.15-29.42-3.91l-1.56-.41v61.3c0,2.42.88,7.33,4.22,8.57l.16.06h.17c5.05.45,11.03,1.12,15.22,1.72,9.88,1.45,12.15,2.66,12.66,4.31-2.88-.02-6.94-.1-11.53-.2-7.78-.16-17.46-.36-26.17-.36s-12.84.2-16.14.36c-1.91.09-3.6.17-5.79.2.26-2.22,1.71-3.71,9.22-5.21.15-.04.24-.06.32-.07.08,0,.15-.02.21-.03.11-.01.22-.03.33-.06h.05l.31-.1c3.88-1.03,6.13-6.16,6.22-10.46v-61.68s-1.24,0-1.24,0c-13.54,0-25.24,2.72-34.86,8.09-15.84,8.53-30.67,26.83-28.06,48.45,6.29,41.94,61.65,51.28,85.16,53.36,8.31.63,16.55.95,24.5.95,42.74,0,81.1-9.2,114.01-27.34l.13-.07.11-.1c4.53-4.08,5.99-10.71,5.99-13.29v-137.38c0-.32.01-.74.03-1.22.05-1.37.11-3.24-.03-5.31-.19-2.63-.68-4.91-1.47-6.79l-.19-.44-.44-.2c-34.47-16.13-63.77-25.95-92.21-30.89-15.99-2.69-32.54-4.05-49.18-4.05-1,0-2.01,0-3.01.01-2.15.04-4.29.09-6.43.14-4.3.1-8.75.2-13.12.2-3.19,0-6.11-.05-8.84-.17,10.6-3.26,23.06-5.03,38.85-5.54,3.22-.09,6.42-.13,9.51-.13,11.96,0,22.87.66,33.35,2.01,30.72,3.82,63.08,14.12,101.85,32.38,5.13,2.36,10.36,4.85,15.42,7.26,20.69,9.86,42.09,20.06,64.34,25.02l2.84.51c1.7.3,3.55.63,4.68.84,4.94.65,9.97.98,14.61.98h.71c.17,0,.41.01.66.01.9,0,1.78-.08,2.63-.15.6-.05,1.2-.1,1.8-.13l3.08-.18c.69-.04,1.41-.07,2.15-.2,6.19-.61,11.78-1.59,17.7-2.62,1.78-.31,3.58-.63,5.42-.94-6.58,4.38-14.06,7.55-22.27,9.44-1.25.32-3.13.6-4.64.82l-.72.11c-.62.07-1.33.17-2.05.28-1.14.17-2.31.35-3.31.37-2.81.23-5.61.35-8.39.35-30.45,0-58.87-13.57-86.36-26.7l-4.47-2.13-.59.94c-.88,1.39-1.38,3.62-1.38,6.12v127.7c0,1.82.74,3.53,2.09,4.82,1.33,1.27,3.09,1.97,4.95,1.97.42,0,.85-.04,1.27-.11l.3-.05.24-.19c13.8-10.49,26.76-23.04,38.51-37.3,1.58-1.77,3.17-3.59,4.76-5.41,5.59-6.39,11.36-13,17.9-18.81,3.27-2.84,8.34-6.9,14.57-9.19,1.54-.59,3.11-1.02,4.69-1.3l1.03-.18v-28.56h10.54v30.07l1.07.15c5.89.84,17.64,1.71,27.09,1.71,48.68,0,53.93-31.98,53.93-45.73,0-26.95-17.08-41.19-49.41-41.19h-32.69v23.04h-10.54v-19c0-3.73-4.14-4.25-5.69-4.44,0,0-.75-.08-1.02-.1-3.32-.36-7.36-.88-11.34-1.46-9.61-1.4-11.32-2.53-11.62-4.31,2.78.02,6.44.11,10.58.2,6.97.16,15.65.36,24.37.36,8.23,0,15-.15,21.56-.29,6.54-.14,13.3-.29,21.5-.29h.96c34.93,0,54.16,16.56,54.16,46.63,0,25.55-15.35,44.01-42.11,50.64l-1.71.42.97,1.47c1.08,1.65,2.41,3.68,3.93,6.01,8.93,13.71,25.55,39.22,40.9,58.94,10.31,13.38,17.99,18.04,32.31,19.36v1.21c-1.89.84-6.34,2.06-11.21,2.06-14.95,0-20.98-4.15-35.81-24.69-6.69-9.14-13.18-19.02-20.06-29.48-7.2-10.95-14.65-22.27-22.44-32.85l-.42-.57-.7.07c-2.77.27-4.44.27-6.97.27-9.02,0-20.8-1.41-28-3.35l-1.57-.42v77.3c.11,3.45,2.33,5.21,4.48,5.44,3.67.36,8.49.96,13.59,1.69,9.6,1.41,11.31,2.53,11.61,4.31-2.78-.02-6.44-.11-10.58-.2-6.97-.16-15.66-.36-24.37-.36s-17.39.2-24.37.36c-4.14.09-7.8.18-10.58.2.3-1.78,2.01-2.9,11.62-4.31,5.08-.73,9.89-1.33,13.54-1.69,2.26-.23,4.52-2.09,4.52-5.71v-78.48l-1.61.49c-5.1,1.54-10.23,4.77-15.25,9.6-6.12,5.75-11.8,12.56-17.29,19.14-1.43,1.71-2.86,3.43-4.31,5.14-16.31,19.65-32.06,34.6-48.17,45.71-24.73,17.33-56.08,28.73-93.18,33.87-18.27,2.51-36.05,3.78-52.85,3.78M1620.54,230.86l1.08.15c6.14.84,19.56,1.99,28.78,1.99,48.68,0,53.93-33.16,53.93-47.42,0-27.33-16.53-41.19-49.12-41.19h-34.68v86.47Z"/><path class="cls-8" d="M1602.71,304.4c-.14.03-.27.05-.41.09.09-.04.23-.06.41-.09"/></g><path class="cls-5" d="M316.94,438.95c7.95,0,17.33-6.08,23.54-16.11,3.78-6.12,5.74-12.63,5.88-18.39.14,5.77,2.09,12.28,5.87,18.39,6.21,10.03,15.59,16.11,23.54,16.11-7.95,0-17.33,6.08-23.54,16.11-3.78,6.12-5.73,12.63-5.87,18.39-.14-5.77-2.09-12.28-5.88-18.39-6.21-10.03-15.59-16.11-23.54-16.11Z"/><path class="cls-5" d="M336.12,423.68c-1.51,1.88-3.16,3.59-4.89,5.08l-1.48-3.54-2.12-5.08,5.08,2.12,3.41,1.42Z"/><path class="cls-5" d="M356.04,453.64c1.51-1.88,3.16-3.59,4.89-5.08l1.48,3.54,2.12,5.08-5.08-2.12-3.41-1.42Z"/><path class="cls-5" d="M361.47,429.71c-1.88-1.51-3.59-3.16-5.08-4.89l3.54-1.48,5.08-2.12-2.12,5.08-1.42,3.41Z"/><path class="cls-5" d="M331.52,449.63c1.88,1.51,3.59,3.16,5.08,4.89l-3.54,1.48-5.08,2.12,2.12-5.08,1.42-3.41Z"/><path class="cls-5" d="M346.36,478.38c-21.74,0-39.43-17.69-39.43-39.43s17.69-39.43,39.43-39.43,39.43,17.69,39.43,39.43-17.69,39.43-39.43,39.43ZM346.36,401.52c-20.64,0-37.43,16.79-37.43,37.43s16.79,37.43,37.43,37.43,37.43-16.79,37.43-37.43-16.79-37.43-37.43-37.43Z"/><path class="cls-5" d="M346.36,484.54c-12.18,0-23.63-4.74-32.24-13.35l1.41-1.41c8.23,8.23,19.18,12.77,30.83,12.77s22.59-4.53,30.83-12.77c8.23-8.23,12.77-19.18,12.77-30.83s-4.53-22.59-12.77-30.83c-8.23-8.23-19.18-12.77-30.83-12.77s-22.59,4.53-30.83,12.77l-1.41-1.41c8.61-8.61,20.06-13.35,32.24-13.35s23.63,4.74,32.24,13.35c8.61,8.61,13.35,20.06,13.35,32.24s-4.74,23.63-13.35,32.24c-8.61,8.61-20.06,13.35-32.24,13.35Z"/><path class="cls-5" d="M1697.35,438.95c-7.95,0-17.33,6.08-23.54,16.11-3.78,6.12-5.74,12.63-5.88,18.39-.14-5.77-2.09-12.28-5.87-18.39-6.21-10.03-15.59-16.11-23.54-16.11,7.95,0,17.33-6.08,23.54-16.11,3.78-6.12,5.73-12.63,5.87-18.39.14,5.77,2.09,12.28,5.88,18.39,6.21,10.03,15.59,16.11,23.54,16.11Z"/><path class="cls-5" d="M1678.18,454.21c1.51-1.88,3.16-3.59,4.89-5.08l1.48,3.54,2.12,5.08-5.08-2.12-3.41-1.42Z"/><path class="cls-5" d="M1658.26,424.26c-1.51,1.88-3.16,3.59-4.89,5.08l-1.48-3.54-2.12-5.08,5.08,2.12,3.41,1.42Z"/><path class="cls-5" d="M1652.83,448.18c1.88,1.51,3.59,3.16,5.08,4.89l-3.54,1.48-5.08,2.12,2.12-5.08,1.42-3.41Z"/><path class="cls-5" d="M1682.78,428.26c-1.88-1.51-3.59-3.16-5.08-4.89l3.54-1.48,5.08-2.12-2.12,5.08-1.42,3.41Z"/><path class="cls-5" d="M1667.94,478.38c-21.74,0-39.43-17.69-39.43-39.43s17.69-39.43,39.43-39.43,39.43,17.69,39.43,39.43-17.69,39.43-39.43,39.43ZM1667.94,401.52c-20.64,0-37.43,16.79-37.43,37.43s16.79,37.43,37.43,37.43,37.43-16.79,37.43-37.43-16.79-37.43-37.43-37.43Z"/><path class="cls-5" d="M1667.94,484.52c-11.68,0-23.35-4.44-32.24-13.33-17.78-17.78-17.78-46.7,0-64.48,17.78-17.78,46.71-17.78,64.48,0l-1.41,1.41c-17-17-44.66-17-61.65,0-17,17-17,44.66,0,61.65,17,17,44.66,17,61.65,0l1.41,1.41c-8.89,8.89-20.57,13.33-32.24,13.33Z"/><path class="cls-5" d="M1617.51,440.07c-8.05,0-541.03-.13-900.01-.13-180.66,0-317.2.03-320.68.12l-.05-2c10.42-.28,1208.65,0,1220.75,0v2Z"/><path class="cls-5" d="M1036.56,34.51c-7.95,0-17.33,6.08-23.54,16.11-3.78,6.12-5.74,12.63-5.88,18.39-.14-5.77-2.09-12.28-5.87-18.39-6.21-10.03-15.59-16.11-23.54-16.11,7.95,0,17.33-6.08,23.54-16.11,3.78-6.12,5.73-12.63,5.87-18.39.14,5.77,2.09,12.28,5.88,18.39,6.21,10.03,15.59,16.11,23.54,16.11Z"/><path class="cls-5" d="M1017.39,49.77c1.51-1.88,3.16-3.59,4.89-5.08l1.48,3.54,2.12,5.08-5.08-2.12-3.41-1.42Z"/><path class="cls-5" d="M997.47,19.81c-1.51,1.88-3.16,3.59-4.89,5.08l-1.48-3.54-2.12-5.08,5.08,2.12,3.41,1.42Z"/><path class="cls-5" d="M992.04,43.74c1.88,1.51,3.59,3.16,5.08,4.89l-3.54,1.48-5.08,2.12,2.12-5.08,1.42-3.41Z"/><path class="cls-5" d="M1021.99,23.82c-1.88-1.51-3.59-3.16-5.08-4.89l3.54-1.48,5.08-2.12-2.12,5.08-1.42,3.41Z"/><path class="cls-5" d="M1707.15,35.5s-324.19-.07-660.57-.1v-2c336.38.03,660.57.1,660.57.1v2Z"/><path class="cls-5" d="M307.17,35.5l-.04-2c6.54-.15,416.69-.13,660.59-.11v2c-243.9-.02-654.03-.04-660.55.11Z"/></g></svg>