<?xml version="1.0" encoding="UTF-8"?><svg id="Layer_2" xmlns="http://www.w3.org/2000/svg" xmlns:xlink="http://www.w3.org/1999/xlink" viewBox="0 0 1116 637.34"><defs><style>.cls-1{fill:none;}.cls-2{clip-path:url(#clippath-1);}.cls-3{fill:#0d1b2a;}.cls-4{fill:#231f20;}.cls-5{fill:#778da9;}.cls-6{fill:#1b263b;}.cls-7{clip-path:url(#clippath);}.cls-8{fill:#415a77;}</style><clipPath id="clippath"><rect class="cls-1" x="13" y="5" width="731.42" height="356.16"/></clipPath><clipPath id="clippath-1"><rect class="cls-1" width="1116" height="637.34"/></clipPath></defs><g id="Layer_2-2"><g class="cls-7"><path class="cls-3" d="M125.93,276.93c-15.06,0-34.73-5.67-44.93-12.92-4.48-6.79-9.05-24.74-9-41.44h1.98c6.11,32.28,24.06,48.65,53.36,48.65s48.2-16.08,48.2-41.98c0-23.76-12.77-33.26-31.94-40.21-2.61-.95-5.08-1.82-7.5-2.68-9.03-3.19-17.55-6.21-30.03-11.99-10.4-4.84-27.84-16.68-27.84-41.58,0-28.34,21.09-44.59,57.87-44.59,9.46,0,22.39,1.59,29.07,3.55,8.8,8.37,14.16,21.75,15.17,37.82h-1.99c-5.34-18.64-15.02-35.65-47.61-35.65-26.25,0-42.55,14.03-42.55,36.61,0,15.78,7.94,27.67,23.62,35.35,10.53,5.15,17.57,7.71,30.34,12.37,2.03.74,4.2,1.53,6.55,2.39,25.99,9.59,37.09,23.37,37.09,46.07,0,25-18.51,50.23-59.85,50.23"/><path class="cls-3" d="M315.57,302.16c-4.48,0-8.97-.09-13.36-.27-45.64-2.12-75.92-15.97-89.99-41.16-7.84-15.37-7.9-32.01-.15-46.82,8.82-16.85,26.79-29.02,46.91-31.75,4.11-.61,8.24-.93,12.3-.93,3.03,0,6.07.17,9.02.52l1.39.16v-76.52c0-5.69-5.35-8.98-8.97-9.42l-.08-.02h-.09c-2.94-.35-6.1-.76-8.9-1.17-9.6-1.4-11.3-2.52-11.6-4.3,2.78.02,6.43.11,10.56.2,6.97.16,15.63.36,24.33.36s16.22-.15,23.36-.3c6.99-.14,13.6-.28,21.34-.28,25.11,0,55.04,8.08,55.04,46.56,0,33.1-24.94,54.48-63.54,54.48-7.75,0-22.63-2.15-29.38-3.91l-1.56-.41v61.21c0,2.42.88,7.32,4.21,8.55l.16.06h.17c5.05.45,11.01,1.11,15.2,1.71,9.86,1.45,12.13,2.65,12.64,4.3-2.88-.02-6.93-.1-11.51-.2-7.77-.16-17.44-.36-26.14-.36s-12.82.2-16.12.36c-1.9.09-3.59.17-5.79.2.26-2.22,1.7-3.7,9.2-5.2.15-.04.24-.06.32-.07.08,0,.15-.02.21-.03.11-.01.22-.03.33-.06h.05l.31-.1c3.88-1.02,6.12-6.15,6.21-10.44v-61.59s-1.24,0-1.24,0c-13.52,0-25.2,2.72-34.81,8.08-15.82,8.52-30.63,26.79-28.02,48.38,6.28,41.88,61.56,51.21,85.04,53.28,8.3.63,16.52.95,24.46.95,42.68,0,80.98-9.19,113.85-27.3l.12-.07.11-.1c4.52-4.07,5.98-10.7,5.98-13.27V118.31c0-.32.01-.73.03-1.22.05-1.37.11-3.24-.03-5.3-.19-2.63-.68-4.91-1.46-6.78l-.19-.44-.43-.2c-34.42-16.11-63.68-25.91-92.08-30.84-15.97-2.68-32.49-4.04-49.11-4.04-1,0-2.01,0-3.01.02-2.15.04-4.28.09-6.42.14-4.3.1-8.74.2-13.1.2-3.18,0-6.1-.05-8.83-.17,10.59-3.26,23.03-5.03,38.8-5.53,3.22-.09,6.41-.14,9.49-.14,11.95,0,22.84.66,33.3,2.01,30.68,3.82,62.99,14.09,101.7,32.34,5.12,2.35,10.35,4.85,15.4,7.26,20.66,9.85,42.04,20.03,64.25,24.98l2.83.51c1.7.3,3.55.63,4.67.83,4.94.65,9.96.98,14.59.98h.71c.17,0,.41.02.66.02.9,0,1.78-.08,2.63-.15.6-.05,1.2-.1,1.79-.13l3.08-.18c.69-.03,1.41-.07,2.14-.2,6.18-.61,11.76-1.59,17.67-2.62,1.78-.31,3.57-.63,5.41-.93-6.57,4.37-14.04,7.54-22.23,9.42-1.25.32-3.13.6-4.64.82l-.72.11c-.62.07-1.33.17-2.04.28-1.14.17-2.31.35-3.3.37-2.81.23-5.6.35-8.38.35-30.4,0-58.79-13.55-86.24-26.66l-4.46-2.13-.59.94c-.87,1.39-1.38,3.61-1.38,6.11v127.52c0,1.82.74,3.53,2.08,4.81,1.33,1.27,3.08,1.96,4.94,1.96.42,0,.85-.04,1.27-.11l.3-.05.24-.18c13.78-10.48,26.72-23.01,38.46-37.24,1.58-1.77,3.17-3.59,4.76-5.4,5.58-6.38,11.35-12.98,17.87-18.79,3.26-2.84,8.33-6.89,14.55-9.18,1.53-.58,3.1-1.02,4.68-1.3l1.03-.18v-28.52h10.52v30.03l1.07.15c5.88.84,17.61,1.7,27.05,1.7,48.61,0,53.86-31.93,53.86-45.66,0-26.91-17.06-41.13-49.34-41.13h-32.65v23.01h-10.52v-18.97c0-3.73-4.13-4.24-5.69-4.44,0,0-.75-.08-1.02-.1-3.31-.36-7.34-.88-11.32-1.46-9.6-1.4-11.3-2.52-11.6-4.3,2.77.02,6.43.11,10.56.2,6.97.16,15.63.36,24.33.36,8.22,0,14.98-.15,21.53-.29,6.53-.14,13.28-.29,21.47-.29h.96c34.88,0,54.08,16.53,54.08,46.56,0,25.51-15.33,43.95-42.05,50.57l-1.71.42.97,1.47c1.09,1.65,2.4,3.67,3.92,6,8.92,13.69,25.52,39.16,40.84,58.85,10.29,13.36,17.97,18.01,32.26,19.33v1.21c-1.88.83-6.33,2.06-11.2,2.06-14.93,0-20.95-4.15-35.76-24.66-6.68-9.13-13.17-18.99-20.04-29.43-7.19-10.93-14.63-22.24-22.41-32.8l-.42-.57-.7.07c-2.77.27-4.43.27-6.95.27-9.01,0-20.77-1.41-27.96-3.35l-1.57-.42v77.19c.11,3.45,2.33,5.21,4.48,5.44,3.66.36,8.48.96,13.57,1.69,9.59,1.41,11.29,2.53,11.6,4.3-2.78-.02-6.43-.11-10.57-.2-6.97-.16-15.63-.36-24.33-.36s-17.37.2-24.33.36c-4.14.09-7.79.18-10.56.2.3-1.78,2.01-2.89,11.6-4.31,5.07-.73,9.88-1.32,13.52-1.69,2.25-.23,4.51-2.08,4.51-5.7v-78.37l-1.61.49c-5.09,1.54-10.22,4.76-15.23,9.59-6.11,5.74-11.78,12.54-17.26,19.11-1.43,1.71-2.86,3.43-4.3,5.13-16.28,19.63-32.01,34.55-48.1,45.64-24.69,17.31-55.99,28.69-93.04,33.82-18.24,2.5-36,3.77-52.78,3.77M292.22,183.09l1.08.15c6.13.84,19.53,1.99,28.74,1.99,48.61,0,53.86-33.12,53.86-47.35,0-27.29-16.5-41.13-49.05-41.13h-34.63v86.35Z"/><path class="cls-3" d="M274.42,256.53c-.14.03-.27.05-.41.09.09-.04.22-.06.41-.09"/><path class="cls-8" d="M744.42,361.16H13V5h731.42v356.16ZM15,359.16h727.42V7H15v352.16Z"/><path class="cls-8" d="M686.42,303.16H71V63h615.42v240.16ZM73,301.16h611.42V65H73v236.16Z"/><polygon class="cls-8" points="686.42 361.16 71 361.16 71 303.16 13 303.16 13 63 71 63 71 6 73 6 73 65 15 65 15 301.16 73 301.16 73 359.16 684.42 359.16 684.42 301.16 742.42 301.16 742.42 65 684.42 65 684.42 6 686.42 6 686.42 63 744.42 63 744.42 303.16 686.42 303.16 686.42 361.16"/><path class="cls-3" d="M742.52,331.08c-7.6,0-16.56,4.91-22.5,13.01-3.62,4.94-5.48,10.2-5.62,14.86-.14-4.66-2-9.92-5.61-14.86-5.93-8.1-14.9-13.01-22.5-13.01,7.6,0,16.56-4.91,22.5-13.01,3.62-4.94,5.48-10.2,5.61-14.86.14,4.66,2,9.92,5.62,14.86,5.93,8.1,14.9,13.01,22.5,13.01"/><path class="cls-3" d="M724.2,343.41c1.44-1.52,3.02-2.9,4.68-4.1l1.41,2.86,2.03,4.1-4.86-1.71-3.26-1.15Z"/><path class="cls-3" d="M705.16,319.21c-1.44,1.52-3.02,2.9-4.68,4.1l-1.41-2.86-2.03-4.1,4.86,1.71,3.26,1.15Z"/><path class="cls-3" d="M699.97,338.54c1.8,1.22,3.43,2.55,4.86,3.95l-3.38,1.19-4.86,1.71,2.03-4.11,1.36-2.75Z"/><path class="cls-3" d="M728.6,322.45c-1.8-1.22-3.43-2.55-4.86-3.95l3.38-1.19,4.86-1.71-2.03,4.11-1.36,2.75Z"/><path class="cls-3" d="M742.52,35.2c-7.6,0-16.56,4.91-22.5,13.01-3.62,4.94-5.48,10.2-5.62,14.86-.14-4.66-2-9.92-5.61-14.86-5.93-8.1-14.9-13.01-22.5-13.01,7.6,0,16.56-4.91,22.5-13.01,3.62-4.94,5.48-10.2,5.61-14.86.14,4.66,2,9.92,5.62,14.86,5.93,8.1,14.9,13.01,22.5,13.01"/><path class="cls-3" d="M724.2,47.53c1.44-1.52,3.02-2.9,4.68-4.1l1.41,2.86,2.03,4.1-4.86-1.71-3.26-1.15Z"/><path class="cls-3" d="M705.16,23.33c-1.44,1.52-3.02,2.9-4.68,4.1l-1.41-2.86-2.03-4.1,4.86,1.71,3.26,1.15Z"/><path class="cls-3" d="M699.97,42.66c1.8,1.22,3.43,2.55,4.86,3.95l-3.38,1.19-4.86,1.71,2.03-4.11,1.36-2.75Z"/><path class="cls-3" d="M728.6,26.57c-1.8-1.22-3.43-2.55-4.86-3.95l3.38-1.19,4.86-1.71-2.03,4.11-1.36,2.75Z"/><path class="cls-3" d="M71,331.08c-7.6,0-16.56,4.91-22.5,13.01-3.62,4.94-5.48,10.2-5.62,14.86-.13-4.66-2-9.92-5.61-14.86-5.93-8.1-14.89-13.01-22.5-13.01,7.6,0,16.56-4.91,22.5-13.01,3.62-4.94,5.48-10.2,5.61-14.86.14,4.66,2,9.92,5.62,14.86,5.94,8.1,14.9,13.01,22.5,13.01"/><path class="cls-3" d="M52.67,343.41c1.44-1.52,3.02-2.9,4.68-4.1l1.41,2.86,2.03,4.1-4.86-1.71-3.26-1.15Z"/><path class="cls-3" d="M33.64,319.21c-1.44,1.52-3.02,2.9-4.68,4.1l-1.41-2.86-2.03-4.1,4.86,1.71,3.26,1.15Z"/><path class="cls-3" d="M28.45,338.54c1.8,1.22,3.43,2.55,4.86,3.95l-3.38,1.19-4.86,1.71,2.02-4.11,1.36-2.75Z"/><path class="cls-3" d="M57.07,322.45c-1.8-1.22-3.43-2.55-4.86-3.95l3.38-1.19,4.86-1.71-2.02,4.11-1.36,2.75Z"/><path class="cls-3" d="M71,33.87c-7.6,0-16.56,4.91-22.5,13.01-3.62,4.94-5.48,10.2-5.62,14.86-.13-4.66-2-9.92-5.61-14.86-5.93-8.1-14.89-13.01-22.5-13.01,7.6,0,16.56-4.91,22.5-13.01,3.62-4.94,5.48-10.2,5.61-14.86.14,4.66,2,9.92,5.62,14.86,5.94,8.1,14.9,13.01,22.5,13.01"/><path class="cls-3" d="M52.67,46.19c1.44-1.52,3.02-2.9,4.68-4.1l1.41,2.86,2.03,4.1-4.86-1.71-3.26-1.15Z"/><path class="cls-3" d="M33.64,22c-1.44,1.52-3.02,2.9-4.68,4.1l-1.41-2.86-2.03-4.1,4.86,1.71,3.26,1.15Z"/><path class="cls-3" d="M28.45,41.33c1.8,1.22,3.43,2.55,4.86,3.95l-3.38,1.19-4.86,1.71,2.02-4.11,1.36-2.75Z"/><path class="cls-3" d="M57.07,25.24c-1.8-1.22-3.43-2.55-4.86-3.95l3.38-1.19,4.86-1.71-2.02,4.11-1.36,2.75Z"/></g><rect class="cls-3" x="763" y="302.96" width="58" height="58"/><rect class="cls-6" x="763" y="228.97" width="58" height="58"/><rect class="cls-8" x="763" y="154.98" width="58" height="58"/><rect class="cls-5" x="763" y="80.99" width="58" height="58"/><path class="cls-3" d="M764,8h56v56h-56V8ZM763,65h58V7h-58v58Z"/><path class="cls-4" d="M32.07,492.77c-.19.22-.39.44-.6.65-4.97,4.98-13.04,4.97-18.02,0-4.98-4.97-4.98-13.04,0-18.02,4.98-4.98,13.04-4.98,18.02,0,.15.15.29.3.43.45l-2.34,2.22c-.13-.15-.27-.29-.41-.43-4.88-4.88-11.27-6.32-15.52-2.06-4.25,4.25-2.63,10.99,2.25,15.87,4.88,4.88,11.17,6.05,15.42,1.8.21-.21.4-.42.58-.64l.19.17Z"/><path class="cls-4" d="M37.29,469.05v27.88h-2.95v-27.19l2.81-.69h.14Z"/><path class="cls-4" d="M56.85,496.36v.21c-.65.38-1.31.62-1.96.62-1.69,0-3.44-1.69-3.5-2.62-1.93,1.79-4.54,2.72-6.75,2.72-2.75,0-4.75-1.48-4.75-4.06,0-3.3,3.24-5.13,7.92-5.68,1.2-.14,2.44-.24,3.58-.31v-2.07c0-3.89-1.52-5.78-4.68-5.78-1.93,0-3.51.69-5.23,2.17l-.31-.38c1.89-1.72,5.23-2.58,7.7-2.58,3.72,0,5.64,2,5.64,6.4v8.81c0,1.65,0,2.62,1.72,2.62.21,0,.41-.03.62-.07ZM51.38,488.09c-4.83-.17-9.52.2-9.26,3.88.19,2.7,1.81,3.9,4.05,3.9,1.89,0,3.53-.29,5.21-1.95v-5.83Z"/><path class="cls-4" d="M70.88,492.39c0,3.06-2.65,4.96-6.44,4.96-1.96,0-4.2-.52-6.19-1.86l1.17-2.84c1.48,1.48,2.6,4.43,5.14,4.43,2.86,0,4.75-1.23,4.83-3.54.06-1.78-2.51-2.85-4.68-3.81l-1.38-.62c-2.44-1.1-4.68-3.36-4.68-6.25s2.48-4.37,5.71-4.37c2.17,0,4.37.65,5.82,1.51l-1.63,3.61c-1.2-1-2.12-4.91-4.35-4.91-2.65,0-4.1,1.85-4.1,3.64,0,2.27,2.51,3.24,4.34,4.06l1.38.62c2.31,1.03,5.06,2.27,5.06,5.37Z"/><path class="cls-4" d="M85.39,492.39c0,3.06-2.65,4.96-6.44,4.96-1.96,0-4.2-.52-6.19-1.86l1.17-2.84c1.48,1.48,2.6,4.43,5.14,4.43,2.86,0,4.75-1.23,4.83-3.54.06-1.78-2.51-2.85-4.68-3.81l-1.38-.62c-2.44-1.1-4.68-3.36-4.68-6.25s2.48-4.37,5.71-4.37c2.17,0,4.37.65,5.82,1.51l-1.63,3.61c-1.2-1-2.12-4.91-4.35-4.91-2.65,0-4.1,1.85-4.1,3.64,0,2.27,2.51,3.24,4.34,4.06l1.38.62c2.31,1.03,5.06,2.27,5.06,5.37Z"/><path class="cls-4" d="M88.37,475.56c-.67-.67-.67-1.75,0-2.41.67-.67,1.75-.67,2.41,0,.67.67.67,1.75,0,2.41-.66.67-1.75.67-2.41,0ZM90.9,478.62h.14v18.31h-2.92v-17.62l2.78-.69Z"/><path class="cls-4" d="M110.48,493.73l-.13.16c-.14.17-.29.32-.45.48-1.78,1.78-4.14,2.76-6.66,2.76h0c-2.52,0-4.88-.98-6.66-2.76-1.78-1.78-2.76-4.15-2.76-6.66s.98-4.88,2.76-6.66c1.78-1.78,4.15-2.76,6.66-2.76h0c2.52,0,4.88.98,6.66,2.76.11.11.22.22.32.33l.13.15-2.29,2.7c-1.17-2.14-2.5-4.74-5.31-4.99-1.78-.16-3.93.11-5.37,1.55-1.44,1.44-2.13,3.42-1.96,5.58.18,2.16,1.2,4.28,2.88,5.96,1.68,1.68,3.8,2.71,5.97,2.89,2.17.18,3.76.17,5.2-1.27.14-.14.28-.3.41-.45l.13-.17.46.4Z"/><path class="cls-4" d="M130.48,487.76c0,2.52-.98,4.89-2.77,6.68-1.78,1.78-4.16,2.77-6.68,2.77s-4.89-.98-6.68-2.77c-3.68-3.68-3.68-9.67,0-13.35,3.69-3.68,9.68-3.68,13.36,0,1.78,1.78,2.76,4.16,2.76,6.68ZM128.69,488.41c-.19-2.2-1.23-4.35-2.93-6.06-1.95-1.95-4.38-2.95-6.68-2.95-1.88,0-3.01.67-4.37,2.02-3.02,3.02-1.89,7.73,1.66,11.28,3.56,3.56,7.99,4.41,11.01,1.39,1.46-1.46,1.51-3.48,1.32-5.69Z"/><path class="cls-8" d="M23.67,551.89h-2.71l-2.13-5.55h-7.18c-1.01,2.71,0,0-2.21,5.55h-.49c.96-2.29,1.93-4.84,2.87-7.28l3.76-9.71h1.52l6.59,16.98ZM18.74,546.13l-3.53-9.1-2.98,7.71-.54,1.39h7.05Z"/><path class="cls-8" d="M38.26,547.32c0,2.8-2.46,4.57-6.89,4.57h-5.36v-16.71h5.59c3.83,0,5.55,1.63,5.55,4.02,0,2.13-1.79,3.47-3.49,3.88v.04c2.5.18,4.59,1.81,4.59,4.2ZM27.98,543.1h3.83c2.55,0,3.01-1.54,3.01-3.65s-.37-4.11-3.42-4.11h-3.42v7.77ZM35.88,547.73c0-2.48-.73-4.26-3.6-4.26h-4.29v8.06c.53.12,2.41.16,3.15.16,4.02,0,4.75-1.5,4.75-3.95Z"/><path class="cls-8" d="M55.35,549.16c-.13.15-.26.29-.4.43-3.32,3.32-8.7,3.32-12.01,0-3.32-3.32-3.32-8.7,0-12.01,3.32-3.32,8.7-3.32,12.01,0,.1.1.19.2.28.3l-1.56,1.48c-.09-.1-.18-.19-.28-.29-3.25-3.25-7.51-4.21-10.35-1.38-2.83,2.83-1.75,7.33,1.5,10.58s7.45,4.04,10.28,1.2c.14-.14.27-.28.39-.43l.13.11Z"/><path class="cls-8" d="M72.78,543.33c0,5.42-3.37,8.56-8.49,8.56h-6.35v-16.71h6.49c5.12,0,8.35,2.92,8.35,8.15ZM70.21,543.47c0-4.73-1.72-8.08-6.01-8.08h-4.09v15.92c.73.14,2.15.39,4.29.39,4.36,0,5.81-3.1,5.81-8.24Z"/><path class="cls-8" d="M85.79,551.85h-10.05v-16.71h9.7l.42,1.67h-.05c-2.29-.32-4.59-1.26-6.61-1.26h-1.56v7.39h4.51v.41h-4.51v8.08h1.56c2.02,0,4.64-1.16,6.93-1.48h.05l-.39,1.89Z"/><path class="cls-8" d="M90.63,543.22h4.28v.41h-4.28v8.22h-1.93v-16.71h9.28l.3,1.59h-.05c-2.29-.32-4.47-1.18-6.49-1.18h-1.1v7.67Z"/><path class="cls-8" d="M113.54,544.13v7.72h-1.19v-1.52c-3.33,2.6-8.16,2.37-11.22-.7-3.32-3.32-3.32-8.7,0-12.01,3.32-3.32,8.7-3.32,12.01,0,.1.1.19.2.28.3l-1.49,1.45c-.09-.1-.18-.19-.28-.29-3.25-3.25-7.59-4.18-10.42-1.34-2.83,2.83-1.77,7.2,1.49,10.46,3.01,3.01,6.74,4.07,9.62,1.91v-5.86l1.19-.11Z"/><path class="cls-8" d="M129.24,535.18v16.71h-1.97v-8.49h-8.59v8.49h-1.97v-16.71h1.97v7.8h8.59v-7.8h1.97Z"/><path class="cls-8" d="M132.86,551.86v-16.71l1.97.03v16.71l-1.97-.03Z"/><path class="cls-8" d="M140.32,535.18v11.48c0,5.6-1.06,6.84-4.45,8.68l-.36-.75c3.11-.86,2.92.14,2.92-7.75v-11.66h1.9Z"/><path class="cls-8" d="M143.88,551.89v-16.71h1.97v16.71h-1.97ZM158.14,551.85h-3.34l-8.71-8.54,3.33-3.12c2.48-2.32,4.34-3.99,5.29-5.03h.38v.06c-1.93,1.75-3.73,3.59-5.66,5.38l-1.62,1.51,10.33,9.73Z"/><path class="cls-8" d="M169.85,551.89h-9.51v-16.71h1.86v16.59h.55c1.38,0,5.06-1.4,7.44-1.76h.05l-.39,1.88Z"/><path class="cls-8" d="M189.64,551.86l-2,.03-1.45-15.51-5.88,14.46h-.09l-6.4-14.53-1.68,15.55h-.24l1.71-15.98-.28-.62v-.07h2.2l5.61,12.88,5.23-12.88,1.69-.03,1.56,16.71Z"/><path class="cls-8" d="M203.73,535.06v17.11h-.14l-10.5-15.43v15.12h-.24v-15.52s-.73-1.08-.73-1.08v-.07h2.48l8.83,13v-13.12h.31Z"/><path class="cls-8" d="M221.11,549.46c-3.32,3.32-8.7,3.32-12.01,0-3.32-3.32-3.32-8.7,0-12.01s8.7-3.32,12.02,0,3.32,8.7,0,12.02ZM219.27,539.1c-3.26-3.25-7.21-4.38-10.05-1.55-2.83,2.83-1.46,7.39,1.8,10.64,3.25,3.25,7.15,3.98,9.99,1.14s1.52-6.98-1.73-10.24Z"/><path class="cls-8" d="M237.93,539.69c0,3.12-2.5,5.14-6.47,5.14-.71,0-2.53-.07-3.01-.14v7.18h-1.97s0-16.71,0-16.71h4.98c4.27,0,6.47,1.58,6.47,4.52ZM235.74,539.77c0-2.64-.75-4.41-4.28-4.41h-3.01v9.11c.46.09,2.21.16,2.96.16,3.42,0,4.33-2.06,4.33-4.86Z"/><path class="cls-8" d="M257.36,551.85h-1.74l-1.38-2.29c-3.33,3.21-8.62,3.17-11.9-.11s-3.32-8.7,0-12.01c3.32-3.32,8.7-3.32,12.02,0,3.12,3.12,3.3,8.06.56,11.4l2.45,3.02ZM254.8,548.69c2.19-2.88.84-6.87-2.18-9.89-3.26-3.25-7.33-4.08-10.16-1.25-2.83,2.83-1.45,7.16,1.81,10.42,3.22,3.22,7.05,4.19,9.89,1.45l-2.83-4.7h.25l3.22,3.97Z"/><path class="cls-8" d="M272.1,551.85h-1.81l-4.52-7.51s.03,0,0-.01h0s-.87.06-.87.06h-2.78v7.5h-1.97v-16.71h4.42c4.09,0,6.52,1.4,6.45,4.29-.09,3.44-3.46,4.54-5.06,4.81l6.13,7.57ZM268.86,539.46c0-2.48-.87-4.13-4.29-4.13h-2.46v8.52c.6.11,2.46.16,2.99.16,2.82,0,3.76-2.17,3.76-4.55Z"/><path class="cls-8" d="M284.26,547.59c0,3.01-2.57,4.57-5.28,4.57-1.79,0-3.79-.6-5.12-1.29l1.05-2.24c1.15,1.1,2.43,3.47,4.15,3.47,2.32,0,4.14-1.73,4.14-3.84,0-2.34-2.15-2.8-3.91-3.65l-1.15-.55c-1.97-.94-3.98-2.66-3.98-5.14,0-2.32,1.97-4.02,4.87-4.02,1.7,0,3.44.6,4.57,1.29l-1.28,2.44c-1.06-.99-1.69-3.65-3.46-3.65-2.25,0-3.59,1.67-3.59,3.37,0,2.09,1.7,2.98,3.65,3.92l1.15.55c2.27,1.1,4.2,2.13,4.2,4.77Z"/><path class="cls-8" d="M298.71,537.01h-.05c-1.84-.32-3.35-1.72-4.73-1.72h-.69v16.59h-1.97v-16.57h-.69c-1.38,0-2.89,1.48-4.73,1.8h-.05l.32-1.94h12.25l.32,1.84Z"/><path class="cls-8" d="M312.1,535.14v11.2c0,3.74-1.86,5.83-5.62,5.83s-5.65-2.02-5.65-5.72v-11.27h1.97v11.15c0,3.42.83,5.23,4.05,5.23,3.03,0,4.93-1.81,4.93-5.2v-11.23h.33Z"/><path class="cls-8" d="M326.61,535.17l-5.63,16.99h-.09l-6.59-16.98h2.19l5.25,14.01,4.54-14.02h.33Z"/><path class="cls-8" d="M348.56,535.18l-5.26,16.98h-.09l-4.82-14.57-4.89,14.57h-.09l-5.65-16.98h2.37l4.3,13.54,4.4-13.54h1.19l4.27,12.83,3.8-12.83h.48Z"/><path class="cls-8" d="M365.63,551.85h-2.99s-5.86-7.42-5.86-7.42l-4.74,7.42h-.33l4.92-7.6-7.05-9.08h2.79s5.71,7.39,5.71,7.39l4.97-7.39h.25l-5.07,7.57,7.39,9.1Z"/><path class="cls-8" d="M375.17,542l-1.4,2.41v7.48l-1.92-.04v-7.44l-5.88-9.24h2.57l5.13,8.99,1.24-2.13,3.94-6.86h.32c-1.35,2.27-2.68,4.54-3.99,6.82Z"/><path class="cls-8" d="M392.59,551.89h-12.24s0-.09,0-.09l10.03-16.5h-.59c-3.31,0-7.67,1.86-9.42,2.18h-.05l.76-2.29h11.78v.09l-10.02,16.49h2.18c3.3,0,6.01-1.69,8.03-2.01h.05l-.51,2.13Z"/><path class="cls-8" d="M20.72,586.54v.14c-.44.25-.87.41-1.31.41-1.12,0-2.29-1.12-2.34-1.74-1.29,1.19-3.03,1.81-4.5,1.81-1.84,0-3.17-.99-3.17-2.71,0-2.2,2.16-3.42,5.28-3.79.8-.09,1.63-.16,2.39-.21v-1.38c0-2.59-1.01-3.86-3.12-3.86-1.29,0-2.34.46-3.49,1.45l-.21-.25c1.26-1.15,3.49-1.72,5.14-1.72,2.48,0,3.76,1.33,3.76,4.27v5.88c0,1.1,0,1.74,1.15,1.74.14,0,.28-.02.41-.05ZM17.07,581.03c-3.22-.12-6.34.13-6.18,2.58.12,1.8,1.21,2.6,2.7,2.6,1.26,0,2.35-.2,3.48-1.3v-3.89Z"/><path class="cls-8" d="M34.58,580.75c0,3.9-2.64,6.45-5.69,6.45-1.51,0-2.94-.64-3.97-1.79l-1.64,1.64h-.09v-18.13l1.92-.59h.09v8.22c1.17-1.22,2.66-1.93,4.22-1.93,2.98,0,5.16,2.55,5.16,6.13ZM32.51,580.9c0-3.49-1.03-5.72-3.39-5.72-1.33,0-2.85.71-3.92,1.95v7.41c.73,1.42,2.11,2.29,3.67,2.29,2.5,0,3.65-2.33,3.65-5.94Z"/><path class="cls-8" d="M48.03,584.79l-.09.1c-.09.11-.2.22-.3.32-1.19,1.19-2.76,1.84-4.44,1.84h0c-1.68,0-3.26-.65-4.44-1.84-1.19-1.19-1.84-2.76-1.84-4.44s.65-3.26,1.84-4.44c1.19-1.19,2.76-1.84,4.44-1.84h0c1.68,0,3.26.65,4.44,1.84.07.07.14.15.21.22l.09.1-1.53,1.8c-.78-1.43-1.67-3.16-3.54-3.33-1.19-.1-2.62.07-3.58,1.03-.96.96-1.42,2.28-1.3,3.72.12,1.44.8,2.85,1.92,3.97,1.12,1.12,2.54,1.81,3.98,1.93,1.45.12,2.51.11,3.47-.85.1-.1.19-.2.27-.3l.09-.11.3.26Z"/><path class="cls-8" d="M61.89,586.58l-2.01.53-.57-1.88c-1.17,1.24-2.66,1.97-4.25,1.97-2.98,0-5.16-2.55-5.16-6.13,0-3.9,2.64-6.45,5.69-6.45,1.4,0,2.68.53,3.69,1.49v-7.32l2.01-.53h.09v16.57l.51,1.74ZM59.28,584.7v-7.41c-.73-1.42-2.11-2.29-3.67-2.29-2.5,0-3.75,2.24-3.75,5.84s1.13,5.81,3.49,5.81c1.33,0,2.85-.71,3.92-1.95h0Z"/><path class="cls-8" d="M75.43,584.61c-.17.23-.36.44-.57.65-1.17,1.17-2.72,1.81-4.37,1.81s-3.2-.64-4.37-1.81c-2.41-2.41-2.41-6.33,0-8.74,1.28-1.28,2.67-1.94,4.04-1.91h0s.06,0,.09,0c.03,0,.06,0,.09,0,.05,0,.11,0,.16,0,0,0,.01,0,.02,0,2.37.22,3.92,1.94,4.06,4.79,0,.12,0,.25.01.37h-9.57c-.07,1.57.71,2.88,2.06,4.22,2.4,2.31,5.57,2.99,7.55,1.01.13-.13.26-.27.37-.42h.42ZM65.07,579.42h7.49s0-.1,0-.15c0-.01,0-.02,0-.03,0-.15-.01-.29-.03-.43,0-.03,0-.06-.01-.09-.44-3.58-2.87-3.31-2.87-3.31-1.23,0-2.4.43-3.29,1.32-.74.74-1.17,1.68-1.29,2.68Z"/><path class="cls-8" d="M80.25,572.7v2.2h4.25l-.37,1.07-3.86-.54v11.49s-1.97.05-1.97.05v-11.5s-1.86.19-1.86.19l-.14-.72h2v-2.39c0-2.85,1.31-4.27,3.6-4.27,1.06,0,2.99.21,4.05.76l-.14.28c-1.17-.48-1.95-.53-2.62-.53-1.93,0-2.94,1.22-2.94,3.9Z"/><path class="cls-8" d="M95.85,575.06l-2.92.57c.19.14.38.29.55.46.84.84,1.3,1.96,1.3,3.15s-.46,2.31-1.31,3.15-1.96,1.3-3.15,1.3c-1.04,0-2.03-.36-2.83-1.01l-.18.12c-.62.41-.94,1.04-.95,1.4-.02.68.19,1.52,2.26,1.59l3.02.16c2.34.14,3.77.31,3.77,2.15,0,2.2-2.43,4.17-5.83,4.17-2.94,0-4.86-1.42-4.86-3.46,0-.55.14-1.17.46-1.81l1.74-.2h.09c-.28.66-.41,1.31-.41,1.88,0,1.91.51,3.4,3.01,3.4,2.92,0,3.87-1.68,3.87-3.77,0-1.33-1.02-2.04-1.92-2.04l-3.3-.21c-1.33-.09-3.31-.22-3.31-1.46,0-.78,1.32-1.48,2.26-2.03l.1-.06s-.09-.08-.13-.12c-1.74-1.74-1.74-4.56,0-6.3,1.51-1.51,3.83-1.7,5.55-.6l3.12-2.55v2.11ZM93.17,582.09c.61-.61.61-1.19.61-1.87v-.09c0-1.02-.47-2.15-1.21-2.89-.93-.93-2.06-1.48-3.04-1.48h-.02c-.24,0-1.44.04-2.03.63-1.64,1.64.28,3.92,1.19,4.83.85.85,1.65,1.37,2.37,1.54.79.19,1.49-.04,2.13-.68Z"/><path class="cls-8" d="M108.83,578.89v8.03h-1.97v-7.85c0-1.01.31-4.19-2.85-3.99-1.51.09-2.32.73-3.72,2.07v9.78h-1.96v-18.13l1.87-.46h.09v8.38c1.49-1.38,2.94-2.09,4.75-2.09,2.5,0,3.79,1.35,3.79,4.27Z"/><path class="cls-8" d="M112.27,572.67c-.44-.44-.44-1.16,0-1.61s1.17-.44,1.61,0c.45.44.45,1.16,0,1.61-.44.45-1.16.45-1.61,0ZM113.95,574.72h.09v12.21h-1.94v-11.75l1.85-.46Z"/><path class="cls-8" d="M119.3,574.72h.09v13.01c0,2.48-1.8,4.55-4.89,4.55v-.49c1.81-.32,2.89-1.84,2.89-4.15v-12.55l1.91-.37ZM117.62,572.67c-.45-.44-.45-1.16,0-1.61.44-.44,1.17-.44,1.61,0,.45.44.44,1.16,0,1.61-.44.45-1.16.45-1.61,0Z"/><path class="cls-8" d="M124.72,568.34v18.59h-1.97v-18.13l1.87-.46h.09ZM133.97,586.92h-2.88l-6.38-6.14,2.69-2.32c1.79-1.56,2.89-2.5,3.9-3.56h.6v.05l-5.35,4.84,7.42,7.13Z"/><path class="cls-8" d="M138.09,568.34v18.59h-1.97v-18.13l1.87-.46h.09Z"/><path class="cls-8" d="M159.99,578.89v8.03h-1.97v-7.85c0-1.01.53-3.97-2.64-3.97-1.54,0-2.42.78-3.86,2.23.12.46.16.96.16,1.56v8.03h-1.94v-7.85c0-1.01,0-3.49-2.49-3.53-1.49-.02-2.5.27-3.87,1.6v9.78h-1.92v-11.75l1.82-.46h.09v2c1.45-1.38,2.71-2.09,4.52-2.09s3.03.73,3.53,2.29c1.54-1.49,2.87-2.29,4.77-2.29,2.5,0,3.79,1.35,3.79,4.27Z"/><path class="cls-8" d="M173.74,578.89v8.03h-1.97v-7.85c0-1.01.61-3.96-2.55-3.96-1.49,0-2.62.7-4.02,2.03v9.78h-1.93v-11.75l1.84-.46h.09v2c1.49-1.38,2.94-2.09,4.75-2.09,2.5,0,3.79,1.35,3.79,4.27Z"/><path class="cls-8" d="M189.04,580.81c0,1.68-.66,3.26-1.85,4.45-1.19,1.19-2.77,1.84-4.45,1.84s-3.26-.66-4.45-1.84c-2.46-2.45-2.46-6.45,0-8.9,2.46-2.46,6.45-2.46,8.91,0,1.19,1.19,1.84,2.77,1.84,4.45ZM187.85,581.24c-.12-1.47-.82-2.9-1.96-4.04-1.3-1.3-2.92-1.97-4.46-1.97-1.25,0-2.01.44-2.92,1.35-2.02,2.02-1.26,5.16,1.11,7.52s5.33,2.94,7.34.93c.97-.97,1.01-2.32.88-3.79Z"/><path class="cls-8" d="M203.21,580.75c0,3.9-2.64,6.45-5.69,6.45-1.4,0-2.68-.53-3.69-1.49v6.45h-1.97v-16.98l1.87-.46h.09v1.84c1.17-1.22,2.66-1.93,4.22-1.93,2.98,0,5.16,2.55,5.16,6.13ZM201.29,580.93c0-3.49-1.17-5.9-3.53-5.9-1.33,0-2.87.86-3.94,2.1v7.41c.73,1.42,2.11,2.29,3.67,2.29,2.5,0,3.8-2.3,3.8-5.9Z"/><path class="cls-8" d="M217.03,574.72v17.44h-2.03v-6.89c-1.17,1.22-2.66,1.93-4.22,1.93-2.98,0-5.17-2.55-5.17-6.13,0-3.9,2.64-6.45,5.69-6.45,1.45,0,2.8.57,3.83,1.63l1.76-1.54h.14ZM214.99,577.29c-.73-1.42-2.09-2.44-3.65-2.44-2.5,0-3.78,2.36-3.78,5.97s1.14,5.84,3.51,5.84c1.33,0,2.85-.71,3.92-1.95v-7.41Z"/><path class="cls-8" d="M227.31,574.82l-.72,1.85c-.44-.21-.89-.46-1.25-.54-1.15-.25-2.25.13-3.01,1.34v9.46h-1.94v-11.75l1.84-.46h.09v2.48c1.01-1.54,2.25-2.53,3.86-2.53.37,0,.73.05,1.12.14Z"/><path class="cls-8" d="M237.31,583.9c0,2.04-1.77,3.3-4.29,3.3-1.31,0-2.8-.34-4.13-1.24l.78-1.89c.99.99,1.73,2.95,3.43,2.95,1.91,0,3.17-.82,3.22-2.36.04-1.19-1.68-1.9-3.12-2.54l-.92-.41c-1.63-.73-3.12-2.24-3.12-4.17s1.65-2.91,3.81-2.91c1.45,0,2.92.44,3.88,1.01l-1.08,2.41c-.8-.67-1.41-3.28-2.9-3.28-1.77,0-2.74,1.23-2.74,2.43,0,1.51,1.68,2.16,2.89,2.71l.92.41c1.54.69,3.37,1.51,3.38,3.58Z"/><path class="cls-8" d="M247.46,586.35c-.87.51-1.7.85-2.78.85-2.71,0-3.6-2.2-3.6-3.03l-.02-8.91-1.81.59-.17-.95h1.86s2.04-3.61,2.04-3.61h.09v3.6h4.25l-.58,1.12-3.66-.76v8.72c-.01.71,0,2.93,2.12,2.93.55,0,1.26-.4,2.07-.84l.18.28Z"/><path class="cls-8" d="M260.81,586.65l-1.96.46-.6-1.97v-.12c-1.26,1.29-2.98,2.18-4.68,2.18-2.5,0-3.79-1.35-3.79-4.27v-7.76l1.94-.46h.09v8.03c0,1.01-.45,3.83,2.72,3.83,1.42,0,2.62-.83,3.72-2.11v-9.29l1.96-.46h.09v10.19l.5,1.74Z"/><path class="cls-8" d="M269.35,585.94l.5,1.22h-1.9l-5.16-12.26h1.97l4.41,10.43,3.82-10.43h.45s-4.09,11.03-4.09,11.03Z"/><path class="cls-8" d="M287.82,586.2l.33.95h-1.62l-2.98-7.06-2.24,6.02.45,1.04h-1.78l-5.16-12.26h1.97l4.33,10.66,2.2-6.01-1.96-4.65h1.65l1.04,2.66.97-2.65h.45s-1.19,3.22-1.19,3.22l3.31,7.61,3.97-10.83h.45s-4.19,11.3-4.19,11.3Z"/><path class="cls-8" d="M305.65,586.92h-2.34l-4.34-5.49-5.14,5.49h-.51l5.4-5.81-4.9-6.21h2.14l4.03,5,4.5-5h.58l-4.82,5.32,5.4,6.7Z"/><path class="cls-8" d="M317.02,574.87l-4.34,11.68-.11.3-.07.18-.02.06-.02.03-.74,1.73c-1.06,2.62-3.99,3.42-5.96,3.42l.14-2.61c.3.07.62.09.87.09,1.08,0,3.75,1,4.51-.9l.83-2.07-5.19-11.91h1.97l4.2,9.47-.44,1.19,3.91-10.66h.45Z"/><path class="cls-8" d="M328.39,585.06h.07l-.29,1.86h-9.67v-.09l7.3-11.59h-1c-2.29,0-3.82,1.25-5.38,1.53h-.07l.36-1.87h8.42v.09l-7.3,11.59h2.07c2.3,0,3.94-1.24,5.5-1.52h0Z"/><path class="cls-8" d="M14.17,604.94v16.98h-1.87v-14.6c-.9.62-2.04,1.15-3.05,1.51v-.28c1.38-.64,3.82-1.97,4.83-3.63h.09Z"/><path class="cls-8" d="M27.48,619.76l-.64,2.16h-9.85v-.09l1.33-1.38c5.55-5.74,6.85-8.64,6.85-10.98,0-2.16-1.26-3.74-3.44-3.74-1.65,0-3.2.72-4.46,3.2l-.3-.14c.57-1.26,2.97-4.27,6.32-4.27,2.66,0,4.54,1.7,4.54,4.38,0,2.46-3.09,5.9-9.36,11.78l-.37.34,1.93.02c2.98,0,5.14-.97,7.43-1.29Z"/><path class="cls-8" d="M40.97,617.15c0,3.24-3.63,5.05-6.64,5.05-1.33,0-2.75-.37-4.09-1.1l.63-1.64c1.31,1.22,2.16,2.51,3.72,2.51,2.29,0,4.42-2.31,3.65-5.48-.48-1.96-2.72-2.92-3.75-2.99l-.94-.07-.09-.25.96-.3c1.91-.6,3.41-1.54,3.41-3.72,0-1.95-1.41-3.42-3.11-3.42-2.07,0-3.35,1.22-3.95,2.11l-.3-.14c.85-1.33,3.36-2.78,5.79-2.78,2.18,0,4.08,1.19,4.08,3.47,0,1.95-2.85,3.56-4.53,4.25v.05c2.13.41,5.15,2.11,5.15,4.45Z"/><path class="cls-8" d="M55.8,617.49h-2.48v4.43h-1.93v-4.43h-7.71v-.62l8.77-11.84h.87v11.02h2.71l-.23,1.45ZM51.51,607.24h-.29s-6.52,8.81-6.52,8.81h6.69l.12-8.81Z"/><path class="cls-8" d="M66.57,616.73c0,3.24-2.55,5.32-5.58,5.32-1.31,0-2.64-.34-3.95-1.03l.79-1.66c1.19,1.15,1.88,2.34,3.35,2.34,2.48,0,3.36-1.91,3.36-4.59,0-2.89-1.06-5.61-5.46-5.61h-.87l.51-6.43h7.44l-.38,1.97h-6.77l-.35,4.09h.6c4.93,0,7.32,2.3,7.32,5.6Z"/><path class="cls-8" d="M79.73,616.94c0,3.14-2.27,5.26-5.12,5.26-3.03,0-5.26-2.39-5.26-6.68,0-4.91,2.91-9,7.67-10.58l.11.34c-4.02,1.42-5.63,5.31-5.63,10.22,0,3.97.75,6.37,3.29,6.37,2.25,0,3.21-2.28,2.97-6.25-.16-2.78-2.21-3.43-3.23-3.34-1.1.1-1.74.49-2.59,1.18l-.23-.28c.99-.85,2.04-1.22,3.3-1.22,2.69,0,4.71,2,4.71,4.98Z"/><path class="cls-8" d="M91.85,605.21v.09l-6.22,16.62h-1.29l6.42-14.56h-2.77c-2.98.01-5.42.2-6.98.56l.85-2.72h9.98Z"/><path class="cls-8" d="M106.32,617.68c0,2.52-2.97,4.51-6.07,4.51-2.59,0-5.74-1.34-5.74-3.86s2.2-4.17,4.64-5.02c-1.86-.92-3.9-2.24-3.9-4.26,0-2.18,2.46-4.12,5.32-4.12,2.46,0,5.03,1.74,5.03,3.8,0,2.32-2.39,3.54-4.08,4.27h.02c2.64,1.1,4.79,2.56,4.79,4.67ZM104.59,618.56c0-1.67-1.29-3.48-3.6-4.45l-1.15-.48-.32-.14c-2.16.94-3.03,1.64-3.1,3.38-.14,3.45,1.93,5,4.13,5s4.04-1.11,4.04-3.31ZM100.39,612.53l.73.32c1.65-.94,2.59-2.03,2.59-4.67,0-2.02-1.33-2.92-3.31-2.92-2.09,0-3.35.97-3.35,2.92,0,1.72,1.17,3.46,3.33,4.35Z"/><path class="cls-8" d="M119.64,611.38c0,4.91-3.82,9.24-8.57,10.82l-.11-.34c4.02-1.42,6.45-5.37,6.45-10.28,0-3.97-1.56-6.31-4.11-6.31-2.25,0-3.25,2.03-3.02,6,.16,2.78,2.26,3.68,3.27,3.59,1.1-.1,1.74-.49,2.59-1.18l.23.28c-.99.85-2.04,1.21-3.3,1.21-2.69,0-4.71-2-4.71-4.98,0-3.14,2.27-5.26,5.12-5.26,3.03,0,6.16,2.15,6.16,6.44Z"/><path class="cls-8" d="M134.91,613.47c0,5.19-2.46,8.72-6.24,8.72s-6.2-3.26-6.2-8.54,2.46-8.72,6.24-8.72,6.2,3.26,6.2,8.54ZM132.94,613.43c0-4.96-1.06-8.28-4.3-8.28-3.21,0-4.13,3.48-4.13,8.28s1.05,8.57,4.26,8.57,4.17-3.75,4.17-8.57Z"/><path class="cls-4" d="M870.88,494.25c-1.43,1.38-3.61,2.07-6.53,2.07h-4.82v10.48h-3.28v-25.09h8.1c2.83,0,4.99.68,6.46,2.05s2.21,3.13,2.21,5.29-.71,3.82-2.14,5.2ZM868.38,492.43c.86-.79,1.3-1.92,1.3-3.38,0-3.1-1.78-4.64-5.33-4.64h-4.82v9.22h4.82c1.82,0,3.17-.4,4.03-1.19Z"/><path class="cls-4" d="M881,505.86c-1.5-.84-2.68-2.03-3.53-3.58-.85-1.55-1.28-3.34-1.28-5.38s.44-3.8,1.31-5.35c.88-1.55,2.07-2.74,3.58-3.56,1.51-.83,3.2-1.24,5.08-1.24s3.56.41,5.08,1.24c1.51.83,2.71,2.01,3.58,3.55s1.31,3.32,1.31,5.36-.45,3.83-1.35,5.38c-.9,1.55-2.12,2.74-3.65,3.58-1.54.84-3.24,1.26-5.11,1.26s-3.52-.42-5.02-1.26ZM889.33,503.42c1.03-.55,1.87-1.38,2.5-2.48.63-1.1.95-2.45.95-4.03s-.31-2.93-.94-4.03-1.44-1.93-2.45-2.47-2.1-.81-3.28-.81-2.3.27-3.29.81c-1,.54-1.79,1.36-2.39,2.47s-.9,2.45-.9,4.03.29,2.96.88,4.07c.59,1.1,1.37,1.93,2.36,2.47s2.06.81,3.24.81,2.28-.28,3.31-.83Z"/><path class="cls-4" d="M906.99,487.88c1.28-.76,2.78-1.13,4.48-1.13s3.34.42,4.77,1.26c1.43.84,2.55,2.02,3.37,3.55.82,1.52,1.22,3.29,1.22,5.31s-.41,3.77-1.22,5.33c-.82,1.56-1.94,2.77-3.37,3.64-1.43.86-3.02,1.3-4.77,1.3s-3.16-.38-4.45-1.13c-1.28-.76-2.26-1.7-2.93-2.83v13h-3.28v-29.09h3.28v3.64c.65-1.13,1.61-2.07,2.9-2.83ZM916.59,492.97c-.6-1.1-1.41-1.94-2.43-2.52-1.02-.58-2.14-.86-3.37-.86s-2.31.29-3.33.88c-1.02.59-1.84,1.44-2.45,2.56-.61,1.12-.92,2.41-.92,3.87s.31,2.79.92,3.91,1.43,1.97,2.45,2.56c1.02.59,2.13.88,3.33.88s2.35-.29,3.37-.88c1.02-.59,1.83-1.44,2.43-2.56.6-1.12.9-2.43.9-3.94s-.3-2.78-.9-3.89Z"/><path class="cls-4" d="M931.65,487.88c1.28-.76,2.78-1.13,4.48-1.13s3.34.42,4.77,1.26c1.43.84,2.55,2.02,3.37,3.55.82,1.52,1.22,3.29,1.22,5.31s-.41,3.77-1.22,5.33c-.82,1.56-1.94,2.77-3.37,3.64-1.43.86-3.02,1.3-4.77,1.3s-3.16-.38-4.45-1.13c-1.28-.76-2.26-1.7-2.93-2.83v13h-3.28v-29.09h3.28v3.64c.65-1.13,1.61-2.07,2.9-2.83ZM941.25,492.97c-.6-1.1-1.41-1.94-2.43-2.52-1.02-.58-2.14-.86-3.37-.86s-2.31.29-3.33.88c-1.02.59-1.84,1.44-2.45,2.56-.61,1.12-.92,2.41-.92,3.87s.31,2.79.92,3.91,1.43,1.97,2.45,2.56c1.02.59,2.13.88,3.33.88s2.35-.29,3.37-.88c1.02-.59,1.83-1.44,2.43-2.56.6-1.12.9-2.43.9-3.94s-.3-2.78-.9-3.89Z"/><path class="cls-4" d="M950.25,483.22c-.43-.43-.65-.96-.65-1.58s.22-1.15.65-1.58.96-.65,1.58-.65,1.11.22,1.53.65.63.96.63,1.58-.21,1.15-.63,1.58-.93.65-1.53.65-1.15-.22-1.58-.65ZM953.41,487.07v19.73h-3.28v-19.73h3.28Z"/><path class="cls-4" d="M974.8,488.89c1.49,1.45,2.23,3.55,2.23,6.28v11.63h-3.24v-11.16c0-1.97-.49-3.47-1.48-4.52-.98-1.04-2.33-1.57-4.03-1.57s-3.1.54-4.12,1.62c-1.02,1.08-1.53,2.65-1.53,4.72v10.91h-3.28v-19.73h3.28v2.81c.65-1.01,1.53-1.79,2.65-2.34,1.12-.55,2.35-.83,3.69-.83,2.4,0,4.34.73,5.83,2.18Z"/><path class="cls-4" d="M985.63,506.35c-1.2-.52-2.15-1.24-2.84-2.16-.7-.92-1.08-1.99-1.15-3.19h3.38c.1.98.56,1.79,1.39,2.41s1.91.94,3.26.94c1.25,0,2.23-.28,2.95-.83.72-.55,1.08-1.25,1.08-2.09s-.38-1.51-1.15-1.93c-.77-.42-1.96-.83-3.56-1.24-1.46-.38-2.66-.77-3.58-1.17-.92-.4-1.72-.98-2.38-1.76s-.99-1.81-.99-3.08c0-1.01.3-1.93.9-2.77.6-.84,1.45-1.51,2.56-2,1.1-.49,2.36-.74,3.78-.74,2.18,0,3.95.55,5.29,1.66,1.34,1.1,2.06,2.62,2.16,4.54h-3.28c-.07-1.03-.49-1.86-1.24-2.48s-1.77-.94-3.04-.94c-1.18,0-2.11.25-2.81.76-.7.5-1.04,1.17-1.04,1.98,0,.65.21,1.18.63,1.6.42.42.95.76,1.58,1.01.64.25,1.52.53,2.65.85,1.42.38,2.57.76,3.46,1.13s1.65.93,2.29,1.67c.64.74.97,1.72.99,2.92,0,1.08-.3,2.05-.9,2.92-.6.86-1.45,1.54-2.54,2.03s-2.35.74-3.76.74c-1.51,0-2.87-.26-4.07-.77Z"/><path class="cls-8" d="M591.8,554.81h-7.63l-1.46,3.98h-1.78l6.12-16.56h1.9l6.1,16.56h-1.78l-1.46-3.98ZM591.29,553.42l-3.31-9.07-3.31,9.07h6.62Z"/><path class="cls-8" d="M609.17,551.58c.66.78.98,1.7.98,2.74,0,.85-.21,1.61-.64,2.29-.42.68-1.04,1.22-1.86,1.61-.82.39-1.79.59-2.93.59h-5.81v-16.78h5.64c1.7,0,2.99.39,3.88,1.18.89.78,1.33,1.8,1.33,3.05,0,1.04-.28,1.88-.84,2.53-.56.65-1.28,1.1-2.16,1.36.94.18,1.74.66,2.4,1.44ZM600.6,549.44h3.91c1.14,0,2.01-.27,2.63-.8s.92-1.28.92-2.22-.31-1.66-.92-2.18c-.62-.53-1.52-.79-2.7-.79h-3.84v6ZM607.46,556.52c.68-.58,1.02-1.37,1.02-2.38s-.36-1.81-1.07-2.41c-.71-.6-1.67-.9-2.87-.9h-3.94v6.55h4.01c1.22,0,2.16-.29,2.84-.86Z"/><path class="cls-8" d="M614.76,545.97c.72-1.3,1.7-2.32,2.95-3.05,1.25-.73,2.64-1.09,4.18-1.09,1.87,0,3.48.44,4.81,1.33,1.34.89,2.31,2.14,2.92,3.76h-1.97c-.48-1.14-1.21-2.02-2.2-2.66-.98-.64-2.17-.96-3.56-.96-1.23,0-2.34.29-3.32.86-.98.58-1.76,1.4-2.32,2.48-.56,1.08-.84,2.33-.84,3.76s.28,2.67.84,3.74c.56,1.07,1.33,1.9,2.32,2.47.98.58,2.09.86,3.32.86,1.39,0,2.58-.32,3.56-.95.98-.63,1.72-1.51,2.2-2.63h1.97c-.61,1.6-1.58,2.84-2.93,3.72s-2.94,1.32-4.8,1.32c-1.54,0-2.93-.36-4.18-1.09-1.25-.73-2.23-1.74-2.95-3.04s-1.08-2.77-1.08-4.42.36-3.12,1.08-4.43Z"/><path class="cls-8" d="M643.88,543.03c1.33.67,2.34,1.64,3.05,2.9.7,1.26,1.06,2.77,1.06,4.51s-.35,3.22-1.06,4.48-1.72,2.22-3.05,2.88-2.92,1-4.78,1h-4.97v-16.78h4.97c1.86,0,3.45.34,4.78,1.01ZM644.44,555.57c1.22-1.22,1.84-2.93,1.84-5.12s-.61-3.93-1.84-5.17c-1.22-1.24-3-1.86-5.34-1.86h-3.29v13.99h3.29c2.33,0,4.12-.61,5.34-1.84Z"/><path class="cls-8" d="M653.96,543.39v6.26h6.36v1.39h-6.36v6.36h7.08v1.39h-8.76v-16.8h8.76v1.39h-7.08Z"/><path class="cls-8" d="M674.62,542.02v1.39h-7.39v6.26h6.24v1.39h-6.24v7.73h-1.68v-16.78h9.07Z"/><path class="cls-8" d="M691.78,546.92c-.48-1.1-1.21-1.97-2.2-2.6-.98-.63-2.14-.95-3.47-.95-1.25,0-2.37.29-3.36.86-.99.58-1.78,1.4-2.35,2.46-.58,1.06-.86,2.3-.86,3.71s.29,2.65.86,3.72c.58,1.07,1.36,1.9,2.35,2.47s2.11.86,3.36.86c1.17,0,2.22-.25,3.16-.76.94-.5,1.69-1.22,2.26-2.16.57-.94.89-2.03.97-3.28h-7.06v-1.37h8.83v1.22c-.08,1.47-.48,2.8-1.2,4-.72,1.19-1.68,2.13-2.89,2.82-1.21.69-2.56,1.03-4.07,1.03s-2.96-.36-4.22-1.09c-1.26-.73-2.26-1.74-2.99-3.05-.73-1.3-1.09-2.78-1.09-4.43s.36-3.12,1.09-4.43c.73-1.3,1.72-2.32,2.99-3.05,1.26-.73,2.67-1.09,4.22-1.09,1.79,0,3.36.45,4.7,1.34,1.34.9,2.32,2.14,2.93,3.74h-1.97Z"/><path class="cls-8" d="M711,542.02v16.78h-1.68v-7.85h-9.1v7.85h-1.68v-16.78h1.68v7.54h9.1v-7.54h1.68Z"/><path class="cls-8" d="M717.72,542.02v16.78h-1.68v-16.78h1.68Z"/><path class="cls-8" d="M730.49,542.02v12.7c0,1.28-.39,2.31-1.18,3.08-.78.78-1.83,1.16-3.14,1.16s-2.44-.41-3.25-1.24c-.81-.82-1.21-1.94-1.21-3.35h1.7c.02.91.24,1.66.68,2.23.44.58,1.13.86,2.08.86s1.56-.26,1.99-.79c.43-.53.65-1.18.65-1.97v-12.7h1.68Z"/><path class="cls-8" d="M744.84,558.8l-7.27-7.75v7.75h-1.68v-16.78h1.68v7.85l7.27-7.85h2.14l-7.85,8.38,7.92,8.4h-2.21Z"/><path class="cls-8" d="M752.4,557.43h6.02v1.37h-7.7v-16.78h1.68v15.41Z"/><path class="cls-8" d="M778.42,542.24v16.56h-1.68v-13.22l-5.9,13.22h-1.22l-5.9-13.18v13.18h-1.68v-16.56h1.78l6.41,14.35,6.41-14.35h1.8Z"/><path class="cls-8" d="M796.08,558.8h-1.68l-9.29-14.11v14.11h-1.68v-16.78h1.68l9.29,14.09v-14.09h1.68v16.78Z"/><path class="cls-8" d="M804.41,557.88c-1.26-.73-2.26-1.74-2.99-3.05-.73-1.3-1.09-2.78-1.09-4.43s.36-3.12,1.09-4.43c.73-1.3,1.72-2.32,2.99-3.05,1.26-.73,2.67-1.09,4.22-1.09s2.98.36,4.25,1.09c1.26.73,2.26,1.74,2.98,3.05.72,1.3,1.08,2.78,1.08,4.43s-.36,3.12-1.08,4.43c-.72,1.3-1.71,2.32-2.98,3.05-1.26.73-2.68,1.09-4.25,1.09s-2.96-.36-4.22-1.09ZM812,556.64c.99-.58,1.78-1.4,2.35-2.48.58-1.08.86-2.33.86-3.76s-.29-2.67-.86-3.74c-.58-1.07-1.36-1.9-2.35-2.47-.99-.58-2.11-.86-3.36-.86s-2.37.29-3.36.86-1.78,1.4-2.35,2.47c-.58,1.07-.86,2.32-.86,3.74s.29,2.68.86,3.76c.58,1.08,1.36,1.91,2.35,2.48s2.11.86,3.36.86,2.37-.29,3.36-.86Z"/><path class="cls-8" d="M830.52,550.33c-.94.88-2.36,1.32-4.25,1.32h-3.38v7.15h-1.68v-16.78h5.06c1.87,0,3.28.44,4.24,1.32s1.43,2.05,1.43,3.5-.47,2.6-1.42,3.48ZM830.21,546.85c0-1.12-.31-1.97-.94-2.54s-1.62-.86-3-.86h-3.38v6.77h3.38c2.62,0,3.94-1.12,3.94-3.36Z"/><path class="cls-8" d="M849.79,562.09l-3.74-3.48c-.82.24-1.67.36-2.57.36-1.55,0-2.96-.36-4.22-1.09-1.26-.73-2.26-1.74-2.99-3.05-.73-1.3-1.09-2.78-1.09-4.43s.36-3.12,1.09-4.43c.73-1.3,1.72-2.32,2.99-3.05,1.26-.73,2.67-1.09,4.22-1.09s2.98.36,4.25,1.09c1.26.73,2.26,1.74,2.98,3.05.72,1.3,1.08,2.78,1.08,4.43s-.38,3.2-1.13,4.52-1.78,2.33-3.1,3.04l4.49,4.13h-2.26ZM837.77,554.16c.58,1.08,1.36,1.91,2.35,2.48s2.11.86,3.36.86,2.37-.29,3.36-.86c.99-.58,1.78-1.4,2.35-2.48.58-1.08.86-2.33.86-3.76s-.29-2.67-.86-3.74c-.58-1.07-1.36-1.9-2.35-2.47-.99-.58-2.11-.86-3.36-.86s-2.37.29-3.36.86-1.78,1.4-2.35,2.47c-.58,1.07-.86,2.32-.86,3.74s.29,2.68.86,3.76Z"/><path class="cls-8" d="M865.01,558.8l-4.15-7.01h-3.1v7.01h-1.68v-16.78h5.04c1.87,0,3.29.45,4.26,1.34.97.9,1.45,2.07,1.45,3.53,0,1.22-.35,2.25-1.04,3.11-.7.86-1.72,1.41-3.08,1.67l4.32,7.13h-2.02ZM857.76,550.42h3.38c1.31,0,2.3-.32,2.96-.96.66-.64,1-1.5,1-2.57s-.32-1.96-.96-2.56c-.64-.6-1.65-.9-3.02-.9h-3.36v6.98Z"/><path class="cls-8" d="M873.54,558.39c-.84-.38-1.5-.92-1.98-1.61-.48-.69-.74-1.46-.77-2.3h1.78c.08.82.44,1.53,1.08,2.15.64.62,1.58.92,2.81.92,1.14,0,2.04-.29,2.7-.88s1-1.32,1-2.22c0-.72-.18-1.3-.55-1.74-.37-.44-.82-.77-1.37-.98-.54-.22-1.3-.45-2.26-.71-1.12-.3-2.01-.6-2.66-.89-.66-.29-1.22-.74-1.68-1.34s-.7-1.43-.7-2.47c0-.86.22-1.64.67-2.32.45-.68,1.08-1.21,1.9-1.6.82-.38,1.75-.58,2.81-.58,1.55,0,2.8.38,3.76,1.14.95.76,1.5,1.74,1.64,2.94h-1.82c-.11-.69-.49-1.3-1.13-1.84-.64-.54-1.5-.8-2.59-.8-1.01,0-1.85.27-2.52.8s-1.01,1.27-1.01,2.2c0,.7.18,1.27.55,1.7.37.43.83.76,1.38.98s1.3.46,2.24.72c1.09.3,1.97.6,2.64.9s1.24.75,1.7,1.36c.46.61.7,1.42.7,2.45,0,.78-.21,1.53-.62,2.23s-1.03,1.27-1.85,1.7c-.82.43-1.79.65-2.93.65s-2.08-.19-2.92-.58Z"/><path class="cls-8" d="M896.11,542.02v1.39h-4.66v15.38h-1.68v-15.38h-4.68v-1.39h11.02Z"/><path class="cls-8" d="M901.59,542.02v10.56c0,1.66.4,2.9,1.19,3.7.79.8,1.88,1.2,3.25,1.2s2.45-.4,3.23-1.19c.78-.79,1.16-2.03,1.16-3.71v-10.56h1.68v10.54c0,2.13-.56,3.73-1.69,4.8-1.13,1.07-2.6,1.61-4.4,1.61s-3.28-.54-4.4-1.61c-1.13-1.07-1.69-2.67-1.69-4.8v-10.54h1.68Z"/><path class="cls-8" d="M930.34,542.02l-6.36,16.78h-1.92l-6.36-16.78h1.82l5.5,14.95,5.54-14.95h1.78Z"/><path class="cls-8" d="M954.41,542.02l-4.75,16.78h-1.87l-4.22-14.3-4.32,14.3-1.82.02-4.66-16.8h1.8l3.84,14.71,4.3-14.71h1.87l4.18,14.71,3.86-14.71h1.8Z"/><path class="cls-8" d="M964.22,550.42l5.09,8.38h-1.87l-4.27-7.01-4.06,7.01h-1.87l5.06-8.45-5.06-8.33h1.87l4.25,6.98,4.1-6.98h1.87l-5.11,8.4Z"/><path class="cls-8" d="M984.5,542.02l-5.38,10.25v6.53h-1.68v-6.53l-5.42-10.25h1.9l4.37,8.71,4.34-8.71h1.87Z"/><path class="cls-8" d="M989.23,557.31h8.57v1.49h-10.54v-1.34l8.45-13.94h-8.3v-1.49h10.27v1.34l-8.45,13.94Z"/><path class="cls-8" d="M625.7,580.67c.54-1.02,1.28-1.8,2.23-2.35s2.03-.83,3.23-.83,2.32.29,3.23.86c.9.58,1.56,1.31,1.96,2.21v-2.88h1.68v13.1h-1.68v-2.9c-.42.9-1.08,1.64-1.98,2.22-.9.58-1.98.88-3.23.88s-2.25-.28-3.2-.84c-.95-.56-1.7-1.35-2.23-2.38-.54-1.02-.8-2.21-.8-3.55s.27-2.52.8-3.54ZM635.69,581.46c-.43-.8-1.02-1.42-1.76-1.85-.74-.43-1.56-.65-2.46-.65s-1.76.21-2.5.62c-.74.42-1.32,1.02-1.74,1.81-.42.79-.64,1.73-.64,2.82s.21,2.01.64,2.82c.42.81,1,1.42,1.74,1.85.74.42,1.57.64,2.5.64s1.72-.22,2.46-.65,1.33-1.05,1.76-1.85c.43-.8.65-1.73.65-2.78s-.22-1.98-.65-2.78Z"/><path class="cls-8" d="M646.72,578.36c.9-.58,1.97-.86,3.2-.86s2.27.28,3.22.83,1.68,1.34,2.22,2.35c.54,1.02.8,2.2.8,3.54s-.27,2.53-.8,3.55c-.54,1.02-1.28,1.82-2.23,2.38-.95.56-2.02.84-3.2.84-1.25,0-2.32-.28-3.23-.85-.9-.57-1.56-1.31-1.98-2.22v2.88h-1.66v-17.76h1.66v7.56c.43-.91,1.1-1.66,2-2.23ZM653.83,581.39c-.42-.79-1-1.4-1.74-1.81-.74-.42-1.57-.62-2.5-.62s-1.72.22-2.46.65c-.74.43-1.33,1.05-1.76,1.85-.43.8-.65,1.73-.65,2.78s.22,1.98.65,2.78c.43.8,1.02,1.42,1.76,1.85s1.56.65,2.46.65,1.76-.21,2.5-.64c.74-.42,1.32-1.04,1.74-1.85.42-.81.64-1.75.64-2.82s-.21-2.03-.64-2.82Z"/><path class="cls-8" d="M660.51,580.67c.54-1.02,1.3-1.8,2.26-2.35s2.06-.83,3.29-.83c1.62,0,2.95.4,4,1.2s1.72,1.89,2.03,3.26h-1.8c-.22-.94-.71-1.68-1.45-2.22s-1.67-.8-2.77-.8c-.88,0-1.67.2-2.38.6-.71.4-1.26,1-1.67,1.79-.41.79-.61,1.76-.61,2.92s.2,2.13.61,2.93c.41.8.96,1.4,1.67,1.8.7.4,1.5.6,2.38.6,1.1,0,2.03-.27,2.77-.8.74-.54,1.23-1.28,1.45-2.24h1.8c-.3,1.34-.98,2.42-2.04,3.24-1.06.82-2.38,1.22-3.98,1.22-1.23,0-2.33-.28-3.29-.83-.96-.55-1.71-1.34-2.26-2.35-.54-1.02-.82-2.2-.82-3.56s.27-2.55.82-3.56Z"/><path class="cls-8" d="M676.42,580.67c.54-1.02,1.29-1.8,2.24-2.35s2.03-.83,3.23-.83,2.19.28,3.12.84c.93.56,1.61,1.29,2.04,2.18v-7.49h1.68v17.76h-1.68v-2.93c-.4.91-1.06,1.66-1.97,2.24s-1.98.88-3.22.88-2.28-.28-3.23-.84c-.95-.56-1.7-1.35-2.23-2.38-.54-1.02-.8-2.21-.8-3.55s.27-2.52.82-3.54ZM686.4,581.46c-.43-.8-1.02-1.42-1.76-1.85-.74-.43-1.56-.65-2.46-.65s-1.76.21-2.5.62c-.74.42-1.32,1.02-1.74,1.81-.42.79-.64,1.73-.64,2.82s.21,2.01.64,2.82,1,1.42,1.74,1.85c.74.42,1.57.64,2.5.64s1.72-.22,2.46-.65,1.33-1.05,1.76-1.85c.43-.8.65-1.73.65-2.78s-.22-1.98-.65-2.78Z"/><path class="cls-8" d="M705.58,584.89h-10.87c.05.99.29,1.84.72,2.54.43.71,1,1.24,1.7,1.6.7.36,1.47.54,2.3.54,1.09,0,2-.26,2.75-.79.74-.53,1.24-1.24,1.48-2.14h1.78c-.32,1.28-1,2.32-2.05,3.13-1.05.81-2.36,1.21-3.95,1.21-1.23,0-2.34-.28-3.31-.83-.98-.55-1.74-1.34-2.29-2.35-.55-1.02-.83-2.2-.83-3.56s.27-2.55.82-3.58c.54-1.02,1.3-1.81,2.28-2.35.98-.54,2.09-.82,3.34-.82s2.34.27,3.28.82c.94.54,1.66,1.28,2.16,2.2.5.92.76,1.94.76,3.06,0,.58-.02,1.02-.05,1.32ZM703.34,581.02c-.41-.69-.96-1.21-1.67-1.56-.71-.35-1.47-.53-2.3-.53-1.25,0-2.31.4-3.19,1.2-.88.8-1.37,1.93-1.46,3.38h9.22c.02-.98-.18-1.81-.59-2.5Z"/><path class="cls-8" d="M715.06,579.1h-3.05v11.69h-1.68v-11.69h-1.82v-1.42h1.82v-.91c0-1.42.36-2.47,1.09-3.14.73-.67,1.91-1.01,3.54-1.01v1.44c-1.09,0-1.85.21-2.29.62-.44.42-.66,1.11-.66,2.09v.91h3.05v1.42Z"/><path class="cls-8" d="M727.61,578.36c.91.58,1.57,1.3,1.97,2.18v-2.86h1.68v13.44c0,1.2-.26,2.26-.78,3.19-.52.93-1.24,1.64-2.17,2.15-.93.5-1.98.76-3.17.76-1.68,0-3.08-.4-4.19-1.2-1.11-.8-1.8-1.89-2.08-3.26h1.66c.29.91.84,1.64,1.64,2.18.81.54,1.8.82,2.96.82.85,0,1.61-.18,2.28-.54.67-.36,1.2-.89,1.58-1.6.38-.7.58-1.54.58-2.5v-3.24c-.42.9-1.08,1.64-1.98,2.22-.9.58-1.97.88-3.2.88s-2.28-.28-3.23-.84c-.95-.56-1.7-1.35-2.23-2.38-.54-1.02-.8-2.21-.8-3.55s.27-2.52.8-3.54c.54-1.02,1.28-1.8,2.23-2.35.95-.55,2.03-.83,3.23-.83s2.3.29,3.22.86ZM728.93,581.46c-.43-.8-1.02-1.42-1.76-1.85-.74-.43-1.56-.65-2.46-.65s-1.76.21-2.5.62c-.74.42-1.32,1.02-1.74,1.81-.42.79-.64,1.73-.64,2.82s.21,2.01.64,2.82,1,1.42,1.74,1.85c.74.42,1.57.64,2.5.64s1.72-.22,2.46-.65c.74-.43,1.33-1.05,1.76-1.85.43-.8.65-1.73.65-2.78s-.22-1.98-.65-2.78Z"/><path class="cls-8" d="M745.22,578.07c.79.42,1.42,1.05,1.87,1.91.46.86.68,1.9.68,3.13v7.68h-1.66v-7.49c0-1.42-.36-2.51-1.07-3.26s-1.68-1.13-2.92-1.13-2.27.4-3.02,1.2-1.13,1.98-1.13,3.53v7.15h-1.68v-17.76h1.68v6.89c.42-.78,1.03-1.39,1.84-1.82.81-.43,1.72-.65,2.72-.65s1.88.21,2.68.62Z"/><path class="cls-8" d="M752.67,574.86c-.24-.24-.36-.54-.36-.89s.12-.64.36-.88c.24-.23.53-.35.86-.35s.62.12.86.35c.24.23.36.52.36.88s-.12.65-.36.89c-.24.24-.53.36-.86.36s-.62-.12-.86-.36ZM754.37,577.69v13.1h-1.68v-13.1h1.68Z"/><path class="cls-8" d="M761.16,593.89c0,1.06-.26,1.84-.79,2.34-.53.5-1.32.76-2.38.76h-1.18v-1.44h.91c.62,0,1.07-.13,1.34-.4.27-.26.41-.71.41-1.33v-16.13h1.68v16.2ZM759.48,574.86c-.24-.24-.36-.54-.36-.89s.12-.64.36-.88c.24-.23.53-.35.86-.35s.62.12.85.35c.23.23.35.52.35.88s-.12.65-.35.89c-.23.24-.52.36-.85.36s-.62-.12-.86-.36Z"/><path class="cls-8" d="M773.28,590.79l-5.4-5.88v5.88h-1.68v-17.76h1.68v10.51l5.28-5.86h2.35l-6.22,6.53,6.26,6.58h-2.28Z"/><path class="cls-8" d="M780.6,573.03v17.76h-1.68v-17.76h1.68Z"/><path class="cls-8" d="M804.97,578.9c.97.97,1.45,2.37,1.45,4.21v7.68h-1.66v-7.49c0-1.42-.34-2.51-1.03-3.26-.69-.75-1.62-1.13-2.81-1.13s-2.22.41-2.95,1.22c-.74.82-1.1,2-1.1,3.55v7.1h-1.66v-7.49c0-1.42-.34-2.51-1.03-3.26-.69-.75-1.63-1.13-2.83-1.13s-2.22.41-2.95,1.22c-.74.82-1.1,2-1.1,3.55v7.1h-1.68v-13.1h1.68v2.26c.42-.82,1.01-1.44,1.78-1.86s1.62-.64,2.57-.64c1.14,0,2.13.27,2.99.82.86.54,1.48,1.34,1.86,2.4.35-1.04.96-1.84,1.81-2.39.86-.55,1.83-.83,2.92-.83,1.54,0,2.79.48,3.76,1.45Z"/><path class="cls-8" d="M821.33,578.9c.99.97,1.49,2.37,1.49,4.21v7.68h-1.66v-7.49c0-1.42-.36-2.51-1.07-3.26s-1.68-1.13-2.92-1.13-2.27.4-3.02,1.2-1.13,1.98-1.13,3.53v7.15h-1.68v-13.1h1.68v2.23c.42-.8,1.02-1.41,1.8-1.84.78-.42,1.67-.64,2.66-.64,1.57,0,2.85.48,3.84,1.45Z"/><path class="cls-8" d="M830.13,590.16c-.98-.55-1.76-1.34-2.33-2.35-.57-1.02-.85-2.2-.85-3.56s.29-2.55.86-3.56c.58-1.02,1.36-1.8,2.35-2.35s2.1-.83,3.34-.83,2.35.28,3.35.83,1.78,1.34,2.35,2.35c.57,1.02.85,2.2.85,3.56s-.29,2.53-.86,3.55c-.58,1.02-1.37,1.81-2.38,2.36-1.01.55-2.13.83-3.36.83s-2.34-.28-3.32-.83ZM835.85,588.93c.74-.39,1.33-.98,1.79-1.78s.68-1.76.68-2.92-.22-2.12-.67-2.92c-.45-.79-1.04-1.38-1.78-1.78-.74-.39-1.54-.59-2.4-.59s-1.66.2-2.4.59c-.74.39-1.32.98-1.76,1.78-.44.79-.66,1.76-.66,2.92s.22,2.12.66,2.92c.44.79,1.02,1.38,1.75,1.78.73.39,1.52.59,2.39.59s1.66-.2,2.4-.59Z"/><path class="cls-8" d="M847.96,578.37c.9-.58,1.98-.88,3.23-.88,1.18,0,2.25.28,3.2.83.95.55,1.7,1.34,2.23,2.35.54,1.02.8,2.2.8,3.54s-.27,2.53-.8,3.55c-.54,1.02-1.28,1.82-2.23,2.38-.95.56-2.02.84-3.2.84s-2.3-.29-3.22-.88-1.58-1.32-1.99-2.2v9.07h-1.66v-19.3h1.66v2.88c.42-.88,1.08-1.61,1.98-2.2ZM855.09,581.39c-.42-.79-1-1.4-1.74-1.81-.74-.42-1.57-.62-2.5-.62s-1.72.22-2.46.65c-.74.43-1.33,1.05-1.76,1.85-.43.8-.65,1.73-.65,2.78s.22,1.98.65,2.78c.43.8,1.02,1.42,1.76,1.85s1.56.65,2.46.65,1.76-.21,2.5-.64c.74-.42,1.32-1.04,1.74-1.85s.64-1.75.64-2.82-.21-2.03-.64-2.82Z"/><path class="cls-8" d="M861.77,580.67c.54-1.02,1.29-1.8,2.24-2.35s2.03-.83,3.23-.83,2.3.29,3.22.88,1.56,1.32,1.94,2.2v-2.88h1.68v19.3h-1.68v-9.07c-.38.88-1.04,1.61-1.96,2.2s-2,.88-3.25.88c-1.18,0-2.25-.28-3.2-.84-.95-.56-1.7-1.35-2.23-2.38-.54-1.02-.8-2.21-.8-3.55s.27-2.52.82-3.54ZM871.75,581.46c-.43-.8-1.02-1.42-1.76-1.85-.74-.43-1.56-.65-2.46-.65s-1.76.21-2.5.62c-.74.42-1.32,1.02-1.74,1.81-.42.79-.64,1.73-.64,2.82s.21,2.01.64,2.82,1,1.42,1.74,1.85c.74.42,1.57.64,2.5.64s1.72-.22,2.46-.65c.74-.43,1.33-1.05,1.76-1.85.43-.8.65-1.73.65-2.78s-.22-1.98-.65-2.78Z"/><path class="cls-8" d="M882.49,578.12c.76-.45,1.69-.67,2.8-.67v1.75h-.46c-1.22,0-2.19.33-2.93.98-.74.66-1.1,1.75-1.1,3.29v7.32h-1.68v-13.1h1.68v2.33c.37-.82.93-1.45,1.69-1.9Z"/><path class="cls-8" d="M889.84,589.94c-.95-.7-1.48-1.64-1.6-2.84h1.73c.08.74.43,1.33,1.04,1.79s1.44.68,2.48.68c.91,0,1.63-.22,2.15-.65.52-.43.78-.97.78-1.61,0-.45-.14-.82-.43-1.1s-.65-.52-1.09-.68c-.44-.17-1.04-.35-1.79-.54-.98-.26-1.77-.51-2.38-.77-.61-.26-1.12-.64-1.55-1.14s-.64-1.18-.64-2.03c0-.64.19-1.23.58-1.78s.93-.98,1.63-1.3c.7-.32,1.5-.48,2.4-.48,1.41,0,2.54.36,3.41,1.07.86.71,1.33,1.69,1.39,2.94h-1.68c-.05-.77-.35-1.39-.9-1.86-.55-.47-1.31-.71-2.27-.71-.85,0-1.54.2-2.06.6-.53.4-.79.9-.79,1.49,0,.51.16.93.47,1.26.31.33.7.58,1.16.77.46.18,1.09.39,1.87.61.94.26,1.7.5,2.26.74.56.24,1.04.59,1.44,1.06.4.46.61,1.08.62,1.85,0,.71-.19,1.33-.58,1.88-.38.55-.92.99-1.61,1.31-.69.32-1.48.48-2.38.48-1.5,0-2.73-.35-3.68-1.04Z"/><path class="cls-8" d="M904.63,579.1v8.14c0,.8.15,1.35.46,1.66.3.3.84.46,1.61.46h1.54v1.44h-1.8c-1.18,0-2.06-.28-2.64-.83-.58-.55-.86-1.46-.86-2.72v-8.14h-1.82v-1.42h1.82v-3.29h1.7v3.29h3.6v1.42h-3.6Z"/><path class="cls-8" d="M923.55,577.69v13.1h-1.68v-2.3c-.38.82-.98,1.44-1.78,1.87-.8.43-1.7.65-2.69.65-1.57,0-2.85-.48-3.84-1.45-.99-.97-1.49-2.37-1.49-4.21v-7.66h1.66v7.46c0,1.42.36,2.51,1.07,3.26.71.75,1.68,1.13,2.92,1.13s2.27-.4,3.02-1.2c.75-.8,1.13-1.98,1.13-3.53v-7.13h1.68Z"/><path class="cls-8" d="M933.22,589.16l4.42-11.47h1.78l-5.26,13.1h-1.9l-5.26-13.1h1.8l4.42,11.47Z"/><path class="cls-8" d="M960.17,577.69l-4.1,13.1h-1.68l-3.62-10.99-3.62,10.99h-1.7l-4.1-13.1h1.7l3.26,11.4,3.67-11.4h1.68l3.62,11.42,3.24-11.42h1.66Z"/><path class="cls-8" d="M970.51,590.79l-3.38-5.28-3.26,5.28h-1.78l4.22-6.55-4.18-6.55h1.9l3.34,5.21,3.24-5.21h1.75l-4.18,6.48,4.22,6.62h-1.9Z"/><path class="cls-8" d="M986.69,577.69l-7.78,19.27h-1.75l2.54-6.24-5.38-13.03h1.85l4.46,11.18,4.32-11.18h1.73Z"/><path class="cls-8" d="M991.06,589.4h6.86v1.39h-8.78v-1.39l6.74-10.32h-6.62v-1.39h8.54v1.39l-6.74,10.32Z"/><g class="cls-2"><path class="cls-8" d="M851.88,607.1v-1.51h4.08v17.21h-1.7v-15.7h-2.38Z"/><path class="cls-8" d="M867.4,615.54c1.61-1.75,2.41-3.47,2.41-5.15,0-1.1-.28-1.99-.83-2.65-.55-.66-1.45-1-2.7-1s-2.16.38-2.82,1.14c-.66.76-1.04,1.77-1.12,3.04h-1.63c.1-1.78.64-3.16,1.64-4.14,1-.98,2.31-1.48,3.92-1.48s2.81.44,3.77,1.31c.96.87,1.44,2.11,1.44,3.71,0,1.94-.8,3.81-2.41,5.63-1.61,1.82-3.59,3.59-5.94,5.32h8.88v1.42h-11.45v-1.2c2.94-2.21,5.22-4.19,6.83-5.94Z"/><path class="cls-8" d="M877.45,606.54c1.02-.84,2.33-1.26,3.95-1.26,1.07,0,1.99.19,2.76.58.77.38,1.35.91,1.74,1.57.39.66.59,1.41.59,2.24,0,1.01-.3,1.88-.89,2.62s-1.43,1.19-2.52,1.37v.12c1.14.22,2.04.72,2.71,1.48.67.76,1.01,1.76,1.01,2.99,0,1.38-.46,2.5-1.38,3.37-.92.87-2.25,1.31-4,1.31s-3.03-.44-4.1-1.31c-1.07-.87-1.69-2.11-1.85-3.71h1.63c.14,1.07.59,1.94,1.34,2.6s1.74,1,2.98,1,2.15-.32,2.8-.96c.65-.64.97-1.46.97-2.45,0-2.43-1.75-3.65-5.26-3.65h-.53v-1.42h.55c3.26,0,4.9-1.06,4.9-3.19,0-.93-.3-1.68-.91-2.24-.61-.57-1.47-.85-2.59-.85s-1.99.28-2.7.85c-.71.57-1.13,1.36-1.26,2.39h-1.63c.11-1.46.68-2.6,1.69-3.44Z"/><path class="cls-8" d="M890.33,618.72v-1.27l8.74-11.76h1.99v11.57h2.57v1.46h-2.57v4.08h-1.66v-4.08h-9.07ZM899.47,607.54l-7.2,9.72h7.2v-9.72Z"/><path class="cls-8" d="M917.83,607.03h-8.78v6.14c.4-.56.98-1.02,1.75-1.38s1.6-.54,2.5-.54c1.31,0,2.38.27,3.22.8.83.54,1.43,1.23,1.8,2.09.37.86.55,1.77.55,2.75,0,1.12-.21,2.13-.64,3.04-.42.9-1.07,1.62-1.94,2.15-.87.53-1.96.79-3.25.79-1.65,0-2.98-.43-4.01-1.28-1.02-.86-1.65-2.01-1.87-3.47h1.66c.21,1.06.69,1.87,1.44,2.45.75.58,1.68.86,2.78.86,1.39,0,2.44-.41,3.16-1.24s1.07-1.92,1.07-3.28-.36-2.36-1.08-3.11-1.75-1.12-3.1-1.12c-.93,0-1.74.22-2.45.65s-1.22,1.02-1.56,1.75h-1.58v-9.53h10.34v1.46Z"/><path class="cls-8" d="M929.26,606.67c-1.57,0-2.74.61-3.53,1.82s-1.14,3.21-1.08,5.98c.32-.96.93-1.72,1.84-2.27.9-.55,1.94-.83,3.11-.83,1.68,0,3.01.52,4,1.55.98,1.03,1.48,2.45,1.48,4.26,0,1.06-.2,2.01-.61,2.87-.41.86-1.03,1.54-1.87,2.05-.84.51-1.88.77-3.13.77-2.38,0-4.03-.76-4.93-2.28-.9-1.52-1.36-3.67-1.36-6.46,0-5.92,2.03-8.88,6.1-8.88,1.54,0,2.74.42,3.62,1.26s1.4,1.93,1.56,3.28h-1.56c-.35-2.08-1.56-3.12-3.62-3.12ZM927.14,613.27c-.67.3-1.22.76-1.64,1.38-.42.62-.64,1.37-.64,2.27,0,1.3.38,2.38,1.15,3.24.77.86,1.89,1.3,3.36,1.3,1.23,0,2.22-.38,2.95-1.13.74-.75,1.1-1.78,1.1-3.07,0-1.39-.36-2.48-1.08-3.26s-1.74-1.18-3.07-1.18c-.75,0-1.46.15-2.14.46Z"/><path class="cls-8" d="M949.59,606.91l-6.7,15.89h-1.7l6.77-15.74h-9.6v-1.44h11.23v1.3Z"/><path class="cls-8" d="M954.35,612.36c-.52-.69-.78-1.52-.78-2.5,0-.86.22-1.64.66-2.32.44-.68,1.08-1.22,1.93-1.61.85-.39,1.86-.59,3.05-.59s2.2.2,3.05.59c.85.39,1.49.93,1.93,1.61.44.68.66,1.45.66,2.32,0,.96-.26,1.79-.78,2.5-.52.71-1.28,1.21-2.27,1.51,1.09.27,1.94.79,2.57,1.56.62.77.94,1.7.94,2.81,0,1.02-.25,1.92-.76,2.68s-1.22,1.35-2.14,1.76c-.92.42-1.99.62-3.2.62s-2.28-.21-3.2-.62c-.92-.42-1.63-1-2.14-1.76-.5-.76-.76-1.65-.76-2.68,0-1.1.31-2.04.94-2.81.62-.77,1.48-1.29,2.57-1.56-.99-.32-1.75-.82-2.27-1.51ZM955.99,615.5c-.83.59-1.25,1.49-1.25,2.69s.4,2.06,1.2,2.71c.8.66,1.89.98,3.26.98s2.44-.33,3.24-1c.8-.66,1.2-1.56,1.2-2.7s-.41-2.08-1.24-2.68c-.82-.6-1.89-.9-3.2-.9s-2.38.3-3.22.89ZM962.14,607.61c-.72-.58-1.7-.86-2.93-.86s-2.21.28-2.93.85c-.72.57-1.08,1.39-1.08,2.46,0,.99.37,1.78,1.1,2.38.74.59,1.7.89,2.9.89s2.17-.29,2.9-.89c.74-.59,1.1-1.38,1.1-2.38,0-1.06-.36-1.87-1.08-2.45Z"/><path class="cls-8" d="M972.86,620.62c.62.56,1.48.84,2.57.84,1.5,0,2.62-.59,3.35-1.76.73-1.18,1.06-3.12,1-5.84-.3.88-.88,1.57-1.74,2.08-.86.5-1.84.76-2.94.76-1.68,0-3.03-.5-4.04-1.51-1.02-1.01-1.52-2.41-1.52-4.2,0-1.07.21-2.04.62-2.9.42-.86,1.05-1.54,1.9-2.04.85-.5,1.89-.74,3.12-.74,2.27,0,3.86.74,4.75,2.22s1.34,3.6,1.34,6.37c0,2.99-.44,5.24-1.33,6.74-.89,1.5-2.41,2.26-4.57,2.26-1.58,0-2.82-.43-3.7-1.28-.88-.86-1.4-1.98-1.56-3.37h1.56c.18,1.04.58,1.84,1.2,2.4ZM977.44,614.77c.63-.31,1.14-.77,1.52-1.38.38-.61.58-1.34.58-2.18,0-1.31-.37-2.39-1.12-3.24-.74-.85-1.81-1.27-3.2-1.27-1.23,0-2.22.38-2.96,1.15-.74.77-1.12,1.79-1.12,3.07,0,1.34.37,2.4,1.1,3.17.74.77,1.78,1.15,3.12,1.15.75,0,1.44-.16,2.08-.47Z"/><path class="cls-8" d="M986.9,607.63c.85-1.52,2.37-2.28,4.56-2.28s3.71.76,4.56,2.28c.85,1.52,1.27,3.66,1.27,6.41s-.42,4.97-1.27,6.5c-.85,1.54-2.37,2.3-4.56,2.3s-3.73-.77-4.57-2.3-1.26-3.7-1.26-6.5.42-4.89,1.27-6.41ZM995.33,610.27c-.21-1.02-.62-1.85-1.22-2.47-.61-.62-1.49-.94-2.64-.94s-2.03.31-2.64.94-1.02,1.45-1.22,2.47c-.21,1.02-.31,2.28-.31,3.77s.1,2.82.31,3.85c.21,1.03.62,1.86,1.22,2.48s1.49.94,2.64.94,2.03-.31,2.64-.94c.61-.62,1.02-1.45,1.22-2.48s.31-2.32.31-3.85-.1-2.74-.31-3.77Z"/></g><path class="cls-8" d="M843,33.52v13.98h-1.4v-13.98h1.4Z"/><path class="cls-8" d="M857.46,33.52l-5.3,13.98h-1.6l-5.3-13.98h1.52l4.58,12.46,4.62-12.46h1.48Z"/><path class="cls-8" d="M862.52,46.73c-1.05-.61-1.88-1.45-2.49-2.54-.61-1.09-.91-2.32-.91-3.69s.3-2.6.91-3.69c.61-1.09,1.44-1.93,2.49-2.54,1.05-.61,2.23-.91,3.52-.91s2.49.3,3.54.91c1.05.61,1.88,1.45,2.48,2.54.6,1.09.9,2.32.9,3.69s-.3,2.6-.9,3.69c-.6,1.09-1.43,1.93-2.48,2.54-1.05.61-2.23.91-3.54.91s-2.47-.3-3.52-.91ZM868.84,45.7c.83-.48,1.48-1.17,1.96-2.07.48-.9.72-1.94.72-3.13s-.24-2.23-.72-3.12c-.48-.89-1.13-1.58-1.96-2.06-.83-.48-1.76-.72-2.8-.72s-1.97.24-2.8.72c-.83.48-1.48,1.17-1.96,2.06-.48.89-.72,1.93-.72,3.12s.24,2.23.72,3.13c.48.9,1.13,1.59,1.96,2.07.83.48,1.76.72,2.8.72s1.97-.24,2.8-.72Z"/><path class="cls-8" d="M883.14,47.5l-3.46-5.84h-2.58v5.84h-1.4v-13.98h4.2c1.56,0,2.74.37,3.55,1.12s1.21,1.73,1.21,2.94c0,1.01-.29,1.88-.87,2.59-.58.71-1.44,1.18-2.57,1.39l3.6,5.94h-1.68ZM877.1,40.52h2.82c1.09,0,1.92-.27,2.47-.8.55-.53.83-1.25.83-2.14s-.27-1.63-.8-2.13c-.53-.5-1.37-.75-2.52-.75h-2.8v5.82Z"/><path class="cls-8" d="M896.88,33.52l-4.48,8.54v5.44h-1.4v-5.44l-4.52-8.54h1.58l3.64,7.26,3.62-7.26h1.56Z"/><path class="cls-8" d="M924.04,38.28l-.78,3.7h2.86v1.24h-3.12l-.92,4.28h-1.34l.92-4.28h-4.44l-.92,4.28h-1.34l.92-4.28h-3.18v-1.24h3.44l.78-3.7h-3.12v-1.24h3.4l.92-4.34h1.34l-.92,4.34h4.44l.92-4.34h1.34l-.92,4.34h2.9v1.24h-3.18ZM922.7,38.28h-4.44l-.78,3.7h4.44l.78-3.7Z"/><path class="cls-8" d="M939.88,42.58h-9.06c.04.83.24,1.53.6,2.12.36.59.83,1.03,1.42,1.33.59.3,1.23.45,1.92.45.91,0,1.67-.22,2.29-.66s1.03-1.03,1.23-1.78h1.48c-.27,1.07-.84,1.94-1.71,2.61-.87.67-1.97,1.01-3.29,1.01-1.03,0-1.95-.23-2.76-.69-.81-.46-1.45-1.11-1.91-1.96-.46-.85-.69-1.84-.69-2.97s.23-2.13.68-2.98c.45-.85,1.09-1.51,1.9-1.96s1.74-.68,2.78-.68,1.95.23,2.73.68,1.38,1.06,1.8,1.83.63,1.62.63,2.55c0,.48-.01.85-.04,1.1ZM938.01,39.36c-.34-.57-.8-1.01-1.39-1.3-.59-.29-1.23-.44-1.92-.44-1.04,0-1.93.33-2.66,1-.73.67-1.14,1.61-1.22,2.82h7.68c.01-.81-.15-1.51-.49-2.08Z"/><path class="cls-8" d="M943.44,34.86c.71-1.27,1.97-1.9,3.8-1.9s3.09.63,3.8,1.9c.71,1.27,1.06,3.05,1.06,5.34s-.35,4.14-1.06,5.42c-.71,1.28-1.97,1.92-3.8,1.92s-3.11-.64-3.81-1.92c-.7-1.28-1.05-3.09-1.05-5.42s.35-4.07,1.06-5.34ZM950.46,37.06c-.17-.85-.51-1.54-1.02-2.06-.51-.52-1.24-.78-2.2-.78s-1.69.26-2.2.78-.85,1.21-1.02,2.06c-.17.85-.26,1.9-.26,3.14s.09,2.35.26,3.21c.17.86.51,1.55,1.02,2.07s1.24.78,2.2.78,1.69-.26,2.2-.78c.51-.52.85-1.21,1.02-2.07.17-.86.26-1.93.26-3.21s-.09-2.29-.26-3.14Z"/><path class="cls-8" d="M965.02,42.58h-9.06c.04.83.24,1.53.6,2.12.36.59.83,1.03,1.42,1.33.59.3,1.23.45,1.92.45.91,0,1.67-.22,2.29-.66s1.03-1.03,1.23-1.78h1.48c-.27,1.07-.84,1.94-1.71,2.61-.87.67-1.97,1.01-3.29,1.01-1.03,0-1.95-.23-2.76-.69-.81-.46-1.45-1.11-1.91-1.96-.46-.85-.69-1.84-.69-2.97s.23-2.13.68-2.98c.45-.85,1.09-1.51,1.9-1.96s1.74-.68,2.78-.68,1.95.23,2.73.68,1.38,1.06,1.8,1.83.63,1.62.63,2.55c0,.48-.01.85-.04,1.1ZM963.15,39.36c-.34-.57-.8-1.01-1.39-1.3-.59-.29-1.23-.44-1.92-.44-1.04,0-1.93.33-2.66,1-.73.67-1.14,1.61-1.22,2.82h7.68c.01-.81-.15-1.51-.49-2.08Z"/><path class="cls-8" d="M966.84,34.42v-1.26h3.4v14.34h-1.42v-13.08h-1.98Z"/><path class="cls-8" d="M973.9,39.07c.45-.85,1.08-1.5,1.87-1.96s1.69-.69,2.69-.69,1.83.23,2.6.7,1.34,1.07,1.7,1.82v-6.24h1.4v14.8h-1.4v-2.44c-.33.76-.88,1.38-1.64,1.87-.76.49-1.65.73-2.68.73s-1.9-.23-2.69-.7c-.79-.47-1.41-1.13-1.86-1.98-.45-.85-.67-1.84-.67-2.96s.23-2.1.68-2.95ZM982.22,39.72c-.36-.67-.85-1.18-1.47-1.54-.62-.36-1.3-.54-2.05-.54s-1.47.17-2.08.52c-.61.35-1.1.85-1.45,1.51-.35.66-.53,1.44-.53,2.35s.18,1.68.53,2.35c.35.67.84,1.19,1.45,1.54.61.35,1.31.53,2.08.53s1.43-.18,2.05-.54,1.11-.87,1.47-1.54c.36-.67.54-1.44.54-2.32s-.18-1.65-.54-2.32Z"/><path class="cls-8" d="M987.6,39.07c.45-.85,1.08-1.5,1.87-1.96s1.69-.69,2.69-.69,1.83.23,2.6.7,1.34,1.07,1.7,1.82v-6.24h1.4v14.8h-1.4v-2.44c-.33.76-.88,1.38-1.64,1.87-.76.49-1.65.73-2.68.73s-1.9-.23-2.69-.7c-.79-.47-1.41-1.13-1.86-1.98-.45-.85-.67-1.84-.67-2.96s.23-2.1.68-2.95ZM995.92,39.72c-.36-.67-.85-1.18-1.47-1.54-.62-.36-1.3-.54-2.05-.54s-1.47.17-2.08.52c-.61.35-1.1.85-1.45,1.51-.35.66-.53,1.44-.53,2.35s.18,1.68.53,2.35c.35.67.84,1.19,1.45,1.54.61.35,1.31.53,2.08.53s1.43-.18,2.05-.54,1.11-.87,1.47-1.54c.36-.67.54-1.44.54-2.32s-.18-1.65-.54-2.32Z"/><path class="cls-8" d="M843.41,120.16c-.7-.32-1.25-.77-1.65-1.34-.4-.57-.61-1.21-.64-1.92h1.48c.07.68.37,1.28.9,1.79.53.51,1.31.77,2.34.77.95,0,1.7-.24,2.25-.73.55-.49.83-1.1.83-1.85,0-.6-.15-1.08-.46-1.45s-.69-.64-1.14-.82c-.45-.18-1.08-.38-1.88-.59-.93-.25-1.67-.5-2.22-.74-.55-.24-1.01-.61-1.4-1.12s-.58-1.19-.58-2.06c0-.72.19-1.36.56-1.93.37-.57.9-1.01,1.58-1.33.68-.32,1.46-.48,2.34-.48,1.29,0,2.34.32,3.13.95.79.63,1.25,1.45,1.37,2.45h-1.52c-.09-.57-.41-1.08-.94-1.53s-1.25-.67-2.16-.67c-.84,0-1.54.22-2.1.67s-.84,1.06-.84,1.83c0,.59.15,1.06.46,1.42s.69.63,1.15.82c.46.19,1.08.39,1.87.6.91.25,1.64.5,2.2.75.56.25,1.03.62,1.42,1.13.39.51.58,1.19.58,2.04,0,.65-.17,1.27-.52,1.86-.35.59-.86,1.06-1.54,1.42-.68.36-1.49.54-2.44.54s-1.73-.16-2.43-.48Z"/><path class="cls-8" d="M860.7,120.5l-6.06-6.46v6.46h-1.4v-13.98h1.4v6.54l6.06-6.54h1.78l-6.54,6.98,6.6,7h-1.84Z"/><path class="cls-8" d="M874.04,106.52l-4.48,8.54v5.44h-1.4v-5.44l-4.52-8.54h1.58l3.64,7.26,3.62-7.26h1.56Z"/><path class="cls-8" d="M924.04,111.28l-.78,3.7h2.86v1.24h-3.12l-.92,4.28h-1.34l.92-4.28h-4.44l-.92,4.28h-1.34l.92-4.28h-3.18v-1.24h3.44l.78-3.7h-3.12v-1.24h3.4l.92-4.34h1.34l-.92,4.34h4.44l.92-4.34h1.34l-.92,4.34h2.9v1.24h-3.18ZM922.7,111.28h-4.44l-.78,3.7h4.44l.78-3.7Z"/><path class="cls-8" d="M938.32,107.26l-5.58,13.24h-1.42l5.64-13.12h-8v-1.2h9.36v1.08Z"/><path class="cls-8" d="M949.18,107.26l-5.58,13.24h-1.42l5.64-13.12h-8v-1.2h9.36v1.08Z"/><path class="cls-8" d="M952.35,111.8c-.43-.57-.65-1.27-.65-2.08,0-.72.18-1.36.55-1.93.37-.57.9-1.01,1.61-1.34.71-.33,1.55-.49,2.54-.49s1.83.16,2.54.49c.71.33,1.24.77,1.61,1.34.37.57.55,1.21.55,1.93,0,.8-.22,1.49-.65,2.08-.43.59-1.06,1.01-1.89,1.26.91.23,1.62.66,2.14,1.3.52.64.78,1.42.78,2.34,0,.85-.21,1.6-.63,2.23-.42.63-1.01,1.12-1.78,1.47s-1.66.52-2.67.52-1.9-.17-2.67-.52c-.77-.35-1.36-.84-1.78-1.47s-.63-1.38-.63-2.23c0-.92.26-1.7.78-2.34.52-.64,1.23-1.07,2.14-1.3-.83-.27-1.46-.69-1.89-1.26ZM953.72,114.42c-.69.49-1.04,1.24-1.04,2.24s.33,1.71,1,2.26c.67.55,1.57.82,2.72.82s2.03-.28,2.7-.83c.67-.55,1-1.3,1-2.25s-.34-1.73-1.03-2.23c-.69-.5-1.58-.75-2.67-.75s-1.99.25-2.68.74ZM958.84,107.84c-.6-.48-1.41-.72-2.44-.72s-1.84.24-2.44.71c-.6.47-.9,1.16-.9,2.05,0,.83.31,1.49.92,1.98.61.49,1.42.74,2.42.74s1.81-.25,2.42-.74c.61-.49.92-1.15.92-1.98,0-.88-.3-1.56-.9-2.04Z"/><path class="cls-8" d="M964.48,112.07c.45-.85,1.08-1.5,1.87-1.96s1.69-.69,2.69-.69,1.83.23,2.6.7,1.34,1.07,1.7,1.82v-6.24h1.4v14.8h-1.4v-2.44c-.33.76-.88,1.38-1.64,1.87-.76.49-1.65.73-2.68.73s-1.9-.23-2.69-.7c-.79-.47-1.41-1.13-1.86-1.98-.45-.85-.67-1.84-.67-2.96s.23-2.1.68-2.95ZM972.8,112.72c-.36-.67-.85-1.18-1.47-1.54-.62-.36-1.3-.54-2.05-.54s-1.47.17-2.08.52c-.61.35-1.1.85-1.45,1.51-.35.66-.53,1.44-.53,2.35s.18,1.68.53,2.35c.35.67.84,1.19,1.45,1.54.61.35,1.31.53,2.08.53s1.43-.18,2.05-.54,1.11-.87,1.47-1.54c.36-.67.54-1.44.54-2.32s-.18-1.65-.54-2.32Z"/><path class="cls-8" d="M978.17,112.07c.45-.85,1.07-1.5,1.86-1.96.79-.46,1.69-.69,2.69-.69s1.94.24,2.69.72c.75.48,1.3,1.09,1.63,1.84v-2.4h1.4v10.92h-1.4v-2.42c-.35.75-.9,1.36-1.65,1.85-.75.49-1.65.73-2.69.73s-1.88-.23-2.67-.7c-.79-.47-1.41-1.13-1.86-1.98-.45-.85-.67-1.84-.67-2.96s.22-2.1.67-2.95ZM986.5,112.72c-.36-.67-.85-1.18-1.47-1.54-.62-.36-1.3-.54-2.05-.54s-1.47.17-2.08.52c-.61.35-1.1.85-1.45,1.51-.35.66-.53,1.44-.53,2.35s.18,1.68.53,2.35c.35.67.84,1.19,1.45,1.54.61.35,1.31.53,2.08.53s1.43-.18,2.05-.54,1.11-.87,1.47-1.54c.36-.67.54-1.44.54-2.32s-.18-1.65-.54-2.32Z"/><path class="cls-8" d="M994.4,118.68c.52.47,1.23.7,2.14.7,1.25,0,2.18-.49,2.79-1.47s.88-2.6.83-4.87c-.25.73-.74,1.31-1.45,1.73-.71.42-1.53.63-2.45.63-1.4,0-2.52-.42-3.37-1.26-.85-.84-1.27-2.01-1.27-3.5,0-.89.17-1.7.52-2.42.35-.72.87-1.29,1.58-1.7.71-.41,1.57-.62,2.6-.62,1.89,0,3.21.62,3.96,1.85.75,1.23,1.12,3,1.12,5.31,0,2.49-.37,4.37-1.11,5.62s-2.01,1.88-3.81,1.88c-1.32,0-2.35-.36-3.08-1.07s-1.17-1.65-1.3-2.81h1.3c.15.87.48,1.53,1,2ZM998.21,113.81c.53-.26.95-.64,1.27-1.15.32-.51.48-1.11.48-1.82,0-1.09-.31-1.99-.93-2.7s-1.51-1.06-2.67-1.06c-1.03,0-1.85.32-2.47.96-.62.64-.93,1.49-.93,2.56,0,1.12.31,2,.92,2.64.61.64,1.48.96,2.6.96.63,0,1.2-.13,1.73-.39Z"/><path class="cls-8" d="M858.56,181.52l-3.96,13.98h-1.56l-3.52-11.92-3.6,11.92-1.52.02-3.88-14h1.5l3.2,12.26,3.58-12.26h1.56l3.48,12.26,3.22-12.26h1.5Z"/><path class="cls-8" d="M869,192.18h-6.36l-1.22,3.32h-1.48l5.1-13.8h1.58l5.08,13.8h-1.48l-1.22-3.32ZM868.58,191.02l-2.76-7.56-2.76,7.56h5.52Z"/><path class="cls-8" d="M882.32,181.52v1.16h-3.88v12.82h-1.4v-12.82h-3.9v-1.16h9.18Z"/><path class="cls-8" d="M886.14,182.66v5.22h5.3v1.16h-5.3v5.3h5.9v1.16h-7.3v-14h7.3v1.16h-5.9Z"/><path class="cls-8" d="M902.44,195.5l-3.46-5.84h-2.58v5.84h-1.4v-13.98h4.2c1.56,0,2.74.37,3.55,1.12s1.21,1.73,1.21,2.94c0,1.01-.29,1.88-.87,2.59-.58.71-1.44,1.18-2.57,1.39l3.6,5.94h-1.68ZM896.4,188.52h2.82c1.09,0,1.92-.27,2.47-.8.55-.53.83-1.25.83-2.14s-.27-1.63-.8-2.13c-.53-.5-1.37-.75-2.52-.75h-2.8v5.82Z"/><path class="cls-8" d="M924.04,186.28l-.78,3.7h2.86v1.24h-3.12l-.92,4.28h-1.34l.92-4.28h-4.44l-.92,4.28h-1.34l.92-4.28h-3.18v-1.24h3.44l.78-3.7h-3.12v-1.24h3.4l.92-4.34h1.34l-.92,4.34h4.44l.92-4.34h1.34l-.92,4.34h2.9v1.24h-3.18ZM922.7,186.28h-4.44l-.78,3.7h4.44l.78-3.7Z"/><path class="cls-8" d="M929.12,192.1v-1.06l7.28-9.8h1.66v9.64h2.14v1.22h-2.14v3.4h-1.38v-3.4h-7.56ZM936.74,182.78l-6,8.1h6v-8.1Z"/><path class="cls-8" d="M941.52,182.42v-1.26h3.4v14.34h-1.42v-13.08h-1.98Z"/><path class="cls-8" d="M957.28,182.36h-7.32v5.12c.33-.47.82-.85,1.46-1.15.64-.3,1.33-.45,2.08-.45,1.09,0,1.99.22,2.68.67.69.45,1.19,1.03,1.5,1.74s.46,1.48.46,2.29c0,.93-.18,1.78-.53,2.53-.35.75-.89,1.35-1.62,1.79s-1.63.66-2.71.66c-1.37,0-2.49-.36-3.34-1.07s-1.37-1.68-1.56-2.89h1.38c.17.88.57,1.56,1.2,2.04.63.48,1.4.72,2.32.72,1.16,0,2.04-.34,2.63-1.03.59-.69.89-1.6.89-2.73s-.3-1.97-.9-2.59c-.6-.62-1.46-.93-2.58-.93-.77,0-1.45.18-2.04.54-.59.36-1.02.85-1.3,1.46h-1.32v-7.94h8.62v1.22Z"/><path class="cls-8" d="M961.11,187.07c.45-.85,1.07-1.5,1.86-1.96.79-.46,1.69-.69,2.69-.69s1.94.24,2.69.72c.75.48,1.3,1.09,1.63,1.84v-2.4h1.4v10.92h-1.4v-2.42c-.35.75-.9,1.36-1.65,1.85-.75.49-1.65.73-2.69.73s-1.88-.23-2.67-.7c-.79-.47-1.41-1.13-1.86-1.98-.45-.85-.67-1.84-.67-2.96s.22-2.1.67-2.95ZM969.44,187.72c-.36-.67-.85-1.18-1.47-1.54-.62-.36-1.3-.54-2.05-.54s-1.47.17-2.08.52c-.61.35-1.1.85-1.45,1.51-.35.66-.53,1.44-.53,2.35s.18,1.68.53,2.35c.35.67.84,1.19,1.45,1.54.61.35,1.31.53,2.08.53s1.43-.18,2.05-.54,1.11-.87,1.47-1.54c.36-.67.54-1.44.54-2.32s-.18-1.65-.54-2.32Z"/><path class="cls-8" d="M983.06,182.26l-5.58,13.24h-1.42l5.64-13.12h-8v-1.2h9.36v1.08Z"/><path class="cls-8" d="M993.92,182.26l-5.58,13.24h-1.42l5.64-13.12h-8v-1.2h9.36v1.08Z"/><path class="cls-8" d="M843.41,269.16c-.7-.32-1.25-.77-1.65-1.34-.4-.57-.61-1.21-.64-1.92h1.48c.07.68.37,1.28.9,1.79.53.51,1.31.77,2.34.77.95,0,1.7-.24,2.25-.73.55-.49.83-1.1.83-1.85,0-.6-.15-1.08-.46-1.45-.31-.37-.69-.64-1.14-.82-.45-.18-1.08-.38-1.88-.59-.93-.25-1.67-.5-2.22-.74-.55-.24-1.01-.61-1.4-1.12s-.58-1.19-.58-2.06c0-.72.19-1.36.56-1.93.37-.57.9-1.01,1.58-1.33s1.46-.48,2.34-.48c1.29,0,2.34.32,3.13.95.79.63,1.25,1.45,1.37,2.45h-1.52c-.09-.57-.41-1.08-.94-1.53-.53-.45-1.25-.67-2.16-.67-.84,0-1.54.22-2.1.67-.56.45-.84,1.06-.84,1.83,0,.59.15,1.06.46,1.42.31.36.69.63,1.15.82.46.19,1.08.39,1.87.6.91.25,1.64.5,2.2.75.56.25,1.03.62,1.42,1.13s.58,1.19.58,2.04c0,.65-.17,1.27-.52,1.86-.35.59-.86,1.06-1.54,1.42-.68.36-1.49.54-2.44.54s-1.73-.16-2.43-.48Z"/><path class="cls-8" d="M861,262.44c-.79.73-1.97,1.1-3.54,1.1h-2.82v5.96h-1.4v-13.98h4.22c1.56,0,2.74.37,3.53,1.1.79.73,1.19,1.71,1.19,2.92s-.39,2.17-1.18,2.9ZM860.74,259.54c0-.93-.26-1.64-.78-2.12-.52-.48-1.35-.72-2.5-.72h-2.82v5.64h2.82c2.19,0,3.28-.93,3.28-2.8Z"/><path class="cls-8" d="M866.12,255.52v13.98h-1.4v-13.98h1.4Z"/><path class="cls-8" d="M876.94,269.5l-3.46-5.84h-2.58v5.84h-1.4v-13.98h4.2c1.56,0,2.74.37,3.55,1.12.81.75,1.21,1.73,1.21,2.94,0,1.01-.29,1.88-.87,2.59-.58.71-1.44,1.18-2.57,1.39l3.6,5.94h-1.68ZM870.9,262.52h2.82c1.09,0,1.92-.27,2.47-.8.55-.53.83-1.25.83-2.14s-.27-1.63-.8-2.13c-.53-.5-1.37-.75-2.52-.75h-2.8v5.82Z"/><path class="cls-8" d="M882.84,255.52v13.98h-1.4v-13.98h1.4Z"/><path class="cls-8" d="M894.4,255.52v1.16h-3.88v12.82h-1.4v-12.82h-3.9v-1.16h9.18Z"/><path class="cls-8" d="M924.04,260.28l-.78,3.7h2.86v1.24h-3.12l-.92,4.28h-1.34l.92-4.28h-4.44l-.92,4.28h-1.34l.92-4.28h-3.18v-1.24h3.44l.78-3.7h-3.12v-1.24h3.4l.92-4.34h1.34l-.92,4.34h4.44l.92-4.34h1.34l-.92,4.34h2.9v1.24h-3.18ZM922.7,260.28h-4.44l-.78,3.7h4.44l.78-3.7Z"/><path class="cls-8" d="M929.06,256.42v-1.26h3.4v14.34h-1.42v-13.08h-1.98Z"/><path class="cls-8" d="M939.13,259.14c.75-.48,1.64-.72,2.67-.72s1.89.23,2.68.69c.79.46,1.4,1.11,1.85,1.96.45.85.67,1.83.67,2.95s-.22,2.11-.67,2.96c-.45.85-1.07,1.51-1.86,1.98-.79.47-1.68.7-2.67.7-1.04,0-1.94-.24-2.69-.71s-1.3-1.09-1.65-1.85v2.4h-1.38v-14.8h1.38v6.3c.36-.76.92-1.38,1.67-1.86ZM945.05,261.67c-.35-.66-.84-1.16-1.45-1.51s-1.31-.52-2.08-.52-1.43.18-2.05.54c-.62.36-1.11.87-1.47,1.54-.36.67-.54,1.44-.54,2.32s.18,1.65.54,2.32c.36.67.85,1.18,1.47,1.54.62.36,1.3.54,2.05.54s1.47-.18,2.08-.53,1.1-.87,1.45-1.54c.35-.67.53-1.46.53-2.35s-.18-1.69-.53-2.35Z"/><path class="cls-8" d="M954.89,263.45c1.34-1.46,2.01-2.89,2.01-4.29,0-.92-.23-1.66-.69-2.21s-1.21-.83-2.25-.83-1.8.32-2.35.95c-.55.63-.86,1.48-.93,2.53h-1.36c.08-1.48.54-2.63,1.37-3.45.83-.82,1.92-1.23,3.27-1.23s2.34.36,3.14,1.09c.8.73,1.2,1.76,1.2,3.09,0,1.61-.67,3.18-2.01,4.69-1.34,1.51-2.99,2.99-4.95,4.43h7.4v1.18h-9.54v-1c2.45-1.84,4.35-3.49,5.69-4.95Z"/><path class="cls-8" d="M966.34,256.06c-1.31,0-2.29.51-2.94,1.52s-.95,2.67-.9,4.98c.27-.8.78-1.43,1.53-1.89s1.62-.69,2.59-.69c1.4,0,2.51.43,3.33,1.29.82.86,1.23,2.04,1.23,3.55,0,.88-.17,1.68-.51,2.39-.34.71-.86,1.28-1.56,1.71s-1.57.64-2.61.64c-1.99,0-3.36-.63-4.11-1.9-.75-1.27-1.13-3.06-1.13-5.38,0-4.93,1.69-7.4,5.08-7.4,1.28,0,2.29.35,3.02,1.05.73.7,1.17,1.61,1.3,2.73h-1.3c-.29-1.73-1.3-2.6-3.02-2.6ZM964.58,261.56c-.56.25-1.02.64-1.37,1.15-.35.51-.53,1.14-.53,1.89,0,1.08.32,1.98.96,2.7.64.72,1.57,1.08,2.8,1.08,1.03,0,1.85-.31,2.46-.94.61-.63.92-1.48.92-2.56,0-1.16-.3-2.07-.9-2.72-.6-.65-1.45-.98-2.56-.98-.63,0-1.22.13-1.78.38Z"/><path class="cls-8" d="M975.25,255.95c.85-.7,1.94-1.05,3.29-1.05.89,0,1.66.16,2.3.48.64.32,1.12.76,1.45,1.31.33.55.49,1.18.49,1.87,0,.84-.25,1.57-.74,2.18-.49.61-1.19.99-2.1,1.14v.1c.95.19,1.7.6,2.26,1.23.56.63.84,1.46.84,2.49,0,1.15-.38,2.08-1.15,2.81-.77.73-1.88,1.09-3.33,1.09s-2.53-.36-3.42-1.09c-.89-.73-1.41-1.76-1.54-3.09h1.36c.12.89.49,1.62,1.12,2.17.63.55,1.45.83,2.48.83s1.79-.27,2.33-.8.81-1.21.81-2.04c0-2.03-1.46-3.04-4.38-3.04h-.44v-1.18h.46c2.72,0,4.08-.89,4.08-2.66,0-.77-.25-1.4-.76-1.87s-1.23-.71-2.16-.71-1.66.24-2.25.71c-.59.47-.94,1.14-1.05,1.99h-1.36c.09-1.21.56-2.17,1.41-2.87Z"/><path class="cls-8" d="M989.15,259.14c.75-.48,1.64-.72,2.67-.72s1.89.23,2.68.69c.79.46,1.4,1.11,1.85,1.96.45.85.67,1.83.67,2.95s-.22,2.11-.67,2.96c-.45.85-1.07,1.51-1.86,1.98-.79.47-1.68.7-2.67.7-1.04,0-1.94-.24-2.69-.71s-1.3-1.09-1.65-1.85v2.4h-1.38v-14.8h1.38v6.3c.36-.76.92-1.38,1.67-1.86ZM995.07,261.67c-.35-.66-.84-1.16-1.45-1.51s-1.31-.52-2.08-.52-1.43.18-2.05.54c-.62.36-1.11.87-1.47,1.54-.36.67-.54,1.44-.54,2.32s.18,1.65.54,2.32c.36.67.85,1.18,1.47,1.54.62.36,1.3.54,2.05.54s1.47-.18,2.08-.53,1.1-.87,1.45-1.54c.35-.67.53-1.46.53-2.35s-.18-1.69-.53-2.35Z"/><path class="cls-8" d="M852.14,342.5h-1.4l-7.74-11.76v11.76h-1.4v-13.98h1.4l7.74,11.74v-11.74h1.4v13.98Z"/><path class="cls-8" d="M856.92,328.52v13.98h-1.4v-13.98h1.4Z"/><path class="cls-8" d="M871.3,332.6c-.4-.92-1.01-1.64-1.83-2.17-.82-.53-1.78-.79-2.89-.79-1.04,0-1.97.24-2.8.72-.83.48-1.48,1.16-1.96,2.05-.48.89-.72,1.92-.72,3.09s.24,2.21.72,3.1c.48.89,1.13,1.58,1.96,2.06.83.48,1.76.72,2.8.72.97,0,1.85-.21,2.63-.63.78-.42,1.41-1.02,1.88-1.8.47-.78.74-1.69.81-2.73h-5.88v-1.14h7.36v1.02c-.07,1.23-.4,2.34-1,3.33-.6.99-1.4,1.78-2.41,2.35s-2.14.86-3.39.86-2.47-.3-3.52-.91c-1.05-.61-1.88-1.45-2.49-2.54-.61-1.09-.91-2.32-.91-3.69s.3-2.6.91-3.69c.61-1.09,1.44-1.93,2.49-2.54,1.05-.61,2.23-.91,3.52-.91,1.49,0,2.8.37,3.92,1.12,1.12.75,1.93,1.79,2.44,3.12h-1.64Z"/><path class="cls-8" d="M886.5,328.52v13.98h-1.4v-6.54h-7.58v6.54h-1.4v-13.98h1.4v6.28h7.58v-6.28h1.4Z"/><path class="cls-8" d="M898.06,328.52v1.16h-3.88v12.82h-1.4v-12.82h-3.9v-1.16h9.18Z"/><path class="cls-8" d="M924.04,333.28l-.78,3.7h2.86v1.24h-3.12l-.92,4.28h-1.34l.92-4.28h-4.44l-.92,4.28h-1.34l.92-4.28h-3.18v-1.24h3.44l.78-3.7h-3.12v-1.24h3.4l.92-4.34h1.34l-.92,4.34h4.44l.92-4.34h1.34l-.92,4.34h2.9v1.24h-3.18ZM922.7,333.28h-4.44l-.78,3.7h4.44l.78-3.7Z"/><path class="cls-8" d="M930.68,329.86c.71-1.27,1.97-1.9,3.8-1.9s3.09.63,3.8,1.9,1.06,3.05,1.06,5.34-.35,4.14-1.06,5.42-1.97,1.92-3.8,1.92-3.11-.64-3.81-1.92c-.7-1.28-1.05-3.09-1.05-5.42s.35-4.07,1.06-5.34ZM937.7,332.06c-.17-.85-.51-1.54-1.02-2.06-.51-.52-1.24-.78-2.2-.78s-1.69.26-2.2.78-.85,1.21-1.02,2.06c-.17.85-.26,1.9-.26,3.14s.09,2.35.26,3.21c.17.86.51,1.55,1.02,2.07.51.52,1.24.78,2.2.78s1.69-.26,2.2-.78c.51-.52.85-1.21,1.02-2.07.17-.86.26-1.93.26-3.21s-.09-2.29-.26-3.14Z"/><path class="cls-8" d="M942.36,334.07c.45-.85,1.08-1.5,1.87-1.96s1.69-.69,2.69-.69,1.83.23,2.6.7,1.34,1.07,1.7,1.82v-6.24h1.4v14.8h-1.4v-2.44c-.33.76-.88,1.38-1.64,1.87-.76.49-1.65.73-2.68.73s-1.9-.23-2.69-.7c-.79-.47-1.41-1.13-1.86-1.98-.45-.85-.67-1.84-.67-2.96s.23-2.1.68-2.95ZM950.68,334.72c-.36-.67-.85-1.18-1.47-1.54-.62-.36-1.3-.54-2.05-.54s-1.47.17-2.08.52c-.61.35-1.1.85-1.45,1.51-.35.66-.53,1.44-.53,2.35s.18,1.68.53,2.35c.35.67.84,1.19,1.45,1.54.61.35,1.31.53,2.08.53s1.43-.18,2.05-.54c.62-.36,1.11-.87,1.47-1.54s.54-1.44.54-2.32-.18-1.65-.54-2.32Z"/><path class="cls-8" d="M954.92,329.42v-1.26h3.4v14.34h-1.42v-13.08h-1.98Z"/><path class="cls-8" d="M964.89,332.14c.75-.48,1.64-.72,2.67-.72s1.89.23,2.68.69c.79.46,1.4,1.11,1.85,1.96.45.85.67,1.83.67,2.95s-.22,2.11-.67,2.96c-.45.85-1.07,1.51-1.86,1.98-.79.47-1.68.7-2.67.7-1.04,0-1.94-.24-2.69-.71s-1.3-1.09-1.65-1.85v2.4h-1.38v-14.8h1.38v6.3c.36-.76.92-1.38,1.67-1.86ZM970.81,334.67c-.35-.66-.84-1.16-1.45-1.51s-1.31-.52-2.08-.52-1.43.18-2.05.54c-.62.36-1.11.87-1.47,1.54-.36.67-.54,1.44-.54,2.32s.18,1.65.54,2.32c.36.67.85,1.18,1.47,1.54.62.36,1.3.54,2.05.54s1.47-.18,2.08-.53,1.1-.87,1.45-1.54c.35-.67.53-1.46.53-2.35s-.18-1.69-.53-2.35Z"/><path class="cls-8" d="M980.53,336.45c1.34-1.46,2.01-2.89,2.01-4.29,0-.92-.23-1.66-.69-2.21s-1.21-.83-2.25-.83-1.8.32-2.35.95c-.55.63-.86,1.48-.93,2.53h-1.36c.08-1.48.54-2.63,1.37-3.45.83-.82,1.92-1.23,3.27-1.23s2.34.36,3.14,1.09c.8.73,1.2,1.76,1.2,3.09,0,1.61-.67,3.18-2.01,4.69-1.34,1.51-2.99,2.99-4.95,4.43h7.4v1.18h-9.54v-1c2.45-1.84,4.35-3.49,5.69-4.95Z"/><path class="cls-8" d="M986.97,334.07c.45-.85,1.07-1.5,1.86-1.96.79-.46,1.69-.69,2.69-.69s1.94.24,2.69.72c.75.48,1.3,1.09,1.63,1.84v-2.4h1.4v10.92h-1.4v-2.42c-.35.75-.9,1.36-1.65,1.85-.75.49-1.65.73-2.69.73s-1.88-.23-2.67-.7c-.79-.47-1.41-1.13-1.86-1.98-.45-.85-.67-1.84-.67-2.96s.22-2.1.67-2.95ZM995.3,334.72c-.36-.67-.85-1.18-1.47-1.54-.62-.36-1.3-.54-2.05-.54s-1.47.17-2.08.52c-.61.35-1.1.85-1.45,1.51-.35.66-.53,1.44-.53,2.35s.18,1.68.53,2.35c.35.67.84,1.19,1.45,1.54.61.35,1.31.53,2.08.53s1.43-.18,2.05-.54c.62-.36,1.11-.87,1.47-1.54s.54-1.44.54-2.32-.18-1.65-.54-2.32Z"/></g></svg>