<?xml version="1.0" encoding="UTF-8"?><svg id="Layer_2" xmlns="http://www.w3.org/2000/svg" xmlns:xlink="http://www.w3.org/1999/xlink" viewBox="0 0 1098 1273"><defs><style>.cls-1{fill:#292b69;}.cls-2{opacity:.2;}.cls-2,.cls-3,.cls-4{fill:#fdeae0;}.cls-5{fill:url(#linear-gradient-2);}.cls-6{fill:#616b7c;}.cls-7{fill:#222656;}.cls-8{fill:#5580c0;}.cls-9{fill:#fff;}.cls-10{fill:#73a5d8;}.cls-11{fill:none;}.cls-12{fill:url(#linear-gradient-4);}.cls-3{opacity:.35;}.cls-13{fill:url(#radial-gradient);}.cls-14{fill:url(#radial-gradient-3);}.cls-15{fill:#517bbd;}.cls-16{fill:url(#linear-gradient-3);}.cls-17{fill:url(#linear-gradient-5);}.cls-18{fill:#fce5df;}.cls-19{fill:url(#linear-gradient-8);}.cls-20{fill:url(#radial-gradient-2);}.cls-21{fill:#0453a0;}.cls-22{fill:url(#linear-gradient-7);}.cls-23{fill:#2f509c;}.cls-24{fill:url(#linear-gradient-6);}.cls-25{fill:#e8e7e7;}.cls-26{fill:#3c76bb;}.cls-27{fill:url(#linear-gradient);}.cls-28{fill:#81b0de;}</style><radialGradient id="radial-gradient" cx="570.33" cy="220.5" fx="570.33" fy="220.5" r="594.36" gradientUnits="userSpaceOnUse"><stop offset="0" stop-color="#fff" stop-opacity=".8"/><stop offset=".38" stop-color="#fdf3ee" stop-opacity=".91"/><stop offset=".74" stop-color="#fdece3" stop-opacity=".98"/><stop offset="1" stop-color="#fdeae0"/></radialGradient><radialGradient id="radial-gradient-2" cx="566.78" cy="238.28" fx="566.78" fy="238.28" r="593.86" xlink:href="#radial-gradient"/><radialGradient id="radial-gradient-3" cx="577.14" cy="234.72" fx="577.14" fy="234.72" r="372.55" gradientTransform="translate(660.08 -382.78) rotate(75.52)" gradientUnits="userSpaceOnUse"><stop offset="0" stop-color="#fbc191"/><stop offset=".03" stop-color="#fbcba4"/><stop offset=".09" stop-color="#fcdbc0"/><stop offset=".16" stop-color="#fde8d7"/><stop offset=".24" stop-color="#fef2e9"/><stop offset=".33" stop-color="#fef9f5"/><stop offset=".45" stop-color="#fefdfc"/><stop offset=".74" stop-color="#fff"/></radialGradient><linearGradient id="linear-gradient" x1="730.22" y1="247.8" x2="862.77" y2="414.85" gradientUnits="userSpaceOnUse"><stop offset="0" stop-color="#aebce0"/><stop offset=".03" stop-color="#b5c0e0"/><stop offset=".16" stop-color="#cfcfe0"/><stop offset=".31" stop-color="#e3dbe0"/><stop offset=".47" stop-color="#f2e3e0"/><stop offset=".67" stop-color="#fae8e0"/><stop offset="1" stop-color="#fdeae0"/></linearGradient><linearGradient id="linear-gradient-2" x1="806.45" y1="375.29" x2="700.68" y2="227.07" gradientUnits="userSpaceOnUse"><stop offset="0" stop-color="#fdeae0"/><stop offset=".14" stop-color="#f4e5df"/><stop offset=".36" stop-color="#dddadf"/><stop offset=".64" stop-color="#b8c8dd"/><stop offset=".96" stop-color="#84afdc"/><stop offset="1" stop-color="#7eacdc"/></linearGradient><linearGradient id="linear-gradient-3" x1="589.2" y1="126.61" x2="378.54" y2="391.7" gradientUnits="userSpaceOnUse"><stop offset=".06" stop-color="#aebce0"/><stop offset=".2" stop-color="#bfc6e0"/><stop offset=".59" stop-color="#ebe0e0"/><stop offset=".79" stop-color="#fdeae0"/></linearGradient><linearGradient id="linear-gradient-4" x1="461.06" y1="371.86" x2="678.61" y2="371.86" gradientUnits="userSpaceOnUse"><stop offset="0" stop-color="#81b0de"/><stop offset=".43" stop-color="#82b0de"/><stop offset=".59" stop-color="#89b4de"/><stop offset=".7" stop-color="#95b9de"/><stop offset=".79" stop-color="#a6c1de"/><stop offset=".86" stop-color="#bccbde"/><stop offset=".93" stop-color="#d7d8df"/><stop offset=".99" stop-color="#f7e7df"/><stop offset="1" stop-color="#fdeae0"/></linearGradient><linearGradient id="linear-gradient-5" x1="555.02" y1="911.16" x2="555.02" y2="431.1" gradientUnits="userSpaceOnUse"><stop offset="0" stop-color="#5c95cd"/><stop offset=".3" stop-color="#598fc8"/><stop offset=".67" stop-color="#5180b9"/><stop offset=".94" stop-color="#4970ab"/></linearGradient><linearGradient id="linear-gradient-6" x1="442.14" y1="901.01" x2="656.54" y2="901.01" gradientUnits="userSpaceOnUse"><stop offset="0" stop-color="#81b0de"/><stop offset=".64" stop-color="#d3d6df"/><stop offset="1" stop-color="#fdeae0"/></linearGradient><linearGradient id="linear-gradient-7" x1="524.73" y1="912.31" x2="524.73" y2="856.97" gradientUnits="userSpaceOnUse"><stop offset="0" stop-color="#0453a0"/><stop offset="1" stop-color="#0074b7"/></linearGradient><linearGradient id="linear-gradient-8" x1="403.75" y1="869.27" x2="473.94" y2="869.27" xlink:href="#linear-gradient-7"/></defs><g id="Layer_1-2"><g id="Rectangle_24"><rect class="cls-13" width="1098" height="1273"/><rect class="cls-20" x=".5" y=".5" width="1097" height="1272"/></g><polygon class="cls-28" points="854.79 263.12 815.8 263.12 825.55 199.81 834.13 144.18 835.3 136.51 845.05 199.81 845.98 205.94 854.79 263.12"/><polygon class="cls-9" points="886.44 178.38 897.43 233.4 908.43 288.42 886.44 288.42 864.44 288.42 875.44 233.4 886.44 178.38"/><polygon class="cls-28" points="885.03 277.07 834.38 277.07 847.04 213.69 857.11 163.33 859.7 150.31 872.37 213.69 882.56 264.7 885.03 277.07"/><polygon class="cls-23" points="761.44 298.5 710.77 298.5 723.45 235.14 736.12 171.76 738.71 184.76 748.78 235.14 761.44 298.5"/><circle class="cls-14" cx="577.14" cy="234.72" r="128.75" transform="translate(205.56 734.83) rotate(-75.52)"/><path class="cls-27" d="M946.32,324.84l-29.96.15h-230.49l-52.01-1.89c58-26.49,119.8-128.65,139.98-151.34,20.18-22.71,41.63-15.13,58.02,7.56,10.56,14.6,84.47,104.56,114.48,145.53Z"/><circle class="cls-9" cx="577.14" cy="234.72" r="84.45" transform="translate(205.56 734.83) rotate(-75.52)"/><circle class="cls-4" cx="598.4" cy="218.3" r="26.1"/><circle class="cls-18" cx="559.79" cy="261.05" r="13.83"/><circle class="cls-9" cx="601.48" cy="286.69" r="7.3"/><circle class="cls-18" cx="553.32" cy="190.83" r="8.12"/><path class="cls-5" d="M917.32,325h-.96s-259.82,0-259.82,0v34.16c-5.51-.28-8.66-.43-8.66-.43l-26.5-63.38s107.44-67.21,158.92-64.32c42.09,2.36,111.95,72.72,137.02,93.96Z"/><polygon class="cls-23" points="237.08 319 198.09 324.99 207.84 261.7 217.59 198.41 219.95 213.75 227.34 261.7 237.08 319"/><polygon class="cls-23" points="309.36 312.54 277.56 312.54 285.5 260.91 293.46 209.28 295.53 222.69 301.42 260.91 309.36 312.54"/><polygon class="cls-9" points="276.78 313.95 232.79 313.95 243.79 258.93 254.77 203.92 257.54 217.79 265.77 258.93 276.78 313.95"/><path class="cls-23" d="M629.39,224.43c-3.6,5.64-12.58,9.96-16.09,11.71-4.28,2.13-4.96,9.83-6.98,15.2-2.04,5.36-7.75,7.28-7.75,7.28l-.02-.02c-.28-.26-2.79-2.81-1.55-3.47.32-.15.89-.21,1.81-.04h.06c1.77-.17,4.09-.34,3.81-8.98-.68-3.11,4.07-11.28,6.7-13.13,2.53-1.06,5.09-2.4,5.62-3.13,3.53-4.51,7.45-6.7,7.85-10.32l.7-5.09-.02-.09c-2.51.15.45-2.75.45-2.75.26-5.58,2.79-6.41,2.96-6.85.17-.43.43-1.94.77-3.21.38-1.28,1.13-.47,1.55-.09.47.38,1.23,1.15,1.6,1.17.34.02.75.68.75.68,0,0,.17,6.24-.28,12.54v.02c-.11,1.64-.25,3.28-.47,4.81-.17,1.3-.7,2.58-1.47,3.77Z"/><path class="cls-1" d="M639.39,247.62h-.02c-.66-1.15-1.3-2.23-1.89-3.21-.28-.45-.53-.85-.79-1.28-.51-.81-.96-1.55-1.43-2.23-.45-.7-.87-1.34-1.23-1.94.15,1.79.53,4,1.04,6.04.13.53.28,1.02.43,1.49.06.23.17.49.21.7.09.19.15.38.21.57l.53,2.43-1.11.32c-.09-.13-.17-.26-.28-.43-.13-.3-.3-.6-.41-.92-.21-.57-.45-1.19-.7-1.81-.04-.49-.11-.92-.25-1.23-.57-1.36-4.55-8.36-4.55-8.36h-.04c-4.89,1.94-6.58.77-9.51,2.28-.02,0-.04.02-.06.02h-.02c.09.3.19.55.28.83.06.26.13.53.19.79,0,.02.02.02,0,.04.06.32.13.64.17.96v.04c.06.7.06,1.36-.02,2,0,.23-.04.45-.09.66-.6,1.3-1.77,4.28-2.26,6.09-.02.09-.04.17-.06.26-.04.13-.09.26-.09.38-.02.09-.04.17-.04.23-.04.23-.04.4-.02.51,0,.17.04.34.06.51.06.19.17.4.26.6v.02c.13.19.3.43.47.62.15.17.34.34.55.49.64.87,1.4,1.79,2.04,2.38.72.7-.43,1.28-1.57,1.64-.7-.19-1.51-.87-2.3-1.77-.11-.11-.21-.26-.34-.38-.45-.53-.87-1.11-1.28-1.66-.02-.02-.04-.04-.04-.06-.62-1.15-1.23-2.13-1.53-2.34-.04-.04-.06-.11-.09-.15-.11-.6.21-.89.38-2.02v-.17h-.02c-.49.49-.96.94-1.4,1.43-.21.21-.43.45-.62.7-.11.13-.21.3-.32.47-.09.11-.15.23-.21.34-.09.13-.19.3-.25.47-.19.49-.32.96-.36,1.53-.11.53-.13,1.09-.04,1.66.06.38.13.74.19,1.06.02.15.04.28.06.38.02.06.02.13.02.19.04.15.06.32.09.45.19.87.4,1.45.62,1.87.04.06.09.11.11.17.02.04.04.06.06.09.09.13.13.17.13.17l-2.55.74c-.04-.06-.06-.15-.09-.21-.04-.13-.11-.3-.19-.49.13-.28.19-.53.06-.7-.36-.47-2.17-3.92-2.4-4.34-.02-.02-.02-.04-.02-.04l.11-.47.06-.21s.04-.11.04-.15c.04-.13.09-.28.13-.43.04-.23.13-.49.17-.72.04-.17.09-.32.13-.47s.06-.28.11-.38c.02-.13.06-.26.06-.32.09-.23.09-.34.04-.38-.02-.04-.09,0-.13.02-.02.02-.04.06-.04.06h-.02c-.38.87-.75,1.62-1.15,2.26-.13.28-.3.53-.45.74-.09.11-.15.21-.26.32v.02c-.53.74-1.08,1.32-1.64,1.72-.28.26-.6.43-.87.6-1.34.68-2.6.62-3.53.38-.09-.02-.17-.04-.26-.09-.06,0-.13-.04-.19-.09-.13-.04-.23-.06-.34-.11-.15-.06-.32-.15-.47-.23,0,0,5.7-1.92,7.75-7.28,2.02-5.36,2.7-13.07,6.98-15.2,3.51-1.75,12.49-6.07,16.09-11.71.77-1.19,1.3-2.47,1.47-3.77.21-1.53.36-3.17.47-4.81v-.02c.45-6.3.28-12.54.28-12.54l.02.02c.02.09.06.17.11.23.04.11.11.26.17.43.38,1.02,1.02,3.04.98,5.45-.09.77-.23,1.36-.19,1.94-.02.06-.02.15-.04.21t.02.04s.02.09.04.13c.06.26.17.51.32.77.04.09.09.17.15.26.02.02.02.04.06.06.19.3.45.6.7.92.21.23.43.47.68.72.09.11.19.21.28.32.45.53.83,1.06,1.19,1.55.23.34.45.64.64.89.02.04.04.06.06.11.02.02.02.04.04.06.04.09.09.17.13.28.09.15.15.3.21.45.28.62.49,1.3.62,2.06.06.28.11.55.13.85.02.11.04.23.02.34.04.32.06.66.06,1v.11c0,.32-.02.64-.04.96-.02.36-.04.72-.11,1.11-.06.53-.15,1.11-.28,1.7-.06.23-.11.47-.17.72-.06.3-.15.6-.23.89-.11.38-.23.79-.36,1.21-.17.55-.36,1.13-.6,1.72-.02.06-.04.13-.06.19,0,.02-.02.02-.02.04-.17.3-.32.62-.51.92,0,0-.17.11-.17.74,0,.4.11,1,.34,1.89.02.09.04.19.06.28.02.06.04.15.09.23.81,2.72,3.85,9.51,4.72,10.85.7,1.09-.64,1.53-1.26,1.68Z"/><path class="cls-16" d="M618.7,269.23v114.01l-134.93.53v-58.78H198.09c61.49-25.86,139.61-72.83,196.63-152.38,3.49-4.87,7.81-9.13,12.75-12.54,16.17-11.19,39.1-8.81,57.38,9.79,14.22,14.47,82.94,87.64,111.09,108.48,2.98,2.19,5.49,3.81,7.45,4.7,0,0,17.41-8.85,35.31-13.81Z"/><polygon class="cls-9" points="554.87 305.12 510.88 305.12 521.87 250.1 532.87 195.09 535.19 206.64 543.87 250.1 554.87 305.12"/><polygon class="cls-25" points="535.19 206.64 515.48 305.12 510.88 305.12 521.87 250.1 532.87 195.09 535.19 206.64"/><polygon class="cls-23" points="512.05 329.4 461.38 329.4 474.04 266.02 486.71 202.66 489.07 214.47 499.37 266.02 512.05 329.4"/><polygon class="cls-1" points="489.07 214.47 466.11 329.4 461.38 329.4 474.04 266.02 486.71 202.66 489.07 214.47"/><path class="cls-12" d="M673.57,255.32l-1.28,5.28-1.38,5.75-14.13,58.65-.23.94v148.81l-66.21,35.33-129.27-22.84v-159.32c24.88-13.51,82.51-32.37,114.88-49.57,40.18-21.33,76.43-40.1,84.7-42.91,21.43-7.24,20.81,9.15,12.92,19.88Z"/><path class="cls-3" d="M672.29,260.59l-1.38,5.75-14.13,58.65-.23.94v161.12l-17.64-.92s-3.17-159.25,0-180.06c3.15-20.81,13.24-31.22,21.11-39.73,3.53-3.81,8.19-5.28,12.28-5.75Z"/><rect class="cls-1" x="598.06" y="316.44" width="9.77" height="159.73"/><polygon class="cls-23" points="511.74 453.63 461.06 453.63 473.72 390.25 486.39 326.89 489.24 341.08 499.07 390.25 511.74 453.63"/><polygon class="cls-1" points="489.24 341.08 466.74 453.63 461.06 453.63 473.72 390.25 486.39 326.89 489.24 341.08"/><path class="cls-23" d="M607.38,482.55c-4.41,12.41-18.03,18.9-30.43,14.49-10.07-3.58-16.26-13.26-15.84-23.43v-.02c.11-2.32.53-4.66,1.36-6.98,4.38-12.41,18.03-18.9,30.41-14.49,1.81.64,3.49,1.49,5.02,2.47,9.05,5.87,13.24,17.37,9.47,27.97Z"/><polygon class="cls-23" points="607.83 433.95 607.83 469.94 598.06 469.94 598.06 441.04 607.83 433.95"/><path class="cls-9" d="M646.73,486.1c-11,11-28.86,10.98-39.84-.04-4.87-4.87-7.58-11.09-8.13-17.45-.7-8,2.02-16.26,8.17-22.39,7.92-7.92,19.41-10.11,29.33-6.62,3.83,1.36,7.45,3.58,10.51,6.66,11,11.02,10.98,28.86-.04,39.84Z"/><polygon class="cls-9" points="547.53 431.6 560.32 476.65 512.5 477.48 506.73 477.59 519.55 432.54 506.73 426.85 534.72 309.22 537.74 322.95 560.32 425.9 547.53 431.6"/><polygon class="cls-25" points="513.99 422.75 526.8 428.45 513.99 473.5 512.5 477.48 506.73 477.59 519.55 432.54 506.73 426.85 534.72 309.22 537.74 322.95 513.99 422.75"/><path class="cls-1" d="M597.91,454.58c-11.05,8.51-29.77,8.49-36.8,19.01.11-2.32.53-4.66,1.36-6.98,4.38-12.41,18.03-18.9,30.41-14.49,1.81.64,3.49,1.49,5.02,2.47Z"/><path class="cls-17" d="M656.54,471.28v359.63c-19.49-14.11-76.32,88.72-85.77,79.68l-117.27-28.8v-450.7c132.76,70.4,114.76,23.79,203.04,40.18Z"/><path class="cls-2" d="M629.43,829.78s0-250.66,0-256.33c0-13.24,1.89-43.65,17.03-43.51.65,0-2.19,305.53-2.84,305.52-3.78-.03-14.19-5.68-14.19-5.68Z"/><path class="cls-1" d="M645.2,794.15c0,.26,0,.51-.02.77-.4,17.41-14.64,31.39-32.14,31.39s-32.16-14.39-32.16-32.16c0-13.43,8.24-24.96,19.94-29.75.04,0,.11-.02.15-.06,3.04-1.23,6.32-2,9.77-2.26.77-.06,1.53-.09,2.3-.09,17.2,0,31.26,13.51,32.11,30.5.02.55.04,1.11.04,1.66Z"/><circle class="cls-23" cx="640.47" cy="814.65" r="13.24"/><path class="cls-1" d="M628.88,810.07c3.94-4.89,9.22-6.94,12.53-6.46,2.03.29,2.78,2.17,1.26,2.21-3.47.08-8.75,1.34-11.9,6.15-1.51,2.3-7.72.79-7.02-.08.71-.87,5.12-1.81,5.12-1.81Z"/><polygon class="cls-23" points="481.97 724.82 453.49 724.82 453.49 562.09 481.97 724.82"/><polygon class="cls-1" points="497.32 545.67 517.89 656.2 538.47 766.72 497.32 766.72 456.17 766.72 476.75 656.2 497.32 545.67"/><polygon class="cls-23" points="543.7 769.38 557.23 662.69 543.7 660.12 573.26 545.07 600.31 658.57 586.78 661.14 600.31 767.83 543.7 769.38"/><path class="cls-1" d="M550.79,655.87l13.54,2.55-9.56,75.28c-2.38-.06-4.55-.11-6.53-.11l9-70.91-13.54-2.55,21.46-83.35,2.79,12.43-17.16,66.66Z"/><polygon class="cls-7" points="496.22 615.05 468 766.71 456.17 766.71 490.5 582.41 496.22 615.05"/><path class="cls-24" d="M656.54,828.63v283.59l-108.39-14.94-64.38-8.87-41.63-14.05v-356.93c2.43-3.47,6.28-6.83,11.36-9.94,16.6-10.19,46.44-17.71,83.85-17.71,44.78,0,68.74,122.65,119.18,138.85Z"/><rect class="cls-1" x="618.7" y="904.26" width="6.07" height="158.04"/><polygon class="cls-21" points="624.77 1024.02 624.77 1062.31 618.7 1062.31 618.7 1036.04 624.77 1024.02"/><rect class="cls-1" x="520" y="935.4" width="9.46" height="144.09"/><path class="cls-15" d="M655.92,979.47l-19.98-17.28-6.85-5.92-7.34-6.36-34.18,29.56,17.13-41.54,9.21-22.52,5.51-13.47c.34-.85.87-1.43,1.47-1.68,1.13-.53,2.47.02,3.15,1.68l14.73,35.99,17.15,41.54Z"/><path class="cls-21" d="M659.07,1038.19l-24.94-22.41-12.39-11.15-37.33,33.56,18.71-35.54,15.13-28.94c1.55-2.96,5.43-2.96,6.96,0l1.3,2.49,13.83,26.45,18.73,35.54Z"/><polygon class="cls-22" points="497.06 1009.03 552.39 1009.03 538.21 954.16 548.61 944.71 544.83 928.15 547.67 920.11 541.52 908.29 537.73 886.53 541.52 879.44 533 866.2 524.02 815.59 511.72 885.59 506.05 894.1 512.19 900.25 500.84 944.23 510.3 953.22 497.06 1009.03"/><path class="cls-26" d="M633.85,1065.3c-4.24-4-8.85-7.19-13.88-9.45-3.19-1.43-6.49-2.81-9.92-4.19-3.06-1.26-6.24-2.47-9.45-3.68-37.1-13.98-83.7-26.6-116.84-42.52-10.09-4.83-18.92-10-25.86-15.58-6.38-5.15-11.17-10.66-13.88-16.64-1.66-3.7-4.92-7.26-9.45-10.66v30.22c13.28,10.34,36.8,21.2,49.18,33.39,45.48,44.69,85.51,98.81,123.93,140.49,6.09.49,11.77,2.4,16.73,5.41,7.81,4.75,13.79,12.17,16.66,21.03,7.32,1.94,13.09,7.64,15.13,14.92h.32v-101.52c0-3.84-.82-7.65-2.43-11.14-5.55-12.02-12.23-22.45-20.26-30.06Z"/><rect class="cls-1" x="434.59" y="855.01" width="9.45" height="144.08"/><rect class="cls-1" x="555.43" y="1095.4" width="7.31" height="37.83" rx="1.72" ry="1.72" transform="translate(200.43 -79.69) rotate(9.93)"/><rect class="cls-1" x="555.86" y="1095.09" width="7.31" height="37.84" rx="1.72" ry="1.72" transform="translate(1675.55 558.55) rotate(90.21)"/><rect class="cls-1" x="517.59" y="1048.12" width="7.31" height="37.83" rx="1.72" ry="1.72" transform="translate(195.87 -75.07) rotate(10.13)"/><circle class="cls-4" cx="511.19" cy="848.34" r="2.36"/><rect class="cls-1" x="518.02" y="1047.8" width="7.31" height="37.84" rx="1.72" ry="1.72" transform="translate(1590.28 548.92) rotate(90.21)"/><rect class="cls-1" x="512.63" y="1049.51" width="7.31" height="37.84" rx="1.72" ry="1.72" transform="translate(1166.24 75.64) rotate(59)"/><path class="cls-21" d="M607.69,1166.66c-1.04-.09-2.11-.13-3.17-.13-21.24,0-38.48,17.22-38.48,38.46,0,1.02.04,2.02.13,3.02h-32.63c-5.58-10.7-16-18.49-28.35-20.49-5.55-26.94-29.43-47.18-58.02-47.18-4.32,0-8.53.47-12.6,1.36v-148.91c13.28,10.34,36.8,21.2,49.18,33.39,45.48,44.69,85.51,98.81,123.93,140.49Z"/><path class="cls-1" d="M641.09,1193.1c-.51-.15-1.04-.26-1.6-.36-1.28-.23-2.58-.36-3.92-.36-.79,0-1.57.04-2.34.13-8.79.96-15.98,7.19-18.28,15.51h-48.78c-.09-1-.13-2-.13-3.02,0-21.24,17.24-38.46,38.48-38.46,1.06,0,2.13.04,3.17.13,6.09.49,11.77,2.4,16.73,5.41,7.81,4.75,13.79,12.17,16.66,21.03Z"/><path class="cls-21" d="M656.22,1208.02h-41.27c2.3-8.32,9.49-14.56,18.28-15.51.77-.09,1.55-.13,2.34-.13,1.34,0,2.64.13,3.92.36.55.11,1.09.21,1.6.36,7.32,1.94,13.09,7.64,15.13,14.92Z"/><polygon class="cls-19" points="403.75 945.34 420.54 901.45 408.56 894.39 422.94 859.78 415.16 854.95 422.35 848.25 437.95 793.21 444.57 816.3 449.34 833.01 460.13 843.42 455.34 848.99 460.13 866.1 467.94 875.4 464.34 881.72 469.13 894.75 455.93 902.2 471.51 939.51 473.94 945.34 403.75 945.34"/><path class="cls-8" d="M363.8,186.16l-11.22,10.12-14.48,13.18h-.01s-.01,0-.01,0l-14.48-13.18-11.22-10.12c-.63-.58,5.77-.42,13.71,4.98l11.99,8.99,11.99-8.99c7.95-5.4,14.35-5.56,13.71-4.98Z"/><path class="cls-8" d="M244.91,185.74l11.09-10.01,14.14-12.86h.01s.01,0,.01,0l14.14,12.86,11.09,10.01c.63.56-16.55-.22-25.24-8.68-8.69,8.46-25.87,9.24-25.24,8.68Z"/><path class="cls-9" d="M238.06,145.31l-7.1,6.41-8.95,8.14-.05.05-.06-.05-8.95-8.14-7.1-6.41c-.4-.36,5.94-2.06,16.11,3.29,10.16-5.35,16.5-3.65,16.1-3.29Z"/><path class="cls-1" d="M533.55,1208.02h-98.96v-66.32c4.07-.89,8.28-1.36,12.6-1.36,28.58,0,52.46,20.24,58.02,47.18,12.34,2,22.77,9.79,28.35,20.49Z"/><polygon class="cls-1" points="518.69 900.45 507.46 944.36 516.81 953.33 503.71 1009.03 497.06 1009.03 510.17 953.33 500.82 944.36 512.04 900.45 505.97 894.31 511.58 885.81 519.2 842.08 522.54 861.04 518.22 885.81 512.61 894.31 518.69 900.45"/><path class="cls-1" d="M634.15,1015.95l-12.41-11.32-37.33,33.56,18.71-35.54,15.13-28.94c1.55-2.96,5.43-2.96,6.96,0l1.3,2.49c7.02,25.1.08,20.69,7.62,39.59.02.11.02.17.02.17Z"/><polygon class="cls-21" points="434.59 965.52 434.59 1000.28 444.04 1000.28 444.04 957.8 434.59 965.52"/><polygon class="cls-26" points="471.51 939.51 463 934.5 449.91 903.13 463.1 895.69 458.32 882.68 461.91 876.34 454.1 867.06 449.31 849.95 454.1 844.35 443.31 833.94 441.44 827.37 444.57 816.3 449.34 833.01 460.13 843.42 455.34 848.99 460.13 866.1 467.94 875.4 464.34 881.72 469.13 894.75 455.93 902.2 471.51 939.51"/><path class="cls-1" d="M458.09,1080.57c-4.83-4.83-3.89-13.61-3.89-13.61,0,0,8.78-.94,13.61,3.89,4.83,4.83,3.89,13.61,3.89,13.61,0,0-8.78.94-13.61-3.89Z"/><path class="cls-1" d="M520.44,889.73c.58-2.09,3.15-3.2,3.15-3.2,0,0,1.63,2.28,1.05,4.37s-3.15,3.2-3.15,3.2c0,0-1.63-2.28-1.05-4.37Z"/><path class="cls-1" d="M552.16,1161.75c-4.67,4.99-13.47,4.34-13.47,4.34,0,0-1.24-8.74,3.43-13.73,4.67-4.99,13.47-4.34,13.47-4.34,0,0,1.24,8.74-3.43,13.73Z"/><path class="cls-26" d="M523.37,1116.22c-3.41-.17-6.01-3.74-6.01-3.74,0,0,2.94-3.3,6.35-3.13,3.41.17,6.01,3.74,6.01,3.74,0,0-2.94,3.3-6.35,3.13Z"/><path class="cls-26" d="M532.25,979.31c-1.51-1.89-.83-4.94-.83-4.94,0,0,3.12.01,4.63,1.91,1.51,1.89.83,4.94.83,4.94,0,0-3.12-.01-4.63-1.91Z"/><circle class="cls-1" cx="491.33" cy="1130.57" r="5.68"/><circle class="cls-26" cx="448.45" cy="937.61" r="2.84"/><ellipse class="cls-26" cx="535" cy="880.62" rx="2.21" ry="1.89"/><ellipse class="cls-26" cx="531.29" cy="924.84" rx="2.21" ry="1.89"/><circle class="cls-1" cx="416.29" cy="890.63" r="2.84"/><circle class="cls-26" cx="436.47" cy="849.64" r="2.84"/><path class="cls-10" d="M655.92,979.47l-19.98-17.28-6.85-5.92c-2.55-17.17-6.19-41.69-8.19-56.02,1.13-.53,2.47.02,3.15,1.68l14.73,35.99,17.15,41.54Z"/><circle class="cls-1" cx="515.92" cy="941.16" r="2.36"/><circle class="cls-1" cx="519.23" cy="995.78" r="2.36"/><circle class="cls-21" cx="613.51" cy="997.36" r="2.36"/><circle class="cls-10" cx="616.74" cy="935.17" r="2.36"/><circle class="cls-10" cx="593.17" cy="906.32" r="2.36"/><circle class="cls-10" cx="559.28" cy="928.07" r="2.36"/><circle class="cls-10" cx="580.87" cy="976.94" r="2.36"/><circle class="cls-10" cx="644.33" cy="995.55" r="2.36"/><circle class="cls-4" cx="565.35" cy="858.63" r="2.36"/><circle class="cls-4" cx="499.13" cy="891.74" r="2.36"/><circle class="cls-4" cx="455.86" cy="824.11" r="2.36"/><circle class="cls-4" cx="557.7" cy="770.5" r="2.36"/><circle class="cls-4" cx="542.21" cy="817.44" r="2.36"/><circle class="cls-4" cx="499.53" cy="748.87" r="2.36"/><circle class="cls-4" cx="485.18" cy="796.79" r="2.36"/><path class="cls-3" d="M656.54,844.61v41.5c-53.74-31.84-91.98-113.22-99.9-136.91,30.22,26.67,61.44,94.77,99.9,95.41Z"/><path class="cls-15" d="M632.56,357.56l-29.6-18.24-17.39,10.71-12.24,7.53,14.86-32.14,12-26.18c.38-.83.94-1.4,1.55-1.7,1.38-.7,3.13-.13,3.96,1.7l12,26.18,14.86,32.14Z"/><path class="cls-23" d="M635.13,402.93l-30.33-10.85-1.85-.66-32.2,11.51,16.15-27.86,12.85-22.35c1.4-2.47,4.96-2.47,6.36,0l1.02,1.77,11.83,20.58,16.15,27.86Z"/><path class="cls-23" d="M623.23,434.28l-20.09-7.19-.19-.06-20.3,7.26,10.17-17.56,8.11-14.11c.89-1.53,3.13-1.53,4.02,0l2.72,4.75,5.38,9.36,10.17,17.56Z"/><polygon class="cls-26" points="573.26 545.07 600.31 658.57 591.59 660.47 569.84 557.36 573.26 545.07"/><path class="cls-1" d="M612.87,379.31c.49,4.7-3.79,9.36-8.07,12.77l-1.85-.66-32.2,11.51,16.15-27.86,12.85-22.35c1.4-2.47,4.96-2.47,6.36,0l1.02,1.77c-.36.4-.68.83-1,1.28-3.32,4.72,5.79,14.3,6.73,23.54Z"/><path class="cls-1" d="M603.14,427.09l-.19-.06-20.3,7.26,10.17-17.56,8.11-14.11c.89-1.53,3.13-1.53,4.02,0l2.72,4.75c2.36,5.88,2.6,12.85-4.53,19.73Z"/><path class="cls-26" d="M585.56,350.02l-12.24,7.53,14.86-32.14,12-26.18c.38-.83.94-1.4,1.55-1.7.6,1,1,2.17,1.21,3.49,1.11,7.02-7.9,31.16-17.39,48.99Z"/><polyline class="cls-11" points="533.27 388.99 541.08 371.45 545.19 362.28 555.34 339.49"/><path class="cls-23" d="M645.2,794.15c0,.26,0,.51-.02.77-11.6-25.07-30.52-20.39-44.35-30.52.04,0,.11-.02.15-.06,3.04-1.23,6.32-2,9.77-2.26.77-.06,1.53-.09,2.3-.09,17.2,0,31.26,13.51,32.11,30.5.02.55.04,1.11.04,1.66Z"/><circle class="cls-23" cx="602.24" cy="370.55" r="1.77"/><circle class="cls-26" cx="607.67" cy="329.64" r="1.77"/><circle class="cls-23" cx="588.99" cy="389.94" r="1.77"/><circle class="cls-23" cx="600.7" cy="417.25" r="1.54"/><path class="cls-25" d="M636.26,439.6c-7.45,8.17-24.37,18.56-37.5,29.01-.7-8,2.02-16.26,8.17-22.39,7.92-7.92,19.41-10.11,29.33-6.62Z"/><path class="cls-6" d="M659.66,222.95l-.11.47s-.02-.04-.02-.09c0-.02-.02-.02-.02-.04.02-.02.04-.02.04-.04.02-.04.06-.15.11-.3Z"/></g></svg>