<?xml version="1.0" encoding="UTF-8"?><svg id="Layer_2" xmlns="http://www.w3.org/2000/svg" xmlns:xlink="http://www.w3.org/1999/xlink" viewBox="0 0 1259.81 389.06"><defs><style>.cls-1{fill:url(#linear-gradient-15);}.cls-2{fill:url(#linear-gradient-13);}.cls-3{fill:url(#linear-gradient-2);}.cls-4,.cls-5{fill:#feebe1;}.cls-6{fill:url(#linear-gradient-25);}.cls-7{fill:#fef3ee;}.cls-8{fill:url(#linear-gradient-10);}.cls-9{fill:url(#linear-gradient-12);}.cls-10{fill:url(#linear-gradient-27);}.cls-11{fill:#eae5e1;}.cls-11,.cls-12,.cls-13,.cls-14,.cls-15{opacity:.6;}.cls-16{fill:#3c76bc;}.cls-17{fill:#fff;}.cls-18{opacity:.79;}.cls-18,.cls-19,.cls-20{fill:#2f509d;}.cls-21{fill:url(#radial-gradient-4);opacity:.7;}.cls-12{fill:#dddad3;}.cls-13{fill:#0d4c83;}.cls-22{fill:url(#linear-gradient-26);}.cls-23{fill:none;}.cls-24{fill:url(#linear-gradient-4);}.cls-25{fill:url(#radial-gradient-5);}.cls-26{fill:url(#radial-gradient);}.cls-27{fill:url(#radial-gradient-3);}.cls-19{opacity:.5;}.cls-28{fill:#5581c1;}.cls-29{fill:url(#linear-gradient-3);}.cls-30{fill:#82b1df;}.cls-31{fill:url(#linear-gradient-5);}.cls-32{fill:#0453a1;}.cls-33{fill:url(#linear-gradient-22);}.cls-34{fill:url(#linear-gradient-24);}.cls-35{fill:url(#linear-gradient-8);}.cls-36{fill:#fffbf1;}.cls-37{fill:#d6d3ce;opacity:.8;}.cls-38{fill:url(#radial-gradient-2);}.cls-39{fill:url(#linear-gradient-14);}.cls-14,.cls-40{fill:#184274;}.cls-41{fill:url(#linear-gradient-20);}.cls-42{fill:url(#linear-gradient-17);}.cls-43{fill:url(#linear-gradient-7);}.cls-44{fill:#afbde1;}.cls-45{fill:url(#linear-gradient-9);}.cls-46{fill:url(#linear-gradient-11);}.cls-47{fill:url(#linear-gradient-19);}.cls-40{opacity:.3;}.cls-48{fill:url(#linear-gradient-6);}.cls-49{fill:#292b69;}.cls-50{fill:#517bbe;}.cls-51{fill:#0f66b1;}.cls-52{fill:url(#linear-gradient-21);}.cls-15{fill:#cecac3;}.cls-53{fill:#73a6d9;}.cls-54{fill:url(#radial-gradient-6);}.cls-55{fill:url(#radial-gradient-7);}.cls-56{fill:url(#linear-gradient-16);}.cls-57{fill:#e8e8e8;}.cls-58{fill:url(#linear-gradient);}.cls-59{fill:url(#linear-gradient-23);}.cls-60{fill:url(#linear-gradient-18);}.cls-5{opacity:.65;}</style><radialGradient id="radial-gradient" cx="629.9" cy="194.41" fx="629.9" fy="194.41" r="466.14" gradientUnits="userSpaceOnUse"><stop offset="0" stop-color="#fff" stop-opacity=".8"/><stop offset=".01" stop-color="#fffefe" stop-opacity=".8"/><stop offset=".4" stop-color="#fffcf7" stop-opacity=".91"/><stop offset=".74" stop-color="#fffbf2" stop-opacity=".98"/><stop offset="1" stop-color="#fffbf1"/></radialGradient><linearGradient id="linear-gradient" x1="158.86" y1="27.04" x2="119.5" y2="91.26" gradientUnits="userSpaceOnUse"><stop offset=".17" stop-color="#fffbf1"/><stop offset=".72" stop-color="#afbde1"/></linearGradient><linearGradient id="linear-gradient-2" x1="65.03" y1="200.01" x2="101.99" y2="207.21" gradientUnits="userSpaceOnUse"><stop offset=".02" stop-color="#fffbf1"/><stop offset=".14" stop-color="#fbf8ef"/><stop offset=".25" stop-color="#eff0eb"/><stop offset=".36" stop-color="#dbe3e5"/><stop offset=".48" stop-color="#bfd0dc"/><stop offset=".59" stop-color="#9cb8d1"/><stop offset=".7" stop-color="#709bc3"/><stop offset=".81" stop-color="#3d79b3"/><stop offset=".92" stop-color="#0453a1"/></linearGradient><linearGradient id="linear-gradient-3" x1="132.41" y1="106.44" x2="218.78" y2="147.9" gradientUnits="userSpaceOnUse"><stop offset=".13" stop-color="#afbde1"/><stop offset=".43" stop-color="#c7d0e5"/><stop offset="1" stop-color="#fffbf1"/></linearGradient><linearGradient id="linear-gradient-4" x1="46.16" y1="130.64" x2="142.09" y2="130.64" gradientUnits="userSpaceOnUse"><stop offset="0" stop-color="#fffbf1"/><stop offset="1" stop-color="#afbde1"/></linearGradient><linearGradient id="linear-gradient-5" x1="15.96" y1="78.44" x2="140.82" y2="78.44" gradientUnits="userSpaceOnUse"><stop offset="0" stop-color="#fffbf1"/><stop offset=".17" stop-color="#ececed"/><stop offset=".52" stop-color="#cbd2e6"/><stop offset=".81" stop-color="#b6c2e2"/><stop offset="1" stop-color="#afbde1"/></linearGradient><linearGradient id="linear-gradient-6" x1="147.37" y1="141.24" x2="111.53" y2="48.58" gradientUnits="userSpaceOnUse"><stop offset=".48" stop-color="#537cbe"/><stop offset=".49" stop-color="#517bbe"/><stop offset=".55" stop-color="#5f84c1"/><stop offset=".66" stop-color="#859eca"/><stop offset=".81" stop-color="#c2c7d7"/><stop offset=".95" stop-color="#fff0e6"/></linearGradient><linearGradient id="linear-gradient-7" x1="-3485.38" y1="65.64" x2="-3478.77" y2="65.64" gradientTransform="translate(-3387.05) rotate(-180) scale(1 -1)" gradientUnits="userSpaceOnUse"><stop offset="0" stop-color="#292b69"/><stop offset=".62" stop-color="#0d4b92"/><stop offset="1" stop-color="#005ca7"/></linearGradient><radialGradient id="radial-gradient-2" cx="-23.77" cy="-420.38" fx="-23.77" fy="-420.38" r="1.18" gradientTransform="translate(97.01 495.88) rotate(3)" xlink:href="#radial-gradient"/><linearGradient id="linear-gradient-8" x1="93.65" y1="73.82" x2="151.27" y2="99.76" gradientUnits="userSpaceOnUse"><stop offset="0" stop-color="#fffbf1"/><stop offset=".09" stop-color="#cfdbe1"/><stop offset=".19" stop-color="#9ab7d0"/><stop offset=".3" stop-color="#6c98c2"/><stop offset=".41" stop-color="#467fb6"/><stop offset=".52" stop-color="#296cac"/><stop offset=".63" stop-color="#145ea6"/><stop offset=".73" stop-color="#0855a2"/><stop offset=".84" stop-color="#0453a1"/></linearGradient><linearGradient id="linear-gradient-9" x1="500.74" y1="170.72" x2="793.22" y2="324.68" gradientUnits="userSpaceOnUse"><stop offset=".02" stop-color="#fffbf1"/><stop offset=".09" stop-color="#d0dbe2"/><stop offset=".17" stop-color="#a1bcd3"/><stop offset=".25" stop-color="#769fc5"/><stop offset=".34" stop-color="#5388ba"/><stop offset=".43" stop-color="#3674b1"/><stop offset=".53" stop-color="#2065a9"/><stop offset=".63" stop-color="#105ba4"/><stop offset=".75" stop-color="#0654a1"/><stop offset=".92" stop-color="#0453a1"/></linearGradient><linearGradient id="linear-gradient-10" x1="535.73" y1="20.54" x2="684.68" y2="83.4" gradientUnits="userSpaceOnUse"><stop offset=".17" stop-color="#fffbf1"/><stop offset=".24" stop-color="#e0e6e7"/><stop offset=".41" stop-color="#92b2ce"/><stop offset=".56" stop-color="#5589bb"/><stop offset=".69" stop-color="#296bac"/><stop offset=".79" stop-color="#0e59a4"/><stop offset=".85" stop-color="#0453a1"/></linearGradient><linearGradient id="linear-gradient-11" x1="514.81" y1="187.96" x2="667.9" y2="370.51" gradientUnits="userSpaceOnUse"><stop offset=".26" stop-color="#fffbf1"/><stop offset=".33" stop-color="#d5dbe8"/><stop offset=".39" stop-color="#b9c5e3"/><stop offset=".42" stop-color="#afbde1"/></linearGradient><linearGradient id="linear-gradient-12" x1="535.96" y1="256.87" x2="680.56" y2="312.71" gradientUnits="userSpaceOnUse"><stop offset=".08" stop-color="#fffbf1"/><stop offset=".14" stop-color="#dfe3e7"/><stop offset=".27" stop-color="#a2b6d5"/><stop offset=".38" stop-color="#7696c8"/><stop offset=".46" stop-color="#5b82c0"/><stop offset=".51" stop-color="#517bbe"/></linearGradient><linearGradient id="linear-gradient-13" x1="579.94" y1="300.52" x2="741.14" y2="344.35" gradientUnits="userSpaceOnUse"><stop offset="0" stop-color="#82b1df"/><stop offset=".15" stop-color="#84b2df"/><stop offset=".25" stop-color="#8eb8e0"/><stop offset=".35" stop-color="#9ec1e3"/><stop offset=".43" stop-color="#b4cee6"/><stop offset=".51" stop-color="#d1dfea"/><stop offset=".59" stop-color="#f3f4ef"/><stop offset=".61" stop-color="#fffbf1"/></linearGradient><radialGradient id="radial-gradient-3" cx="473.96" cy="-262.65" fx="473.96" fy="-262.65" r="2.68" gradientTransform="translate(97.01 495.88) rotate(3)" xlink:href="#radial-gradient"/><linearGradient id="linear-gradient-14" x1="520.42" y1="247.39" x2="695.02" y2="434.1" gradientUnits="userSpaceOnUse"><stop offset="0" stop-color="#fffbf1"/><stop offset=".22" stop-color="#a2cadc"/><stop offset=".6" stop-color="#0074b8"/><stop offset=".7" stop-color="#006db3"/><stop offset=".83" stop-color="#025ca7"/><stop offset=".88" stop-color="#0453a1"/></linearGradient><linearGradient id="linear-gradient-15" x1="-3993.11" y1="301.23" x2="-3974.26" y2="301.23" xlink:href="#linear-gradient-7"/><linearGradient id="linear-gradient-16" x1="555.56" y1="255.72" x2="649.66" y2="405.71" gradientUnits="userSpaceOnUse"><stop offset="0" stop-color="#fffbf1"/><stop offset=".06" stop-color="#e0e6e7"/><stop offset=".21" stop-color="#92b2ce"/><stop offset=".34" stop-color="#5589bb"/><stop offset=".45" stop-color="#296bac"/><stop offset=".54" stop-color="#0e59a4"/><stop offset=".59" stop-color="#0453a1"/></linearGradient><linearGradient id="linear-gradient-17" x1="647.82" y1="238.91" x2="632.13" y2="179.12" gradientUnits="userSpaceOnUse"><stop offset=".01" stop-color="#fffbf1"/><stop offset=".44" stop-color="#fef0e6"/><stop offset=".93" stop-color="#feebe1"/></linearGradient><radialGradient id="radial-gradient-4" cx="1665.04" cy="3315.21" fx="1665.04" fy="3315.21" r="23.16" gradientTransform="translate(-3135.26 722.86) rotate(-69.16)" xlink:href="#radial-gradient"/><linearGradient id="linear-gradient-18" x1="-4490.61" y1="67.11" x2="-4481.43" y2="67.11" gradientTransform="translate(-3387.05) rotate(-180) scale(1 -1)" gradientUnits="userSpaceOnUse"><stop offset="0" stop-color="#0453a1"/><stop offset="1" stop-color="#0074b8"/></linearGradient><linearGradient id="linear-gradient-19" x1="945.13" y1="94.38" x2="1085.18" y2="201.54" gradientUnits="userSpaceOnUse"><stop offset="0" stop-color="#fffbf1"/><stop offset=".22" stop-color="#ccd9e0"/><stop offset=".71" stop-color="#4f85b9"/><stop offset="1" stop-color="#0453a1"/></linearGradient><linearGradient id="linear-gradient-20" x1="968.19" y1="295.07" x2="1111.18" y2="304.29" gradientUnits="userSpaceOnUse"><stop offset=".55" stop-color="#fffbf1"/><stop offset=".56" stop-color="#f1f2ec"/><stop offset=".61" stop-color="#bacddb"/><stop offset=".66" stop-color="#89accb"/><stop offset=".71" stop-color="#6091be"/><stop offset=".77" stop-color="#3f7ab3"/><stop offset=".82" stop-color="#2569ab"/><stop offset=".88" stop-color="#125ca5"/><stop offset=".94" stop-color="#0755a2"/><stop offset="1" stop-color="#0453a1"/></linearGradient><linearGradient id="linear-gradient-21" x1="1031.49" y1="313.2" x2="1100.03" y2="415.48" gradientUnits="userSpaceOnUse"><stop offset=".44" stop-color="#fffbf1"/><stop offset=".44" stop-color="#fefaf0"/><stop offset=".48" stop-color="#cad7e0"/><stop offset=".53" stop-color="#9cb8d1"/><stop offset=".58" stop-color="#739dc4"/><stop offset=".63" stop-color="#5086b9"/><stop offset=".69" stop-color="#3473b0"/><stop offset=".75" stop-color="#1f65a9"/><stop offset=".81" stop-color="#0f5aa4"/><stop offset=".89" stop-color="#0654a1"/><stop offset="1" stop-color="#0453a1"/></linearGradient><linearGradient id="linear-gradient-22" x1="1021.73" y1="65.2" x2="1173.36" y2="225.85" gradientUnits="userSpaceOnUse"><stop offset=".16" stop-color="#fffbf1"/><stop offset=".21" stop-color="#e9eeed"/><stop offset=".3" stop-color="#c9dbe9"/><stop offset=".39" stop-color="#afcbe5"/><stop offset=".5" stop-color="#9bbfe2"/><stop offset=".62" stop-color="#8cb7e0"/><stop offset=".76" stop-color="#84b2df"/><stop offset="1" stop-color="#82b1df"/></linearGradient><linearGradient id="linear-gradient-23" x1="-4465.51" y1="105.51" x2="-4451.28" y2="105.51" xlink:href="#linear-gradient-18"/><linearGradient id="linear-gradient-24" x1="-4516.88" y1="119.99" x2="-4499.2" y2="119.99" xlink:href="#linear-gradient-18"/><radialGradient id="radial-gradient-5" cx="167.4" cy="-867.78" fx="167.4" fy="-867.78" r="2.04" gradientTransform="translate(614.44 865.85) rotate(18.62)" xlink:href="#radial-gradient"/><linearGradient id="linear-gradient-25" x1="982.31" y1="94.74" x2="1208.52" y2="195.43" gradientUnits="userSpaceOnUse"><stop offset="0" stop-color="#fffbf1"/><stop offset=".46" stop-color="#0074b8"/><stop offset="1" stop-color="#0453a1"/></linearGradient><radialGradient id="radial-gradient-6" cx="1118.25" cy="79.89" fx="1118.25" fy="79.89" r="1.43" xlink:href="#radial-gradient"/><linearGradient id="linear-gradient-26" x1="948.61" y1="97.05" x2="1088.66" y2="204.21" xlink:href="#linear-gradient-19"/><linearGradient id="linear-gradient-27" x1="1173.99" y1="95.24" x2="1205.46" y2="109.25" xlink:href="#linear-gradient-25"/><radialGradient id="radial-gradient-7" cx="1005.58" cy="104.85" fx="1005.58" fy="104.85" r="23.74" xlink:href="#radial-gradient"/></defs><g id="Layer_2-2"><rect class="cls-26" width="1259.81" height="388.82"/></g><g id="Layer_6"><path class="cls-32" d="M100.12,388.82h-10.54c.05-5.97-.79-12.25-1.89-18.54-.87-4.89-1.89-9.81-2.96-14.74-.31-1.43-.61-2.85-.92-4.28-1.55-7.06-3.09-14.18-4.5-21.36l7.9-6.45c1.68,8.02,3.6,16.03,5.57,24.09.13.52.25,1.04.39,1.57,1.54,6.36,3.1,12.76,4.42,19.32,1.3,6.56,2.42,13.28,2.53,20.4Z"/><path class="cls-58" d="M104.25,66.07c-5.31-11.59,21.85,14.51,34.74,14.85,110.61,2.97-65.39-81.68-34.74-14.85Z"/><path class="cls-3" d="M137.16,87.29c-1.94,6.3-4.02,12.49-6.16,18.7-2.13,6.2-4.35,12.36-6.62,18.51-4.54,12.3-9.3,24.51-14.24,36.65-2.46,6.08-5,12.12-7.53,18.17-2.56,6.02-5.24,12.07-7.65,18-2.39,5.99-4.5,12.09-6.31,18.27-1.79,6.18-3.27,12.44-4.45,18.76-1.16,6.32-1.99,12.7-2.53,19.09-.5,6.4-.74,12.82-.63,19.25.18,12.84,1.57,25.67,3.77,38.38.67,3.85,1.41,7.7,2.21,11.54.06.28.12.56.17.84l-7.9,6.45c-.07-.38-.15-.76-.22-1.15-1.05-5.4-2-10.84-2.81-16.31-1.95-13.11-3.07-26.42-2.93-39.73.04-6.66.44-13.32,1.13-19.94.71-6.62,1.73-13.21,3.1-19.73,1.37-6.51,3.06-12.95,5.06-19.29,2.02-6.33,4.35-12.56,6.95-18.65,2.65-6.13,5.43-11.97,8.13-17.93,2.67-5.96,5.35-11.91,7.95-17.9,5.21-11.97,10.25-24.01,15.08-36.15,2.41-6.07,4.78-12.15,7.06-18.27,2.28-6.11,4.51-12.26,6.58-18.41l2.78.87Z"/><path class="cls-29" d="M184.12,170.18c-64.76,0-3.26-73.06-59.11-73.06-4.91,0,25.1-21.28,20.05-21.28,68.73,0,108.17,94.34,39.07,94.34Z"/><path class="cls-24" d="M136.21,137.62c0,67.56-74.11,25.84-89.69-1.09-4.47-13.95,32.71-32.83,40.56-35.43,10.8-3.07,20.47-9.11,30.99-14.01,6.53,4.94,17.52,10.12,23.19,10.54,3.44,5.72-5.05,21.53-5.05,39.98Z"/><path class="cls-31" d="M140.82,97.65c-35.96-27.82-122.5,36.29-124.66,11.24C11.28,52.23,94.78,15.92,111.33,65.29c-8.97,7.13,19.32,24.66,29.49,32.36Z"/><polygon class="cls-20" points="116.91 80.12 106.91 81.66 109.41 65.42 111.91 49.18 112.51 53.12 114.41 65.42 116.91 80.12"/><polygon class="cls-20" points="129.85 75.68 121.7 75.68 123.73 62.43 125.77 49.18 126.3 52.62 127.82 62.43 129.85 75.68"/><polygon class="cls-4" points="124.68 74.14 113.4 74.14 116.22 60.03 119.04 45.91 119.75 49.47 121.86 60.03 124.68 74.14"/><polygon class="cls-20" points="141.75 74.18 134.3 75.32 136.16 63.23 138.02 51.14 138.47 54.07 139.89 63.23 141.75 74.18"/><polygon class="cls-17" points="150.18 77.6 144.11 77.6 145.63 67.74 147.15 57.88 147.54 60.44 148.67 67.74 150.18 77.6"/><polygon class="cls-49" points="145.95 77.29 137.55 77.29 139.65 66.78 141.74 56.28 142.27 58.93 143.85 66.78 145.95 77.29"/><path class="cls-48" d="M155.25,88.21c-1.5.07-3.38.11-5.56.09h-.79c-14.32-.16-40.37-2.46-56.75-11.16.19-1.25.51-2.48.94-3.71.31-.86.66-1.7,1.08-2.53,1.22-2.4,2.84-4.48,4.78-6.23.03-.03.06-.06.09-.08.33-.3.67-.58,1.01-.84,1.51-1.22,3.2-2.24,5.04-3.07.15-.07.32-.15.48-.21.02-.02.04-.03.07-.04,8.64-3.73,20.08-3.3,30.63,2.04,5.98,3.01,10.86,7.2,14.35,11.93.21.28.41.56.6.84,1.6,2.3,2.88,4.71,3.8,7.17.01.02.02.04.01.06.04.09.07.17.09.25l-1.28.58,1.39,4.9Z"/><circle class="cls-17" cx="143.46" cy="78" r=".48"/><circle class="cls-17" cx="147.15" cy="80.72" r=".48"/><circle class="cls-17" cx="147.63" cy="75.28" r=".48"/><circle class="cls-17" cx="143.63" cy="83.15" r=".48"/><circle class="cls-17" cx="137.28" cy="81.34" r=".48"/><circle class="cls-17" cx="131.64" cy="85.62" r=".48"/><circle class="cls-17" cx="137.76" cy="86.85" r=".48"/><circle class="cls-17" cx="139.36" cy="72.53" r=".48"/><circle class="cls-17" cx="134.53" cy="70.7" r=".48"/><circle class="cls-17" cx="134.2" cy="77.3" r=".48"/><circle class="cls-17" cx="128.33" cy="81.26" r=".48"/><circle class="cls-17" cx="129.13" cy="75.06" r=".48"/><circle class="cls-17" cx="143.75" cy="70.01" r=".48"/><circle class="cls-17" cx="137.35" cy="67.11" r=".48"/><circle class="cls-17" cx="131.42" cy="63.23" r=".48"/><circle class="cls-17" cx="124.51" cy="84.11" r=".48"/><circle class="cls-17" cx="118.58" cy="80.24" r=".48"/><circle class="cls-17" cx="127.89" cy="65.73" r=".48"/><circle class="cls-17" cx="129.19" cy="70.72" r=".48"/><circle class="cls-17" cx="122.59" cy="70.35" r=".48"/><circle class="cls-17" cx="118.02" cy="75.75" r=".48"/><circle class="cls-17" cx="124.26" cy="75.62" r=".48"/><circle class="cls-17" cx="122.69" cy="61.29" r=".48"/><circle class="cls-17" cx="117.59" cy="60.56" r=".48"/><circle class="cls-17" cx="118.7" cy="67.07" r=".48"/><circle class="cls-17" cx="113.83" cy="72.22" r=".48"/><circle class="cls-17" cx="113.27" cy="66" r=".48"/><circle class="cls-17" cx="100.51" cy="71.97" r=".48"/><circle class="cls-17" cx="105.62" cy="72.7" r=".48"/><circle class="cls-17" cx="104.51" cy="66.19" r=".48"/><circle class="cls-17" cx="109.37" cy="61.04" r=".48"/><circle class="cls-17" cx="109.93" cy="67.26" r=".48"/><path class="cls-49" d="M136.78,86.46s0,.09,0,.13c.09,2.98,2.55,5.37,5.55,5.34s5.5-2.51,5.48-5.55c-.02-2.3-1.44-4.27-3.45-5.08,0,0-.02,0-.03-.01-.52-.21-1.09-.34-1.68-.38-.13-.01-.26-.01-.39-.01-2.95.02-5.34,2.35-5.47,5.27,0,.09,0,.19,0,.28Z"/><path class="cls-20" d="M136.78,86.46s0,.09,0,.13c1.96-4.31,5.21-3.53,7.57-5.29,0,0-.02,0-.03-.01-.52-.21-1.09-.34-1.68-.38-.13-.01-.26-.01-.39-.01-2.95.02-5.34,2.35-5.47,5.27,0,.09,0,.19,0,.28Z"/><path class="cls-49" d="M137.69,88.86c-.9.87-2.34.85-3.21-.05-.4-.41-.61-.94-.64-1.47,1.25-.49,2.43-1.17,3.59-1.95.11.08.21.16.31.26.87.9.85,2.34-.05,3.21Z"/><path class="cls-20" d="M137.43,85.39c-1.16.78-2.34,1.46-3.59,1.95-.03-.63.2-1.27.69-1.74.8-.78,2.03-.84,2.9-.21Z"/><polygon class="cls-20" points="110.96 88.52 103.27 89.71 105.19 77.14 107.11 64.58 107.58 67.63 109.03 77.14 110.96 88.52"/><polygon class="cls-4" points="155.25 88.21 155.49 89.05 149.39 89.15 148.66 89.17 148.9 88.3 150.3 83.43 148.66 82.7 150.63 74.4 152.23 67.71 152.61 69.46 155.49 82.58 155.15 82.73 153.86 83.3 155.25 88.21"/><polygon class="cls-7" points="149.59 82.18 151.22 82.9 149.59 88.65 149.4 89.15 148.66 89.17 150.29 83.43 148.66 82.7 152.23 67.71 152.61 69.46 149.59 82.18"/><polygon class="cls-20" points="118.38 92.67 112.11 92.67 113.68 82.42 115.25 72.18 115.65 74.84 116.81 82.42 118.38 92.67"/><polygon class="cls-17" points="115.78 89.78 107.11 89.78 109.28 78.86 111.45 67.94 111.99 70.69 113.62 78.86 115.78 89.78"/><rect class="cls-49" x="94.54" y="64.29" width=".89" height="13.58"/><polygon class="cls-43" points="98.34 72.8 96.75 68.67 97.88 68 96.53 64.74 97.26 64.29 96.58 63.66 95.11 58.47 94.49 60.65 94.04 62.22 93.02 63.2 93.47 63.73 93.02 65.34 92.29 66.21 92.63 66.81 92.17 68.04 93.42 68.74 91.95 72.25 91.72 72.8 98.34 72.8"/><polygon class="cls-32" points="95.43 74.71 95.43 77.98 94.54 77.98 94.54 73.98 95.43 74.71"/><polygon class="cls-51" points="91.95 72.25 92.75 71.78 93.99 68.83 92.74 68.13 93.19 66.9 92.85 66.3 93.59 65.43 94.04 63.82 93.59 63.29 94.61 62.31 94.78 61.69 94.49 60.65 94.04 62.22 93.02 63.2 93.47 63.73 93.02 65.34 92.29 66.21 92.63 66.81 92.17 68.04 93.42 68.74 91.95 72.25"/><circle class="cls-49" cx="94.12" cy="72.08" r=".27"/><circle class="cls-51" cx="97.15" cy="67.65" r=".27"/><circle class="cls-49" cx="95.25" cy="63.79" r=".27"/><path class="cls-49" d="M101.37,81.94c-.98.77-2.39.61-3.17-.37-.63-.79-.64-1.88-.09-2.67h0c.13-.18.28-.35.46-.49.98-.77,2.39-.61,3.17.37.11.14.2.29.28.45.43.93.19,2.06-.65,2.72Z"/><path class="cls-49" d="M102.02,79.22c-1.31.13-2.81-.82-3.9-.33.13-.18.28-.35.46-.49.98-.77,2.39-.61,3.17.37.11.14.2.29.28.45Z"/><path class="cls-4" d="M97.06,80.99c-2.05.47-4.08-.82-4.54-2.86-.11-.46-.13-.92-.06-1.36,2.1-.31,4.87-.02,7.52,0,.28,1.94-.97,3.79-2.91,4.23Z"/><path class="cls-4" d="M99.97,76.85c-2.65-.01-5.42-.3-7.52,0,.06-.42.19-.83.38-1.21.49-.97,1.4-1.72,2.54-1.97,1.47-.34,2.94.23,3.82,1.34.34.43.59.94.72,1.51.02.11.04.21.06.32Z"/><path class="cls-38" d="M93.82,75.12c-.15.24.08.5.31.33s1.34-.85,2.2-.86.37-.42-.14-.46c-.95-.08-1.78.04-2.37.99Z"/><path class="cls-35" d="M156.51,88.13s-.02,0-.03,0h0c-1.78,3.44-4.03,6.28-6.53,8.54-2.83,2.56-5.98,4.39-9.17,5.56-.09.04-.19.07-.28.09-5.51,1.6-23.67-3.77-28.78-6.45-.22-.12-.41-.23-.59-.34-.05-.03-.1-.07-.15-.09,0,0,0,0,0,0-.19-.12-.39-.23-.58-.35-.15-.09-.3-.18-.46-.28-.31-.2-.62-.39-.92-.58-.15-.09-.28-.18-.43-.28-9.25-5.95-15.52-12.33-16.41-16.81,20.01,10.62,54.47,11.7,64.32,10.99h.03Z"/><path class="cls-16" d="M146.2,50.05l2.55,2.3,3.29,3h0s0,0,0,0l3.29-3,2.55-2.3c.14-.13-1.31-.1-3.12,1.13l-2.73,2.04-2.73-2.04c-1.81-1.23-3.26-1.26-3.12-1.13Z"/><path class="cls-30" d="M174.19,48.02l-2.52-2.28-3.21-2.92h0s0,0,0,0l-3.21,2.92-2.52,2.28c-.14.13,3.76-.05,5.74-1.97,1.97,1.92,5.88,2.1,5.74,1.97Z"/><path class="cls-44" d="M175.75,38.35l1.61,1.46,2.03,1.85h.01s.01,0,.01,0l2.03-1.85,1.61-1.46c.09-.08-1.35-.47-3.66.75-2.31-1.22-3.75-.83-3.66-.75Z"/><path class="cls-40" d="M135.24,106.02c-.5-.13-1-.28-1.52-.42h.03c.5.15,1,.28,1.49.42Z"/><path class="cls-32" d="M100.12,388.82h-10.54c.05-5.97-.79-12.25-1.89-18.54-.87-4.89-1.89-9.81-2.96-14.74,2.61-2.59,5.29-5.26,8.05-8,.13.52.25,1.04.39,1.57,1.54,6.36,3.1,12.76,4.42,19.32,1.3,6.56,2.42,13.28,2.53,20.4Z"/><path class="cls-32" d="M154.45,101.35c-.41.83-.89,1.63-1.4,2.38-.33.5-.69.98-1.07,1.44,0,0-.01,0-.02.01-.01.03-.04.06-.07.09-.41.49-.84.96-1.29,1.41-.2.09-.41.17-.63.25-.22.07-.45.15-.69.21-.16.04-.33.08-.5.12-.68.15-1.43.24-2.25.28-.55.02-1.13.03-1.73,0-.06,0-.12,0-.18,0-1.14-.04-2.37-.16-3.68-.36-.23-.04-.44-.07-.67-.11-.23-.03-.47-.07-.7-.12-.92-.16-1.86-.36-2.84-.59-.49-.12-.98-.24-1.49-.37-.49-.14-.99-.28-1.49-.42h0s-.01,0-.02,0c-2.59-.75-5.34-1.7-8.18-2.85,0,0-.02,0-.03,0-2.53-1.03-5.14-2.21-7.78-3.54-2.1-1.06-4.11-2.16-6.02-3.3,5.1,2.68,23.26,8.05,28.78,6.45.09-.03.19-.06.28-.09,3.2-1.17,6.35-3.01,9.17-5.56,2.5-2.26,4.75-5.1,6.53-8.53h0c.67,4.55.06,9.09-2.02,13.2Z"/><path class="cls-14" d="M100.12,388.82h-10.54c.05-5.97-.79-12.25-1.89-18.54-.87-4.89-1.89-9.81-2.96-14.74-.31-1.43-.61-2.85-.92-4.28-1.55-7.06-3.09-14.18-4.5-21.36l7.9-6.45c1.68,8.02,3.6,16.03,5.57,24.09.13.52.25,1.04.39,1.57,1.54,6.36,3.1,12.76,4.42,19.32,1.3,6.56,2.42,13.28,2.53,20.4Z"/><path class="cls-14" d="M154.45,101.35c-.41.83-.89,1.63-1.4,2.38-.33.5-.69.98-1.07,1.44,0,0-.01,0-.02.01-.01.03-.04.06-.07.09-.41.49-.84.96-1.29,1.41-.2.09-.41.17-.63.25-.22.07-.45.15-.69.21-.16.04-.33.08-.5.12-.68.15-1.43.24-2.25.28-.55.02-1.13.03-1.73,0-.06,0-.12,0-.18,0-1.14-.04-2.37-.16-3.68-.36-.23-.04-.44-.07-.67-.11-.23-.03-.47-.07-.7-.12-.92-.16-1.86-.36-2.84-.59-.49-.12-.98-.24-1.49-.37-.49-.14-.99-.28-1.49-.42h0s-.01,0-.02,0c-2.59-.75-5.34-1.7-8.18-2.85,0,0-.02,0-.03,0-2.53-1.03-5.14-2.21-7.78-3.54-2.1-1.06-4.11-2.16-6.02-3.3,5.1,2.68,23.26,8.05,28.78,6.45.09-.03.19-.06.28-.09,3.2-1.17,6.35-3.01,9.17-5.56,2.5-2.26,4.75-5.1,6.53-8.53h0c.67,4.55.06,9.09-2.02,13.2Z"/></g><g id="Science_of_Typography"><path class="cls-37" d="M768.34,388.86h-151.17c-2.98,0-5.26-2.63-4.85-5.58h0c.34-2.41,2.41-4.21,4.85-4.21h3.56s9.07-.13,9.07-.13c6.03-.22,12.07-.49,18.04-1.12,3.01-.21,5.97-.66,8.93-1.07,2.98-.33,5.89-.97,8.82-1.49.73-.14,1.47-.26,2.19-.43l2.15-.52,4.31-1.05c1.41-.4,2.8-.86,4.2-1.29l2.11-.65c.69-.25,1.35-.52,2.03-.78,5.48-1.96,10.62-4.6,15.1-7.89,4.44-3.32,8.27-7.3,10.54-12.09l.74-1.56c.07-.16.14-.31.2-.48l.58-1.63c.25-.61.41-1.25.56-1.9.14-.65.36-1.28.45-1.95.5-2.62.61-5.34.48-8.07-.13-2.73-.63-5.49-1.34-8.18-.36-1.35-.79-2.68-1.27-3.99-.25-.65-.5-1.31-.78-1.93-.25-.61-.59-1.3-.8-1.73l-.19-.37-.06-.15c-5.46-14.38-11-28.71-16.39-43.11l-16.25-43.16c-5.45-14.38-10.76-28.81-16.12-43.21-4.27-11.46-8.53-22.92-12.75-34.4-.28-.76-.37-1.58-.25-2.38l1.02-7.24.22.13,146.06,195.75c14.74,19.76.64,47.87-24.01,47.87Z"/><path class="cls-37" d="M702.28,306.59c19.73,20.34,12.97,40.73,3.58,57.14-4.27,7.46-53.11,16.71-48.63,15.69,23.98-5.47,60.15-42.8,40.38-65.4-7.09-8.1-1.03-13.31,4.68-7.43Z"/><path class="cls-45" d="M719.69,344.67c-.12.85-.37,1.69-.55,2.54-.19.85-.4,1.7-.7,2.52l-.85,2.49-1.09,2.38c-2.96,6.37-7.84,11.59-13.2,15.59-5.39,4.01-11.32,7.01-17.37,9.23-.76.29-1.51.6-2.27.87l-2.29.72c-1.54.47-3.06.98-4.6,1.43l-4.63,1.16-2.32.57c-.78.18-1.55.31-2.33.47-3.11.58-6.21,1.25-9.33,1.62-3.12.44-6.24.92-9.36,1.16-6.24.68-12.48.98-18.71,1.24l-9.34.17-9.22.03-9.21-.02-9.35-.17-2.34-.05-2.35-.13-4.69-.28c-3.13-.13-6.25-.52-9.38-.82-12.48-1.38-25.03-3.77-37.03-8.6-5.98-2.41-11.84-5.38-17.19-9.31-5.35-3.9-10.12-8.83-13.73-14.58l-1.33-2.16-1.16-2.27-.57-1.13-.49-1.18-.96-2.35c-1.12-3.21-1.96-6.49-2.46-9.82-.46-3.34-.61-6.7-.44-10.05.07-1.68.25-3.34.49-5.01.13-.84.26-1.66.45-2.51.08-.41.17-.84.28-1.27.11-.44.21-.82.37-1.39l.05-.14.06-.15c5.68-14.28,11.3-28.59,17.06-42.85l17.19-42.8c5.7-14.28,11.55-28.5,17.32-42.75,5.73-14.14,11.49-28.28,17.31-42.38l.41-21.68.49-22.11.54-22.11.48-17.16.14-4.95.14,5.18.48,16.93.54,22.11.49,22.11.42,22.11v.35s-.13.4-.13.4c-5.28,14.45-10.64,28.85-16.01,43.27-5.37,14.4-10.68,28.84-16.12,43.21l-16.25,43.16c-5.37,14.33-10.87,28.6-16.31,42.9,0,.02-.02.06-.02.08-.05.19-.11.46-.16.68-.08.32-.15.65-.21.98-.14.66-.23,1.35-.34,2.03-.17,1.38-.31,2.76-.35,4.16-.1,2.79.06,5.58.48,8.33.45,2.73,1.17,5.4,2.11,7.99l.81,1.89.4.95.48.91.95,1.83,1.11,1.74c2.98,4.63,6.96,8.62,11.53,11.94,4.58,3.33,9.77,5.94,15.17,8.1,10.84,4.32,22.65,6.56,34.55,7.81,2.98.27,5.96.64,8.97.74l4.51.25,2.26.12,2.26.04,9.07.13,9.21-.02h9.2l9.07-.13c6.03-.22,12.07-.49,18.04-1.12,3.01-.21,5.97-.66,8.93-1.07,2.98-.33,5.89-.97,8.82-1.49.73-.14,1.47-.26,2.19-.43l2.15-.52,4.31-1.05c1.41-.4,2.8-.86,4.2-1.29l2.11-.65c.69-.25,1.35-.52,2.03-.78,5.48-1.96,10.62-4.6,15.1-7.89,4.44-3.32,8.27-7.3,10.54-12.09l.85-1.79.66-1.88c.25-.61.41-1.25.56-1.9.14-.65.36-1.28.45-1.95.5-2.62.61-5.34.48-8.07-.13-2.73-.63-5.49-1.34-8.18-.36-1.35-.79-2.68-1.27-3.99-.25-.65-.5-1.31-.78-1.93-.25-.61-.59-1.3-.8-1.73l-.19-.37-.06-.15c-5.46-14.38-11-28.71-16.39-43.11l-16.25-43.16c-5.45-14.38-10.76-28.81-16.12-43.21-4.41-11.84-8.82-23.69-13.17-35.56-.95-2.56-1.89-5.13-2.83-7.7l-.15-.41v-.35s.44-22.11.44-22.11l.49-22.11.54-22.11.41-14.48.21-7.63.21,7.39.42,14.72.54,22.11.49,22.11.42,21.68c.08.18.15.37.23.55,5.75,13.92,11.42,27.87,17.08,41.82,5.78,14.25,11.62,28.47,17.32,42.75l17.19,42.79c5.73,14.19,11.31,28.45,16.97,42.67,0,0,0,0,0,0,.4.76.7,1.39,1.01,2.08.35.78.66,1.55.97,2.34.6,1.56,1.13,3.15,1.58,4.76.9,3.22,1.54,6.54,1.76,9.94.22,3.39.13,6.85-.48,10.27Z"/><path class="cls-8" d="M609.54,35.76c7.45-1.3,15.15-1.47,22.88-.28,3.86.64,7.75,1.59,11.61,3.41,1.93.93,3.87,2.08,5.7,3.85.91.87,1.79,1.97,2.51,3.3.72,1.33,1.21,2.97,1.27,4.67.05,1.71-.34,3.4-.96,4.82-.62,1.42-1.44,2.64-2.3,3.63-1.74,2.01-3.65,3.38-5.53,4.58-3.79,2.33-7.69,3.76-11.58,4.92-7.81,2.24-15.71,3.08-23.59,3.13-3.94-.03-7.88-.25-11.83-.73-3.93-.53-7.87-1.26-11.77-2.39-3.89-1.17-7.79-2.59-11.59-4.92-1.89-1.2-3.8-2.57-5.54-4.58-.86-.99-1.68-2.21-2.3-3.63-.62-1.42-1.02-3.12-.96-4.82.06-1.71.55-3.35,1.27-4.68.72-1.33,1.59-2.44,2.51-3.31,1.84-1.77,3.77-2.92,5.71-3.86,3.87-1.82,7.75-2.77,11.62-3.41,7.73-1.19,15.43-1.02,22.89.29-7.43,1.35-14.67,2.98-21.36,5.53-3.32,1.26-6.53,2.77-9.17,4.59-1.28.92-2.45,1.92-3.15,2.88-.74.98-.78,1.71-.68,1.97.12.26.36.75,1.19,1.49.79.72,1.99,1.5,3.31,2.16,2.71,1.3,5.9,2.35,9.2,3.08,3.31.74,6.72,1.3,10.19,1.61,3.46.36,6.96.52,10.46.51,3.51.02,7.01-.15,10.47-.5,3.47-.31,6.88-.87,10.19-1.6,3.3-.73,6.49-1.77,9.21-3.08,1.33-.66,2.52-1.44,3.32-2.16.83-.75,1.08-1.24,1.2-1.51.04-.16.06-.36-.02-.71-.1-.34-.29-.79-.66-1.27-.7-.96-1.87-1.96-3.15-2.88-2.64-1.82-5.85-3.34-9.18-4.59-6.7-2.54-13.94-4.17-21.36-5.51Z"/><polygon class="cls-20" points="606.97 210.99 598.84 210.99 600.87 195.9 602.91 180.8 603.43 184.72 604.94 195.9 606.97 210.99"/><polygon class="cls-49" points="626.89 203.33 618.59 203.33 620.66 189.84 622.74 176.35 623.28 179.85 624.82 189.84 626.89 203.33"/><polygon class="cls-49" points="637.12 206.82 628.81 206.82 630.88 193.33 632.96 179.84 633.5 183.34 635.04 193.33 637.12 206.82"/><polygon class="cls-4" points="614.69 209.58 602.42 209.58 605.49 194.24 608.55 178.89 609.32 182.76 611.62 194.24 614.69 209.58"/><polygon class="cls-20" points="634.06 208.6 621.79 208.6 624.86 193.25 627.92 177.91 628.69 181.78 630.99 193.25 634.06 208.6"/><path class="cls-46" d="M698.26,341.74c-.13,1.12-.4,2.21-.79,3.22-.06.16-.13.31-.19.46,0,0,0,.02,0,.02-.61,1.1-2.01,3.17-4.46,5.17-.22.18-.46.36-.71.55-.29.21-.59.43-.89.63-2.81,1.94-6.17,3.62-9.96,4.97-.09.04-.18.08-.29.1-.4.16-.82.32-1.23.48-.11.05-.22.09-.33.13,0,0-2.79.86-3.35,1.04-.71.22-1.42.44-2.14.66l-6.26,1.53c-.25.05-.53.1-.78.13l-.7.13c-.76.14-1.52.28-2.28.42-2.09.41-4.07.78-5.75.97-.17.02-.36.05-.53.07l-1.7.24c-2.37.33-4.62.64-6.63.79-.21.02-.43.04-.64.05-5.76.61-11.73.86-17.84,1.08l-9.41.14h-9.78l-9.83.03-9.62-.13-1.99-.04s-7.16-.38-7.27-.38c-1.71-.06-3.66-.26-5.72-.47-.89-.09-1.79-.17-2.68-.26-12.79-1.36-23.15-3.67-31.6-7.04-4.8-1.92-8.67-3.95-11.78-6.22-3.1-2.25-5.5-4.69-7.16-7.27l-.65-1.02-.75-1.45-.76-1.74c-.49-1.44-.86-2.87-1.09-4.26-.24-1.61-.34-3.29-.28-4.95,0-.06.02-.13.02-.19,0-.62.1-1.44.18-2.17,0,0,.13-.75.15-.92,1.41-3.69,2.82-7.37,4.22-11.06,2.72-7.11,5.5-14.38,8.26-21.66,1.55-4.09,3.1-8.19,4.63-12.28l12.74-33.85,2.14-5.68c22.3-30.39,60.3-69.13,94.32-40.43.13.33.25.67.37,1.01,3.95,10.62,8.03,21.61,12.13,32.44l17.53,46.56c.02,11.87,7.65,20.24,11.42,30.11,2.11,5.49,4.21,10.99,6.3,16.48l.09.26c.25.64,3.28,9.68,3.35,10.96v.03c.05.97.04,1.82-.02,2.57Z"/><polygon class="cls-20" points="578.31 222.14 567.43 223.81 570.15 206.16 572.87 188.5 573.53 192.78 575.59 206.16 578.31 222.14"/><polygon class="cls-49" points="624.18 254.38 616.43 255.57 618.37 242.98 620.31 230.39 620.78 233.45 622.25 242.98 624.18 254.38"/><polygon class="cls-49" points="648.96 254.46 642.63 254.46 644.21 244.19 645.8 233.92 646.21 236.59 647.38 244.19 648.96 254.46"/><polygon class="cls-20" points="676.04 282.28 667.91 282.28 669.94 267.19 671.97 252.09 672.5 256.01 674.01 267.19 676.04 282.28"/><polygon class="cls-20" points="592.38 217.31 583.51 217.31 585.73 202.91 587.95 188.5 588.52 192.24 590.17 202.91 592.38 217.31"/><polygon class="cls-49" points="681.29 289.17 672.99 289.17 675.06 275.68 677.14 262.19 677.68 265.69 679.22 275.68 681.29 289.17"/><polygon class="cls-4" points="600.1 216.45 601.99 226.11 594.94 226.24 594.09 226.25 595.98 216.59 594.09 215.75 598.21 198.41 598.66 200.43 601.99 215.61 600.1 216.45"/><polygon class="cls-7" points="595.16 215.15 597.05 215.99 595.16 222.63 594.94 223.22 594.09 223.24 595.98 216.59 594.09 215.75 598.21 198.41 598.66 200.43 595.16 215.15"/><polygon class="cls-4" points="586.76 215.64 574.49 215.64 577.56 200.29 580.62 184.95 581.39 188.82 583.69 200.29 586.76 215.64"/><path class="cls-9" d="M685.08,310.6l-114.45,23.79-40.55-33.4c.9-2.37,1.8-4.74,2.71-7.12,1.55-4.09,3.1-8.19,4.63-12.28l12.74-33.85,4.79-12.71c3.02-7.98,6.05-16.08,9.01-24.06,14.31-3.21,27.33-.21,34.82,12.73,21.82,37.64,86.3,86.89,86.3,86.89Z"/><path class="cls-2" d="M698.39,341.61c-.13,1.12-.4,2.21-.79,3.22-.06.16-.13.31-.19.46,0,0,0,.02,0,.02-.61,1.1-2.01,3.17-4.46,5.17-.22.18-.46.36-.71.55-.29.21-.59.43-.89.63-2.81,1.94-6.17,3.62-9.96,4.97-.09.04-.18.08-.29.1-.4.16-.82.32-1.23.48-.11.05-.22.09-.33.13,0,0-2.79.86-3.35,1.04-.71.22-1.42.44-2.14.66l-6.26,1.53c-.25.05-.53.1-.78.13l-.7.13c-.76.14-1.52.28-2.28.42-2.09.41-4.07.78-5.75.97-.17.02-.36.05-.53.07l-1.7.24c-2.37.33-4.62.64-6.63.79-.21.02-.43.04-.64.05-5.76.61-11.73.86-17.84,1.08l-9.41.14h-9.78l-9.83.03-9.62-.13-1.99-.04s-7.16-.38-7.27-.38c-1.71-.06-3.66-.26-5.72-.47-.89-.09-1.79-.17-2.68-.26-12.79-1.36-23.15-3.67-31.6-7.04-4.73-1.88-8.54-3.88-11.62-6.1,44.4-61.96,103.16-167.19,155.92-42.46.45,1.19.9,2.37,1.35,3.55,2.11,5.49,4.21,10.99,6.3,16.48l.09.26c.12.3.24.6.37.9,0,.02.02.03.02.06.91,2.62,1.83,5.32,2.74,8.1.11.68.18,1.31.21,1.9v.03c.05.97.04,1.82-.02,2.57Z"/><polygon class="cls-20" points="633.84 311.79 619.34 314.02 622.97 290.48 626.59 266.94 627.47 272.64 630.22 290.48 633.84 311.79"/><polygon class="cls-20" points="652.61 316.26 640.78 316.26 643.73 297.06 646.69 277.85 647.46 282.84 649.65 297.06 652.61 316.26"/><circle class="cls-4" cx="636.81" cy="272.66" r=".88"/><circle class="cls-53" cx="670.73" cy="288.91" r=".88"/><circle class="cls-53" cx="657" cy="292.32" r=".88"/><circle class="cls-53" cx="678.02" cy="308.17" r=".88"/><circle class="cls-53" cx="665.82" cy="300.83" r=".88"/><circle class="cls-53" cx="664.94" cy="319.58" r=".88"/><circle class="cls-4" cx="657" cy="269.08" r=".88"/><circle class="cls-4" cx="614.37" cy="271.54" r=".88"/><circle class="cls-4" cx="643.51" cy="257.82" r=".88"/><circle class="cls-4" cx="620.96" cy="258.17" r=".88"/><polygon class="cls-17" points="644.29 315.66 627.92 315.66 632.02 295.2 636.1 274.73 637.13 279.9 640.19 295.2 644.29 315.66"/><path class="cls-49" d="M597.91,274.57c-2.22,1.76-5.44,1.38-7.2-.84-1.43-1.8-1.45-4.27-.21-6.08h0c.28-.41.63-.79,1.05-1.12,2.22-1.76,5.44-1.38,7.2.83.26.32.47.67.63,1.02.98,2.1.43,4.68-1.47,6.18Z"/><path class="cls-49" d="M599.38,268.39c-2.99.29-6.4-1.85-8.88-.74.28-.41.63-.79,1.05-1.12,2.22-1.76,5.44-1.38,7.2.83.26.32.47.67.63,1.02Z"/><path class="cls-4" d="M588.11,272.43c-4.65,1.07-9.28-1.85-10.33-6.5-.25-1.05-.29-2.09-.14-3.1,4.78-.7,11.07-.05,17.1-.02.63,4.4-2.21,8.62-6.63,9.62Z"/><path class="cls-4" d="M594.72,263.01c-6.03-.03-12.32-.68-17.1.02.13-.96.43-1.9.87-2.74,1.12-2.2,3.17-3.9,5.77-4.49,3.34-.77,6.68.53,8.69,3.05.77.98,1.34,2.14,1.64,3.44.06.24.1.48.13.72Z"/><path class="cls-27" d="M580.73,259.07c-.34.55.18,1.13.7.75s3.05-1.94,5.01-1.96c1.96-.02.83-.95-.32-1.05-2.15-.18-4.05.1-5.39,2.26Z"/><polygon class="cls-20" points="565.67 253.55 563.89 239.5 565.67 239.16 561.78 224.01 558.22 238.96 560 239.3 558.22 253.34 565.67 253.55"/><path class="cls-49" d="M564.74,238.6l-1.78.34,1.26,9.91c.31,0,.6-.01.86-.01l-1.19-9.34,1.78-.34-2.83-10.98-.37,1.64,2.26,8.78Z"/><polygon class="cls-16" points="561.78 224.01 558.22 238.96 559.36 239.21 562.23 225.63 561.78 224.01"/><polygon class="cls-17" points="576.66 254.15 579.44 263.96 569.03 264.14 567.78 264.17 570.57 254.36 567.78 253.12 573.87 227.51 574.53 230.5 579.44 252.91 576.66 254.15"/><polygon class="cls-57" points="569.36 252.23 572.15 253.47 569.36 263.28 569.03 264.14 567.78 264.17 570.57 254.36 567.78 253.12 573.87 227.51 574.53 230.5 569.36 252.23"/><path class="cls-39" d="M697.6,344.83c-.06.16-.13.31-.19.46,0,0,0,.02,0,.02-.61,1.1-2.01,3.17-4.46,5.17-.22.18-.46.36-.71.55-.29.21-.59.43-.89.63-2.81,1.94-6.17,3.62-9.96,4.97-.09.04-.18.08-.29.1-.4.16-.82.32-1.23.48-.11.05-.22.09-.33.13,0,0-2.79.86-3.35,1.04-.71.22-1.42.44-2.14.66l-6.26,1.53c-.25.05-.53.1-.78.13l-.7.13c-.76.14-1.52.28-2.28.42-2.09.41-4.07.78-5.75.97-.17.02-.36.05-.53.07l-1.7.24c-2.37.33-4.62.64-6.63.79-.21.02-.43.04-.64.05-5.76.61-11.73.86-17.84,1.08l-9.41.14h-9.78l-9.83.03-9.62-.13-1.99-.04s-7.16-.38-7.27-.38c-1.71-.06-3.66-.26-5.72-.47-.89-.09-1.79-.17-2.68-.26-12.79-1.36-23.15-3.67-31.6-7.04-4.8-1.92-8.67-3.95-11.78-6.22-3.1-2.25-5.5-4.69-7.16-7.27l-.65-1.02-.75-1.45-.76-1.74c-.49-1.44-.86-2.87-1.09-4.26-.24-1.61-.34-3.29-.28-4.95,0-.06.02-.13.02-.19,0-.62.1-1.44.18-2.17,0,0,.13-.75.15-.92,1.41-3.69,2.82-7.37,4.22-11.06,2.72-7.11,5.5-14.38,8.26-21.66,1.55-4.09,3.1-8.19,4.63-12.28l12.74-33.85c56.09,21.57,73.94,56.08,124.3,85.74.78.47,1.58.93,2.38,1.39,6.19,3.55,12.86,7.04,20.15,10.41Z"/><rect class="cls-49" x="632.97" y="333.35" width="1.43" height="12.26" rx=".72" ry=".72" transform="translate(399.46 -340.18) rotate(42.81)"/><rect class="cls-49" x="634.14" y="333.55" width="1.43" height="12.26" rx=".72" ry=".72" transform="translate(-84.56 310.23) rotate(-25.81)"/><rect class="cls-49" x="606.87" y="329.94" width="1.43" height="12.26" rx=".72" ry=".72" transform="translate(390.19 -323.35) rotate(42.81)"/><rect class="cls-49" x="606.33" y="329.95" width="1.43" height="12.26" rx=".72" ry=".72" transform="translate(-85.76 297.77) rotate(-25.81)"/><rect class="cls-49" x="595.24" y="297.4" width="2.54" height="38.7"/><polygon class="cls-1" points="606.07 321.66 601.56 309.87 604.77 307.98 600.91 298.68 603 297.38 601.07 295.58 596.88 280.8 595.1 287 593.82 291.49 590.92 294.29 592.21 295.78 590.92 300.38 588.83 302.88 589.79 304.57 588.51 308.07 592.05 310.07 587.87 320.09 587.21 321.66 606.07 321.66"/><polygon class="cls-32" points="597.78 327.08 597.78 336.42 595.24 336.42 595.24 325.01 597.78 327.08"/><polygon class="cls-51" points="587.87 320.09 590.15 318.75 593.67 310.32 590.12 308.32 591.41 304.83 590.44 303.13 592.54 300.64 593.83 296.04 592.54 294.54 595.44 291.74 595.94 289.98 595.1 287 593.82 291.49 590.92 294.29 592.21 295.78 590.92 300.38 588.83 302.88 589.79 304.57 588.51 308.07 592.05 310.07 587.87 320.09"/><circle class="cls-49" cx="594.06" cy="319.58" r=".76"/><circle class="cls-51" cx="602.7" cy="306.97" r=".76"/><circle class="cls-49" cx="597.28" cy="295.96" r=".76"/><rect class="cls-49" x="606.87" y="329.56" width="1.43" height="12.26" rx=".72" ry=".72" transform="translate(51.29 -79.5) rotate(7.82)"/><rect class="cls-49" x="682.43" y="291.66" width="1.91" height="49.85"/><polygon class="cls-20" points="682.43 325.8 682.43 341.52 684.34 341.52 684.34 329.59 682.43 325.8"/><path class="cls-49" d="M675.56,307.09l4.57-3.96,1.57-1.35,1.68-1.46,7.82,6.77-3.92-9.51-2.11-5.15-1.26-3.08c-.08-.19-.2-.33-.34-.38-.26-.12-.56,0-.72.38l-3.37,8.24-3.93,9.51Z"/><path class="cls-20" d="M671.61,330.8l7.87-7.07,3.91-3.52,11.78,10.59-5.9-11.21-4.77-9.13c-.49-.93-1.71-.93-2.2,0l-.41.79-4.36,8.34-5.91,11.21Z"/><path class="cls-49" d="M679.47,323.79l3.91-3.57,11.78,10.59-5.9-11.21-4.77-9.13c-.49-.93-1.71-.93-2.2,0l-.41.79c-2.21,7.92-.03,6.53-2.4,12.49,0,.03,0,.05,0,.05Z"/><path class="cls-20" d="M675.56,307.09l4.57-3.96,1.57-1.35c.58-3.93,1.42-9.54,1.88-12.82-.26-.12-.56,0-.72.38l-3.37,8.24-3.93,9.51Z"/><circle class="cls-20" cx="685.98" cy="317.92" r=".75"/><circle class="cls-20" cx="684.53" cy="296.94" r=".54"/><path class="cls-49" d="M698.49,341.01c0,.38-.02.76-.06,1.12-.1.89-.31,1.74-.62,2.54-.05.12-.1.24-.15.36,0,0,0,.01,0,.01-.48.87-1.59,2.5-3.52,4.08-.17.14-.36.29-.56.44-.23.17-.47.34-.71.5-1.34.66-2.86,1.04-4.46,1.04-5.49,0-9.94-4.37-10.1-9.81v-.04h0c6.04-3.27,13.36-4.85,16.62-7.93,1.96,1.66,3.28,4.06,3.52,6.77v.02c.03.3.04.6.04.91Z"/><path class="cls-20" d="M678.29,341.01c0,.08,0,.16,0,.24,3.64-7.87,9.59-6.4,13.93-9.59-.01,0-.03,0-.05-.02-.96-.39-1.99-.63-3.07-.71-.24-.02-.48-.03-.72-.03-5.4,0-9.82,4.24-10.09,9.58,0,.17-.01.35-.01.52Z"/><path class="cls-20" d="M694.92,333.31c-3.26,3.08-10.58,4.67-16.62,7.92,0-.08,0-.15,0-.22,0-.17,0-.35.01-.52,0-.14.02-.27.03-.4.01-.09.02-.17.03-.27.02-.19.04-.39.08-.57.03-.18.07-.36.11-.54,0-.01,0-.02.01-.03.01-.07.03-.14.05-.21.07-.29.16-.57.26-.86.04-.11.07-.21.12-.32.03-.06.05-.12.08-.19.08-.19.17-.39.26-.57.2-.4.42-.79.67-1.16.11-.17.23-.33.36-.49.24-.32.51-.62.79-.92.12-.12.25-.25.38-.37.16-.15.32-.29.49-.42.16-.12.31-.24.47-.36.17-.12.35-.24.53-.36.02-.01.04-.03.06-.03.12-.08.25-.16.38-.22.08-.05.16-.09.24-.13.16-.09.33-.17.51-.24.2-.09.41-.17.61-.26.11-.04.22-.09.34-.12.36-.12.73-.22,1.11-.3.09-.02.19-.04.29-.06.11-.03.22-.04.33-.06.16-.02.33-.05.49-.06.15-.02.3-.03.45-.03.18-.01.37-.02.55-.02.24,0,.48,0,.72.02,1.09.08,2.11.32,3.07.71.02.01.04.02.05.02.99.41,1.89.96,2.69,1.65Z"/><rect class="cls-49" x="544.19" y="274.25" width="2.21" height="36.13"/><polygon class="cls-20" points="544.19 300.83 544.19 308.97 546.4 308.97 546.4 302.44 544.19 300.83"/><path class="cls-32" d="M538.6,283.55l6.7-4.13,3.93,2.42,2.77,1.7-3.36-7.27-2.72-5.92c-.09-.19-.21-.32-.35-.39-.31-.16-.71-.03-.9.39l-2.72,5.92-3.36,7.27Z"/><path class="cls-20" d="M538.01,293.82l6.86-2.46.42-.15,7.28,2.6-3.65-6.3-2.91-5.06c-.32-.56-1.12-.56-1.44,0l-.23.4-2.68,4.66-3.65,6.3Z"/><path class="cls-20" d="M540.71,300.91l4.54-1.63h.04s4.59,1.63,4.59,1.63l-2.3-3.97-1.83-3.19c-.2-.35-.71-.35-.91,0l-.62,1.07-1.22,2.12-2.3,3.97Z"/><path class="cls-49" d="M543.05,288.47c-.11,1.06.86,2.12,1.82,2.89l.42-.15,7.28,2.6-3.65-6.3-2.91-5.06c-.32-.56-1.12-.56-1.44,0l-.23.4c.08.09.15.19.23.29.75,1.07-1.31,3.24-1.52,5.32Z"/><path class="cls-49" d="M549.23,281.85l2.77,1.7-3.36-7.27-2.72-5.92c-.09-.19-.21-.32-.35-.39-.13.23-.23.49-.27.79-.25,1.59,1.79,7.05,3.93,11.08Z"/><circle class="cls-20" cx="545.46" cy="286.49" r=".4"/><circle class="cls-49" cx="544.23" cy="277.24" r=".4"/><circle class="cls-20" cx="548.45" cy="290.88" r=".4"/><circle class="cls-20" cx="545.8" cy="297.06" r=".35"/><path class="cls-49" d="M549.98,317.92c0,.09,0,.19.01.28.2,6.47,5.53,11.64,12.03,11.59s11.92-5.43,11.88-12.04c-.03-4.99-3.13-9.26-7.49-11.01-.02,0-.04,0-.06-.02-1.13-.45-2.36-.73-3.64-.81-.29-.02-.57-.03-.86-.03-6.4.04-11.59,5.11-11.87,11.43,0,.21-.01.41-.01.62Z"/><path class="cls-20" d="M549.98,317.92c0,.09,0,.19.01.28,4.25-9.35,11.3-7.66,16.42-11.47-.02,0-.04,0-.06-.02-1.13-.45-2.36-.73-3.64-.81-.29-.02-.57-.03-.86-.03-6.4.04-11.59,5.11-11.87,11.43,0,.21-.01.41-.01.62Z"/><path class="cls-49" d="M553.41,315.06c-1.96,1.89-5.07,1.84-6.97-.12-.87-.89-1.33-2.04-1.38-3.19,2.71-1.05,5.28-2.53,7.79-4.23.24.17.46.36.66.57,1.89,1.96,1.84,5.07-.11,6.97Z"/><path class="cls-20" d="M552.85,307.52c-2.51,1.69-5.08,3.17-7.79,4.23-.06-1.36.44-2.75,1.5-3.78,1.74-1.69,4.39-1.83,6.29-.45Z"/><path class="cls-56" d="M697.6,344.83c-.06.16-.13.31-.19.46,0,0,0,.02,0,.02-.61,1.1-2.01,3.17-4.46,5.17-.22.18-.46.36-.71.55-.29.21-.59.43-.89.63-2.81,1.94-6.17,3.62-9.96,4.97-.09.04-.18.08-.29.1-.4.16-.82.32-1.23.48-.11.05-.22.09-.33.13,0,0-2.79.86-3.35,1.04-.71.22-1.42.44-2.14.66l-6.26,1.53c-.25.05-.53.1-.78.13l-.7.13c-.76.14-1.52.28-2.28.42-2.09.41-4.07.78-5.75.97-.17.02-.36.05-.53.07l-1.7.24c-2.37.33-4.62.64-6.63.79-.21.02-.43.04-.64.05-5.76.61-11.73.86-17.84,1.08l-9.41.14h-9.78l-9.83.03-9.62-.13-1.99-.04s-7.16-.38-7.27-.38c-1.71-.06-3.66-.26-5.72-.47-.89-.09-1.79-.17-2.68-.26-12.79-1.36-23.15-3.67-31.6-7.04-4.8-1.92-8.67-3.95-11.78-6.22-3.1-2.25-5.5-4.69-7.16-7.27l-.65-1.02-.75-1.45-.76-1.74c-.49-1.44-.86-2.87-1.09-4.26-.24-1.61-.34-3.29-.28-4.95,0-.06.02-.13.02-.19,0-.62.1-1.44.18-2.17,0,0,.13-.75.15-.92,1.41-3.69,2.82-7.37,4.22-11.06,2.72-7.11,5.5-14.38,8.26-21.66,3.25,4.1,6.58,8.32,9.94,12.63,24.79,31.72,90.97,31.42,129.56,34.5,11.03.88,19.81,2.03,24.71,4.29Z"/><path class="cls-36" d="M640.78,245.17c0,.2-.06.4-.18.55-.14.2-.36.32-.59.35-.02.02-.06.02-.08.02h-4.96l-.63-.47-3.53-2.64-3.78,2.83-.4.3c-.2.14-.44.21-.69.17-.02,0-.06,0-.08-.02-.21-.05-.4-.17-.52-.34-.31-.4-.22-.99.18-1.29l5.34-3.99h4.5l5.07,3.78c.2.14.32.36.36.6,0,.05,0,.1,0,.13Z"/><path class="cls-49" d="M635.04,244.5l-2.68-1.89c-.15-.11,0-.32.15-.22l2.68,1.89c.19.13.04.35-.15.22Z"/><path class="cls-49" d="M639.26,244.45h-3.01c-.2,0-.2-.26,0-.26h3.01c.17,0,.17.26,0,.26Z"/><path class="cls-42" d="M634.14,239.66c-1.85-23.45,13.26-47.14-9.5-54.53,0,0,5.69-7.74,14.2-4.34,23.44,9.36,4.16,41.51-4.7,58.87Z"/><rect class="cls-49" x="633.27" y="238.78" width="1.75" height="2.73"/><polygon class="cls-49" points="635.5 246.09 635.5 250.16 634.34 250.16 634.34 245.62 634.96 246.09 635.5 246.09"/><rect class="cls-32" x="635.5" y="246.09" width="3.34" height="4.08"/><path class="cls-49" d="M640,246.07v4.09h-1.16v-4.08h1.08s.06,0,.08-.02Z"/><path class="cls-49" d="M627.02,245.82v4.35h-1.17v-3.89s.06.02.08.02c.25.03.49-.03.69-.17l.4-.3Z"/><polygon class="cls-32" points="634.34 245.62 634.34 250.16 627.02 250.16 627.02 245.82 630.81 242.98 634.34 245.62"/><rect class="cls-49" x="625.85" y="250.01" width="14.15" height=".43"/><rect class="cls-49" x="628.89" y="245.21" width="3.84" height="3.84"/><circle class="cls-20" cx="692.23" cy="339.68" r="1.07"/><path class="cls-21" d="M579.21,359.16c-21.01-1.64-37.76-7.27-50.29-23.06-5.34-6.73,2.39-8.74,5.48-5.34,15.48,17.03,19.33,21.79,44.07,20.95,10.76-.36,8.9,8.09.73,7.45Z"/></g><g id="Gradient"><path class="cls-15" d="M1259.81,236.06v152.3h-84.93l-.05-.1-90.4-165.62-4.4-6.41s3.49-4.16,5.43-4.69c.61-.17,1.48-.24,2.37-.24l1.37-4.57s24.39,1.79,45.78-10.75c21.39-12.53,43.68-39.55,47.55-47.11,3.87-7.56,7.16-4.41,7.16-4.41l70.13,91.59Z"/><path class="cls-32" d="M1189.95,144.11c-.38.97-.78,1.92-1.19,2.87-.12.29-.25.57-.37.86-.51,1.17-1.05,2.33-1.61,3.49-.2.42-.4.83-.61,1.24-.26.52-.52,1.03-.78,1.54-.22.42-.44.84-.66,1.27-.35.66-.71,1.32-1.07,1.96-.35.63-.71,1.25-1.07,1.86,0,.02-.02.05-.04.08-.22.37-.43.74-.66,1.1-.85,1.41-1.73,2.81-2.64,4.17-10.15,15.49-24.22,28.46-40.51,37.59-1.19.66-2.39,1.3-3.61,1.91-.13.07-.26.14-.39.2-1.82.92-3.67,1.8-5.54,2.62-.44.19-.87.38-1.32.57-.02.01-.04.02-.05.02-.36.15-.72.3-1.07.45-.54.23-1.09.45-1.63.66-.62.25-1.23.48-1.85.72-3.43,1.3-6.93,2.44-10.46,3.43-1.12.36-2.27.59-3.4.87l-3.42.8-3.46.63c-1.15.2-2.3.46-3.46.58l-3.48.46c-.58.07-1.16.16-1.74.22l-1.75.14-3.5.27c-1.17.11-2.34.09-3.5.14-.17,0-.34,0-.51.01l.13,5.44-5.69-5.45-16.06-15.36c7.17,1.22,14.47,1.71,21.76,1.5,1.98-.04,3.96-.14,5.93-.3.44-.04.88-.07,1.33-.11,1.35-.12,2.7-.27,4.04-.45.42-.05.83-.11,1.25-.17.3-.04.59-.08.88-.13.35-.05.69-.11,1.04-.16.48-.07.96-.16,1.44-.24.48-.08.95-.17,1.43-.26.88-.16,1.77-.34,2.65-.53.07-.01.13-.03.2-.04.95-.21,1.89-.43,2.83-.66.33-.08.66-.16.99-.25,3.96-1.01,7.87-2.24,11.7-3.68.51-.19,1.01-.38,1.51-.59.51-.19,1.03-.4,1.54-.62.51-.21,1.03-.42,1.53-.64.51-.22,1.02-.43,1.53-.66.5-.22,1.01-.45,1.51-.69.51-.23,1.01-.46,1.5-.71,1-.48,1.99-.98,2.97-1.48,7.38-3.84,14.3-8.59,20.69-13.97.82-.65,1.57-1.38,2.35-2.08l2.32-2.11,2.21-2.23c.74-.74,1.5-1.47,2.19-2.26,1.41-1.54,2.87-3.06,4.17-4.71.67-.81,1.35-1.6,2.01-2.43l1.9-2.52c.64-.84,1.28-1.68,1.85-2.56l1.8-2.6c.62-.85,1.13-1.77,1.7-2.66.55-.9,1.13-1.79,1.66-2.7,1.95-3.44,3.82-6.94,5.44-10.57l7.16,6.86Z"/><path class="cls-11" d="M1158.06,142.02c-.17.3-.34.58-.52.87-.36.57-.71,1.15-1.08,1.71-.02.03-.04.05-.05.08-.26.4-.52.81-.79,1.21-.03.04-.05.07-.08.11-.31.47-.63.94-.96,1.39-.3.42-.59.83-.88,1.23-.08.13-.17.24-.26.36-.29.39-.57.78-.86,1.16-.02.03-.05.06-.07.09-.05.06-.09.11-.14.17-.15.21-.31.4-.46.6-.15.2-.31.4-.46.6-.72.92-1.47,1.82-2.23,2.7-.38.44-.77.88-1.15,1.32-.39.43-.78.87-1.18,1.29-.39.43-.8.84-1.2,1.27-.4.42-.81.83-1.22,1.24l-.21.21c-.34.34-.69.68-1.04,1.01-.42.4-.85.8-1.28,1.19-.4.37-.81.75-1.23,1.12-.04.04-.08.07-.13.11-.39.35-.79.7-1.19,1.03,0,0-.02.01-.02.02-.05.04-.1.09-.15.13-.41.35-.82.69-1.24,1.03-.9.74-1.82,1.46-2.75,2.16-.15.12-.3.23-.46.34-.07.05-.13.1-.2.14-.05.04-.11.08-.18.13l-.18.13c-.18.14-.37.28-.55.41-.19.14-.37.27-.57.4-.4.3-.81.58-1.22.86-.11.08-.23.16-.34.23-.04.02-.07.05-.11.07-.16.11-.32.22-.48.32-.03.02-.05.04-.08.06-.22.14-.45.3-.68.44-.29.19-.57.38-.86.56-.05.04-.11.07-.17.1,0,0-.01,0-.02.01-.28.19-.56.36-.84.52-.04.02-.07.05-.1.07-.01,0-.02.01-.03.02-.22.13-.43.27-.66.4-.2.12-.4.24-.6.36-.14.08-.28.17-.43.25-.05.03-.1.05-.14.08-.19.11-.37.22-.57.33-.09.05-.17.1-.26.14-.04.02-.08.05-.11.07-.14.08-.3.17-.45.25-.13.08-.27.16-.41.23-.16.09-.32.17-.48.27-.13.07-.26.14-.39.21-.02,0-.03.02-.05.02-.07.04-.14.08-.21.11-.17.1-.36.19-.53.28-.33.17-.66.35-.99.52-1.06.54-2.14,1.06-3.23,1.55-.28.13-.56.25-.84.37-.06.03-.13.06-.19.08-.07.03-.13.06-.19.09-.06.03-.13.06-.19.08-.05.02-.09.04-.13.06-.02,0-.04.01-.06.02-.11.05-.21.09-.32.13-.38.16-.77.33-1.16.49-.12.05-.24.11-.37.15-.39.16-.8.33-1.19.48-.32.13-.64.25-.97.37-.1.04-.2.08-.3.11-.22.08-.43.16-.66.24-.45.17-.91.33-1.38.49-.13.05-.27.1-.41.14-.39.13-.78.27-1.17.39-.16.05-.31.1-.47.15-.07.02-.13.04-.19.06-.03.01-.07.02-.1.03-.01,0-.03.01-.04.01-.1.04-.19.07-.29.1-.21.07-.42.13-.63.19l-.42.13c-.13.04-.27.08-.4.12-.12.04-.24.07-.37.1-.05.02-.11.03-.17.05-.11.03-.22.06-.33.09-.02,0-.04.01-.06.02-.15.04-.3.08-.46.13-.31.08-.63.17-.94.25-.09.02-.19.05-.28.07-.15.04-.31.08-.46.12-.08.02-.17.04-.25.06-.49.13-1,.25-1.5.36-.1.02-.2.05-.3.07-.41.09-.83.19-1.24.27h-.01c-.1.02-.21.04-.31.07-.1.02-.2.04-.3.06-.46.1-.93.19-1.39.27-.12.02-.24.05-.36.07-.34.07-.69.13-1.03.19-.04,0-.08.02-.13.02-.04.01-.09.01-.13.02-.02,0-.03,0-.05,0-.03,0-.07,0-.1.02-.01,0-.02,0-.04,0-.04,0-.08.01-.12.02-.02,0-.04,0-.07.01-.16.02-.32.05-.48.08-.01,0-.02,0-.04,0-.01,0-.02,0-.04,0-.2.04-.4.07-.6.09-.25.04-.49.07-.74.11-.25.04-.49.07-.74.1-.17.02-.35.05-.52.07-.13.02-.25.04-.38.05-.11.01-.21.03-.32.04-.07.01-.13.02-.2.02-.15.02-.3.04-.46.05-.15.02-.3.04-.46.05-.02,0-.03,0-.05,0-.14.02-.27.03-.41.04-.11.01-.21.02-.32.03-.24.03-.49.05-.73.07-.04,0-.08,0-.12.01-.31.03-.63.05-.94.07-.08,0-.16.01-.24.02-.02,0-.04.01-.07,0-.08.01-.17.01-.26.01-.19.02-.38.04-.57.05-.02,0-.04,0-.07,0-.19.01-.38.02-.57.03-.02,0-.04,0-.07,0-.31.02-.62.04-.93.05-.46.02-.93.04-1.4.05-.13,0-.26.01-.4.01-.13,0-.27,0-.4,0h-.04l-4.77-2.74c17.58-9.27,51.52-22.25,79.18-40.55Z"/><path class="cls-11" d="M1197.96,98.65s-.02.11-.05.22v-.1s.03-.08.05-.11Z"/><rect class="cls-49" x="1098.29" y="65.24" width="1.24" height="18.84"/><polygon class="cls-60" points="1103.56 77.05 1101.37 71.31 1102.93 70.39 1101.05 65.86 1102.07 65.23 1101.13 64.36 1099.09 57.16 1098.22 60.18 1097.6 62.36 1096.19 63.72 1096.82 64.45 1096.19 66.69 1095.17 67.91 1095.64 68.73 1095.01 70.44 1096.74 71.41 1094.7 76.29 1094.38 77.05 1103.56 77.05"/><polygon class="cls-32" points="1099.53 79.69 1099.53 84.24 1098.29 84.24 1098.29 78.68 1099.53 79.69"/><polygon class="cls-16" points="1094.7 76.29 1095.81 75.64 1097.53 71.53 1095.8 70.56 1096.43 68.86 1095.96 68.03 1096.98 66.82 1097.6 64.58 1096.98 63.85 1098.39 62.49 1098.63 61.63 1098.22 60.18 1097.6 62.36 1096.19 63.72 1096.82 64.45 1096.19 66.69 1095.17 67.91 1095.64 68.73 1095.01 70.44 1096.74 71.41 1094.7 76.29"/><polygon class="cls-20" points="1111.24 87.44 1109.18 71.16 1111.24 70.77 1106.73 53.21 1102.6 70.53 1104.67 70.93 1102.6 87.21 1111.24 87.44"/><path class="cls-49" d="M1110.16,70.12l-2.07.39,1.46,11.49c.36,0,.7-.02,1-.02l-1.37-10.82,2.07-.39-3.27-12.72-.43,1.9,2.62,10.17Z"/><polygon class="cls-16" points="1106.73 53.21 1102.6 70.53 1103.93 70.82 1107.25 55.09 1106.73 53.21"/><path class="cls-49" d="M1115.44,83.62c-1.62,1.43-4.09,1.27-5.51-.35-1.16-1.31-1.27-3.2-.4-4.62h0c.2-.33.45-.63.75-.89,1.62-1.43,4.09-1.27,5.51.35.21.24.38.49.52.75.83,1.56.51,3.54-.87,4.76Z"/><path class="cls-4" d="M1120.8,87.26c-2.46.7-5.01-.73-5.7-3.19-.16-.55-.21-1.11-.16-1.65,2.53-.51,5.91-.34,9.13-.49.46,2.33-.94,4.67-3.27,5.33Z"/><path class="cls-20" d="M1116.31,78.86c-2.26.34-4.94-1.16-6.79-.21.2-.32.45-.63.75-.89,1.62-1.43,4.09-1.27,5.51.35.21.24.38.49.52.75Z"/><path class="cls-4" d="M1124.07,82.05c-3.22.15-6.6-.02-9.13.49.04-.52.17-1.03.39-1.49.54-1.21,1.59-2.17,2.96-2.56,1.76-.51,3.58.1,4.73,1.39.44.5.78,1.1.97,1.79.04.13.07.25.09.38Z"/><polygon class="cls-20" points="1135.24 113.71 1146.29 115.41 1143.53 97.47 1140.76 79.53 1140.09 83.88 1138 97.47 1135.24 113.71"/><polygon class="cls-20" points="1119.39 94.17 1128.4 94.17 1126.15 79.53 1123.89 64.9 1123.31 68.7 1121.64 79.53 1119.39 94.17"/><polygon class="cls-4" points="1125.38 104.92 1137.85 104.92 1134.73 89.33 1131.62 73.73 1130.83 77.67 1128.5 89.33 1125.38 104.92"/><polygon class="cls-5" points="1066.33 95.77 1055.28 97.47 1058.04 79.53 1060.81 61.59 1061.48 65.94 1063.57 79.53 1066.33 95.77"/><polygon class="cls-18" points="1082.18 81.31 1073.17 81.31 1075.42 66.67 1077.68 52.04 1078.26 55.84 1079.93 66.67 1082.18 81.31"/><polygon class="cls-19" points="1076.19 88.47 1063.72 88.47 1066.84 72.87 1069.95 57.28 1070.74 61.21 1073.07 72.87 1076.19 88.47"/><polygon class="cls-5" points="1027 87.69 1038.05 89.39 1035.29 71.45 1032.52 53.51 1031.85 57.86 1029.76 71.45 1027 87.69"/><polygon class="cls-18" points="1011.15 73.22 1020.16 73.22 1017.91 58.59 1015.65 43.95 1015.07 47.75 1013.4 58.59 1011.15 73.22"/><polygon class="cls-19" points="1017.14 80.38 1029.61 80.38 1026.49 64.79 1023.38 49.2 1022.59 53.13 1020.26 64.79 1017.14 80.38"/><path class="cls-50" d="M999.46,130.48c-.67-1.58-1.29-3.19-1.84-4.82.57,1.63,1.18,3.24,1.84,4.82Z"/><path class="cls-50" d="M1012.41,152.24c-.7-.85-1.37-1.72-2.03-2.6.66.88,1.33,1.74,2.03,2.6Z"/><path class="cls-50" d="M1162.48,133.68c.49-1.07.96-2.14,1.42-3.23-.45,1.09-.92,2.16-1.42,3.23Z"/><path class="cls-50" d="M1164.56,128.8c.43-1.11.85-2.22,1.23-3.34-.39,1.12-.79,2.24-1.23,3.34Z"/><path class="cls-47" d="M1079,216.84c-.08,0-.16,0-.24,0-7.25-.19-14.49-1.01-21.59-2.5-9.15-2.01-18.07-5.04-26.48-9.11-1.07-.48-2.09-1.04-3.12-1.59l-3.09-1.64-3.01-1.79c-1-.6-2.02-1.17-2.98-1.83-1.94-1.3-3.92-2.53-5.76-3.96l-2.8-2.09-2.7-2.21c-1.83-1.44-3.51-3.05-5.24-4.6-.88-.76-1.67-1.61-2.5-2.42-.82-.82-1.66-1.63-2.46-2.47-3.14-3.41-6.2-6.91-8.92-10.65-11.11-14.81-18.36-32.32-21.16-50.3-2.67-17.99-1.11-36.48,5.01-53.15-.76,4.37-1.37,8.73-1.66,13.11-.35,4.37-.45,8.74-.3,13.09.38,8.69,1.5,17.29,3.63,25.6,4.3,16.6,12.16,32.06,23.04,44.91,5.39,6.45,11.5,12.27,18.17,17.31,6.69,5,13.82,9.42,21.44,12.76,7.59,3.4,15.53,5.99,23.67,7.61,1,.2,1.99.39,2.99.55l16.06,15.36Z"/><path class="cls-41" d="M1088.59,387.32h-13.86l4.03-170.48c.08,0,.16,0,.24,0l5.69,5.45,3.9,165.03Z"/><path class="cls-52" d="M1019.84,386.98l.96-.49.96-.43,1.92-.86c1.28-.53,2.57-1.04,3.85-1.5,2.57-.95,5.13-1.75,7.7-2.51,5.13-1.47,10.26-2.58,15.39-3.47,10.26-1.73,20.52-2.53,30.78-2.51,10.26.01,20.52.82,30.78,2.55,5.13.9,10.26,2,15.39,3.47,2.57.75,5.13,1.55,7.7,2.5,1.28.46,2.57.97,3.85,1.5l1.92.86.96.43.96.48v1.39l-15.39.34-15.39.19c-10.26.11-20.52.1-30.78.16-10.26-.05-20.52-.05-30.78-.16l-15.39-.19-15.39-.34v-1.39Z"/><path class="cls-33" d="M1166.89,122.06s0,.01,0,.02c0,.01-.01.03-.02.05-.04.13-.08.27-.12.4-.1.36-.22.71-.33,1.06-.04.12-.07.22-.11.34-.17.51-.34,1.02-.51,1.54-.14.42-.3.83-.45,1.24h0v.02c-.05.16-.11.32-.17.48-.2.54-.4,1.07-.61,1.6-.19.49-.39.98-.59,1.46-.02.07-.05.13-.07.19-.45,1.09-.92,2.16-1.41,3.23-.02.02-.02.05-.04.08-.22.47-.44.94-.66,1.41-.21.44-.43.87-.65,1.31,0,.01-.01.02-.02.04,0,.01-.01.02-.02.04-.19.38-.39.75-.59,1.13-.21.41-.43.81-.65,1.22-.23.42-.46.84-.69,1.25-.25.45-.52.9-.78,1.35-.1.17-.21.34-.31.52,0,0,0,0,0,0-.17.3-.34.58-.52.87-.36.57-.71,1.15-1.08,1.71-.02.03-.04.05-.05.08-.26.4-.52.8-.79,1.21-.03.04-.05.07-.08.11-.31.47-.63.94-.96,1.39-.3.42-.59.83-.88,1.23-.08.13-.17.24-.26.36-.29.39-.57.78-.86,1.16-.02.03-.05.06-.07.09-.2.26-.4.51-.6.77-.15.2-.31.4-.46.6-.72.92-1.47,1.82-2.23,2.7-.38.44-.77.88-1.15,1.32-.39.43-.78.87-1.18,1.29-.39.43-.8.84-1.2,1.27-.4.42-.81.83-1.22,1.24l-.21.21c-.34.34-.69.68-1.04,1.01-.42.4-.85.8-1.28,1.19-.4.37-.81.75-1.23,1.12-.04.04-.08.07-.13.11-.39.35-.79.69-1.19,1.03,0,0-.02.01-.02.02-.05.04-.1.09-.15.13-.41.35-.82.69-1.24,1.03-.9.74-1.82,1.46-2.75,2.16-.15.12-.3.23-.46.34-.07.05-.13.1-.2.14-.05.04-.11.08-.18.13-.24.18-.49.36-.73.54-.19.14-.37.27-.57.4-.4.3-.81.58-1.22.86-.11.08-.23.16-.34.23-.04.02-.07.05-.11.07-.16.11-.32.22-.48.33-.03.02-.05.04-.08.05-.22.14-.45.3-.68.44-.29.19-.57.38-.86.56-.05.04-.11.07-.17.1,0,0-.01,0-.02.01-.28.17-.56.36-.84.52-.04.02-.07.05-.1.07-.01,0-.02.01-.03.02-.22.13-.43.27-.66.4-.2.12-.4.24-.6.36-.14.08-.28.17-.43.25-.05.03-.1.05-.14.08-.19.11-.37.22-.57.33-.08.05-.17.1-.26.14-.04.02-.08.05-.11.07-.28.16-.57.33-.86.48-.16.09-.32.17-.48.27-.13.07-.26.14-.39.21-.02,0-.03.02-.05.02-.07.04-.14.08-.21.11-.17.1-.35.19-.53.28-.33.17-.66.35-.99.52-1.06.54-2.14,1.06-3.23,1.55-.28.13-.56.25-.84.37-.06.03-.13.06-.19.08-.07.03-.13.06-.19.09-.06.03-.13.06-.19.08-.04.02-.08.04-.13.06-.02,0-.04.01-.06.02-.11.05-.21.09-.32.13-.38.16-.77.33-1.16.49-.12.05-.24.11-.37.15-.39.16-.8.33-1.19.48-.32.13-.64.25-.97.37-.1.04-.2.08-.3.11-.22.08-.43.16-.66.24-.45.17-.91.33-1.38.49-.13.05-.27.1-.41.14-.39.13-.78.27-1.17.39-.16.05-.31.1-.47.15-.07.02-.13.04-.19.06-.03.01-.07.02-.1.03-.01,0-.03.01-.04.01-.3.1-.61.2-.92.28l-.42.13c-.25.08-.51.15-.77.22-.05.02-.11.03-.17.05-.06.02-.13.03-.19.05-.05.02-.09.03-.14.04-.02,0-.04.01-.06.02-.15.04-.3.08-.46.13-.31.08-.63.17-.94.25-.09.02-.19.05-.28.07-.15.04-.31.08-.46.12-.08.02-.17.04-.25.06-.49.13-1,.25-1.5.36-.51.12-1.03.24-1.54.34h-.01c-.1.02-.21.04-.31.07-.1.02-.2.04-.3.06-.46.1-.93.19-1.39.27-.12.02-.24.05-.36.07-.39.07-.77.14-1.16.21-.04.01-.09.01-.13.02-.02,0-.03,0-.05,0-.03,0-.07,0-.1.02-.01,0-.02,0-.04,0-.04,0-.08.01-.12.02-.02,0-.04,0-.07.01-.17.03-.35.06-.52.08-.01,0-.02,0-.04,0-.2.04-.4.07-.6.09-.25.04-.49.07-.74.11-.25.04-.49.07-.74.1-.17.02-.35.05-.52.07-.13.02-.25.04-.38.05-.11.01-.21.03-.32.04-.07.01-.13.02-.2.02-.15.02-.3.04-.46.05-.15.02-.31.03-.46.05-.02,0-.03,0-.05,0-.14.02-.27.03-.41.04-.11.01-.21.02-.32.03-.24.03-.49.05-.73.07-.04,0-.08,0-.12.01-.05,0-.09,0-.14.01-.02,0-.05,0-.07,0-.32.03-.64.05-.97.07-.02,0-.04.01-.07,0-.28.02-.56.05-.83.06-.02,0-.04,0-.07,0-.19.01-.38.02-.57.03-.02,0-.04,0-.07,0-.31.02-.62.04-.93.05-.46.02-.93.04-1.4.05-.13,0-.26.01-.4.01-.39.01-.79.02-1.18.02h-.04c-.13,0-.26,0-.39,0h-.19c-.21,0-.41,0-.62,0-.24,0-.48,0-.72,0-.24,0-.48,0-.71,0-.29,0-.57,0-.86-.02-.1,0-.2,0-.3,0-.17,0-.35-.01-.52-.02-.29,0-.58-.02-.86-.04h-.02c-.13,0-.26-.01-.39-.02-.48-.02-.95-.05-1.42-.08-.34-.02-.69-.04-1.03-.07-.22-.02-.43-.04-.65-.05-.25-.02-.5-.04-.75-.07-.1,0-.19-.02-.29-.02-.16-.02-.33-.03-.49-.05-.09-.01-.19-.02-.28-.03-.25-.02-.51-.05-.76-.08-.33-.04-.65-.07-.97-.11-.05,0-.11-.01-.16-.02-.1-.01-.21-.02-.31-.04-.19-.02-.37-.05-.55-.07-.24-.03-.47-.07-.71-.1-.05-.01-.1-.02-.15-.02-.37-.05-.76-.11-1.14-.17-.21-.03-.41-.07-.62-.1-.44-.07-.87-.14-1.31-.22-.43-.08-.87-.16-1.3-.25-.42-.08-.83-.17-1.25-.25-.28-.06-.56-.12-.84-.18-.02,0-.03,0-.05-.01-.3-.07-.6-.13-.9-.21-.31-.07-.63-.15-.95-.23s-.63-.16-.94-.24c-.02,0-.05-.01-.07-.02-.45-.11-.89-.23-1.34-.36-.12-.03-.24-.06-.35-.1-.33-.09-.66-.18-.98-.28-.05-.02-.11-.03-.16-.05-.05-.02-.11-.03-.17-.05-.01,0-.02-.01-.03-.01-.45-.13-.9-.27-1.35-.4h-.02c-.32-.11-.65-.21-.97-.32-.25-.08-.5-.16-.75-.25,0,0-.01,0-.02,0h0c-.1-.03-.19-.07-.28-.1-.05-.02-.11-.04-.17-.05-.61-.21-1.22-.42-1.83-.65-.66-.24-1.3-.49-1.94-.74-.02,0-.04-.01-.06-.02-.63-.25-1.25-.51-1.88-.77-.07-.03-.14-.07-.22-.1-.11-.05-.22-.1-.34-.14-.34-.14-.69-.29-1.03-.45-.07-.03-.15-.06-.22-.1-.22-.1-.44-.2-.66-.3-.43-.19-.85-.39-1.28-.59-.21-.1-.42-.21-.63-.31-.54-.26-1.07-.53-1.6-.8-.02,0-.04-.02-.07-.03-.57-.29-1.13-.59-1.7-.89-.11-.07-.24-.14-.36-.2-.3-.16-.6-.33-.9-.5-.04-.02-.07-.04-.1-.05-.2-.11-.4-.23-.6-.35-.34-.19-.68-.39-1.01-.59-.25-.15-.51-.31-.75-.46-.67-.4-1.33-.81-1.99-1.24-.55-.34-1.1-.71-1.64-1.07-.06-.04-.12-.09-.19-.13-.56-.37-1.1-.75-1.64-1.14,0,0-.02-.01-.02-.02-.42-.3-.84-.6-1.25-.9-.13-.09-.25-.18-.37-.27-.07-.05-.14-.11-.22-.17-.27-.2-.54-.41-.81-.62-.34-.27-.68-.53-1.02-.8-.16-.12-.31-.24-.46-.37-.25-.21-.51-.41-.76-.62-.05-.04-.1-.08-.16-.13-.18-.14-.36-.29-.54-.45-.21-.17-.41-.34-.62-.52-.05-.04-.1-.09-.15-.13-.33-.28-.65-.56-.97-.84l-.04-.04-1.03-.92c9.07-25.73,17.61-45.09,26.08-59.09,32.49-53.69,63.87-28.42,119.09,19.03Z"/><ellipse class="cls-36" cx="1080.61" cy="141.85" rx=".79" ry=".26" transform="translate(216.2 805.65) rotate(-45)"/><ellipse class="cls-36" cx="1086.48" cy="133.34" rx=".79" ry=".26" transform="translate(466.66 1035.58) rotate(-62.51)"/><ellipse class="cls-36" cx="1096.6" cy="112.05" rx=".79" ry=".26" transform="translate(490.99 1033.1) rotate(-62.51)"/><ellipse class="cls-36" cx="1098.47" cy="110.3" rx=".79" ry=".26" transform="translate(493.56 1033.81) rotate(-62.51)"/><ellipse class="cls-36" cx="1098.31" cy="108.76" rx=".79" ry=".26" transform="translate(494.83 1032.84) rotate(-62.51)"/><ellipse class="cls-36" cx="1100.18" cy="107" rx=".79" ry=".26" transform="translate(497.4 1033.56) rotate(-62.51)"/><ellipse class="cls-36" cx="1100.03" cy="105.46" rx=".79" ry=".26" transform="translate(498.68 1032.59) rotate(-62.51)"/><ellipse class="cls-36" cx="1091.62" cy="123.46" rx=".79" ry=".26" transform="translate(478.19 1034.82) rotate(-62.51)"/><ellipse class="cls-36" cx="1091.46" cy="121.92" rx=".79" ry=".26" transform="translate(479.47 1033.85) rotate(-62.51)"/><ellipse class="cls-36" cx="1093.33" cy="120.17" rx=".79" ry=".26" transform="translate(482.03 1034.57) rotate(-62.51)"/><ellipse class="cls-36" cx="1093.17" cy="118.63" rx=".79" ry=".26" transform="translate(483.31 1033.6) rotate(-62.51)"/><ellipse class="cls-36" cx="1095.05" cy="116.88" rx=".79" ry=".26" transform="translate(485.87 1034.32) rotate(-62.51)"/><ellipse class="cls-36" cx="1094.89" cy="115.34" rx=".79" ry=".26" transform="translate(487.15 1033.35) rotate(-62.51)"/><ellipse class="cls-36" cx="1096.76" cy="113.58" rx=".79" ry=".26" transform="translate(489.72 1034.06) rotate(-62.51)"/><ellipse class="cls-36" cx="1086.32" cy="131.8" rx=".79" ry=".26" transform="translate(467.94 1034.61) rotate(-62.51)"/><ellipse class="cls-36" cx="1088.19" cy="130.04" rx=".79" ry=".26" transform="translate(470.51 1035.33) rotate(-62.51)"/><ellipse class="cls-36" cx="1088.04" cy="128.5" rx=".79" ry=".26" transform="translate(471.78 1034.36) rotate(-62.51)"/><ellipse class="cls-36" cx="1084.51" cy="136.2" rx=".79" ry=".26" transform="translate(463.06 1035.37) rotate(-62.51)"/><ellipse class="cls-36" cx="1084.35" cy="134.66" rx=".79" ry=".26" transform="translate(464.34 1034.41) rotate(-62.51)"/><ellipse class="cls-36" cx="1082.63" cy="138.9" rx=".79" ry=".26" transform="translate(459.65 1035.16) rotate(-62.51)"/><ellipse class="cls-36" cx="1082.47" cy="137.36" rx=".79" ry=".26" transform="translate(460.93 1034.19) rotate(-62.51)"/><ellipse class="cls-36" cx="1089.91" cy="126.75" rx=".79" ry=".26" transform="translate(474.35 1035.07) rotate(-62.51)"/><ellipse class="cls-36" cx="1089.75" cy="125.21" rx=".79" ry=".26" transform="translate(475.63 1034.11) rotate(-62.51)"/><path class="cls-49" d="M1103.48,103.83l-.95-4.75s-.07,0-.08,0-.28.33-.72-.22h-.06s-.08.19-.08.19v.87s-.05,1.67-.09,1.72c0,0-.05.04-.08.07-.03.03-.35,1.21-.35,1.21v.69s.32,0,.19.16-.28.36-.48.39c-.05,0-.1.01-.14.02.03.2.06.38.08.38.03,0,.59.2.59.2,0,0,.05.17-.11.18-.13,0-.82.03-1.07.04-.03-.55-.06-1.72.1-1.96.19-.29.21-1.05.18-1.36-.03-.31.13-1.37-.09-1.37-.21,0-.79-.05-.64-.77,0,0-.53-.75-.46-.89.07-.14.42-.64.42-.64,0,0,.52-.51.72-.6.2-.09.19-.26.26-.42s-.16-.02-.19-.08c-.03-.06-.23-.7-.06-.8.16-.1.25-.11.49-.13.09-.01.24,0,.4,0,.03.07-.01.15-.17.26,0,0,.01.59-.07.69h-.13s.01.19.01.19c0,0,.07.05.11.04.04,0,.14-.04.17-.03.04.02.16.09.16.09v.03s.22.04.22.04c0,0-.02.02.04.11.05.09.33.71.53.9.08.08.04.18.03.22l.18.2s.02.04.02,0,0-.19,0-.19c0,0,.06-.01.07.02l-.06-.31.08-.08.1.47s.19.05.13.1v.17s.03.05-.04.13l.87,4.61s.03.15-.02.2Z"/><path class="cls-49" d="M1100.43,103.06c-.16.24-.33,1.37-.3,1.92-.05,0-.08,0-.08,0,0,0-.08.03-.09-.1,0-.12-.08-1.18-.08-1.18.02,0,.04-.02.06-.03-.04-.35-.06-1.07.25-1.42l.34.52c-.02.11-.06.21-.1.27Z"/><path class="cls-32" d="M1101.26,95.96c-.16,0-.31,0-.4,0-.23.03-.17.1-.33.2-.16.1.07.46.1.53.03.06.17.1.1.26-.07.16-.07.6-.27.69-.21.09-.73.56-.73.56-.3.55.06,1.95.71,2.01.19-.09.1,1.05.13,1.36.02.24.04.83-.05,1.22l-.34-.52-.13-1.63s-.05,0-.21-.03l-.18.88-.4,1.92s-.04.1-.09.11c0,0,.25-1.25.43-2.12.09-.46.16-.81.16-.82,0-.02-.05-.03-.05-.03,0,0-.42-.34-.33-1.07,0,0-.5-.45-.28-.99,0,0-.07-.07-.05-.1.01-.02.29-.46.29-.46,0,0-.02-.31.3-.41l.12-.11.28-.11-.02-.08.16-.06v.07l.31-.1v-.07s-.3.13-.4-.47c-.09-.6.25-.8.6-.8.23,0,.51.05.57.17Z"/><ellipse class="cls-36" cx="1081.61" cy="142.05" rx=".79" ry=".26" transform="translate(216.35 806.42) rotate(-45)"/><ellipse class="cls-36" cx="1081.92" cy="140.54" rx=".79" ry=".26" transform="translate(217.51 806.2) rotate(-45)"/><rect class="cls-49" x="1070.3" y="102.62" width="1.92" height="29.21"/><polygon class="cls-59" points="1078.47 120.93 1075.06 112.04 1077.49 110.6 1074.57 103.59 1076.15 102.61 1074.69 101.25 1071.53 90.09 1070.19 94.77 1069.22 98.16 1067.04 100.27 1068.01 101.4 1067.04 104.87 1065.45 106.76 1066.18 108.04 1065.21 110.68 1067.89 112.19 1064.73 119.75 1064.24 120.93 1078.47 120.93"/><polygon class="cls-32" points="1072.21 125.03 1072.21 132.07 1070.3 132.07 1070.3 123.46 1072.21 125.03"/><polygon class="cls-16" points="1064.73 119.75 1066.45 118.74 1069.11 112.38 1066.43 110.87 1067.4 108.23 1066.67 106.95 1068.26 105.06 1069.23 101.59 1068.26 100.46 1070.44 98.35 1070.82 97.02 1070.19 94.77 1069.22 98.16 1067.04 100.27 1068.01 101.4 1067.04 104.87 1065.45 106.76 1066.18 108.04 1065.21 110.68 1067.89 112.19 1064.73 119.75"/><circle class="cls-16" cx="1069.4" cy="119.37" r=".58"/><circle class="cls-49" cx="1075.92" cy="109.84" r=".58"/><circle class="cls-16" cx="1071.83" cy="101.53" r=".58"/><rect class="cls-49" x="1119.69" y="116.4" width="2.38" height="36.29"/><polygon class="cls-34" points="1129.83 139.15 1125.6 128.09 1128.62 126.31 1125 117.6 1126.96 116.38 1125.15 114.69 1121.22 100.83 1119.55 106.65 1118.35 110.86 1115.64 113.48 1116.84 114.88 1115.64 119.19 1113.67 121.53 1114.57 123.13 1113.37 126.41 1116.69 128.28 1112.77 137.68 1112.16 139.15 1129.83 139.15"/><polygon class="cls-32" points="1122.07 144.23 1122.07 152.98 1119.69 152.98 1119.69 142.28 1122.07 144.23"/><polygon class="cls-16" points="1112.77 137.68 1114.91 136.42 1118.21 128.52 1114.88 126.64 1116.09 123.37 1115.18 121.77 1117.15 119.43 1118.36 115.12 1117.15 113.71 1119.87 111.09 1120.34 109.44 1119.55 106.65 1118.35 110.86 1115.64 113.48 1116.84 114.88 1115.64 119.19 1113.67 121.53 1114.57 123.13 1113.37 126.41 1116.69 128.28 1112.77 137.68"/><circle class="cls-16" cx="1118.58" cy="137.2" r=".71"/><circle class="cls-49" cx="1126.67" cy="125.37" r=".71"/><circle class="cls-16" cx="1121.59" cy="115.05" r=".71"/><path class="cls-49" d="M1165.35,126.7h0v.02c-.05.16-.11.32-.17.48-.2.54-.4,1.07-.61,1.6-.19.48-.38.97-.58,1.45,0,0,0,0-.01.01-.98,1.5-2.41,2.71-4.19,3.44-1.56.64-3.2.81-4.76.58-.36-.05-.72-.13-1.07-.23-1.3-.35-2.52-1-3.55-1.88-.52-.45-1-.96-1.41-1.53-.39-.53-.73-1.12-1-1.74-.04-.06-.06-.13-.09-.19-.06-.15-.11-.3-.17-.44.11-.13.22-.25.34-.37,3.38-3.58,8.66-5.13,12.67-10.61,1.76.97,3.22,2.53,4.04,4.54.25.6.42,1.22.53,1.83.19,1.02.19,2.05.03,3.04Z"/><path class="cls-20" d="M1151.69,129.84c-1.19,1.75-2.26,4.39-2.8,6.59-.83-.71-1.34-1.78-1.31-2.96.06-2.07,1.78-3.7,3.86-3.65.09,0,.17,0,.25.02Z"/><path class="cls-49" d="M1151.23,137.33c-.9-.02-1.71-.36-2.34-.9.54-2.2,1.61-4.84,2.8-6.59,1.95.18,3.45,1.86,3.4,3.84-.06,2.07-1.79,3.71-3.86,3.65Z"/><path class="cls-49" d="M1148.07,127.9c-.04.32-.07.65-.08,1-.04-.06-.06-.13-.09-.19-.06-.15-.11-.3-.17-.44.11-.13.22-.25.34-.37Z"/><rect class="cls-32" x="1165.17" y="77.3" width="1.72" height="44.8"/><path class="cls-49" d="M1166.88,111.24v10.84s-.01.03-.02.05c-.14.49-.29.97-.45,1.45-.04.12-.07.22-.11.34-.17.51-.34,1.02-.51,1.54-.2.59-.41,1.16-.63,1.74v-12.56l1.72-3.41Z"/><path class="cls-53" d="M1175.72,98.61l-5.66-4.9-1.94-1.68-2.08-1.8-9.69,8.38,4.86-11.78,2.61-6.38,1.56-3.82c.1-.24.25-.4.42-.48.32-.15.7,0,.89.48l4.17,10.2,4.86,11.78Z"/><path class="cls-49" d="M1176.61,115.26l-7.07-6.35-3.51-3.16-10.58,9.51,5.3-10.07,4.29-8.2c.44-.84,1.54-.84,1.97,0l.37.71,3.92,7.5,5.31,10.07Z"/><path class="cls-32" d="M1169.55,108.95l-3.52-3.21-10.58,9.51,5.3-10.07,4.29-8.2c.44-.84,1.54-.84,1.97,0l.37.71c1.99,7.12.02,5.86,2.16,11.22,0,.03,0,.05,0,.05Z"/><path class="cls-50" d="M1175.72,98.61l-5.66-4.9-1.94-1.68c-.72-4.87-1.76-11.82-2.32-15.88.32-.15.7,0,.89.48l4.17,10.2,4.86,11.78Z"/><circle class="cls-49" cx="1163.7" cy="103.68" r=".67"/><circle class="cls-50" cx="1164.61" cy="86.06" r=".67"/><rect class="cls-49" x="1077.66" y="104.85" width="2.26" height="36.91"/><polygon class="cls-20" points="1077.66 132 1077.66 140.32 1079.92 140.32 1079.92 133.64 1077.66 132"/><path class="cls-50" d="M1071.95,114.35l6.84-4.21,4.02,2.47,2.83,1.74-3.43-7.43-2.77-6.05c-.09-.19-.22-.32-.36-.39-.32-.16-.72-.03-.91.39l-2.77,6.05-3.43,7.43Z"/><path class="cls-20" d="M1071.35,124.83l7.01-2.51.43-.15,7.44,2.66-3.73-6.44-2.97-5.16c-.32-.57-1.15-.57-1.47,0l-.24.41-2.73,4.76-3.73,6.44Z"/><path class="cls-20" d="M1074.1,132.08l4.64-1.66h.04s4.69,1.66,4.69,1.66l-2.35-4.06-1.87-3.26c-.21-.35-.72-.35-.93,0l-.63,1.1-1.24,2.16-2.35,4.06Z"/><path class="cls-49" d="M1076.49,119.37c-.11,1.09.88,2.16,1.86,2.95l.43-.15,7.44,2.66-3.73-6.44-2.97-5.16c-.32-.57-1.15-.57-1.47,0l-.24.41c.08.09.16.19.23.3.77,1.09-1.34,3.3-1.55,5.44Z"/><path class="cls-16" d="M1082.8,112.61l2.83,1.74-3.43-7.43-2.77-6.05c-.09-.19-.22-.32-.36-.39-.14.23-.23.5-.28.81-.26,1.62,1.82,7.2,4.02,11.32Z"/><circle class="cls-20" cx="1078.95" cy="117.35" r=".41"/><circle class="cls-16" cx="1077.7" cy="107.9" r=".41"/><circle class="cls-20" cx="1082.01" cy="121.83" r=".41"/><circle class="cls-20" cx="1079.31" cy="128.14" r=".36"/><path class="cls-49" d="M1054.39,112.61c-1.99.83-4.28-.1-5.11-2.09-.68-1.62-.19-3.43,1.09-4.5h0c.29-.25.62-.45,1-.61,1.99-.84,4.28.1,5.11,2.09.12.29.2.59.25.88.29,1.74-.65,3.52-2.35,4.23Z"/><path class="cls-49" d="M1056.74,108.38c-2.25-.4-4.31-2.67-6.36-2.37.29-.24.62-.45,1-.6,1.99-.84,4.28.1,5.11,2.09.12.29.2.59.25.88Z"/><path class="cls-4" d="M1050.27,108.08c-3.63-.17-6.43-3.26-6.25-6.89.03-.82.22-1.59.53-2.31,3.65.47,8.14,2.23,12.55,3.5-.44,3.36-3.39,5.88-6.84,5.7Z"/><path class="cls-4" d="M1057.05,102.52c-4.42-1.26-8.9-3.03-12.55-3.5.29-.68.7-1.3,1.2-1.84,1.27-1.38,3.13-2.21,5.15-2.11,2.61.12,4.79,1.76,5.75,4.02.37.88.55,1.84.5,2.86,0,.19-.03.37-.05.55Z"/><path class="cls-25" d="M1047.59,96.76c-.36.33-.1.87.36.7s2.64-.8,4.08-.41.81-.53-.02-.83c-1.54-.58-2.99-.76-4.42.55Z"/><polygon class="cls-20" points="1111.15 155.13 1109.08 138.74 1111.15 138.35 1106.61 120.67 1102.46 138.11 1104.54 138.5 1102.46 154.89 1111.15 155.13"/><path class="cls-49" d="M1110.07,137.69l-2.08.39,1.47,11.56c.37,0,.7-.02,1-.02l-1.38-10.89,2.08-.39-3.3-12.8-.43,1.91,2.64,10.24Z"/><polygon class="cls-16" points="1106.61 120.67 1102.46 138.11 1103.8 138.4 1107.14 122.56 1106.61 120.67"/><path class="cls-6" d="M1166.88,122.07h0s-.01.04-.02.06c-.04.13-.08.27-.12.4-.07.24-.14.47-.21.7-.04.12-.08.24-.11.36-.04.12-.07.22-.11.34-.17.51-.34,1.02-.51,1.54-.14.42-.3.83-.45,1.24t0,.01h0c-.05.17-.11.33-.17.49-.2.54-.4,1.07-.61,1.6-.19.48-.38.97-.58,1.45-.03.07-.05.13-.08.2-.45,1.09-.92,2.16-1.41,3.23-.02.02-.02.05-.04.08-.22.47-.44.94-.66,1.41-.21.44-.43.87-.65,1.31,0,.01-.01.02-.02.04,0,.01-.01.02-.02.04-.19.38-.39.75-.59,1.13-.21.41-.43.81-.65,1.22-.23.42-.46.84-.69,1.25-.25.45-.52.9-.78,1.35-.1.17-.21.34-.31.52,0,0,0,0,0,0-.17.3-.34.58-.52.87-.36.57-.71,1.15-1.08,1.71-.02.03-.04.05-.05.08-.26.4-.52.81-.79,1.21-.03.04-.05.07-.08.11-.31.47-.63.94-.96,1.39-.3.42-.59.83-.88,1.23-.08.13-.17.24-.26.36-.29.39-.57.78-.86,1.16-.02.03-.05.06-.07.09-.05.06-.09.11-.14.17-.15.21-.31.4-.46.6-.15.2-.31.4-.46.6-.72.92-1.47,1.82-2.23,2.7-.38.44-.77.88-1.15,1.32-.39.43-.78.87-1.18,1.29-.39.43-.8.84-1.2,1.27-.4.42-.81.83-1.22,1.24l-.21.21c-.34.34-.69.68-1.04,1.01-.42.4-.85.8-1.28,1.19-.4.37-.81.75-1.23,1.12-.04.04-.08.07-.13.11-.39.35-.79.7-1.19,1.03,0,0-.02.01-.02.02-.05.04-.1.09-.15.13-.41.35-.82.69-1.24,1.03-.9.74-1.82,1.46-2.75,2.16-.15.12-.3.23-.46.34-.07.05-.13.1-.2.14-.05.04-.11.08-.18.13l-.18.13c-.18.14-.37.28-.55.41-.19.14-.37.27-.57.4-.4.3-.81.58-1.22.86-.11.08-.23.16-.34.23-.04.02-.07.05-.11.07-.16.11-.32.22-.48.32-.03.02-.05.04-.08.06-.22.14-.45.3-.68.44-.29.19-.57.38-.86.56-.05.04-.11.07-.17.1,0,0-.01,0-.02.01-.28.19-.56.36-.84.52-.04.02-.07.05-.1.07-.01,0-.02.01-.03.02-.22.13-.43.27-.66.4-.2.12-.4.24-.6.36-.14.08-.28.17-.43.25-.05.03-.1.05-.14.08-.19.11-.37.22-.57.33-.09.05-.17.1-.26.14-.04.02-.08.05-.11.07-.14.08-.3.17-.45.25-.13.08-.27.16-.41.23-.16.09-.32.17-.48.27-.13.07-.26.14-.39.21-.02,0-.03.02-.05.02-.07.04-.14.08-.21.11-.17.1-.36.19-.53.28-.33.17-.66.35-.99.52-1.06.54-2.14,1.06-3.23,1.55-.28.13-.56.25-.84.37-.06.03-.13.06-.19.08-.07.03-.13.06-.19.09-.06.03-.13.06-.19.08-.05.02-.09.04-.13.06-.02,0-.04.01-.06.02-.11.05-.21.09-.32.13-.38.16-.77.33-1.16.49-.12.05-.24.11-.37.15-.39.16-.8.33-1.19.48-.32.13-.64.25-.97.37-.1.04-.2.08-.3.11-.22.08-.43.16-.66.24-.45.17-.91.33-1.38.49-.13.05-.27.1-.41.14-.39.13-.78.27-1.17.39-.16.05-.31.1-.47.15-.07.02-.13.04-.19.06-.03.01-.07.02-.1.03-.01,0-.03.01-.04.01-.1.04-.19.07-.29.1-.21.07-.42.13-.63.19l-.42.13c-.13.04-.27.08-.4.12-.12.04-.24.07-.37.1-.05.02-.11.03-.17.05-.11.03-.22.06-.33.09-.02,0-.04.01-.06.02-.15.04-.3.08-.46.13-.31.08-.63.17-.94.25-.09.02-.19.05-.28.07-.15.04-.31.08-.46.12-.08.02-.17.04-.25.06-.49.13-1,.25-1.5.36-.1.02-.2.05-.3.07-.41.09-.83.19-1.24.27h-.01c-.1.02-.21.04-.31.07-.1.02-.2.04-.3.06-.46.1-.93.19-1.39.27-.12.02-.24.05-.36.07-.34.07-.69.13-1.03.19-.04,0-.08.02-.13.02-.04.01-.09.01-.13.02-.02,0-.03,0-.05,0-.03,0-.07,0-.1.02-.01,0-.02,0-.04,0-.04,0-.08.01-.12.02-.02,0-.04,0-.07.01-.16.02-.32.05-.48.08-.01,0-.02,0-.04,0-.01,0-.02,0-.04,0-.2.04-.4.07-.6.09-.25.04-.49.07-.74.11-.25.04-.49.07-.74.1-.17.02-.35.05-.52.07-.13.02-.25.04-.38.05-.11.01-.21.03-.32.04-.07.01-.13.02-.2.02-.15.02-.3.04-.46.05-.15.02-.3.04-.46.05-.02,0-.03,0-.05,0-.14.02-.27.03-.41.04-.11.01-.21.02-.32.03-.24.03-.49.05-.73.07-.04,0-.08,0-.12.01-.31.03-.63.05-.94.07-.08,0-.16.01-.24.02-.02,0-.04.01-.07,0-.08.01-.17.01-.26.01-.19.02-.38.04-.57.05-.02,0-.04,0-.07,0-.19.01-.38.02-.57.03-.02,0-.04,0-.07,0-.31.02-.62.04-.93.05-.46.02-.93.04-1.4.05-.13,0-.26.01-.4.01-.13,0-.27,0-.4,0h-.04c-.25.01-.5.02-.75.02h-.04c-.13,0-.26,0-.39,0h-.19c-.21,0-.41,0-.62,0-.24,0-.48,0-.72,0-.24,0-.48,0-.71,0-.29,0-.57,0-.86-.02-.1,0-.2,0-.3,0-.17,0-.35-.01-.52-.02-.29,0-.58-.02-.86-.04h-.02c-.13,0-.26-.01-.39-.02-.13,0-.27-.01-.4-.02-.34-.01-.69-.04-1.03-.05-.34-.02-.69-.04-1.03-.07-.22-.02-.43-.03-.65-.05-.25-.02-.5-.04-.75-.07-.1,0-.19-.02-.29-.02-.19-.02-.38-.04-.57-.06l-.2-.02c-.25-.02-.51-.05-.76-.08-.33-.04-.65-.07-.97-.11-.05,0-.11-.01-.16-.02-.1-.01-.21-.02-.31-.04-.17-.02-.34-.05-.52-.07-.14-.02-.29-.04-.44-.06-.15-.02-.3-.04-.45-.06-.37-.05-.76-.11-1.14-.17-.21-.03-.41-.07-.62-.1-.45-.07-.9-.15-1.35-.24-.42-.07-.84-.15-1.27-.24-.42-.08-.83-.17-1.25-.25-.28-.06-.56-.12-.84-.18-.02,0-.03,0-.05-.01-.23-.05-.46-.1-.69-.16-.07-.01-.14-.04-.22-.05-.31-.07-.63-.15-.95-.22-.32-.08-.63-.16-.94-.24-.02,0-.05-.01-.07-.02-.45-.11-.89-.23-1.34-.36-.12-.03-.24-.06-.35-.1-.39-.11-.77-.22-1.15-.33-.05-.02-.11-.03-.17-.05-.01,0-.02-.01-.03-.01-.48-.14-.95-.29-1.43-.44h0s-.09-.04-.14-.05c-.25-.07-.51-.16-.76-.24-.25-.08-.5-.16-.75-.25,0,0-.01,0-.02,0h0c-.1-.03-.19-.07-.28-.1-.05-.02-.11-.04-.17-.05-.53-.18-1.06-.36-1.58-.56-.08-.03-.17-.06-.25-.08-.66-.24-1.3-.49-1.94-.74-.01,0-.04-.01-.06-.02-.63-.25-1.25-.51-1.88-.77-.07-.03-.14-.07-.22-.1-.11-.05-.22-.1-.34-.14-.34-.14-.69-.29-1.03-.45-.07-.03-.15-.06-.22-.1-.22-.1-.44-.2-.66-.3-.22-.1-.43-.21-.65-.31-.21-.09-.42-.19-.63-.28-.21-.1-.42-.21-.63-.31-.54-.26-1.07-.53-1.6-.8-.02,0-.04-.02-.07-.03-.57-.29-1.13-.59-1.7-.89-.11-.07-.24-.14-.36-.2-.3-.16-.6-.33-.9-.5-.04-.02-.07-.04-.1-.05l-.36-.22c-.08-.04-.16-.08-.24-.13-.08-.05-.16-.1-.24-.14-.26-.14-.52-.29-.77-.44-.25-.15-.51-.31-.75-.46-.67-.4-1.33-.81-1.99-1.24-.55-.34-1.1-.71-1.64-1.07-.06-.04-.12-.09-.19-.13-.56-.37-1.1-.75-1.64-1.14,0,0-.02-.01-.02-.02-.42-.3-.83-.6-1.25-.9-.13-.09-.25-.18-.37-.27-.07-.05-.14-.11-.22-.17-.27-.2-.54-.41-.81-.62-.34-.27-.68-.53-1.02-.8-.16-.12-.31-.24-.46-.37-.25-.21-.51-.41-.76-.62-.05-.04-.1-.08-.16-.13-.08-.07-.17-.14-.26-.22-.1-.08-.19-.15-.28-.23-.21-.17-.41-.34-.62-.52-.05-.04-.1-.09-.15-.13-.33-.28-.65-.56-.97-.84l-.04-.04-1.03-.92c-.41-.38-.82-.75-1.22-1.14-.35-.33-.69-.66-1.04-.99-.56-.56-1.12-1.12-1.68-1.68-.28-.3-.56-.6-.84-.89-.78-.83-1.54-1.67-2.29-2.53-.37-.42-.74-.86-1.1-1.28-.36-.42-.7-.83-1.04-1.25-.04-.04-.07-.08-.1-.11-.69-.86-1.36-1.72-2.03-2.6-.74-1-1.47-2.01-2.18-3.04-.24-.36-.48-.71-.72-1.06-.04-.07-.07-.11-.11-.17-.28-.43-.57-.86-.84-1.3-.3-.48-.6-.96-.89-1.44-.3-.48-.59-.97-.87-1.45-.3-.49-.57-.99-.85-1.48-.28-.49-.55-1-.81-1.5-.53-1-1.05-2.01-1.55-3.03-.25-.51-.48-1.02-.72-1.53,0-.02,0-.02-.01-.04-.21-.45-.41-.9-.61-1.35-.05-.12-.11-.25-.16-.37-.2-.47-.4-.94-.59-1.4-.66-1.59-1.27-3.19-1.85-4.83-3.21-9.18-4.95-19.04-4.95-29.32,0-13.39,2.96-26.1,8.26-37.49,16.55,5.06,31.25,24.46,46.87,44.19,9.42,11.9,19.17,23.92,29.86,33.01.75.63,1.5,1.26,2.26,1.86.33.27.66.53,1,.79.1.07.19.14.29.22,6.83,5.27,14.07,9.25,21.86,11.17,2.47.62,5.01,1.03,7.6,1.19,2.93.2,5.93.1,9.02-.33.79-.11,1.58-.24,2.38-.39,8.63-1.66,17.92-5.9,27.99-13.46,1.28-.96,2.58-1.98,3.89-3.05.37-.3.74-.6,1.11-.92,3.28-2.74,6.65-5.85,10.1-9.31.05-.05.1-.1.15-.16.22-.22.43-.44.65-.66.3-.31.61-.62.92-.94Z"/><path class="cls-28" d="M1100.63,43.77l-2.43,2.2-3.14,2.86h0s0,0,0,0l-3.14-2.86-2.43-2.2c-.14-.13,1.25-.09,2.98,1.08l2.6,1.95,2.6-1.95c1.73-1.17,3.12-1.21,2.98-1.08Z"/><path class="cls-28" d="M1074.82,43.68l2.41-2.17,3.07-2.79h0s0,0,0,0l3.07,2.79,2.41,2.17c.14.12-3.59-.05-5.48-1.88-1.89,1.84-5.62,2.01-5.48,1.88Z"/><path class="cls-4" d="M1073.33,34.9l-1.54,1.39-1.94,1.77h-.01s-.01,0-.01,0l-1.94-1.77-1.54-1.39c-.09-.08,1.29-.45,3.5.71,2.21-1.16,3.58-.79,3.5-.71Z"/><path class="cls-49" d="M1111.25,99.66s0,0-.01,0c0,0-.01,0-.02,0,.02,0,.03,0,.03,0h0Z"/><path class="cls-20" d="M1160.75,117.29c-4.01,5.48-9.3,7.03-12.67,10.61-.12.12-.23.24-.34.37-1.59-4.55.66-9.6,5.17-11.44.21-.08.41-.16.62-.22.94-.3,1.88-.45,2.81-.45.02,0,.04,0,.05,0,1.54,0,3.05.4,4.38,1.14Z"/><circle class="cls-20" cx="1160.46" cy="122.49" r=".77"/><path class="cls-54" d="M1116.48,80.34c-.17.3.13.6.4.38s1.57-1.12,2.62-1.19.42-.53-.2-.55c-1.16-.04-2.16.17-2.82,1.36Z"/><path class="cls-22" d="M1079,216.84c-.08,0-.16,0-.24,0-7.25-.19-14.49-1.01-21.59-2.5-9.15-2.01-18.07-5.04-26.48-9.11-1.07-.48-2.09-1.04-3.12-1.59l-3.09-1.64-3.01-1.79c-1-.6-2.02-1.17-2.98-1.83-1.94-1.3-3.92-2.53-5.76-3.96l-2.8-2.09-2.7-2.21c-1.83-1.44-3.51-3.05-5.24-4.6-.88-.76-1.67-1.61-2.5-2.42-.82-.82-1.66-1.63-2.46-2.47-3.14-3.41-6.2-6.91-8.92-10.65-11.11-14.81-18.36-32.32-21.16-50.3-2.67-17.99-1.11-36.48,5.01-53.15-.76,4.37-1.37,8.73-1.66,13.11-.35,4.37-.45,8.74-.3,13.09.38,8.69,1.5,17.29,3.63,25.6,4.3,16.6,12.16,32.06,23.04,44.91,5.39,6.45,11.5,12.27,18.17,17.31,6.69,5,13.82,9.42,21.44,12.76,7.59,3.4,15.53,5.99,23.67,7.61,1,.2,1.99.39,2.99.55l16.06,15.36Z"/><path class="cls-10" d="M1197.49,113.16c-.63,6.95-1.99,13.84-3.97,20.59-.6,2.06-1.26,4.1-1.98,6.13-.16.44-.31.88-.48,1.32-.36.98-.73,1.95-1.12,2.93l-7.16-6.86c.11-.24.22-.48.32-.72.11-.26.23-.52.34-.78.32-.71.64-1.42.94-2.14l1.14-2.97s0,0,0-.01c.81-1.97,1.38-4.01,2.09-6.02.36-1,.6-2.04.9-3.06l.86-3.09c.46-2.08.99-4.16,1.39-6.27v-.04s0,0,0,0l.57-3.12c.09-.53.2-1.06.28-1.59l.21-1.6.42-3.2c.14-1.07.19-2.15.29-3.22l.27-3.23c.05-1.08.11-2.17.13-3.25.06-2.17.08-4.34.03-6.51-.08-4.36-.45-8.71-1.04-13.05-.28-2.18-.63-4.34-1.03-6.52-.42-2.16-.88-4.32-1.39-6.48.29.68.58,1.35.85,2.03.58,1.42,1.12,2.85,1.63,4.3.12.33.24.66.34.99.21.62.42,1.24.62,1.86.13.39.25.78.37,1.18.48,1.57.92,3.15,1.33,4.74.1.4.2.8.3,1.19.2.81.39,1.62.56,2.44.08.39.17.78.25,1.18.08.4.16.81.24,1.21.1.48.19.97.27,1.45.06.33.11.66.17.98.16.95.31,1.89.44,2.85.07.5.14,1,.21,1.5.03.21.05.43.08.64.15,1.21.28,2.41.38,3.63.04.41.07.83.1,1.24.05.65.1,1.29.13,1.94.03.44.05.89.07,1.33.02.38.04.77.05,1.15.01.19.02.37.02.56v.1s0,0,0,.01c0,.05,0,.11,0,.16.02.41.02.82.03,1.22.08,4.29-.07,8.6-.46,12.89Z"/><polyline class="cls-23" points="1043.96 176.97 1054.92 181.24 1054.93 181.25"/><path class="cls-13" d="M1189.95,144.11c-.38.97-.78,1.92-1.19,2.87-.12.29-.25.57-.37.86-.51,1.17-1.05,2.33-1.61,3.49-.2.42-.4.83-.61,1.24-.26.52-.52,1.03-.78,1.54-.22.42-.44.84-.66,1.27-.35.66-.71,1.32-1.07,1.96-.35.63-.71,1.25-1.07,1.86,0,.02-.02.05-.04.08-.22.37-.43.74-.66,1.1-.85,1.41-1.73,2.81-2.64,4.17-10.15,15.49-24.22,28.46-40.51,37.59-1.19.66-2.39,1.3-3.61,1.91-.13.07-.26.14-.39.2-1.82.92-3.67,1.8-5.54,2.62-.44.19-.87.38-1.32.57-.02.01-.04.02-.05.02-.36.15-.72.3-1.07.45-.54.23-1.09.45-1.63.66-.62.25-1.23.48-1.85.72-3.43,1.3-6.93,2.44-10.46,3.43-1.12.36-2.27.59-3.4.87l-3.42.8-3.46.63c-1.15.2-2.3.46-3.46.58l-3.48.46c-.58.07-1.16.16-1.74.22l-1.75.14-3.5.27c-1.17.11-2.34.09-3.5.14-.17,0-.34,0-.51.01l.13,5.44-5.69-5.45-16.06-15.36c7.17,1.22,14.47,1.71,21.76,1.5,1.98-.04,3.96-.14,5.93-.3.44-.04.88-.07,1.33-.11,1.35-.12,2.7-.27,4.04-.45.42-.05.83-.11,1.25-.17.3-.04.59-.08.88-.13.35-.05.69-.11,1.04-.16.48-.07.96-.16,1.44-.24.48-.08.95-.17,1.43-.26.88-.16,1.77-.34,2.65-.53.07-.01.13-.03.2-.04.95-.21,1.89-.43,2.83-.66.33-.08.66-.16.99-.25,3.96-1.01,7.87-2.24,11.7-3.68.51-.19,1.01-.38,1.51-.59.51-.19,1.03-.4,1.54-.62.51-.21,1.03-.42,1.53-.64.51-.22,1.02-.43,1.53-.66.5-.22,1.01-.45,1.51-.69.51-.23,1.01-.46,1.5-.71,1-.48,1.99-.98,2.97-1.48,7.38-3.84,14.3-8.59,20.69-13.97.82-.65,1.57-1.38,2.35-2.08l2.32-2.11,2.21-2.23c.74-.74,1.5-1.47,2.19-2.26,1.41-1.54,2.87-3.06,4.17-4.71.67-.81,1.35-1.6,2.01-2.43l1.9-2.52c.64-.84,1.28-1.68,1.85-2.56l1.8-2.6c.62-.85,1.13-1.77,1.7-2.66.55-.9,1.13-1.79,1.66-2.7,1.95-3.44,3.82-6.94,5.44-10.57l7.16,6.86Z"/><path class="cls-12" d="M1054.93,181.25c.48.15.95.3,1.43.44-.45-.13-.9-.27-1.35-.4h-.02s-.06-.04-.06-.04Z"/><path class="cls-12" d="M1056.72,181.8c.44.13.89.25,1.33.37-.12-.03-.24-.06-.35-.1-.33-.09-.66-.18-.98-.28Z"/><path class="cls-12" d="M1061.56,183.06c.23.05.46.11.69.16-.3-.07-.6-.13-.9-.21.07.02.14.04.22.05Z"/><path class="cls-12" d="M1069.21,184.47c.13.02.27.04.41.06-.24-.03-.47-.07-.71-.1.1.01.19.02.3.04Z"/><path class="cls-12" d="M1076.87,185.21c.13.01.27.02.4.02-.48-.02-.95-.05-1.42-.08.34.02.68.04,1.03.05Z"/><path class="cls-12" d="M1083.68,185.31c.13,0,.27,0,.4,0-.39.01-.79.02-1.18.02.25,0,.5,0,.75-.02h.04Z"/><path class="cls-12" d="M1088.09,185.1c.08,0,.17,0,.26-.01-.28.02-.56.05-.83.06.19-.01.39-.03.57-.05Z"/><path class="cls-12" d="M1088.65,185.06c.24-.02.49-.03.73-.05-.32.03-.64.05-.97.07.08,0,.16-.01.24-.02Z"/><path class="cls-12" d="M1105.85,182c.06-.02.13-.03.19-.05-.11.03-.22.06-.33.09.05-.01.09-.02.14-.04Z"/><path class="cls-12" d="M1124.93,174.13c.15-.08.3-.16.45-.25-.28.16-.57.33-.86.48.14-.07.28-.15.41-.23Z"/><path class="cls-12" d="M1130.94,170.46c.16-.1.32-.21.48-.32-.16.11-.32.22-.48.33h0Z"/><path class="cls-12" d="M1134.2,168.18l.18-.13c-.24.18-.49.36-.73.54.18-.13.37-.27.55-.41Z"/><path class="cls-12" d="M1152.37,150.39c.05-.05.09-.11.14-.17-.2.26-.4.51-.6.77.16-.2.31-.4.46-.6Z"/><path class="cls-12" d="M1165.35,126.7s0,0,0,.01h0s0-.01,0-.01Z"/><polyline class="cls-23" points="1099.53 97.12 1165.97 123.01 1166.53 123.22"/><line class="cls-23" x1="1022.79" y1="163.09" x2="1022.75" y2="163.05"/><path class="cls-15" d="M1182.79,137.26c-1.62,3.63-3.49,7.14-5.44,10.57-.53.91-1.11,1.8-1.66,2.7-.57.89-1.08,1.81-1.7,2.66l-1.8,2.6c-.57.88-1.21,1.72-1.85,2.56l-1.9,2.52c-.66.82-1.34,1.62-2.01,2.43-1.31,1.64-2.76,3.16-4.17,4.71-.69.79-1.45,1.51-2.19,2.26l-2.21,2.23-2.32,2.11c-.78.7-1.53,1.42-2.35,2.08-6.39,5.37-13.31,10.12-20.69,13.97-.98.51-1.97,1-2.97,1.48-.49.24-1,.48-1.5.71-.5.24-1.01.46-1.51.69-.51.22-1.01.45-1.53.66-.51.22-1.02.43-1.53.64-.51.21-1.03.42-1.54.62-.5.2-1.01.39-1.51.59-3.83,1.44-7.74,2.67-11.7,3.68-.33.08-.66.17-.99.25-.94.23-1.88.45-2.83.66-.07.01-.13.03-.2.04-.88.19-1.77.37-2.65.53-.48.09-.95.18-1.43.26-.48.08-.96.17-1.44.24-.34.05-.69.11-1.04.16-.29.04-.59.08-.88.13-.42.06-.83.11-1.25.17-1.34.18-2.68.33-4.04.45-.45.04-.89.08-1.33.11-1.97.16-3.95.25-5.93.3-7.29.22-14.59-.27-21.76-1.5l-40.15-38.4c.32.29.65.57.97.84.05.04.1.09.15.13.21.17.41.35.62.52.18.16.36.3.54.45.05.05.1.09.16.13.25.21.51.41.76.62.15.13.31.25.46.37.34.27.68.53,1.02.8.27.21.54.42.81.62.07.06.14.11.22.17.13.09.25.18.37.27.41.31.83.61,1.25.9,0,0,.02.01.02.02.54.39,1.09.77,1.64,1.14.07.04.13.09.19.13.54.37,1.09.73,1.64,1.07.66.43,1.32.84,1.99,1.24.25.15.5.31.75.46.33.2.67.4,1.01.59.2.12.4.24.6.35.03.02.07.04.1.05.3.17.59.34.9.5.12.06.25.13.36.2.56.3,1.12.6,1.7.89.02.01.04.02.07.03.53.28,1.07.55,1.6.8.21.1.42.21.63.31.32.15.63.3.95.44.11.05.22.1.33.15.22.1.43.21.66.3.07.04.15.07.22.1.34.16.69.31,1.03.45.11.05.22.1.34.14.08.03.15.07.22.1.63.26,1.25.51,1.88.77.02.01.04.02.06.02.64.25,1.28.5,1.94.74.3.11.61.22.92.33.3.1.6.21.91.31.05.02.11.04.17.05.1.04.19.07.28.1h0s.01,0,.02,0c.25.08.5.17.75.25.13.04.25.08.38.12.19.07.39.13.59.19h.02c.45.15.89.29,1.35.42.01,0,.02,0,.03.01.05.02.11.03.17.05.05.02.11.03.16.05.33.1.65.19.98.28.11.04.24.07.35.1.45.13.89.25,1.34.36.02,0,.04.02.07.02.31.08.63.16.94.24.32.08.63.16.95.23.04,0,.07.02.11.02.27.07.53.12.8.18.02,0,.03,0,.05.01.28.06.56.12.84.18.42.09.83.17,1.25.25.43.09.87.17,1.3.25.43.08.87.16,1.31.22.21.04.42.07.62.1.38.07.77.12,1.14.17.05,0,.1.01.15.02.24.03.47.07.71.1.18.02.37.05.55.07.1.01.21.02.31.04.05.01.11.02.16.02.32.04.64.07.97.11.25.04.51.06.76.08.09.01.19.02.28.03.16.02.33.03.49.05.1,0,.19.02.29.02.25.02.5.05.75.07.22.02.43.04.65.05.34.03.69.05,1.03.07.24.02.48.03.71.04.17.01.34.02.51.02.07,0,.13.01.2.01.13,0,.26.01.39.02h.02c.28.02.57.03.86.04.17,0,.35.01.52.02.1,0,.2,0,.3,0,.29,0,.57.01.86.02.24,0,.48,0,.71,0,.24,0,.48,0,.72,0,.21,0,.41,0,.62,0h.19c.13,0,.26,0,.39,0h.04c.39,0,.79-.01,1.18-.02.14,0,.27,0,.4-.01.46-.01.94-.03,1.4-.05.31-.01.62-.03.93-.05.02,0,.04,0,.07,0,.19,0,.39-.02.57-.03.02,0,.04,0,.07,0,.28-.01.55-.04.83-.06.02,0,.04,0,.07,0,.1,0,.19-.01.28-.02.11,0,.22,0,.32-.02.04,0,.07,0,.1-.01.09,0,.17-.01.26-.02.02,0,.05,0,.07,0,.05,0,.09,0,.14-.01.04,0,.08,0,.12-.01.24-.02.49-.04.73-.07.11,0,.21-.02.32-.03.14-.01.27-.02.41-.04.02,0,.03,0,.05,0,.16-.01.31-.03.46-.05.16-.01.31-.03.46-.05.07,0,.13-.01.2-.02.11,0,.21-.02.32-.04.13-.01.25-.03.38-.05.17-.02.35-.04.52-.07.25-.03.49-.07.74-.1.25-.03.49-.07.74-.11.2-.02.4-.05.6-.09.01,0,.02,0,.04,0,.02,0,.03,0,.04,0,.16-.02.32-.05.48-.08.02,0,.04,0,.07-.01.04,0,.08-.01.12-.02.01,0,.02,0,.04,0,.03-.01.07-.01.1-.02.02,0,.03,0,.05,0,.04-.01.08-.01.13-.02.04,0,.08-.01.13-.02.34-.05.69-.11,1.03-.19.12-.02.24-.04.36-.07.46-.08.93-.17,1.39-.27.1-.02.21-.04.3-.06.1-.02.21-.04.31-.07h.01c.41-.08.83-.18,1.24-.27.1-.02.2-.05.3-.07.5-.11,1-.24,1.5-.36.08-.02.17-.04.25-.06.16-.04.31-.08.46-.12.09-.02.19-.05.28-.07.31-.08.63-.16.94-.25.16-.05.31-.09.46-.13.02,0,.04-.01.06-.02.11-.03.22-.06.33-.09.06-.02.12-.03.17-.05.13-.04.25-.07.37-.1.13-.04.27-.08.4-.12l.42-.13c.2-.05.39-.11.59-.17.01,0,.03,0,.04-.01.1-.03.19-.06.29-.1.01,0,.03,0,.04-.01.03,0,.07-.02.1-.03.07-.02.13-.04.19-.06.16-.05.31-.1.47-.15.39-.12.78-.25,1.17-.39.14-.04.28-.09.41-.14.46-.16.92-.32,1.38-.49.22-.08.44-.16.66-.24.1-.04.2-.07.3-.11.33-.11.65-.24.97-.37.4-.15.8-.31,1.19-.48.13-.04.25-.1.37-.15.39-.16.78-.33,1.16-.49.11-.04.21-.08.32-.13.02-.01.04-.02.06-.02.04-.02.08-.04.13-.06.06-.02.13-.05.19-.08.07-.03.13-.06.19-.09.07-.02.13-.05.19-.08.28-.12.56-.25.84-.37,1.09-.49,2.17-1.01,3.23-1.55.33-.17.66-.34.99-.52.17-.08.36-.18.53-.28.07-.04.14-.07.21-.11.02,0,.03-.02.05-.02.13-.07.27-.14.39-.21.16-.08.33-.17.48-.27.29-.15.57-.31.86-.48.04-.02.08-.04.11-.07.08-.04.17-.1.26-.14.19-.11.38-.22.57-.33.05-.03.1-.05.14-.08.14-.08.29-.17.43-.25.2-.11.4-.24.6-.36.22-.13.44-.27.66-.4.01,0,.02-.01.03-.02.04-.02.07-.04.1-.07.28-.16.57-.34.84-.52,0,0,.01,0,.02-.01.05-.03.11-.07.17-.1.29-.18.57-.37.86-.56.23-.14.45-.3.68-.44.03-.02.05-.04.08-.05.08-.05.16-.11.24-.16.08-.05.16-.11.24-.16.04-.02.07-.05.11-.07.11-.07.23-.15.34-.23.41-.28.82-.56,1.22-.86.19-.13.38-.26.57-.4.24-.17.49-.36.73-.54.07-.05.13-.09.18-.13.07-.05.13-.1.2-.14.16-.11.31-.22.46-.34.93-.7,1.85-1.42,2.75-2.16.42-.34.83-.68,1.24-1.03.05-.04.1-.09.15-.13,0,0,.02-.01.02-.02.4-.33.8-.68,1.19-1.03.05-.04.08-.07.13-.11.42-.37.82-.74,1.23-1.12.43-.39.86-.79,1.28-1.19.34-.33.69-.67,1.04-1.01l.21-.21c.42-.4.82-.82,1.22-1.24.4-.43.81-.84,1.2-1.27.4-.42.8-.86,1.18-1.29.39-.43.77-.87,1.15-1.32.76-.88,1.51-1.79,2.23-2.7.16-.2.31-.4.46-.6.21-.26.4-.51.6-.77.02-.03.04-.06.07-.09.29-.38.57-.77.86-1.16.09-.11.17-.23.26-.36.29-.4.59-.81.88-1.23.33-.46.65-.92.96-1.39.02-.04.05-.07.08-.11.27-.39.53-.8.79-1.21.02-.03.04-.05.05-.08.37-.56.72-1.13,1.08-1.71.17-.29.35-.57.52-.87,0,0,0,0,0,0,.1-.17.21-.34.31-.52.27-.45.53-.9.78-1.35.24-.42.46-.83.69-1.25.22-.4.44-.81.65-1.22.2-.37.39-.75.59-1.13,0-.01.01-.02.02-.04,0-.01.01-.02.02-.04.22-.43.44-.87.65-1.31.22-.46.45-.94.66-1.41.02-.03.02-.05.04-.08.49-1.07.96-2.14,1.41-3.23.01-.03.02-.06.04-.09.02-.04.03-.07.05-.11.1-.24.19-.48.29-.72.1-.24.19-.49.29-.73.21-.53.41-1.07.61-1.6.06-.16.12-.32.17-.48h0s0-.01,0-.02c.15-.42.3-.82.45-1.24.17-.52.34-1.03.51-1.54.04-.12.08-.22.11-.34.04-.12.08-.24.11-.36l2.65,1.04,13.6,12.99Z"/><line class="cls-23" x1="1169.19" y1="124.26" x2="1166.89" y2="122.06"/><path class="cls-55" d="M1004.76,133.37c-9.56-18.3-6.7-49.61-3.49-57.61,3.22-8,8.58-1.08,6.97,3.23s-8.44,32.35,3.24,51.03c4.53,7.25-2.7,11.05-6.73,3.35Z"/></g></svg>