<?xml version="1.0" encoding="UTF-8"?><svg id="Layer_2" xmlns="http://www.w3.org/2000/svg" viewBox="0 0 45.18 36.55"><defs><style>.cls-1{fill:#f8f3de;}</style></defs><g id="Layer_1-2"><path class="cls-1" d="M45.18,36.55h-24.58c-.1,0-.2,0-.3,0-4.76-.14-11.57-3.7-16.38-10.55h0C2.36,23.77,1.01,21.21,0,18.3c0,0,0-.02,0-.02,0-.01,0-.02,0-.03,1-2.9,2.35-5.47,3.91-7.69h0C8.73,3.7,15.55.15,20.3,0c.1,0,.2,0,.3,0h24.58v10.26h-24.52c-.26,0-.51,0-.76.02-2.66.55-6.51,3.3-8.36,7.55h0c-.06.14-.12.28-.18.42h-.02s0,.02.01.03c0,0,0,.02-.01.03h.02c.05.14.11.28.18.42h0c1.86,4.25,5.71,7,8.36,7.55.25.01.5.02.76.02h24.52v10.26Z"/></g></svg>