<?xml version="1.0" encoding="UTF-8"?><svg id="Layer_2" xmlns="http://www.w3.org/2000/svg" xmlns:xlink="http://www.w3.org/1999/xlink" viewBox="0 0 546 284"><defs><style>.cls-1{fill:none;}.cls-2{fill:#fbf5f3;}.cls-3{fill:#3185fc;}.cls-4{fill:url(#linear-gradient);}.cls-5{clip-path:url(#clippath);}</style><linearGradient id="linear-gradient" x1="65.96" y1="-16.77" x2="517.64" y2="329.6" gradientUnits="userSpaceOnUse"><stop offset="0" stop-color="#231f20"/><stop offset="0" stop-color="#231f20"/><stop offset=".16" stop-color="#2a2627"/><stop offset=".51" stop-color="#2c2929"/><stop offset=".78" stop-color="#292526"/><stop offset=".94" stop-color="#231f20"/></linearGradient><clipPath id="clippath"><rect class="cls-1" x="56.15" y="118.99" width="433.7" height="46.03"/></clipPath></defs><g id="Layer_1-2"><rect class="cls-4" width="546" height="284"/><g class="cls-5"><path class="cls-3" d="M337.47,153.47h-.05v.19s.02,0,.02-.01c.01,0,.02,0,.03-.01.14-.05.28-.11.42-.18-.14,0-.28.01-.42.01"/><path class="cls-3" d="M355.72,119.82v24.58c0,.1,0,.2,0,.3-.14,4.76-3.7,11.57-10.55,16.38h0c-2.22,1.56-4.78,2.91-7.69,3.91,0,0-.02,0-.02,0-.01,0-.02,0-.03,0-2.9-1-5.47-2.35-7.69-3.91h0c-6.85-4.81-10.41-11.63-10.55-16.38,0-.1,0-.2,0-.3v-24.58h10.26v24.52c0,.26,0,.51.02.76.55,2.66,3.3,6.51,7.55,8.36h0c.14.06.28.12.42.18v.02s.02,0,.03-.01c0,0,.02,0,.03.01v-.02c.14-.05.28-.11.42-.18h0c4.25-1.86,7-5.71,7.54-8.36.01-.25.02-.5.02-.76v-24.52h10.26Z"/><path class="cls-3" d="M337.42,165s.02,0,.03,0c-.01,0-.02,0-.03.01v-.02Z"/><path class="cls-3" d="M337.47,153.63v.02s-.02,0-.03-.01c.01,0,.02,0,.03-.01"/><polygon class="cls-2" points="70.77 145.71 56.15 119.82 67.48 119.82 75.9 135.87 84.31 119.82 95.64 119.82 81.03 145.71 81.03 161.58 70.77 161.58 70.77 145.71"/><path class="cls-2" d="M95.76,140.7c0-11.99,8.65-21.71,21.18-21.71s21.18,9.72,21.18,21.71-8.65,21.71-21.18,21.71-21.18-9.72-21.18-21.71M127.86,140.7c0-6.14-3.64-12.77-10.92-12.77s-10.92,6.62-10.92,12.77,3.64,12.77,10.92,12.77,10.92-6.62,10.92-12.77"/><path class="cls-2" d="M144.26,144.4v-24.58h10.26v24.52c0,5.85,2.92,9.13,8.05,9.13s8.05-3.28,8.05-9.13v-24.52h10.26v24.58c0,10.98-7.1,18.02-18.32,18.02s-18.31-7.04-18.31-18.02"/><polygon class="cls-2" points="199.21 128.71 186.44 128.71 186.44 119.82 222.23 119.82 222.23 128.71 209.47 128.71 209.47 161.58 199.21 161.58 199.21 128.71"/><polygon class="cls-2" points="227.9 119.82 238.16 119.82 238.16 136.17 255.22 136.17 255.22 119.82 265.48 119.82 265.48 161.58 255.22 161.58 255.22 145.12 238.16 145.12 238.16 161.58 227.9 161.58 227.9 119.82"/><path class="cls-2" d="M292.99,127.93c-6.98,0-10.98,6.32-10.98,12.77,0,7.04,3.64,13.12,10.86,13.12,5.61,0,8.53-2.92,9.49-6.44h-11.04v-8.59h21.6v3.94c0,11.69-7.58,19.69-20.04,19.69-13.96,0-21.12-10.2-21.12-21.71s7.93-21.72,21-21.72c10.44,0,17.6,5.37,19.63,14.38h-10.38c-1.25-3.1-4.24-5.43-9.01-5.43"/><path class="cls-2" d="M375.49,119.82h10.86l16.23,41.76h-10.74l-2.86-8.29h-16.11l-2.86,8.29h-10.74l16.23-41.76ZM385.87,144.4l-4.95-14.38-4.95,14.38h9.9Z"/><path class="cls-2" d="M407.53,119.82h21.18c9.96,0,15.99,5.61,15.99,13.42,0,6.03-3.64,10.68-9.61,12.53l7.76,15.81h-11.81l-7.22-14.86h-6.02v14.86h-10.26v-41.76ZM428.11,138.31c3.94,0,6.32-2.03,6.32-5.13,0-2.86-2.39-4.95-6.32-4.95h-10.32v10.08h10.32Z"/><path class="cls-2" d="M451.01,119.82h17.36c12.47,0,21.48,9.07,21.48,20.88s-9.01,20.88-21.48,20.88h-17.36v-41.76ZM467.06,152.81c7.34,0,12.53-4.95,12.53-12.11s-5.19-12.11-12.53-12.11h-5.85v24.22h5.85Z"/></g></g></svg>